<?xml version="1.0" encoding="utf-8" standalone="no"?>
<!DOCTYPE svg PUBLIC "-//W3C//DTD SVG 1.1//EN"
  "http://www.w3.org/Graphics/SVG/1.1/DTD/svg11.dtd">
<!-- Created with matplotlib (http://matplotlib.org/) -->
<svg height="288pt" version="1.1" viewBox="0 0 576 288" width="576pt" xmlns="http://www.w3.org/2000/svg" xmlns:xlink="http://www.w3.org/1999/xlink">
 <defs>
  <style type="text/css">
*{stroke-linecap:butt;stroke-linejoin:round;stroke-miterlimit:100000;}
  </style>
 </defs>
 <g id="figure_1">
  <g id="patch_1">
   <path d="M 0 288 
L 576 288 
L 576 0 
L 0 0 
z
" style="fill:#ffffff;"/>
  </g>
  <g id="axes_1">
   <g id="patch_2">
    <path d="M 37.844646 258.165354 
L 283.927854 258.165354 
L 283.927854 2.834646 
L 37.844646 2.834646 
z
" style="fill:#ffffff;"/>
   </g>
   <g id="PolyCollection_1">
    <defs>
     <path d="M 37.844646 -32.316541 
L 37.844646 -32.316541 
L 43.996726 -31.977552 
L 50.148806 -32.009474 
L 56.300886 -32.00707 
L 62.452967 -32.05537 
L 68.605047 -32.148038 
L 74.757127 -32.271406 
L 80.909207 -32.413942 
L 87.061287 -32.605745 
L 93.213368 -32.730928 
L 99.365448 -32.909576 
L 105.517528 -33.132882 
L 111.669608 -33.337114 
L 117.821688 -33.602584 
L 123.973769 -33.88169 
L 130.125849 -34.218005 
L 136.277929 -34.422501 
L 142.430009 -34.742787 
L 148.58209 -35.15893 
L 154.73417 -35.602045 
L 160.88625 -36.086113 
L 167.03833 -36.766705 
L 173.19041 -37.325107 
L 179.342491 -37.988204 
L 185.494571 -38.93853 
L 191.646651 -39.674418 
L 197.798731 -40.540328 
L 203.950812 -41.69053 
L 210.102892 -42.851642 
L 216.254972 -44.275855 
L 222.407052 -45.716493 
L 228.559132 -47.066303 
L 234.711213 -48.57591 
L 240.863293 -50.537721 
L 247.015373 -52.685239 
L 253.167453 -54.908126 
L 259.319533 -57.579345 
L 265.471614 -60.361616 
L 271.623694 -63.38413 
L 277.775774 -66.756361 
L 283.927854 -70.204943 
L 283.927854 -285.165354 
L 283.927854 -285.165354 
L 277.775774 -260.813725 
L 271.623694 -239.015562 
L 265.471614 -218.960416 
L 259.319533 -201.294844 
L 253.167453 -184.795901 
L 247.015373 -169.701111 
L 240.863293 -156.068736 
L 234.711213 -144.394019 
L 228.559132 -132.990819 
L 222.407052 -123.126431 
L 216.254972 -114.186787 
L 210.102892 -106.198659 
L 203.950812 -98.657251 
L 197.798731 -92.10762 
L 191.646651 -86.097685 
L 185.494571 -80.562319 
L 179.342491 -75.614668 
L 173.19041 -71.311988 
L 167.03833 -67.431767 
L 160.88625 -63.800811 
L 154.73417 -60.252294 
L 148.58209 -57.118501 
L 142.430009 -54.314136 
L 136.277929 -52.080055 
L 130.125849 -49.738126 
L 123.973769 -47.781169 
L 117.821688 -45.962577 
L 111.669608 -44.277277 
L 105.517528 -42.833529 
L 99.365448 -41.487285 
L 93.213368 -40.238346 
L 87.061287 -39.1474 
L 80.909207 -38.208452 
L 74.757127 -37.287743 
L 68.605047 -36.391548 
L 62.452967 -35.582792 
L 56.300886 -34.850785 
L 50.148806 -34.165362 
L 43.996726 -33.580782 
L 37.844646 -32.316541 
z
" id="m204a471a97"/>
    </defs>
    <g clip-path="url(#pa1a5e39d80)">
     <use style="fill:#009afa;fill-opacity:0.3;" x="0.0" xlink:href="#m204a471a97" y="288.0"/>
    </g>
   </g>
   <g id="line2d_1">
    <path clip-path="url(#pa1a5e39d80)" d="M 37.844646 255.683459 
L 43.996726 255.220833 
L 50.148806 254.912582 
L 56.300886 254.571073 
L 62.452967 254.180919 
L 68.605047 253.730207 
L 74.757127 253.220425 
L 80.909207 252.688803 
L 87.061287 252.123427 
L 93.213368 251.515363 
L 99.365448 250.80157 
L 105.517528 250.016794 
L 111.669608 249.192805 
L 117.821688 248.21742 
L 123.973769 247.16857 
L 130.125849 246.021935 
L 136.277929 244.748722 
L 142.430009 243.471539 
L 148.58209 241.861285 
L 154.73417 240.07283 
L 160.88625 238.056538 
L 167.03833 235.900764 
L 173.19041 233.681452 
L 179.342491 231.198564 
L 185.494571 228.249575 
L 191.646651 225.113948 
L 197.798731 221.676026 
L 203.950812 217.826109 
L 210.102892 213.47485 
L 216.254972 208.768679 
L 222.407052 203.578538 
L 228.559132 197.971439 
L 234.711213 191.515036 
L 240.863293 184.696772 
L 247.015373 176.806825 
L 253.167453 168.147987 
L 259.319533 158.562905 
L 265.471614 148.338984 
L 271.623694 136.800154 
L 277.775774 124.214957 
L 283.927854 110.314851 
" style="fill:none;stroke:#009afa;stroke-linecap:round;"/>
   </g>
   <g id="patch_3">
    <path d="M 37.844646 2.834646 
L 283.927854 2.834646 
" style="fill:none;stroke:#000000;stroke-linecap:square;stroke-linejoin:miter;"/>
   </g>
   <g id="patch_4">
    <path d="M 283.927854 258.165354 
L 283.927854 2.834646 
" style="fill:none;stroke:#000000;stroke-linecap:square;stroke-linejoin:miter;"/>
   </g>
   <g id="patch_5">
    <path d="M 37.844646 258.165354 
L 283.927854 258.165354 
" style="fill:none;stroke:#000000;stroke-linecap:square;stroke-linejoin:miter;"/>
   </g>
   <g id="patch_6">
    <path d="M 37.844646 258.165354 
L 37.844646 2.834646 
" style="fill:none;stroke:#000000;stroke-linecap:square;stroke-linejoin:miter;"/>
   </g>
   <g id="matplotlib.axis_1">
    <g id="xtick_1">
     <g id="line2d_2">
      <defs>
       <path d="M 0 0 
L 0 -4 
" id="m8135eceede" style="stroke:#000000;stroke-width:0.5;"/>
      </defs>
      <g>
       <use style="stroke:#000000;stroke-width:0.5;" x="37.8446456693" xlink:href="#m8135eceede" y="258.165354331"/>
      </g>
     </g>
     <g id="line2d_3">
      <defs>
       <path d="M 0 0 
L 0 4 
" id="m6974356d39" style="stroke:#000000;stroke-width:0.5;"/>
      </defs>
      <g>
       <use style="stroke:#000000;stroke-width:0.5;" x="37.8446456693" xlink:href="#m6974356d39" y="2.83464566929"/>
      </g>
     </g>
     <g id="text_1">
      <!-- 0 -->
      <defs>
       <path d="M 31.78125 66.40625 
Q 24.171875 66.40625 20.328125 58.90625 
Q 16.5 51.421875 16.5 36.375 
Q 16.5 21.390625 20.328125 13.890625 
Q 24.171875 6.390625 31.78125 6.390625 
Q 39.453125 6.390625 43.28125 13.890625 
Q 47.125 21.390625 47.125 36.375 
Q 47.125 51.421875 43.28125 58.90625 
Q 39.453125 66.40625 31.78125 66.40625 
M 31.78125 74.21875 
Q 44.046875 74.21875 50.515625 64.515625 
Q 56.984375 54.828125 56.984375 36.375 
Q 56.984375 17.96875 50.515625 8.265625 
Q 44.046875 -1.421875 31.78125 -1.421875 
Q 19.53125 -1.421875 13.0625 8.265625 
Q 6.59375 17.96875 6.59375 36.375 
Q 6.59375 54.828125 13.0625 64.515625 
Q 19.53125 74.21875 31.78125 74.21875 
" id="BitstreamVeraSans-Roman-30"/>
      </defs>
      <g transform="translate(35.2996456693 268.244104331)scale(0.08 -0.08)">
       <use xlink:href="#BitstreamVeraSans-Roman-30"/>
      </g>
     </g>
    </g>
    <g id="xtick_2">
     <g id="line2d_4">
      <g>
       <use style="stroke:#000000;stroke-width:0.5;" x="99.3654478346" xlink:href="#m8135eceede" y="258.165354331"/>
      </g>
     </g>
     <g id="line2d_5">
      <g>
       <use style="stroke:#000000;stroke-width:0.5;" x="99.3654478346" xlink:href="#m6974356d39" y="2.83464566929"/>
      </g>
     </g>
     <g id="text_2">
      <!-- 1 -->
      <defs>
       <path d="M 12.40625 8.296875 
L 28.515625 8.296875 
L 28.515625 63.921875 
L 10.984375 60.40625 
L 10.984375 69.390625 
L 28.421875 72.90625 
L 38.28125 72.90625 
L 38.28125 8.296875 
L 54.390625 8.296875 
L 54.390625 0 
L 12.40625 0 
z
" id="BitstreamVeraSans-Roman-31"/>
      </defs>
      <g transform="translate(96.8204478346 268.244104331)scale(0.08 -0.08)">
       <use xlink:href="#BitstreamVeraSans-Roman-31"/>
      </g>
     </g>
    </g>
    <g id="xtick_3">
     <g id="line2d_6">
      <g>
       <use style="stroke:#000000;stroke-width:0.5;" x="160.88625" xlink:href="#m8135eceede" y="258.165354331"/>
      </g>
     </g>
     <g id="line2d_7">
      <g>
       <use style="stroke:#000000;stroke-width:0.5;" x="160.88625" xlink:href="#m6974356d39" y="2.83464566929"/>
      </g>
     </g>
     <g id="text_3">
      <!-- 2 -->
      <defs>
       <path d="M 19.1875 8.296875 
L 53.609375 8.296875 
L 53.609375 0 
L 7.328125 0 
L 7.328125 8.296875 
Q 12.9375 14.109375 22.625 23.890625 
Q 32.328125 33.6875 34.8125 36.53125 
Q 39.546875 41.84375 41.421875 45.53125 
Q 43.3125 49.21875 43.3125 52.78125 
Q 43.3125 58.59375 39.234375 62.25 
Q 35.15625 65.921875 28.609375 65.921875 
Q 23.96875 65.921875 18.8125 64.3125 
Q 13.671875 62.703125 7.8125 59.421875 
L 7.8125 69.390625 
Q 13.765625 71.78125 18.9375 73 
Q 24.125 74.21875 28.421875 74.21875 
Q 39.75 74.21875 46.484375 68.546875 
Q 53.21875 62.890625 53.21875 53.421875 
Q 53.21875 48.921875 51.53125 44.890625 
Q 49.859375 40.875 45.40625 35.40625 
Q 44.1875 33.984375 37.640625 27.21875 
Q 31.109375 20.453125 19.1875 8.296875 
" id="BitstreamVeraSans-Roman-32"/>
      </defs>
      <g transform="translate(158.34125 268.244104331)scale(0.08 -0.08)">
       <use xlink:href="#BitstreamVeraSans-Roman-32"/>
      </g>
     </g>
    </g>
    <g id="xtick_4">
     <g id="line2d_8">
      <g>
       <use style="stroke:#000000;stroke-width:0.5;" x="222.407052165" xlink:href="#m8135eceede" y="258.165354331"/>
      </g>
     </g>
     <g id="line2d_9">
      <g>
       <use style="stroke:#000000;stroke-width:0.5;" x="222.407052165" xlink:href="#m6974356d39" y="2.83464566929"/>
      </g>
     </g>
     <g id="text_4">
      <!-- 3 -->
      <defs>
       <path d="M 40.578125 39.3125 
Q 47.65625 37.796875 51.625 33 
Q 55.609375 28.21875 55.609375 21.1875 
Q 55.609375 10.40625 48.1875 4.484375 
Q 40.765625 -1.421875 27.09375 -1.421875 
Q 22.515625 -1.421875 17.65625 -0.515625 
Q 12.796875 0.390625 7.625 2.203125 
L 7.625 11.71875 
Q 11.71875 9.328125 16.59375 8.109375 
Q 21.484375 6.890625 26.8125 6.890625 
Q 36.078125 6.890625 40.9375 10.546875 
Q 45.796875 14.203125 45.796875 21.1875 
Q 45.796875 27.640625 41.28125 31.265625 
Q 36.765625 34.90625 28.71875 34.90625 
L 20.21875 34.90625 
L 20.21875 43.015625 
L 29.109375 43.015625 
Q 36.375 43.015625 40.234375 45.921875 
Q 44.09375 48.828125 44.09375 54.296875 
Q 44.09375 59.90625 40.109375 62.90625 
Q 36.140625 65.921875 28.71875 65.921875 
Q 24.65625 65.921875 20.015625 65.03125 
Q 15.375 64.15625 9.8125 62.3125 
L 9.8125 71.09375 
Q 15.4375 72.65625 20.34375 73.4375 
Q 25.25 74.21875 29.59375 74.21875 
Q 40.828125 74.21875 47.359375 69.109375 
Q 53.90625 64.015625 53.90625 55.328125 
Q 53.90625 49.265625 50.4375 45.09375 
Q 46.96875 40.921875 40.578125 39.3125 
" id="BitstreamVeraSans-Roman-33"/>
      </defs>
      <g transform="translate(219.862052165 268.244104331)scale(0.08 -0.08)">
       <use xlink:href="#BitstreamVeraSans-Roman-33"/>
      </g>
     </g>
    </g>
    <g id="xtick_5">
     <g id="line2d_10">
      <g>
       <use style="stroke:#000000;stroke-width:0.5;" x="283.927854331" xlink:href="#m8135eceede" y="258.165354331"/>
      </g>
     </g>
     <g id="line2d_11">
      <g>
       <use style="stroke:#000000;stroke-width:0.5;" x="283.927854331" xlink:href="#m6974356d39" y="2.83464566929"/>
      </g>
     </g>
     <g id="text_5">
      <!-- 4 -->
      <defs>
       <path d="M 37.796875 64.3125 
L 12.890625 25.390625 
L 37.796875 25.390625 
z
M 35.203125 72.90625 
L 47.609375 72.90625 
L 47.609375 25.390625 
L 58.015625 25.390625 
L 58.015625 17.1875 
L 47.609375 17.1875 
L 47.609375 0 
L 37.796875 0 
L 37.796875 17.1875 
L 4.890625 17.1875 
L 4.890625 26.703125 
z
" id="BitstreamVeraSans-Roman-34"/>
      </defs>
      <g transform="translate(281.382854331 268.244104331)scale(0.08 -0.08)">
       <use xlink:href="#BitstreamVeraSans-Roman-34"/>
      </g>
     </g>
    </g>
    <g id="text_6">
     <!-- time -->
     <defs>
      <path d="M 56.203125 29.59375 
L 56.203125 25.203125 
L 14.890625 25.203125 
Q 15.484375 15.921875 20.484375 11.0625 
Q 25.484375 6.203125 34.421875 6.203125 
Q 39.59375 6.203125 44.453125 7.46875 
Q 49.3125 8.734375 54.109375 11.28125 
L 54.109375 2.78125 
Q 49.265625 0.734375 44.1875 -0.34375 
Q 39.109375 -1.421875 33.890625 -1.421875 
Q 20.796875 -1.421875 13.15625 6.1875 
Q 5.515625 13.8125 5.515625 26.8125 
Q 5.515625 40.234375 12.765625 48.109375 
Q 20.015625 56 32.328125 56 
Q 43.359375 56 49.78125 48.890625 
Q 56.203125 41.796875 56.203125 29.59375 
M 47.21875 32.234375 
Q 47.125 39.59375 43.09375 43.984375 
Q 39.0625 48.390625 32.421875 48.390625 
Q 24.90625 48.390625 20.390625 44.140625 
Q 15.875 39.890625 15.1875 32.171875 
z
" id="BitstreamVeraSans-Roman-65"/>
      <path d="M 52 44.1875 
Q 55.375 50.25 60.0625 53.125 
Q 64.75 56 71.09375 56 
Q 79.640625 56 84.28125 50.015625 
Q 88.921875 44.046875 88.921875 33.015625 
L 88.921875 0 
L 79.890625 0 
L 79.890625 32.71875 
Q 79.890625 40.578125 77.09375 44.375 
Q 74.3125 48.1875 68.609375 48.1875 
Q 61.625 48.1875 57.5625 43.546875 
Q 53.515625 38.921875 53.515625 30.90625 
L 53.515625 0 
L 44.484375 0 
L 44.484375 32.71875 
Q 44.484375 40.625 41.703125 44.40625 
Q 38.921875 48.1875 33.109375 48.1875 
Q 26.21875 48.1875 22.15625 43.53125 
Q 18.109375 38.875 18.109375 30.90625 
L 18.109375 0 
L 9.078125 0 
L 9.078125 54.6875 
L 18.109375 54.6875 
L 18.109375 46.1875 
Q 21.1875 51.21875 25.484375 53.609375 
Q 29.78125 56 35.6875 56 
Q 41.65625 56 45.828125 52.96875 
Q 50 49.953125 52 44.1875 
" id="BitstreamVeraSans-Roman-6d"/>
      <path d="M 18.3125 70.21875 
L 18.3125 54.6875 
L 36.8125 54.6875 
L 36.8125 47.703125 
L 18.3125 47.703125 
L 18.3125 18.015625 
Q 18.3125 11.328125 20.140625 9.421875 
Q 21.96875 7.515625 27.59375 7.515625 
L 36.8125 7.515625 
L 36.8125 0 
L 27.59375 0 
Q 17.1875 0 13.234375 3.875 
Q 9.28125 7.765625 9.28125 18.015625 
L 9.28125 47.703125 
L 2.6875 47.703125 
L 2.6875 54.6875 
L 9.28125 54.6875 
L 9.28125 70.21875 
z
" id="BitstreamVeraSans-Roman-74"/>
      <path d="M 9.421875 54.6875 
L 18.40625 54.6875 
L 18.40625 0 
L 9.421875 0 
z
M 9.421875 75.984375 
L 18.40625 75.984375 
L 18.40625 64.59375 
L 9.421875 64.59375 
z
" id="BitstreamVeraSans-Roman-69"/>
     </defs>
     <g transform="translate(148.460546875 283.266135581)scale(0.11 -0.11)">
      <use xlink:href="#BitstreamVeraSans-Roman-74"/>
      <use x="39.208984375" xlink:href="#BitstreamVeraSans-Roman-69"/>
      <use x="66.9921875" xlink:href="#BitstreamVeraSans-Roman-6d"/>
      <use x="164.404296875" xlink:href="#BitstreamVeraSans-Roman-65"/>
     </g>
    </g>
   </g>
   <g id="matplotlib.axis_2">
    <g id="ytick_1">
     <g id="line2d_12">
      <defs>
       <path d="M 0 0 
L 4 0 
" id="mbb940687a7" style="stroke:#000000;stroke-width:0.5;"/>
      </defs>
      <g>
       <use style="stroke:#000000;stroke-width:0.5;" x="37.8446456693" xlink:href="#mbb940687a7" y="258.165354331"/>
      </g>
     </g>
     <g id="line2d_13">
      <defs>
       <path d="M 0 0 
L -4 0 
" id="mfa10a4136e" style="stroke:#000000;stroke-width:0.5;"/>
      </defs>
      <g>
       <use style="stroke:#000000;stroke-width:0.5;" x="283.927854331" xlink:href="#mfa10a4136e" y="258.165354331"/>
      </g>
     </g>
     <g id="text_7">
      <!-- 0 -->
      <g transform="translate(28.7546456693 260.372854331)scale(0.08 -0.08)">
       <use xlink:href="#BitstreamVeraSans-Roman-30"/>
      </g>
     </g>
    </g>
    <g id="ytick_2">
     <g id="line2d_14">
      <g>
       <use style="stroke:#000000;stroke-width:0.5;" x="37.8446456693" xlink:href="#mbb940687a7" y="208.527438636"/>
      </g>
     </g>
     <g id="line2d_15">
      <g>
       <use style="stroke:#000000;stroke-width:0.5;" x="283.927854331" xlink:href="#mfa10a4136e" y="208.527438636"/>
      </g>
     </g>
     <g id="text_8">
      <!-- 100 -->
      <g transform="translate(18.5746456693 210.734938636)scale(0.08 -0.08)">
       <use xlink:href="#BitstreamVeraSans-Roman-31"/>
       <use x="63.623046875" xlink:href="#BitstreamVeraSans-Roman-30"/>
       <use x="127.24609375" xlink:href="#BitstreamVeraSans-Roman-30"/>
      </g>
     </g>
    </g>
    <g id="ytick_3">
     <g id="line2d_16">
      <g>
       <use style="stroke:#000000;stroke-width:0.5;" x="37.8446456693" xlink:href="#mbb940687a7" y="158.889522942"/>
      </g>
     </g>
     <g id="line2d_17">
      <g>
       <use style="stroke:#000000;stroke-width:0.5;" x="283.927854331" xlink:href="#mfa10a4136e" y="158.889522942"/>
      </g>
     </g>
     <g id="text_9">
      <!-- 200 -->
      <g transform="translate(18.5746456693 161.097022942)scale(0.08 -0.08)">
       <use xlink:href="#BitstreamVeraSans-Roman-32"/>
       <use x="63.623046875" xlink:href="#BitstreamVeraSans-Roman-30"/>
       <use x="127.24609375" xlink:href="#BitstreamVeraSans-Roman-30"/>
      </g>
     </g>
    </g>
    <g id="ytick_4">
     <g id="line2d_18">
      <g>
       <use style="stroke:#000000;stroke-width:0.5;" x="37.8446456693" xlink:href="#mbb940687a7" y="109.251607247"/>
      </g>
     </g>
     <g id="line2d_19">
      <g>
       <use style="stroke:#000000;stroke-width:0.5;" x="283.927854331" xlink:href="#mfa10a4136e" y="109.251607247"/>
      </g>
     </g>
     <g id="text_10">
      <!-- 300 -->
      <g transform="translate(18.5746456693 111.459107247)scale(0.08 -0.08)">
       <use xlink:href="#BitstreamVeraSans-Roman-33"/>
       <use x="63.623046875" xlink:href="#BitstreamVeraSans-Roman-30"/>
       <use x="127.24609375" xlink:href="#BitstreamVeraSans-Roman-30"/>
      </g>
     </g>
    </g>
    <g id="ytick_5">
     <g id="line2d_20">
      <g>
       <use style="stroke:#000000;stroke-width:0.5;" x="37.8446456693" xlink:href="#mbb940687a7" y="59.6136915529"/>
      </g>
     </g>
     <g id="line2d_21">
      <g>
       <use style="stroke:#000000;stroke-width:0.5;" x="283.927854331" xlink:href="#mfa10a4136e" y="59.6136915529"/>
      </g>
     </g>
     <g id="text_11">
      <!-- 400 -->
      <g transform="translate(18.5746456693 61.8211915529)scale(0.08 -0.08)">
       <use xlink:href="#BitstreamVeraSans-Roman-34"/>
       <use x="63.623046875" xlink:href="#BitstreamVeraSans-Roman-30"/>
       <use x="127.24609375" xlink:href="#BitstreamVeraSans-Roman-30"/>
      </g>
     </g>
    </g>
    <g id="ytick_6">
     <g id="line2d_22">
      <g>
       <use style="stroke:#000000;stroke-width:0.5;" x="37.8446456693" xlink:href="#mbb940687a7" y="9.97577585847"/>
      </g>
     </g>
     <g id="line2d_23">
      <g>
       <use style="stroke:#000000;stroke-width:0.5;" x="283.927854331" xlink:href="#mfa10a4136e" y="9.97577585847"/>
      </g>
     </g>
     <g id="text_12">
      <!-- 500 -->
      <defs>
       <path d="M 10.796875 72.90625 
L 49.515625 72.90625 
L 49.515625 64.59375 
L 19.828125 64.59375 
L 19.828125 46.734375 
Q 21.96875 47.46875 24.109375 47.828125 
Q 26.265625 48.1875 28.421875 48.1875 
Q 40.625 48.1875 47.75 41.5 
Q 54.890625 34.8125 54.890625 23.390625 
Q 54.890625 11.625 47.5625 5.09375 
Q 40.234375 -1.421875 26.90625 -1.421875 
Q 22.3125 -1.421875 17.546875 -0.640625 
Q 12.796875 0.140625 7.71875 1.703125 
L 7.71875 11.625 
Q 12.109375 9.234375 16.796875 8.0625 
Q 21.484375 6.890625 26.703125 6.890625 
Q 35.15625 6.890625 40.078125 11.328125 
Q 45.015625 15.765625 45.015625 23.390625 
Q 45.015625 31 40.078125 35.4375 
Q 35.15625 39.890625 26.703125 39.890625 
Q 22.75 39.890625 18.8125 39.015625 
Q 14.890625 38.140625 10.796875 36.28125 
z
" id="BitstreamVeraSans-Roman-35"/>
      </defs>
      <g transform="translate(18.5746456693 12.1832758585)scale(0.08 -0.08)">
       <use xlink:href="#BitstreamVeraSans-Roman-35"/>
       <use x="63.623046875" xlink:href="#BitstreamVeraSans-Roman-30"/>
       <use x="127.24609375" xlink:href="#BitstreamVeraSans-Roman-30"/>
      </g>
     </g>
    </g>
    <g id="text_13">
     <!-- population mean -->
     <defs>
      <path id="BitstreamVeraSans-Roman-20"/>
      <path d="M 54.890625 33.015625 
L 54.890625 0 
L 45.90625 0 
L 45.90625 32.71875 
Q 45.90625 40.484375 42.875 44.328125 
Q 39.84375 48.1875 33.796875 48.1875 
Q 26.515625 48.1875 22.3125 43.546875 
Q 18.109375 38.921875 18.109375 30.90625 
L 18.109375 0 
L 9.078125 0 
L 9.078125 54.6875 
L 18.109375 54.6875 
L 18.109375 46.1875 
Q 21.34375 51.125 25.703125 53.5625 
Q 30.078125 56 35.796875 56 
Q 45.21875 56 50.046875 50.171875 
Q 54.890625 44.34375 54.890625 33.015625 
" id="BitstreamVeraSans-Roman-6e"/>
      <path d="M 30.609375 48.390625 
Q 23.390625 48.390625 19.1875 42.75 
Q 14.984375 37.109375 14.984375 27.296875 
Q 14.984375 17.484375 19.15625 11.84375 
Q 23.34375 6.203125 30.609375 6.203125 
Q 37.796875 6.203125 41.984375 11.859375 
Q 46.1875 17.53125 46.1875 27.296875 
Q 46.1875 37.015625 41.984375 42.703125 
Q 37.796875 48.390625 30.609375 48.390625 
M 30.609375 56 
Q 42.328125 56 49.015625 48.375 
Q 55.71875 40.765625 55.71875 27.296875 
Q 55.71875 13.875 49.015625 6.21875 
Q 42.328125 -1.421875 30.609375 -1.421875 
Q 18.84375 -1.421875 12.171875 6.21875 
Q 5.515625 13.875 5.515625 27.296875 
Q 5.515625 40.765625 12.171875 48.375 
Q 18.84375 56 30.609375 56 
" id="BitstreamVeraSans-Roman-6f"/>
      <path d="M 9.421875 75.984375 
L 18.40625 75.984375 
L 18.40625 0 
L 9.421875 0 
z
" id="BitstreamVeraSans-Roman-6c"/>
      <path d="M 8.5 21.578125 
L 8.5 54.6875 
L 17.484375 54.6875 
L 17.484375 21.921875 
Q 17.484375 14.15625 20.5 10.265625 
Q 23.53125 6.390625 29.59375 6.390625 
Q 36.859375 6.390625 41.078125 11.03125 
Q 45.3125 15.671875 45.3125 23.6875 
L 45.3125 54.6875 
L 54.296875 54.6875 
L 54.296875 0 
L 45.3125 0 
L 45.3125 8.40625 
Q 42.046875 3.421875 37.71875 1 
Q 33.40625 -1.421875 27.6875 -1.421875 
Q 18.265625 -1.421875 13.375 4.4375 
Q 8.5 10.296875 8.5 21.578125 
" id="BitstreamVeraSans-Roman-75"/>
      <path d="M 34.28125 27.484375 
Q 23.390625 27.484375 19.1875 25 
Q 14.984375 22.515625 14.984375 16.5 
Q 14.984375 11.71875 18.140625 8.90625 
Q 21.296875 6.109375 26.703125 6.109375 
Q 34.1875 6.109375 38.703125 11.40625 
Q 43.21875 16.703125 43.21875 25.484375 
L 43.21875 27.484375 
z
M 52.203125 31.203125 
L 52.203125 0 
L 43.21875 0 
L 43.21875 8.296875 
Q 40.140625 3.328125 35.546875 0.953125 
Q 30.953125 -1.421875 24.3125 -1.421875 
Q 15.921875 -1.421875 10.953125 3.296875 
Q 6 8.015625 6 15.921875 
Q 6 25.140625 12.171875 29.828125 
Q 18.359375 34.515625 30.609375 34.515625 
L 43.21875 34.515625 
L 43.21875 35.40625 
Q 43.21875 41.609375 39.140625 45 
Q 35.0625 48.390625 27.6875 48.390625 
Q 23 48.390625 18.546875 47.265625 
Q 14.109375 46.140625 10.015625 43.890625 
L 10.015625 52.203125 
Q 14.9375 54.109375 19.578125 55.046875 
Q 24.21875 56 28.609375 56 
Q 40.484375 56 46.34375 49.84375 
Q 52.203125 43.703125 52.203125 31.203125 
" id="BitstreamVeraSans-Roman-61"/>
      <path d="M 18.109375 8.203125 
L 18.109375 -20.796875 
L 9.078125 -20.796875 
L 9.078125 54.6875 
L 18.109375 54.6875 
L 18.109375 46.390625 
Q 20.953125 51.265625 25.265625 53.625 
Q 29.59375 56 35.59375 56 
Q 45.5625 56 51.78125 48.09375 
Q 58.015625 40.1875 58.015625 27.296875 
Q 58.015625 14.40625 51.78125 6.484375 
Q 45.5625 -1.421875 35.59375 -1.421875 
Q 29.59375 -1.421875 25.265625 0.953125 
Q 20.953125 3.328125 18.109375 8.203125 
M 48.6875 27.296875 
Q 48.6875 37.203125 44.609375 42.84375 
Q 40.53125 48.484375 33.40625 48.484375 
Q 26.265625 48.484375 22.1875 42.84375 
Q 18.109375 37.203125 18.109375 27.296875 
Q 18.109375 17.390625 22.1875 11.75 
Q 26.265625 6.109375 33.40625 6.109375 
Q 40.53125 6.109375 44.609375 11.75 
Q 48.6875 17.390625 48.6875 27.296875 
" id="BitstreamVeraSans-Roman-70"/>
     </defs>
     <g transform="translate(11.2869894193 177.113359375)rotate(-90.0)scale(0.11 -0.11)">
      <use xlink:href="#BitstreamVeraSans-Roman-70"/>
      <use x="63.4765625" xlink:href="#BitstreamVeraSans-Roman-6f"/>
      <use x="124.658203125" xlink:href="#BitstreamVeraSans-Roman-70"/>
      <use x="188.134765625" xlink:href="#BitstreamVeraSans-Roman-75"/>
      <use x="251.513671875" xlink:href="#BitstreamVeraSans-Roman-6c"/>
      <use x="279.296875" xlink:href="#BitstreamVeraSans-Roman-61"/>
      <use x="340.576171875" xlink:href="#BitstreamVeraSans-Roman-74"/>
      <use x="379.78515625" xlink:href="#BitstreamVeraSans-Roman-69"/>
      <use x="407.568359375" xlink:href="#BitstreamVeraSans-Roman-6f"/>
      <use x="468.75" xlink:href="#BitstreamVeraSans-Roman-6e"/>
      <use x="532.12890625" xlink:href="#BitstreamVeraSans-Roman-20"/>
      <use x="563.916015625" xlink:href="#BitstreamVeraSans-Roman-6d"/>
      <use x="661.328125" xlink:href="#BitstreamVeraSans-Roman-65"/>
      <use x="722.8515625" xlink:href="#BitstreamVeraSans-Roman-61"/>
      <use x="784.130859375" xlink:href="#BitstreamVeraSans-Roman-6e"/>
     </g>
    </g>
   </g>
   <g id="legend_1">
    <g id="patch_7">
     <path d="M 245.647854 20.977146 
L 279.927854 20.977146 
L 279.927854 6.834646 
L 245.647854 6.834646 
z
" style="fill:#ffffff;stroke:#000000;stroke-linejoin:miter;"/>
    </g>
    <g id="line2d_24">
     <path d="M 251.247854 13.313396 
L 262.447854 13.313396 
" style="fill:none;stroke:#009afa;stroke-linecap:round;"/>
    </g>
    <g id="line2d_25"/>
    <g id="text_14">
     <!-- X -->
     <defs>
      <path d="M 6.296875 72.90625 
L 16.890625 72.90625 
L 35.015625 45.796875 
L 53.21875 72.90625 
L 63.8125 72.90625 
L 40.375 37.890625 
L 65.375 0 
L 54.78125 0 
L 34.28125 31 
L 13.625 0 
L 2.984375 0 
L 29 38.921875 
z
" id="BitstreamVeraSans-Roman-58"/>
     </defs>
     <g transform="translate(271.247854331 16.1133956693)scale(0.08 -0.08)">
      <use xlink:href="#BitstreamVeraSans-Roman-58"/>
     </g>
    </g>
   </g>
  </g>
  <g id="axes_2">
   <g id="patch_8">
    <path d="M 327.082146 258.165354 
L 573.165354 258.165354 
L 573.165354 2.834646 
L 327.082146 2.834646 
z
" style="fill:#ffffff;"/>
   </g>
   <g id="patch_9">
    <path clip-path="url(#p57162c4f80)" d="M 334.046765 67.68054 
L 334.046765 258.165354 
L 341.78523 258.165354 
L 341.78523 67.68054 
L 334.046765 67.68054 
" style="fill:#009afa;stroke:#000000;stroke-linejoin:miter;"/>
   </g>
   <g id="patch_10">
    <path clip-path="url(#p57162c4f80)" d="M 341.78523 67.68054 
L 341.78523 258.165354 
L 349.523696 258.165354 
L 349.523696 67.68054 
L 341.78523 67.68054 
" style="fill:#009afa;stroke:#000000;stroke-linejoin:miter;"/>
   </g>
   <g id="patch_11">
    <path clip-path="url(#p57162c4f80)" d="M 349.523696 2.834646 
L 349.523696 258.165354 
L 357.262162 258.165354 
L 357.262162 2.834646 
L 349.523696 2.834646 
" style="fill:#009afa;stroke:#000000;stroke-linejoin:miter;"/>
   </g>
   <g id="patch_12">
    <path clip-path="url(#p57162c4f80)" d="M 357.262162 65.654106 
L 357.262162 258.165354 
L 365.000628 258.165354 
L 365.000628 65.654106 
L 357.262162 65.654106 
" style="fill:#009afa;stroke:#000000;stroke-linejoin:miter;"/>
   </g>
   <g id="patch_13">
    <path clip-path="url(#p57162c4f80)" d="M 365.000628 31.204724 
L 365.000628 258.165354 
L 372.739093 258.165354 
L 372.739093 31.204724 
L 365.000628 31.204724 
" style="fill:#009afa;stroke:#000000;stroke-linejoin:miter;"/>
   </g>
   <g id="patch_14">
    <path clip-path="url(#p57162c4f80)" d="M 372.739093 59.574803 
L 372.739093 258.165354 
L 380.477559 258.165354 
L 380.477559 59.574803 
L 372.739093 59.574803 
" style="fill:#009afa;stroke:#000000;stroke-linejoin:miter;"/>
   </g>
   <g id="patch_15">
    <path clip-path="url(#p57162c4f80)" d="M 380.477559 91.99775 
L 380.477559 258.165354 
L 388.216025 258.165354 
L 388.216025 91.99775 
L 380.477559 91.99775 
" style="fill:#009afa;stroke:#000000;stroke-linejoin:miter;"/>
   </g>
   <g id="patch_16">
    <path clip-path="url(#p57162c4f80)" d="M 388.216025 140.632171 
L 388.216025 258.165354 
L 395.95449 258.165354 
L 395.95449 140.632171 
L 388.216025 140.632171 
" style="fill:#009afa;stroke:#000000;stroke-linejoin:miter;"/>
   </g>
   <g id="patch_17">
    <path clip-path="url(#p57162c4f80)" d="M 395.95449 146.711474 
L 395.95449 258.165354 
L 403.692956 258.165354 
L 403.692956 146.711474 
L 395.95449 146.711474 
" style="fill:#009afa;stroke:#000000;stroke-linejoin:miter;"/>
   </g>
   <g id="patch_18">
    <path clip-path="url(#p57162c4f80)" d="M 403.692956 164.949381 
L 403.692956 258.165354 
L 411.431422 258.165354 
L 411.431422 164.949381 
L 403.692956 164.949381 
" style="fill:#009afa;stroke:#000000;stroke-linejoin:miter;"/>
   </g>
   <g id="patch_19">
    <path clip-path="url(#p57162c4f80)" d="M 411.431422 187.240157 
L 411.431422 258.165354 
L 419.169887 258.165354 
L 419.169887 187.240157 
L 411.431422 187.240157 
" style="fill:#009afa;stroke:#000000;stroke-linejoin:miter;"/>
   </g>
   <g id="patch_20">
    <path clip-path="url(#p57162c4f80)" d="M 419.169887 191.293026 
L 419.169887 258.165354 
L 426.908353 258.165354 
L 426.908353 191.293026 
L 419.169887 191.293026 
" style="fill:#009afa;stroke:#000000;stroke-linejoin:miter;"/>
   </g>
   <g id="patch_21">
    <path clip-path="url(#p57162c4f80)" d="M 426.908353 223.715973 
L 426.908353 258.165354 
L 434.646819 258.165354 
L 434.646819 223.715973 
L 426.908353 223.715973 
" style="fill:#009afa;stroke:#000000;stroke-linejoin:miter;"/>
   </g>
   <g id="patch_22">
    <path clip-path="url(#p57162c4f80)" d="M 434.646819 231.82171 
L 434.646819 258.165354 
L 442.385284 258.165354 
L 442.385284 231.82171 
L 434.646819 231.82171 
" style="fill:#009afa;stroke:#000000;stroke-linejoin:miter;"/>
   </g>
   <g id="patch_23">
    <path clip-path="url(#p57162c4f80)" d="M 442.385284 227.768841 
L 442.385284 258.165354 
L 450.12375 258.165354 
L 450.12375 227.768841 
L 442.385284 227.768841 
" style="fill:#009afa;stroke:#000000;stroke-linejoin:miter;"/>
   </g>
   <g id="patch_24">
    <path clip-path="url(#p57162c4f80)" d="M 450.12375 246.006749 
L 450.12375 258.165354 
L 457.862216 258.165354 
L 457.862216 246.006749 
L 450.12375 246.006749 
" style="fill:#009afa;stroke:#000000;stroke-linejoin:miter;"/>
   </g>
   <g id="patch_25">
    <path clip-path="url(#p57162c4f80)" d="M 457.862216 254.112486 
L 457.862216 258.165354 
L 465.600681 258.165354 
L 465.600681 254.112486 
L 457.862216 254.112486 
" style="fill:#009afa;stroke:#000000;stroke-linejoin:miter;"/>
   </g>
   <g id="patch_26">
    <path clip-path="url(#p57162c4f80)" d="M 465.600681 241.953881 
L 465.600681 258.165354 
L 473.339147 258.165354 
L 473.339147 241.953881 
L 465.600681 241.953881 
" style="fill:#009afa;stroke:#000000;stroke-linejoin:miter;"/>
   </g>
   <g id="patch_27">
    <path clip-path="url(#p57162c4f80)" d="M 473.339147 252.086052 
L 473.339147 258.165354 
L 481.077613 258.165354 
L 481.077613 252.086052 
L 473.339147 252.086052 
" style="fill:#009afa;stroke:#000000;stroke-linejoin:miter;"/>
   </g>
   <g id="patch_28">
    <path clip-path="url(#p57162c4f80)" d="M 481.077613 252.086052 
L 481.077613 258.165354 
L 488.816078 258.165354 
L 488.816078 252.086052 
L 481.077613 252.086052 
" style="fill:#009afa;stroke:#000000;stroke-linejoin:miter;"/>
   </g>
   <g id="patch_29">
    <path clip-path="url(#p57162c4f80)" d="M 488.816078 256.13892 
L 488.816078 258.165354 
L 496.554544 258.165354 
L 496.554544 256.13892 
L 488.816078 256.13892 
" style="fill:#009afa;stroke:#000000;stroke-linejoin:miter;"/>
   </g>
   <g id="patch_30">
    <path clip-path="url(#p57162c4f80)" d="M 496.554544 256.13892 
L 496.554544 258.165354 
L 504.29301 258.165354 
L 504.29301 256.13892 
L 496.554544 256.13892 
" style="fill:#009afa;stroke:#000000;stroke-linejoin:miter;"/>
   </g>
   <g id="patch_31">
    <path clip-path="url(#p57162c4f80)" d="M 504.29301 254.112486 
L 504.29301 258.165354 
L 512.031475 258.165354 
L 512.031475 254.112486 
L 504.29301 254.112486 
" style="fill:#009afa;stroke:#000000;stroke-linejoin:miter;"/>
   </g>
   <g id="patch_32">
    <path clip-path="url(#p57162c4f80)" d="M 512.031475 258.165354 
L 512.031475 258.165354 
L 519.769941 258.165354 
L 519.769941 258.165354 
L 512.031475 258.165354 
" style="fill:#009afa;stroke:#000000;stroke-linejoin:miter;"/>
   </g>
   <g id="patch_33">
    <path clip-path="url(#p57162c4f80)" d="M 519.769941 258.165354 
L 519.769941 258.165354 
L 527.508407 258.165354 
L 527.508407 258.165354 
L 519.769941 258.165354 
" style="fill:#009afa;stroke:#000000;stroke-linejoin:miter;"/>
   </g>
   <g id="patch_34">
    <path clip-path="url(#p57162c4f80)" d="M 527.508407 258.165354 
L 527.508407 258.165354 
L 535.246872 258.165354 
L 535.246872 258.165354 
L 527.508407 258.165354 
" style="fill:#009afa;stroke:#000000;stroke-linejoin:miter;"/>
   </g>
   <g id="patch_35">
    <path clip-path="url(#p57162c4f80)" d="M 535.246872 258.165354 
L 535.246872 258.165354 
L 542.985338 258.165354 
L 542.985338 258.165354 
L 535.246872 258.165354 
" style="fill:#009afa;stroke:#000000;stroke-linejoin:miter;"/>
   </g>
   <g id="patch_36">
    <path clip-path="url(#p57162c4f80)" d="M 542.985338 258.165354 
L 542.985338 258.165354 
L 550.723804 258.165354 
L 550.723804 258.165354 
L 542.985338 258.165354 
" style="fill:#009afa;stroke:#000000;stroke-linejoin:miter;"/>
   </g>
   <g id="patch_37">
    <path clip-path="url(#p57162c4f80)" d="M 550.723804 258.165354 
L 550.723804 258.165354 
L 558.46227 258.165354 
L 558.46227 258.165354 
L 550.723804 258.165354 
" style="fill:#009afa;stroke:#000000;stroke-linejoin:miter;"/>
   </g>
   <g id="patch_38">
    <path clip-path="url(#p57162c4f80)" d="M 558.46227 256.13892 
L 558.46227 258.165354 
L 566.200735 258.165354 
L 566.200735 256.13892 
L 558.46227 256.13892 
" style="fill:#009afa;stroke:#000000;stroke-linejoin:miter;"/>
   </g>
   <g id="patch_39">
    <path d="M 327.082146 2.834646 
L 573.165354 2.834646 
" style="fill:none;stroke:#000000;stroke-linecap:square;stroke-linejoin:miter;"/>
   </g>
   <g id="patch_40">
    <path d="M 573.165354 258.165354 
L 573.165354 2.834646 
" style="fill:none;stroke:#000000;stroke-linecap:square;stroke-linejoin:miter;"/>
   </g>
   <g id="patch_41">
    <path d="M 327.082146 258.165354 
L 573.165354 258.165354 
" style="fill:none;stroke:#000000;stroke-linecap:square;stroke-linejoin:miter;"/>
   </g>
   <g id="patch_42">
    <path d="M 327.082146 258.165354 
L 327.082146 2.834646 
" style="fill:none;stroke:#000000;stroke-linecap:square;stroke-linejoin:miter;"/>
   </g>
   <g id="matplotlib.axis_3">
    <g id="xtick_6">
     <g id="line2d_26">
      <g>
       <use style="stroke:#000000;stroke-width:0.5;" x="334.046764782" xlink:href="#m8135eceede" y="258.165354331"/>
      </g>
     </g>
     <g id="line2d_27">
      <g>
       <use style="stroke:#000000;stroke-width:0.5;" x="334.046764782" xlink:href="#m6974356d39" y="2.83464566929"/>
      </g>
     </g>
     <g id="text_15">
      <!-- 0 -->
      <g transform="translate(331.501764782 268.244104331)scale(0.08 -0.08)">
       <use xlink:href="#BitstreamVeraSans-Roman-30"/>
      </g>
     </g>
    </g>
    <g id="xtick_7">
     <g id="line2d_28">
      <g>
       <use style="stroke:#000000;stroke-width:0.5;" x="406.822304104" xlink:href="#m8135eceede" y="258.165354331"/>
      </g>
     </g>
     <g id="line2d_29">
      <g>
       <use style="stroke:#000000;stroke-width:0.5;" x="406.822304104" xlink:href="#m6974356d39" y="2.83464566929"/>
      </g>
     </g>
     <g id="text_16">
      <!-- 500 -->
      <g transform="translate(399.187304104 268.244104331)scale(0.08 -0.08)">
       <use xlink:href="#BitstreamVeraSans-Roman-35"/>
       <use x="63.623046875" xlink:href="#BitstreamVeraSans-Roman-30"/>
       <use x="127.24609375" xlink:href="#BitstreamVeraSans-Roman-30"/>
      </g>
     </g>
    </g>
    <g id="xtick_8">
     <g id="line2d_30">
      <g>
       <use style="stroke:#000000;stroke-width:0.5;" x="479.597843425" xlink:href="#m8135eceede" y="258.165354331"/>
      </g>
     </g>
     <g id="line2d_31">
      <g>
       <use style="stroke:#000000;stroke-width:0.5;" x="479.597843425" xlink:href="#m6974356d39" y="2.83464566929"/>
      </g>
     </g>
     <g id="text_17">
      <!-- 1000 -->
      <g transform="translate(469.417843425 268.244104331)scale(0.08 -0.08)">
       <use xlink:href="#BitstreamVeraSans-Roman-31"/>
       <use x="63.623046875" xlink:href="#BitstreamVeraSans-Roman-30"/>
       <use x="127.24609375" xlink:href="#BitstreamVeraSans-Roman-30"/>
       <use x="190.869140625" xlink:href="#BitstreamVeraSans-Roman-30"/>
      </g>
     </g>
    </g>
    <g id="xtick_9">
     <g id="line2d_32">
      <g>
       <use style="stroke:#000000;stroke-width:0.5;" x="552.373382747" xlink:href="#m8135eceede" y="258.165354331"/>
      </g>
     </g>
     <g id="line2d_33">
      <g>
       <use style="stroke:#000000;stroke-width:0.5;" x="552.373382747" xlink:href="#m6974356d39" y="2.83464566929"/>
      </g>
     </g>
     <g id="text_18">
      <!-- 1500 -->
      <g transform="translate(542.193382747 268.244104331)scale(0.08 -0.08)">
       <use xlink:href="#BitstreamVeraSans-Roman-31"/>
       <use x="63.623046875" xlink:href="#BitstreamVeraSans-Roman-35"/>
       <use x="127.24609375" xlink:href="#BitstreamVeraSans-Roman-30"/>
       <use x="190.869140625" xlink:href="#BitstreamVeraSans-Roman-30"/>
      </g>
     </g>
    </g>
    <g id="text_19">
     <!-- population -->
     <g transform="translate(420.856015625 283.266135581)scale(0.11 -0.11)">
      <use xlink:href="#BitstreamVeraSans-Roman-70"/>
      <use x="63.4765625" xlink:href="#BitstreamVeraSans-Roman-6f"/>
      <use x="124.658203125" xlink:href="#BitstreamVeraSans-Roman-70"/>
      <use x="188.134765625" xlink:href="#BitstreamVeraSans-Roman-75"/>
      <use x="251.513671875" xlink:href="#BitstreamVeraSans-Roman-6c"/>
      <use x="279.296875" xlink:href="#BitstreamVeraSans-Roman-61"/>
      <use x="340.576171875" xlink:href="#BitstreamVeraSans-Roman-74"/>
      <use x="379.78515625" xlink:href="#BitstreamVeraSans-Roman-69"/>
      <use x="407.568359375" xlink:href="#BitstreamVeraSans-Roman-6f"/>
      <use x="468.75" xlink:href="#BitstreamVeraSans-Roman-6e"/>
     </g>
    </g>
   </g>
   <g id="matplotlib.axis_4">
    <g id="ytick_7">
     <g id="line2d_34">
      <g>
       <use style="stroke:#000000;stroke-width:0.5;" x="327.082145669" xlink:href="#mbb940687a7" y="258.165354331"/>
      </g>
     </g>
     <g id="line2d_35">
      <g>
       <use style="stroke:#000000;stroke-width:0.5;" x="573.165354331" xlink:href="#mfa10a4136e" y="258.165354331"/>
      </g>
     </g>
     <g id="text_20">
      <!-- 0 -->
      <g transform="translate(317.992145669 260.372854331)scale(0.08 -0.08)">
       <use xlink:href="#BitstreamVeraSans-Roman-30"/>
      </g>
     </g>
    </g>
    <g id="ytick_8">
     <g id="line2d_36">
      <g>
       <use style="stroke:#000000;stroke-width:0.5;" x="327.082145669" xlink:href="#mbb940687a7" y="156.843644544"/>
      </g>
     </g>
     <g id="line2d_37">
      <g>
       <use style="stroke:#000000;stroke-width:0.5;" x="573.165354331" xlink:href="#mfa10a4136e" y="156.843644544"/>
      </g>
     </g>
     <g id="text_21">
      <!-- 50 -->
      <g transform="translate(312.902145669 159.051144544)scale(0.08 -0.08)">
       <use xlink:href="#BitstreamVeraSans-Roman-35"/>
       <use x="63.623046875" xlink:href="#BitstreamVeraSans-Roman-30"/>
      </g>
     </g>
    </g>
    <g id="ytick_9">
     <g id="line2d_38">
      <g>
       <use style="stroke:#000000;stroke-width:0.5;" x="327.082145669" xlink:href="#mbb940687a7" y="55.5219347582"/>
      </g>
     </g>
     <g id="line2d_39">
      <g>
       <use style="stroke:#000000;stroke-width:0.5;" x="573.165354331" xlink:href="#mfa10a4136e" y="55.5219347582"/>
      </g>
     </g>
     <g id="text_22">
      <!-- 100 -->
      <g transform="translate(307.812145669 57.7294347582)scale(0.08 -0.08)">
       <use xlink:href="#BitstreamVeraSans-Roman-31"/>
       <use x="63.623046875" xlink:href="#BitstreamVeraSans-Roman-30"/>
       <use x="127.24609375" xlink:href="#BitstreamVeraSans-Roman-30"/>
      </g>
     </g>
    </g>
    <g id="text_23">
     <!-- frequency -->
     <defs>
      <path d="M 32.171875 -5.078125 
Q 28.375 -14.84375 24.75 -17.8125 
Q 21.140625 -20.796875 15.09375 -20.796875 
L 7.90625 -20.796875 
L 7.90625 -13.28125 
L 13.1875 -13.28125 
Q 16.890625 -13.28125 18.9375 -11.515625 
Q 21 -9.765625 23.484375 -3.21875 
L 25.09375 0.875 
L 2.984375 54.6875 
L 12.5 54.6875 
L 29.59375 11.921875 
L 46.6875 54.6875 
L 56.203125 54.6875 
z
" id="BitstreamVeraSans-Roman-79"/>
      <path d="M 37.109375 75.984375 
L 37.109375 68.5 
L 28.515625 68.5 
Q 23.6875 68.5 21.796875 66.546875 
Q 19.921875 64.59375 19.921875 59.515625 
L 19.921875 54.6875 
L 34.71875 54.6875 
L 34.71875 47.703125 
L 19.921875 47.703125 
L 19.921875 0 
L 10.890625 0 
L 10.890625 47.703125 
L 2.296875 47.703125 
L 2.296875 54.6875 
L 10.890625 54.6875 
L 10.890625 58.5 
Q 10.890625 67.625 15.140625 71.796875 
Q 19.390625 75.984375 28.609375 75.984375 
z
" id="BitstreamVeraSans-Roman-66"/>
      <path d="M 41.109375 46.296875 
Q 39.59375 47.171875 37.8125 47.578125 
Q 36.03125 48 33.890625 48 
Q 26.265625 48 22.1875 43.046875 
Q 18.109375 38.09375 18.109375 28.8125 
L 18.109375 0 
L 9.078125 0 
L 9.078125 54.6875 
L 18.109375 54.6875 
L 18.109375 46.1875 
Q 20.953125 51.171875 25.484375 53.578125 
Q 30.03125 56 36.53125 56 
Q 37.453125 56 38.578125 55.875 
Q 39.703125 55.765625 41.0625 55.515625 
z
" id="BitstreamVeraSans-Roman-72"/>
      <path d="M 48.78125 52.59375 
L 48.78125 44.1875 
Q 44.96875 46.296875 41.140625 47.34375 
Q 37.3125 48.390625 33.40625 48.390625 
Q 24.65625 48.390625 19.8125 42.84375 
Q 14.984375 37.3125 14.984375 27.296875 
Q 14.984375 17.28125 19.8125 11.734375 
Q 24.65625 6.203125 33.40625 6.203125 
Q 37.3125 6.203125 41.140625 7.25 
Q 44.96875 8.296875 48.78125 10.40625 
L 48.78125 2.09375 
Q 45.015625 0.34375 40.984375 -0.53125 
Q 36.96875 -1.421875 32.421875 -1.421875 
Q 20.0625 -1.421875 12.78125 6.34375 
Q 5.515625 14.109375 5.515625 27.296875 
Q 5.515625 40.671875 12.859375 48.328125 
Q 20.21875 56 33.015625 56 
Q 37.15625 56 41.109375 55.140625 
Q 45.0625 54.296875 48.78125 52.59375 
" id="BitstreamVeraSans-Roman-63"/>
      <path d="M 14.796875 27.296875 
Q 14.796875 17.390625 18.875 11.75 
Q 22.953125 6.109375 30.078125 6.109375 
Q 37.203125 6.109375 41.296875 11.75 
Q 45.40625 17.390625 45.40625 27.296875 
Q 45.40625 37.203125 41.296875 42.84375 
Q 37.203125 48.484375 30.078125 48.484375 
Q 22.953125 48.484375 18.875 42.84375 
Q 14.796875 37.203125 14.796875 27.296875 
M 45.40625 8.203125 
Q 42.578125 3.328125 38.25 0.953125 
Q 33.9375 -1.421875 27.875 -1.421875 
Q 17.96875 -1.421875 11.734375 6.484375 
Q 5.515625 14.40625 5.515625 27.296875 
Q 5.515625 40.1875 11.734375 48.09375 
Q 17.96875 56 27.875 56 
Q 33.9375 56 38.25 53.625 
Q 42.578125 51.265625 45.40625 46.390625 
L 45.40625 54.6875 
L 54.390625 54.6875 
L 54.390625 -20.796875 
L 45.40625 -20.796875 
z
" id="BitstreamVeraSans-Roman-71"/>
     </defs>
     <g transform="translate(300.524489419 158.20625)rotate(-90.0)scale(0.11 -0.11)">
      <use xlink:href="#BitstreamVeraSans-Roman-66"/>
      <use x="35.205078125" xlink:href="#BitstreamVeraSans-Roman-72"/>
      <use x="76.287109375" xlink:href="#BitstreamVeraSans-Roman-65"/>
      <use x="137.810546875" xlink:href="#BitstreamVeraSans-Roman-71"/>
      <use x="201.287109375" xlink:href="#BitstreamVeraSans-Roman-75"/>
      <use x="264.666015625" xlink:href="#BitstreamVeraSans-Roman-65"/>
      <use x="326.189453125" xlink:href="#BitstreamVeraSans-Roman-6e"/>
      <use x="389.568359375" xlink:href="#BitstreamVeraSans-Roman-63"/>
      <use x="444.548828125" xlink:href="#BitstreamVeraSans-Roman-79"/>
     </g>
    </g>
   </g>
   <g id="legend_2">
    <g id="patch_43">
     <path d="M 534.885354 20.977146 
L 569.165354 20.977146 
L 569.165354 6.834646 
L 534.885354 6.834646 
z
" style="fill:#ffffff;stroke:#000000;stroke-linejoin:miter;"/>
    </g>
    <g id="line2d_40">
     <path d="M 540.485354 13.313396 
L 551.685354 13.313396 
" style="fill:none;stroke:#009afa;stroke-linecap:square;stroke-width:4.0;"/>
    </g>
    <g id="line2d_41"/>
    <g id="text_24">
     <!-- X -->
     <g transform="translate(560.485354331 16.1133956693)scale(0.08 -0.08)">
      <use xlink:href="#BitstreamVeraSans-Roman-58"/>
     </g>
    </g>
   </g>
  </g>
 </g>
 <defs>
  <clipPath id="pa1a5e39d80">
   <rect height="255.330708661" width="246.083208661" x="37.8446456693" y="2.83464566929"/>
  </clipPath>
  <clipPath id="p57162c4f80">
   <rect height="255.330708661" width="246.083208661" x="327.082145669" y="2.83464566929"/>
  </clipPath>
 </defs>
</svg>
