<?xml version="1.0" encoding="utf-8" standalone="no"?>
<!DOCTYPE svg PUBLIC "-//W3C//DTD SVG 1.1//EN"
  "http://www.w3.org/Graphics/SVG/1.1/DTD/svg11.dtd">
<!-- Created with matplotlib (http://matplotlib.org/) -->
<svg height="216pt" version="1.1" viewBox="0 0 432 216" width="432pt" xmlns="http://www.w3.org/2000/svg" xmlns:xlink="http://www.w3.org/1999/xlink">
 <defs>
  <style type="text/css">
*{stroke-linecap:butt;stroke-linejoin:round;}
  </style>
 </defs>
 <g id="figure_1">
  <g id="patch_1">
   <path d="M 0 216 
L 432 216 
L 432 0 
L 0 0 
z
" style="fill:#ffffff;"/>
  </g>
  <g id="axes_1">
   <g id="patch_2">
    <path d="M 34.984646 186.685354 
L 214.470354 186.685354 
L 214.470354 2.834646 
L 34.984646 2.834646 
z
" style="fill:#ffffff;"/>
   </g>
   <g id="patch_3">
    <path clip-path="url(#pa4bc63d56d)" d="M 40.06443 165.793228 
L 40.06443 186.685354 
L 45.04461 186.685354 
L 45.04461 165.793228 
L 40.06443 165.793228 
" style="fill:#0000ff;stroke:#000000;stroke-linejoin:miter;"/>
   </g>
   <g id="patch_4">
    <path clip-path="url(#pa4bc63d56d)" d="M 45.04461 186.685354 
L 45.04461 186.685354 
L 50.024791 186.685354 
L 50.024791 186.685354 
L 45.04461 186.685354 
" style="fill:#0000ff;stroke:#000000;stroke-linejoin:miter;"/>
   </g>
   <g id="patch_5">
    <path clip-path="url(#pa4bc63d56d)" d="M 50.024791 165.793228 
L 50.024791 186.685354 
L 55.004972 186.685354 
L 55.004972 165.793228 
L 50.024791 165.793228 
" style="fill:#0000ff;stroke:#000000;stroke-linejoin:miter;"/>
   </g>
   <g id="patch_6">
    <path clip-path="url(#pa4bc63d56d)" d="M 55.004972 165.793228 
L 55.004972 186.685354 
L 59.985152 186.685354 
L 59.985152 165.793228 
L 55.004972 165.793228 
" style="fill:#0000ff;stroke:#000000;stroke-linejoin:miter;"/>
   </g>
   <g id="patch_7">
    <path clip-path="url(#pa4bc63d56d)" d="M 59.985152 144.901102 
L 59.985152 186.685354 
L 64.965333 186.685354 
L 64.965333 144.901102 
L 59.985152 144.901102 
" style="fill:#0000ff;stroke:#000000;stroke-linejoin:miter;"/>
   </g>
   <g id="patch_8">
    <path clip-path="url(#pa4bc63d56d)" d="M 64.965333 165.793228 
L 64.965333 186.685354 
L 69.945513 186.685354 
L 69.945513 165.793228 
L 64.965333 165.793228 
" style="fill:#0000ff;stroke:#000000;stroke-linejoin:miter;"/>
   </g>
   <g id="patch_9">
    <path clip-path="url(#pa4bc63d56d)" d="M 69.945513 165.793228 
L 69.945513 186.685354 
L 74.925694 186.685354 
L 74.925694 165.793228 
L 69.945513 165.793228 
" style="fill:#0000ff;stroke:#000000;stroke-linejoin:miter;"/>
   </g>
   <g id="patch_10">
    <path clip-path="url(#pa4bc63d56d)" d="M 74.925694 82.224724 
L 74.925694 186.685354 
L 79.905875 186.685354 
L 79.905875 82.224724 
L 74.925694 82.224724 
" style="fill:#0000ff;stroke:#000000;stroke-linejoin:miter;"/>
   </g>
   <g id="patch_11">
    <path clip-path="url(#pa4bc63d56d)" d="M 79.905875 103.11685 
L 79.905875 186.685354 
L 84.886055 186.685354 
L 84.886055 103.11685 
L 79.905875 103.11685 
" style="fill:#0000ff;stroke:#000000;stroke-linejoin:miter;"/>
   </g>
   <g id="patch_12">
    <path clip-path="url(#pa4bc63d56d)" d="M 84.886055 61.332598 
L 84.886055 186.685354 
L 89.866236 186.685354 
L 89.866236 61.332598 
L 84.886055 61.332598 
" style="fill:#0000ff;stroke:#000000;stroke-linejoin:miter;"/>
   </g>
   <g id="patch_13">
    <path clip-path="url(#pa4bc63d56d)" d="M 89.866236 82.224724 
L 89.866236 186.685354 
L 94.846416 186.685354 
L 94.846416 82.224724 
L 89.866236 82.224724 
" style="fill:#0000ff;stroke:#000000;stroke-linejoin:miter;"/>
   </g>
   <g id="patch_14">
    <path clip-path="url(#pa4bc63d56d)" d="M 94.846416 82.224724 
L 94.846416 186.685354 
L 99.826597 186.685354 
L 99.826597 82.224724 
L 94.846416 82.224724 
" style="fill:#0000ff;stroke:#000000;stroke-linejoin:miter;"/>
   </g>
   <g id="patch_15">
    <path clip-path="url(#pa4bc63d56d)" d="M 99.826597 82.224724 
L 99.826597 186.685354 
L 104.806778 186.685354 
L 104.806778 82.224724 
L 99.826597 82.224724 
" style="fill:#0000ff;stroke:#000000;stroke-linejoin:miter;"/>
   </g>
   <g id="patch_16">
    <path clip-path="url(#pa4bc63d56d)" d="M 104.806778 103.11685 
L 104.806778 186.685354 
L 109.786958 186.685354 
L 109.786958 103.11685 
L 104.806778 103.11685 
" style="fill:#0000ff;stroke:#000000;stroke-linejoin:miter;"/>
   </g>
   <g id="patch_17">
    <path clip-path="url(#pa4bc63d56d)" d="M 109.786958 61.332598 
L 109.786958 186.685354 
L 114.767139 186.685354 
L 114.767139 61.332598 
L 109.786958 61.332598 
" style="fill:#0000ff;stroke:#000000;stroke-linejoin:miter;"/>
   </g>
   <g id="patch_18">
    <path clip-path="url(#pa4bc63d56d)" d="M 114.767139 40.440472 
L 114.767139 186.685354 
L 119.747319 186.685354 
L 119.747319 40.440472 
L 114.767139 40.440472 
" style="fill:#0000ff;stroke:#000000;stroke-linejoin:miter;"/>
   </g>
   <g id="patch_19">
    <path clip-path="url(#pa4bc63d56d)" d="M 119.747319 19.548346 
L 119.747319 186.685354 
L 124.7275 186.685354 
L 124.7275 19.548346 
L 119.747319 19.548346 
" style="fill:#0000ff;stroke:#000000;stroke-linejoin:miter;"/>
   </g>
   <g id="patch_20">
    <path clip-path="url(#pa4bc63d56d)" d="M 124.7275 124.008976 
L 124.7275 186.685354 
L 129.707681 186.685354 
L 129.707681 124.008976 
L 124.7275 124.008976 
" style="fill:#0000ff;stroke:#000000;stroke-linejoin:miter;"/>
   </g>
   <g id="patch_21">
    <path clip-path="url(#pa4bc63d56d)" d="M 129.707681 124.008976 
L 129.707681 186.685354 
L 134.687861 186.685354 
L 134.687861 124.008976 
L 129.707681 124.008976 
" style="fill:#0000ff;stroke:#000000;stroke-linejoin:miter;"/>
   </g>
   <g id="patch_22">
    <path clip-path="url(#pa4bc63d56d)" d="M 134.687861 61.332598 
L 134.687861 186.685354 
L 139.668042 186.685354 
L 139.668042 61.332598 
L 134.687861 61.332598 
" style="fill:#0000ff;stroke:#000000;stroke-linejoin:miter;"/>
   </g>
   <g id="patch_23">
    <path clip-path="url(#pa4bc63d56d)" d="M 139.668042 124.008976 
L 139.668042 186.685354 
L 144.648222 186.685354 
L 144.648222 124.008976 
L 139.668042 124.008976 
" style="fill:#0000ff;stroke:#000000;stroke-linejoin:miter;"/>
   </g>
   <g id="patch_24">
    <path clip-path="url(#pa4bc63d56d)" d="M 144.648222 103.11685 
L 144.648222 186.685354 
L 149.628403 186.685354 
L 149.628403 103.11685 
L 144.648222 103.11685 
" style="fill:#0000ff;stroke:#000000;stroke-linejoin:miter;"/>
   </g>
   <g id="patch_25">
    <path clip-path="url(#pa4bc63d56d)" d="M 149.628403 144.901102 
L 149.628403 186.685354 
L 154.608584 186.685354 
L 154.608584 144.901102 
L 149.628403 144.901102 
" style="fill:#0000ff;stroke:#000000;stroke-linejoin:miter;"/>
   </g>
   <g id="patch_26">
    <path clip-path="url(#pa4bc63d56d)" d="M 154.608584 165.793228 
L 154.608584 186.685354 
L 159.588764 186.685354 
L 159.588764 165.793228 
L 154.608584 165.793228 
" style="fill:#0000ff;stroke:#000000;stroke-linejoin:miter;"/>
   </g>
   <g id="patch_27">
    <path clip-path="url(#pa4bc63d56d)" d="M 159.588764 144.901102 
L 159.588764 186.685354 
L 164.568945 186.685354 
L 164.568945 144.901102 
L 159.588764 144.901102 
" style="fill:#0000ff;stroke:#000000;stroke-linejoin:miter;"/>
   </g>
   <g id="patch_28">
    <path clip-path="url(#pa4bc63d56d)" d="M 164.568945 124.008976 
L 164.568945 186.685354 
L 169.549125 186.685354 
L 169.549125 124.008976 
L 164.568945 124.008976 
" style="fill:#0000ff;stroke:#000000;stroke-linejoin:miter;"/>
   </g>
   <g id="patch_29">
    <path clip-path="url(#pa4bc63d56d)" d="M 169.549125 124.008976 
L 169.549125 186.685354 
L 174.529306 186.685354 
L 174.529306 124.008976 
L 169.549125 124.008976 
" style="fill:#0000ff;stroke:#000000;stroke-linejoin:miter;"/>
   </g>
   <g id="patch_30">
    <path clip-path="url(#pa4bc63d56d)" d="M 174.529306 103.11685 
L 174.529306 186.685354 
L 179.509487 186.685354 
L 179.509487 103.11685 
L 174.529306 103.11685 
" style="fill:#0000ff;stroke:#000000;stroke-linejoin:miter;"/>
   </g>
   <g id="patch_31">
    <path clip-path="url(#pa4bc63d56d)" d="M 179.509487 186.685354 
L 179.509487 186.685354 
L 184.489667 186.685354 
L 184.489667 186.685354 
L 179.509487 186.685354 
" style="fill:#0000ff;stroke:#000000;stroke-linejoin:miter;"/>
   </g>
   <g id="patch_32">
    <path clip-path="url(#pa4bc63d56d)" d="M 184.489667 165.793228 
L 184.489667 186.685354 
L 189.469848 186.685354 
L 189.469848 165.793228 
L 184.489667 165.793228 
" style="fill:#0000ff;stroke:#000000;stroke-linejoin:miter;"/>
   </g>
   <g id="patch_33">
    <path clip-path="url(#pa4bc63d56d)" d="M 189.469848 165.793228 
L 189.469848 186.685354 
L 194.450028 186.685354 
L 194.450028 165.793228 
L 189.469848 165.793228 
" style="fill:#0000ff;stroke:#000000;stroke-linejoin:miter;"/>
   </g>
   <g id="patch_34">
    <path clip-path="url(#pa4bc63d56d)" d="M 194.450028 186.685354 
L 194.450028 186.685354 
L 199.430209 186.685354 
L 199.430209 186.685354 
L 194.450028 186.685354 
" style="fill:#0000ff;stroke:#000000;stroke-linejoin:miter;"/>
   </g>
   <g id="patch_35">
    <path clip-path="url(#pa4bc63d56d)" d="M 199.430209 186.685354 
L 199.430209 186.685354 
L 204.41039 186.685354 
L 204.41039 186.685354 
L 199.430209 186.685354 
" style="fill:#0000ff;stroke:#000000;stroke-linejoin:miter;"/>
   </g>
   <g id="patch_36">
    <path clip-path="url(#pa4bc63d56d)" d="M 204.41039 144.901102 
L 204.41039 186.685354 
L 209.39057 186.685354 
L 209.39057 144.901102 
L 204.41039 144.901102 
" style="fill:#0000ff;stroke:#000000;stroke-linejoin:miter;"/>
   </g>
   <g id="matplotlib.axis_1">
    <g id="xtick_1">
     <g id="line2d_1">
      <defs>
       <path d="M 0 0 
L 0 3.5 
" id="mff3ae6a2c1" style="stroke:#000000;stroke-width:0.8;"/>
      </defs>
      <g>
       <use style="stroke:#000000;stroke-width:0.8;" x="50.024791" xlink:href="#mff3ae6a2c1" y="186.685354"/>
      </g>
     </g>
     <g id="text_1">
      <!-- 10 -->
      <defs>
       <path d="M 12.40625 8.296875 
L 28.515625 8.296875 
L 28.515625 63.921875 
L 10.984375 60.40625 
L 10.984375 69.390625 
L 28.421875 72.90625 
L 38.28125 72.90625 
L 38.28125 8.296875 
L 54.390625 8.296875 
L 54.390625 0 
L 12.40625 0 
z
" id="DejaVuSans-31"/>
       <path d="M 31.78125 66.40625 
Q 24.171875 66.40625 20.328125 58.90625 
Q 16.5 51.421875 16.5 36.375 
Q 16.5 21.390625 20.328125 13.890625 
Q 24.171875 6.390625 31.78125 6.390625 
Q 39.453125 6.390625 43.28125 13.890625 
Q 47.125 21.390625 47.125 36.375 
Q 47.125 51.421875 43.28125 58.90625 
Q 39.453125 66.40625 31.78125 66.40625 
z
M 31.78125 74.21875 
Q 44.046875 74.21875 50.515625 64.515625 
Q 56.984375 54.828125 56.984375 36.375 
Q 56.984375 17.96875 50.515625 8.265625 
Q 44.046875 -1.421875 31.78125 -1.421875 
Q 19.53125 -1.421875 13.0625 8.265625 
Q 6.59375 17.96875 6.59375 36.375 
Q 6.59375 54.828125 13.0625 64.515625 
Q 19.53125 74.21875 31.78125 74.21875 
z
" id="DejaVuSans-30"/>
      </defs>
      <g transform="translate(44.934791 199.764104)scale(0.08 -0.08)">
       <use xlink:href="#DejaVuSans-31"/>
       <use x="63.623047" xlink:href="#DejaVuSans-30"/>
      </g>
     </g>
    </g>
    <g id="xtick_2">
     <g id="line2d_2">
      <g>
       <use style="stroke:#000000;stroke-width:0.8;" x="99.826597" xlink:href="#mff3ae6a2c1" y="186.685354"/>
      </g>
     </g>
     <g id="text_2">
      <!-- 20 -->
      <defs>
       <path d="M 19.1875 8.296875 
L 53.609375 8.296875 
L 53.609375 0 
L 7.328125 0 
L 7.328125 8.296875 
Q 12.9375 14.109375 22.625 23.890625 
Q 32.328125 33.6875 34.8125 36.53125 
Q 39.546875 41.84375 41.421875 45.53125 
Q 43.3125 49.21875 43.3125 52.78125 
Q 43.3125 58.59375 39.234375 62.25 
Q 35.15625 65.921875 28.609375 65.921875 
Q 23.96875 65.921875 18.8125 64.3125 
Q 13.671875 62.703125 7.8125 59.421875 
L 7.8125 69.390625 
Q 13.765625 71.78125 18.9375 73 
Q 24.125 74.21875 28.421875 74.21875 
Q 39.75 74.21875 46.484375 68.546875 
Q 53.21875 62.890625 53.21875 53.421875 
Q 53.21875 48.921875 51.53125 44.890625 
Q 49.859375 40.875 45.40625 35.40625 
Q 44.1875 33.984375 37.640625 27.21875 
Q 31.109375 20.453125 19.1875 8.296875 
z
" id="DejaVuSans-32"/>
      </defs>
      <g transform="translate(94.736597 199.764104)scale(0.08 -0.08)">
       <use xlink:href="#DejaVuSans-32"/>
       <use x="63.623047" xlink:href="#DejaVuSans-30"/>
      </g>
     </g>
    </g>
    <g id="xtick_3">
     <g id="line2d_3">
      <g>
       <use style="stroke:#000000;stroke-width:0.8;" x="149.628403" xlink:href="#mff3ae6a2c1" y="186.685354"/>
      </g>
     </g>
     <g id="text_3">
      <!-- 30 -->
      <defs>
       <path d="M 40.578125 39.3125 
Q 47.65625 37.796875 51.625 33 
Q 55.609375 28.21875 55.609375 21.1875 
Q 55.609375 10.40625 48.1875 4.484375 
Q 40.765625 -1.421875 27.09375 -1.421875 
Q 22.515625 -1.421875 17.65625 -0.515625 
Q 12.796875 0.390625 7.625 2.203125 
L 7.625 11.71875 
Q 11.71875 9.328125 16.59375 8.109375 
Q 21.484375 6.890625 26.8125 6.890625 
Q 36.078125 6.890625 40.9375 10.546875 
Q 45.796875 14.203125 45.796875 21.1875 
Q 45.796875 27.640625 41.28125 31.265625 
Q 36.765625 34.90625 28.71875 34.90625 
L 20.21875 34.90625 
L 20.21875 43.015625 
L 29.109375 43.015625 
Q 36.375 43.015625 40.234375 45.921875 
Q 44.09375 48.828125 44.09375 54.296875 
Q 44.09375 59.90625 40.109375 62.90625 
Q 36.140625 65.921875 28.71875 65.921875 
Q 24.65625 65.921875 20.015625 65.03125 
Q 15.375 64.15625 9.8125 62.3125 
L 9.8125 71.09375 
Q 15.4375 72.65625 20.34375 73.4375 
Q 25.25 74.21875 29.59375 74.21875 
Q 40.828125 74.21875 47.359375 69.109375 
Q 53.90625 64.015625 53.90625 55.328125 
Q 53.90625 49.265625 50.4375 45.09375 
Q 46.96875 40.921875 40.578125 39.3125 
z
" id="DejaVuSans-33"/>
      </defs>
      <g transform="translate(144.538403 199.764104)scale(0.08 -0.08)">
       <use xlink:href="#DejaVuSans-33"/>
       <use x="63.623047" xlink:href="#DejaVuSans-30"/>
      </g>
     </g>
    </g>
    <g id="xtick_4">
     <g id="line2d_4">
      <g>
       <use style="stroke:#000000;stroke-width:0.8;" x="199.430209" xlink:href="#mff3ae6a2c1" y="186.685354"/>
      </g>
     </g>
     <g id="text_4">
      <!-- 40 -->
      <defs>
       <path d="M 37.796875 64.3125 
L 12.890625 25.390625 
L 37.796875 25.390625 
z
M 35.203125 72.90625 
L 47.609375 72.90625 
L 47.609375 25.390625 
L 58.015625 25.390625 
L 58.015625 17.1875 
L 47.609375 17.1875 
L 47.609375 0 
L 37.796875 0 
L 37.796875 17.1875 
L 4.890625 17.1875 
L 4.890625 26.703125 
z
" id="DejaVuSans-34"/>
      </defs>
      <g transform="translate(194.340209 199.764104)scale(0.08 -0.08)">
       <use xlink:href="#DejaVuSans-34"/>
       <use x="63.623047" xlink:href="#DejaVuSans-30"/>
      </g>
     </g>
    </g>
    <g id="text_5">
     <!-- population size -->
     <defs>
      <path d="M 18.109375 8.203125 
L 18.109375 -20.796875 
L 9.078125 -20.796875 
L 9.078125 54.6875 
L 18.109375 54.6875 
L 18.109375 46.390625 
Q 20.953125 51.265625 25.265625 53.625 
Q 29.59375 56 35.59375 56 
Q 45.5625 56 51.78125 48.09375 
Q 58.015625 40.1875 58.015625 27.296875 
Q 58.015625 14.40625 51.78125 6.484375 
Q 45.5625 -1.421875 35.59375 -1.421875 
Q 29.59375 -1.421875 25.265625 0.953125 
Q 20.953125 3.328125 18.109375 8.203125 
z
M 48.6875 27.296875 
Q 48.6875 37.203125 44.609375 42.84375 
Q 40.53125 48.484375 33.40625 48.484375 
Q 26.265625 48.484375 22.1875 42.84375 
Q 18.109375 37.203125 18.109375 27.296875 
Q 18.109375 17.390625 22.1875 11.75 
Q 26.265625 6.109375 33.40625 6.109375 
Q 40.53125 6.109375 44.609375 11.75 
Q 48.6875 17.390625 48.6875 27.296875 
z
" id="DejaVuSans-70"/>
      <path d="M 30.609375 48.390625 
Q 23.390625 48.390625 19.1875 42.75 
Q 14.984375 37.109375 14.984375 27.296875 
Q 14.984375 17.484375 19.15625 11.84375 
Q 23.34375 6.203125 30.609375 6.203125 
Q 37.796875 6.203125 41.984375 11.859375 
Q 46.1875 17.53125 46.1875 27.296875 
Q 46.1875 37.015625 41.984375 42.703125 
Q 37.796875 48.390625 30.609375 48.390625 
z
M 30.609375 56 
Q 42.328125 56 49.015625 48.375 
Q 55.71875 40.765625 55.71875 27.296875 
Q 55.71875 13.875 49.015625 6.21875 
Q 42.328125 -1.421875 30.609375 -1.421875 
Q 18.84375 -1.421875 12.171875 6.21875 
Q 5.515625 13.875 5.515625 27.296875 
Q 5.515625 40.765625 12.171875 48.375 
Q 18.84375 56 30.609375 56 
z
" id="DejaVuSans-6f"/>
      <path d="M 8.5 21.578125 
L 8.5 54.6875 
L 17.484375 54.6875 
L 17.484375 21.921875 
Q 17.484375 14.15625 20.5 10.265625 
Q 23.53125 6.390625 29.59375 6.390625 
Q 36.859375 6.390625 41.078125 11.03125 
Q 45.3125 15.671875 45.3125 23.6875 
L 45.3125 54.6875 
L 54.296875 54.6875 
L 54.296875 0 
L 45.3125 0 
L 45.3125 8.40625 
Q 42.046875 3.421875 37.71875 1 
Q 33.40625 -1.421875 27.6875 -1.421875 
Q 18.265625 -1.421875 13.375 4.4375 
Q 8.5 10.296875 8.5 21.578125 
z
M 31.109375 56 
z
" id="DejaVuSans-75"/>
      <path d="M 9.421875 75.984375 
L 18.40625 75.984375 
L 18.40625 0 
L 9.421875 0 
z
" id="DejaVuSans-6c"/>
      <path d="M 34.28125 27.484375 
Q 23.390625 27.484375 19.1875 25 
Q 14.984375 22.515625 14.984375 16.5 
Q 14.984375 11.71875 18.140625 8.90625 
Q 21.296875 6.109375 26.703125 6.109375 
Q 34.1875 6.109375 38.703125 11.40625 
Q 43.21875 16.703125 43.21875 25.484375 
L 43.21875 27.484375 
z
M 52.203125 31.203125 
L 52.203125 0 
L 43.21875 0 
L 43.21875 8.296875 
Q 40.140625 3.328125 35.546875 0.953125 
Q 30.953125 -1.421875 24.3125 -1.421875 
Q 15.921875 -1.421875 10.953125 3.296875 
Q 6 8.015625 6 15.921875 
Q 6 25.140625 12.171875 29.828125 
Q 18.359375 34.515625 30.609375 34.515625 
L 43.21875 34.515625 
L 43.21875 35.40625 
Q 43.21875 41.609375 39.140625 45 
Q 35.0625 48.390625 27.6875 48.390625 
Q 23 48.390625 18.546875 47.265625 
Q 14.109375 46.140625 10.015625 43.890625 
L 10.015625 52.203125 
Q 14.9375 54.109375 19.578125 55.046875 
Q 24.21875 56 28.609375 56 
Q 40.484375 56 46.34375 49.84375 
Q 52.203125 43.703125 52.203125 31.203125 
z
" id="DejaVuSans-61"/>
      <path d="M 18.3125 70.21875 
L 18.3125 54.6875 
L 36.8125 54.6875 
L 36.8125 47.703125 
L 18.3125 47.703125 
L 18.3125 18.015625 
Q 18.3125 11.328125 20.140625 9.421875 
Q 21.96875 7.515625 27.59375 7.515625 
L 36.8125 7.515625 
L 36.8125 0 
L 27.59375 0 
Q 17.1875 0 13.234375 3.875 
Q 9.28125 7.765625 9.28125 18.015625 
L 9.28125 47.703125 
L 2.6875 47.703125 
L 2.6875 54.6875 
L 9.28125 54.6875 
L 9.28125 70.21875 
z
" id="DejaVuSans-74"/>
      <path d="M 9.421875 54.6875 
L 18.40625 54.6875 
L 18.40625 0 
L 9.421875 0 
z
M 9.421875 75.984375 
L 18.40625 75.984375 
L 18.40625 64.59375 
L 9.421875 64.59375 
z
" id="DejaVuSans-69"/>
      <path d="M 54.890625 33.015625 
L 54.890625 0 
L 45.90625 0 
L 45.90625 32.71875 
Q 45.90625 40.484375 42.875 44.328125 
Q 39.84375 48.1875 33.796875 48.1875 
Q 26.515625 48.1875 22.3125 43.546875 
Q 18.109375 38.921875 18.109375 30.90625 
L 18.109375 0 
L 9.078125 0 
L 9.078125 54.6875 
L 18.109375 54.6875 
L 18.109375 46.1875 
Q 21.34375 51.125 25.703125 53.5625 
Q 30.078125 56 35.796875 56 
Q 45.21875 56 50.046875 50.171875 
Q 54.890625 44.34375 54.890625 33.015625 
z
" id="DejaVuSans-6e"/>
      <path id="DejaVuSans-20"/>
      <path d="M 44.28125 53.078125 
L 44.28125 44.578125 
Q 40.484375 46.53125 36.375 47.5 
Q 32.28125 48.484375 27.875 48.484375 
Q 21.1875 48.484375 17.84375 46.4375 
Q 14.5 44.390625 14.5 40.28125 
Q 14.5 37.15625 16.890625 35.375 
Q 19.28125 33.59375 26.515625 31.984375 
L 29.59375 31.296875 
Q 39.15625 29.25 43.1875 25.515625 
Q 47.21875 21.78125 47.21875 15.09375 
Q 47.21875 7.46875 41.1875 3.015625 
Q 35.15625 -1.421875 24.609375 -1.421875 
Q 20.21875 -1.421875 15.453125 -0.5625 
Q 10.6875 0.296875 5.421875 2 
L 5.421875 11.28125 
Q 10.40625 8.6875 15.234375 7.390625 
Q 20.0625 6.109375 24.8125 6.109375 
Q 31.15625 6.109375 34.5625 8.28125 
Q 37.984375 10.453125 37.984375 14.40625 
Q 37.984375 18.0625 35.515625 20.015625 
Q 33.0625 21.96875 24.703125 23.78125 
L 21.578125 24.515625 
Q 13.234375 26.265625 9.515625 29.90625 
Q 5.8125 33.546875 5.8125 39.890625 
Q 5.8125 47.609375 11.28125 51.796875 
Q 16.75 56 26.8125 56 
Q 31.78125 56 36.171875 55.265625 
Q 40.578125 54.546875 44.28125 53.078125 
z
" id="DejaVuSans-73"/>
      <path d="M 5.515625 54.6875 
L 48.1875 54.6875 
L 48.1875 46.484375 
L 14.40625 7.171875 
L 48.1875 7.171875 
L 48.1875 0 
L 4.296875 0 
L 4.296875 8.203125 
L 38.09375 47.515625 
L 5.515625 47.515625 
z
" id="DejaVuSans-7a"/>
      <path d="M 56.203125 29.59375 
L 56.203125 25.203125 
L 14.890625 25.203125 
Q 15.484375 15.921875 20.484375 11.0625 
Q 25.484375 6.203125 34.421875 6.203125 
Q 39.59375 6.203125 44.453125 7.46875 
Q 49.3125 8.734375 54.109375 11.28125 
L 54.109375 2.78125 
Q 49.265625 0.734375 44.1875 -0.34375 
Q 39.109375 -1.421875 33.890625 -1.421875 
Q 20.796875 -1.421875 13.15625 6.1875 
Q 5.515625 13.8125 5.515625 26.8125 
Q 5.515625 40.234375 12.765625 48.109375 
Q 20.015625 56 32.328125 56 
Q 43.359375 56 49.78125 48.890625 
Q 56.203125 41.796875 56.203125 29.59375 
z
M 47.21875 32.234375 
Q 47.125 39.59375 43.09375 43.984375 
Q 39.0625 48.390625 32.421875 48.390625 
Q 24.90625 48.390625 20.390625 44.140625 
Q 15.875 39.890625 15.1875 32.171875 
z
" id="DejaVuSans-65"/>
     </defs>
     <g transform="translate(83.047812 213.786136)scale(0.11 -0.11)">
      <use xlink:href="#DejaVuSans-70"/>
      <use x="63.476562" xlink:href="#DejaVuSans-6f"/>
      <use x="124.658203" xlink:href="#DejaVuSans-70"/>
      <use x="188.134766" xlink:href="#DejaVuSans-75"/>
      <use x="251.513672" xlink:href="#DejaVuSans-6c"/>
      <use x="279.296875" xlink:href="#DejaVuSans-61"/>
      <use x="340.576172" xlink:href="#DejaVuSans-74"/>
      <use x="379.785156" xlink:href="#DejaVuSans-69"/>
      <use x="407.568359" xlink:href="#DejaVuSans-6f"/>
      <use x="468.75" xlink:href="#DejaVuSans-6e"/>
      <use x="532.128906" xlink:href="#DejaVuSans-20"/>
      <use x="563.916016" xlink:href="#DejaVuSans-73"/>
      <use x="616.015625" xlink:href="#DejaVuSans-69"/>
      <use x="643.798828" xlink:href="#DejaVuSans-7a"/>
      <use x="696.289062" xlink:href="#DejaVuSans-65"/>
     </g>
    </g>
   </g>
   <g id="matplotlib.axis_2">
    <g id="ytick_1">
     <g id="line2d_5">
      <defs>
       <path d="M 0 0 
L -3.5 0 
" id="m2cf60df955" style="stroke:#000000;stroke-width:0.8;"/>
      </defs>
      <g>
       <use style="stroke:#000000;stroke-width:0.8;" x="34.984646" xlink:href="#m2cf60df955" y="186.685354"/>
      </g>
     </g>
     <g id="text_6">
      <!-- 0.0 -->
      <defs>
       <path d="M 10.6875 12.40625 
L 21 12.40625 
L 21 0 
L 10.6875 0 
z
" id="DejaVuSans-2e"/>
      </defs>
      <g transform="translate(15.262146 189.724729)scale(0.08 -0.08)">
       <use xlink:href="#DejaVuSans-30"/>
       <use x="63.623047" xlink:href="#DejaVuSans-2e"/>
       <use x="95.410156" xlink:href="#DejaVuSans-30"/>
      </g>
     </g>
    </g>
    <g id="ytick_2">
     <g id="line2d_6">
      <g>
       <use style="stroke:#000000;stroke-width:0.8;" x="34.984646" xlink:href="#m2cf60df955" y="134.455039"/>
      </g>
     </g>
     <g id="text_7">
      <!-- 2.5 -->
      <defs>
       <path d="M 10.796875 72.90625 
L 49.515625 72.90625 
L 49.515625 64.59375 
L 19.828125 64.59375 
L 19.828125 46.734375 
Q 21.96875 47.46875 24.109375 47.828125 
Q 26.265625 48.1875 28.421875 48.1875 
Q 40.625 48.1875 47.75 41.5 
Q 54.890625 34.8125 54.890625 23.390625 
Q 54.890625 11.625 47.5625 5.09375 
Q 40.234375 -1.421875 26.90625 -1.421875 
Q 22.3125 -1.421875 17.546875 -0.640625 
Q 12.796875 0.140625 7.71875 1.703125 
L 7.71875 11.625 
Q 12.109375 9.234375 16.796875 8.0625 
Q 21.484375 6.890625 26.703125 6.890625 
Q 35.15625 6.890625 40.078125 11.328125 
Q 45.015625 15.765625 45.015625 23.390625 
Q 45.015625 31 40.078125 35.4375 
Q 35.15625 39.890625 26.703125 39.890625 
Q 22.75 39.890625 18.8125 39.015625 
Q 14.890625 38.140625 10.796875 36.28125 
z
" id="DejaVuSans-35"/>
      </defs>
      <g transform="translate(15.262146 137.494414)scale(0.08 -0.08)">
       <use xlink:href="#DejaVuSans-32"/>
       <use x="63.623047" xlink:href="#DejaVuSans-2e"/>
       <use x="95.410156" xlink:href="#DejaVuSans-35"/>
      </g>
     </g>
    </g>
    <g id="ytick_3">
     <g id="line2d_7">
      <g>
       <use style="stroke:#000000;stroke-width:0.8;" x="34.984646" xlink:href="#m2cf60df955" y="82.224724"/>
      </g>
     </g>
     <g id="text_8">
      <!-- 5.0 -->
      <g transform="translate(15.262146 85.264099)scale(0.08 -0.08)">
       <use xlink:href="#DejaVuSans-35"/>
       <use x="63.623047" xlink:href="#DejaVuSans-2e"/>
       <use x="95.410156" xlink:href="#DejaVuSans-30"/>
      </g>
     </g>
    </g>
    <g id="ytick_4">
     <g id="line2d_8">
      <g>
       <use style="stroke:#000000;stroke-width:0.8;" x="34.984646" xlink:href="#m2cf60df955" y="29.994409"/>
      </g>
     </g>
     <g id="text_9">
      <!-- 7.5 -->
      <defs>
       <path d="M 8.203125 72.90625 
L 55.078125 72.90625 
L 55.078125 68.703125 
L 28.609375 0 
L 18.3125 0 
L 43.21875 64.59375 
L 8.203125 64.59375 
z
" id="DejaVuSans-37"/>
      </defs>
      <g transform="translate(15.262146 33.033784)scale(0.08 -0.08)">
       <use xlink:href="#DejaVuSans-37"/>
       <use x="63.623047" xlink:href="#DejaVuSans-2e"/>
       <use x="95.410156" xlink:href="#DejaVuSans-35"/>
      </g>
     </g>
    </g>
    <g id="text_10">
     <!-- frequency -->
     <defs>
      <path d="M 37.109375 75.984375 
L 37.109375 68.5 
L 28.515625 68.5 
Q 23.6875 68.5 21.796875 66.546875 
Q 19.921875 64.59375 19.921875 59.515625 
L 19.921875 54.6875 
L 34.71875 54.6875 
L 34.71875 47.703125 
L 19.921875 47.703125 
L 19.921875 0 
L 10.890625 0 
L 10.890625 47.703125 
L 2.296875 47.703125 
L 2.296875 54.6875 
L 10.890625 54.6875 
L 10.890625 58.5 
Q 10.890625 67.625 15.140625 71.796875 
Q 19.390625 75.984375 28.609375 75.984375 
z
" id="DejaVuSans-66"/>
      <path d="M 41.109375 46.296875 
Q 39.59375 47.171875 37.8125 47.578125 
Q 36.03125 48 33.890625 48 
Q 26.265625 48 22.1875 43.046875 
Q 18.109375 38.09375 18.109375 28.8125 
L 18.109375 0 
L 9.078125 0 
L 9.078125 54.6875 
L 18.109375 54.6875 
L 18.109375 46.1875 
Q 20.953125 51.171875 25.484375 53.578125 
Q 30.03125 56 36.53125 56 
Q 37.453125 56 38.578125 55.875 
Q 39.703125 55.765625 41.0625 55.515625 
z
" id="DejaVuSans-72"/>
      <path d="M 14.796875 27.296875 
Q 14.796875 17.390625 18.875 11.75 
Q 22.953125 6.109375 30.078125 6.109375 
Q 37.203125 6.109375 41.296875 11.75 
Q 45.40625 17.390625 45.40625 27.296875 
Q 45.40625 37.203125 41.296875 42.84375 
Q 37.203125 48.484375 30.078125 48.484375 
Q 22.953125 48.484375 18.875 42.84375 
Q 14.796875 37.203125 14.796875 27.296875 
z
M 45.40625 8.203125 
Q 42.578125 3.328125 38.25 0.953125 
Q 33.9375 -1.421875 27.875 -1.421875 
Q 17.96875 -1.421875 11.734375 6.484375 
Q 5.515625 14.40625 5.515625 27.296875 
Q 5.515625 40.1875 11.734375 48.09375 
Q 17.96875 56 27.875 56 
Q 33.9375 56 38.25 53.625 
Q 42.578125 51.265625 45.40625 46.390625 
L 45.40625 54.6875 
L 54.390625 54.6875 
L 54.390625 -20.796875 
L 45.40625 -20.796875 
z
" id="DejaVuSans-71"/>
      <path d="M 48.78125 52.59375 
L 48.78125 44.1875 
Q 44.96875 46.296875 41.140625 47.34375 
Q 37.3125 48.390625 33.40625 48.390625 
Q 24.65625 48.390625 19.8125 42.84375 
Q 14.984375 37.3125 14.984375 27.296875 
Q 14.984375 17.28125 19.8125 11.734375 
Q 24.65625 6.203125 33.40625 6.203125 
Q 37.3125 6.203125 41.140625 7.25 
Q 44.96875 8.296875 48.78125 10.40625 
L 48.78125 2.09375 
Q 45.015625 0.34375 40.984375 -0.53125 
Q 36.96875 -1.421875 32.421875 -1.421875 
Q 20.0625 -1.421875 12.78125 6.34375 
Q 5.515625 14.109375 5.515625 27.296875 
Q 5.515625 40.671875 12.859375 48.328125 
Q 20.21875 56 33.015625 56 
Q 37.15625 56 41.109375 55.140625 
Q 45.0625 54.296875 48.78125 52.59375 
z
" id="DejaVuSans-63"/>
      <path d="M 32.171875 -5.078125 
Q 28.375 -14.84375 24.75 -17.8125 
Q 21.140625 -20.796875 15.09375 -20.796875 
L 7.90625 -20.796875 
L 7.90625 -13.28125 
L 13.1875 -13.28125 
Q 16.890625 -13.28125 18.9375 -11.515625 
Q 21 -9.765625 23.484375 -3.21875 
L 25.09375 0.875 
L 2.984375 54.6875 
L 12.5 54.6875 
L 29.59375 11.921875 
L 46.6875 54.6875 
L 56.203125 54.6875 
z
" id="DejaVuSans-79"/>
     </defs>
     <g transform="translate(8.974489 122.46625)rotate(-90)scale(0.11 -0.11)">
      <use xlink:href="#DejaVuSans-66"/>
      <use x="35.205078" xlink:href="#DejaVuSans-72"/>
      <use x="76.287109" xlink:href="#DejaVuSans-65"/>
      <use x="137.810547" xlink:href="#DejaVuSans-71"/>
      <use x="201.287109" xlink:href="#DejaVuSans-75"/>
      <use x="264.666016" xlink:href="#DejaVuSans-65"/>
      <use x="326.189453" xlink:href="#DejaVuSans-6e"/>
      <use x="389.568359" xlink:href="#DejaVuSans-63"/>
      <use x="444.548828" xlink:href="#DejaVuSans-79"/>
     </g>
    </g>
   </g>
   <g id="patch_37">
    <path d="M 34.984646 186.685354 
L 34.984646 2.834646 
" style="fill:none;stroke:#000000;stroke-linecap:square;stroke-linejoin:miter;stroke-width:0.8;"/>
   </g>
   <g id="patch_38">
    <path d="M 214.470354 186.685354 
L 214.470354 2.834646 
" style="fill:none;stroke:#000000;stroke-linecap:square;stroke-linejoin:miter;stroke-width:0.8;"/>
   </g>
   <g id="patch_39">
    <path d="M 34.984646 186.685354 
L 214.470354 186.685354 
" style="fill:none;stroke:#000000;stroke-linecap:square;stroke-linejoin:miter;stroke-width:0.8;"/>
   </g>
   <g id="patch_40">
    <path d="M 34.984646 2.834646 
L 214.470354 2.834646 
" style="fill:none;stroke:#000000;stroke-linecap:square;stroke-linejoin:miter;stroke-width:0.8;"/>
   </g>
   <g id="legend_1">
    <g id="patch_41">
     <path d="M 173.445354 20.977146 
L 208.870354 20.977146 
Q 210.470354 20.977146 210.470354 19.377146 
L 210.470354 8.434646 
Q 210.470354 6.834646 208.870354 6.834646 
L 173.445354 6.834646 
Q 171.845354 6.834646 171.845354 8.434646 
L 171.845354 19.377146 
Q 171.845354 20.977146 173.445354 20.977146 
z
" style="fill:#ffffff;opacity:0.8;stroke:#000000;stroke-linejoin:miter;"/>
    </g>
    <g id="line2d_9">
     <path d="M 175.045354 13.313396 
L 191.045354 13.313396 
" style="fill:none;stroke:#0000ff;stroke-linecap:square;stroke-width:4;"/>
    </g>
    <g id="line2d_10"/>
    <g id="text_11">
     <!-- y1 -->
     <g transform="translate(197.445354 16.113396)scale(0.08 -0.08)">
      <use xlink:href="#DejaVuSans-79"/>
      <use x="59.179688" xlink:href="#DejaVuSans-31"/>
     </g>
    </g>
   </g>
  </g>
  <g id="axes_2">
   <g id="patch_42">
    <path d="M 249.679646 186.685354 
L 429.165354 186.685354 
L 429.165354 2.834646 
L 249.679646 2.834646 
z
" style="fill:#ffffff;"/>
   </g>
   <g id="patch_43">
    <path clip-path="url(#p2f7f29092b)" d="M 254.75943 173.828661 
L 254.75943 186.685354 
L 259.890525 186.685354 
L 259.890525 173.828661 
L 254.75943 173.828661 
" style="fill:#ff0000;stroke:#000000;stroke-linejoin:miter;"/>
   </g>
   <g id="patch_44">
    <path clip-path="url(#p2f7f29092b)" d="M 259.890525 186.685354 
L 259.890525 186.685354 
L 265.02162 186.685354 
L 265.02162 186.685354 
L 259.890525 186.685354 
" style="fill:#ff0000;stroke:#000000;stroke-linejoin:miter;"/>
   </g>
   <g id="patch_45">
    <path clip-path="url(#p2f7f29092b)" d="M 265.02162 135.258583 
L 265.02162 186.685354 
L 270.152715 186.685354 
L 270.152715 135.258583 
L 265.02162 135.258583 
" style="fill:#ff0000;stroke:#000000;stroke-linejoin:miter;"/>
   </g>
   <g id="patch_46">
    <path clip-path="url(#p2f7f29092b)" d="M 270.152715 148.115276 
L 270.152715 186.685354 
L 275.283811 186.685354 
L 275.283811 148.115276 
L 270.152715 148.115276 
" style="fill:#ff0000;stroke:#000000;stroke-linejoin:miter;"/>
   </g>
   <g id="patch_47">
    <path clip-path="url(#p2f7f29092b)" d="M 275.283811 122.40189 
L 275.283811 186.685354 
L 280.414906 186.685354 
L 280.414906 122.40189 
L 275.283811 122.40189 
" style="fill:#ff0000;stroke:#000000;stroke-linejoin:miter;"/>
   </g>
   <g id="patch_48">
    <path clip-path="url(#p2f7f29092b)" d="M 280.414906 70.975118 
L 280.414906 186.685354 
L 285.546001 186.685354 
L 285.546001 70.975118 
L 280.414906 70.975118 
" style="fill:#ff0000;stroke:#000000;stroke-linejoin:miter;"/>
   </g>
   <g id="patch_49">
    <path clip-path="url(#p2f7f29092b)" d="M 285.546001 45.261732 
L 285.546001 186.685354 
L 290.677096 186.685354 
L 290.677096 45.261732 
L 285.546001 45.261732 
" style="fill:#ff0000;stroke:#000000;stroke-linejoin:miter;"/>
   </g>
   <g id="patch_50">
    <path clip-path="url(#p2f7f29092b)" d="M 290.677096 96.688504 
L 290.677096 186.685354 
L 295.808191 186.685354 
L 295.808191 96.688504 
L 290.677096 96.688504 
" style="fill:#ff0000;stroke:#000000;stroke-linejoin:miter;"/>
   </g>
   <g id="patch_51">
    <path clip-path="url(#p2f7f29092b)" d="M 295.808191 19.548346 
L 295.808191 186.685354 
L 300.939286 186.685354 
L 300.939286 19.548346 
L 295.808191 19.548346 
" style="fill:#ff0000;stroke:#000000;stroke-linejoin:miter;"/>
   </g>
   <g id="patch_52">
    <path clip-path="url(#p2f7f29092b)" d="M 300.939286 83.831811 
L 300.939286 186.685354 
L 306.070381 186.685354 
L 306.070381 83.831811 
L 300.939286 83.831811 
" style="fill:#ff0000;stroke:#000000;stroke-linejoin:miter;"/>
   </g>
   <g id="patch_53">
    <path clip-path="url(#p2f7f29092b)" d="M 306.070381 83.831811 
L 306.070381 186.685354 
L 311.201477 186.685354 
L 311.201477 83.831811 
L 306.070381 83.831811 
" style="fill:#ff0000;stroke:#000000;stroke-linejoin:miter;"/>
   </g>
   <g id="patch_54">
    <path clip-path="url(#p2f7f29092b)" d="M 311.201477 148.115276 
L 311.201477 186.685354 
L 316.332572 186.685354 
L 316.332572 148.115276 
L 311.201477 148.115276 
" style="fill:#ff0000;stroke:#000000;stroke-linejoin:miter;"/>
   </g>
   <g id="patch_55">
    <path clip-path="url(#p2f7f29092b)" d="M 316.332572 122.40189 
L 316.332572 186.685354 
L 321.463667 186.685354 
L 321.463667 122.40189 
L 316.332572 122.40189 
" style="fill:#ff0000;stroke:#000000;stroke-linejoin:miter;"/>
   </g>
   <g id="patch_56">
    <path clip-path="url(#p2f7f29092b)" d="M 321.463667 122.40189 
L 321.463667 186.685354 
L 326.594762 186.685354 
L 326.594762 122.40189 
L 321.463667 122.40189 
" style="fill:#ff0000;stroke:#000000;stroke-linejoin:miter;"/>
   </g>
   <g id="patch_57">
    <path clip-path="url(#p2f7f29092b)" d="M 326.594762 148.115276 
L 326.594762 186.685354 
L 331.725857 186.685354 
L 331.725857 148.115276 
L 326.594762 148.115276 
" style="fill:#ff0000;stroke:#000000;stroke-linejoin:miter;"/>
   </g>
   <g id="patch_58">
    <path clip-path="url(#p2f7f29092b)" d="M 331.725857 122.40189 
L 331.725857 186.685354 
L 336.856952 186.685354 
L 336.856952 122.40189 
L 331.725857 122.40189 
" style="fill:#ff0000;stroke:#000000;stroke-linejoin:miter;"/>
   </g>
   <g id="patch_59">
    <path clip-path="url(#p2f7f29092b)" d="M 336.856952 160.971969 
L 336.856952 186.685354 
L 341.988048 186.685354 
L 341.988048 160.971969 
L 336.856952 160.971969 
" style="fill:#ff0000;stroke:#000000;stroke-linejoin:miter;"/>
   </g>
   <g id="patch_60">
    <path clip-path="url(#p2f7f29092b)" d="M 341.988048 160.971969 
L 341.988048 186.685354 
L 347.119143 186.685354 
L 347.119143 160.971969 
L 341.988048 160.971969 
" style="fill:#ff0000;stroke:#000000;stroke-linejoin:miter;"/>
   </g>
   <g id="patch_61">
    <path clip-path="url(#p2f7f29092b)" d="M 347.119143 186.685354 
L 347.119143 186.685354 
L 352.250238 186.685354 
L 352.250238 186.685354 
L 347.119143 186.685354 
" style="fill:#ff0000;stroke:#000000;stroke-linejoin:miter;"/>
   </g>
   <g id="patch_62">
    <path clip-path="url(#p2f7f29092b)" d="M 352.250238 160.971969 
L 352.250238 186.685354 
L 357.381333 186.685354 
L 357.381333 160.971969 
L 352.250238 160.971969 
" style="fill:#ff0000;stroke:#000000;stroke-linejoin:miter;"/>
   </g>
   <g id="patch_63">
    <path clip-path="url(#p2f7f29092b)" d="M 357.381333 173.828661 
L 357.381333 186.685354 
L 362.512428 186.685354 
L 362.512428 173.828661 
L 357.381333 173.828661 
" style="fill:#ff0000;stroke:#000000;stroke-linejoin:miter;"/>
   </g>
   <g id="patch_64">
    <path clip-path="url(#p2f7f29092b)" d="M 362.512428 186.685354 
L 362.512428 186.685354 
L 367.643523 186.685354 
L 367.643523 186.685354 
L 362.512428 186.685354 
" style="fill:#ff0000;stroke:#000000;stroke-linejoin:miter;"/>
   </g>
   <g id="patch_65">
    <path clip-path="url(#p2f7f29092b)" d="M 367.643523 186.685354 
L 367.643523 186.685354 
L 372.774619 186.685354 
L 372.774619 186.685354 
L 367.643523 186.685354 
" style="fill:#ff0000;stroke:#000000;stroke-linejoin:miter;"/>
   </g>
   <g id="patch_66">
    <path clip-path="url(#p2f7f29092b)" d="M 372.774619 186.685354 
L 372.774619 186.685354 
L 377.905714 186.685354 
L 377.905714 186.685354 
L 372.774619 186.685354 
" style="fill:#ff0000;stroke:#000000;stroke-linejoin:miter;"/>
   </g>
   <g id="patch_67">
    <path clip-path="url(#p2f7f29092b)" d="M 377.905714 186.685354 
L 377.905714 186.685354 
L 383.036809 186.685354 
L 383.036809 186.685354 
L 377.905714 186.685354 
" style="fill:#ff0000;stroke:#000000;stroke-linejoin:miter;"/>
   </g>
   <g id="patch_68">
    <path clip-path="url(#p2f7f29092b)" d="M 383.036809 186.685354 
L 383.036809 186.685354 
L 388.167904 186.685354 
L 388.167904 186.685354 
L 383.036809 186.685354 
" style="fill:#ff0000;stroke:#000000;stroke-linejoin:miter;"/>
   </g>
   <g id="patch_69">
    <path clip-path="url(#p2f7f29092b)" d="M 388.167904 186.685354 
L 388.167904 186.685354 
L 393.298999 186.685354 
L 393.298999 186.685354 
L 388.167904 186.685354 
" style="fill:#ff0000;stroke:#000000;stroke-linejoin:miter;"/>
   </g>
   <g id="patch_70">
    <path clip-path="url(#p2f7f29092b)" d="M 393.298999 173.828661 
L 393.298999 186.685354 
L 398.430094 186.685354 
L 398.430094 173.828661 
L 393.298999 173.828661 
" style="fill:#ff0000;stroke:#000000;stroke-linejoin:miter;"/>
   </g>
   <g id="patch_71">
    <path clip-path="url(#p2f7f29092b)" d="M 398.430094 186.685354 
L 398.430094 186.685354 
L 403.561189 186.685354 
L 403.561189 186.685354 
L 398.430094 186.685354 
" style="fill:#ff0000;stroke:#000000;stroke-linejoin:miter;"/>
   </g>
   <g id="patch_72">
    <path clip-path="url(#p2f7f29092b)" d="M 403.561189 173.828661 
L 403.561189 186.685354 
L 408.692285 186.685354 
L 408.692285 173.828661 
L 403.561189 173.828661 
" style="fill:#ff0000;stroke:#000000;stroke-linejoin:miter;"/>
   </g>
   <g id="patch_73">
    <path clip-path="url(#p2f7f29092b)" d="M 408.692285 186.685354 
L 408.692285 186.685354 
L 413.82338 186.685354 
L 413.82338 186.685354 
L 408.692285 186.685354 
" style="fill:#ff0000;stroke:#000000;stroke-linejoin:miter;"/>
   </g>
   <g id="patch_74">
    <path clip-path="url(#p2f7f29092b)" d="M 413.82338 186.685354 
L 413.82338 186.685354 
L 418.954475 186.685354 
L 418.954475 186.685354 
L 413.82338 186.685354 
" style="fill:#ff0000;stroke:#000000;stroke-linejoin:miter;"/>
   </g>
   <g id="patch_75">
    <path clip-path="url(#p2f7f29092b)" d="M 418.954475 173.828661 
L 418.954475 186.685354 
L 424.08557 186.685354 
L 424.08557 173.828661 
L 418.954475 173.828661 
" style="fill:#ff0000;stroke:#000000;stroke-linejoin:miter;"/>
   </g>
   <g id="matplotlib.axis_3">
    <g id="xtick_5">
     <g id="line2d_11">
      <g>
       <use style="stroke:#000000;stroke-width:0.8;" x="285.546001" xlink:href="#mff3ae6a2c1" y="186.685354"/>
      </g>
     </g>
     <g id="text_12">
      <!-- 200 -->
      <g transform="translate(277.911001 199.764104)scale(0.08 -0.08)">
       <use xlink:href="#DejaVuSans-32"/>
       <use x="63.623047" xlink:href="#DejaVuSans-30"/>
       <use x="127.246094" xlink:href="#DejaVuSans-30"/>
      </g>
     </g>
    </g>
    <g id="xtick_6">
     <g id="line2d_12">
      <g>
       <use style="stroke:#000000;stroke-width:0.8;" x="336.856952" xlink:href="#mff3ae6a2c1" y="186.685354"/>
      </g>
     </g>
     <g id="text_13">
      <!-- 400 -->
      <g transform="translate(329.221952 199.764104)scale(0.08 -0.08)">
       <use xlink:href="#DejaVuSans-34"/>
       <use x="63.623047" xlink:href="#DejaVuSans-30"/>
       <use x="127.246094" xlink:href="#DejaVuSans-30"/>
      </g>
     </g>
    </g>
    <g id="xtick_7">
     <g id="line2d_13">
      <g>
       <use style="stroke:#000000;stroke-width:0.8;" x="388.167904" xlink:href="#mff3ae6a2c1" y="186.685354"/>
      </g>
     </g>
     <g id="text_14">
      <!-- 600 -->
      <defs>
       <path d="M 33.015625 40.375 
Q 26.375 40.375 22.484375 35.828125 
Q 18.609375 31.296875 18.609375 23.390625 
Q 18.609375 15.53125 22.484375 10.953125 
Q 26.375 6.390625 33.015625 6.390625 
Q 39.65625 6.390625 43.53125 10.953125 
Q 47.40625 15.53125 47.40625 23.390625 
Q 47.40625 31.296875 43.53125 35.828125 
Q 39.65625 40.375 33.015625 40.375 
z
M 52.59375 71.296875 
L 52.59375 62.3125 
Q 48.875 64.0625 45.09375 64.984375 
Q 41.3125 65.921875 37.59375 65.921875 
Q 27.828125 65.921875 22.671875 59.328125 
Q 17.53125 52.734375 16.796875 39.40625 
Q 19.671875 43.65625 24.015625 45.921875 
Q 28.375 48.1875 33.59375 48.1875 
Q 44.578125 48.1875 50.953125 41.515625 
Q 57.328125 34.859375 57.328125 23.390625 
Q 57.328125 12.15625 50.6875 5.359375 
Q 44.046875 -1.421875 33.015625 -1.421875 
Q 20.359375 -1.421875 13.671875 8.265625 
Q 6.984375 17.96875 6.984375 36.375 
Q 6.984375 53.65625 15.1875 63.9375 
Q 23.390625 74.21875 37.203125 74.21875 
Q 40.921875 74.21875 44.703125 73.484375 
Q 48.484375 72.75 52.59375 71.296875 
z
" id="DejaVuSans-36"/>
      </defs>
      <g transform="translate(380.532904 199.764104)scale(0.08 -0.08)">
       <use xlink:href="#DejaVuSans-36"/>
       <use x="63.623047" xlink:href="#DejaVuSans-30"/>
       <use x="127.246094" xlink:href="#DejaVuSans-30"/>
      </g>
     </g>
    </g>
    <g id="text_15">
     <!-- population size -->
     <g transform="translate(297.742812 213.786136)scale(0.11 -0.11)">
      <use xlink:href="#DejaVuSans-70"/>
      <use x="63.476562" xlink:href="#DejaVuSans-6f"/>
      <use x="124.658203" xlink:href="#DejaVuSans-70"/>
      <use x="188.134766" xlink:href="#DejaVuSans-75"/>
      <use x="251.513672" xlink:href="#DejaVuSans-6c"/>
      <use x="279.296875" xlink:href="#DejaVuSans-61"/>
      <use x="340.576172" xlink:href="#DejaVuSans-74"/>
      <use x="379.785156" xlink:href="#DejaVuSans-69"/>
      <use x="407.568359" xlink:href="#DejaVuSans-6f"/>
      <use x="468.75" xlink:href="#DejaVuSans-6e"/>
      <use x="532.128906" xlink:href="#DejaVuSans-20"/>
      <use x="563.916016" xlink:href="#DejaVuSans-73"/>
      <use x="616.015625" xlink:href="#DejaVuSans-69"/>
      <use x="643.798828" xlink:href="#DejaVuSans-7a"/>
      <use x="696.289062" xlink:href="#DejaVuSans-65"/>
     </g>
    </g>
   </g>
   <g id="matplotlib.axis_4">
    <g id="ytick_5">
     <g id="line2d_14">
      <g>
       <use style="stroke:#000000;stroke-width:0.8;" x="249.679646" xlink:href="#m2cf60df955" y="186.685354"/>
      </g>
     </g>
     <g id="text_16">
      <!-- 0 -->
      <g transform="translate(237.589646 189.724729)scale(0.08 -0.08)">
       <use xlink:href="#DejaVuSans-30"/>
      </g>
     </g>
    </g>
    <g id="ytick_6">
     <g id="line2d_15">
      <g>
       <use style="stroke:#000000;stroke-width:0.8;" x="249.679646" xlink:href="#m2cf60df955" y="122.40189"/>
      </g>
     </g>
     <g id="text_17">
      <!-- 5 -->
      <g transform="translate(237.589646 125.441265)scale(0.08 -0.08)">
       <use xlink:href="#DejaVuSans-35"/>
      </g>
     </g>
    </g>
    <g id="ytick_7">
     <g id="line2d_16">
      <g>
       <use style="stroke:#000000;stroke-width:0.8;" x="249.679646" xlink:href="#m2cf60df955" y="58.118425"/>
      </g>
     </g>
     <g id="text_18">
      <!-- 10 -->
      <g transform="translate(232.499646 61.1578)scale(0.08 -0.08)">
       <use xlink:href="#DejaVuSans-31"/>
       <use x="63.623047" xlink:href="#DejaVuSans-30"/>
      </g>
     </g>
    </g>
    <g id="text_19">
     <!-- frequency -->
     <g transform="translate(226.211989 122.46625)rotate(-90)scale(0.11 -0.11)">
      <use xlink:href="#DejaVuSans-66"/>
      <use x="35.205078" xlink:href="#DejaVuSans-72"/>
      <use x="76.287109" xlink:href="#DejaVuSans-65"/>
      <use x="137.810547" xlink:href="#DejaVuSans-71"/>
      <use x="201.287109" xlink:href="#DejaVuSans-75"/>
      <use x="264.666016" xlink:href="#DejaVuSans-65"/>
      <use x="326.189453" xlink:href="#DejaVuSans-6e"/>
      <use x="389.568359" xlink:href="#DejaVuSans-63"/>
      <use x="444.548828" xlink:href="#DejaVuSans-79"/>
     </g>
    </g>
   </g>
   <g id="patch_76">
    <path d="M 249.679646 186.685354 
L 249.679646 2.834646 
" style="fill:none;stroke:#000000;stroke-linecap:square;stroke-linejoin:miter;stroke-width:0.8;"/>
   </g>
   <g id="patch_77">
    <path d="M 429.165354 186.685354 
L 429.165354 2.834646 
" style="fill:none;stroke:#000000;stroke-linecap:square;stroke-linejoin:miter;stroke-width:0.8;"/>
   </g>
   <g id="patch_78">
    <path d="M 249.679646 186.685354 
L 429.165354 186.685354 
" style="fill:none;stroke:#000000;stroke-linecap:square;stroke-linejoin:miter;stroke-width:0.8;"/>
   </g>
   <g id="patch_79">
    <path d="M 249.679646 2.834646 
L 429.165354 2.834646 
" style="fill:none;stroke:#000000;stroke-linecap:square;stroke-linejoin:miter;stroke-width:0.8;"/>
   </g>
   <g id="legend_2">
    <g id="patch_80">
     <path d="M 388.140354 20.977146 
L 423.565354 20.977146 
Q 425.165354 20.977146 425.165354 19.377146 
L 425.165354 8.434646 
Q 425.165354 6.834646 423.565354 6.834646 
L 388.140354 6.834646 
Q 386.540354 6.834646 386.540354 8.434646 
L 386.540354 19.377146 
Q 386.540354 20.977146 388.140354 20.977146 
z
" style="fill:#ffffff;opacity:0.8;stroke:#000000;stroke-linejoin:miter;"/>
    </g>
    <g id="line2d_17">
     <path d="M 389.740354 13.313396 
L 405.740354 13.313396 
" style="fill:none;stroke:#ff0000;stroke-linecap:square;stroke-width:4;"/>
    </g>
    <g id="line2d_18"/>
    <g id="text_20">
     <!-- y1 -->
     <g transform="translate(412.140354 16.113396)scale(0.08 -0.08)">
      <use xlink:href="#DejaVuSans-79"/>
      <use x="59.179688" xlink:href="#DejaVuSans-31"/>
     </g>
    </g>
   </g>
  </g>
 </g>
 <defs>
  <clipPath id="pa4bc63d56d">
   <rect height="183.850709" width="179.485709" x="34.984646" y="2.834646"/>
  </clipPath>
  <clipPath id="p2f7f29092b">
   <rect height="183.850709" width="179.485709" x="249.679646" y="2.834646"/>
  </clipPath>
 </defs>
</svg>
