<?xml version="1.0" encoding="utf-8" standalone="no"?>
<!DOCTYPE svg PUBLIC "-//W3C//DTD SVG 1.1//EN"
  "http://www.w3.org/Graphics/SVG/1.1/DTD/svg11.dtd">
<!-- Created with matplotlib (http://matplotlib.org/) -->
<svg height="288pt" version="1.1" viewBox="0 0 432 288" width="432pt" xmlns="http://www.w3.org/2000/svg" xmlns:xlink="http://www.w3.org/1999/xlink">
 <defs>
  <style type="text/css">
*{stroke-linecap:butt;stroke-linejoin:round;}
  </style>
 </defs>
 <g id="figure_1">
  <g id="patch_1">
   <path d="M 0 288 
L 432 288 
L 432 0 
L 0 0 
z
" style="fill:#ffffff;"/>
  </g>
  <g id="axes_1">
   <g id="patch_2">
    <path d="M 37.504646 258.685354 
L 421.425354 258.685354 
L 421.425354 2.834646 
L 37.504646 2.834646 
z
" style="fill:#ffffff;"/>
   </g>
   <g id="PolyCollection_1">
    <path clip-path="url(#pff9d6994cd)" d="M 37.504646 254.572181 
L 37.504646 254.572181 
L 38.272487 255.20873 
L 39.040329 255.288226 
L 39.80817 255.389985 
L 40.576011 255.300206 
L 41.343853 255.167996 
L 42.111694 254.791172 
L 42.879536 254.75728 
L 43.647377 254.267848 
L 44.415218 253.665375 
L 45.18306 253.555162 
L 45.950901 253.399721 
L 46.718743 253.123326 
L 47.486584 252.71213 
L 48.254426 252.294797 
L 49.022267 252.130928 
L 49.790108 252.237459 
L 50.55795 252.01735 
L 51.325791 251.479866 
L 52.093633 251.092455 
L 52.861474 250.990645 
L 53.629315 250.983125 
L 54.397157 251.110646 
L 55.164998 250.712855 
L 55.93284 250.738913 
L 56.700681 250.16567 
L 57.468523 250.822638 
L 58.236364 250.246369 
L 59.004205 250.13543 
L 59.772047 250.145684 
L 60.539888 250.31474 
L 61.30773 250.300847 
L 62.075571 250.052722 
L 62.843412 249.759246 
L 63.611254 249.927901 
L 64.379095 249.47497 
L 65.146937 249.412443 
L 65.914778 249.503804 
L 66.68262 248.962205 
L 67.450461 248.904826 
L 68.218302 249.126852 
L 68.986144 248.813607 
L 69.753985 249.655457 
L 70.521827 249.357822 
L 71.289668 248.741934 
L 72.057509 249.559739 
L 72.825351 248.956531 
L 73.593192 248.742984 
L 74.361034 249.012368 
L 75.128875 248.419557 
L 75.896717 249.329333 
L 76.664558 248.874697 
L 77.432399 248.588057 
L 78.200241 248.641096 
L 78.968082 248.432556 
L 79.735924 247.824374 
L 80.503765 247.954297 
L 81.271606 248.212645 
L 82.039448 248.39347 
L 82.807289 248.586021 
L 83.575131 248.230838 
L 84.342972 248.318169 
L 85.110814 247.771057 
L 85.878655 248.361575 
L 86.646496 247.820168 
L 87.414338 247.275671 
L 88.182179 247.789146 
L 88.950021 247.500623 
L 89.717862 247.86621 
L 90.485703 247.604608 
L 91.253545 247.656736 
L 92.021386 247.455077 
L 92.789228 247.344216 
L 93.557069 247.550696 
L 94.324911 247.2119 
L 95.092752 247.535434 
L 95.860593 247.230746 
L 96.628435 247.06391 
L 97.396276 247.122184 
L 98.164118 246.999007 
L 98.931959 247.275481 
L 99.6998 246.982971 
L 100.467642 247.474656 
L 101.235483 247.25378 
L 102.003325 247.014259 
L 102.771166 247.313364 
L 103.539008 246.940165 
L 104.306849 246.871841 
L 105.07469 246.636361 
L 105.842532 246.744504 
L 106.610373 247.718219 
L 107.378215 246.823332 
L 108.146056 247.346049 
L 108.913897 247.349355 
L 109.681739 247.284699 
L 110.44958 246.24281 
L 111.217422 246.719199 
L 111.985263 246.740065 
L 112.753105 246.458742 
L 113.520946 246.671423 
L 114.288787 247.316792 
L 115.056629 246.616395 
L 115.82447 246.515002 
L 116.592312 246.136431 
L 117.360153 246.937759 
L 118.127994 246.395626 
L 118.895836 246.753759 
L 119.663677 246.799876 
L 120.431519 246.575095 
L 121.19936 246.780367 
L 121.967202 246.335139 
L 122.735043 246.491099 
L 123.502884 246.686695 
L 124.270726 246.083634 
L 125.038567 246.788182 
L 125.806409 246.446643 
L 126.57425 246.130581 
L 127.342091 246.79645 
L 128.109933 246.420531 
L 128.877774 246.554833 
L 129.645616 246.324818 
L 130.413457 246.547633 
L 131.181299 246.73795 
L 131.94914 245.62512 
L 132.716981 246.419366 
L 133.484823 247.032322 
L 134.252664 245.858471 
L 135.020506 246.444707 
L 135.788347 246.17012 
L 136.556189 245.715657 
L 137.32403 246.676264 
L 138.091871 246.255696 
L 138.859713 246.679257 
L 139.627554 246.505629 
L 140.395396 246.323751 
L 141.163237 245.59461 
L 141.931078 245.94357 
L 142.69892 245.488685 
L 143.466761 246.39667 
L 144.234603 246.180889 
L 145.002444 244.870765 
L 145.770286 246.145262 
L 146.538127 246.133771 
L 147.305968 245.760064 
L 148.07381 245.127538 
L 148.841651 246.112636 
L 149.609493 245.824029 
L 150.377334 245.107024 
L 151.145175 246.022898 
L 151.913017 245.790932 
L 152.680858 246.30684 
L 153.4487 245.98594 
L 154.216541 246.370472 
L 154.984383 245.983286 
L 155.752224 245.407727 
L 156.520065 245.656395 
L 157.287907 245.323629 
L 158.055748 246.203556 
L 158.82359 245.841099 
L 159.591431 245.672096 
L 160.359272 245.906769 
L 161.127114 245.790006 
L 161.894955 245.440094 
L 162.662797 245.178377 
L 163.430638 245.485073 
L 164.19848 245.757977 
L 164.966321 245.645858 
L 165.734162 245.48119 
L 166.502004 246.054739 
L 167.269845 245.966497 
L 168.037687 245.724857 
L 168.805528 245.757589 
L 169.573369 245.566103 
L 170.341211 245.432527 
L 171.109052 245.685847 
L 171.876894 245.685319 
L 172.644735 245.84574 
L 173.412577 245.505732 
L 174.180418 245.81214 
L 174.948259 244.882587 
L 175.716101 245.624973 
L 176.483942 245.608021 
L 177.251784 245.385663 
L 178.019625 245.204474 
L 178.787466 245.013723 
L 179.555308 245.797838 
L 180.323149 244.433233 
L 181.090991 245.097783 
L 181.858832 245.739106 
L 182.626674 245.37704 
L 183.394515 244.966444 
L 184.162356 245.054812 
L 184.930198 244.605741 
L 185.698039 245.62144 
L 186.465881 245.249868 
L 187.233722 245.472503 
L 188.001563 244.379922 
L 188.769405 244.76481 
L 189.537246 245.09998 
L 190.305088 245.273722 
L 191.072929 244.803974 
L 191.840771 244.767918 
L 192.608612 244.85811 
L 193.376453 245.212174 
L 194.144295 245.654376 
L 194.912136 244.708241 
L 195.679978 245.269739 
L 196.447819 245.583241 
L 197.21566 245.523473 
L 197.983502 245.252625 
L 198.751343 245.236754 
L 199.519185 245.086926 
L 200.287026 244.417028 
L 201.054868 244.390804 
L 201.822709 245.164565 
L 202.59055 244.167519 
L 203.358392 244.505814 
L 204.126233 244.167952 
L 204.894075 244.355313 
L 205.661916 244.890051 
L 206.429757 245.320776 
L 207.197599 244.795311 
L 207.96544 244.299985 
L 208.733282 244.254487 
L 209.501123 244.261901 
L 210.268965 245.466066 
L 211.036806 245.472479 
L 211.804647 244.917061 
L 212.572489 244.822854 
L 213.34033 244.621144 
L 214.108172 244.816974 
L 214.876013 244.753516 
L 215.643854 245.584841 
L 216.411696 244.724071 
L 217.179537 244.126867 
L 217.947379 245.277799 
L 218.71522 244.467143 
L 219.483062 244.830886 
L 220.250903 244.824912 
L 221.018744 244.553302 
L 221.786586 244.954457 
L 222.554427 245.066994 
L 223.322269 244.433648 
L 224.09011 244.509119 
L 224.857951 244.378884 
L 225.625793 244.595576 
L 226.393634 244.414023 
L 227.161476 245.282183 
L 227.929317 244.772548 
L 228.697159 244.984241 
L 229.465 244.615911 
L 230.232841 244.383375 
L 231.000683 243.724063 
L 231.768524 244.920735 
L 232.536366 244.870928 
L 233.304207 245.089818 
L 234.072049 244.554695 
L 234.83989 244.500173 
L 235.607731 244.250391 
L 236.375573 244.629351 
L 237.143414 244.812773 
L 237.911256 244.917528 
L 238.679097 244.316681 
L 239.446938 244.583646 
L 240.21478 244.629112 
L 240.982621 244.195726 
L 241.750463 244.787806 
L 242.518304 244.683585 
L 243.286146 244.863062 
L 244.053987 244.575556 
L 244.821828 244.143691 
L 245.58967 244.240264 
L 246.357511 244.753447 
L 247.125353 244.10135 
L 247.893194 244.397105 
L 248.661035 243.892478 
L 249.428877 244.360899 
L 250.196718 244.155163 
L 250.96456 243.821612 
L 251.732401 244.111694 
L 252.500243 244.443444 
L 253.268084 244.350891 
L 254.035925 244.0615 
L 254.803767 244.601901 
L 255.571608 244.722968 
L 256.33945 243.596461 
L 257.107291 244.003803 
L 257.875132 244.666111 
L 258.642974 243.828896 
L 259.410815 243.650934 
L 260.178657 244.193361 
L 260.946498 244.053551 
L 261.71434 244.619467 
L 262.482181 244.231952 
L 263.250022 244.558367 
L 264.017864 244.357696 
L 264.785705 243.751046 
L 265.553547 244.486312 
L 266.321388 244.033081 
L 267.089229 244.262166 
L 267.857071 244.804685 
L 268.624912 243.776791 
L 269.392754 244.623235 
L 270.160595 243.98421 
L 270.928437 244.631977 
L 271.696278 244.26036 
L 272.464119 244.394525 
L 273.231961 244.167034 
L 273.999802 243.617219 
L 274.767644 243.63925 
L 275.535485 244.281393 
L 276.303326 244.227199 
L 277.071168 244.112976 
L 277.839009 243.673354 
L 278.606851 244.900367 
L 279.374692 244.235864 
L 280.142534 244.458804 
L 280.910375 244.040503 
L 281.678216 243.949296 
L 282.446058 243.863902 
L 283.213899 244.100271 
L 283.981741 243.998014 
L 284.749582 243.897221 
L 285.517423 244.27371 
L 286.285265 244.121834 
L 287.053106 243.791974 
L 287.820948 243.640539 
L 288.588789 244.482834 
L 289.356631 243.395325 
L 290.124472 244.238202 
L 290.892313 243.088281 
L 291.660155 243.479451 
L 292.427996 243.528056 
L 293.195838 244.503278 
L 293.963679 244.131888 
L 294.73152 244.175355 
L 295.499362 243.717493 
L 296.267203 244.232883 
L 297.035045 244.490902 
L 297.802886 242.987389 
L 298.570728 243.212161 
L 299.338569 243.112878 
L 300.10641 243.934445 
L 300.874252 244.475776 
L 301.642093 243.84496 
L 302.409935 243.500821 
L 303.177776 243.199971 
L 303.945617 243.658966 
L 304.713459 243.667264 
L 305.4813 243.585022 
L 306.249142 243.314063 
L 307.016983 242.916966 
L 307.784825 244.516098 
L 308.552666 243.379263 
L 309.320507 243.43878 
L 310.088349 244.147274 
L 310.85619 242.96435 
L 311.624032 243.924144 
L 312.391873 243.475401 
L 313.159714 243.776449 
L 313.927556 243.982833 
L 314.695397 244.220234 
L 315.463239 243.426166 
L 316.23108 243.878796 
L 316.998922 243.386519 
L 317.766763 243.426707 
L 318.534604 243.927202 
L 319.302446 243.491512 
L 320.070287 243.697477 
L 320.838129 244.284553 
L 321.60597 243.21342 
L 322.373811 243.982939 
L 323.141653 243.612277 
L 323.909494 243.37668 
L 324.677336 243.665407 
L 325.445177 244.324627 
L 326.213019 243.497633 
L 326.98086 243.589141 
L 327.748701 243.521142 
L 328.516543 243.572446 
L 329.284384 243.646114 
L 330.052226 243.597492 
L 330.820067 244.430567 
L 331.587909 243.036351 
L 332.35575 243.413282 
L 333.123591 243.657793 
L 333.891433 243.30472 
L 334.659274 243.47585 
L 335.427116 243.029753 
L 336.194957 243.844459 
L 336.962798 243.027885 
L 337.73064 243.612745 
L 338.498481 243.966573 
L 339.266323 242.69991 
L 340.034164 243.407648 
L 340.802006 244.009642 
L 341.569847 243.472256 
L 342.337688 243.498632 
L 343.10553 243.290581 
L 343.873371 243.804483 
L 344.641213 243.109769 
L 345.409054 243.100649 
L 346.176895 243.592603 
L 346.944737 243.38671 
L 347.712578 243.843433 
L 348.48042 242.932102 
L 349.248261 243.007869 
L 350.016103 243.552674 
L 350.783944 243.02332 
L 351.551785 243.416865 
L 352.319627 243.002341 
L 353.087468 243.270182 
L 353.85531 243.59377 
L 354.623151 243.031225 
L 355.390992 242.068888 
L 356.158834 243.583103 
L 356.926675 243.516895 
L 357.694517 242.866585 
L 358.462358 243.529176 
L 359.2302 242.998536 
L 359.998041 243.526438 
L 360.765882 242.849068 
L 361.533724 242.781796 
L 362.301565 243.105071 
L 363.069407 242.164054 
L 363.837248 243.748174 
L 364.605089 243.305956 
L 365.372931 243.611168 
L 366.140772 243.71354 
L 366.908614 243.652123 
L 367.676455 243.68506 
L 368.444297 243.47597 
L 369.212138 242.987319 
L 369.979979 243.231468 
L 370.747821 243.078572 
L 371.515662 244.233391 
L 372.283504 243.496321 
L 373.051345 242.785584 
L 373.819186 242.877091 
L 374.587028 243.366993 
L 375.354869 243.538654 
L 376.122711 242.769241 
L 376.890552 243.195774 
L 377.658394 243.473903 
L 378.426235 242.978679 
L 379.194076 243.13944 
L 379.961918 243.155459 
L 380.729759 243.43406 
L 381.497601 243.541185 
L 382.265442 243.292625 
L 383.033283 243.600776 
L 383.801125 242.844702 
L 384.568966 242.937509 
L 385.336808 243.563569 
L 386.104649 242.86108 
L 386.872491 243.265206 
L 387.640332 243.229712 
L 388.408173 243.980848 
L 389.176015 243.347829 
L 389.943856 243.516766 
L 390.711698 243.186551 
L 391.479539 243.173025 
L 392.24738 243.549782 
L 393.015222 243.851246 
L 393.783063 243.116199 
L 394.550905 243.888336 
L 395.318746 243.77895 
L 396.086588 243.493667 
L 396.854429 243.825412 
L 397.62227 243.42288 
L 398.390112 243.331693 
L 399.157953 243.549688 
L 399.925795 243.408837 
L 400.693636 243.57368 
L 401.461477 244.52992 
L 402.229319 243.301631 
L 402.99716 243.609513 
L 403.765002 242.794437 
L 404.532843 242.996178 
L 405.300685 243.122808 
L 406.068526 243.40379 
L 406.836367 243.375121 
L 407.604209 243.038073 
L 408.37205 242.821441 
L 409.139892 243.527592 
L 409.907733 243.361939 
L 410.675574 243.182466 
L 411.443416 243.298461 
L 412.211257 242.549398 
L 412.979099 243.157483 
L 413.74694 243.794242 
L 414.514782 242.668284 
L 415.282623 242.602723 
L 416.050464 242.724366 
L 416.818306 243.567225 
L 417.586147 242.822627 
L 418.353989 242.781511 
L 419.12183 243.169459 
L 419.889671 243.155157 
L 420.657513 243.48099 
L 421.425354 243.010439 
L 421.425354 233.999018 
L 421.425354 233.999018 
L 420.657513 233.817104 
L 419.889671 234.514041 
L 419.12183 234.568462 
L 418.353989 234.640285 
L 417.586147 234.447978 
L 416.818306 235.338989 
L 416.050464 235.329682 
L 415.282623 234.489202 
L 414.514782 233.214115 
L 413.74694 234.782101 
L 412.979099 233.769507 
L 412.211257 234.721207 
L 411.443416 235.030479 
L 410.675574 234.280564 
L 409.907733 235.118192 
L 409.139892 234.938794 
L 408.37205 234.394185 
L 407.604209 234.28751 
L 406.836367 234.555225 
L 406.068526 235.048851 
L 405.300685 234.367711 
L 404.532843 234.425618 
L 403.765002 235.025952 
L 402.99716 234.554491 
L 402.229319 234.023953 
L 401.461477 235.379651 
L 400.693636 233.669435 
L 399.925795 234.576488 
L 399.157953 234.985421 
L 398.390112 235.010992 
L 397.62227 234.232574 
L 396.854429 235.025823 
L 396.086588 233.845661 
L 395.318746 234.495011 
L 394.550905 234.179456 
L 393.783063 235.446399 
L 393.015222 234.656374 
L 392.24738 235.218985 
L 391.479539 235.293361 
L 390.711698 234.317712 
L 389.943856 234.331113 
L 389.176015 234.747453 
L 388.408173 234.856642 
L 387.640332 234.48072 
L 386.872491 234.005399 
L 386.104649 234.175866 
L 385.336808 234.682903 
L 384.568966 234.841647 
L 383.801125 234.013564 
L 383.033283 235.525352 
L 382.265442 233.64811 
L 381.497601 234.760266 
L 380.729759 235.169772 
L 379.961918 234.774887 
L 379.194076 235.230734 
L 378.426235 234.937923 
L 377.658394 234.662612 
L 376.890552 234.514659 
L 376.122711 234.707533 
L 375.354869 235.559984 
L 374.587028 234.797012 
L 373.819186 234.489726 
L 373.051345 234.402553 
L 372.283504 234.007942 
L 371.515662 235.167628 
L 370.747821 234.48067 
L 369.979979 234.28654 
L 369.212138 235.245408 
L 368.444297 234.523099 
L 367.676455 234.960006 
L 366.908614 235.144134 
L 366.140772 236.01735 
L 365.372931 235.033898 
L 364.605089 234.431965 
L 363.837248 234.127193 
L 363.069407 234.171917 
L 362.301565 235.127656 
L 361.533724 234.681233 
L 360.765882 234.31158 
L 359.998041 235.379776 
L 359.2302 234.574451 
L 358.462358 235.583207 
L 357.694517 234.830103 
L 356.926675 234.647109 
L 356.158834 234.608391 
L 355.390992 234.789379 
L 354.623151 235.586352 
L 353.85531 234.790149 
L 353.087468 234.990035 
L 352.319627 234.914261 
L 351.551785 234.705906 
L 350.783944 235.566768 
L 350.016103 235.106137 
L 349.248261 235.389794 
L 348.48042 234.902032 
L 347.712578 235.502609 
L 346.944737 234.433679 
L 346.176895 234.337743 
L 345.409054 235.599395 
L 344.641213 235.768956 
L 343.873371 235.211688 
L 343.10553 234.735978 
L 342.337688 234.747841 
L 341.569847 235.324001 
L 340.802006 234.910316 
L 340.034164 234.550187 
L 339.266323 235.436606 
L 338.498481 235.585637 
L 337.73064 235.458404 
L 336.962798 234.655059 
L 336.194957 235.625284 
L 335.427116 234.611956 
L 334.659274 234.729388 
L 333.891433 233.759716 
L 333.123591 235.179698 
L 332.35575 235.382975 
L 331.587909 235.017697 
L 330.820067 234.558115 
L 330.052226 235.885995 
L 329.284384 235.988564 
L 328.516543 235.567427 
L 327.748701 235.275115 
L 326.98086 234.519885 
L 326.213019 235.133689 
L 325.445177 235.103882 
L 324.677336 235.543189 
L 323.909494 235.117196 
L 323.141653 235.623807 
L 322.373811 234.854552 
L 321.60597 235.692794 
L 320.838129 235.240169 
L 320.070287 235.717288 
L 319.302446 235.029852 
L 318.534604 234.910288 
L 317.766763 235.149636 
L 316.998922 235.588417 
L 316.23108 234.381421 
L 315.463239 234.586648 
L 314.695397 234.768447 
L 313.927556 235.761802 
L 313.159714 236.311801 
L 312.391873 235.417068 
L 311.624032 235.971682 
L 310.85619 235.3371 
L 310.088349 235.006342 
L 309.320507 235.536156 
L 308.552666 235.100867 
L 307.784825 235.970746 
L 307.016983 235.39823 
L 306.249142 235.124834 
L 305.4813 235.513616 
L 304.713459 235.445119 
L 303.945617 235.247247 
L 303.177776 236.201048 
L 302.409935 235.309181 
L 301.642093 235.143722 
L 300.874252 235.804899 
L 300.10641 234.875557 
L 299.338569 235.284785 
L 298.570728 235.048056 
L 297.802886 236.001292 
L 297.035045 236.339557 
L 296.267203 235.896602 
L 295.499362 235.01004 
L 294.73152 236.338978 
L 293.963679 235.915129 
L 293.195838 236.230969 
L 292.427996 235.83173 
L 291.660155 235.68791 
L 290.892313 236.43644 
L 290.124472 236.358599 
L 289.356631 236.363055 
L 288.588789 235.28929 
L 287.820948 235.554311 
L 287.053106 235.82896 
L 286.285265 235.567822 
L 285.517423 235.443436 
L 284.749582 235.723713 
L 283.981741 236.241427 
L 283.213899 236.221637 
L 282.446058 236.114391 
L 281.678216 235.877807 
L 280.910375 237.064848 
L 280.142534 236.412889 
L 279.374692 235.659962 
L 278.606851 236.576089 
L 277.839009 236.016303 
L 277.071168 236.47008 
L 276.303326 236.259645 
L 275.535485 236.040516 
L 274.767644 236.077896 
L 273.999802 237.39192 
L 273.231961 235.934961 
L 272.464119 236.889507 
L 271.696278 235.498019 
L 270.928437 236.170993 
L 270.160595 236.722548 
L 269.392754 237.348027 
L 268.624912 235.624229 
L 267.857071 236.273178 
L 267.089229 236.265912 
L 266.321388 236.123892 
L 265.553547 236.454104 
L 264.785705 236.625841 
L 264.017864 236.376551 
L 263.250022 236.327071 
L 262.482181 235.925022 
L 261.71434 236.348439 
L 260.946498 236.419549 
L 260.178657 236.7608 
L 259.410815 235.928766 
L 258.642974 236.836628 
L 257.875132 236.892813 
L 257.107291 236.812912 
L 256.33945 236.629236 
L 255.571608 237.344507 
L 254.803767 236.242304 
L 254.035925 236.56279 
L 253.268084 236.919396 
L 252.500243 236.57944 
L 251.732401 236.52634 
L 250.96456 237.201272 
L 250.196718 236.496617 
L 249.428877 236.414582 
L 248.661035 237.034194 
L 247.893194 236.048506 
L 247.125353 236.962767 
L 246.357511 236.942924 
L 245.58967 236.109134 
L 244.821828 236.686768 
L 244.053987 236.735965 
L 243.286146 236.311013 
L 242.518304 236.078152 
L 241.750463 236.936054 
L 240.982621 236.840902 
L 240.21478 236.929812 
L 239.446938 236.631663 
L 238.679097 236.211397 
L 237.911256 236.352759 
L 237.143414 237.419637 
L 236.375573 236.957063 
L 235.607731 237.294789 
L 234.83989 236.357775 
L 234.072049 236.26202 
L 233.304207 237.527441 
L 232.536366 236.591783 
L 231.768524 237.201718 
L 231.000683 237.917329 
L 230.232841 236.721976 
L 229.465 236.599398 
L 228.697159 236.615917 
L 227.929317 237.459862 
L 227.161476 236.400443 
L 226.393634 236.540138 
L 225.625793 236.812158 
L 224.857951 236.82268 
L 224.09011 237.173506 
L 223.322269 236.190642 
L 222.554427 237.179161 
L 221.786586 237.607823 
L 221.018744 237.679108 
L 220.250903 237.201328 
L 219.483062 236.975441 
L 218.71522 236.638208 
L 217.947379 237.72431 
L 217.179537 236.552401 
L 216.411696 236.986043 
L 215.643854 238.063264 
L 214.876013 237.066555 
L 214.108172 236.686971 
L 213.34033 236.058125 
L 212.572489 236.832282 
L 211.804647 237.026713 
L 211.036806 237.089802 
L 210.268965 236.807577 
L 209.501123 236.032518 
L 208.733282 236.768397 
L 207.96544 235.994434 
L 207.197599 236.062638 
L 206.429757 237.365206 
L 205.661916 237.356103 
L 204.894075 237.038676 
L 204.126233 236.923655 
L 203.358392 237.011877 
L 202.59055 237.130258 
L 201.822709 236.710485 
L 201.054868 236.384677 
L 200.287026 236.317219 
L 199.519185 237.186717 
L 198.751343 236.67953 
L 197.983502 237.708249 
L 197.21566 237.959697 
L 196.447819 237.405123 
L 195.679978 237.34752 
L 194.912136 237.482935 
L 194.144295 237.25152 
L 193.376453 237.308873 
L 192.608612 236.893239 
L 191.840771 237.533215 
L 191.072929 236.809928 
L 190.305088 237.76962 
L 189.537246 237.269876 
L 188.769405 237.247686 
L 188.001563 236.409304 
L 187.233722 237.777008 
L 186.465881 237.2162 
L 185.698039 237.573093 
L 184.930198 237.145607 
L 184.162356 236.73777 
L 183.394515 237.540858 
L 182.626674 237.583834 
L 181.858832 237.771553 
L 181.090991 237.780624 
L 180.323149 236.892032 
L 179.555308 236.805676 
L 178.787466 237.094985 
L 178.019625 237.096659 
L 177.251784 237.025427 
L 176.483942 236.486943 
L 175.716101 237.129732 
L 174.948259 237.267355 
L 174.180418 237.478606 
L 173.412577 237.633822 
L 172.644735 238.420873 
L 171.876894 238.237678 
L 171.109052 237.384984 
L 170.341211 237.335923 
L 169.573369 238.49434 
L 168.805528 237.39571 
L 168.037687 237.772058 
L 167.269845 238.080201 
L 166.502004 236.878647 
L 165.734162 237.850789 
L 164.966321 238.593266 
L 164.19848 237.532768 
L 163.430638 237.654481 
L 162.662797 236.737907 
L 161.894955 238.125543 
L 161.127114 237.212102 
L 160.359272 238.016228 
L 159.591431 237.989754 
L 158.82359 237.573348 
L 158.055748 237.609484 
L 157.287907 237.527289 
L 156.520065 237.469415 
L 155.752224 238.130421 
L 154.984383 238.214604 
L 154.216541 237.689972 
L 153.4487 238.170716 
L 152.680858 237.286287 
L 151.913017 237.527302 
L 151.145175 237.391548 
L 150.377334 237.757638 
L 149.609493 237.535439 
L 148.841651 237.453001 
L 148.07381 237.5447 
L 147.305968 237.956764 
L 146.538127 237.170718 
L 145.770286 237.489098 
L 145.002444 236.935562 
L 144.234603 237.398493 
L 143.466761 238.30977 
L 142.69892 237.843294 
L 141.931078 237.993172 
L 141.163237 237.668646 
L 140.395396 238.313966 
L 139.627554 237.733494 
L 138.859713 237.889737 
L 138.091871 238.272064 
L 137.32403 238.305068 
L 136.556189 237.726279 
L 135.788347 237.64292 
L 135.020506 237.973096 
L 134.252664 238.10576 
L 133.484823 238.237647 
L 132.716981 238.232096 
L 131.94914 238.3666 
L 131.181299 237.020112 
L 130.413457 238.309998 
L 129.645616 238.670259 
L 128.877774 238.014161 
L 128.109933 238.23093 
L 127.342091 237.415184 
L 126.57425 237.751182 
L 125.806409 238.438478 
L 125.038567 237.877024 
L 124.270726 237.79813 
L 123.502884 237.731108 
L 122.735043 237.789258 
L 121.967202 237.89024 
L 121.19936 237.898584 
L 120.431519 237.512837 
L 119.663677 238.40137 
L 118.895836 237.581577 
L 118.127994 237.651073 
L 117.360153 237.713703 
L 116.592312 238.460053 
L 115.82447 237.600419 
L 115.056629 238.529872 
L 114.288787 238.73662 
L 113.520946 238.28242 
L 112.753105 238.769994 
L 111.985263 238.488671 
L 111.217422 238.509537 
L 110.44958 238.133759 
L 109.681739 238.108971 
L 108.913897 238.44291 
L 108.146056 239.160935 
L 107.378215 238.034299 
L 106.610373 238.129025 
L 105.842532 238.607933 
L 105.07469 239.183393 
L 104.306849 239.044125 
L 103.539008 239.525585 
L 102.771166 238.382688 
L 102.003325 238.97043 
L 101.235483 239.102014 
L 100.467642 239.059818 
L 99.6998 238.493168 
L 98.931959 238.214402 
L 98.164118 239.384276 
L 97.396276 239.041185 
L 96.628435 239.099459 
L 95.860593 238.396583 
L 95.092752 239.136485 
L 94.324911 238.635343 
L 93.557069 239.423605 
L 92.789228 239.039067 
L 92.021386 238.914461 
L 91.253545 239.578713 
L 90.485703 239.32846 
L 89.717862 239.300516 
L 88.950021 239.982229 
L 88.182179 239.70745 
L 87.414338 239.588673 
L 86.646496 239.62145 
L 85.878655 239.945954 
L 85.110814 239.216989 
L 84.342972 239.741956 
L 83.575131 239.416949 
L 82.807289 240.161336 
L 82.039448 240.06525 
L 81.271606 239.806247 
L 80.503765 240.985484 
L 79.735924 239.919625 
L 78.968082 239.929951 
L 78.200241 240.46362 
L 77.432399 239.884407 
L 76.664558 239.803936 
L 75.896717 240.173977 
L 75.128875 239.846738 
L 74.361034 240.669622 
L 73.593192 240.169308 
L 72.825351 240.560524 
L 72.057509 240.644546 
L 71.289668 240.568951 
L 70.521827 240.640294 
L 69.753985 240.686275 
L 68.986144 240.785915 
L 68.218302 241.132412 
L 67.450461 241.038312 
L 66.68262 241.352037 
L 65.914778 241.483924 
L 65.146937 241.382861 
L 64.379095 241.540248 
L 63.611254 241.362208 
L 62.843412 241.695799 
L 62.075571 240.852539 
L 61.30773 241.346623 
L 60.539888 241.6626 
L 59.772047 241.419318 
L 59.004205 241.745698 
L 58.236364 242.005863 
L 57.468523 242.254272 
L 56.700681 242.347711 
L 55.93284 242.269273 
L 55.164998 242.185375 
L 54.397157 242.117454 
L 53.629315 242.492378 
L 52.861474 242.58107 
L 52.093633 243.166491 
L 51.325791 243.782437 
L 50.55795 243.396143 
L 49.790108 243.863265 
L 49.022267 244.107242 
L 48.254426 245.1529 
L 47.486584 245.436541 
L 46.718743 245.863767 
L 45.950901 246.53575 
L 45.18306 246.394054 
L 44.415218 247.35592 
L 43.647377 248.017952 
L 42.879536 247.913369 
L 42.111694 248.731643 
L 41.343853 249.633068 
L 40.576011 250.614172 
L 39.80817 251.404048 
L 39.040329 252.234271 
L 38.272487 253.193422 
L 37.504646 254.572181 
z
" style="fill:#0000ff;fill-opacity:0.3;"/>
   </g>
   <g id="line2d_1">
    <path clip-path="url(#pff9d6994cd)" d="M 37.504646 254.572181 
L 39.80817 253.397016 
L 41.343853 252.400532 
L 42.111694 251.761407 
L 42.879536 251.335324 
L 43.647377 251.1429 
L 45.18306 249.974608 
L 45.950901 249.967736 
L 47.486584 249.074336 
L 48.254426 248.723848 
L 49.022267 248.119085 
L 49.790108 248.050362 
L 50.55795 247.706747 
L 51.325791 247.631151 
L 52.093633 247.129473 
L 52.861474 246.785858 
L 54.397157 246.61405 
L 55.164998 246.449115 
L 55.93284 246.504093 
L 56.700681 246.25669 
L 57.468523 246.538455 
L 58.236364 246.126116 
L 59.772047 245.782501 
L 60.539888 245.98867 
L 61.30773 245.823735 
L 62.075571 245.45263 
L 62.843412 245.727523 
L 65.914778 245.493864 
L 66.68262 245.157121 
L 67.450461 244.971569 
L 68.218302 245.129632 
L 68.986144 244.799761 
L 69.753985 245.170866 
L 70.521827 244.999058 
L 71.289668 244.655443 
L 72.057509 245.102143 
L 73.593192 244.456146 
L 74.361034 244.840995 
L 75.128875 244.133147 
L 75.896717 244.751655 
L 76.664558 244.339317 
L 77.432399 244.236232 
L 78.200241 244.552358 
L 79.735924 243.872 
L 80.503765 244.46989 
L 81.271606 244.009446 
L 82.807289 244.373678 
L 83.575131 243.823894 
L 84.342972 244.030063 
L 85.110814 243.494023 
L 85.878655 244.153764 
L 86.646496 243.720809 
L 87.414338 243.432172 
L 88.182179 243.748298 
L 88.950021 243.741426 
L 90.485703 243.466534 
L 91.253545 243.617724 
L 92.021386 243.184769 
L 92.789228 243.191641 
L 93.557069 243.487151 
L 94.324911 242.923622 
L 95.092752 243.33596 
L 95.860593 242.813665 
L 96.628435 243.081685 
L 98.164118 243.191641 
L 98.931959 242.744942 
L 99.6998 242.738069 
L 100.467642 243.267237 
L 102.003325 242.992345 
L 102.771166 242.848026 
L 103.539008 243.232875 
L 104.306849 242.957983 
L 105.07469 242.909877 
L 105.842532 242.676219 
L 106.610373 242.923622 
L 107.378215 242.428815 
L 108.146056 243.253492 
L 108.913897 242.896132 
L 109.681739 242.696835 
L 110.44958 242.188285 
L 111.217422 242.614368 
L 112.753105 242.614368 
L 113.520946 242.476922 
L 114.288787 243.026706 
L 115.82447 242.057711 
L 116.592312 242.298242 
L 117.360153 242.325731 
L 118.127994 242.023349 
L 118.895836 242.167668 
L 119.663677 242.600623 
L 120.431519 242.043966 
L 121.19936 242.339476 
L 121.967202 242.112689 
L 123.502884 242.208902 
L 124.270726 241.940882 
L 125.038567 242.332603 
L 125.806409 242.44256 
L 126.57425 241.940882 
L 128.109933 242.325731 
L 128.877774 242.284497 
L 129.645616 242.497539 
L 130.413457 242.428815 
L 131.181299 241.879031 
L 131.94914 241.99586 
L 133.484823 242.634985 
L 134.252664 241.982116 
L 135.020506 242.208902 
L 136.556189 241.720968 
L 137.32403 242.490666 
L 138.091871 242.26388 
L 138.859713 242.284497 
L 139.627554 242.119562 
L 140.395396 242.318859 
L 141.163237 241.631628 
L 141.931078 241.968371 
L 142.69892 241.665989 
L 143.466761 242.35322 
L 144.234603 241.789691 
L 145.002444 240.903163 
L 145.770286 241.81718 
L 146.538127 241.652245 
L 147.305968 241.858414 
L 148.07381 241.336119 
L 148.841651 241.782819 
L 149.609493 241.679734 
L 150.377334 241.432331 
L 151.145175 241.707223 
L 151.913017 241.659117 
L 152.680858 241.796563 
L 153.4487 242.078328 
L 154.216541 242.030222 
L 154.984383 242.098945 
L 155.752224 241.769074 
L 157.287907 241.425459 
L 158.055748 241.90652 
L 158.82359 241.707223 
L 160.359272 241.961499 
L 161.127114 241.501054 
L 161.894955 241.782819 
L 162.662797 240.958142 
L 163.430638 241.569777 
L 164.19848 241.645373 
L 164.966321 242.119562 
L 165.734162 241.665989 
L 166.502004 241.466693 
L 167.269845 242.023349 
L 168.805528 241.57665 
L 169.573369 242.030222 
L 170.341211 241.384225 
L 171.109052 241.535416 
L 171.876894 241.961499 
L 172.644735 242.133306 
L 173.412577 241.569777 
L 174.180418 241.645373 
L 174.948259 241.074971 
L 175.716101 241.377353 
L 176.483942 241.047482 
L 177.251784 241.205545 
L 178.787466 241.054354 
L 179.555308 241.301757 
L 180.323149 240.662633 
L 181.090991 241.439203 
L 181.858832 241.755329 
L 184.162356 240.896291 
L 184.930198 240.875674 
L 185.698039 241.597266 
L 186.465881 241.233034 
L 187.233722 241.624756 
L 188.001563 240.394613 
L 188.769405 241.006248 
L 189.537246 241.184928 
L 190.305088 241.521671 
L 191.072929 240.806951 
L 191.840771 241.150567 
L 192.608612 240.875674 
L 193.376453 241.260523 
L 194.144295 241.452948 
L 194.912136 241.095588 
L 197.21566 241.741585 
L 197.983502 241.480437 
L 198.751343 240.958142 
L 199.519185 241.136822 
L 200.287026 240.367124 
L 201.054868 240.387741 
L 201.822709 240.937525 
L 202.59055 240.648888 
L 203.358392 240.758845 
L 204.126233 240.545804 
L 204.894075 240.696994 
L 205.661916 241.123077 
L 206.429757 241.342991 
L 207.197599 240.428974 
L 207.96544 240.14721 
L 208.733282 240.511442 
L 209.501123 240.14721 
L 210.268965 241.136822 
L 211.036806 241.28114 
L 211.804647 240.971887 
L 212.572489 240.827568 
L 213.34033 240.339634 
L 214.108172 240.751973 
L 214.876013 240.910036 
L 215.643854 241.824053 
L 216.411696 240.855057 
L 217.179537 240.339634 
L 217.947379 241.501054 
L 218.71522 240.552676 
L 219.483062 240.903163 
L 221.786586 241.28114 
L 222.554427 241.123077 
L 223.322269 240.312145 
L 224.09011 240.841313 
L 224.857951 240.600782 
L 225.625793 240.703867 
L 226.393634 240.47708 
L 227.929317 241.116205 
L 228.697159 240.800079 
L 229.465 240.607654 
L 230.232841 240.552676 
L 231.768524 241.061227 
L 232.536366 240.731356 
L 233.304207 241.30863 
L 234.072049 240.408357 
L 234.83989 240.428974 
L 235.607731 240.77259 
L 236.375573 240.793207 
L 237.143414 241.116205 
L 238.679097 240.264039 
L 239.446938 240.607654 
L 240.21478 240.779462 
L 240.982621 240.518314 
L 241.750463 240.86193 
L 242.518304 240.380868 
L 243.286146 240.587037 
L 244.053987 240.65576 
L 245.58967 240.174699 
L 246.357511 240.848185 
L 247.893194 240.222805 
L 248.661035 240.463336 
L 250.196718 240.32589 
L 250.96456 240.511442 
L 251.732401 240.319017 
L 253.268084 240.635144 
L 254.035925 240.312145 
L 254.803767 240.422102 
L 255.571608 241.033737 
L 256.33945 240.112848 
L 257.875132 240.779462 
L 259.410815 239.78985 
L 260.178657 240.47708 
L 260.946498 240.23655 
L 261.71434 240.483953 
L 262.482181 240.078487 
L 263.250022 240.442719 
L 264.785705 240.188444 
L 265.553547 240.470208 
L 266.321388 240.078487 
L 267.857071 240.538931 
L 268.624912 239.70051 
L 269.392754 240.985631 
L 270.160595 240.353379 
L 270.928437 240.401485 
L 271.696278 239.87919 
L 272.464119 240.642016 
L 273.231961 240.050998 
L 273.999802 240.50457 
L 274.767644 239.858573 
L 275.535485 240.160954 
L 277.071168 240.291528 
L 277.839009 239.844828 
L 278.606851 240.738228 
L 279.374692 239.947913 
L 280.142534 240.435847 
L 280.910375 240.552676 
L 281.678216 239.913551 
L 283.981741 240.119721 
L 284.749582 239.810467 
L 286.285265 239.844828 
L 287.053106 239.810467 
L 287.820948 239.597425 
L 288.588789 239.886062 
L 289.356631 239.87919 
L 290.124472 240.298401 
L 290.892313 239.762361 
L 291.660155 239.583681 
L 292.427996 239.679893 
L 293.195838 240.367124 
L 293.963679 240.023508 
L 294.73152 240.257167 
L 295.499362 239.363767 
L 296.267203 240.064742 
L 297.035045 240.41523 
L 297.802886 239.494341 
L 298.570728 239.130108 
L 299.338569 239.198832 
L 300.10641 239.405001 
L 300.874252 240.140337 
L 301.642093 239.494341 
L 302.409935 239.405001 
L 303.177776 239.70051 
L 303.945617 239.453107 
L 305.4813 239.549319 
L 306.249142 239.219448 
L 307.016983 239.157598 
L 307.784825 240.243422 
L 308.552666 239.240065 
L 309.320507 239.487468 
L 310.088349 239.576808 
L 310.85619 239.150725 
L 311.624032 239.947913 
L 312.391873 239.446235 
L 313.159714 240.044125 
L 313.927556 239.872318 
L 315.463239 239.006407 
L 316.23108 239.130108 
L 316.998922 239.487468 
L 317.766763 239.288172 
L 318.534604 239.418745 
L 319.302446 239.260682 
L 320.070287 239.707382 
L 320.838129 239.762361 
L 321.60597 239.453107 
L 322.373811 239.418745 
L 323.141653 239.618042 
L 323.909494 239.246938 
L 324.677336 239.604298 
L 325.445177 239.714254 
L 326.213019 239.315661 
L 326.98086 239.054513 
L 327.748701 239.398128 
L 329.284384 239.817339 
L 330.052226 239.741744 
L 330.820067 239.494341 
L 331.587909 239.027024 
L 332.35575 239.398128 
L 333.123591 239.418745 
L 333.891433 238.532218 
L 334.659274 239.102619 
L 335.427116 238.820855 
L 336.194957 239.734871 
L 336.962798 238.841472 
L 337.73064 239.535575 
L 338.498481 239.776105 
L 339.266323 239.068258 
L 340.034164 238.978918 
L 340.802006 239.459979 
L 341.569847 239.398128 
L 342.337688 239.123236 
L 343.10553 239.013279 
L 343.873371 239.508085 
L 345.409054 239.350022 
L 346.176895 238.965173 
L 346.944737 238.910195 
L 347.712578 239.673021 
L 348.48042 238.917067 
L 349.248261 239.198832 
L 350.016103 239.329405 
L 350.783944 239.295044 
L 351.551785 239.061385 
L 352.319627 238.958301 
L 353.85531 239.191959 
L 354.623151 239.308788 
L 355.390992 238.429133 
L 356.158834 239.095747 
L 356.926675 239.082002 
L 357.694517 238.848344 
L 358.462358 239.556191 
L 359.2302 238.786493 
L 359.998041 239.453107 
L 360.765882 238.580324 
L 361.533724 238.731515 
L 362.301565 239.116364 
L 363.069407 238.167986 
L 363.837248 238.937684 
L 364.605089 238.868961 
L 366.140772 239.865445 
L 366.908614 239.398128 
L 367.676455 239.322533 
L 368.444297 238.999535 
L 369.212138 239.116364 
L 369.979979 238.759004 
L 370.747821 238.779621 
L 371.515662 239.70051 
L 372.283504 238.752132 
L 373.051345 238.594069 
L 373.819186 238.683409 
L 375.354869 239.549319 
L 376.122711 238.738387 
L 377.658394 239.068258 
L 378.426235 238.958301 
L 379.194076 239.185087 
L 379.961918 238.965173 
L 380.729759 239.301916 
L 381.497601 239.150725 
L 382.265442 238.470367 
L 383.033283 239.563064 
L 383.801125 238.429133 
L 384.568966 238.889578 
L 385.336808 239.123236 
L 386.104649 238.518473 
L 387.640332 238.855216 
L 388.408173 239.418745 
L 389.176015 239.047641 
L 390.711698 238.752132 
L 391.479539 239.233193 
L 392.24738 239.384384 
L 393.015222 239.25381 
L 393.783063 239.281299 
L 394.550905 239.033896 
L 395.318746 239.136981 
L 396.086588 238.669664 
L 396.854429 239.425618 
L 397.62227 238.827727 
L 398.390112 239.171342 
L 399.157953 239.267555 
L 400.693636 238.621558 
L 401.461477 239.954785 
L 402.229319 238.662792 
L 402.99716 239.082002 
L 404.532843 238.710898 
L 405.300685 238.745259 
L 406.068526 239.226321 
L 407.604209 238.662792 
L 408.37205 238.607813 
L 409.139892 239.233193 
L 409.907733 239.240065 
L 410.675574 238.731515 
L 411.443416 239.16447 
L 412.211257 238.635302 
L 412.979099 238.463495 
L 413.74694 239.288172 
L 414.514782 237.941199 
L 416.050464 239.027024 
L 416.818306 239.453107 
L 417.586147 238.635302 
L 419.889671 238.834599 
L 421.425354 238.504729 
L 421.425354 238.504729 
" style="fill:none;stroke:#0000ff;stroke-linecap:round;"/>
   </g>
   <g id="matplotlib.axis_1">
    <g id="xtick_1">
     <g id="line2d_2">
      <defs>
       <path d="M 0 0 
L 0 3.5 
" id="m8cce1b03e6" style="stroke:#000000;stroke-width:0.8;"/>
      </defs>
      <g>
       <use style="stroke:#000000;stroke-width:0.8;" x="37.504646" xlink:href="#m8cce1b03e6" y="258.685354"/>
      </g>
     </g>
     <g id="text_1">
      <!-- 0 -->
      <defs>
       <path d="M 31.78125 66.40625 
Q 24.171875 66.40625 20.328125 58.90625 
Q 16.5 51.421875 16.5 36.375 
Q 16.5 21.390625 20.328125 13.890625 
Q 24.171875 6.390625 31.78125 6.390625 
Q 39.453125 6.390625 43.28125 13.890625 
Q 47.125 21.390625 47.125 36.375 
Q 47.125 51.421875 43.28125 58.90625 
Q 39.453125 66.40625 31.78125 66.40625 
z
M 31.78125 74.21875 
Q 44.046875 74.21875 50.515625 64.515625 
Q 56.984375 54.828125 56.984375 36.375 
Q 56.984375 17.96875 50.515625 8.265625 
Q 44.046875 -1.421875 31.78125 -1.421875 
Q 19.53125 -1.421875 13.0625 8.265625 
Q 6.59375 17.96875 6.59375 36.375 
Q 6.59375 54.828125 13.0625 64.515625 
Q 19.53125 74.21875 31.78125 74.21875 
z
" id="DejaVuSans-30"/>
      </defs>
      <g transform="translate(34.959646 271.764104)scale(0.08 -0.08)">
       <use xlink:href="#DejaVuSans-30"/>
      </g>
     </g>
    </g>
    <g id="xtick_2">
     <g id="line2d_3">
      <g>
       <use style="stroke:#000000;stroke-width:0.8;" x="114.288787" xlink:href="#m8cce1b03e6" y="258.685354"/>
      </g>
     </g>
     <g id="text_2">
      <!-- 200 -->
      <defs>
       <path d="M 19.1875 8.296875 
L 53.609375 8.296875 
L 53.609375 0 
L 7.328125 0 
L 7.328125 8.296875 
Q 12.9375 14.109375 22.625 23.890625 
Q 32.328125 33.6875 34.8125 36.53125 
Q 39.546875 41.84375 41.421875 45.53125 
Q 43.3125 49.21875 43.3125 52.78125 
Q 43.3125 58.59375 39.234375 62.25 
Q 35.15625 65.921875 28.609375 65.921875 
Q 23.96875 65.921875 18.8125 64.3125 
Q 13.671875 62.703125 7.8125 59.421875 
L 7.8125 69.390625 
Q 13.765625 71.78125 18.9375 73 
Q 24.125 74.21875 28.421875 74.21875 
Q 39.75 74.21875 46.484375 68.546875 
Q 53.21875 62.890625 53.21875 53.421875 
Q 53.21875 48.921875 51.53125 44.890625 
Q 49.859375 40.875 45.40625 35.40625 
Q 44.1875 33.984375 37.640625 27.21875 
Q 31.109375 20.453125 19.1875 8.296875 
z
" id="DejaVuSans-32"/>
      </defs>
      <g transform="translate(106.653787 271.764104)scale(0.08 -0.08)">
       <use xlink:href="#DejaVuSans-32"/>
       <use x="63.623047" xlink:href="#DejaVuSans-30"/>
       <use x="127.246094" xlink:href="#DejaVuSans-30"/>
      </g>
     </g>
    </g>
    <g id="xtick_3">
     <g id="line2d_4">
      <g>
       <use style="stroke:#000000;stroke-width:0.8;" x="191.072929" xlink:href="#m8cce1b03e6" y="258.685354"/>
      </g>
     </g>
     <g id="text_3">
      <!-- 400 -->
      <defs>
       <path d="M 37.796875 64.3125 
L 12.890625 25.390625 
L 37.796875 25.390625 
z
M 35.203125 72.90625 
L 47.609375 72.90625 
L 47.609375 25.390625 
L 58.015625 25.390625 
L 58.015625 17.1875 
L 47.609375 17.1875 
L 47.609375 0 
L 37.796875 0 
L 37.796875 17.1875 
L 4.890625 17.1875 
L 4.890625 26.703125 
z
" id="DejaVuSans-34"/>
      </defs>
      <g transform="translate(183.437929 271.764104)scale(0.08 -0.08)">
       <use xlink:href="#DejaVuSans-34"/>
       <use x="63.623047" xlink:href="#DejaVuSans-30"/>
       <use x="127.246094" xlink:href="#DejaVuSans-30"/>
      </g>
     </g>
    </g>
    <g id="xtick_4">
     <g id="line2d_5">
      <g>
       <use style="stroke:#000000;stroke-width:0.8;" x="267.857071" xlink:href="#m8cce1b03e6" y="258.685354"/>
      </g>
     </g>
     <g id="text_4">
      <!-- 600 -->
      <defs>
       <path d="M 33.015625 40.375 
Q 26.375 40.375 22.484375 35.828125 
Q 18.609375 31.296875 18.609375 23.390625 
Q 18.609375 15.53125 22.484375 10.953125 
Q 26.375 6.390625 33.015625 6.390625 
Q 39.65625 6.390625 43.53125 10.953125 
Q 47.40625 15.53125 47.40625 23.390625 
Q 47.40625 31.296875 43.53125 35.828125 
Q 39.65625 40.375 33.015625 40.375 
z
M 52.59375 71.296875 
L 52.59375 62.3125 
Q 48.875 64.0625 45.09375 64.984375 
Q 41.3125 65.921875 37.59375 65.921875 
Q 27.828125 65.921875 22.671875 59.328125 
Q 17.53125 52.734375 16.796875 39.40625 
Q 19.671875 43.65625 24.015625 45.921875 
Q 28.375 48.1875 33.59375 48.1875 
Q 44.578125 48.1875 50.953125 41.515625 
Q 57.328125 34.859375 57.328125 23.390625 
Q 57.328125 12.15625 50.6875 5.359375 
Q 44.046875 -1.421875 33.015625 -1.421875 
Q 20.359375 -1.421875 13.671875 8.265625 
Q 6.984375 17.96875 6.984375 36.375 
Q 6.984375 53.65625 15.1875 63.9375 
Q 23.390625 74.21875 37.203125 74.21875 
Q 40.921875 74.21875 44.703125 73.484375 
Q 48.484375 72.75 52.59375 71.296875 
z
" id="DejaVuSans-36"/>
      </defs>
      <g transform="translate(260.222071 271.764104)scale(0.08 -0.08)">
       <use xlink:href="#DejaVuSans-36"/>
       <use x="63.623047" xlink:href="#DejaVuSans-30"/>
       <use x="127.246094" xlink:href="#DejaVuSans-30"/>
      </g>
     </g>
    </g>
    <g id="xtick_5">
     <g id="line2d_6">
      <g>
       <use style="stroke:#000000;stroke-width:0.8;" x="344.641213" xlink:href="#m8cce1b03e6" y="258.685354"/>
      </g>
     </g>
     <g id="text_5">
      <!-- 800 -->
      <defs>
       <path d="M 31.78125 34.625 
Q 24.75 34.625 20.71875 30.859375 
Q 16.703125 27.09375 16.703125 20.515625 
Q 16.703125 13.921875 20.71875 10.15625 
Q 24.75 6.390625 31.78125 6.390625 
Q 38.8125 6.390625 42.859375 10.171875 
Q 46.921875 13.96875 46.921875 20.515625 
Q 46.921875 27.09375 42.890625 30.859375 
Q 38.875 34.625 31.78125 34.625 
z
M 21.921875 38.8125 
Q 15.578125 40.375 12.03125 44.71875 
Q 8.5 49.078125 8.5 55.328125 
Q 8.5 64.0625 14.71875 69.140625 
Q 20.953125 74.21875 31.78125 74.21875 
Q 42.671875 74.21875 48.875 69.140625 
Q 55.078125 64.0625 55.078125 55.328125 
Q 55.078125 49.078125 51.53125 44.71875 
Q 48 40.375 41.703125 38.8125 
Q 48.828125 37.15625 52.796875 32.3125 
Q 56.78125 27.484375 56.78125 20.515625 
Q 56.78125 9.90625 50.3125 4.234375 
Q 43.84375 -1.421875 31.78125 -1.421875 
Q 19.734375 -1.421875 13.25 4.234375 
Q 6.78125 9.90625 6.78125 20.515625 
Q 6.78125 27.484375 10.78125 32.3125 
Q 14.796875 37.15625 21.921875 38.8125 
z
M 18.3125 54.390625 
Q 18.3125 48.734375 21.84375 45.5625 
Q 25.390625 42.390625 31.78125 42.390625 
Q 38.140625 42.390625 41.71875 45.5625 
Q 45.3125 48.734375 45.3125 54.390625 
Q 45.3125 60.0625 41.71875 63.234375 
Q 38.140625 66.40625 31.78125 66.40625 
Q 25.390625 66.40625 21.84375 63.234375 
Q 18.3125 60.0625 18.3125 54.390625 
z
" id="DejaVuSans-38"/>
      </defs>
      <g transform="translate(337.006213 271.764104)scale(0.08 -0.08)">
       <use xlink:href="#DejaVuSans-38"/>
       <use x="63.623047" xlink:href="#DejaVuSans-30"/>
       <use x="127.246094" xlink:href="#DejaVuSans-30"/>
      </g>
     </g>
    </g>
    <g id="xtick_6">
     <g id="line2d_7">
      <g>
       <use style="stroke:#000000;stroke-width:0.8;" x="421.425354" xlink:href="#m8cce1b03e6" y="258.685354"/>
      </g>
     </g>
     <g id="text_6">
      <!-- 1000 -->
      <defs>
       <path d="M 12.40625 8.296875 
L 28.515625 8.296875 
L 28.515625 63.921875 
L 10.984375 60.40625 
L 10.984375 69.390625 
L 28.421875 72.90625 
L 38.28125 72.90625 
L 38.28125 8.296875 
L 54.390625 8.296875 
L 54.390625 0 
L 12.40625 0 
z
" id="DejaVuSans-31"/>
      </defs>
      <g transform="translate(411.245354 271.764104)scale(0.08 -0.08)">
       <use xlink:href="#DejaVuSans-31"/>
       <use x="63.623047" xlink:href="#DejaVuSans-30"/>
       <use x="127.246094" xlink:href="#DejaVuSans-30"/>
       <use x="190.869141" xlink:href="#DejaVuSans-30"/>
      </g>
     </g>
    </g>
    <g id="text_7">
     <!-- time -->
     <defs>
      <path d="M 18.3125 70.21875 
L 18.3125 54.6875 
L 36.8125 54.6875 
L 36.8125 47.703125 
L 18.3125 47.703125 
L 18.3125 18.015625 
Q 18.3125 11.328125 20.140625 9.421875 
Q 21.96875 7.515625 27.59375 7.515625 
L 36.8125 7.515625 
L 36.8125 0 
L 27.59375 0 
Q 17.1875 0 13.234375 3.875 
Q 9.28125 7.765625 9.28125 18.015625 
L 9.28125 47.703125 
L 2.6875 47.703125 
L 2.6875 54.6875 
L 9.28125 54.6875 
L 9.28125 70.21875 
z
" id="DejaVuSans-74"/>
      <path d="M 9.421875 54.6875 
L 18.40625 54.6875 
L 18.40625 0 
L 9.421875 0 
z
M 9.421875 75.984375 
L 18.40625 75.984375 
L 18.40625 64.59375 
L 9.421875 64.59375 
z
" id="DejaVuSans-69"/>
      <path d="M 52 44.1875 
Q 55.375 50.25 60.0625 53.125 
Q 64.75 56 71.09375 56 
Q 79.640625 56 84.28125 50.015625 
Q 88.921875 44.046875 88.921875 33.015625 
L 88.921875 0 
L 79.890625 0 
L 79.890625 32.71875 
Q 79.890625 40.578125 77.09375 44.375 
Q 74.3125 48.1875 68.609375 48.1875 
Q 61.625 48.1875 57.5625 43.546875 
Q 53.515625 38.921875 53.515625 30.90625 
L 53.515625 0 
L 44.484375 0 
L 44.484375 32.71875 
Q 44.484375 40.625 41.703125 44.40625 
Q 38.921875 48.1875 33.109375 48.1875 
Q 26.21875 48.1875 22.15625 43.53125 
Q 18.109375 38.875 18.109375 30.90625 
L 18.109375 0 
L 9.078125 0 
L 9.078125 54.6875 
L 18.109375 54.6875 
L 18.109375 46.1875 
Q 21.1875 51.21875 25.484375 53.609375 
Q 29.78125 56 35.6875 56 
Q 41.65625 56 45.828125 52.96875 
Q 50 49.953125 52 44.1875 
z
" id="DejaVuSans-6d"/>
      <path d="M 56.203125 29.59375 
L 56.203125 25.203125 
L 14.890625 25.203125 
Q 15.484375 15.921875 20.484375 11.0625 
Q 25.484375 6.203125 34.421875 6.203125 
Q 39.59375 6.203125 44.453125 7.46875 
Q 49.3125 8.734375 54.109375 11.28125 
L 54.109375 2.78125 
Q 49.265625 0.734375 44.1875 -0.34375 
Q 39.109375 -1.421875 33.890625 -1.421875 
Q 20.796875 -1.421875 13.15625 6.1875 
Q 5.515625 13.8125 5.515625 26.8125 
Q 5.515625 40.234375 12.765625 48.109375 
Q 20.015625 56 32.328125 56 
Q 43.359375 56 49.78125 48.890625 
Q 56.203125 41.796875 56.203125 29.59375 
z
M 47.21875 32.234375 
Q 47.125 39.59375 43.09375 43.984375 
Q 39.0625 48.390625 32.421875 48.390625 
Q 24.90625 48.390625 20.390625 44.140625 
Q 15.875 39.890625 15.1875 32.171875 
z
" id="DejaVuSans-65"/>
     </defs>
     <g transform="translate(217.039297 285.786136)scale(0.11 -0.11)">
      <use xlink:href="#DejaVuSans-74"/>
      <use x="39.208984" xlink:href="#DejaVuSans-69"/>
      <use x="66.992188" xlink:href="#DejaVuSans-6d"/>
      <use x="164.404297" xlink:href="#DejaVuSans-65"/>
     </g>
    </g>
   </g>
   <g id="matplotlib.axis_2">
    <g id="ytick_1">
     <g id="line2d_8">
      <defs>
       <path d="M 0 0 
L -3.5 0 
" id="m92fe79c4a0" style="stroke:#000000;stroke-width:0.8;"/>
      </defs>
      <g>
       <use style="stroke:#000000;stroke-width:0.8;" x="37.504646" xlink:href="#m92fe79c4a0" y="254.572181"/>
      </g>
     </g>
     <g id="text_8">
      <!-- 0 -->
      <g transform="translate(25.414646 257.611556)scale(0.08 -0.08)">
       <use xlink:href="#DejaVuSans-30"/>
      </g>
     </g>
    </g>
    <g id="ytick_2">
     <g id="line2d_9">
      <g>
       <use style="stroke:#000000;stroke-width:0.8;" x="37.504646" xlink:href="#m92fe79c4a0" y="185.849117"/>
      </g>
     </g>
     <g id="text_9">
      <!-- 100 -->
      <g transform="translate(15.234646 188.888492)scale(0.08 -0.08)">
       <use xlink:href="#DejaVuSans-31"/>
       <use x="63.623047" xlink:href="#DejaVuSans-30"/>
       <use x="127.246094" xlink:href="#DejaVuSans-30"/>
      </g>
     </g>
    </g>
    <g id="ytick_3">
     <g id="line2d_10">
      <g>
       <use style="stroke:#000000;stroke-width:0.8;" x="37.504646" xlink:href="#m92fe79c4a0" y="117.126054"/>
      </g>
     </g>
     <g id="text_10">
      <!-- 200 -->
      <g transform="translate(15.234646 120.165429)scale(0.08 -0.08)">
       <use xlink:href="#DejaVuSans-32"/>
       <use x="63.623047" xlink:href="#DejaVuSans-30"/>
       <use x="127.246094" xlink:href="#DejaVuSans-30"/>
      </g>
     </g>
    </g>
    <g id="ytick_4">
     <g id="line2d_11">
      <g>
       <use style="stroke:#000000;stroke-width:0.8;" x="37.504646" xlink:href="#m92fe79c4a0" y="48.402991"/>
      </g>
     </g>
     <g id="text_11">
      <!-- 300 -->
      <defs>
       <path d="M 40.578125 39.3125 
Q 47.65625 37.796875 51.625 33 
Q 55.609375 28.21875 55.609375 21.1875 
Q 55.609375 10.40625 48.1875 4.484375 
Q 40.765625 -1.421875 27.09375 -1.421875 
Q 22.515625 -1.421875 17.65625 -0.515625 
Q 12.796875 0.390625 7.625 2.203125 
L 7.625 11.71875 
Q 11.71875 9.328125 16.59375 8.109375 
Q 21.484375 6.890625 26.8125 6.890625 
Q 36.078125 6.890625 40.9375 10.546875 
Q 45.796875 14.203125 45.796875 21.1875 
Q 45.796875 27.640625 41.28125 31.265625 
Q 36.765625 34.90625 28.71875 34.90625 
L 20.21875 34.90625 
L 20.21875 43.015625 
L 29.109375 43.015625 
Q 36.375 43.015625 40.234375 45.921875 
Q 44.09375 48.828125 44.09375 54.296875 
Q 44.09375 59.90625 40.109375 62.90625 
Q 36.140625 65.921875 28.71875 65.921875 
Q 24.65625 65.921875 20.015625 65.03125 
Q 15.375 64.15625 9.8125 62.3125 
L 9.8125 71.09375 
Q 15.4375 72.65625 20.34375 73.4375 
Q 25.25 74.21875 29.59375 74.21875 
Q 40.828125 74.21875 47.359375 69.109375 
Q 53.90625 64.015625 53.90625 55.328125 
Q 53.90625 49.265625 50.4375 45.09375 
Q 46.96875 40.921875 40.578125 39.3125 
z
" id="DejaVuSans-33"/>
      </defs>
      <g transform="translate(15.234646 51.442366)scale(0.08 -0.08)">
       <use xlink:href="#DejaVuSans-33"/>
       <use x="63.623047" xlink:href="#DejaVuSans-30"/>
       <use x="127.246094" xlink:href="#DejaVuSans-30"/>
      </g>
     </g>
    </g>
    <g id="text_12">
     <!-- mean population size -->
     <defs>
      <path d="M 34.28125 27.484375 
Q 23.390625 27.484375 19.1875 25 
Q 14.984375 22.515625 14.984375 16.5 
Q 14.984375 11.71875 18.140625 8.90625 
Q 21.296875 6.109375 26.703125 6.109375 
Q 34.1875 6.109375 38.703125 11.40625 
Q 43.21875 16.703125 43.21875 25.484375 
L 43.21875 27.484375 
z
M 52.203125 31.203125 
L 52.203125 0 
L 43.21875 0 
L 43.21875 8.296875 
Q 40.140625 3.328125 35.546875 0.953125 
Q 30.953125 -1.421875 24.3125 -1.421875 
Q 15.921875 -1.421875 10.953125 3.296875 
Q 6 8.015625 6 15.921875 
Q 6 25.140625 12.171875 29.828125 
Q 18.359375 34.515625 30.609375 34.515625 
L 43.21875 34.515625 
L 43.21875 35.40625 
Q 43.21875 41.609375 39.140625 45 
Q 35.0625 48.390625 27.6875 48.390625 
Q 23 48.390625 18.546875 47.265625 
Q 14.109375 46.140625 10.015625 43.890625 
L 10.015625 52.203125 
Q 14.9375 54.109375 19.578125 55.046875 
Q 24.21875 56 28.609375 56 
Q 40.484375 56 46.34375 49.84375 
Q 52.203125 43.703125 52.203125 31.203125 
z
" id="DejaVuSans-61"/>
      <path d="M 54.890625 33.015625 
L 54.890625 0 
L 45.90625 0 
L 45.90625 32.71875 
Q 45.90625 40.484375 42.875 44.328125 
Q 39.84375 48.1875 33.796875 48.1875 
Q 26.515625 48.1875 22.3125 43.546875 
Q 18.109375 38.921875 18.109375 30.90625 
L 18.109375 0 
L 9.078125 0 
L 9.078125 54.6875 
L 18.109375 54.6875 
L 18.109375 46.1875 
Q 21.34375 51.125 25.703125 53.5625 
Q 30.078125 56 35.796875 56 
Q 45.21875 56 50.046875 50.171875 
Q 54.890625 44.34375 54.890625 33.015625 
z
" id="DejaVuSans-6e"/>
      <path id="DejaVuSans-20"/>
      <path d="M 18.109375 8.203125 
L 18.109375 -20.796875 
L 9.078125 -20.796875 
L 9.078125 54.6875 
L 18.109375 54.6875 
L 18.109375 46.390625 
Q 20.953125 51.265625 25.265625 53.625 
Q 29.59375 56 35.59375 56 
Q 45.5625 56 51.78125 48.09375 
Q 58.015625 40.1875 58.015625 27.296875 
Q 58.015625 14.40625 51.78125 6.484375 
Q 45.5625 -1.421875 35.59375 -1.421875 
Q 29.59375 -1.421875 25.265625 0.953125 
Q 20.953125 3.328125 18.109375 8.203125 
z
M 48.6875 27.296875 
Q 48.6875 37.203125 44.609375 42.84375 
Q 40.53125 48.484375 33.40625 48.484375 
Q 26.265625 48.484375 22.1875 42.84375 
Q 18.109375 37.203125 18.109375 27.296875 
Q 18.109375 17.390625 22.1875 11.75 
Q 26.265625 6.109375 33.40625 6.109375 
Q 40.53125 6.109375 44.609375 11.75 
Q 48.6875 17.390625 48.6875 27.296875 
z
" id="DejaVuSans-70"/>
      <path d="M 30.609375 48.390625 
Q 23.390625 48.390625 19.1875 42.75 
Q 14.984375 37.109375 14.984375 27.296875 
Q 14.984375 17.484375 19.15625 11.84375 
Q 23.34375 6.203125 30.609375 6.203125 
Q 37.796875 6.203125 41.984375 11.859375 
Q 46.1875 17.53125 46.1875 27.296875 
Q 46.1875 37.015625 41.984375 42.703125 
Q 37.796875 48.390625 30.609375 48.390625 
z
M 30.609375 56 
Q 42.328125 56 49.015625 48.375 
Q 55.71875 40.765625 55.71875 27.296875 
Q 55.71875 13.875 49.015625 6.21875 
Q 42.328125 -1.421875 30.609375 -1.421875 
Q 18.84375 -1.421875 12.171875 6.21875 
Q 5.515625 13.875 5.515625 27.296875 
Q 5.515625 40.765625 12.171875 48.375 
Q 18.84375 56 30.609375 56 
z
" id="DejaVuSans-6f"/>
      <path d="M 8.5 21.578125 
L 8.5 54.6875 
L 17.484375 54.6875 
L 17.484375 21.921875 
Q 17.484375 14.15625 20.5 10.265625 
Q 23.53125 6.390625 29.59375 6.390625 
Q 36.859375 6.390625 41.078125 11.03125 
Q 45.3125 15.671875 45.3125 23.6875 
L 45.3125 54.6875 
L 54.296875 54.6875 
L 54.296875 0 
L 45.3125 0 
L 45.3125 8.40625 
Q 42.046875 3.421875 37.71875 1 
Q 33.40625 -1.421875 27.6875 -1.421875 
Q 18.265625 -1.421875 13.375 4.4375 
Q 8.5 10.296875 8.5 21.578125 
z
M 31.109375 56 
z
" id="DejaVuSans-75"/>
      <path d="M 9.421875 75.984375 
L 18.40625 75.984375 
L 18.40625 0 
L 9.421875 0 
z
" id="DejaVuSans-6c"/>
      <path d="M 44.28125 53.078125 
L 44.28125 44.578125 
Q 40.484375 46.53125 36.375 47.5 
Q 32.28125 48.484375 27.875 48.484375 
Q 21.1875 48.484375 17.84375 46.4375 
Q 14.5 44.390625 14.5 40.28125 
Q 14.5 37.15625 16.890625 35.375 
Q 19.28125 33.59375 26.515625 31.984375 
L 29.59375 31.296875 
Q 39.15625 29.25 43.1875 25.515625 
Q 47.21875 21.78125 47.21875 15.09375 
Q 47.21875 7.46875 41.1875 3.015625 
Q 35.15625 -1.421875 24.609375 -1.421875 
Q 20.21875 -1.421875 15.453125 -0.5625 
Q 10.6875 0.296875 5.421875 2 
L 5.421875 11.28125 
Q 10.40625 8.6875 15.234375 7.390625 
Q 20.0625 6.109375 24.8125 6.109375 
Q 31.15625 6.109375 34.5625 8.28125 
Q 37.984375 10.453125 37.984375 14.40625 
Q 37.984375 18.0625 35.515625 20.015625 
Q 33.0625 21.96875 24.703125 23.78125 
L 21.578125 24.515625 
Q 13.234375 26.265625 9.515625 29.90625 
Q 5.8125 33.546875 5.8125 39.890625 
Q 5.8125 47.609375 11.28125 51.796875 
Q 16.75 56 26.8125 56 
Q 31.78125 56 36.171875 55.265625 
Q 40.578125 54.546875 44.28125 53.078125 
z
" id="DejaVuSans-73"/>
      <path d="M 5.515625 54.6875 
L 48.1875 54.6875 
L 48.1875 46.484375 
L 14.40625 7.171875 
L 48.1875 7.171875 
L 48.1875 0 
L 4.296875 0 
L 4.296875 8.203125 
L 38.09375 47.515625 
L 5.515625 47.515625 
z
" id="DejaVuSans-7a"/>
     </defs>
     <g transform="translate(8.946989 189.785312)rotate(-90)scale(0.11 -0.11)">
      <use xlink:href="#DejaVuSans-6d"/>
      <use x="97.412109" xlink:href="#DejaVuSans-65"/>
      <use x="158.935547" xlink:href="#DejaVuSans-61"/>
      <use x="220.214844" xlink:href="#DejaVuSans-6e"/>
      <use x="283.59375" xlink:href="#DejaVuSans-20"/>
      <use x="315.380859" xlink:href="#DejaVuSans-70"/>
      <use x="378.857422" xlink:href="#DejaVuSans-6f"/>
      <use x="440.039062" xlink:href="#DejaVuSans-70"/>
      <use x="503.515625" xlink:href="#DejaVuSans-75"/>
      <use x="566.894531" xlink:href="#DejaVuSans-6c"/>
      <use x="594.677734" xlink:href="#DejaVuSans-61"/>
      <use x="655.957031" xlink:href="#DejaVuSans-74"/>
      <use x="695.166016" xlink:href="#DejaVuSans-69"/>
      <use x="722.949219" xlink:href="#DejaVuSans-6f"/>
      <use x="784.130859" xlink:href="#DejaVuSans-6e"/>
      <use x="847.509766" xlink:href="#DejaVuSans-20"/>
      <use x="879.296875" xlink:href="#DejaVuSans-73"/>
      <use x="931.396484" xlink:href="#DejaVuSans-69"/>
      <use x="959.179688" xlink:href="#DejaVuSans-7a"/>
      <use x="1011.669922" xlink:href="#DejaVuSans-65"/>
     </g>
    </g>
   </g>
   <g id="PolyCollection_2">
    <path clip-path="url(#pff9d6994cd)" d="M 37.504646 254.572181 
L 37.504646 254.572181 
L 38.272487 255.040759 
L 39.040329 256.14436 
L 39.80817 256.911512 
L 40.576011 257.869941 
L 41.343853 258.685354 
L 42.111694 258.445448 
L 42.879536 257.677209 
L 43.647377 257.341972 
L 44.415218 256.322044 
L 45.18306 255.527505 
L 45.950901 255.138115 
L 46.718743 254.684863 
L 47.486584 254.610397 
L 48.254426 253.475134 
L 49.022267 253.436704 
L 49.790108 252.193451 
L 50.55795 251.421214 
L 51.325791 249.986709 
L 52.093633 248.731707 
L 52.861474 247.927164 
L 53.629315 247.601656 
L 54.397157 247.074582 
L 55.164998 246.454212 
L 55.93284 245.6304 
L 56.700681 244.759496 
L 57.468523 243.745874 
L 58.236364 243.224842 
L 59.004205 242.167107 
L 59.772047 241.315698 
L 60.539888 240.653035 
L 61.30773 240.368759 
L 62.075571 240.012219 
L 62.843412 239.377975 
L 63.611254 238.344099 
L 64.379095 238.063411 
L 65.146937 237.01801 
L 65.914778 236.225308 
L 66.68262 235.314375 
L 67.450461 234.802353 
L 68.218302 233.947264 
L 68.986144 233.336279 
L 69.753985 232.229536 
L 70.521827 231.897377 
L 71.289668 231.514083 
L 72.057509 230.647141 
L 72.825351 230.652455 
L 73.593192 230.473079 
L 74.361034 229.007343 
L 75.128875 228.528022 
L 75.896717 227.003513 
L 76.664558 226.18571 
L 77.432399 225.194062 
L 78.200241 224.269163 
L 78.968082 223.219751 
L 79.735924 222.613405 
L 80.503765 221.977952 
L 81.271606 221.192374 
L 82.039448 220.783587 
L 82.807289 220.392746 
L 83.575131 219.894596 
L 84.342972 219.50151 
L 85.110814 218.942041 
L 85.878655 217.89461 
L 86.646496 217.127156 
L 87.414338 216.056252 
L 88.182179 214.747173 
L 88.950021 213.860193 
L 89.717862 212.635191 
L 90.485703 211.911243 
L 91.253545 211.067541 
L 92.021386 210.519782 
L 92.789228 209.859811 
L 93.557069 208.928028 
L 94.324911 208.532198 
L 95.092752 207.969193 
L 95.860593 207.362174 
L 96.628435 206.434802 
L 97.396276 206.277078 
L 98.164118 205.7881 
L 98.931959 205.403795 
L 99.6998 205.059697 
L 100.467642 204.441745 
L 101.235483 204.345904 
L 102.003325 204.075784 
L 102.771166 203.63341 
L 103.539008 203.588991 
L 104.306849 202.810168 
L 105.07469 202.397169 
L 105.842532 201.972232 
L 106.610373 201.256628 
L 107.378215 201.59149 
L 108.146056 200.708806 
L 108.913897 200.536997 
L 109.681739 200.253814 
L 110.44958 200.509179 
L 111.217422 200.026694 
L 111.985263 199.148957 
L 112.753105 198.806981 
L 113.520946 198.288699 
L 114.288787 197.558156 
L 115.056629 197.382164 
L 115.82447 196.972074 
L 116.592312 196.813828 
L 117.360153 196.360067 
L 118.127994 196.262129 
L 118.895836 196.154893 
L 119.663677 195.901854 
L 120.431519 196.017016 
L 121.19936 195.58363 
L 121.967202 195.640037 
L 122.735043 195.619934 
L 123.502884 195.39458 
L 124.270726 195.704174 
L 125.038567 195.365195 
L 125.806409 195.28744 
L 126.57425 194.818313 
L 127.342091 193.840672 
L 128.109933 193.630747 
L 128.877774 193.141366 
L 129.645616 193.283155 
L 130.413457 192.904862 
L 131.181299 192.64193 
L 131.94914 193.320985 
L 132.716981 192.674457 
L 133.484823 192.039591 
L 134.252664 192.437552 
L 135.020506 191.984568 
L 135.788347 191.754292 
L 136.556189 191.292242 
L 137.32403 190.171385 
L 138.091871 190.260773 
L 138.859713 189.487968 
L 139.627554 188.816494 
L 140.395396 188.220828 
L 141.163237 188.504425 
L 141.931078 187.62432 
L 142.69892 187.354373 
L 143.466761 186.284933 
L 144.234603 185.983034 
L 145.002444 185.624435 
L 145.770286 184.613929 
L 146.538127 184.33711 
L 147.305968 184.121379 
L 148.07381 184.212109 
L 148.841651 183.638169 
L 149.609493 183.688033 
L 150.377334 183.621498 
L 151.145175 183.415451 
L 151.913017 183.034847 
L 152.680858 182.949038 
L 153.4487 182.8669 
L 154.216541 182.795561 
L 154.984383 182.927283 
L 155.752224 183.190553 
L 156.520065 182.575838 
L 157.287907 182.373809 
L 158.055748 182.173001 
L 158.82359 182.097659 
L 159.591431 181.780997 
L 160.359272 181.574677 
L 161.127114 181.094992 
L 161.894955 180.462208 
L 162.662797 180.502102 
L 163.430638 179.938796 
L 164.19848 180.047133 
L 164.966321 179.8336 
L 165.734162 179.61653 
L 166.502004 179.025057 
L 167.269845 178.795203 
L 168.037687 178.443619 
L 168.805528 177.877673 
L 169.573369 177.063285 
L 170.341211 176.528401 
L 171.109052 175.9021 
L 171.876894 175.366182 
L 172.644735 174.890843 
L 173.412577 174.880019 
L 174.180418 174.347664 
L 174.948259 174.63495 
L 175.716101 173.69609 
L 176.483942 173.704526 
L 177.251784 173.964512 
L 178.019625 173.89524 
L 178.787466 173.583135 
L 179.555308 173.016947 
L 180.323149 173.564022 
L 181.090991 172.985837 
L 181.858832 172.165098 
L 182.626674 172.366678 
L 183.394515 171.637754 
L 184.162356 171.212943 
L 184.930198 170.918634 
L 185.698039 170.15031 
L 186.465881 169.850991 
L 187.233722 169.436759 
L 188.001563 169.459666 
L 188.769405 168.681487 
L 189.537246 168.280899 
L 190.305088 167.67352 
L 191.072929 167.478365 
L 191.840771 167.14428 
L 192.608612 167.289368 
L 193.376453 167.22424 
L 194.144295 166.956376 
L 194.912136 167.297408 
L 195.679978 167.254587 
L 196.447819 166.970151 
L 197.21566 166.648058 
L 197.983502 166.727796 
L 198.751343 166.615136 
L 199.519185 167.027233 
L 200.287026 166.862139 
L 201.054868 167.027862 
L 201.822709 166.419917 
L 202.59055 166.393056 
L 203.358392 166.285226 
L 204.126233 166.155458 
L 204.894075 165.841924 
L 205.661916 165.665777 
L 206.429757 165.682582 
L 207.197599 166.175224 
L 207.96544 166.163955 
L 208.733282 166.174879 
L 209.501123 165.862845 
L 210.268965 165.351077 
L 211.036806 165.606801 
L 211.804647 165.806617 
L 212.572489 165.840011 
L 213.34033 166.076971 
L 214.108172 165.754333 
L 214.876013 165.389036 
L 215.643854 165.125979 
L 216.411696 165.103209 
L 217.179537 165.474925 
L 217.947379 164.522176 
L 218.71522 164.681066 
L 219.483062 164.244112 
L 220.250903 163.957646 
L 221.018744 163.6556 
L 221.786586 163.472885 
L 222.554427 163.028467 
L 223.322269 162.888226 
L 224.09011 162.8114 
L 224.857951 162.807604 
L 225.625793 162.821924 
L 226.393634 162.734372 
L 227.161476 162.506927 
L 227.929317 162.549757 
L 228.697159 162.15126 
L 229.465 162.701915 
L 230.232841 162.751393 
L 231.000683 163.282662 
L 231.768524 163.08209 
L 232.536366 163.049627 
L 233.304207 162.845886 
L 234.072049 163.4012 
L 234.83989 163.501561 
L 235.607731 163.360887 
L 236.375573 162.709021 
L 237.143414 162.198027 
L 237.911256 161.797044 
L 238.679097 161.468874 
L 239.446938 161.509415 
L 240.21478 160.839732 
L 240.982621 160.576257 
L 241.750463 160.324821 
L 242.518304 159.889121 
L 243.286146 159.659975 
L 244.053987 159.295138 
L 244.821828 159.208292 
L 245.58967 159.075372 
L 246.357511 158.391711 
L 247.125353 158.50787 
L 247.893194 157.883644 
L 248.661035 157.769501 
L 249.428877 157.153298 
L 250.196718 157.264503 
L 250.96456 157.060609 
L 251.732401 157.041019 
L 252.500243 156.659406 
L 253.268084 156.787156 
L 254.035925 156.549182 
L 254.803767 156.514045 
L 255.571608 156.263824 
L 256.33945 157.064383 
L 257.107291 156.677881 
L 257.875132 156.428037 
L 258.642974 156.727513 
L 259.410815 156.584857 
L 260.178657 156.539994 
L 260.946498 156.243014 
L 261.71434 155.373636 
L 262.482181 155.296489 
L 263.250022 154.330612 
L 264.017864 154.129241 
L 264.785705 154.161291 
L 265.553547 152.821318 
L 266.321388 152.980351 
L 267.089229 152.71791 
L 267.857071 152.606314 
L 268.624912 152.957543 
L 269.392754 152.369723 
L 270.160595 152.810213 
L 270.928437 152.401316 
L 271.696278 152.646335 
L 272.464119 152.608597 
L 273.231961 152.979158 
L 273.999802 153.180327 
L 274.767644 153.038033 
L 275.535485 152.575212 
L 276.303326 152.652994 
L 277.071168 152.89655 
L 277.839009 153.209479 
L 278.606851 152.475023 
L 279.374692 152.991335 
L 280.142534 152.892619 
L 280.910375 152.655612 
L 281.678216 152.744185 
L 282.446058 152.487633 
L 283.213899 152.65977 
L 283.981741 151.912782 
L 284.749582 151.962893 
L 285.517423 151.198128 
L 286.285265 151.013892 
L 287.053106 150.81478 
L 287.820948 150.233803 
L 288.588789 149.708535 
L 289.356631 149.957609 
L 290.124472 149.145326 
L 290.892313 149.47295 
L 291.660155 149.718828 
L 292.427996 149.541027 
L 293.195838 148.695991 
L 293.963679 148.664638 
L 294.73152 148.371674 
L 295.499362 148.618174 
L 296.267203 148.418472 
L 297.035045 147.983973 
L 297.802886 148.510052 
L 298.570728 148.355959 
L 299.338569 148.247453 
L 300.10641 147.933082 
L 300.874252 147.143479 
L 301.642093 147.47581 
L 302.409935 147.19193 
L 303.177776 147.456135 
L 303.945617 146.765259 
L 304.713459 147.110312 
L 305.4813 147.145396 
L 306.249142 147.641243 
L 307.016983 148.093451 
L 307.784825 147.343398 
L 308.552666 148.092453 
L 309.320507 148.007996 
L 310.088349 147.986266 
L 310.85619 148.824165 
L 311.624032 148.335091 
L 312.391873 148.641752 
L 313.159714 148.938686 
L 313.927556 149.082707 
L 314.695397 149.063398 
L 315.463239 149.220311 
L 316.23108 148.629429 
L 316.998922 148.953306 
L 317.766763 149.053537 
L 318.534604 148.666009 
L 319.302446 148.577936 
L 320.070287 148.638396 
L 320.838129 148.229778 
L 321.60597 148.575258 
L 322.373811 148.256482 
L 323.141653 147.932709 
L 323.909494 148.264546 
L 324.677336 148.546546 
L 325.445177 147.90988 
L 326.213019 148.506795 
L 326.98086 148.319243 
L 327.748701 148.283175 
L 328.516543 148.161105 
L 329.284384 147.793751 
L 330.052226 147.656164 
L 330.820067 146.768904 
L 331.587909 147.152646 
L 332.35575 146.922089 
L 333.123591 146.638441 
L 333.891433 146.835598 
L 334.659274 146.514093 
L 335.427116 147.010805 
L 336.194957 146.336063 
L 336.962798 146.686936 
L 337.73064 146.07933 
L 338.498481 145.603322 
L 339.266323 145.972853 
L 340.034164 145.399868 
L 340.802006 144.727796 
L 341.569847 144.394134 
L 342.337688 143.856079 
L 343.10553 143.670826 
L 343.873371 142.689395 
L 344.641213 142.802152 
L 345.409054 142.261276 
L 346.176895 141.833635 
L 346.944737 141.764961 
L 347.712578 141.867605 
L 348.48042 141.866293 
L 349.248261 141.638337 
L 350.016103 141.371662 
L 350.783944 141.442591 
L 351.551785 140.980703 
L 352.319627 141.017284 
L 353.087468 140.975759 
L 353.85531 140.929935 
L 354.623151 140.963646 
L 355.390992 141.260318 
L 356.158834 140.375932 
L 356.926675 140.526478 
L 357.694517 141.095488 
L 358.462358 140.956344 
L 359.2302 141.338675 
L 359.998041 141.15757 
L 360.765882 141.574687 
L 361.533724 141.785399 
L 362.301565 141.223191 
L 363.069407 141.973271 
L 363.837248 141.323988 
L 364.605089 142.02585 
L 365.372931 141.194743 
L 366.140772 141.728378 
L 366.908614 141.777505 
L 367.676455 141.714472 
L 368.444297 141.968583 
L 369.212138 141.844777 
L 369.979979 141.656848 
L 370.747821 141.219696 
L 371.515662 140.599625 
L 372.283504 140.737729 
L 373.051345 140.993397 
L 373.819186 140.78387 
L 374.587028 140.47693 
L 375.354869 140.596146 
L 376.122711 140.65815 
L 376.890552 140.047308 
L 377.658394 139.998708 
L 378.426235 140.328441 
L 379.194076 140.241987 
L 379.961918 140.435865 
L 380.729759 140.105996 
L 381.497601 140.020894 
L 382.265442 140.116212 
L 383.033283 139.977387 
L 383.801125 140.000536 
L 384.568966 139.983991 
L 385.336808 139.714168 
L 386.104649 139.850181 
L 386.872491 139.595918 
L 387.640332 139.693478 
L 388.408173 139.439312 
L 389.176015 139.610459 
L 389.943856 139.835039 
L 390.711698 139.833909 
L 391.479539 139.898912 
L 392.24738 139.990649 
L 393.015222 139.421965 
L 393.783063 139.54694 
L 394.550905 139.047914 
L 395.318746 138.995666 
L 396.086588 138.765237 
L 396.854429 138.581337 
L 397.62227 138.957913 
L 398.390112 138.536269 
L 399.157953 138.464699 
L 399.925795 138.633528 
L 400.693636 139.078805 
L 401.461477 138.349259 
L 402.229319 138.590095 
L 402.99716 138.332482 
L 403.765002 138.643333 
L 404.532843 138.168579 
L 405.300685 138.017915 
L 406.068526 138.193177 
L 406.836367 138.128421 
L 407.604209 138.012979 
L 408.37205 138.151689 
L 409.139892 137.605239 
L 409.907733 137.170323 
L 410.675574 137.18281 
L 411.443416 136.6739 
L 412.211257 136.67368 
L 412.979099 136.160588 
L 413.74694 135.23264 
L 414.514782 135.179947 
L 415.282623 134.905207 
L 416.050464 134.330686 
L 416.818306 133.789479 
L 417.586147 133.632266 
L 418.353989 133.576547 
L 419.12183 133.144886 
L 419.889671 132.802723 
L 420.657513 132.016918 
L 421.425354 131.74863 
L 421.425354 3.239886 
L 421.425354 3.239886 
L 420.657513 3.040321 
L 419.889671 2.941746 
L 419.12183 2.91571 
L 418.353989 2.868898 
L 417.586147 3.280495 
L 416.818306 2.834646 
L 416.050464 3.764112 
L 415.282623 4.605287 
L 414.514782 5.759986 
L 413.74694 5.198742 
L 412.979099 6.208785 
L 412.211257 6.163009 
L 411.443416 6.16279 
L 410.675574 6.780937 
L 409.907733 7.095806 
L 409.139892 7.19693 
L 408.37205 7.695071 
L 407.604209 8.177396 
L 406.836367 7.951998 
L 406.068526 7.791029 
L 405.300685 8.268672 
L 404.532843 8.406645 
L 403.765002 8.069338 
L 402.99716 8.201508 
L 402.229319 8.369979 
L 401.461477 7.951073 
L 400.693636 8.582244 
L 399.925795 8.491481 
L 399.157953 8.522864 
L 398.390112 8.629973 
L 397.62227 9.142963 
L 396.854429 9.409582 
L 396.086588 10.462698 
L 395.318746 10.342226 
L 394.550905 11.087165 
L 393.783063 10.560649 
L 393.015222 11.125452 
L 392.24738 10.941617 
L 391.479539 11.129566 
L 390.711698 11.428229 
L 389.943856 11.220929 
L 389.176015 10.868235 
L 388.408173 10.489598 
L 387.640332 10.386623 
L 386.872491 10.690352 
L 386.104649 10.436089 
L 385.336808 10.11853 
L 384.568966 9.958664 
L 383.801125 10.093309 
L 383.033283 9.181825 
L 382.265442 10.101334 
L 381.497601 9.646868 
L 380.729759 9.231896 
L 379.961918 9.14943 
L 379.194076 8.834757 
L 378.426235 8.899494 
L 377.658394 9.146758 
L 376.890552 9.414285 
L 376.122711 9.06459 
L 375.354869 8.673023 
L 374.587028 9.2733 
L 373.819186 9.419932 
L 373.051345 9.37534 
L 372.283504 9.644753 
L 371.515662 8.95818 
L 370.747821 9.272742 
L 369.979979 9.440354 
L 369.212138 8.840087 
L 368.444297 9.376022 
L 367.676455 9.039114 
L 366.908614 8.701189 
L 366.140772 8.035596 
L 365.372931 8.527997 
L 364.605089 8.645268 
L 363.837248 9.250919 
L 363.069407 9.220143 
L 362.301565 9.200525 
L 361.533724 9.284314 
L 360.765882 9.659961 
L 359.998041 9.224912 
L 359.2302 10.033419 
L 358.462358 10.017156 
L 357.694517 10.963837 
L 356.926675 11.546591 
L 356.158834 12.260666 
L 355.390992 12.654529 
L 354.623151 12.662564 
L 353.85531 13.012402 
L 353.087468 13.186492 
L 352.319627 13.254923 
L 351.551785 13.318994 
L 350.783944 12.760893 
L 350.016103 13.175437 
L 349.248261 13.458547 
L 348.48042 13.752886 
L 347.712578 13.078088 
L 346.944737 14.087877 
L 346.176895 14.211627 
L 345.409054 14.127602 
L 344.641213 14.287701 
L 343.873371 14.689095 
L 343.10553 14.972168 
L 342.337688 15.364188 
L 341.569847 14.839879 
L 340.802006 15.248425 
L 340.034164 15.387286 
L 339.266323 15.17166 
L 338.498481 15.651149 
L 337.73064 15.944838 
L 336.962798 16.203144 
L 336.194957 15.770574 
L 335.427116 15.728083 
L 334.659274 15.894925 
L 333.891433 16.329374 
L 333.123591 15.756832 
L 332.35575 15.555652 
L 331.587909 15.627476 
L 330.820067 15.77756 
L 330.052226 14.931534 
L 329.284384 14.601522 
L 328.516543 14.797698 
L 327.748701 14.840563 
L 326.98086 14.96943 
L 326.213019 14.891836 
L 325.445177 14.897732 
L 324.677336 14.274811 
L 323.909494 14.804214 
L 323.141653 14.847413 
L 322.373811 14.757299 
L 321.60597 14.644692 
L 320.838129 14.797747 
L 320.070287 14.540321 
L 319.302446 15.054352 
L 318.534604 15.186193 
L 317.766763 15.156025 
L 316.998922 15.105065 
L 316.23108 16.198641 
L 315.463239 16.157543 
L 314.695397 16.438158 
L 313.927556 16.020255 
L 313.159714 16.631593 
L 312.391873 17.684481 
L 311.624032 18.169821 
L 310.85619 18.739083 
L 310.088349 19.920597 
L 309.320507 20.393674 
L 308.552666 21.60121 
L 307.784825 22.034139 
L 307.016983 23.070885 
L 306.249142 24.279047 
L 305.4813 24.843617 
L 304.713459 25.62091 
L 303.945617 27.106766 
L 303.177776 27.226822 
L 302.409935 28.563107 
L 301.642093 29.048925 
L 300.874252 29.60117 
L 300.10641 30.447176 
L 299.338569 31.19114 
L 298.570728 31.934801 
L 297.802886 31.904409 
L 297.035045 32.251808 
L 296.267203 32.916878 
L 295.499362 34.421508 
L 294.73152 34.819198 
L 293.963679 35.722015 
L 293.195838 36.405383 
L 292.427996 37.292167 
L 291.660155 37.994022 
L 290.892313 38.308623 
L 290.124472 38.718714 
L 289.356631 39.060979 
L 288.588789 39.804859 
L 287.820948 40.22797 
L 287.053106 40.073076 
L 286.285265 40.712385 
L 285.517423 41.325337 
L 284.749582 41.742608 
L 283.981741 41.957654 
L 283.213899 42.104066 
L 282.446058 43.155859 
L 281.678216 43.751472 
L 280.910375 43.771322 
L 280.142534 44.317758 
L 279.374692 45.029975 
L 278.606851 45.133949 
L 277.839009 45.815187 
L 277.071168 46.114371 
L 276.303326 46.838989 
L 275.535485 46.999239 
L 274.767644 47.086202 
L 273.999802 46.682761 
L 273.231961 47.818563 
L 272.464119 47.79053 
L 271.696278 48.659937 
L 270.928437 48.313938 
L 270.160595 48.248656 
L 269.392754 48.689146 
L 268.624912 49.846891 
L 267.857071 49.950718 
L 267.089229 50.292693 
L 266.321388 50.538803 
L 265.553547 50.615369 
L 264.785705 50.594878 
L 264.017864 51.231691 
L 263.250022 51.77253 
L 262.482181 52.510985 
L 261.71434 52.681241 
L 260.946498 52.760241 
L 260.178657 52.834366 
L 259.410815 53.462988 
L 258.642974 53.100419 
L 257.875132 53.070024 
L 257.107291 53.20503 
L 256.33945 53.24461 
L 255.571608 53.069302 
L 254.803767 53.91865 
L 254.035925 54.35083 
L 253.268084 54.428981 
L 252.500243 55.106517 
L 251.732401 55.467113 
L 250.96456 55.20012 
L 250.196718 55.36733 
L 249.428877 55.368578 
L 248.661035 54.862331 
L 247.893194 55.036826 
L 247.125353 54.811193 
L 246.357511 54.65246 
L 245.58967 55.233303 
L 244.821828 54.88047 
L 244.053987 54.93107 
L 243.286146 55.143506 
L 242.518304 55.134274 
L 241.750463 54.368704 
L 240.982621 54.653307 
L 240.21478 54.664724 
L 239.446938 54.448614 
L 238.679097 54.983961 
L 237.911256 54.958172 
L 237.143414 54.488466 
L 236.375573 55.228232 
L 235.607731 55.332319 
L 234.83989 56.195003 
L 234.072049 56.419065 
L 233.304207 55.943534 
L 232.536366 56.743149 
L 231.768524 56.628218 
L 231.000683 56.936196 
L 230.232841 58.058484 
L 229.465 58.286642 
L 228.697159 58.782318 
L 227.929317 58.741182 
L 227.161476 59.704901 
L 226.393634 60.632003 
L 225.625793 61.327894 
L 224.857951 61.782042 
L 224.09011 61.943181 
L 223.322269 63.13086 
L 222.554427 62.550791 
L 221.786586 62.175096 
L 221.018744 62.363486 
L 220.250903 62.92735 
L 219.483062 63.108201 
L 218.71522 63.702093 
L 217.947379 63.421155 
L 217.179537 64.200227 
L 216.411696 64.269562 
L 215.643854 63.834453 
L 214.876013 64.629732 
L 214.108172 64.869198 
L 213.34033 65.178812 
L 212.572489 64.989689 
L 211.804647 64.940615 
L 211.036806 65.16792 
L 210.268965 65.574835 
L 209.501123 65.915233 
L 208.733282 65.300817 
L 207.96544 65.765314 
L 207.197599 65.369196 
L 206.429757 64.652312 
L 205.661916 64.682861 
L 204.894075 65.015265 
L 204.126233 64.825432 
L 203.358392 64.585708 
L 202.59055 64.546601 
L 201.822709 64.437272 
L 201.054868 64.200432 
L 200.287026 64.269943 
L 199.519185 63.403873 
L 198.751343 63.747247 
L 197.983502 63.002335 
L 197.21566 62.98586 
L 196.447819 63.062361 
L 195.679978 62.832903 
L 194.912136 62.996252 
L 194.144295 63.158604 
L 193.376453 63.632949 
L 192.608612 64.048882 
L 191.840771 64.015291 
L 191.072929 64.395926 
L 190.305088 64.035835 
L 189.537246 64.308111 
L 188.769405 64.457308 
L 188.001563 65.342227 
L 187.233722 64.677903 
L 186.465881 65.308262 
L 185.698039 65.201367 
L 184.930198 65.766271 
L 184.162356 65.925534 
L 183.394515 65.665659 
L 182.626674 65.706433 
L 181.858832 66.210395 
L 181.090991 66.393012 
L 180.323149 67.189288 
L 179.555308 67.461471 
L 178.787466 67.664981 
L 178.019625 67.861427 
L 177.251784 68.396918 
L 176.483942 69.124221 
L 175.716101 69.077678 
L 174.948259 69.595748 
L 174.180418 69.979245 
L 173.412577 70.354034 
L 172.644735 70.3707 
L 171.876894 71.008674 
L 171.109052 71.957175 
L 170.341211 72.265508 
L 169.573369 72.101728 
L 168.805528 72.648056 
L 168.037687 72.618151 
L 167.269845 73.132478 
L 166.502004 74.015937 
L 165.734162 73.589399 
L 164.966321 73.908369 
L 164.19848 74.313343 
L 163.430638 74.930231 
L 162.662797 76.030023 
L 161.894955 76.001194 
L 161.127114 76.385512 
L 160.359272 76.469356 
L 159.591431 76.620396 
L 158.82359 76.990965 
L 158.055748 77.218004 
L 157.287907 77.745661 
L 156.520065 77.914736 
L 155.752224 77.533679 
L 154.984383 77.714481 
L 154.216541 78.16233 
L 153.4487 78.173459 
L 152.680858 78.531148 
L 151.913017 78.706487 
L 151.145175 78.655754 
L 150.377334 79.150682 
L 149.609493 79.084146 
L 148.841651 79.725029 
L 148.07381 80.003255 
L 147.305968 80.162708 
L 146.538127 80.812888 
L 145.770286 80.948407 
L 145.002444 81.628488 
L 144.234603 81.668484 
L 143.466761 81.449051 
L 142.69892 81.932753 
L 141.931078 81.800252 
L 141.163237 82.06095 
L 140.395396 81.973442 
L 139.627554 82.257431 
L 138.859713 82.699271 
L 138.091871 82.792377 
L 137.32403 83.087934 
L 136.556189 83.561452 
L 135.788347 83.910334 
L 135.020506 84.009929 
L 134.252664 83.749369 
L 133.484823 83.927417 
L 132.716981 84.075994 
L 131.94914 84.295377 
L 131.181299 85.153111 
L 130.413457 84.381628 
L 129.645616 84.401929 
L 128.877774 85.217205 
L 128.109933 85.098928 
L 127.342091 85.727424 
L 126.57425 85.93182 
L 125.806409 85.655117 
L 125.038567 86.415784 
L 124.270726 86.915226 
L 123.502884 87.444735 
L 122.735043 87.301848 
L 121.967202 87.817785 
L 121.19936 88.025382 
L 120.431519 88.237994 
L 119.663677 88.298176 
L 118.895836 88.814836 
L 118.127994 89.862147 
L 117.360153 90.616376 
L 116.592312 91.083503 
L 115.82447 92.162273 
L 115.056629 92.356945 
L 114.288787 92.826951 
L 113.520946 93.855718 
L 112.753105 94.09339 
L 111.985263 94.754771 
L 111.217422 95.169027 
L 110.44958 95.882323 
L 109.681739 96.550027 
L 108.913897 96.665438 
L 108.146056 96.741031 
L 107.378215 97.466467 
L 106.610373 97.760095 
L 105.842532 97.896657 
L 105.07469 98.282652 
L 104.306849 98.51565 
L 103.539008 98.643972 
L 102.771166 99.451719 
L 102.003325 99.682831 
L 101.235483 99.673859 
L 100.467642 100.141546 
L 99.6998 101.159204 
L 98.931959 101.557315 
L 98.164118 101.612837 
L 97.396276 102.14096 
L 96.628435 102.931615 
L 95.860593 103.461171 
L 95.092752 103.623851 
L 94.324911 104.545264 
L 93.557069 104.946621 
L 92.789228 105.870362 
L 92.021386 106.845999 
L 91.253545 107.219129 
L 90.485703 108.327162 
L 89.717862 109.046399 
L 88.950021 109.525728 
L 88.182179 110.480526 
L 87.414338 111.219395 
L 86.646496 111.687887 
L 85.878655 111.978769 
L 85.110814 113.034264 
L 84.342972 113.203259 
L 83.575131 113.827274 
L 82.807289 113.796441 
L 82.039448 114.615126 
L 81.271606 115.498332 
L 80.503765 116.059726 
L 79.735924 117.389754 
L 78.968082 118.020422 
L 78.200241 118.180537 
L 77.432399 119.11116 
L 76.664558 120.263672 
L 75.896717 120.944031 
L 75.128875 122.113467 
L 74.361034 122.884905 
L 73.593192 123.989412 
L 72.825351 124.675946 
L 72.057509 125.450958 
L 71.289668 126.095924 
L 70.521827 127.018368 
L 69.753985 127.772034 
L 68.986144 128.493324 
L 68.218302 128.775739 
L 67.450461 129.432557 
L 66.68262 129.923892 
L 65.914778 130.469888 
L 65.146937 131.65641 
L 64.379095 132.782658 
L 63.611254 134.137579 
L 62.843412 135.50901 
L 62.075571 137.939815 
L 61.30773 139.205139 
L 60.539888 141.120001 
L 59.772047 143.233749 
L 59.004205 144.815137 
L 58.236364 146.602537 
L 57.468523 148.074474 
L 56.700681 149.177522 
L 55.93284 150.973073 
L 55.164998 153.942774 
L 54.397157 157.198385 
L 53.629315 160.753461 
L 52.861474 165.321035 
L 52.093633 169.75319 
L 51.325791 174.28467 
L 50.55795 179.640003 
L 49.790108 184.57178 
L 49.022267 190.035899 
L 48.254426 195.082975 
L 47.486584 200.40768 
L 46.718743 206.31212 
L 45.950901 211.576628 
L 45.18306 217.083676 
L 44.415218 221.539579 
L 43.647377 225.673881 
L 42.879536 230.355428 
L 42.111694 234.205379 
L 41.343853 238.404982 
L 40.576011 243.275056 
L 39.80817 247.490959 
L 39.040329 250.897076 
L 38.272487 253.67752 
L 37.504646 254.572181 
z
" style="fill:#ff0000;fill-opacity:0.3;"/>
   </g>
   <g id="line2d_12">
    <path clip-path="url(#pff9d6994cd)" d="M 37.504646 254.572181 
L 38.272487 254.359139 
L 39.040329 253.520718 
L 39.80817 252.201235 
L 40.576011 250.572498 
L 42.111694 246.325413 
L 43.647377 241.507926 
L 45.18306 236.305591 
L 50.55795 215.530609 
L 52.093633 209.242448 
L 53.629315 204.177558 
L 55.93284 198.301737 
L 56.700681 196.968509 
L 58.236364 194.91369 
L 59.772047 192.274724 
L 60.539888 190.886518 
L 61.30773 189.786949 
L 62.075571 188.976017 
L 62.843412 187.443493 
L 63.611254 186.240839 
L 64.379095 185.423034 
L 65.914778 183.347598 
L 66.68262 182.619134 
L 67.450461 182.117455 
L 68.218302 181.361501 
L 68.986144 180.914802 
L 69.753985 180.000785 
L 71.289668 178.805004 
L 72.057509 178.04905 
L 73.593192 177.231245 
L 74.361034 175.946124 
L 75.128875 175.320744 
L 75.896717 173.973772 
L 76.664558 173.224691 
L 78.200241 171.22485 
L 79.735924 170.001579 
L 80.503765 169.018839 
L 82.807289 167.094594 
L 83.575131 166.860935 
L 84.342972 166.352384 
L 85.110814 165.988152 
L 85.878655 164.936689 
L 86.646496 164.407522 
L 87.414338 163.637823 
L 88.950021 161.692961 
L 91.253545 159.143335 
L 92.021386 158.682891 
L 93.557069 156.937325 
L 94.324911 156.538731 
L 95.092752 155.796522 
L 95.860593 155.411673 
L 96.628435 154.683208 
L 98.164118 153.700468 
L 98.931959 153.480555 
L 99.6998 153.10945 
L 100.467642 152.291646 
L 101.235483 152.009881 
L 102.003325 151.879307 
L 103.539008 151.116481 
L 104.306849 150.662909 
L 105.842532 149.934445 
L 106.610373 149.508362 
L 107.378215 149.528979 
L 108.146056 148.724919 
L 109.681739 148.40192 
L 110.44958 148.195751 
L 112.753105 146.450185 
L 113.520946 146.072208 
L 114.288787 145.192553 
L 115.82447 144.567173 
L 116.592312 143.948666 
L 119.663677 142.100015 
L 120.431519 142.127505 
L 121.19936 141.804506 
L 121.967202 141.728911 
L 122.735043 141.460891 
L 124.270726 141.3097 
L 125.806409 140.471279 
L 126.57425 140.375067 
L 127.342091 139.784048 
L 128.109933 139.364837 
L 128.877774 139.179285 
L 129.645616 138.842542 
L 130.413457 138.643245 
L 131.181299 138.897521 
L 131.94914 138.808181 
L 133.484823 137.983504 
L 134.252664 138.093461 
L 135.788347 137.832313 
L 136.556189 137.426847 
L 137.32403 136.62966 
L 138.091871 136.526575 
L 139.627554 135.536963 
L 140.395396 135.097135 
L 141.163237 135.282688 
L 141.931078 134.712286 
L 142.69892 134.643563 
L 143.466761 133.866992 
L 144.234603 133.825759 
L 145.002444 133.626462 
L 145.770286 132.781168 
L 146.538127 132.574999 
L 147.305968 132.142044 
L 148.07381 132.107682 
L 148.841651 131.681599 
L 149.609493 131.38609 
L 150.377334 131.38609 
L 151.145175 131.035602 
L 154.984383 130.320882 
L 155.752224 130.362116 
L 157.287907 130.059735 
L 158.055748 129.695502 
L 158.82359 129.544312 
L 159.591431 129.200696 
L 161.127114 128.740252 
L 161.894955 128.231701 
L 162.662797 128.266063 
L 163.430638 127.434514 
L 166.502004 126.520497 
L 168.037687 125.530885 
L 168.805528 125.262865 
L 169.573369 124.582507 
L 170.341211 124.396954 
L 171.109052 123.929637 
L 171.876894 123.187428 
L 172.644735 122.630772 
L 173.412577 122.617027 
L 174.180418 122.163455 
L 174.948259 122.115349 
L 175.716101 121.386884 
L 176.483942 121.414373 
L 178.787466 120.624058 
L 179.555308 120.239209 
L 180.323149 120.376655 
L 181.090991 119.689424 
L 181.858832 119.187746 
L 182.626674 119.036555 
L 183.394515 118.651706 
L 184.162356 118.569239 
L 184.930198 118.342452 
L 185.698039 117.675839 
L 186.465881 117.579626 
L 187.233722 117.057331 
L 188.001563 117.400946 
L 188.769405 116.569397 
L 189.537246 116.294505 
L 190.305088 115.854678 
L 191.072929 115.937145 
L 191.840771 115.579785 
L 192.608612 115.669125 
L 193.376453 115.428595 
L 194.144295 115.05749 
L 194.912136 115.14683 
L 197.21566 114.816959 
L 197.983502 114.865065 
L 198.751343 115.181192 
L 199.519185 115.215553 
L 200.287026 115.566041 
L 201.054868 115.614147 
L 201.822709 115.428595 
L 204.126233 115.490445 
L 204.894075 115.428595 
L 205.661916 115.174319 
L 206.429757 115.167447 
L 207.197599 115.77221 
L 207.96544 115.964634 
L 208.733282 115.737848 
L 209.501123 115.889039 
L 210.268965 115.462956 
L 211.804647 115.373616 
L 212.572489 115.41485 
L 213.34033 115.627891 
L 214.876013 115.009384 
L 215.643854 114.480216 
L 217.179537 114.837576 
L 217.947379 113.971666 
L 218.71522 114.191579 
L 219.483062 113.676156 
L 220.250903 113.442498 
L 221.018744 113.009543 
L 221.786586 112.82399 
L 222.554427 112.789629 
L 223.322269 113.009543 
L 224.09011 112.377291 
L 224.857951 112.294823 
L 225.625793 112.074909 
L 226.393634 111.683188 
L 227.929317 110.645469 
L 228.697159 110.466789 
L 229.465 110.494279 
L 230.232841 110.404939 
L 231.768524 109.855154 
L 232.536366 109.896388 
L 233.304207 109.39471 
L 234.072049 109.910133 
L 234.83989 109.848282 
L 237.143414 108.343247 
L 237.911256 108.377608 
L 239.446938 107.979014 
L 241.750463 107.346762 
L 242.518304 107.511698 
L 243.286146 107.401741 
L 244.053987 107.113104 
L 244.821828 107.044381 
L 245.58967 107.154338 
L 246.357511 106.522086 
L 247.125353 106.659532 
L 248.661035 106.315916 
L 250.96456 106.130364 
L 251.732401 106.254066 
L 253.268084 105.608069 
L 254.803767 105.216347 
L 255.571608 104.666563 
L 256.33945 105.154497 
L 257.875132 104.749031 
L 259.410815 105.023923 
L 260.178657 104.68718 
L 260.946498 104.501627 
L 261.71434 104.027438 
L 262.482181 103.903737 
L 263.250022 103.051571 
L 264.785705 102.378085 
L 265.553547 101.718343 
L 266.321388 101.759577 
L 267.857071 101.278516 
L 268.624912 101.402217 
L 269.392754 100.529434 
L 270.160595 100.529434 
L 270.928437 100.357627 
L 271.696278 100.653136 
L 272.464119 100.199564 
L 273.231961 100.398861 
L 273.999802 99.931544 
L 274.767644 100.062118 
L 275.535485 99.787225 
L 276.303326 99.745991 
L 277.071168 99.505461 
L 277.839009 99.512333 
L 278.606851 98.804486 
L 279.374692 99.010655 
L 280.910375 98.213467 
L 281.678216 98.247829 
L 283.981741 96.935218 
L 284.749582 96.852751 
L 285.517423 96.261732 
L 287.053106 95.443928 
L 287.820948 95.230886 
L 288.588789 94.756697 
L 289.356631 94.509294 
L 290.124472 93.93202 
L 291.660155 93.856425 
L 292.427996 93.416597 
L 293.195838 92.550687 
L 293.963679 92.193327 
L 294.73152 91.595436 
L 295.499362 91.519841 
L 296.267203 90.667675 
L 297.035045 90.11789 
L 297.802886 90.20723 
L 298.570728 90.14538 
L 300.10641 89.190129 
L 300.874252 88.372325 
L 301.642093 88.262368 
L 302.409935 87.877518 
L 304.713459 86.365611 
L 305.4813 85.994507 
L 306.249142 85.960145 
L 307.016983 85.582168 
L 307.784825 84.688768 
L 308.552666 84.846831 
L 309.320507 84.200835 
L 310.85619 83.781624 
L 311.624032 83.252456 
L 312.391873 83.163116 
L 313.159714 82.785139 
L 313.927556 82.551481 
L 314.695397 82.750778 
L 315.463239 82.688927 
L 316.998922 82.029186 
L 317.766763 82.104781 
L 320.070287 81.589358 
L 320.838129 81.513763 
L 321.60597 81.609975 
L 323.141653 81.390061 
L 323.909494 81.53438 
L 324.677336 81.410678 
L 325.445177 81.403806 
L 326.213019 81.699315 
L 328.516543 81.479401 
L 329.284384 81.197637 
L 330.052226 81.293849 
L 330.820067 81.273232 
L 331.587909 81.390061 
L 333.123591 81.197637 
L 333.891433 81.582486 
L 334.659274 81.204509 
L 335.427116 81.369444 
L 336.194957 81.053318 
L 336.962798 81.44504 
L 338.498481 80.627235 
L 339.266323 80.572257 
L 340.034164 80.393577 
L 341.569847 79.617006 
L 342.337688 79.610134 
L 343.10553 79.321497 
L 343.873371 78.689245 
L 344.641213 78.544926 
L 345.409054 78.194439 
L 346.944737 77.926419 
L 347.712578 77.472847 
L 348.48042 77.80959 
L 350.783944 77.101742 
L 352.319627 77.136104 
L 353.85531 76.971168 
L 354.623151 76.813105 
L 355.390992 76.957424 
L 356.158834 76.318299 
L 356.926675 76.036535 
L 357.694517 76.029662 
L 358.462358 75.48675 
L 359.2302 75.686047 
L 359.998041 75.191241 
L 360.765882 75.617324 
L 361.533724 75.534856 
L 362.301565 75.211858 
L 363.069407 75.596707 
L 363.837248 75.287453 
L 364.605089 75.335559 
L 365.372931 74.86137 
L 366.140772 74.881987 
L 366.908614 75.239347 
L 367.676455 75.376793 
L 368.444297 75.672302 
L 369.212138 75.342432 
L 369.979979 75.548601 
L 370.747821 75.246219 
L 371.515662 74.778903 
L 372.283504 75.191241 
L 373.819186 75.101901 
L 375.354869 74.634584 
L 376.122711 74.86137 
L 377.658394 74.572733 
L 378.426235 74.613967 
L 379.194076 74.538372 
L 379.961918 74.792647 
L 380.729759 74.668946 
L 382.265442 75.108773 
L 383.033283 74.579606 
L 383.801125 75.046923 
L 385.336808 74.916349 
L 386.104649 75.143135 
L 387.640332 75.04005 
L 388.408173 74.964455 
L 389.943856 75.527984 
L 390.711698 75.631069 
L 394.550905 75.067539 
L 395.318746 74.668946 
L 396.086588 74.613967 
L 396.854429 73.99546 
L 397.62227 74.050438 
L 398.390112 73.583121 
L 399.157953 73.493781 
L 399.925795 73.562504 
L 400.693636 73.830524 
L 401.461477 73.150166 
L 402.229319 73.480037 
L 402.99716 73.266995 
L 403.765002 73.356335 
L 405.300685 73.143294 
L 406.068526 72.992103 
L 407.604209 73.095188 
L 408.37205 72.92338 
L 409.139892 72.401085 
L 410.675574 71.981874 
L 411.443416 71.418345 
L 412.211257 71.418345 
L 412.979099 71.184686 
L 413.74694 70.215691 
L 414.514782 70.469967 
L 416.818306 68.312062 
L 417.586147 68.456381 
L 419.12183 68.030298 
L 419.889671 67.872235 
L 420.657513 67.528619 
L 421.425354 67.494258 
L 421.425354 67.494258 
" style="fill:none;stroke:#ff0000;stroke-linecap:round;"/>
   </g>
   <g id="patch_3">
    <path d="M 37.504646 258.685354 
L 37.504646 2.834646 
" style="fill:none;stroke:#000000;stroke-linecap:square;stroke-linejoin:miter;stroke-width:0.8;"/>
   </g>
   <g id="patch_4">
    <path d="M 421.425354 258.685354 
L 421.425354 2.834646 
" style="fill:none;stroke:#000000;stroke-linecap:square;stroke-linejoin:miter;stroke-width:0.8;"/>
   </g>
   <g id="patch_5">
    <path d="M 37.504646 258.685354 
L 421.425354 258.685354 
" style="fill:none;stroke:#000000;stroke-linecap:square;stroke-linejoin:miter;stroke-width:0.8;"/>
   </g>
   <g id="patch_6">
    <path d="M 37.504646 2.834646 
L 421.425354 2.834646 
" style="fill:none;stroke:#000000;stroke-linecap:square;stroke-linejoin:miter;stroke-width:0.8;"/>
   </g>
   <g id="legend_1">
    <g id="patch_7">
     <path d="M 380.311604 32.719646 
L 415.825354 32.719646 
Q 417.425354 32.719646 417.425354 31.119646 
L 417.425354 8.434646 
Q 417.425354 6.834646 415.825354 6.834646 
L 380.311604 6.834646 
Q 378.711604 6.834646 378.711604 8.434646 
L 378.711604 31.119646 
Q 378.711604 32.719646 380.311604 32.719646 
z
" style="fill:#ffffff;opacity:0.8;stroke:#000000;stroke-linejoin:miter;"/>
    </g>
    <g id="line2d_13">
     <path d="M 381.911604 13.313396 
L 397.911604 13.313396 
" style="fill:none;stroke:#0000ff;stroke-linecap:round;"/>
    </g>
    <g id="line2d_14"/>
    <g id="text_13">
     <!-- P -->
     <defs>
      <path d="M 19.671875 64.796875 
L 19.671875 37.40625 
L 32.078125 37.40625 
Q 38.96875 37.40625 42.71875 40.96875 
Q 46.484375 44.53125 46.484375 51.125 
Q 46.484375 57.671875 42.71875 61.234375 
Q 38.96875 64.796875 32.078125 64.796875 
z
M 9.8125 72.90625 
L 32.078125 72.90625 
Q 44.34375 72.90625 50.609375 67.359375 
Q 56.890625 61.8125 56.890625 51.125 
Q 56.890625 40.328125 50.609375 34.8125 
Q 44.34375 29.296875 32.078125 29.296875 
L 19.671875 29.296875 
L 19.671875 0 
L 9.8125 0 
z
" id="DejaVuSans-50"/>
     </defs>
     <g transform="translate(404.311604 16.113396)scale(0.08 -0.08)">
      <use xlink:href="#DejaVuSans-50"/>
     </g>
    </g>
    <g id="line2d_15">
     <path d="M 381.911604 25.055896 
L 397.911604 25.055896 
" style="fill:none;stroke:#ff0000;stroke-linecap:round;"/>
    </g>
    <g id="line2d_16"/>
    <g id="text_14">
     <!-- P2 -->
     <g transform="translate(404.311604 27.855896)scale(0.08 -0.08)">
      <use xlink:href="#DejaVuSans-50"/>
      <use x="60.302734" xlink:href="#DejaVuSans-32"/>
     </g>
    </g>
   </g>
  </g>
 </g>
 <defs>
  <clipPath id="pff9d6994cd">
   <rect height="255.850709" width="383.920709" x="37.504646" y="2.834646"/>
  </clipPath>
 </defs>
</svg>
