<?xml version="1.0" encoding="utf-8" standalone="no"?>
<!DOCTYPE svg PUBLIC "-//W3C//DTD SVG 1.1//EN"
  "http://www.w3.org/Graphics/SVG/1.1/DTD/svg11.dtd">
<!-- Created with matplotlib (http://matplotlib.org/) -->
<svg height="288pt" version="1.1" viewBox="0 0 432 288" width="432pt" xmlns="http://www.w3.org/2000/svg" xmlns:xlink="http://www.w3.org/1999/xlink">
 <defs>
  <style type="text/css">
*{stroke-linecap:butt;stroke-linejoin:round;}
  </style>
 </defs>
 <g id="figure_1">
  <g id="patch_1">
   <path d="M 0 288 
L 432 288 
L 432 0 
L 0 0 
z
" style="fill:#ffffff;"/>
  </g>
  <g id="axes_1">
   <g id="patch_2">
    <path d="M 37.504646 258.685354 
L 421.425354 258.685354 
L 421.425354 2.834646 
L 37.504646 2.834646 
z
" style="fill:#ffffff;"/>
   </g>
   <g id="PolyCollection_1">
    <path clip-path="url(#pea27cd07a9)" d="M 37.504646 256.532077 
L 37.504646 256.532077 
L 38.272487 257.147696 
L 39.040329 257.117871 
L 39.80817 256.908785 
L 40.576011 256.790971 
L 41.343853 256.318505 
L 42.111694 256.143736 
L 42.879536 255.615118 
L 43.647377 255.54254 
L 44.415218 255.127615 
L 45.18306 255.32426 
L 45.950901 254.530832 
L 46.718743 254.286544 
L 47.486584 254.027123 
L 48.254426 253.645338 
L 49.022267 253.512632 
L 49.790108 253.370229 
L 50.55795 253.057467 
L 51.325791 253.043778 
L 52.093633 252.82764 
L 52.861474 252.61403 
L 53.629315 252.145692 
L 54.397157 251.804695 
L 55.164998 251.988236 
L 55.93284 251.587531 
L 56.700681 252.097023 
L 57.468523 252.053339 
L 58.236364 250.906298 
L 59.004205 251.343668 
L 59.772047 250.91652 
L 60.539888 251.703213 
L 61.30773 250.912679 
L 62.075571 251.073622 
L 62.843412 250.430146 
L 63.611254 250.800367 
L 64.379095 250.198351 
L 65.146937 251.222315 
L 65.914778 251.279072 
L 66.68262 251.032318 
L 67.450461 250.778875 
L 68.218302 250.862915 
L 68.986144 250.248121 
L 69.753985 250.093365 
L 70.521827 250.395756 
L 71.289668 250.335978 
L 72.057509 250.877002 
L 72.825351 250.304867 
L 73.593192 250.595099 
L 74.361034 250.214965 
L 75.128875 250.505856 
L 75.896717 250.751438 
L 76.664558 249.875644 
L 77.432399 250.355659 
L 78.200241 250.146227 
L 78.968082 250.455629 
L 79.735924 250.068091 
L 80.503765 249.526738 
L 81.271606 249.664348 
L 82.039448 249.114013 
L 82.807289 250.082986 
L 83.575131 249.46288 
L 84.342972 249.733391 
L 85.110814 249.830653 
L 85.878655 249.92408 
L 86.646496 249.005973 
L 87.414338 249.702199 
L 88.182179 250.050552 
L 88.950021 249.776701 
L 89.717862 249.643866 
L 90.485703 249.638297 
L 91.253545 249.830496 
L 92.021386 248.985043 
L 92.789228 249.759942 
L 93.557069 248.959891 
L 94.324911 248.010651 
L 95.092752 250.252942 
L 95.860593 249.741397 
L 96.628435 249.408561 
L 97.396276 249.383528 
L 98.164118 249.456904 
L 98.931959 248.92449 
L 99.6998 249.712906 
L 100.467642 248.572593 
L 101.235483 249.365404 
L 102.003325 249.070597 
L 102.771166 248.844184 
L 103.539008 249.102296 
L 104.306849 249.236031 
L 105.07469 248.832535 
L 105.842532 249.615065 
L 106.610373 249.669857 
L 107.378215 248.942803 
L 108.146056 248.777787 
L 108.913897 249.221661 
L 109.681739 248.739056 
L 110.44958 249.200547 
L 111.217422 249.299733 
L 111.985263 249.05375 
L 112.753105 248.828203 
L 113.520946 248.763599 
L 114.288787 248.950123 
L 115.056629 248.840258 
L 115.82447 249.135298 
L 116.592312 247.941499 
L 117.360153 248.900766 
L 118.127994 248.667579 
L 118.895836 249.248806 
L 119.663677 248.533657 
L 120.431519 248.674288 
L 121.19936 248.452903 
L 121.967202 248.955337 
L 122.735043 248.963822 
L 123.502884 248.940165 
L 124.270726 248.944414 
L 125.038567 248.005527 
L 125.806409 248.398735 
L 126.57425 248.398953 
L 127.342091 249.296272 
L 128.109933 247.989121 
L 128.877774 248.528826 
L 129.645616 248.351324 
L 130.413457 248.648907 
L 131.181299 248.98481 
L 131.94914 248.623778 
L 132.716981 248.355335 
L 133.484823 248.835283 
L 134.252664 248.423299 
L 135.020506 248.148565 
L 135.788347 247.905807 
L 136.556189 249.138362 
L 137.32403 247.568465 
L 138.091871 248.143119 
L 138.859713 249.18133 
L 139.627554 248.504156 
L 140.395396 247.466276 
L 141.163237 247.913468 
L 141.931078 248.629691 
L 142.69892 248.069548 
L 143.466761 248.179878 
L 144.234603 248.132679 
L 145.002444 248.396533 
L 145.770286 248.242321 
L 146.538127 248.79192 
L 147.305968 248.049534 
L 148.07381 247.819983 
L 148.841651 247.798541 
L 149.609493 248.112712 
L 150.377334 248.002909 
L 151.145175 247.916713 
L 151.913017 248.487717 
L 152.680858 247.969151 
L 153.4487 247.922268 
L 154.216541 247.665188 
L 154.984383 248.184219 
L 155.752224 247.977777 
L 156.520065 248.658785 
L 157.287907 248.463642 
L 158.055748 248.691003 
L 158.82359 247.976998 
L 159.591431 247.754603 
L 160.359272 247.903573 
L 161.127114 247.630759 
L 161.894955 247.867065 
L 162.662797 248.027473 
L 163.430638 247.505085 
L 164.19848 248.196393 
L 164.966321 248.066067 
L 165.734162 247.432148 
L 166.502004 247.618657 
L 167.269845 248.213387 
L 168.037687 247.503963 
L 168.805528 247.925164 
L 169.573369 248.091394 
L 170.341211 247.629439 
L 171.109052 247.66921 
L 171.876894 247.455351 
L 172.644735 248.267283 
L 173.412577 247.271311 
L 174.180418 247.783896 
L 174.948259 247.624242 
L 175.716101 248.049023 
L 176.483942 247.493324 
L 177.251784 247.671595 
L 178.019625 247.271991 
L 178.787466 247.769011 
L 179.555308 247.578788 
L 180.323149 247.703621 
L 181.090991 247.59944 
L 181.858832 247.933839 
L 182.626674 246.334958 
L 183.394515 247.287543 
L 184.162356 247.588733 
L 184.930198 247.592897 
L 185.698039 247.900042 
L 186.465881 247.296808 
L 187.233722 247.617524 
L 188.001563 247.496447 
L 188.769405 246.937164 
L 189.537246 247.904846 
L 190.305088 247.285568 
L 191.072929 247.883483 
L 191.840771 246.244134 
L 192.608612 247.750404 
L 193.376453 246.614599 
L 194.144295 247.350788 
L 194.912136 247.416884 
L 195.679978 247.64606 
L 196.447819 247.995047 
L 197.21566 247.208797 
L 197.983502 247.023962 
L 198.751343 247.411845 
L 199.519185 246.718127 
L 200.287026 247.031039 
L 201.054868 247.361367 
L 201.822709 246.840601 
L 202.59055 247.117884 
L 203.358392 247.239649 
L 204.126233 246.762993 
L 204.894075 247.937941 
L 205.661916 246.418624 
L 206.429757 247.792229 
L 207.197599 247.189964 
L 207.96544 246.772666 
L 208.733282 246.385297 
L 209.501123 247.525611 
L 210.268965 247.292962 
L 211.036806 247.629993 
L 211.804647 246.370343 
L 212.572489 247.23377 
L 213.34033 246.385677 
L 214.108172 247.340161 
L 214.876013 247.050844 
L 215.643854 246.7165 
L 216.411696 246.828797 
L 217.179537 246.807783 
L 217.947379 247.188877 
L 218.71522 247.155496 
L 219.483062 246.472969 
L 220.250903 247.224954 
L 221.018744 245.979126 
L 221.786586 246.96636 
L 222.554427 246.14242 
L 223.322269 246.617902 
L 224.09011 246.750075 
L 224.857951 246.922137 
L 225.625793 246.456614 
L 226.393634 246.712347 
L 227.161476 246.402747 
L 227.929317 246.525463 
L 228.697159 246.855699 
L 229.465 246.809027 
L 230.232841 246.540646 
L 231.000683 247.179884 
L 231.768524 246.86365 
L 232.536366 246.303908 
L 233.304207 246.345227 
L 234.072049 246.106137 
L 234.83989 246.350743 
L 235.607731 246.307765 
L 236.375573 246.634546 
L 237.143414 246.644523 
L 237.911256 246.332926 
L 238.679097 246.358713 
L 239.446938 246.783046 
L 240.21478 246.58584 
L 240.982621 246.256403 
L 241.750463 246.076025 
L 242.518304 246.73993 
L 243.286146 245.863198 
L 244.053987 245.762763 
L 244.821828 246.202706 
L 245.58967 247.075514 
L 246.357511 246.073107 
L 247.125353 246.117873 
L 247.893194 247.066313 
L 248.661035 246.099503 
L 249.428877 246.25196 
L 250.196718 246.117024 
L 250.96456 246.761438 
L 251.732401 246.09113 
L 252.500243 246.375836 
L 253.268084 246.006361 
L 254.035925 246.062621 
L 254.803767 245.954575 
L 255.571608 246.065104 
L 256.33945 245.89885 
L 257.107291 246.731386 
L 257.875132 246.08981 
L 258.642974 246.536591 
L 259.410815 247.014307 
L 260.178657 246.030841 
L 260.946498 246.673006 
L 261.71434 246.844229 
L 262.482181 245.911498 
L 263.250022 246.024163 
L 264.017864 246.70122 
L 264.785705 246.215083 
L 265.553547 244.815882 
L 266.321388 245.93187 
L 267.089229 245.285447 
L 267.857071 246.52098 
L 268.624912 246.25797 
L 269.392754 246.874942 
L 270.160595 245.963217 
L 270.928437 246.334816 
L 271.696278 246.105207 
L 272.464119 246.337858 
L 273.231961 246.104079 
L 273.999802 246.059581 
L 274.767644 246.255243 
L 275.535485 245.213544 
L 276.303326 246.166383 
L 277.071168 246.87172 
L 277.839009 246.699048 
L 278.606851 245.902235 
L 279.374692 245.91263 
L 280.142534 246.566961 
L 280.910375 245.655994 
L 281.678216 245.671153 
L 282.446058 246.252438 
L 283.213899 246.151017 
L 283.981741 246.470393 
L 284.749582 245.844286 
L 285.517423 245.37189 
L 286.285265 245.484997 
L 287.053106 246.238146 
L 287.820948 245.605851 
L 288.588789 245.677633 
L 289.356631 245.601425 
L 290.124472 246.093511 
L 290.892313 246.320234 
L 291.660155 245.849056 
L 292.427996 245.553124 
L 293.195838 245.759463 
L 293.963679 246.681765 
L 294.73152 246.080589 
L 295.499362 246.685291 
L 296.267203 245.485032 
L 297.035045 245.533291 
L 297.802886 246.017682 
L 298.570728 245.531277 
L 299.338569 245.667277 
L 300.10641 246.410468 
L 300.874252 245.67408 
L 301.642093 245.578972 
L 302.409935 245.543035 
L 303.177776 245.85027 
L 303.945617 246.661938 
L 304.713459 246.137674 
L 305.4813 245.184891 
L 306.249142 245.681058 
L 307.016983 245.810581 
L 307.784825 245.969536 
L 308.552666 245.828392 
L 309.320507 246.08694 
L 310.088349 245.704426 
L 310.85619 245.67697 
L 311.624032 245.695909 
L 312.391873 245.69049 
L 313.159714 245.536226 
L 313.927556 245.27472 
L 314.695397 245.715641 
L 315.463239 245.063847 
L 316.23108 244.949742 
L 316.998922 245.655043 
L 317.766763 245.170314 
L 318.534604 245.190887 
L 319.302446 245.468902 
L 320.070287 245.806933 
L 320.838129 245.250709 
L 321.60597 245.313163 
L 322.373811 245.676452 
L 323.141653 245.418664 
L 323.909494 245.680167 
L 324.677336 245.169905 
L 325.445177 245.468929 
L 326.213019 245.341494 
L 326.98086 245.786529 
L 327.748701 246.072635 
L 328.516543 244.96233 
L 329.284384 245.550748 
L 330.052226 245.312563 
L 330.820067 246.191106 
L 331.587909 245.58407 
L 332.35575 244.975788 
L 333.123591 245.402989 
L 333.891433 245.175469 
L 334.659274 245.721921 
L 335.427116 245.089717 
L 336.194957 245.256422 
L 336.962798 245.524037 
L 337.73064 245.672963 
L 338.498481 244.76053 
L 339.266323 245.233719 
L 340.034164 245.459947 
L 340.802006 244.829991 
L 341.569847 244.977521 
L 342.337688 245.089939 
L 343.10553 244.77004 
L 343.873371 244.903266 
L 344.641213 244.990071 
L 345.409054 245.382859 
L 346.176895 245.432406 
L 346.944737 245.211323 
L 347.712578 244.870385 
L 348.48042 245.371329 
L 349.248261 244.294557 
L 350.016103 245.25427 
L 350.783944 245.123898 
L 351.551785 245.363132 
L 352.319627 245.968431 
L 353.087468 245.339808 
L 353.85531 245.935432 
L 354.623151 245.005124 
L 355.390992 245.702434 
L 356.158834 245.444749 
L 356.926675 245.525127 
L 357.694517 244.194326 
L 358.462358 245.555075 
L 359.2302 245.589926 
L 359.998041 244.97024 
L 360.765882 245.007293 
L 361.533724 245.50454 
L 362.301565 244.866759 
L 363.069407 245.204708 
L 363.837248 244.899307 
L 364.605089 244.906769 
L 365.372931 245.438495 
L 366.140772 245.392901 
L 366.908614 244.844722 
L 367.676455 244.448024 
L 368.444297 245.037958 
L 369.212138 245.021548 
L 369.979979 244.674879 
L 370.747821 245.347673 
L 371.515662 245.339033 
L 372.283504 244.961131 
L 373.051345 244.478445 
L 373.819186 245.863599 
L 374.587028 245.288097 
L 375.354869 244.829847 
L 376.122711 244.477262 
L 376.890552 244.819385 
L 377.658394 245.906589 
L 378.426235 244.723935 
L 379.194076 245.326555 
L 379.961918 244.924703 
L 380.729759 244.513236 
L 381.497601 245.115672 
L 382.265442 245.647933 
L 383.033283 245.308432 
L 383.801125 244.988095 
L 384.568966 244.88072 
L 385.336808 245.082356 
L 386.104649 244.524902 
L 386.872491 244.516543 
L 387.640332 245.143948 
L 388.408173 245.1027 
L 389.176015 244.827985 
L 389.943856 244.264288 
L 390.711698 244.937918 
L 391.479539 245.42821 
L 392.24738 244.574047 
L 393.015222 244.296338 
L 393.783063 244.82857 
L 394.550905 245.343991 
L 395.318746 244.874157 
L 396.086588 244.972528 
L 396.854429 245.161274 
L 397.62227 244.933501 
L 398.390112 244.737547 
L 399.157953 244.806886 
L 399.925795 245.05559 
L 400.693636 244.106471 
L 401.461477 244.805603 
L 402.229319 244.931418 
L 402.99716 244.209024 
L 403.765002 245.346218 
L 404.532843 245.108085 
L 405.300685 245.141211 
L 406.068526 244.294013 
L 406.836367 245.066352 
L 407.604209 244.706433 
L 408.37205 243.967792 
L 409.139892 244.503648 
L 409.907733 244.774257 
L 410.675574 244.278139 
L 411.443416 244.561786 
L 412.211257 244.816298 
L 412.979099 244.722852 
L 413.74694 245.162286 
L 414.514782 245.356766 
L 415.282623 245.169078 
L 416.050464 244.703276 
L 416.818306 244.349496 
L 417.586147 245.146267 
L 418.353989 245.154777 
L 419.12183 245.274164 
L 419.889671 243.716922 
L 420.657513 243.837678 
L 421.425354 244.74521 
L 421.425354 235.975398 
L 421.425354 235.975398 
L 420.657513 236.796566 
L 419.889671 236.499893 
L 419.12183 236.741914 
L 418.353989 236.213566 
L 417.586147 234.912213 
L 416.818306 235.93929 
L 416.050464 235.686268 
L 415.282623 235.537136 
L 414.514782 235.335055 
L 413.74694 235.918175 
L 412.979099 236.098516 
L 412.211257 236.480075 
L 411.443416 234.906536 
L 410.675574 236.384893 
L 409.907733 235.528923 
L 409.139892 236.490449 
L 408.37205 235.644471 
L 407.604209 235.611141 
L 406.836367 237.439125 
L 406.068526 235.361432 
L 405.300685 235.550609 
L 404.532843 237.325422 
L 403.765002 237.044107 
L 402.99716 235.144145 
L 402.229319 236.868748 
L 401.461477 236.390011 
L 400.693636 236.09595 
L 399.925795 236.557453 
L 399.157953 236.187211 
L 398.390112 236.745949 
L 397.62227 236.823483 
L 396.854429 236.264646 
L 396.086588 236.985973 
L 395.318746 236.623733 
L 394.550905 235.650106 
L 393.783063 236.827655 
L 393.015222 236.467453 
L 392.24738 235.772315 
L 391.479539 235.810587 
L 390.711698 236.099361 
L 389.943856 236.38435 
L 389.176015 236.770664 
L 388.408173 236.193672 
L 387.640332 236.713795 
L 386.872491 236.362401 
L 386.104649 236.440406 
L 385.336808 236.329169 
L 384.568966 236.156559 
L 383.801125 236.423431 
L 383.033283 236.290217 
L 382.265442 236.670421 
L 381.497601 235.47539 
L 380.729759 236.452072 
L 379.961918 235.723935 
L 379.194076 236.718311 
L 378.426235 235.334545 
L 377.658394 236.872376 
L 376.890552 235.354248 
L 376.122711 236.574411 
L 375.354869 237.632448 
L 374.587028 237.303744 
L 373.819186 236.771426 
L 373.051345 236.270952 
L 372.283504 236.450395 
L 371.515662 235.799005 
L 370.747821 236.423705 
L 369.979979 237.024528 
L 369.212138 236.102096 
L 368.444297 236.719025 
L 367.676455 236.603649 
L 366.908614 236.76832 
L 366.140772 236.651964 
L 365.372931 236.649553 
L 364.605089 235.468381 
L 363.837248 236.97283 
L 363.069407 237.401528 
L 362.301565 236.731889 
L 361.533724 236.223656 
L 360.765882 236.60575 
L 359.998041 236.383709 
L 359.2302 235.835994 
L 358.462358 236.547367 
L 357.694517 236.641436 
L 356.926675 235.900793 
L 356.158834 237.046334 
L 355.390992 236.169703 
L 354.623151 236.75186 
L 353.85531 237.174597 
L 353.087468 236.546723 
L 352.319627 235.759765 
L 351.551785 237.012799 
L 350.783944 236.215657 
L 350.016103 236.920143 
L 349.248261 236.45484 
L 348.48042 236.702325 
L 347.712578 236.440382 
L 346.944737 236.790361 
L 346.176895 236.482913 
L 345.409054 236.964283 
L 344.641213 236.738125 
L 343.873371 236.968871 
L 343.10553 236.65588 
L 342.337688 236.796592 
L 341.569847 236.448399 
L 340.802006 236.25047 
L 340.034164 236.484161 
L 339.266323 236.638418 
L 338.498481 236.924484 
L 337.73064 236.386297 
L 336.962798 236.477647 
L 336.194957 236.227074 
L 335.427116 236.883179 
L 334.659274 236.596433 
L 333.891433 236.926973 
L 333.123591 236.224448 
L 332.35575 235.615273 
L 331.587909 236.964589 
L 330.820067 237.235593 
L 330.052226 236.804274 
L 329.284384 237.041094 
L 328.516543 236.679501 
L 327.748701 236.404054 
L 326.98086 236.589401 
L 326.213019 236.933677 
L 325.445177 237.209277 
L 324.677336 236.673444 
L 323.909494 236.99804 
L 323.141653 236.813325 
L 322.373811 236.584325 
L 321.60597 236.731703 
L 320.838129 237.657803 
L 320.070287 236.453844 
L 319.302446 237.007787 
L 318.534604 237.343378 
L 317.766763 236.975311 
L 316.998922 237.339834 
L 316.23108 236.087537 
L 315.463239 237.225718 
L 314.695397 236.55953 
L 313.927556 238.123191 
L 313.159714 236.695763 
L 312.391873 236.800593 
L 311.624032 237.385332 
L 310.85619 236.367896 
L 310.088349 237.751062 
L 309.320507 236.85036 
L 308.552666 238.145284 
L 307.784825 237.212464 
L 307.016983 236.162314 
L 306.249142 237.8464 
L 305.4813 237.766803 
L 304.713459 235.935981 
L 303.945617 237.455679 
L 303.177776 237.101424 
L 302.409935 237.768511 
L 301.642093 236.566653 
L 300.874252 237.680649 
L 300.10641 236.929867 
L 299.338569 237.989728 
L 298.570728 236.283284 
L 297.802886 237.020377 
L 297.035045 237.591132 
L 296.267203 236.746957 
L 295.499362 237.806572 
L 294.73152 237.230957 
L 293.963679 237.234334 
L 293.195838 238.444518 
L 292.427996 237.398571 
L 291.660155 237.764767 
L 290.892313 236.746613 
L 290.124472 237.664253 
L 289.356631 236.817687 
L 288.588789 237.317243 
L 287.820948 238.396612 
L 287.053106 237.620377 
L 286.285265 237.610638 
L 285.517423 236.802523 
L 284.749582 237.107408 
L 283.981741 237.301765 
L 283.213899 237.462806 
L 282.446058 237.27502 
L 281.678216 236.906294 
L 280.910375 237.022212 
L 280.142534 237.723385 
L 279.374692 237.58604 
L 278.606851 236.862336 
L 277.839009 236.569317 
L 277.071168 237.720902 
L 276.303326 237.490622 
L 275.535485 237.594209 
L 274.767644 237.862374 
L 273.999802 237.165601 
L 273.231961 236.933979 
L 272.464119 236.829747 
L 271.696278 237.998015 
L 270.928437 237.667647 
L 270.160595 237.204389 
L 269.392754 238.66769 
L 268.624912 237.830859 
L 267.857071 236.58905 
L 267.089229 237.5367 
L 266.321388 238.041806 
L 265.553547 237.77596 
L 264.785705 236.391153 
L 264.017864 237.977767 
L 263.250022 237.776783 
L 262.482181 238.450818 
L 261.71434 237.777181 
L 260.946498 237.919616 
L 260.178657 237.5398 
L 259.410815 237.837409 
L 258.642974 238.372701 
L 257.875132 238.416447 
L 257.107291 238.580941 
L 256.33945 238.146796 
L 255.571608 238.311606 
L 254.803767 237.961524 
L 254.035925 237.594385 
L 253.268084 237.549885 
L 252.500243 238.504668 
L 251.732401 237.796181 
L 250.96456 238.709224 
L 250.196718 238.461204 
L 249.428877 237.880051 
L 248.661035 238.219631 
L 247.893194 238.130861 
L 247.125353 237.654285 
L 246.357511 238.36118 
L 245.58967 239.07167 
L 244.821828 238.217187 
L 244.053987 238.153336 
L 243.286146 238.052901 
L 242.518304 237.910268 
L 241.750463 238.818873 
L 240.982621 238.379401 
L 240.21478 237.848447 
L 239.446938 239.234591 
L 238.679097 238.953614 
L 237.911256 237.727114 
L 237.143414 237.962493 
L 236.375573 238.317928 
L 235.607731 237.090146 
L 234.83989 237.982785 
L 234.072049 238.212997 
L 233.304207 239.010282 
L 232.536366 237.856891 
L 231.768524 238.146401 
L 231.000683 237.715013 
L 230.232841 238.555769 
L 229.465 238.229812 
L 228.697159 238.758904 
L 227.929317 238.369435 
L 227.161476 238.621698 
L 226.393634 238.182551 
L 225.625793 238.409495 
L 224.857951 237.987155 
L 224.09011 238.346341 
L 223.322269 238.176238 
L 222.554427 238.248684 
L 221.786586 238.417937 
L 221.018744 238.397584 
L 220.250903 238.044191 
L 219.483062 238.033288 
L 218.71522 238.818959 
L 217.947379 238.627243 
L 217.179537 239.109096 
L 216.411696 238.872171 
L 215.643854 238.998862 
L 214.876013 239.326646 
L 214.108172 238.8646 
L 213.34033 239.113774 
L 212.572489 238.668715 
L 211.804647 238.898802 
L 211.036806 238.848256 
L 210.268965 239.012558 
L 209.501123 239.672343 
L 208.733282 239.027789 
L 207.96544 239.230577 
L 207.197599 239.230709 
L 206.429757 239.348149 
L 205.661916 239.080826 
L 204.894075 237.619086 
L 204.126233 239.470556 
L 203.358392 238.864353 
L 202.59055 239.547489 
L 201.822709 238.874761 
L 201.054868 238.382783 
L 200.287026 238.56917 
L 199.519185 237.802524 
L 198.751343 239.642168 
L 197.983502 238.964888 
L 197.21566 238.621718 
L 196.447819 238.583961 
L 195.679978 240.372358 
L 194.912136 238.960606 
L 194.144295 238.767609 
L 193.376453 239.000004 
L 192.608612 238.771028 
L 191.840771 238.578793 
L 191.072929 238.940224 
L 190.305088 239.379804 
L 189.537246 239.681749 
L 188.769405 239.857755 
L 188.001563 239.111349 
L 187.233722 239.249365 
L 186.465881 239.10947 
L 185.698039 238.419871 
L 184.930198 238.885352 
L 184.162356 239.033457 
L 183.394515 238.586154 
L 182.626674 239.164492 
L 181.858832 239.134568 
L 181.090991 238.965173 
L 180.323149 238.860992 
L 179.555308 238.985825 
L 178.787466 238.752421 
L 178.019625 239.004741 
L 177.251784 239.209689 
L 176.483942 239.200836 
L 175.716101 238.789078 
L 174.948259 239.372195 
L 174.180418 239.428452 
L 173.412577 239.408456 
L 172.644735 238.700365 
L 171.876894 239.685027 
L 171.109052 239.356015 
L 170.341211 239.611697 
L 169.573369 238.71792 
L 168.805528 239.244002 
L 168.037687 239.262168 
L 167.269845 239.157297 
L 166.502004 239.032321 
L 165.734162 239.377165 
L 164.966321 239.434163 
L 164.19848 239.994754 
L 163.430638 239.376199 
L 162.662797 238.292441 
L 161.894955 240.10817 
L 161.127114 240.099777 
L 160.359272 239.683022 
L 159.591431 239.587292 
L 158.82359 239.710356 
L 158.055748 239.788026 
L 157.287907 239.857052 
L 156.520065 239.73388 
L 155.752224 239.508059 
L 154.984383 239.402376 
L 154.216541 240.10853 
L 153.4487 239.693115 
L 152.680858 239.962902 
L 151.913017 239.660248 
L 151.145175 239.785034 
L 150.377334 239.59808 
L 149.609493 239.28676 
L 148.841651 239.975177 
L 148.07381 239.766612 
L 147.305968 239.407514 
L 146.538127 240.046962 
L 145.770286 240.179132 
L 145.002444 240.197649 
L 144.234603 239.453916 
L 143.466761 239.780964 
L 142.69892 239.632199 
L 141.931078 239.993279 
L 141.163237 240.248891 
L 140.395396 240.105924 
L 139.627554 239.658202 
L 138.859713 239.743917 
L 138.091871 239.515447 
L 137.32403 239.859795 
L 136.556189 239.887643 
L 135.788347 240.11261 
L 135.020506 241.19411 
L 134.252664 239.551937 
L 133.484823 240.176328 
L 132.716981 240.713852 
L 131.94914 239.754492 
L 131.181299 240.113165 
L 130.413457 240.506644 
L 129.645616 240.386799 
L 128.877774 240.223691 
L 128.109933 240.648243 
L 127.342091 240.075192 
L 126.57425 240.411141 
L 125.806409 240.425753 
L 125.038567 240.67502 
L 124.270726 240.98842 
L 123.502884 240.114628 
L 122.735043 240.292489 
L 121.967202 240.272185 
L 121.19936 240.832195 
L 120.431519 239.919894 
L 119.663677 241.168871 
L 118.895836 240.986304 
L 118.127994 241.049343 
L 117.360153 241.003279 
L 116.592312 240.53753 
L 115.82447 239.804342 
L 115.056629 240.847875 
L 114.288787 241.141045 
L 113.520946 240.794988 
L 112.753105 240.197802 
L 111.985263 240.245743 
L 111.217422 240.820223 
L 110.44958 239.998187 
L 109.681739 240.488467 
L 108.913897 240.552838 
L 108.146056 240.881559 
L 107.378215 241.349883 
L 106.610373 240.752376 
L 105.842532 240.548074 
L 105.07469 240.582111 
L 104.306849 240.495285 
L 103.539008 240.62902 
L 102.771166 240.843949 
L 102.003325 240.617537 
L 101.235483 240.740158 
L 100.467642 241.04357 
L 99.6998 241.357061 
L 98.931959 241.45456 
L 98.164118 240.159259 
L 97.396276 241.312193 
L 96.628435 241.402312 
L 95.860593 241.299782 
L 95.092752 240.888996 
L 94.324911 241.116113 
L 93.557069 240.36839 
L 92.789228 240.921384 
L 92.021386 240.38642 
L 91.253545 241.081136 
L 90.485703 242.712745 
L 89.717862 241.570042 
L 88.950021 241.379631 
L 88.182179 241.523209 
L 87.414338 242.46172 
L 86.646496 241.315501 
L 85.878655 241.491346 
L 85.110814 241.627955 
L 84.342972 241.653246 
L 83.575131 241.189658 
L 82.807289 241.64911 
L 82.039448 241.682466 
L 81.271606 241.333649 
L 80.503765 241.802323 
L 79.735924 241.476882 
L 78.968082 241.636319 
L 78.200241 241.97451 
L 77.432399 242.12493 
L 76.664558 242.230698 
L 75.896717 242.506432 
L 75.128875 242.003522 
L 74.361034 242.639871 
L 73.593192 241.151391 
L 72.825351 242.089358 
L 72.057509 242.107381 
L 71.289668 241.36733 
L 70.521827 242.45908 
L 69.753985 242.603136 
L 68.986144 242.318832 
L 68.218302 242.610867 
L 67.450461 242.622936 
L 66.68262 241.534635 
L 65.914778 242.554563 
L 65.146937 243.086325 
L 64.379095 242.656484 
L 63.611254 242.126439 
L 62.843412 243.259548 
L 62.075571 242.64486 
L 61.30773 242.100491 
L 60.539888 243.066038 
L 59.772047 243.190602 
L 59.004205 243.684677 
L 58.236364 243.35916 
L 57.468523 244.155322 
L 56.700681 242.844958 
L 55.93284 243.699908 
L 55.164998 242.665863 
L 54.397157 243.39638 
L 53.629315 244.840251 
L 52.861474 244.415095 
L 52.093633 244.719673 
L 51.325791 244.143682 
L 50.55795 244.144388 
L 49.790108 245.328612 
L 49.022267 245.214997 
L 48.254426 245.629266 
L 47.486584 245.909611 
L 46.718743 246.384288 
L 45.950901 246.55743 
L 45.18306 247.160229 
L 44.415218 247.774303 
L 43.647377 248.122266 
L 42.879536 249.014092 
L 42.111694 249.061238 
L 41.343853 250.498609 
L 40.576011 250.861 
L 39.80817 252.571237 
L 39.040329 253.600044 
L 38.272487 254.894477 
L 37.504646 256.532077 
z
" style="fill:#0000ff;fill-opacity:0.3;"/>
   </g>
   <g id="line2d_1">
    <path clip-path="url(#pea27cd07a9)" d="M 37.504646 256.532077 
L 38.272487 256.021086 
L 39.80817 254.740011 
L 40.576011 253.825986 
L 41.343853 253.408557 
L 42.111694 252.602487 
L 42.879536 252.314605 
L 44.415218 251.450959 
L 45.18306 251.242245 
L 45.950901 250.544131 
L 46.718743 250.335416 
L 48.254426 249.637302 
L 49.022267 249.363814 
L 49.790108 249.34942 
L 50.55795 248.600927 
L 51.325791 248.59373 
L 52.093633 248.773656 
L 52.861474 248.514562 
L 53.629315 248.492971 
L 54.397157 247.600537 
L 55.164998 247.327049 
L 55.93284 247.643719 
L 56.700681 247.47099 
L 57.468523 248.104331 
L 58.236364 247.132729 
L 59.004205 247.514172 
L 59.772047 247.053561 
L 60.539888 247.384626 
L 61.30773 246.506585 
L 62.075571 246.859241 
L 62.843412 246.844847 
L 63.611254 246.463403 
L 64.379095 246.427418 
L 65.146937 247.15432 
L 65.914778 246.916817 
L 66.68262 246.283477 
L 67.450461 246.700906 
L 68.218302 246.736891 
L 68.986144 246.283477 
L 70.521827 246.427418 
L 71.289668 245.851654 
L 72.057509 246.492191 
L 73.593192 245.873245 
L 74.361034 246.427418 
L 75.128875 246.254689 
L 75.896717 246.628935 
L 76.664558 246.053171 
L 77.432399 246.240295 
L 78.200241 246.060368 
L 78.968082 246.045974 
L 79.735924 245.772486 
L 82.039448 245.39824 
L 82.807289 245.866048 
L 83.575131 245.326269 
L 84.342972 245.693319 
L 85.878655 245.707713 
L 86.646496 245.160737 
L 87.414338 246.081959 
L 88.950021 245.578166 
L 89.717862 245.606954 
L 90.485703 246.175521 
L 92.021386 244.685732 
L 92.789228 245.340663 
L 93.557069 244.66414 
L 94.324911 244.563382 
L 95.092752 245.570969 
L 97.396276 245.34786 
L 98.164118 244.808082 
L 99.6998 245.534984 
L 100.467642 244.808082 
L 101.235483 245.052781 
L 102.003325 244.844067 
L 104.306849 244.865658 
L 105.07469 244.707323 
L 105.842532 245.081569 
L 106.610373 245.211116 
L 107.378215 245.146343 
L 108.146056 244.829673 
L 108.913897 244.887249 
L 109.681739 244.613761 
L 110.44958 244.599367 
L 111.217422 245.059978 
L 111.985263 244.649746 
L 112.753105 244.513002 
L 114.288787 245.045584 
L 115.056629 244.844067 
L 115.82447 244.46982 
L 116.592312 244.239515 
L 117.360153 244.952023 
L 118.127994 244.858461 
L 118.895836 245.117555 
L 119.663677 244.851264 
L 120.431519 244.297091 
L 121.19936 244.642549 
L 123.502884 244.527397 
L 124.270726 244.966417 
L 125.038567 244.340273 
L 126.57425 244.405047 
L 127.342091 244.685732 
L 128.109933 244.318682 
L 131.181299 244.548988 
L 131.94914 244.189135 
L 132.716981 244.534594 
L 133.484823 244.505805 
L 134.252664 243.987618 
L 135.020506 244.671338 
L 135.788347 244.009209 
L 136.556189 244.513002 
L 137.32403 243.71413 
L 138.091871 243.829283 
L 138.859713 244.462623 
L 140.395396 243.7861 
L 141.931078 244.311485 
L 142.69892 243.850874 
L 143.466761 243.980421 
L 144.234603 243.793297 
L 145.002444 244.297091 
L 145.770286 244.210726 
L 146.538127 244.419441 
L 147.305968 243.728524 
L 148.841651 243.886859 
L 149.609493 243.699736 
L 151.913017 244.073982 
L 153.4487 243.807691 
L 154.216541 243.886859 
L 155.752224 243.742918 
L 156.520065 244.196332 
L 157.287907 244.160347 
L 158.055748 244.239515 
L 158.82359 243.843677 
L 159.591431 243.670948 
L 161.894955 243.987618 
L 162.662797 243.159957 
L 163.430638 243.440642 
L 164.19848 244.095574 
L 165.734162 243.404657 
L 166.502004 243.325489 
L 167.269845 243.685342 
L 168.037687 243.383066 
L 168.805528 243.584583 
L 169.573369 243.404657 
L 170.341211 243.620568 
L 171.109052 243.512612 
L 171.876894 243.570189 
L 173.412577 243.339883 
L 174.180418 243.606174 
L 176.483942 243.34708 
L 177.251784 243.440642 
L 178.019625 243.138366 
L 179.555308 243.282307 
L 181.090991 243.282307 
L 181.858832 243.534204 
L 182.626674 242.749725 
L 183.394515 242.936848 
L 184.162356 243.311095 
L 186.465881 243.203139 
L 187.233722 243.433445 
L 188.001563 243.303898 
L 188.769405 243.39746 
L 189.537246 243.793297 
L 190.305088 243.332686 
L 191.072929 243.411854 
L 191.840771 242.411464 
L 192.608612 243.260716 
L 193.376453 242.807301 
L 194.144295 243.059198 
L 194.912136 243.188745 
L 195.679978 244.009209 
L 196.447819 243.289504 
L 197.21566 242.915257 
L 197.983502 242.994425 
L 198.751343 243.527007 
L 199.519185 242.260326 
L 200.287026 242.800104 
L 201.822709 242.857681 
L 202.59055 243.332686 
L 203.358392 243.052001 
L 204.126233 243.116775 
L 204.894075 242.778513 
L 205.661916 242.749725 
L 206.429757 243.570189 
L 207.197599 243.210336 
L 208.733282 242.706543 
L 209.501123 243.598977 
L 210.268965 243.15276 
L 211.036806 243.239125 
L 211.804647 242.634572 
L 212.572489 242.951242 
L 213.34033 242.749725 
L 214.108172 243.102381 
L 214.876013 243.188745 
L 215.643854 242.857681 
L 216.411696 242.850484 
L 217.179537 242.95844 
L 217.947379 242.90806 
L 218.71522 242.987228 
L 219.483062 242.253129 
L 220.250903 242.634572 
L 221.018744 242.188355 
L 221.786586 242.692149 
L 222.554427 242.195552 
L 224.09011 242.548208 
L 225.625793 242.433055 
L 227.929317 242.447449 
L 228.697159 242.807301 
L 229.465 242.519419 
L 230.232841 242.548208 
L 231.000683 242.447449 
L 231.768524 242.505025 
L 232.536366 242.080399 
L 233.304207 242.677755 
L 234.072049 242.159567 
L 234.83989 242.166764 
L 235.607731 241.698956 
L 236.375573 242.476237 
L 237.911256 242.03002 
L 238.679097 242.656163 
L 239.446938 243.008819 
L 240.21478 242.217143 
L 241.750463 242.447449 
L 242.518304 242.325099 
L 243.286146 241.95805 
L 244.053987 241.95805 
L 244.821828 242.209946 
L 245.58967 243.073592 
L 246.357511 242.217143 
L 247.125353 241.886079 
L 247.893194 242.598587 
L 248.661035 242.159567 
L 249.428877 242.066005 
L 250.196718 242.289114 
L 250.96456 242.735331 
L 251.732401 241.943655 
L 252.500243 242.440252 
L 253.268084 241.778123 
L 254.803767 241.95805 
L 255.571608 242.188355 
L 256.33945 242.022823 
L 257.107291 242.656163 
L 257.875132 242.253129 
L 258.642974 242.454646 
L 259.410815 242.425858 
L 260.178657 241.78532 
L 260.946498 242.296311 
L 261.71434 242.310705 
L 262.482181 242.181158 
L 263.250022 241.900473 
L 264.017864 242.339493 
L 264.785705 241.303118 
L 265.553547 241.295921 
L 266.321388 241.986838 
L 267.089229 241.411074 
L 267.857071 241.555015 
L 268.624912 242.044414 
L 269.392754 242.771316 
L 270.160595 241.583803 
L 270.928437 242.001232 
L 271.696278 242.051611 
L 272.464119 241.583803 
L 273.231961 241.519029 
L 273.999802 241.612591 
L 274.767644 242.058808 
L 275.535485 241.403877 
L 277.071168 242.296311 
L 277.839009 241.634182 
L 278.606851 241.382286 
L 280.142534 242.145173 
L 280.910375 241.339103 
L 281.678216 241.288724 
L 282.446058 241.763729 
L 283.981741 241.886079 
L 285.517423 241.087206 
L 287.053106 241.929261 
L 287.820948 242.001232 
L 288.588789 241.497438 
L 289.356631 241.209556 
L 290.124472 241.878882 
L 290.892313 241.533424 
L 291.660155 241.806911 
L 292.427996 241.475847 
L 293.195838 242.101991 
L 293.963679 241.95805 
L 294.73152 241.655773 
L 295.499362 242.245932 
L 296.267203 241.115995 
L 297.035045 241.562212 
L 297.802886 241.519029 
L 298.570728 240.90728 
L 299.338569 241.828503 
L 300.10641 241.670168 
L 300.874252 241.677365 
L 301.642093 241.072812 
L 302.409935 241.655773 
L 303.177776 241.475847 
L 303.945617 242.058808 
L 304.713459 241.036827 
L 305.4813 241.475847 
L 306.249142 241.763729 
L 307.016983 240.986448 
L 307.784825 241.591 
L 308.552666 241.986838 
L 309.320507 241.46865 
L 310.088349 241.727744 
L 310.85619 241.022433 
L 311.624032 241.540621 
L 312.391873 241.245542 
L 313.159714 241.115995 
L 313.927556 241.698956 
L 314.695397 241.137586 
L 315.463239 241.144783 
L 316.23108 240.518639 
L 316.998922 241.497438 
L 317.766763 241.072812 
L 318.534604 241.267133 
L 320.070287 241.130389 
L 320.838129 241.454256 
L 321.60597 241.022433 
L 322.373811 241.130389 
L 323.141653 241.115995 
L 323.909494 241.339103 
L 324.677336 240.921674 
L 325.445177 241.339103 
L 326.213019 241.137586 
L 327.748701 241.238344 
L 328.516543 240.820916 
L 329.284384 241.295921 
L 330.052226 241.058418 
L 330.820067 241.71335 
L 331.587909 241.27433 
L 332.35575 240.295531 
L 333.123591 240.813719 
L 333.891433 241.051221 
L 334.659274 241.159177 
L 336.194957 240.741748 
L 336.962798 241.000842 
L 337.73064 241.02963 
L 338.498481 240.842507 
L 340.034164 240.972054 
L 340.802006 240.540231 
L 342.337688 240.943265 
L 343.10553 240.71296 
L 343.873371 240.936068 
L 344.641213 240.864098 
L 345.409054 241.173571 
L 346.176895 240.95766 
L 346.944737 241.000842 
L 347.712578 240.655383 
L 348.48042 241.036827 
L 349.248261 240.374698 
L 350.016103 241.087206 
L 350.783944 240.669778 
L 351.551785 241.187965 
L 352.319627 240.864098 
L 353.087468 240.943265 
L 353.85531 241.555015 
L 354.623151 240.878492 
L 355.390992 240.936068 
L 356.158834 241.245542 
L 356.926675 240.71296 
L 357.694517 240.417881 
L 358.462358 241.051221 
L 359.2302 240.71296 
L 359.998041 240.676975 
L 361.533724 240.864098 
L 362.301565 240.799324 
L 363.069407 241.303118 
L 363.837248 240.936068 
L 364.605089 240.187575 
L 365.372931 241.044024 
L 366.140772 241.022433 
L 367.676455 240.525837 
L 368.444297 240.878492 
L 369.212138 240.561822 
L 369.979979 240.849704 
L 370.747821 240.885689 
L 371.515662 240.569019 
L 372.283504 240.705763 
L 373.051345 240.374698 
L 373.819186 241.317512 
L 375.354869 241.231147 
L 376.122711 240.525837 
L 376.890552 240.086816 
L 377.658394 241.389483 
L 378.426235 240.02924 
L 379.194076 241.022433 
L 379.961918 240.324319 
L 380.729759 240.482654 
L 381.497601 240.295531 
L 382.265442 241.159177 
L 383.033283 240.799324 
L 384.568966 240.518639 
L 385.336808 240.705763 
L 386.104649 240.482654 
L 386.872491 240.439472 
L 387.640332 240.928871 
L 388.408173 240.648186 
L 389.176015 240.799324 
L 389.943856 240.324319 
L 391.479539 240.619398 
L 392.24738 240.173181 
L 393.015222 240.381895 
L 393.783063 240.828113 
L 394.550905 240.497048 
L 396.086588 240.979251 
L 396.854429 240.71296 
L 397.62227 240.878492 
L 399.157953 240.497048 
L 399.925795 240.806521 
L 400.693636 240.101211 
L 401.461477 240.597807 
L 402.229319 240.900083 
L 402.99716 239.676585 
L 403.765002 241.195162 
L 404.532843 241.216753 
L 405.300685 240.34591 
L 406.068526 239.827723 
L 406.836367 241.252739 
L 407.604209 240.158787 
L 408.37205 239.806131 
L 409.139892 240.497048 
L 409.907733 240.15159 
L 410.675574 240.331516 
L 411.443416 239.734161 
L 412.211257 240.648186 
L 412.979099 240.410684 
L 413.74694 240.540231 
L 414.514782 240.34591 
L 415.282623 240.353107 
L 416.818306 240.144393 
L 417.586147 240.02924 
L 418.353989 240.684172 
L 419.12183 241.008039 
L 419.889671 240.108408 
L 420.657513 240.317122 
L 421.425354 240.360304 
L 421.425354 240.360304 
" style="fill:none;stroke:#0000ff;stroke-linecap:round;"/>
   </g>
   <g id="matplotlib.axis_1">
    <g id="xtick_1">
     <g id="line2d_2">
      <defs>
       <path d="M 0 0 
L 0 3.5 
" id="m8615691a8d" style="stroke:#000000;stroke-width:0.8;"/>
      </defs>
      <g>
       <use style="stroke:#000000;stroke-width:0.8;" x="37.504646" xlink:href="#m8615691a8d" y="258.685354"/>
      </g>
     </g>
     <g id="text_1">
      <!-- 0 -->
      <defs>
       <path d="M 31.78125 66.40625 
Q 24.171875 66.40625 20.328125 58.90625 
Q 16.5 51.421875 16.5 36.375 
Q 16.5 21.390625 20.328125 13.890625 
Q 24.171875 6.390625 31.78125 6.390625 
Q 39.453125 6.390625 43.28125 13.890625 
Q 47.125 21.390625 47.125 36.375 
Q 47.125 51.421875 43.28125 58.90625 
Q 39.453125 66.40625 31.78125 66.40625 
M 31.78125 74.21875 
Q 44.046875 74.21875 50.515625 64.515625 
Q 56.984375 54.828125 56.984375 36.375 
Q 56.984375 17.96875 50.515625 8.265625 
Q 44.046875 -1.421875 31.78125 -1.421875 
Q 19.53125 -1.421875 13.0625 8.265625 
Q 6.59375 17.96875 6.59375 36.375 
Q 6.59375 54.828125 13.0625 64.515625 
Q 19.53125 74.21875 31.78125 74.21875 
" id="DejaVuSans-30"/>
      </defs>
      <g transform="translate(34.959646 271.764104)scale(0.08 -0.08)">
       <use xlink:href="#DejaVuSans-30"/>
      </g>
     </g>
    </g>
    <g id="xtick_2">
     <g id="line2d_3">
      <g>
       <use style="stroke:#000000;stroke-width:0.8;" x="114.288787" xlink:href="#m8615691a8d" y="258.685354"/>
      </g>
     </g>
     <g id="text_2">
      <!-- 200 -->
      <defs>
       <path d="M 19.1875 8.296875 
L 53.609375 8.296875 
L 53.609375 0 
L 7.328125 0 
L 7.328125 8.296875 
Q 12.9375 14.109375 22.625 23.890625 
Q 32.328125 33.6875 34.8125 36.53125 
Q 39.546875 41.84375 41.421875 45.53125 
Q 43.3125 49.21875 43.3125 52.78125 
Q 43.3125 58.59375 39.234375 62.25 
Q 35.15625 65.921875 28.609375 65.921875 
Q 23.96875 65.921875 18.8125 64.3125 
Q 13.671875 62.703125 7.8125 59.421875 
L 7.8125 69.390625 
Q 13.765625 71.78125 18.9375 73 
Q 24.125 74.21875 28.421875 74.21875 
Q 39.75 74.21875 46.484375 68.546875 
Q 53.21875 62.890625 53.21875 53.421875 
Q 53.21875 48.921875 51.53125 44.890625 
Q 49.859375 40.875 45.40625 35.40625 
Q 44.1875 33.984375 37.640625 27.21875 
Q 31.109375 20.453125 19.1875 8.296875 
" id="DejaVuSans-32"/>
      </defs>
      <g transform="translate(106.653787 271.764104)scale(0.08 -0.08)">
       <use xlink:href="#DejaVuSans-32"/>
       <use x="63.623047" xlink:href="#DejaVuSans-30"/>
       <use x="127.246094" xlink:href="#DejaVuSans-30"/>
      </g>
     </g>
    </g>
    <g id="xtick_3">
     <g id="line2d_4">
      <g>
       <use style="stroke:#000000;stroke-width:0.8;" x="191.072929" xlink:href="#m8615691a8d" y="258.685354"/>
      </g>
     </g>
     <g id="text_3">
      <!-- 400 -->
      <defs>
       <path d="M 37.796875 64.3125 
L 12.890625 25.390625 
L 37.796875 25.390625 
z
M 35.203125 72.90625 
L 47.609375 72.90625 
L 47.609375 25.390625 
L 58.015625 25.390625 
L 58.015625 17.1875 
L 47.609375 17.1875 
L 47.609375 0 
L 37.796875 0 
L 37.796875 17.1875 
L 4.890625 17.1875 
L 4.890625 26.703125 
z
" id="DejaVuSans-34"/>
      </defs>
      <g transform="translate(183.437929 271.764104)scale(0.08 -0.08)">
       <use xlink:href="#DejaVuSans-34"/>
       <use x="63.623047" xlink:href="#DejaVuSans-30"/>
       <use x="127.246094" xlink:href="#DejaVuSans-30"/>
      </g>
     </g>
    </g>
    <g id="xtick_4">
     <g id="line2d_5">
      <g>
       <use style="stroke:#000000;stroke-width:0.8;" x="267.857071" xlink:href="#m8615691a8d" y="258.685354"/>
      </g>
     </g>
     <g id="text_4">
      <!-- 600 -->
      <defs>
       <path d="M 33.015625 40.375 
Q 26.375 40.375 22.484375 35.828125 
Q 18.609375 31.296875 18.609375 23.390625 
Q 18.609375 15.53125 22.484375 10.953125 
Q 26.375 6.390625 33.015625 6.390625 
Q 39.65625 6.390625 43.53125 10.953125 
Q 47.40625 15.53125 47.40625 23.390625 
Q 47.40625 31.296875 43.53125 35.828125 
Q 39.65625 40.375 33.015625 40.375 
M 52.59375 71.296875 
L 52.59375 62.3125 
Q 48.875 64.0625 45.09375 64.984375 
Q 41.3125 65.921875 37.59375 65.921875 
Q 27.828125 65.921875 22.671875 59.328125 
Q 17.53125 52.734375 16.796875 39.40625 
Q 19.671875 43.65625 24.015625 45.921875 
Q 28.375 48.1875 33.59375 48.1875 
Q 44.578125 48.1875 50.953125 41.515625 
Q 57.328125 34.859375 57.328125 23.390625 
Q 57.328125 12.15625 50.6875 5.359375 
Q 44.046875 -1.421875 33.015625 -1.421875 
Q 20.359375 -1.421875 13.671875 8.265625 
Q 6.984375 17.96875 6.984375 36.375 
Q 6.984375 53.65625 15.1875 63.9375 
Q 23.390625 74.21875 37.203125 74.21875 
Q 40.921875 74.21875 44.703125 73.484375 
Q 48.484375 72.75 52.59375 71.296875 
" id="DejaVuSans-36"/>
      </defs>
      <g transform="translate(260.222071 271.764104)scale(0.08 -0.08)">
       <use xlink:href="#DejaVuSans-36"/>
       <use x="63.623047" xlink:href="#DejaVuSans-30"/>
       <use x="127.246094" xlink:href="#DejaVuSans-30"/>
      </g>
     </g>
    </g>
    <g id="xtick_5">
     <g id="line2d_6">
      <g>
       <use style="stroke:#000000;stroke-width:0.8;" x="344.641213" xlink:href="#m8615691a8d" y="258.685354"/>
      </g>
     </g>
     <g id="text_5">
      <!-- 800 -->
      <defs>
       <path d="M 31.78125 34.625 
Q 24.75 34.625 20.71875 30.859375 
Q 16.703125 27.09375 16.703125 20.515625 
Q 16.703125 13.921875 20.71875 10.15625 
Q 24.75 6.390625 31.78125 6.390625 
Q 38.8125 6.390625 42.859375 10.171875 
Q 46.921875 13.96875 46.921875 20.515625 
Q 46.921875 27.09375 42.890625 30.859375 
Q 38.875 34.625 31.78125 34.625 
M 21.921875 38.8125 
Q 15.578125 40.375 12.03125 44.71875 
Q 8.5 49.078125 8.5 55.328125 
Q 8.5 64.0625 14.71875 69.140625 
Q 20.953125 74.21875 31.78125 74.21875 
Q 42.671875 74.21875 48.875 69.140625 
Q 55.078125 64.0625 55.078125 55.328125 
Q 55.078125 49.078125 51.53125 44.71875 
Q 48 40.375 41.703125 38.8125 
Q 48.828125 37.15625 52.796875 32.3125 
Q 56.78125 27.484375 56.78125 20.515625 
Q 56.78125 9.90625 50.3125 4.234375 
Q 43.84375 -1.421875 31.78125 -1.421875 
Q 19.734375 -1.421875 13.25 4.234375 
Q 6.78125 9.90625 6.78125 20.515625 
Q 6.78125 27.484375 10.78125 32.3125 
Q 14.796875 37.15625 21.921875 38.8125 
M 18.3125 54.390625 
Q 18.3125 48.734375 21.84375 45.5625 
Q 25.390625 42.390625 31.78125 42.390625 
Q 38.140625 42.390625 41.71875 45.5625 
Q 45.3125 48.734375 45.3125 54.390625 
Q 45.3125 60.0625 41.71875 63.234375 
Q 38.140625 66.40625 31.78125 66.40625 
Q 25.390625 66.40625 21.84375 63.234375 
Q 18.3125 60.0625 18.3125 54.390625 
" id="DejaVuSans-38"/>
      </defs>
      <g transform="translate(337.006213 271.764104)scale(0.08 -0.08)">
       <use xlink:href="#DejaVuSans-38"/>
       <use x="63.623047" xlink:href="#DejaVuSans-30"/>
       <use x="127.246094" xlink:href="#DejaVuSans-30"/>
      </g>
     </g>
    </g>
    <g id="xtick_6">
     <g id="line2d_7">
      <g>
       <use style="stroke:#000000;stroke-width:0.8;" x="421.425354" xlink:href="#m8615691a8d" y="258.685354"/>
      </g>
     </g>
     <g id="text_6">
      <!-- 1000 -->
      <defs>
       <path d="M 12.40625 8.296875 
L 28.515625 8.296875 
L 28.515625 63.921875 
L 10.984375 60.40625 
L 10.984375 69.390625 
L 28.421875 72.90625 
L 38.28125 72.90625 
L 38.28125 8.296875 
L 54.390625 8.296875 
L 54.390625 0 
L 12.40625 0 
z
" id="DejaVuSans-31"/>
      </defs>
      <g transform="translate(411.245354 271.764104)scale(0.08 -0.08)">
       <use xlink:href="#DejaVuSans-31"/>
       <use x="63.623047" xlink:href="#DejaVuSans-30"/>
       <use x="127.246094" xlink:href="#DejaVuSans-30"/>
       <use x="190.869141" xlink:href="#DejaVuSans-30"/>
      </g>
     </g>
    </g>
    <g id="text_7">
     <!-- time -->
     <defs>
      <path d="M 18.3125 70.21875 
L 18.3125 54.6875 
L 36.8125 54.6875 
L 36.8125 47.703125 
L 18.3125 47.703125 
L 18.3125 18.015625 
Q 18.3125 11.328125 20.140625 9.421875 
Q 21.96875 7.515625 27.59375 7.515625 
L 36.8125 7.515625 
L 36.8125 0 
L 27.59375 0 
Q 17.1875 0 13.234375 3.875 
Q 9.28125 7.765625 9.28125 18.015625 
L 9.28125 47.703125 
L 2.6875 47.703125 
L 2.6875 54.6875 
L 9.28125 54.6875 
L 9.28125 70.21875 
z
" id="DejaVuSans-74"/>
      <path d="M 9.421875 54.6875 
L 18.40625 54.6875 
L 18.40625 0 
L 9.421875 0 
z
M 9.421875 75.984375 
L 18.40625 75.984375 
L 18.40625 64.59375 
L 9.421875 64.59375 
z
" id="DejaVuSans-69"/>
      <path d="M 52 44.1875 
Q 55.375 50.25 60.0625 53.125 
Q 64.75 56 71.09375 56 
Q 79.640625 56 84.28125 50.015625 
Q 88.921875 44.046875 88.921875 33.015625 
L 88.921875 0 
L 79.890625 0 
L 79.890625 32.71875 
Q 79.890625 40.578125 77.09375 44.375 
Q 74.3125 48.1875 68.609375 48.1875 
Q 61.625 48.1875 57.5625 43.546875 
Q 53.515625 38.921875 53.515625 30.90625 
L 53.515625 0 
L 44.484375 0 
L 44.484375 32.71875 
Q 44.484375 40.625 41.703125 44.40625 
Q 38.921875 48.1875 33.109375 48.1875 
Q 26.21875 48.1875 22.15625 43.53125 
Q 18.109375 38.875 18.109375 30.90625 
L 18.109375 0 
L 9.078125 0 
L 9.078125 54.6875 
L 18.109375 54.6875 
L 18.109375 46.1875 
Q 21.1875 51.21875 25.484375 53.609375 
Q 29.78125 56 35.6875 56 
Q 41.65625 56 45.828125 52.96875 
Q 50 49.953125 52 44.1875 
" id="DejaVuSans-6d"/>
      <path d="M 56.203125 29.59375 
L 56.203125 25.203125 
L 14.890625 25.203125 
Q 15.484375 15.921875 20.484375 11.0625 
Q 25.484375 6.203125 34.421875 6.203125 
Q 39.59375 6.203125 44.453125 7.46875 
Q 49.3125 8.734375 54.109375 11.28125 
L 54.109375 2.78125 
Q 49.265625 0.734375 44.1875 -0.34375 
Q 39.109375 -1.421875 33.890625 -1.421875 
Q 20.796875 -1.421875 13.15625 6.1875 
Q 5.515625 13.8125 5.515625 26.8125 
Q 5.515625 40.234375 12.765625 48.109375 
Q 20.015625 56 32.328125 56 
Q 43.359375 56 49.78125 48.890625 
Q 56.203125 41.796875 56.203125 29.59375 
M 47.21875 32.234375 
Q 47.125 39.59375 43.09375 43.984375 
Q 39.0625 48.390625 32.421875 48.390625 
Q 24.90625 48.390625 20.390625 44.140625 
Q 15.875 39.890625 15.1875 32.171875 
z
" id="DejaVuSans-65"/>
     </defs>
     <g transform="translate(217.039297 285.786136)scale(0.11 -0.11)">
      <use xlink:href="#DejaVuSans-74"/>
      <use x="39.208984" xlink:href="#DejaVuSans-69"/>
      <use x="66.992188" xlink:href="#DejaVuSans-6d"/>
      <use x="164.404297" xlink:href="#DejaVuSans-65"/>
     </g>
    </g>
   </g>
   <g id="matplotlib.axis_2">
    <g id="ytick_1">
     <g id="line2d_8">
      <defs>
       <path d="M 0 0 
L -3.5 0 
" id="m922d0652c7" style="stroke:#000000;stroke-width:0.8;"/>
      </defs>
      <g>
       <use style="stroke:#000000;stroke-width:0.8;" x="37.504646" xlink:href="#m922d0652c7" y="256.532077"/>
      </g>
     </g>
     <g id="text_8">
      <!-- 0 -->
      <g transform="translate(25.414646 259.571452)scale(0.08 -0.08)">
       <use xlink:href="#DejaVuSans-30"/>
      </g>
     </g>
    </g>
    <g id="ytick_2">
     <g id="line2d_9">
      <g>
       <use style="stroke:#000000;stroke-width:0.8;" x="37.504646" xlink:href="#m922d0652c7" y="184.561572"/>
      </g>
     </g>
     <g id="text_9">
      <!-- 100 -->
      <g transform="translate(15.234646 187.600947)scale(0.08 -0.08)">
       <use xlink:href="#DejaVuSans-31"/>
       <use x="63.623047" xlink:href="#DejaVuSans-30"/>
       <use x="127.246094" xlink:href="#DejaVuSans-30"/>
      </g>
     </g>
    </g>
    <g id="ytick_3">
     <g id="line2d_10">
      <g>
       <use style="stroke:#000000;stroke-width:0.8;" x="37.504646" xlink:href="#m922d0652c7" y="112.591068"/>
      </g>
     </g>
     <g id="text_10">
      <!-- 200 -->
      <g transform="translate(15.234646 115.630443)scale(0.08 -0.08)">
       <use xlink:href="#DejaVuSans-32"/>
       <use x="63.623047" xlink:href="#DejaVuSans-30"/>
       <use x="127.246094" xlink:href="#DejaVuSans-30"/>
      </g>
     </g>
    </g>
    <g id="ytick_4">
     <g id="line2d_11">
      <g>
       <use style="stroke:#000000;stroke-width:0.8;" x="37.504646" xlink:href="#m922d0652c7" y="40.620564"/>
      </g>
     </g>
     <g id="text_11">
      <!-- 300 -->
      <defs>
       <path d="M 40.578125 39.3125 
Q 47.65625 37.796875 51.625 33 
Q 55.609375 28.21875 55.609375 21.1875 
Q 55.609375 10.40625 48.1875 4.484375 
Q 40.765625 -1.421875 27.09375 -1.421875 
Q 22.515625 -1.421875 17.65625 -0.515625 
Q 12.796875 0.390625 7.625 2.203125 
L 7.625 11.71875 
Q 11.71875 9.328125 16.59375 8.109375 
Q 21.484375 6.890625 26.8125 6.890625 
Q 36.078125 6.890625 40.9375 10.546875 
Q 45.796875 14.203125 45.796875 21.1875 
Q 45.796875 27.640625 41.28125 31.265625 
Q 36.765625 34.90625 28.71875 34.90625 
L 20.21875 34.90625 
L 20.21875 43.015625 
L 29.109375 43.015625 
Q 36.375 43.015625 40.234375 45.921875 
Q 44.09375 48.828125 44.09375 54.296875 
Q 44.09375 59.90625 40.109375 62.90625 
Q 36.140625 65.921875 28.71875 65.921875 
Q 24.65625 65.921875 20.015625 65.03125 
Q 15.375 64.15625 9.8125 62.3125 
L 9.8125 71.09375 
Q 15.4375 72.65625 20.34375 73.4375 
Q 25.25 74.21875 29.59375 74.21875 
Q 40.828125 74.21875 47.359375 69.109375 
Q 53.90625 64.015625 53.90625 55.328125 
Q 53.90625 49.265625 50.4375 45.09375 
Q 46.96875 40.921875 40.578125 39.3125 
" id="DejaVuSans-33"/>
      </defs>
      <g transform="translate(15.234646 43.659939)scale(0.08 -0.08)">
       <use xlink:href="#DejaVuSans-33"/>
       <use x="63.623047" xlink:href="#DejaVuSans-30"/>
       <use x="127.246094" xlink:href="#DejaVuSans-30"/>
      </g>
     </g>
    </g>
    <g id="text_12">
     <!-- population mean -->
     <defs>
      <path d="M 18.109375 8.203125 
L 18.109375 -20.796875 
L 9.078125 -20.796875 
L 9.078125 54.6875 
L 18.109375 54.6875 
L 18.109375 46.390625 
Q 20.953125 51.265625 25.265625 53.625 
Q 29.59375 56 35.59375 56 
Q 45.5625 56 51.78125 48.09375 
Q 58.015625 40.1875 58.015625 27.296875 
Q 58.015625 14.40625 51.78125 6.484375 
Q 45.5625 -1.421875 35.59375 -1.421875 
Q 29.59375 -1.421875 25.265625 0.953125 
Q 20.953125 3.328125 18.109375 8.203125 
M 48.6875 27.296875 
Q 48.6875 37.203125 44.609375 42.84375 
Q 40.53125 48.484375 33.40625 48.484375 
Q 26.265625 48.484375 22.1875 42.84375 
Q 18.109375 37.203125 18.109375 27.296875 
Q 18.109375 17.390625 22.1875 11.75 
Q 26.265625 6.109375 33.40625 6.109375 
Q 40.53125 6.109375 44.609375 11.75 
Q 48.6875 17.390625 48.6875 27.296875 
" id="DejaVuSans-70"/>
      <path d="M 30.609375 48.390625 
Q 23.390625 48.390625 19.1875 42.75 
Q 14.984375 37.109375 14.984375 27.296875 
Q 14.984375 17.484375 19.15625 11.84375 
Q 23.34375 6.203125 30.609375 6.203125 
Q 37.796875 6.203125 41.984375 11.859375 
Q 46.1875 17.53125 46.1875 27.296875 
Q 46.1875 37.015625 41.984375 42.703125 
Q 37.796875 48.390625 30.609375 48.390625 
M 30.609375 56 
Q 42.328125 56 49.015625 48.375 
Q 55.71875 40.765625 55.71875 27.296875 
Q 55.71875 13.875 49.015625 6.21875 
Q 42.328125 -1.421875 30.609375 -1.421875 
Q 18.84375 -1.421875 12.171875 6.21875 
Q 5.515625 13.875 5.515625 27.296875 
Q 5.515625 40.765625 12.171875 48.375 
Q 18.84375 56 30.609375 56 
" id="DejaVuSans-6f"/>
      <path d="M 8.5 21.578125 
L 8.5 54.6875 
L 17.484375 54.6875 
L 17.484375 21.921875 
Q 17.484375 14.15625 20.5 10.265625 
Q 23.53125 6.390625 29.59375 6.390625 
Q 36.859375 6.390625 41.078125 11.03125 
Q 45.3125 15.671875 45.3125 23.6875 
L 45.3125 54.6875 
L 54.296875 54.6875 
L 54.296875 0 
L 45.3125 0 
L 45.3125 8.40625 
Q 42.046875 3.421875 37.71875 1 
Q 33.40625 -1.421875 27.6875 -1.421875 
Q 18.265625 -1.421875 13.375 4.4375 
Q 8.5 10.296875 8.5 21.578125 
M 31.109375 56 
z
" id="DejaVuSans-75"/>
      <path d="M 9.421875 75.984375 
L 18.40625 75.984375 
L 18.40625 0 
L 9.421875 0 
z
" id="DejaVuSans-6c"/>
      <path d="M 34.28125 27.484375 
Q 23.390625 27.484375 19.1875 25 
Q 14.984375 22.515625 14.984375 16.5 
Q 14.984375 11.71875 18.140625 8.90625 
Q 21.296875 6.109375 26.703125 6.109375 
Q 34.1875 6.109375 38.703125 11.40625 
Q 43.21875 16.703125 43.21875 25.484375 
L 43.21875 27.484375 
z
M 52.203125 31.203125 
L 52.203125 0 
L 43.21875 0 
L 43.21875 8.296875 
Q 40.140625 3.328125 35.546875 0.953125 
Q 30.953125 -1.421875 24.3125 -1.421875 
Q 15.921875 -1.421875 10.953125 3.296875 
Q 6 8.015625 6 15.921875 
Q 6 25.140625 12.171875 29.828125 
Q 18.359375 34.515625 30.609375 34.515625 
L 43.21875 34.515625 
L 43.21875 35.40625 
Q 43.21875 41.609375 39.140625 45 
Q 35.0625 48.390625 27.6875 48.390625 
Q 23 48.390625 18.546875 47.265625 
Q 14.109375 46.140625 10.015625 43.890625 
L 10.015625 52.203125 
Q 14.9375 54.109375 19.578125 55.046875 
Q 24.21875 56 28.609375 56 
Q 40.484375 56 46.34375 49.84375 
Q 52.203125 43.703125 52.203125 31.203125 
" id="DejaVuSans-61"/>
      <path d="M 54.890625 33.015625 
L 54.890625 0 
L 45.90625 0 
L 45.90625 32.71875 
Q 45.90625 40.484375 42.875 44.328125 
Q 39.84375 48.1875 33.796875 48.1875 
Q 26.515625 48.1875 22.3125 43.546875 
Q 18.109375 38.921875 18.109375 30.90625 
L 18.109375 0 
L 9.078125 0 
L 9.078125 54.6875 
L 18.109375 54.6875 
L 18.109375 46.1875 
Q 21.34375 51.125 25.703125 53.5625 
Q 30.078125 56 35.796875 56 
Q 45.21875 56 50.046875 50.171875 
Q 54.890625 44.34375 54.890625 33.015625 
" id="DejaVuSans-6e"/>
      <path id="DejaVuSans-20"/>
     </defs>
     <g transform="translate(8.946989 177.373359)rotate(-90)scale(0.11 -0.11)">
      <use xlink:href="#DejaVuSans-70"/>
      <use x="63.476562" xlink:href="#DejaVuSans-6f"/>
      <use x="124.658203" xlink:href="#DejaVuSans-70"/>
      <use x="188.134766" xlink:href="#DejaVuSans-75"/>
      <use x="251.513672" xlink:href="#DejaVuSans-6c"/>
      <use x="279.296875" xlink:href="#DejaVuSans-61"/>
      <use x="340.576172" xlink:href="#DejaVuSans-74"/>
      <use x="379.785156" xlink:href="#DejaVuSans-69"/>
      <use x="407.568359" xlink:href="#DejaVuSans-6f"/>
      <use x="468.75" xlink:href="#DejaVuSans-6e"/>
      <use x="532.128906" xlink:href="#DejaVuSans-20"/>
      <use x="563.916016" xlink:href="#DejaVuSans-6d"/>
      <use x="661.328125" xlink:href="#DejaVuSans-65"/>
      <use x="722.851562" xlink:href="#DejaVuSans-61"/>
      <use x="784.130859" xlink:href="#DejaVuSans-6e"/>
     </g>
    </g>
   </g>
   <g id="PolyCollection_2">
    <path clip-path="url(#pea27cd07a9)" d="M 37.504646 256.532077 
L 37.504646 256.532077 
L 38.272487 257.04203 
L 39.040329 257.512568 
L 39.80817 258.465855 
L 40.576011 258.685354 
L 41.343853 258.466342 
L 42.111694 258.284371 
L 42.879536 258.057405 
L 43.647377 256.944536 
L 44.415218 255.454977 
L 45.18306 254.378919 
L 45.950901 253.49087 
L 46.718743 252.750826 
L 47.486584 251.814199 
L 48.254426 250.610381 
L 49.022267 248.961756 
L 49.790108 247.716389 
L 50.55795 246.746062 
L 51.325791 245.670017 
L 52.093633 244.231064 
L 52.861474 242.783922 
L 53.629315 241.560619 
L 54.397157 240.820916 
L 55.164998 239.706348 
L 55.93284 238.740932 
L 56.700681 236.983965 
L 57.468523 236.135171 
L 58.236364 236.060198 
L 59.004205 234.821835 
L 59.772047 234.473255 
L 60.539888 233.876863 
L 61.30773 233.397587 
L 62.075571 232.688052 
L 62.843412 232.006791 
L 63.611254 230.689721 
L 64.379095 230.423357 
L 65.146937 229.242368 
L 65.914778 228.441847 
L 66.68262 228.193605 
L 67.450461 227.920972 
L 68.218302 227.492077 
L 68.986144 226.933827 
L 69.753985 226.143994 
L 70.521827 225.220283 
L 71.289668 224.528443 
L 72.057509 223.627626 
L 72.825351 223.376135 
L 73.593192 222.588632 
L 74.361034 222.314426 
L 75.128875 221.687722 
L 75.896717 221.297978 
L 76.664558 221.345831 
L 77.432399 220.483749 
L 78.200241 219.678547 
L 78.968082 219.056601 
L 79.735924 218.243559 
L 80.503765 217.676604 
L 81.271606 217.091329 
L 82.039448 216.245277 
L 82.807289 215.291421 
L 83.575131 215.158456 
L 84.342972 214.328016 
L 85.110814 214.331186 
L 85.878655 213.713816 
L 86.646496 213.816646 
L 87.414338 213.405695 
L 88.182179 213.689689 
L 88.950021 213.734174 
L 89.717862 213.947774 
L 90.485703 214.340644 
L 91.253545 214.1928 
L 92.021386 215.031929 
L 92.789228 214.521495 
L 93.557069 215.133078 
L 94.324911 216.090994 
L 95.092752 215.300046 
L 95.860593 215.712127 
L 96.628435 216.387348 
L 97.396276 216.541444 
L 98.164118 216.027052 
L 98.931959 216.000956 
L 99.6998 215.063023 
L 100.467642 215.136933 
L 101.235483 214.334595 
L 102.003325 214.231576 
L 102.771166 214.380729 
L 103.539008 213.770942 
L 104.306849 213.541643 
L 105.07469 214.082572 
L 105.842532 213.295214 
L 106.610373 213.398655 
L 107.378215 214.054558 
L 108.146056 214.149407 
L 108.913897 213.416763 
L 109.681739 213.322805 
L 110.44958 212.754737 
L 111.217422 212.432897 
L 111.985263 212.227401 
L 112.753105 212.496415 
L 113.520946 212.474673 
L 114.288787 212.12175 
L 115.056629 211.460006 
L 115.82447 210.592248 
L 116.592312 211.243407 
L 117.360153 209.816392 
L 118.127994 209.530436 
L 118.895836 208.941022 
L 119.663677 208.786224 
L 120.431519 208.933249 
L 121.19936 208.697573 
L 121.967202 208.253662 
L 122.735043 208.454859 
L 123.502884 208.682677 
L 124.270726 208.371646 
L 125.038567 208.332272 
L 125.806409 208.126441 
L 126.57425 207.981311 
L 127.342091 207.392423 
L 128.109933 208.273352 
L 128.877774 207.581694 
L 129.645616 207.438843 
L 130.413457 207.122831 
L 131.181299 206.677698 
L 131.94914 206.608492 
L 132.716981 206.339673 
L 133.484823 205.619434 
L 134.252664 205.31184 
L 135.020506 205.008552 
L 135.788347 204.410182 
L 136.556189 202.98797 
L 137.32403 203.358237 
L 138.091871 202.636005 
L 138.859713 201.860109 
L 139.627554 201.946348 
L 140.395396 202.027731 
L 141.163237 200.734107 
L 141.931078 200.214602 
L 142.69892 200.143269 
L 143.466761 199.846018 
L 144.234603 199.512565 
L 145.002444 198.98363 
L 145.770286 198.891979 
L 146.538127 198.676822 
L 147.305968 198.528387 
L 148.07381 198.571238 
L 148.841651 198.554454 
L 149.609493 198.350446 
L 150.377334 198.243702 
L 151.145175 198.581933 
L 151.913017 197.906572 
L 152.680858 197.789623 
L 153.4487 197.382956 
L 154.216541 197.456838 
L 154.984383 196.706618 
L 155.752224 196.825768 
L 156.520065 196.300417 
L 157.287907 196.590269 
L 158.055748 196.016486 
L 158.82359 196.251285 
L 159.591431 195.998808 
L 160.359272 195.629132 
L 161.127114 195.386829 
L 161.894955 195.081062 
L 162.662797 194.840771 
L 163.430638 194.615553 
L 164.19848 194.384231 
L 164.966321 194.322621 
L 165.734162 194.648386 
L 166.502004 194.44045 
L 167.269845 193.880864 
L 168.037687 193.931567 
L 168.805528 193.82423 
L 169.573369 193.291244 
L 170.341211 193.108797 
L 171.109052 192.948982 
L 171.876894 192.720079 
L 172.644735 191.84349 
L 173.412577 192.003474 
L 174.180418 191.553781 
L 174.948259 191.67781 
L 175.716101 190.706302 
L 176.483942 190.666281 
L 177.251784 189.65705 
L 178.019625 189.64037 
L 178.787466 188.712576 
L 179.555308 188.219751 
L 180.323149 187.766465 
L 181.090991 187.466451 
L 181.858832 186.964662 
L 182.626674 187.246441 
L 183.394515 186.117123 
L 184.162356 185.569626 
L 184.930198 185.114196 
L 185.698039 184.728436 
L 186.465881 184.825656 
L 187.233722 183.881384 
L 188.001563 184.129129 
L 188.769405 184.190549 
L 189.537246 183.55693 
L 190.305088 184.01981 
L 191.072929 183.690447 
L 191.840771 184.353921 
L 192.608612 183.575824 
L 193.376453 184.18858 
L 194.144295 183.837823 
L 194.912136 183.537878 
L 195.679978 183.563267 
L 196.447819 183.306545 
L 197.21566 183.710588 
L 197.983502 183.429495 
L 198.751343 183.037913 
L 199.519185 183.231636 
L 200.287026 182.865952 
L 201.054868 182.548421 
L 201.822709 182.630993 
L 202.59055 182.296163 
L 203.358392 181.731665 
L 204.126233 181.64357 
L 204.894075 180.539116 
L 205.661916 180.879817 
L 206.429757 179.603208 
L 207.197599 179.553356 
L 207.96544 179.863436 
L 208.733282 179.628039 
L 209.501123 178.86185 
L 210.268965 178.776766 
L 211.036806 178.476764 
L 211.804647 178.910163 
L 212.572489 177.990718 
L 213.34033 177.811112 
L 214.108172 176.912432 
L 214.876013 176.790784 
L 215.643854 176.827904 
L 216.411696 177.297424 
L 217.179537 176.983224 
L 217.947379 177.140168 
L 218.71522 176.539765 
L 219.483062 176.067189 
L 220.250903 175.817693 
L 221.018744 176.364747 
L 221.786586 175.361382 
L 222.554427 175.74395 
L 223.322269 175.046018 
L 224.09011 174.304776 
L 224.857951 173.895516 
L 225.625793 173.951132 
L 226.393634 173.605395 
L 227.161476 173.619075 
L 227.929317 173.343406 
L 228.697159 172.964435 
L 229.465 173.077433 
L 230.232841 172.970007 
L 231.000683 172.88724 
L 231.768524 173.018292 
L 232.536366 172.932063 
L 233.304207 172.859605 
L 234.072049 172.672435 
L 234.83989 172.080802 
L 235.607731 171.826145 
L 236.375573 171.271438 
L 237.143414 171.083123 
L 237.911256 171.196879 
L 238.679097 170.844081 
L 239.446938 170.208057 
L 240.21478 170.392513 
L 240.982621 170.297307 
L 241.750463 170.213534 
L 242.518304 169.501155 
L 243.286146 169.922315 
L 244.053987 170.505662 
L 244.821828 170.087437 
L 245.58967 169.805886 
L 246.357511 170.185848 
L 247.125353 170.022089 
L 247.893194 169.77249 
L 248.661035 170.128503 
L 249.428877 169.484293 
L 250.196718 169.412857 
L 250.96456 169.033054 
L 251.732401 169.166607 
L 252.500243 168.961371 
L 253.268084 168.832041 
L 254.035925 169.051258 
L 254.803767 169.001282 
L 255.571608 169.039534 
L 256.33945 169.591884 
L 257.107291 169.322486 
L 257.875132 169.409733 
L 258.642974 169.062222 
L 259.410815 168.714919 
L 260.178657 168.951513 
L 260.946498 168.541889 
L 261.71434 168.378604 
L 262.482181 168.987229 
L 263.250022 169.122279 
L 264.017864 168.123314 
L 264.785705 167.865718 
L 265.553547 168.582092 
L 266.321388 167.308653 
L 267.089229 167.43764 
L 267.857071 166.696265 
L 268.624912 166.595255 
L 269.392754 165.978863 
L 270.160595 166.55718 
L 270.928437 165.899551 
L 271.696278 165.717908 
L 272.464119 165.364154 
L 273.231961 165.51256 
L 273.999802 165.392501 
L 274.767644 165.08316 
L 275.535485 164.693929 
L 276.303326 164.122417 
L 277.071168 163.29326 
L 277.839009 163.443285 
L 278.606851 163.308822 
L 279.374692 163.663906 
L 280.142534 162.927794 
L 280.910375 163.512798 
L 281.678216 163.056534 
L 282.446058 163.075181 
L 283.213899 163.01835 
L 283.981741 162.672391 
L 284.749582 163.150251 
L 285.517423 163.474616 
L 286.285265 163.33315 
L 287.053106 162.730618 
L 287.820948 163.06226 
L 288.588789 163.295831 
L 289.356631 163.134512 
L 290.124472 162.504163 
L 290.892313 162.204272 
L 291.660155 161.98986 
L 292.427996 161.865319 
L 293.195838 161.879764 
L 293.963679 161.529819 
L 294.73152 161.940589 
L 295.499362 161.705762 
L 296.267203 161.962587 
L 297.035045 161.497538 
L 297.802886 161.069515 
L 298.570728 161.350274 
L 299.338569 161.132796 
L 300.10641 160.6026 
L 300.874252 160.71022 
L 301.642093 160.336607 
L 302.409935 160.000707 
L 303.177776 159.603815 
L 303.945617 159.257148 
L 304.713459 159.844597 
L 305.4813 160.295595 
L 306.249142 159.757092 
L 307.016983 159.688466 
L 307.784825 159.227441 
L 308.552666 159.041593 
L 309.320507 158.752977 
L 310.088349 157.831296 
L 310.85619 157.678885 
L 311.624032 157.355047 
L 312.391873 156.580804 
L 313.159714 155.671157 
L 313.927556 155.21701 
L 314.695397 153.880814 
L 315.463239 153.39895 
L 316.23108 153.124874 
L 316.998922 152.34185 
L 317.766763 152.250348 
L 318.534604 151.980245 
L 319.302446 151.497655 
L 320.070287 151.140201 
L 320.838129 151.392849 
L 321.60597 151.24961 
L 322.373811 151.112829 
L 323.141653 151.231023 
L 323.909494 151.281003 
L 324.677336 151.80922 
L 325.445177 151.580148 
L 326.213019 151.40836 
L 326.98086 151.16622 
L 327.748701 150.621037 
L 328.516543 151.132782 
L 329.284384 150.414725 
L 330.052226 150.768129 
L 330.820067 150.37855 
L 331.587909 150.413867 
L 332.35575 150.341408 
L 333.123591 149.732655 
L 333.891433 149.608739 
L 334.659274 148.973732 
L 335.427116 149.017319 
L 336.194957 148.591622 
L 336.962798 148.249965 
L 337.73064 148.096442 
L 338.498481 148.65467 
L 339.266323 148.735407 
L 340.034164 148.061581 
L 340.802006 148.232368 
L 341.569847 147.952744 
L 342.337688 147.975164 
L 343.10553 148.138049 
L 343.873371 147.924207 
L 344.641213 147.835207 
L 345.409054 147.500272 
L 346.176895 147.444922 
L 346.944737 147.638454 
L 347.712578 147.980928 
L 348.48042 147.567065 
L 349.248261 147.902164 
L 350.016103 147.0265 
L 350.783944 147.288005 
L 351.551785 146.935668 
L 352.319627 146.360186 
L 353.087468 146.545375 
L 353.85531 146.128499 
L 354.623151 146.679478 
L 355.390992 146.407852 
L 356.158834 146.766663 
L 356.926675 146.81995 
L 357.694517 147.535469 
L 358.462358 147.152269 
L 359.2302 147.129801 
L 359.998041 147.222383 
L 360.765882 146.975722 
L 361.533724 146.652926 
L 362.301565 146.511859 
L 363.069407 145.859558 
L 363.837248 145.712375 
L 364.605089 145.387106 
L 365.372931 144.986717 
L 366.140772 145.016585 
L 366.908614 144.90505 
L 367.676455 145.235112 
L 368.444297 145.144604 
L 369.212138 144.657634 
L 369.979979 144.524375 
L 370.747821 143.841321 
L 371.515662 143.634132 
L 372.283504 143.159935 
L 373.051345 143.295082 
L 373.819186 142.132947 
L 374.587028 142.093634 
L 375.354869 142.120194 
L 376.122711 141.917063 
L 376.890552 141.580622 
L 377.658394 140.819279 
L 378.426235 140.848239 
L 379.194076 140.549278 
L 379.961918 140.413007 
L 380.729759 139.794103 
L 381.497601 139.2778 
L 382.265442 139.124293 
L 383.033283 139.426082 
L 383.801125 139.376936 
L 384.568966 139.882836 
L 385.336808 139.464649 
L 386.104649 140.016302 
L 386.872491 139.832494 
L 387.640332 139.285837 
L 388.408173 139.105176 
L 389.176015 138.902869 
L 389.943856 138.861282 
L 390.711698 138.205453 
L 391.479539 137.807387 
L 392.24738 137.622021 
L 393.015222 137.760413 
L 393.783063 137.511974 
L 394.550905 136.787772 
L 395.318746 136.990547 
L 396.086588 137.006421 
L 396.854429 137.01589 
L 397.62227 137.01085 
L 398.390112 137.248235 
L 399.157953 137.283555 
L 399.925795 137.121628 
L 400.693636 137.785287 
L 401.461477 137.206801 
L 402.229319 137.130626 
L 402.99716 137.536449 
L 403.765002 136.820978 
L 404.532843 137.169212 
L 405.300685 136.871703 
L 406.068526 136.979378 
L 406.836367 136.381511 
L 407.604209 136.142229 
L 408.37205 136.8982 
L 409.139892 136.38417 
L 409.907733 136.457503 
L 410.675574 136.5417 
L 411.443416 136.416295 
L 412.211257 136.392012 
L 412.979099 136.286135 
L 413.74694 136.455676 
L 414.514782 136.272518 
L 415.282623 136.447988 
L 416.050464 136.37665 
L 416.818306 136.638582 
L 417.586147 136.373636 
L 418.353989 135.905898 
L 419.12183 135.441141 
L 419.889671 136.278636 
L 420.657513 136.126827 
L 421.425354 135.784431 
L 421.425354 2.946736 
L 421.425354 2.946736 
L 420.657513 2.834646 
L 419.889671 3.272994 
L 419.12183 3.808213 
L 418.353989 4.509379 
L 417.586147 5.624992 
L 416.818306 5.561563 
L 416.050464 6.0538 
L 415.282623 5.780945 
L 414.514782 6.057174 
L 413.74694 5.787652 
L 412.979099 6.15871 
L 412.211257 6.024044 
L 411.443416 7.093713 
L 410.675574 6.709215 
L 409.907733 7.196447 
L 409.139892 6.809168 
L 408.37205 7.158784 
L 407.604209 7.51172 
L 406.836367 6.408792 
L 406.068526 7.782917 
L 405.300685 8.048928 
L 404.532843 7.146866 
L 403.765002 7.869347 
L 402.99716 8.766015 
L 402.229319 8.452133 
L 401.461477 9.124451 
L 400.693636 9.280065 
L 399.925795 9.569476 
L 399.157953 10.314378 
L 398.390112 10.090604 
L 397.62227 10.702236 
L 396.854429 11.344931 
L 396.086588 11.282429 
L 395.318746 11.614973 
L 394.550905 11.990477 
L 393.783063 11.151122 
L 393.015222 11.363295 
L 392.24738 12.120633 
L 391.479539 11.892085 
L 390.711698 11.609171 
L 389.943856 11.529106 
L 389.176015 11.573884 
L 388.408173 11.558701 
L 387.640332 11.291675 
L 386.872491 11.507905 
L 386.104649 11.007427 
L 385.336808 11.515898 
L 384.568966 11.745446 
L 383.801125 12.006645 
L 383.033283 11.971894 
L 382.265442 12.2305 
L 381.497601 12.940639 
L 380.729759 12.755401 
L 379.961918 13.403177 
L 379.194076 13.310089 
L 378.426235 14.49372 
L 377.658394 14.191616 
L 376.890552 15.301506 
L 376.122711 15.353706 
L 375.354869 15.092998 
L 374.587028 15.839263 
L 373.819186 16.505261 
L 373.051345 16.681778 
L 372.283504 17.133595 
L 371.515662 17.58062 
L 370.747821 17.531767 
L 369.979979 17.597205 
L 369.212138 18.52911 
L 368.444297 18.459569 
L 367.676455 18.944825 
L 366.908614 19.433222 
L 366.140772 19.667145 
L 365.372931 19.912926 
L 364.605089 20.678459 
L 363.837248 20.022125 
L 363.069407 19.990095 
L 362.301565 20.374169 
L 361.533724 20.99599 
L 360.765882 21.105016 
L 359.998041 21.333361 
L 359.2302 21.38276 
L 358.462358 20.82771 
L 357.694517 20.54527 
L 356.926675 20.771389 
L 356.158834 20.378459 
L 355.390992 20.967575 
L 354.623151 20.854285 
L 353.85531 20.656771 
L 353.087468 20.902023 
L 352.319627 21.231153 
L 351.551785 20.339001 
L 350.783944 20.53364 
L 350.016103 20.291351 
L 349.248261 20.336909 
L 348.48042 20.096245 
L 347.712578 20.286934 
L 346.944737 19.895309 
L 346.176895 20.088841 
L 345.409054 19.803185 
L 344.641213 20.173561 
L 343.873371 19.94062 
L 343.10553 20.01466 
L 342.337688 20.321486 
L 341.569847 20.934064 
L 340.802006 21.53248 
L 340.034164 21.717661 
L 339.266323 21.734753 
L 338.498481 21.829884 
L 337.73064 22.157806 
L 336.962798 22.033071 
L 336.194957 21.92172 
L 335.427116 21.726328 
L 334.659274 22.086585 
L 333.891433 21.768249 
L 333.123591 21.745092 
L 332.35575 22.259078 
L 331.587909 21.308579 
L 330.820067 21.35829 
L 330.052226 22.134633 
L 329.284384 22.430461 
L 328.516543 22.964691 
L 327.748701 23.390071 
L 326.98086 23.363075 
L 326.213019 23.394423 
L 325.445177 23.380971 
L 324.677336 24.073121 
L 323.909494 24.169515 
L 323.141653 24.896018 
L 322.373811 25.258911 
L 321.60597 25.582741 
L 320.838129 25.367532 
L 320.070287 26.67095 
L 319.302446 27.018807 
L 318.534604 27.371075 
L 317.766763 27.878253 
L 316.998922 28.175392 
L 316.23108 29.062084 
L 315.463239 28.946342 
L 314.695397 29.428883 
L 313.927556 29.042698 
L 313.159714 30.114325 
L 312.391873 30.22666 
L 311.624032 30.02818 
L 310.85619 31.014206 
L 310.088349 30.645883 
L 309.320507 31.264371 
L 308.552666 30.74545 
L 307.784825 31.408854 
L 307.016983 31.984204 
L 306.249142 31.008749 
L 305.4813 30.945252 
L 304.713459 31.71292 
L 303.945617 30.673836 
L 303.177776 31.277179 
L 302.409935 30.621193 
L 301.642093 31.436822 
L 300.874252 31.35109 
L 300.10641 32.221598 
L 299.338569 31.864131 
L 298.570728 33.53228 
L 297.802886 33.841827 
L 297.035045 34.27745 
L 296.267203 35.309388 
L 295.499362 35.393484 
L 294.73152 36.569279 
L 293.963679 37.311113 
L 293.195838 37.508143 
L 292.427996 39.005181 
L 291.660155 38.837458 
L 290.892313 39.155628 
L 290.124472 38.985284 
L 289.356631 39.232974 
L 288.588789 38.740592 
L 287.820948 38.05294 
L 287.053106 38.240641 
L 286.285265 38.170691 
L 285.517423 38.360289 
L 284.749582 38.080101 
L 283.981741 37.723104 
L 283.213899 37.492297 
L 282.446058 37.44986 
L 281.678216 37.75639 
L 280.910375 37.516037 
L 280.142534 37.266184 
L 279.374692 37.12023 
L 278.606851 37.676831 
L 277.839009 37.527974 
L 277.071168 37.145417 
L 276.303326 37.554153 
L 275.535485 37.544011 
L 274.767644 37.356297 
L 273.999802 38.025755 
L 273.231961 38.539036 
L 272.464119 39.263207 
L 271.696278 39.053393 
L 270.928437 39.749791 
L 270.160595 40.459602 
L 269.392754 40.462154 
L 268.624912 40.982896 
L 267.857071 41.975838 
L 267.089229 41.824621 
L 266.321388 42.313461 
L 265.553547 42.925648 
L 264.785705 44.592033 
L 264.017864 44.089738 
L 263.250022 44.371848 
L 262.482181 44.794779 
L 261.71434 45.547345 
L 260.946498 46.060584 
L 260.178657 46.802487 
L 259.410815 46.909534 
L 258.642974 47.339513 
L 257.875132 47.596554 
L 257.107291 47.798954 
L 256.33945 48.508354 
L 255.571608 48.600094 
L 254.803767 48.998199 
L 254.035925 49.394439 
L 253.268084 49.987903 
L 252.500243 49.671449 
L 251.732401 50.445013 
L 250.96456 50.520989 
L 250.196718 50.932861 
L 249.428877 51.609918 
L 248.661035 51.584655 
L 247.893194 52.113397 
L 247.125353 53.216844 
L 246.357511 53.225814 
L 245.58967 53.289106 
L 244.821828 54.576512 
L 244.053987 54.849204 
L 243.286146 55.43255 
L 242.518304 55.594617 
L 241.750463 55.213302 
L 240.982621 55.503776 
L 240.21478 56.185851 
L 239.446938 55.967272 
L 238.679097 56.410806 
L 237.911256 57.223931 
L 237.143414 57.798298 
L 236.375573 57.624376 
L 235.607731 58.811356 
L 234.83989 58.974128 
L 234.072049 59.274929 
L 233.304207 59.390035 
L 232.536366 60.008494 
L 231.768524 60.051811 
L 231.000683 60.269228 
L 230.232841 59.89858 
L 229.465 60.007065 
L 228.697159 60.264004 
L 227.929317 60.619132 
L 227.161476 60.962409 
L 226.393634 61.494277 
L 225.625793 61.652334 
L 224.857951 62.02462 
L 224.09011 62.061577 
L 223.322269 62.587015 
L 222.554427 62.637577 
L 221.786586 62.429987 
L 221.018744 62.520574 
L 220.250903 63.125204 
L 219.483062 63.79693 
L 218.71522 63.698601 
L 217.947379 64.739126 
L 217.179537 65.45744 
L 216.411696 66.625832 
L 215.643854 67.685509 
L 214.876013 67.852177 
L 214.108172 68.550992 
L 213.34033 68.573535 
L 212.572489 68.969693 
L 211.804647 69.101018 
L 211.036806 69.347293 
L 210.268965 69.680631 
L 209.501123 69.206907 
L 208.733282 69.347546 
L 207.96544 69.385637 
L 207.197599 69.767687 
L 206.429757 70.092082 
L 205.661916 70.226095 
L 204.894075 71.272107 
L 204.126233 70.642659 
L 203.358392 71.31745 
L 202.59055 71.098411 
L 201.822709 71.512075 
L 201.054868 71.479493 
L 200.287026 71.521815 
L 199.519185 71.631137 
L 198.751343 70.860455 
L 197.983502 71.289337 
L 197.21566 71.296126 
L 196.447819 71.628198 
L 195.679978 70.479041 
L 194.912136 71.339288 
L 194.144295 71.269649 
L 193.376453 71.264351 
L 192.608612 71.301343 
L 191.840771 71.458862 
L 191.072929 70.999596 
L 190.305088 70.828569 
L 189.537246 70.830837 
L 188.769405 71.003287 
L 188.001563 71.626077 
L 187.233722 71.888217 
L 186.465881 72.05229 
L 185.698039 72.408604 
L 184.930198 72.699367 
L 184.162356 73.035613 
L 183.394515 73.726009 
L 182.626674 73.604277 
L 181.858832 73.540598 
L 181.090991 73.715332 
L 180.323149 73.746382 
L 179.555308 73.883254 
L 178.787466 74.02377 
L 178.019625 73.830074 
L 177.251784 73.885365 
L 176.483942 73.811751 
L 175.716101 73.944459 
L 174.948259 73.606291 
L 174.180418 73.73032 
L 173.412577 73.798815 
L 172.644735 74.361833 
L 171.876894 73.873885 
L 171.109052 74.451052 
L 170.341211 74.622301 
L 169.573369 75.720929 
L 168.805528 75.303096 
L 168.037687 75.915464 
L 167.269845 76.254049 
L 166.502004 76.730838 
L 165.734162 76.72442 
L 164.966321 77.150943 
L 164.19848 77.290851 
L 163.430638 78.182269 
L 162.662797 79.036609 
L 161.894955 78.321312 
L 161.127114 79.008738 
L 160.359272 79.529322 
L 159.591431 79.778593 
L 158.82359 79.742027 
L 158.055748 79.962432 
L 157.287907 80.108354 
L 156.520065 80.686089 
L 155.752224 80.534984 
L 154.984383 80.841258 
L 154.216541 80.753166 
L 153.4487 81.532359 
L 152.680858 81.902973 
L 151.913017 82.678458 
L 151.145175 82.60765 
L 150.377334 83.219369 
L 149.609493 83.414901 
L 148.841651 82.851041 
L 148.07381 83.352444 
L 147.305968 83.683177 
L 146.538127 83.448377 
L 145.770286 83.751408 
L 145.002444 84.105975 
L 144.234603 84.512656 
L 143.466761 85.114819 
L 142.69892 85.537273 
L 141.931078 85.422758 
L 141.163237 85.838869 
L 140.395396 86.214961 
L 139.627554 86.857714 
L 138.859713 87.0735 
L 138.091871 87.175644 
L 137.32403 87.518576 
L 136.556189 88.147936 
L 135.788347 88.668928 
L 135.020506 88.747081 
L 134.252664 90.372602 
L 133.484823 90.424861 
L 132.716981 90.179628 
L 131.94914 90.947184 
L 131.181299 91.23783 
L 130.413457 91.080579 
L 129.645616 91.066843 
L 128.877774 91.888397 
L 128.109933 91.801291 
L 127.342091 92.552673 
L 126.57425 92.885008 
L 125.806409 93.315642 
L 125.038567 93.440875 
L 124.270726 93.315136 
L 123.502884 94.198816 
L 122.735043 94.757698 
L 121.967202 94.944501 
L 121.19936 94.529378 
L 120.431519 95.186137 
L 119.663677 94.599062 
L 118.895836 94.919269 
L 118.127994 95.265472 
L 117.360153 95.569675 
L 116.592312 95.711617 
L 115.82447 96.636264 
L 115.056629 96.113964 
L 114.288787 96.071166 
L 113.520946 96.121278 
L 112.753105 96.761664 
L 111.985263 96.68522 
L 111.217422 97.098671 
L 110.44958 97.5829 
L 109.681739 97.748931 
L 108.913897 98.446648 
L 108.146056 98.82235 
L 107.378215 99.55054 
L 106.610373 100.96933 
L 105.842532 102.065965 
L 105.07469 102.948322 
L 104.306849 103.949862 
L 103.539008 104.72815 
L 102.771166 105.644138 
L 102.003325 106.052384 
L 101.235483 106.899376 
L 100.467642 107.306143 
L 99.6998 107.423236 
L 98.931959 107.63683 
L 98.164118 108.992568 
L 97.396276 109.183487 
L 96.628435 110.143653 
L 95.860593 111.380243 
L 95.092752 112.353695 
L 94.324911 113.606709 
L 93.557069 115.269935 
L 92.789228 115.838336 
L 92.021386 116.608977 
L 91.253545 117.404924 
L 90.485703 117.415416 
L 89.717862 118.887843 
L 88.950021 119.677207 
L 88.182179 120.268668 
L 87.414338 120.89812 
L 86.646496 122.487949 
L 85.878655 123.224119 
L 85.110814 124.002978 
L 84.342972 124.697064 
L 83.575131 125.550734 
L 82.807289 126.410961 
L 82.039448 127.184398 
L 81.271606 128.42549 
L 80.503765 128.876591 
L 79.735924 129.821016 
L 78.968082 129.79965 
L 78.200241 130.098926 
L 77.432399 129.970248 
L 76.664558 129.899841 
L 75.896717 130.106029 
L 75.128875 130.594325 
L 74.361034 130.600961 
L 73.593192 131.550254 
L 72.825351 131.755944 
L 72.057509 132.02264 
L 71.289668 132.921086 
L 70.521827 132.87698 
L 69.753985 133.551014 
L 68.986144 134.200592 
L 68.218302 134.736294 
L 67.450461 135.458926 
L 66.68262 136.409793 
L 65.914778 136.622161 
L 65.146937 136.685287 
L 64.379095 137.591442 
L 63.611254 138.706912 
L 62.843412 139.24668 
L 62.075571 140.335894 
L 61.30773 141.684716 
L 60.539888 142.71682 
L 59.772047 144.610607 
L 59.004205 146.838572 
L 58.236364 148.838881 
L 57.468523 151.066964 
L 56.700681 153.816696 
L 55.93284 154.880972 
L 55.164998 157.845146 
L 54.397157 159.782128 
L 53.629315 161.777304 
L 52.861474 165.419206 
L 52.093633 168.117566 
L 51.325791 171.918065 
L 50.55795 176.470114 
L 49.790108 179.458164 
L 49.022267 183.768921 
L 48.254426 187.633236 
L 47.486584 191.380989 
L 46.718743 195.237597 
L 45.950901 199.665035 
L 45.18306 205.095996 
L 44.415218 210.741984 
L 43.647377 216.938874 
L 42.879536 223.397302 
L 42.111694 230.16587 
L 41.343853 235.871086 
L 40.576011 241.740778 
L 39.80817 247.386854 
L 39.040329 252.701553 
L 38.272487 255.503936 
L 37.504646 256.532077 
z
" style="fill:#ff0000;fill-opacity:0.3;"/>
   </g>
   <g id="line2d_12">
    <path clip-path="url(#pea27cd07a9)" d="M 37.504646 256.532077 
L 38.272487 256.272983 
L 39.040329 255.107061 
L 39.80817 252.926354 
L 41.343853 247.168714 
L 42.111694 244.22512 
L 43.647377 236.941705 
L 45.18306 229.737458 
L 45.950901 226.577953 
L 49.790108 213.587277 
L 50.55795 211.608088 
L 52.093633 206.174315 
L 52.861474 204.101564 
L 53.629315 201.668961 
L 55.164998 198.775747 
L 55.93284 196.810952 
L 56.700681 195.40033 
L 57.468523 193.601068 
L 58.236364 192.44954 
L 59.004205 190.830203 
L 60.539888 188.296842 
L 61.30773 187.541151 
L 62.843412 185.626736 
L 63.611254 184.698316 
L 64.379095 184.0074 
L 65.146937 182.963827 
L 65.914778 182.532004 
L 66.68262 182.301699 
L 69.753985 179.847504 
L 70.521827 179.048632 
L 71.289668 178.724765 
L 72.057509 177.825133 
L 72.825351 177.566039 
L 75.896717 175.702003 
L 76.664558 175.622836 
L 79.735924 174.032288 
L 80.503765 173.276597 
L 81.271606 172.75841 
L 82.807289 170.851191 
L 83.575131 170.354595 
L 84.342972 169.51254 
L 85.110814 169.167082 
L 85.878655 168.468968 
L 86.646496 168.152297 
L 87.414338 167.151907 
L 88.950021 166.70569 
L 89.717862 166.417808 
L 90.485703 165.87803 
L 92.021386 165.820453 
L 92.789228 165.179916 
L 93.557069 165.201507 
L 94.324911 164.848851 
L 95.092752 163.82687 
L 96.628435 163.2655 
L 98.164118 162.50981 
L 99.6998 161.243129 
L 100.467642 161.221538 
L 102.003325 160.14198 
L 102.771166 160.012433 
L 103.539008 159.249546 
L 104.306849 158.745753 
L 105.07469 158.515447 
L 105.842532 157.680589 
L 107.378215 156.802549 
L 108.146056 156.485879 
L 108.913897 155.931706 
L 111.985263 154.456311 
L 112.753105 154.62904 
L 113.520946 154.297975 
L 116.592312 153.477512 
L 117.360153 152.693033 
L 118.127994 152.397954 
L 118.895836 151.930146 
L 119.663677 151.692643 
L 120.431519 152.059693 
L 121.19936 151.613476 
L 122.735043 151.606279 
L 123.502884 151.440746 
L 124.270726 150.843391 
L 125.038567 150.886574 
L 125.806409 150.721041 
L 126.57425 150.433159 
L 127.342091 149.972548 
L 128.109933 150.037322 
L 128.877774 149.735045 
L 129.645616 149.252843 
L 131.94914 148.777838 
L 132.716981 148.25965 
L 134.252664 147.842221 
L 135.020506 146.877816 
L 135.788347 146.539555 
L 136.556189 145.567953 
L 137.32403 145.438406 
L 138.859713 144.466805 
L 139.627554 144.402031 
L 140.395396 144.121346 
L 141.163237 143.286488 
L 141.931078 142.81868 
L 142.69892 142.840271 
L 144.234603 142.01261 
L 145.002444 141.544802 
L 146.538127 141.0626 
L 147.305968 141.105782 
L 148.07381 140.961841 
L 148.841651 140.702747 
L 149.609493 140.882673 
L 151.145175 140.594791 
L 151.913017 140.292515 
L 153.4487 139.457657 
L 154.984383 138.773938 
L 156.520065 138.493253 
L 157.287907 138.349312 
L 158.055748 137.989459 
L 158.82359 137.996656 
L 159.591431 137.8887 
L 161.127114 137.197784 
L 161.894955 136.701187 
L 162.662797 136.93869 
L 164.19848 135.837541 
L 166.502004 135.585644 
L 167.269845 135.067457 
L 168.037687 134.923516 
L 168.805528 134.563663 
L 169.573369 134.506087 
L 170.341211 133.865549 
L 171.109052 133.700017 
L 171.876894 133.296982 
L 174.180418 132.642051 
L 174.948259 132.642051 
L 175.716101 132.325381 
L 176.483942 132.239016 
L 177.251784 131.771208 
L 178.019625 131.735222 
L 180.323149 130.756424 
L 181.090991 130.590891 
L 181.858832 130.25263 
L 182.626674 130.425359 
L 184.930198 128.906782 
L 185.698039 128.56852 
L 186.465881 128.438973 
L 187.233722 127.8848 
L 188.001563 127.877603 
L 188.769405 127.596918 
L 189.537246 127.193884 
L 190.305088 127.424189 
L 191.072929 127.345022 
L 191.840771 127.906392 
L 192.608612 127.438583 
L 193.376453 127.726465 
L 194.912136 127.438583 
L 195.679978 127.021154 
L 196.447819 127.467371 
L 197.21566 127.503357 
L 197.983502 127.359416 
L 198.751343 126.949184 
L 199.519185 127.431386 
L 201.054868 127.013957 
L 201.822709 127.071534 
L 202.59055 126.697287 
L 203.358392 126.524558 
L 204.126233 126.143114 
L 205.661916 125.552956 
L 206.429757 124.847645 
L 207.197599 124.660522 
L 208.733282 124.487793 
L 209.501123 124.034378 
L 210.268965 124.228699 
L 211.036806 123.912029 
L 211.804647 124.00559 
L 212.572489 123.480206 
L 213.34033 123.192324 
L 214.876013 122.32148 
L 215.643854 122.256707 
L 216.411696 121.961628 
L 217.179537 121.220332 
L 217.947379 120.939647 
L 218.71522 120.119183 
L 219.483062 119.93206 
L 220.250903 119.471448 
L 221.018744 119.44266 
L 221.786586 118.895684 
L 222.554427 119.190763 
L 223.322269 118.816517 
L 224.09011 118.183176 
L 227.929317 116.981269 
L 228.697159 116.614219 
L 230.232841 116.434293 
L 231.000683 116.578234 
L 232.536366 116.470278 
L 233.304207 116.12482 
L 234.072049 115.973682 
L 234.83989 115.527465 
L 235.607731 115.31875 
L 236.375573 114.447907 
L 237.143414 114.44071 
L 237.911256 114.210405 
L 239.446938 113.087665 
L 240.21478 113.289182 
L 240.982621 112.900541 
L 242.518304 112.547886 
L 243.286146 112.677433 
L 244.053987 112.677433 
L 244.821828 112.331974 
L 245.58967 111.547496 
L 246.357511 111.705831 
L 247.125353 111.619466 
L 247.893194 110.942944 
L 248.661035 110.856579 
L 250.196718 110.172859 
L 250.96456 109.777022 
L 251.732401 109.80581 
L 252.500243 109.31641 
L 253.268084 109.409972 
L 255.571608 108.819814 
L 256.33945 109.050119 
L 257.107291 108.56072 
L 257.875132 108.503144 
L 259.410815 107.812227 
L 260.178657 107.877 
L 260.946498 107.301236 
L 261.71434 106.962975 
L 263.250022 106.747063 
L 264.017864 106.106526 
L 264.785705 106.228876 
L 265.553547 105.75387 
L 266.321388 104.811057 
L 267.089229 104.63113 
L 267.857071 104.336051 
L 269.392754 103.220509 
L 270.160595 103.508391 
L 270.928437 102.824671 
L 271.696278 102.385651 
L 272.464119 102.31368 
L 273.999802 101.709128 
L 274.767644 101.219729 
L 275.535485 101.11897 
L 276.303326 100.838285 
L 277.071168 100.219339 
L 277.839009 100.485629 
L 279.374692 100.392068 
L 280.142534 100.096989 
L 280.910375 100.514418 
L 283.213899 100.255324 
L 283.981741 100.197747 
L 285.517423 100.917452 
L 287.053106 100.485629 
L 287.820948 100.5576 
L 288.588789 101.018211 
L 289.356631 101.183743 
L 290.124472 100.744723 
L 290.892313 100.67995 
L 291.660155 100.413659 
L 292.427996 100.43525 
L 293.195838 99.693954 
L 294.73152 99.254934 
L 295.499362 98.549623 
L 296.267203 98.635987 
L 297.035045 97.887494 
L 297.802886 97.455671 
L 298.570728 97.441277 
L 299.338569 96.498464 
L 300.10641 96.412099 
L 300.874252 96.030655 
L 301.642093 95.886714 
L 302.409935 95.31095 
L 303.177776 95.440497 
L 303.945617 94.965492 
L 304.713459 95.778758 
L 306.249142 95.382921 
L 307.016983 95.836335 
L 308.552666 94.893521 
L 309.320507 95.008674 
L 310.088349 94.23859 
L 310.85619 94.346545 
L 311.624032 93.691614 
L 312.391873 93.403732 
L 313.159714 92.892741 
L 313.927556 92.129854 
L 315.463239 91.172646 
L 316.23108 91.093479 
L 316.998922 90.258621 
L 317.766763 90.0643 
L 320.070287 88.905575 
L 320.838129 88.380191 
L 321.60597 88.416176 
L 323.909494 87.725259 
L 324.677336 87.941171 
L 325.445177 87.480559 
L 326.98086 87.264648 
L 327.748701 87.005554 
L 328.516543 87.048736 
L 329.284384 86.422593 
L 330.052226 86.451381 
L 330.820067 85.86842 
L 331.587909 85.861223 
L 332.35575 86.300243 
L 333.123591 85.738873 
L 334.659274 85.530159 
L 336.962798 85.141518 
L 337.73064 85.127124 
L 338.498481 85.242277 
L 339.266323 85.23508 
L 340.034164 84.889621 
L 340.802006 84.882424 
L 341.569847 84.443404 
L 342.337688 84.148325 
L 344.641213 84.004384 
L 345.409054 83.651729 
L 346.176895 83.766881 
L 346.944737 83.766881 
L 347.712578 84.133931 
L 348.48042 83.831655 
L 349.248261 84.119537 
L 350.016103 83.658926 
L 350.783944 83.910822 
L 351.551785 83.637334 
L 352.319627 83.79567 
L 353.087468 83.723699 
L 353.85531 83.392635 
L 354.623151 83.766881 
L 356.158834 83.572561 
L 357.694517 84.040369 
L 358.462358 83.98999 
L 359.2302 84.256281 
L 359.998041 84.277872 
L 361.533724 83.824458 
L 362.301565 83.443014 
L 363.069407 82.924826 
L 363.837248 82.86725 
L 364.605089 83.032782 
L 365.372931 82.449821 
L 367.676455 82.089969 
L 369.212138 81.593372 
L 369.979979 81.06079 
L 370.747821 80.686544 
L 371.515662 80.607376 
L 372.283504 80.146765 
L 373.051345 79.98843 
L 373.819186 79.319104 
L 375.354869 78.606596 
L 376.122711 78.635384 
L 376.890552 78.441064 
L 377.658394 77.505447 
L 378.426235 77.67098 
L 379.194076 76.929683 
L 379.961918 76.908092 
L 380.729759 76.274752 
L 381.497601 76.10922 
L 382.265442 75.677397 
L 384.568966 75.814141 
L 385.336808 75.490273 
L 386.104649 75.511864 
L 386.872491 75.6702 
L 387.640332 75.288756 
L 388.408173 75.331938 
L 389.943856 75.195194 
L 390.711698 74.907312 
L 392.24738 74.871327 
L 393.783063 74.331548 
L 394.550905 74.389125 
L 396.854429 74.18041 
L 397.62227 73.856543 
L 398.390112 73.66942 
L 399.157953 73.798966 
L 399.925795 73.345552 
L 400.693636 73.532676 
L 402.229319 72.791379 
L 402.99716 73.151232 
L 403.765002 72.345162 
L 404.532843 72.158039 
L 405.300685 72.460315 
L 406.068526 72.381148 
L 406.836367 71.395152 
L 407.604209 71.826975 
L 408.37205 72.028492 
L 409.139892 71.596669 
L 409.907733 71.826975 
L 410.675574 71.625457 
L 411.443416 71.755004 
L 412.211257 71.208028 
L 412.979099 71.222422 
L 413.74694 71.121664 
L 416.050464 71.215225 
L 417.586147 70.999314 
L 418.353989 70.207638 
L 419.12183 69.624677 
L 419.889671 69.775815 
L 420.657513 69.480736 
L 421.425354 69.365583 
L 421.425354 69.365583 
" style="fill:none;stroke:#ff0000;stroke-linecap:round;"/>
   </g>
   <g id="patch_3">
    <path d="M 37.504646 258.685354 
L 37.504646 2.834646 
" style="fill:none;stroke:#000000;stroke-linecap:square;stroke-linejoin:miter;stroke-width:0.8;"/>
   </g>
   <g id="patch_4">
    <path d="M 421.425354 258.685354 
L 421.425354 2.834646 
" style="fill:none;stroke:#000000;stroke-linecap:square;stroke-linejoin:miter;stroke-width:0.8;"/>
   </g>
   <g id="patch_5">
    <path d="M 37.504646 258.685354 
L 421.425354 258.685354 
" style="fill:none;stroke:#000000;stroke-linecap:square;stroke-linejoin:miter;stroke-width:0.8;"/>
   </g>
   <g id="patch_6">
    <path d="M 37.504646 2.834646 
L 421.425354 2.834646 
" style="fill:none;stroke:#000000;stroke-linecap:square;stroke-linejoin:miter;stroke-width:0.8;"/>
   </g>
   <g id="legend_1">
    <g id="patch_7">
     <path d="M 380.311604 32.719646 
L 415.825354 32.719646 
Q 417.425354 32.719646 417.425354 31.119646 
L 417.425354 8.434646 
Q 417.425354 6.834646 415.825354 6.834646 
L 380.311604 6.834646 
Q 378.711604 6.834646 378.711604 8.434646 
L 378.711604 31.119646 
Q 378.711604 32.719646 380.311604 32.719646 
z
" style="fill:#ffffff;opacity:0.8;stroke:#000000;stroke-linejoin:miter;"/>
    </g>
    <g id="line2d_13">
     <path d="M 381.911604 13.313396 
L 397.911604 13.313396 
" style="fill:none;stroke:#0000ff;stroke-linecap:round;"/>
    </g>
    <g id="line2d_14"/>
    <g id="text_13">
     <!-- P -->
     <defs>
      <path d="M 19.671875 64.796875 
L 19.671875 37.40625 
L 32.078125 37.40625 
Q 38.96875 37.40625 42.71875 40.96875 
Q 46.484375 44.53125 46.484375 51.125 
Q 46.484375 57.671875 42.71875 61.234375 
Q 38.96875 64.796875 32.078125 64.796875 
z
M 9.8125 72.90625 
L 32.078125 72.90625 
Q 44.34375 72.90625 50.609375 67.359375 
Q 56.890625 61.8125 56.890625 51.125 
Q 56.890625 40.328125 50.609375 34.8125 
Q 44.34375 29.296875 32.078125 29.296875 
L 19.671875 29.296875 
L 19.671875 0 
L 9.8125 0 
z
" id="DejaVuSans-50"/>
     </defs>
     <g transform="translate(404.311604 16.113396)scale(0.08 -0.08)">
      <use xlink:href="#DejaVuSans-50"/>
     </g>
    </g>
    <g id="line2d_15">
     <path d="M 381.911604 25.055896 
L 397.911604 25.055896 
" style="fill:none;stroke:#ff0000;stroke-linecap:round;"/>
    </g>
    <g id="line2d_16"/>
    <g id="text_14">
     <!-- P2 -->
     <g transform="translate(404.311604 27.855896)scale(0.08 -0.08)">
      <use xlink:href="#DejaVuSans-50"/>
      <use x="60.302734" xlink:href="#DejaVuSans-32"/>
     </g>
    </g>
   </g>
  </g>
 </g>
 <defs>
  <clipPath id="pea27cd07a9">
   <rect height="255.850709" width="383.920709" x="37.504646" y="2.834646"/>
  </clipPath>
 </defs>
</svg>
