<?xml version="1.0" encoding="utf-8" standalone="no"?>
<!DOCTYPE svg PUBLIC "-//W3C//DTD SVG 1.1//EN"
  "http://www.w3.org/Graphics/SVG/1.1/DTD/svg11.dtd">
<!-- Created with matplotlib (http://matplotlib.org/) -->
<svg height="288pt" version="1.1" viewBox="0 0 432 288" width="432pt" xmlns="http://www.w3.org/2000/svg" xmlns:xlink="http://www.w3.org/1999/xlink">
 <defs>
  <style type="text/css">
*{stroke-linecap:butt;stroke-linejoin:round;}
  </style>
 </defs>
 <g id="figure_1">
  <g id="patch_1">
   <path d="M 0 288 
L 432 288 
L 432 0 
L 0 0 
z
" style="fill:#ffffff;"/>
  </g>
  <g id="axes_1">
   <g id="patch_2">
    <path d="M 37.504646 258.685354 
L 421.425354 258.685354 
L 421.425354 2.834646 
L 37.504646 2.834646 
z
" style="fill:#ffffff;"/>
   </g>
   <g id="PolyCollection_1">
    <path clip-path="url(#pe1c1596a2b)" d="M 37.504646 255.3632 
L 37.504646 255.3632 
L 38.272487 255.982015 
L 39.040329 256.136876 
L 39.80817 256.02511 
L 40.576011 255.879848 
L 41.343853 255.874166 
L 42.111694 255.399578 
L 42.879536 254.938003 
L 43.647377 254.81123 
L 44.415218 254.733967 
L 45.18306 254.368093 
L 45.950901 253.674582 
L 46.718743 254.152593 
L 47.486584 253.665547 
L 48.254426 253.051696 
L 49.022267 252.713792 
L 49.790108 252.345124 
L 50.55795 252.185378 
L 51.325791 252.0088 
L 52.093633 251.866382 
L 52.861474 251.740231 
L 53.629315 251.946628 
L 54.397157 251.658424 
L 55.164998 251.239056 
L 55.93284 251.48206 
L 56.700681 251.192301 
L 57.468523 251.353502 
L 58.236364 251.287235 
L 59.004205 250.55108 
L 59.772047 251.607187 
L 60.539888 250.552618 
L 61.30773 250.480002 
L 62.075571 250.457113 
L 62.843412 251.215843 
L 63.611254 250.718252 
L 64.379095 250.846142 
L 65.146937 250.378392 
L 65.914778 251.092038 
L 66.68262 250.218613 
L 67.450461 250.657775 
L 68.218302 249.921864 
L 68.986144 249.834805 
L 69.753985 250.470084 
L 70.521827 250.826713 
L 71.289668 249.577843 
L 72.057509 250.108856 
L 72.825351 250.09413 
L 73.593192 249.578937 
L 74.361034 250.144138 
L 75.128875 249.689746 
L 75.896717 249.828834 
L 76.664558 249.879539 
L 77.432399 248.725054 
L 78.200241 249.42558 
L 78.968082 249.833511 
L 79.735924 249.637132 
L 80.503765 249.404578 
L 81.271606 249.396723 
L 82.039448 249.645276 
L 82.807289 249.131622 
L 83.575131 249.004942 
L 84.342972 249.436791 
L 85.110814 248.667858 
L 85.878655 248.974768 
L 86.646496 248.922432 
L 87.414338 249.383578 
L 88.182179 249.255458 
L 88.950021 249.337148 
L 89.717862 248.764279 
L 90.485703 249.304573 
L 91.253545 248.779879 
L 92.021386 249.010821 
L 92.789228 248.819224 
L 93.557069 249.005015 
L 94.324911 249.057488 
L 95.092752 248.852559 
L 95.860593 248.601488 
L 96.628435 249.204214 
L 97.396276 248.614137 
L 98.164118 249.104657 
L 98.931959 248.930494 
L 99.6998 249.065564 
L 100.467642 248.84102 
L 101.235483 248.94847 
L 102.003325 248.343254 
L 102.771166 248.180314 
L 103.539008 248.570988 
L 104.306849 248.655183 
L 105.07469 248.485173 
L 105.842532 248.292734 
L 106.610373 248.284595 
L 107.378215 248.014265 
L 108.146056 248.235566 
L 108.913897 248.362504 
L 109.681739 248.263773 
L 110.44958 248.571322 
L 111.217422 248.328232 
L 111.985263 248.418135 
L 112.753105 248.242257 
L 113.520946 248.021909 
L 114.288787 248.237488 
L 115.056629 248.243394 
L 115.82447 249.151445 
L 116.592312 248.383144 
L 117.360153 248.400631 
L 118.127994 247.790623 
L 118.895836 248.024895 
L 119.663677 248.637679 
L 120.431519 247.910706 
L 121.19936 248.584443 
L 121.967202 248.409509 
L 122.735043 247.997226 
L 123.502884 248.122255 
L 124.270726 247.839563 
L 125.038567 248.205499 
L 125.806409 248.098875 
L 126.57425 248.529389 
L 127.342091 247.924747 
L 128.109933 248.051737 
L 128.877774 248.740095 
L 129.645616 247.971905 
L 130.413457 248.069049 
L 131.181299 247.780456 
L 131.94914 247.964511 
L 132.716981 248.063609 
L 133.484823 248.198924 
L 134.252664 247.757107 
L 135.020506 248.340616 
L 135.788347 247.963057 
L 136.556189 248.546712 
L 137.32403 248.314557 
L 138.091871 247.629764 
L 138.859713 247.41925 
L 139.627554 247.874327 
L 140.395396 248.153117 
L 141.163237 247.780163 
L 141.931078 247.595358 
L 142.69892 247.517412 
L 143.466761 247.90305 
L 144.234603 247.739853 
L 145.002444 248.054888 
L 145.770286 247.802968 
L 146.538127 248.045564 
L 147.305968 247.808577 
L 148.07381 247.550095 
L 148.841651 248.035788 
L 149.609493 247.818783 
L 150.377334 248.064072 
L 151.145175 247.665451 
L 151.913017 247.669478 
L 152.680858 247.438889 
L 153.4487 247.786176 
L 154.216541 247.403976 
L 154.984383 247.37019 
L 155.752224 247.078285 
L 156.520065 247.966343 
L 157.287907 247.519509 
L 158.055748 247.633301 
L 158.82359 247.273743 
L 159.591431 247.838219 
L 160.359272 247.205667 
L 161.127114 247.201563 
L 161.894955 247.261184 
L 162.662797 247.630712 
L 163.430638 247.390684 
L 164.19848 248.056315 
L 164.966321 247.793862 
L 165.734162 247.175195 
L 166.502004 247.88507 
L 167.269845 247.434823 
L 168.037687 246.73648 
L 168.805528 247.118951 
L 169.573369 246.906042 
L 170.341211 247.300124 
L 171.109052 246.457918 
L 171.876894 246.781306 
L 172.644735 247.036419 
L 173.412577 247.304497 
L 174.180418 246.953866 
L 174.948259 247.285846 
L 175.716101 246.241112 
L 176.483942 246.67786 
L 177.251784 247.262017 
L 178.019625 246.828946 
L 178.787466 247.228983 
L 179.555308 247.320041 
L 180.323149 246.764937 
L 181.090991 247.452395 
L 181.858832 247.192638 
L 182.626674 247.274662 
L 183.394515 246.775715 
L 184.162356 247.284762 
L 184.930198 246.601485 
L 185.698039 246.493068 
L 186.465881 247.033444 
L 187.233722 247.001025 
L 188.001563 247.455178 
L 188.769405 246.588267 
L 189.537246 246.741345 
L 190.305088 246.356748 
L 191.072929 246.24658 
L 191.840771 246.797776 
L 192.608612 246.714981 
L 193.376453 246.593451 
L 194.144295 246.614377 
L 194.912136 246.137135 
L 195.679978 246.226846 
L 196.447819 246.495476 
L 197.21566 246.001425 
L 197.983502 245.939979 
L 198.751343 246.643708 
L 199.519185 246.780092 
L 200.287026 246.734893 
L 201.054868 246.317457 
L 201.822709 246.764373 
L 202.59055 245.928457 
L 203.358392 246.674179 
L 204.126233 246.27131 
L 204.894075 245.763669 
L 205.661916 246.011354 
L 206.429757 246.441375 
L 207.197599 246.698451 
L 207.96544 246.200858 
L 208.733282 245.716945 
L 209.501123 246.119734 
L 210.268965 245.877777 
L 211.036806 246.36682 
L 211.804647 245.714551 
L 212.572489 246.29417 
L 213.34033 245.946277 
L 214.108172 246.081049 
L 214.876013 246.830909 
L 215.643854 246.566767 
L 216.411696 245.467636 
L 217.179537 246.244095 
L 217.947379 246.401406 
L 218.71522 246.036409 
L 219.483062 246.990269 
L 220.250903 246.040574 
L 221.018744 246.185079 
L 221.786586 246.092448 
L 222.554427 245.975644 
L 223.322269 245.811167 
L 224.09011 245.369994 
L 224.857951 246.124112 
L 225.625793 245.835296 
L 226.393634 245.745454 
L 227.161476 245.9933 
L 227.929317 245.89561 
L 228.697159 246.004001 
L 229.465 246.060084 
L 230.232841 245.820786 
L 231.000683 245.899676 
L 231.768524 244.939681 
L 232.536366 245.595357 
L 233.304207 245.368424 
L 234.072049 245.766019 
L 234.83989 246.176976 
L 235.607731 245.213411 
L 236.375573 245.609609 
L 237.143414 244.711372 
L 237.911256 245.603147 
L 238.679097 245.666938 
L 239.446938 246.095105 
L 240.21478 246.016195 
L 240.982621 246.067352 
L 241.750463 246.279074 
L 242.518304 245.823134 
L 243.286146 245.650447 
L 244.053987 245.482256 
L 244.821828 245.644214 
L 245.58967 246.080351 
L 246.357511 245.17993 
L 247.125353 246.164037 
L 247.893194 245.484058 
L 248.661035 246.040664 
L 249.428877 245.610297 
L 250.196718 246.032765 
L 250.96456 245.547364 
L 251.732401 245.011713 
L 252.500243 245.510643 
L 253.268084 246.03957 
L 254.035925 245.841237 
L 254.803767 245.750043 
L 255.571608 245.645161 
L 256.33945 245.367887 
L 257.107291 245.558439 
L 257.875132 245.09242 
L 258.642974 245.773715 
L 259.410815 245.191683 
L 260.178657 245.573314 
L 260.946498 245.275176 
L 261.71434 245.707391 
L 262.482181 245.772447 
L 263.250022 245.399082 
L 264.017864 245.78919 
L 264.785705 244.998677 
L 265.553547 245.182162 
L 266.321388 245.336353 
L 267.089229 246.411424 
L 267.857071 245.844195 
L 268.624912 245.388812 
L 269.392754 245.729224 
L 270.160595 245.179058 
L 270.928437 245.791558 
L 271.696278 245.189784 
L 272.464119 245.641157 
L 273.231961 245.048327 
L 273.999802 245.427805 
L 274.767644 245.971055 
L 275.535485 245.355406 
L 276.303326 245.476082 
L 277.071168 244.414013 
L 277.839009 245.294638 
L 278.606851 245.633866 
L 279.374692 245.251764 
L 280.142534 245.40714 
L 280.910375 245.612309 
L 281.678216 245.107154 
L 282.446058 245.361256 
L 283.213899 244.938562 
L 283.981741 244.896495 
L 284.749582 244.990957 
L 285.517423 245.365491 
L 286.285265 245.501312 
L 287.053106 245.317309 
L 287.820948 245.526664 
L 288.588789 245.752357 
L 289.356631 245.359068 
L 290.124472 245.322122 
L 290.892313 245.163355 
L 291.660155 245.020088 
L 292.427996 245.280306 
L 293.195838 245.312791 
L 293.963679 245.447948 
L 294.73152 245.20513 
L 295.499362 245.32412 
L 296.267203 246.018719 
L 297.035045 245.08849 
L 297.802886 245.436831 
L 298.570728 245.06278 
L 299.338569 245.991622 
L 300.10641 245.678275 
L 300.874252 245.265332 
L 301.642093 245.086981 
L 302.409935 244.578661 
L 303.177776 245.551826 
L 303.945617 244.996238 
L 304.713459 245.034125 
L 305.4813 245.099442 
L 306.249142 246.063366 
L 307.016983 244.930792 
L 307.784825 245.331086 
L 308.552666 245.523203 
L 309.320507 246.029121 
L 310.088349 245.294532 
L 310.85619 245.899771 
L 311.624032 245.074953 
L 312.391873 244.78778 
L 313.159714 245.16372 
L 313.927556 245.891281 
L 314.695397 245.155612 
L 315.463239 245.567634 
L 316.23108 244.978175 
L 316.998922 244.948116 
L 317.766763 244.89272 
L 318.534604 245.313351 
L 319.302446 244.751743 
L 320.070287 245.886554 
L 320.838129 244.72546 
L 321.60597 244.565286 
L 322.373811 245.083991 
L 323.141653 245.336739 
L 323.909494 244.763567 
L 324.677336 245.43672 
L 325.445177 244.613192 
L 326.213019 245.122584 
L 326.98086 245.439339 
L 327.748701 245.065274 
L 328.516543 244.526397 
L 329.284384 244.796649 
L 330.052226 245.340494 
L 330.820067 245.400819 
L 331.587909 244.701846 
L 332.35575 245.420465 
L 333.123591 244.46176 
L 333.891433 245.097954 
L 334.659274 244.616829 
L 335.427116 245.025248 
L 336.194957 244.925475 
L 336.962798 244.834911 
L 337.73064 244.120248 
L 338.498481 244.646938 
L 339.266323 244.096039 
L 340.034164 245.059817 
L 340.802006 245.968688 
L 341.569847 245.021014 
L 342.337688 244.411583 
L 343.10553 244.683032 
L 343.873371 244.592006 
L 344.641213 244.413881 
L 345.409054 244.569931 
L 346.176895 245.419298 
L 346.944737 245.052453 
L 347.712578 244.776343 
L 348.48042 244.636404 
L 349.248261 244.865798 
L 350.016103 244.134665 
L 350.783944 244.894129 
L 351.551785 243.745153 
L 352.319627 244.640898 
L 353.087468 245.08064 
L 353.85531 244.72976 
L 354.623151 244.787735 
L 355.390992 245.206036 
L 356.158834 244.765769 
L 356.926675 244.53592 
L 357.694517 244.909629 
L 358.462358 245.556645 
L 359.2302 245.123717 
L 359.998041 244.821189 
L 360.765882 244.343482 
L 361.533724 244.210868 
L 362.301565 244.330024 
L 363.069407 244.622724 
L 363.837248 244.1746 
L 364.605089 244.866867 
L 365.372931 244.051676 
L 366.140772 245.075076 
L 366.908614 245.397646 
L 367.676455 244.653134 
L 368.444297 244.497812 
L 369.212138 244.026297 
L 369.979979 244.628297 
L 370.747821 244.174131 
L 371.515662 244.638756 
L 372.283504 244.595754 
L 373.051345 244.098968 
L 373.819186 244.315289 
L 374.587028 244.018445 
L 375.354869 244.876931 
L 376.122711 244.952895 
L 376.890552 244.092989 
L 377.658394 244.923301 
L 378.426235 243.766589 
L 379.194076 244.5651 
L 379.961918 244.07526 
L 380.729759 244.950516 
L 381.497601 244.952428 
L 382.265442 244.953801 
L 383.033283 244.645071 
L 383.801125 244.876588 
L 384.568966 245.091407 
L 385.336808 245.422139 
L 386.104649 244.339828 
L 386.872491 243.928235 
L 387.640332 244.2884 
L 388.408173 244.941652 
L 389.176015 244.597413 
L 389.943856 243.920737 
L 390.711698 243.710945 
L 391.479539 244.563834 
L 392.24738 244.296996 
L 393.015222 244.308893 
L 393.783063 244.410228 
L 394.550905 244.194668 
L 395.318746 245.219785 
L 396.086588 243.789616 
L 396.854429 244.093512 
L 397.62227 244.597375 
L 398.390112 244.408777 
L 399.157953 243.836408 
L 399.925795 244.457655 
L 400.693636 244.278387 
L 401.461477 244.413382 
L 402.229319 243.9805 
L 402.99716 243.908511 
L 403.765002 244.762381 
L 404.532843 244.271465 
L 405.300685 244.033819 
L 406.068526 243.692012 
L 406.836367 244.910675 
L 407.604209 244.310074 
L 408.37205 244.103248 
L 409.139892 244.48395 
L 409.907733 244.062535 
L 410.675574 243.869146 
L 411.443416 244.76368 
L 412.211257 244.040723 
L 412.979099 244.135001 
L 413.74694 243.88125 
L 414.514782 243.602624 
L 415.282623 243.823306 
L 416.050464 243.829675 
L 416.818306 244.24915 
L 417.586147 243.767497 
L 418.353989 244.251519 
L 419.12183 244.033045 
L 419.889671 244.024975 
L 420.657513 243.503411 
L 421.425354 244.104656 
L 421.425354 234.884216 
L 421.425354 234.884216 
L 420.657513 235.282535 
L 419.889671 234.693329 
L 419.12183 235.375206 
L 418.353989 235.711394 
L 417.586147 235.4243 
L 416.818306 236.092557 
L 416.050464 235.916785 
L 415.282623 235.7067 
L 414.514782 235.656815 
L 413.74694 234.728828 
L 412.979099 235.692629 
L 412.211257 236.733892 
L 411.443416 236.05152 
L 410.675574 235.755559 
L 409.907733 235.210433 
L 409.139892 236.304193 
L 408.37205 235.4944 
L 407.604209 235.81518 
L 406.836367 235.214579 
L 406.068526 235.080406 
L 405.300685 236.307889 
L 404.532843 235.677921 
L 403.765002 236.106933 
L 402.99716 235.986761 
L 402.229319 235.414223 
L 401.461477 235.617174 
L 400.693636 235.65747 
L 399.925795 236.303431 
L 399.157953 235.571843 
L 398.390112 236.014101 
L 397.62227 235.1085 
L 396.854429 235.409438 
L 396.086588 235.726862 
L 395.318746 235.757756 
L 394.550905 235.227111 
L 393.783063 235.620327 
L 393.015222 235.856946 
L 392.24738 235.828257 
L 391.479539 236.129611 
L 390.711698 236.684876 
L 389.943856 236.272158 
L 389.176015 235.649596 
L 388.408173 236.198228 
L 387.640332 235.349833 
L 386.872491 235.885867 
L 386.104649 236.285975 
L 385.336808 236.083008 
L 384.568966 236.17023 
L 383.801125 235.438063 
L 383.033283 236.318942 
L 382.265442 236.700158 
L 381.497601 236.173924 
L 380.729759 235.918798 
L 379.961918 235.779427 
L 379.194076 236.696536 
L 378.426235 235.357567 
L 377.658394 236.771242 
L 376.890552 235.883453 
L 376.122711 235.943475 
L 375.354869 236.479403 
L 374.587028 236.025639 
L 373.819186 235.35 
L 373.051345 236.107456 
L 372.283504 235.85418 
L 371.515662 236.068217 
L 370.747821 235.883481 
L 369.979979 235.14522 
L 369.212138 236.355996 
L 368.444297 234.639872 
L 367.676455 236.392048 
L 366.908614 236.85156 
L 366.140772 235.658954 
L 365.372931 235.532444 
L 364.605089 234.947235 
L 363.837248 236.045352 
L 363.069407 236.855366 
L 362.301565 235.741117 
L 361.533724 235.265025 
L 360.765882 235.71413 
L 359.998041 235.939898 
L 359.2302 235.975578 
L 358.462358 235.934973 
L 357.694517 236.56846 
L 356.926675 235.900486 
L 356.158834 236.617623 
L 355.390992 235.906788 
L 354.623151 235.675728 
L 353.85531 235.436079 
L 353.087468 236.573319 
L 352.319627 235.903735 
L 351.551785 235.203134 
L 350.783944 236.232223 
L 350.016103 235.057132 
L 349.248261 236.855802 
L 348.48042 236.192324 
L 347.712578 236.011801 
L 346.944737 236.547392 
L 346.176895 236.397001 
L 345.409054 236.421138 
L 344.641213 235.954883 
L 343.873371 236.385534 
L 343.10553 236.443321 
L 342.337688 237.107092 
L 341.569847 236.849398 
L 340.802006 236.740482 
L 340.034164 236.485914 
L 339.266323 236.692105 
L 338.498481 236.411772 
L 337.73064 236.153818 
L 336.962798 236.575537 
L 336.194957 236.309104 
L 335.427116 236.763994 
L 334.659274 236.725977 
L 333.891433 236.136625 
L 333.123591 235.555267 
L 332.35575 235.516491 
L 331.587909 235.8969 
L 330.820067 236.415479 
L 330.052226 235.664103 
L 329.284384 237.222575 
L 328.516543 236.843466 
L 327.748701 236.859252 
L 326.98086 237.012792 
L 326.213019 236.247279 
L 325.445177 236.864898 
L 324.677336 235.757274 
L 323.909494 236.40337 
L 323.141653 235.951954 
L 322.373811 237.151687 
L 321.60597 236.006403 
L 320.838129 236.373836 
L 320.070287 237.12024 
L 319.302446 237.145725 
L 318.534604 237.625801 
L 317.766763 236.382444 
L 316.998922 236.759956 
L 316.23108 236.648727 
L 315.463239 237.141536 
L 314.695397 236.525403 
L 313.927556 236.993758 
L 313.159714 236.828448 
L 312.391873 237.217916 
L 311.624032 236.795459 
L 310.85619 236.362964 
L 310.088349 236.264728 
L 309.320507 236.558294 
L 308.552666 236.780117 
L 307.784825 236.782837 
L 307.016983 236.506713 
L 306.249142 237.01107 
L 305.4813 236.77097 
L 304.713459 235.916359 
L 303.945617 236.57655 
L 303.177776 236.846192 
L 302.409935 236.507107 
L 301.642093 235.971729 
L 300.874252 236.172172 
L 300.10641 236.516818 
L 299.338569 236.744605 
L 298.570728 237.632862 
L 297.802886 236.758262 
L 297.035045 236.159618 
L 296.267203 237.042189 
L 295.499362 236.235139 
L 294.73152 236.367658 
L 293.963679 236.936542 
L 293.195838 237.193454 
L 292.427996 236.9689 
L 291.660155 236.836795 
L 290.892313 236.585302 
L 290.124472 236.277723 
L 289.356631 236.673685 
L 288.588789 237.308551 
L 287.820948 237.07428 
L 287.053106 236.688386 
L 286.285265 236.856122 
L 285.517423 236.76196 
L 284.749582 236.365377 
L 283.981741 237.325655 
L 283.213899 236.891265 
L 282.446058 236.752667 
L 281.678216 236.479163 
L 280.910375 237.529769 
L 280.142534 236.747368 
L 279.374692 237.606219 
L 278.606851 236.669454 
L 277.839009 236.575774 
L 277.071168 235.96828 
L 276.303326 236.096706 
L 275.535485 236.257968 
L 274.767644 237.19808 
L 273.999802 237.091968 
L 273.231961 236.050969 
L 272.464119 237.243882 
L 271.696278 237.045894 
L 270.928437 236.890556 
L 270.160595 236.461372 
L 269.392754 237.602251 
L 268.624912 236.305731 
L 267.857071 237.013787 
L 267.089229 237.393543 
L 266.321388 237.359289 
L 265.553547 237.337611 
L 264.785705 237.940476 
L 264.017864 237.366417 
L 263.250022 236.133121 
L 262.482181 237.640198 
L 261.71434 237.529386 
L 260.946498 236.771104 
L 260.178657 237.298197 
L 259.410815 236.097009 
L 258.642974 237.436004 
L 257.875132 236.886219 
L 257.107291 237.137203 
L 256.33945 237.165415 
L 255.571608 237.510446 
L 254.803767 237.229694 
L 254.035925 237.287313 
L 253.268084 237.548943 
L 252.500243 237.279698 
L 251.732401 236.872227 
L 250.96456 238.460529 
L 250.196718 236.39231 
L 249.428877 236.314229 
L 248.661035 238.03487 
L 247.893194 236.805733 
L 247.125353 237.532704 
L 246.357511 237.637468 
L 245.58967 237.589332 
L 244.821828 237.565506 
L 244.053987 236.915763 
L 243.286146 237.6675 
L 242.518304 237.941249 
L 241.750463 237.336496 
L 240.982621 236.831216 
L 240.21478 236.963542 
L 239.446938 237.452824 
L 238.679097 236.284645 
L 237.911256 237.200722 
L 237.143414 236.902001 
L 236.375573 237.316015 
L 235.607731 236.765228 
L 234.83989 237.276254 
L 234.072049 238.18776 
L 233.304207 236.637272 
L 232.536366 237.384381 
L 231.768524 237.458337 
L 231.000683 237.25593 
L 230.232841 237.321291 
L 229.465 237.433732 
L 228.697159 237.300417 
L 227.929317 237.517036 
L 227.161476 236.797041 
L 226.393634 238.194797 
L 225.625793 237.360895 
L 224.857951 238.194933 
L 224.09011 237.447403 
L 223.322269 237.804403 
L 222.554427 237.69404 
L 221.786586 238.280711 
L 221.018744 237.36285 
L 220.250903 238.129659 
L 219.483062 237.409946 
L 218.71522 237.849728 
L 217.947379 238.025866 
L 217.179537 237.858496 
L 216.411696 238.039708 
L 215.643854 237.589938 
L 214.876013 238.02927 
L 214.108172 237.832145 
L 213.34033 238.792147 
L 212.572489 237.876063 
L 211.804647 237.995718 
L 211.036806 238.222793 
L 210.268965 237.453698 
L 209.501123 238.659275 
L 208.733282 237.993324 
L 207.96544 238.294056 
L 207.197599 238.364654 
L 206.429757 238.053539 
L 205.661916 238.321219 
L 204.894075 237.337824 
L 204.126233 238.467114 
L 203.358392 238.145415 
L 202.59055 238.350003 
L 201.822709 238.339317 
L 201.054868 239.21914 
L 200.287026 238.328212 
L 199.519185 238.377711 
L 198.751343 238.243528 
L 197.983502 238.230254 
L 197.21566 238.764056 
L 196.447819 237.945324 
L 195.679978 238.538635 
L 194.912136 238.92597 
L 194.144295 238.773409 
L 193.376453 238.212615 
L 192.608612 238.483407 
L 191.840771 238.387084 
L 191.072929 238.654185 
L 190.305088 238.855169 
L 189.537246 239.431085 
L 188.769405 238.691292 
L 188.001563 238.433157 
L 187.233722 238.941423 
L 186.465881 238.746663 
L 185.698039 238.664735 
L 184.930198 237.812258 
L 184.162356 238.995895 
L 183.394515 238.273861 
L 182.626674 239.249506 
L 181.858832 239.236831 
L 181.090991 238.476524 
L 180.323149 238.974586 
L 179.555308 238.635935 
L 178.787466 238.970504 
L 178.019625 238.748236 
L 177.251784 239.640945 
L 176.483942 240.022176 
L 175.716101 238.943748 
L 174.948259 239.184208 
L 174.180418 239.908511 
L 173.412577 239.21967 
L 172.644735 239.785372 
L 171.876894 238.917631 
L 171.109052 239.105737 
L 170.341211 239.467554 
L 169.573369 239.090519 
L 168.805528 239.324046 
L 168.037687 239.246554 
L 167.269845 239.143458 
L 166.502004 239.11259 
L 165.734162 239.687182 
L 164.966321 239.920801 
L 164.19848 239.658348 
L 163.430638 238.876445 
L 162.662797 239.028739 
L 161.894955 239.736476 
L 161.127114 239.944909 
L 160.359272 239.399671 
L 159.591431 239.389423 
L 158.82359 238.844574 
L 158.055748 239.580813 
L 157.287907 239.599906 
L 156.520065 239.680678 
L 155.752224 239.865262 
L 154.984383 238.775183 
L 154.216541 239.566627 
L 153.4487 239.630864 
L 152.680858 239.301732 
L 151.913017 239.382295 
L 151.145175 239.602776 
L 150.377334 240.056442 
L 149.609493 239.246519 
L 148.841651 239.760045 
L 148.07381 239.691076 
L 147.305968 239.784331 
L 146.538127 239.560872 
L 145.770286 239.95228 
L 145.002444 240.241494 
L 144.234603 239.7313 
L 143.466761 239.608688 
L 142.69892 239.886098 
L 141.931078 239.726983 
L 141.163237 239.826273 
L 140.395396 240.116209 
L 139.627554 239.935035 
L 138.859713 239.023748 
L 138.091871 240.233711 
L 137.32403 240.103581 
L 136.556189 239.803784 
L 135.788347 240.360382 
L 135.020506 239.18465 
L 134.252664 240.025198 
L 133.484823 240.110987 
L 132.716981 240.543926 
L 131.94914 239.628397 
L 131.181299 240.340058 
L 130.413457 239.875596 
L 129.645616 239.512776 
L 128.877774 240.435631 
L 128.109933 239.987607 
L 127.342091 240.074012 
L 126.57425 240.321656 
L 125.806409 240.143394 
L 125.038567 240.537319 
L 124.270726 240.45682 
L 123.502884 240.458223 
L 122.735043 240.542667 
L 121.967202 240.049213 
L 121.19936 240.171904 
L 120.431519 239.803957 
L 119.663677 240.740972 
L 118.895836 240.285016 
L 118.127994 240.00521 
L 117.360153 240.342188 
L 116.592312 240.48143 
L 115.82447 240.186621 
L 115.056629 240.404725 
L 114.288787 240.248291 
L 113.520946 240.260945 
L 112.753105 239.675332 
L 111.985263 240.744063 
L 111.217422 240.401058 
L 110.44958 240.536762 
L 109.681739 240.627857 
L 108.913897 241.110846 
L 108.146056 241.088972 
L 107.378215 240.403873 
L 106.610373 240.620563 
L 105.842532 241.207673 
L 105.07469 240.690553 
L 104.306849 241.359301 
L 103.539008 241.199985 
L 102.771166 241.035997 
L 102.003325 241.495361 
L 101.235483 241.038957 
L 100.467642 241.484616 
L 99.6998 240.434842 
L 98.931959 241.313972 
L 98.164118 241.234508 
L 97.396276 241.7115 
L 96.628435 242.014294 
L 95.860593 241.007145 
L 95.092752 241.757173 
L 94.324911 241.565773 
L 93.557069 241.807642 
L 92.789228 241.546997 
L 92.021386 241.585382 
L 91.253545 241.681041 
L 90.485703 241.968048 
L 89.717862 241.101393 
L 88.950021 242.070757 
L 88.182179 241.340746 
L 87.414338 241.83493 
L 86.646496 241.781998 
L 85.878655 241.82436 
L 85.110814 241.2384 
L 84.342972 240.537108 
L 83.575131 241.347751 
L 82.807289 242.276283 
L 82.039448 242.16848 
L 81.271606 241.551218 
L 80.503765 242.300951 
L 79.735924 241.96017 
L 78.968082 241.723206 
L 78.200241 241.19768 
L 77.432399 241.78998 
L 76.664558 241.650121 
L 75.896717 242.093148 
L 75.128875 241.312308 
L 74.361034 242.197224 
L 73.593192 242.600084 
L 72.825351 242.044306 
L 72.057509 242.597771 
L 71.289668 242.533537 
L 70.521827 242.204595 
L 69.753985 242.2636 
L 68.986144 242.181876 
L 68.218302 241.98659 
L 67.450461 242.48176 
L 66.68262 243.056206 
L 65.914778 242.426291 
L 65.146937 243.315806 
L 64.379095 242.793942 
L 63.611254 243.057115 
L 62.843412 242.951847 
L 62.075571 243.047688 
L 61.30773 242.84893 
L 60.539888 242.979239 
L 59.772047 243.81864 
L 59.004205 242.994306 
L 58.236364 242.677529 
L 57.468523 243.274153 
L 56.700681 243.638279 
L 55.93284 244.376675 
L 55.164998 244.267942 
L 54.397157 244.21384 
L 53.629315 244.95379 
L 52.861474 244.416127 
L 52.093633 245.548114 
L 51.325791 244.621051 
L 50.55795 245.080306 
L 49.790108 245.881073 
L 49.022267 246.242937 
L 48.254426 246.080901 
L 47.486584 246.332866 
L 46.718743 246.725163 
L 45.950901 247.027306 
L 45.18306 247.19961 
L 44.415218 248.132458 
L 43.647377 248.731612 
L 42.879536 249.51124 
L 42.111694 249.266119 
L 41.343853 250.414933 
L 40.576011 251.302123 
L 39.80817 252.171488 
L 39.040329 252.939065 
L 38.272487 253.946213 
L 37.504646 255.3632 
z
" style="fill:#0000ff;fill-opacity:0.3;"/>
   </g>
   <g id="line2d_1">
    <path clip-path="url(#pe1c1596a2b)" d="M 37.504646 255.3632 
L 39.80817 254.098299 
L 41.343853 253.14455 
L 42.111694 252.332848 
L 42.879536 252.224621 
L 45.950901 250.350944 
L 46.718743 250.438878 
L 48.254426 249.566299 
L 49.022267 249.478364 
L 51.325791 248.314926 
L 52.093633 248.707248 
L 52.861474 248.078179 
L 53.629315 248.450209 
L 54.397157 247.936132 
L 55.164998 247.753499 
L 55.93284 247.929367 
L 56.700681 247.41529 
L 57.468523 247.313827 
L 58.236364 246.982382 
L 59.004205 246.772693 
L 59.772047 247.712914 
L 60.539888 246.765929 
L 61.30773 246.664466 
L 62.075571 246.7524 
L 62.843412 247.083845 
L 63.611254 246.887684 
L 67.450461 246.569767 
L 68.218302 245.954227 
L 68.986144 246.008341 
L 69.753985 246.366842 
L 70.521827 246.515654 
L 71.289668 246.05569 
L 72.057509 246.353314 
L 72.825351 246.069218 
L 74.361034 246.170681 
L 75.128875 245.501027 
L 75.896717 245.960991 
L 76.664558 245.76483 
L 77.432399 245.257517 
L 78.200241 245.31163 
L 78.968082 245.778358 
L 80.503765 245.852764 
L 81.271606 245.47397 
L 82.039448 245.906878 
L 82.807289 245.703952 
L 83.575131 245.176346 
L 84.342972 244.986949 
L 85.110814 244.953129 
L 85.878655 245.399564 
L 86.646496 245.352215 
L 87.414338 245.609254 
L 88.182179 245.298102 
L 88.950021 245.703952 
L 89.717862 244.932836 
L 90.485703 245.636311 
L 91.253545 245.23046 
L 92.021386 245.298102 
L 92.789228 245.183111 
L 93.557069 245.406329 
L 95.092752 245.304866 
L 95.860593 244.804317 
L 96.628435 245.609254 
L 97.396276 245.162818 
L 98.931959 245.122233 
L 99.6998 244.750203 
L 100.467642 245.162818 
L 102.771166 244.608155 
L 103.539008 244.885487 
L 104.306849 245.007242 
L 105.07469 244.587863 
L 105.842532 244.750203 
L 107.378215 244.209069 
L 108.146056 244.662269 
L 108.913897 244.736675 
L 109.681739 244.445815 
L 110.44958 244.554042 
L 111.217422 244.364645 
L 111.985263 244.581099 
L 112.753105 243.958794 
L 114.288787 244.24289 
L 115.056629 244.32406 
L 115.82447 244.669033 
L 116.592312 244.432287 
L 117.360153 244.371409 
L 118.127994 243.897917 
L 118.895836 244.154955 
L 119.663677 244.689326 
L 120.431519 243.857332 
L 121.19936 244.378173 
L 121.967202 244.229361 
L 123.502884 244.290239 
L 124.270726 244.148191 
L 125.038567 244.371409 
L 125.806409 244.121135 
L 126.57425 244.425523 
L 127.342091 243.999379 
L 128.109933 244.019672 
L 128.877774 244.587863 
L 129.645616 243.74234 
L 130.413457 243.972323 
L 131.181299 244.060257 
L 131.94914 243.796454 
L 132.716981 244.303767 
L 133.484823 244.154955 
L 134.252664 243.891152 
L 135.020506 243.762633 
L 135.788347 244.16172 
L 137.32403 244.209069 
L 138.091871 243.931737 
L 138.859713 243.221499 
L 139.627554 243.904681 
L 140.395396 244.134663 
L 141.163237 243.803218 
L 141.931078 243.66117 
L 144.234603 243.735576 
L 145.002444 244.148191 
L 145.770286 243.877624 
L 148.07381 243.620585 
L 148.841651 243.897917 
L 149.609493 243.532651 
L 150.377334 244.060257 
L 151.145175 243.634114 
L 152.680858 243.370311 
L 153.4487 243.70852 
L 154.216541 243.485302 
L 154.984383 243.072687 
L 156.520065 243.823511 
L 157.287907 243.559708 
L 158.055748 243.607057 
L 158.82359 243.059158 
L 159.591431 243.613821 
L 160.359272 243.302669 
L 161.127114 243.573236 
L 162.662797 243.329726 
L 163.430638 243.133564 
L 164.19848 243.857332 
L 164.966321 243.857332 
L 165.734162 243.431188 
L 166.502004 243.49883 
L 168.037687 242.991517 
L 168.805528 243.221499 
L 169.573369 242.998281 
L 170.341211 243.383839 
L 171.109052 242.781827 
L 171.876894 242.849469 
L 172.644735 243.410896 
L 173.412577 243.262084 
L 174.180418 243.431188 
L 174.948259 243.235027 
L 175.716101 242.59243 
L 176.483942 243.350018 
L 177.251784 243.451481 
L 178.019625 242.788591 
L 178.787466 243.099743 
L 180.323149 242.869761 
L 181.090991 242.96446 
L 181.858832 243.214734 
L 182.626674 243.262084 
L 183.394515 242.524788 
L 184.162356 243.140329 
L 184.930198 242.206872 
L 186.465881 242.890054 
L 188.001563 242.944167 
L 188.769405 242.639779 
L 189.537246 243.086215 
L 190.305088 242.605958 
L 191.072929 242.450382 
L 191.840771 242.59243 
L 192.608612 242.599194 
L 193.376453 242.403033 
L 194.144295 242.693893 
L 196.447819 242.2204 
L 197.21566 242.38274 
L 197.983502 242.085117 
L 198.751343 242.443618 
L 199.519185 242.578902 
L 200.287026 242.531552 
L 201.054868 242.768299 
L 201.822709 242.551845 
L 202.59055 242.13923 
L 203.358392 242.409797 
L 204.126233 242.369212 
L 204.894075 241.550746 
L 205.661916 242.166287 
L 206.429757 242.247457 
L 207.197599 242.531552 
L 208.733282 241.855134 
L 209.501123 242.389505 
L 210.268965 241.665737 
L 211.036806 242.294806 
L 211.804647 241.855134 
L 213.34033 242.369212 
L 214.108172 241.956597 
L 214.876013 242.43009 
L 216.411696 241.753672 
L 217.179537 242.051296 
L 217.947379 242.213636 
L 218.71522 241.943069 
L 219.483062 242.200108 
L 220.250903 242.085117 
L 221.018744 241.773964 
L 221.786586 242.186579 
L 222.554427 241.834842 
L 223.322269 241.807785 
L 224.09011 241.408699 
L 224.857951 242.159523 
L 225.625793 241.598096 
L 226.393634 241.970126 
L 227.161476 241.39517 
L 227.929317 241.706323 
L 228.697159 241.652209 
L 229.465 241.746908 
L 230.232841 241.571039 
L 231.000683 241.577803 
L 231.768524 241.199009 
L 232.536366 241.489869 
L 233.304207 241.002848 
L 234.072049 241.97689 
L 234.83989 241.726615 
L 235.607731 240.98932 
L 236.375573 241.462812 
L 237.143414 240.806687 
L 237.911256 241.401934 
L 238.679097 240.975791 
L 239.446938 241.773964 
L 240.21478 241.489869 
L 240.982621 241.449284 
L 241.750463 241.807785 
L 242.518304 241.882191 
L 243.286146 241.658973 
L 244.053987 241.199009 
L 244.821828 241.60486 
L 245.58967 241.834842 
L 246.357511 241.408699 
L 247.125353 241.84837 
L 247.893194 241.144896 
L 248.661035 242.037767 
L 249.428877 240.962263 
L 250.196718 241.212537 
L 250.96456 242.003946 
L 251.732401 240.94197 
L 253.268084 241.794257 
L 254.035925 241.564275 
L 254.803767 241.489869 
L 255.571608 241.577803 
L 256.33945 241.266651 
L 257.107291 241.347821 
L 257.875132 240.98932 
L 258.642974 241.60486 
L 259.410815 240.644346 
L 260.178657 241.435755 
L 260.946498 241.02314 
L 261.71434 241.618388 
L 262.482181 241.706323 
L 263.250022 240.766102 
L 264.017864 241.577803 
L 266.321388 241.347821 
L 267.089229 241.902484 
L 268.624912 240.847272 
L 269.392754 241.665737 
L 270.160595 240.820215 
L 270.928437 241.341057 
L 271.696278 241.117839 
L 272.464119 241.44252 
L 273.231961 240.549648 
L 273.999802 241.259887 
L 274.767644 241.584567 
L 275.535485 240.806687 
L 276.303326 240.786394 
L 277.071168 240.191146 
L 277.839009 240.935206 
L 279.374692 241.428991 
L 280.142534 241.077254 
L 280.910375 241.571039 
L 281.678216 240.793158 
L 282.446058 241.056961 
L 283.213899 240.914914 
L 283.981741 241.111075 
L 284.749582 240.678167 
L 285.517423 241.063725 
L 286.285265 241.178717 
L 287.053106 241.002848 
L 288.588789 241.530454 
L 289.356631 241.016376 
L 290.124472 240.799922 
L 292.427996 241.124603 
L 293.195838 241.253122 
L 293.963679 241.192245 
L 294.73152 240.786394 
L 295.499362 240.77963 
L 296.267203 241.530454 
L 297.035045 240.624054 
L 297.802886 241.097546 
L 298.570728 241.347821 
L 299.338569 241.368114 
L 301.642093 240.529355 
L 302.409935 240.542884 
L 303.177776 241.199009 
L 304.713459 240.475242 
L 305.4813 240.935206 
L 306.249142 241.537218 
L 307.016983 240.718752 
L 307.784825 241.056961 
L 309.320507 241.293708 
L 310.088349 240.77963 
L 310.85619 241.131367 
L 311.624032 240.935206 
L 313.159714 240.996084 
L 313.927556 241.44252 
L 314.695397 240.840508 
L 315.463239 241.354585 
L 316.23108 240.813451 
L 316.998922 240.854036 
L 317.766763 240.637582 
L 318.534604 241.469576 
L 319.302446 240.948734 
L 320.070287 241.503397 
L 320.838129 240.549648 
L 321.60597 240.285845 
L 322.373811 241.117839 
L 323.141653 240.644346 
L 324.677336 240.596997 
L 325.445177 240.739045 
L 326.213019 240.684931 
L 326.98086 241.226066 
L 328.516543 240.684931 
L 329.284384 241.009612 
L 330.052226 240.502299 
L 330.820067 240.908149 
L 331.587909 240.299373 
L 332.35575 240.468478 
L 333.123591 240.008514 
L 333.891433 240.61729 
L 334.659274 240.671403 
L 335.427116 240.894621 
L 336.194957 240.61729 
L 336.962798 240.705224 
L 337.73064 240.137033 
L 338.498481 240.529355 
L 339.266323 240.394072 
L 340.034164 240.772866 
L 340.802006 241.354585 
L 341.569847 240.935206 
L 344.641213 240.184382 
L 346.176895 240.908149 
L 346.944737 240.799922 
L 347.712578 240.394072 
L 348.48042 240.414364 
L 349.248261 240.8608 
L 350.016103 239.595899 
L 350.783944 240.563176 
L 351.551785 239.474143 
L 352.319627 240.272317 
L 353.087468 240.826979 
L 353.85531 240.082919 
L 354.623151 240.231731 
L 355.390992 240.556412 
L 356.158834 240.691696 
L 356.926675 240.218203 
L 357.694517 240.739045 
L 358.462358 240.745809 
L 359.998041 240.380543 
L 361.533724 239.737946 
L 362.301565 240.03557 
L 363.069407 240.739045 
L 363.837248 240.109976 
L 365.372931 239.79206 
L 366.140772 240.367015 
L 366.908614 241.124603 
L 367.676455 240.522591 
L 368.444297 239.568842 
L 369.212138 240.191146 
L 369.979979 239.886758 
L 370.747821 240.028806 
L 371.515662 240.353487 
L 373.051345 240.103212 
L 373.819186 239.832645 
L 374.587028 240.022042 
L 375.354869 240.678167 
L 376.122711 240.448185 
L 376.890552 239.988221 
L 377.658394 240.847272 
L 378.426235 239.562078 
L 379.194076 240.630818 
L 379.961918 239.927343 
L 380.729759 240.434657 
L 381.497601 240.563176 
L 382.265442 240.826979 
L 383.801125 240.157325 
L 384.568966 240.630818 
L 385.336808 240.752573 
L 386.872491 239.907051 
L 387.640332 239.819116 
L 388.408173 240.56994 
L 389.176015 240.123505 
L 389.943856 240.096448 
L 391.479539 240.346722 
L 392.24738 240.062627 
L 393.783063 240.015278 
L 394.550905 239.71089 
L 395.318746 240.48877 
L 396.086588 239.758239 
L 397.62227 239.852937 
L 398.390112 240.211439 
L 399.157953 239.704125 
L 399.925795 240.380543 
L 400.693636 239.967928 
L 401.461477 240.015278 
L 402.229319 239.697361 
L 402.99716 239.947636 
L 403.765002 240.434657 
L 404.532843 239.974693 
L 405.300685 240.170854 
L 406.068526 239.386209 
L 406.836367 240.062627 
L 407.604209 240.062627 
L 408.37205 239.798824 
L 409.139892 240.394072 
L 409.907733 239.636484 
L 410.675574 239.812352 
L 411.443416 240.4076 
L 412.211257 240.387308 
L 412.979099 239.913815 
L 413.74694 239.305039 
L 414.514782 239.629719 
L 416.050464 239.87323 
L 416.818306 240.170854 
L 417.586147 239.595899 
L 418.353989 239.981457 
L 419.889671 239.359152 
L 421.425354 239.494436 
L 421.425354 239.494436 
" style="fill:none;stroke:#0000ff;stroke-linecap:round;"/>
   </g>
   <g id="matplotlib.axis_1">
    <g id="xtick_1">
     <g id="line2d_2">
      <defs>
       <path d="M 0 0 
L 0 3.5 
" id="mf366cdf99e" style="stroke:#000000;stroke-width:0.8;"/>
      </defs>
      <g>
       <use style="stroke:#000000;stroke-width:0.8;" x="37.504646" xlink:href="#mf366cdf99e" y="258.685354"/>
      </g>
     </g>
     <g id="text_1">
      <!-- 0 -->
      <defs>
       <path d="M 31.78125 66.40625 
Q 24.171875 66.40625 20.328125 58.90625 
Q 16.5 51.421875 16.5 36.375 
Q 16.5 21.390625 20.328125 13.890625 
Q 24.171875 6.390625 31.78125 6.390625 
Q 39.453125 6.390625 43.28125 13.890625 
Q 47.125 21.390625 47.125 36.375 
Q 47.125 51.421875 43.28125 58.90625 
Q 39.453125 66.40625 31.78125 66.40625 
M 31.78125 74.21875 
Q 44.046875 74.21875 50.515625 64.515625 
Q 56.984375 54.828125 56.984375 36.375 
Q 56.984375 17.96875 50.515625 8.265625 
Q 44.046875 -1.421875 31.78125 -1.421875 
Q 19.53125 -1.421875 13.0625 8.265625 
Q 6.59375 17.96875 6.59375 36.375 
Q 6.59375 54.828125 13.0625 64.515625 
Q 19.53125 74.21875 31.78125 74.21875 
" id="DejaVuSans-30"/>
      </defs>
      <g transform="translate(34.959646 271.764104)scale(0.08 -0.08)">
       <use xlink:href="#DejaVuSans-30"/>
      </g>
     </g>
    </g>
    <g id="xtick_2">
     <g id="line2d_3">
      <g>
       <use style="stroke:#000000;stroke-width:0.8;" x="114.288787" xlink:href="#mf366cdf99e" y="258.685354"/>
      </g>
     </g>
     <g id="text_2">
      <!-- 200 -->
      <defs>
       <path d="M 19.1875 8.296875 
L 53.609375 8.296875 
L 53.609375 0 
L 7.328125 0 
L 7.328125 8.296875 
Q 12.9375 14.109375 22.625 23.890625 
Q 32.328125 33.6875 34.8125 36.53125 
Q 39.546875 41.84375 41.421875 45.53125 
Q 43.3125 49.21875 43.3125 52.78125 
Q 43.3125 58.59375 39.234375 62.25 
Q 35.15625 65.921875 28.609375 65.921875 
Q 23.96875 65.921875 18.8125 64.3125 
Q 13.671875 62.703125 7.8125 59.421875 
L 7.8125 69.390625 
Q 13.765625 71.78125 18.9375 73 
Q 24.125 74.21875 28.421875 74.21875 
Q 39.75 74.21875 46.484375 68.546875 
Q 53.21875 62.890625 53.21875 53.421875 
Q 53.21875 48.921875 51.53125 44.890625 
Q 49.859375 40.875 45.40625 35.40625 
Q 44.1875 33.984375 37.640625 27.21875 
Q 31.109375 20.453125 19.1875 8.296875 
" id="DejaVuSans-32"/>
      </defs>
      <g transform="translate(106.653787 271.764104)scale(0.08 -0.08)">
       <use xlink:href="#DejaVuSans-32"/>
       <use x="63.623047" xlink:href="#DejaVuSans-30"/>
       <use x="127.246094" xlink:href="#DejaVuSans-30"/>
      </g>
     </g>
    </g>
    <g id="xtick_3">
     <g id="line2d_4">
      <g>
       <use style="stroke:#000000;stroke-width:0.8;" x="191.072929" xlink:href="#mf366cdf99e" y="258.685354"/>
      </g>
     </g>
     <g id="text_3">
      <!-- 400 -->
      <defs>
       <path d="M 37.796875 64.3125 
L 12.890625 25.390625 
L 37.796875 25.390625 
z
M 35.203125 72.90625 
L 47.609375 72.90625 
L 47.609375 25.390625 
L 58.015625 25.390625 
L 58.015625 17.1875 
L 47.609375 17.1875 
L 47.609375 0 
L 37.796875 0 
L 37.796875 17.1875 
L 4.890625 17.1875 
L 4.890625 26.703125 
z
" id="DejaVuSans-34"/>
      </defs>
      <g transform="translate(183.437929 271.764104)scale(0.08 -0.08)">
       <use xlink:href="#DejaVuSans-34"/>
       <use x="63.623047" xlink:href="#DejaVuSans-30"/>
       <use x="127.246094" xlink:href="#DejaVuSans-30"/>
      </g>
     </g>
    </g>
    <g id="xtick_4">
     <g id="line2d_5">
      <g>
       <use style="stroke:#000000;stroke-width:0.8;" x="267.857071" xlink:href="#mf366cdf99e" y="258.685354"/>
      </g>
     </g>
     <g id="text_4">
      <!-- 600 -->
      <defs>
       <path d="M 33.015625 40.375 
Q 26.375 40.375 22.484375 35.828125 
Q 18.609375 31.296875 18.609375 23.390625 
Q 18.609375 15.53125 22.484375 10.953125 
Q 26.375 6.390625 33.015625 6.390625 
Q 39.65625 6.390625 43.53125 10.953125 
Q 47.40625 15.53125 47.40625 23.390625 
Q 47.40625 31.296875 43.53125 35.828125 
Q 39.65625 40.375 33.015625 40.375 
M 52.59375 71.296875 
L 52.59375 62.3125 
Q 48.875 64.0625 45.09375 64.984375 
Q 41.3125 65.921875 37.59375 65.921875 
Q 27.828125 65.921875 22.671875 59.328125 
Q 17.53125 52.734375 16.796875 39.40625 
Q 19.671875 43.65625 24.015625 45.921875 
Q 28.375 48.1875 33.59375 48.1875 
Q 44.578125 48.1875 50.953125 41.515625 
Q 57.328125 34.859375 57.328125 23.390625 
Q 57.328125 12.15625 50.6875 5.359375 
Q 44.046875 -1.421875 33.015625 -1.421875 
Q 20.359375 -1.421875 13.671875 8.265625 
Q 6.984375 17.96875 6.984375 36.375 
Q 6.984375 53.65625 15.1875 63.9375 
Q 23.390625 74.21875 37.203125 74.21875 
Q 40.921875 74.21875 44.703125 73.484375 
Q 48.484375 72.75 52.59375 71.296875 
" id="DejaVuSans-36"/>
      </defs>
      <g transform="translate(260.222071 271.764104)scale(0.08 -0.08)">
       <use xlink:href="#DejaVuSans-36"/>
       <use x="63.623047" xlink:href="#DejaVuSans-30"/>
       <use x="127.246094" xlink:href="#DejaVuSans-30"/>
      </g>
     </g>
    </g>
    <g id="xtick_5">
     <g id="line2d_6">
      <g>
       <use style="stroke:#000000;stroke-width:0.8;" x="344.641213" xlink:href="#mf366cdf99e" y="258.685354"/>
      </g>
     </g>
     <g id="text_5">
      <!-- 800 -->
      <defs>
       <path d="M 31.78125 34.625 
Q 24.75 34.625 20.71875 30.859375 
Q 16.703125 27.09375 16.703125 20.515625 
Q 16.703125 13.921875 20.71875 10.15625 
Q 24.75 6.390625 31.78125 6.390625 
Q 38.8125 6.390625 42.859375 10.171875 
Q 46.921875 13.96875 46.921875 20.515625 
Q 46.921875 27.09375 42.890625 30.859375 
Q 38.875 34.625 31.78125 34.625 
M 21.921875 38.8125 
Q 15.578125 40.375 12.03125 44.71875 
Q 8.5 49.078125 8.5 55.328125 
Q 8.5 64.0625 14.71875 69.140625 
Q 20.953125 74.21875 31.78125 74.21875 
Q 42.671875 74.21875 48.875 69.140625 
Q 55.078125 64.0625 55.078125 55.328125 
Q 55.078125 49.078125 51.53125 44.71875 
Q 48 40.375 41.703125 38.8125 
Q 48.828125 37.15625 52.796875 32.3125 
Q 56.78125 27.484375 56.78125 20.515625 
Q 56.78125 9.90625 50.3125 4.234375 
Q 43.84375 -1.421875 31.78125 -1.421875 
Q 19.734375 -1.421875 13.25 4.234375 
Q 6.78125 9.90625 6.78125 20.515625 
Q 6.78125 27.484375 10.78125 32.3125 
Q 14.796875 37.15625 21.921875 38.8125 
M 18.3125 54.390625 
Q 18.3125 48.734375 21.84375 45.5625 
Q 25.390625 42.390625 31.78125 42.390625 
Q 38.140625 42.390625 41.71875 45.5625 
Q 45.3125 48.734375 45.3125 54.390625 
Q 45.3125 60.0625 41.71875 63.234375 
Q 38.140625 66.40625 31.78125 66.40625 
Q 25.390625 66.40625 21.84375 63.234375 
Q 18.3125 60.0625 18.3125 54.390625 
" id="DejaVuSans-38"/>
      </defs>
      <g transform="translate(337.006213 271.764104)scale(0.08 -0.08)">
       <use xlink:href="#DejaVuSans-38"/>
       <use x="63.623047" xlink:href="#DejaVuSans-30"/>
       <use x="127.246094" xlink:href="#DejaVuSans-30"/>
      </g>
     </g>
    </g>
    <g id="xtick_6">
     <g id="line2d_7">
      <g>
       <use style="stroke:#000000;stroke-width:0.8;" x="421.425354" xlink:href="#mf366cdf99e" y="258.685354"/>
      </g>
     </g>
     <g id="text_6">
      <!-- 1000 -->
      <defs>
       <path d="M 12.40625 8.296875 
L 28.515625 8.296875 
L 28.515625 63.921875 
L 10.984375 60.40625 
L 10.984375 69.390625 
L 28.421875 72.90625 
L 38.28125 72.90625 
L 38.28125 8.296875 
L 54.390625 8.296875 
L 54.390625 0 
L 12.40625 0 
z
" id="DejaVuSans-31"/>
      </defs>
      <g transform="translate(411.245354 271.764104)scale(0.08 -0.08)">
       <use xlink:href="#DejaVuSans-31"/>
       <use x="63.623047" xlink:href="#DejaVuSans-30"/>
       <use x="127.246094" xlink:href="#DejaVuSans-30"/>
       <use x="190.869141" xlink:href="#DejaVuSans-30"/>
      </g>
     </g>
    </g>
    <g id="text_7">
     <!-- time -->
     <defs>
      <path d="M 18.3125 70.21875 
L 18.3125 54.6875 
L 36.8125 54.6875 
L 36.8125 47.703125 
L 18.3125 47.703125 
L 18.3125 18.015625 
Q 18.3125 11.328125 20.140625 9.421875 
Q 21.96875 7.515625 27.59375 7.515625 
L 36.8125 7.515625 
L 36.8125 0 
L 27.59375 0 
Q 17.1875 0 13.234375 3.875 
Q 9.28125 7.765625 9.28125 18.015625 
L 9.28125 47.703125 
L 2.6875 47.703125 
L 2.6875 54.6875 
L 9.28125 54.6875 
L 9.28125 70.21875 
z
" id="DejaVuSans-74"/>
      <path d="M 9.421875 54.6875 
L 18.40625 54.6875 
L 18.40625 0 
L 9.421875 0 
z
M 9.421875 75.984375 
L 18.40625 75.984375 
L 18.40625 64.59375 
L 9.421875 64.59375 
z
" id="DejaVuSans-69"/>
      <path d="M 52 44.1875 
Q 55.375 50.25 60.0625 53.125 
Q 64.75 56 71.09375 56 
Q 79.640625 56 84.28125 50.015625 
Q 88.921875 44.046875 88.921875 33.015625 
L 88.921875 0 
L 79.890625 0 
L 79.890625 32.71875 
Q 79.890625 40.578125 77.09375 44.375 
Q 74.3125 48.1875 68.609375 48.1875 
Q 61.625 48.1875 57.5625 43.546875 
Q 53.515625 38.921875 53.515625 30.90625 
L 53.515625 0 
L 44.484375 0 
L 44.484375 32.71875 
Q 44.484375 40.625 41.703125 44.40625 
Q 38.921875 48.1875 33.109375 48.1875 
Q 26.21875 48.1875 22.15625 43.53125 
Q 18.109375 38.875 18.109375 30.90625 
L 18.109375 0 
L 9.078125 0 
L 9.078125 54.6875 
L 18.109375 54.6875 
L 18.109375 46.1875 
Q 21.1875 51.21875 25.484375 53.609375 
Q 29.78125 56 35.6875 56 
Q 41.65625 56 45.828125 52.96875 
Q 50 49.953125 52 44.1875 
" id="DejaVuSans-6d"/>
      <path d="M 56.203125 29.59375 
L 56.203125 25.203125 
L 14.890625 25.203125 
Q 15.484375 15.921875 20.484375 11.0625 
Q 25.484375 6.203125 34.421875 6.203125 
Q 39.59375 6.203125 44.453125 7.46875 
Q 49.3125 8.734375 54.109375 11.28125 
L 54.109375 2.78125 
Q 49.265625 0.734375 44.1875 -0.34375 
Q 39.109375 -1.421875 33.890625 -1.421875 
Q 20.796875 -1.421875 13.15625 6.1875 
Q 5.515625 13.8125 5.515625 26.8125 
Q 5.515625 40.234375 12.765625 48.109375 
Q 20.015625 56 32.328125 56 
Q 43.359375 56 49.78125 48.890625 
Q 56.203125 41.796875 56.203125 29.59375 
M 47.21875 32.234375 
Q 47.125 39.59375 43.09375 43.984375 
Q 39.0625 48.390625 32.421875 48.390625 
Q 24.90625 48.390625 20.390625 44.140625 
Q 15.875 39.890625 15.1875 32.171875 
z
" id="DejaVuSans-65"/>
     </defs>
     <g transform="translate(217.039297 285.786136)scale(0.11 -0.11)">
      <use xlink:href="#DejaVuSans-74"/>
      <use x="39.208984" xlink:href="#DejaVuSans-69"/>
      <use x="66.992188" xlink:href="#DejaVuSans-6d"/>
      <use x="164.404297" xlink:href="#DejaVuSans-65"/>
     </g>
    </g>
   </g>
   <g id="matplotlib.axis_2">
    <g id="ytick_1">
     <g id="line2d_8">
      <defs>
       <path d="M 0 0 
L -3.5 0 
" id="mf2b629cd83" style="stroke:#000000;stroke-width:0.8;"/>
      </defs>
      <g>
       <use style="stroke:#000000;stroke-width:0.8;" x="37.504646" xlink:href="#mf2b629cd83" y="255.3632"/>
      </g>
     </g>
     <g id="text_8">
      <!-- 0 -->
      <g transform="translate(25.414646 258.402575)scale(0.08 -0.08)">
       <use xlink:href="#DejaVuSans-30"/>
      </g>
     </g>
    </g>
    <g id="ytick_2">
     <g id="line2d_9">
      <g>
       <use style="stroke:#000000;stroke-width:0.8;" x="37.504646" xlink:href="#mf2b629cd83" y="187.721408"/>
      </g>
     </g>
     <g id="text_9">
      <!-- 100 -->
      <g transform="translate(15.234646 190.760783)scale(0.08 -0.08)">
       <use xlink:href="#DejaVuSans-31"/>
       <use x="63.623047" xlink:href="#DejaVuSans-30"/>
       <use x="127.246094" xlink:href="#DejaVuSans-30"/>
      </g>
     </g>
    </g>
    <g id="ytick_3">
     <g id="line2d_10">
      <g>
       <use style="stroke:#000000;stroke-width:0.8;" x="37.504646" xlink:href="#mf2b629cd83" y="120.079615"/>
      </g>
     </g>
     <g id="text_10">
      <!-- 200 -->
      <g transform="translate(15.234646 123.11899)scale(0.08 -0.08)">
       <use xlink:href="#DejaVuSans-32"/>
       <use x="63.623047" xlink:href="#DejaVuSans-30"/>
       <use x="127.246094" xlink:href="#DejaVuSans-30"/>
      </g>
     </g>
    </g>
    <g id="ytick_4">
     <g id="line2d_11">
      <g>
       <use style="stroke:#000000;stroke-width:0.8;" x="37.504646" xlink:href="#mf2b629cd83" y="52.437822"/>
      </g>
     </g>
     <g id="text_11">
      <!-- 300 -->
      <defs>
       <path d="M 40.578125 39.3125 
Q 47.65625 37.796875 51.625 33 
Q 55.609375 28.21875 55.609375 21.1875 
Q 55.609375 10.40625 48.1875 4.484375 
Q 40.765625 -1.421875 27.09375 -1.421875 
Q 22.515625 -1.421875 17.65625 -0.515625 
Q 12.796875 0.390625 7.625 2.203125 
L 7.625 11.71875 
Q 11.71875 9.328125 16.59375 8.109375 
Q 21.484375 6.890625 26.8125 6.890625 
Q 36.078125 6.890625 40.9375 10.546875 
Q 45.796875 14.203125 45.796875 21.1875 
Q 45.796875 27.640625 41.28125 31.265625 
Q 36.765625 34.90625 28.71875 34.90625 
L 20.21875 34.90625 
L 20.21875 43.015625 
L 29.109375 43.015625 
Q 36.375 43.015625 40.234375 45.921875 
Q 44.09375 48.828125 44.09375 54.296875 
Q 44.09375 59.90625 40.109375 62.90625 
Q 36.140625 65.921875 28.71875 65.921875 
Q 24.65625 65.921875 20.015625 65.03125 
Q 15.375 64.15625 9.8125 62.3125 
L 9.8125 71.09375 
Q 15.4375 72.65625 20.34375 73.4375 
Q 25.25 74.21875 29.59375 74.21875 
Q 40.828125 74.21875 47.359375 69.109375 
Q 53.90625 64.015625 53.90625 55.328125 
Q 53.90625 49.265625 50.4375 45.09375 
Q 46.96875 40.921875 40.578125 39.3125 
" id="DejaVuSans-33"/>
      </defs>
      <g transform="translate(15.234646 55.477197)scale(0.08 -0.08)">
       <use xlink:href="#DejaVuSans-33"/>
       <use x="63.623047" xlink:href="#DejaVuSans-30"/>
       <use x="127.246094" xlink:href="#DejaVuSans-30"/>
      </g>
     </g>
    </g>
    <g id="text_12">
     <!-- population mean -->
     <defs>
      <path d="M 18.109375 8.203125 
L 18.109375 -20.796875 
L 9.078125 -20.796875 
L 9.078125 54.6875 
L 18.109375 54.6875 
L 18.109375 46.390625 
Q 20.953125 51.265625 25.265625 53.625 
Q 29.59375 56 35.59375 56 
Q 45.5625 56 51.78125 48.09375 
Q 58.015625 40.1875 58.015625 27.296875 
Q 58.015625 14.40625 51.78125 6.484375 
Q 45.5625 -1.421875 35.59375 -1.421875 
Q 29.59375 -1.421875 25.265625 0.953125 
Q 20.953125 3.328125 18.109375 8.203125 
M 48.6875 27.296875 
Q 48.6875 37.203125 44.609375 42.84375 
Q 40.53125 48.484375 33.40625 48.484375 
Q 26.265625 48.484375 22.1875 42.84375 
Q 18.109375 37.203125 18.109375 27.296875 
Q 18.109375 17.390625 22.1875 11.75 
Q 26.265625 6.109375 33.40625 6.109375 
Q 40.53125 6.109375 44.609375 11.75 
Q 48.6875 17.390625 48.6875 27.296875 
" id="DejaVuSans-70"/>
      <path d="M 30.609375 48.390625 
Q 23.390625 48.390625 19.1875 42.75 
Q 14.984375 37.109375 14.984375 27.296875 
Q 14.984375 17.484375 19.15625 11.84375 
Q 23.34375 6.203125 30.609375 6.203125 
Q 37.796875 6.203125 41.984375 11.859375 
Q 46.1875 17.53125 46.1875 27.296875 
Q 46.1875 37.015625 41.984375 42.703125 
Q 37.796875 48.390625 30.609375 48.390625 
M 30.609375 56 
Q 42.328125 56 49.015625 48.375 
Q 55.71875 40.765625 55.71875 27.296875 
Q 55.71875 13.875 49.015625 6.21875 
Q 42.328125 -1.421875 30.609375 -1.421875 
Q 18.84375 -1.421875 12.171875 6.21875 
Q 5.515625 13.875 5.515625 27.296875 
Q 5.515625 40.765625 12.171875 48.375 
Q 18.84375 56 30.609375 56 
" id="DejaVuSans-6f"/>
      <path d="M 8.5 21.578125 
L 8.5 54.6875 
L 17.484375 54.6875 
L 17.484375 21.921875 
Q 17.484375 14.15625 20.5 10.265625 
Q 23.53125 6.390625 29.59375 6.390625 
Q 36.859375 6.390625 41.078125 11.03125 
Q 45.3125 15.671875 45.3125 23.6875 
L 45.3125 54.6875 
L 54.296875 54.6875 
L 54.296875 0 
L 45.3125 0 
L 45.3125 8.40625 
Q 42.046875 3.421875 37.71875 1 
Q 33.40625 -1.421875 27.6875 -1.421875 
Q 18.265625 -1.421875 13.375 4.4375 
Q 8.5 10.296875 8.5 21.578125 
M 31.109375 56 
z
" id="DejaVuSans-75"/>
      <path d="M 9.421875 75.984375 
L 18.40625 75.984375 
L 18.40625 0 
L 9.421875 0 
z
" id="DejaVuSans-6c"/>
      <path d="M 34.28125 27.484375 
Q 23.390625 27.484375 19.1875 25 
Q 14.984375 22.515625 14.984375 16.5 
Q 14.984375 11.71875 18.140625 8.90625 
Q 21.296875 6.109375 26.703125 6.109375 
Q 34.1875 6.109375 38.703125 11.40625 
Q 43.21875 16.703125 43.21875 25.484375 
L 43.21875 27.484375 
z
M 52.203125 31.203125 
L 52.203125 0 
L 43.21875 0 
L 43.21875 8.296875 
Q 40.140625 3.328125 35.546875 0.953125 
Q 30.953125 -1.421875 24.3125 -1.421875 
Q 15.921875 -1.421875 10.953125 3.296875 
Q 6 8.015625 6 15.921875 
Q 6 25.140625 12.171875 29.828125 
Q 18.359375 34.515625 30.609375 34.515625 
L 43.21875 34.515625 
L 43.21875 35.40625 
Q 43.21875 41.609375 39.140625 45 
Q 35.0625 48.390625 27.6875 48.390625 
Q 23 48.390625 18.546875 47.265625 
Q 14.109375 46.140625 10.015625 43.890625 
L 10.015625 52.203125 
Q 14.9375 54.109375 19.578125 55.046875 
Q 24.21875 56 28.609375 56 
Q 40.484375 56 46.34375 49.84375 
Q 52.203125 43.703125 52.203125 31.203125 
" id="DejaVuSans-61"/>
      <path d="M 54.890625 33.015625 
L 54.890625 0 
L 45.90625 0 
L 45.90625 32.71875 
Q 45.90625 40.484375 42.875 44.328125 
Q 39.84375 48.1875 33.796875 48.1875 
Q 26.515625 48.1875 22.3125 43.546875 
Q 18.109375 38.921875 18.109375 30.90625 
L 18.109375 0 
L 9.078125 0 
L 9.078125 54.6875 
L 18.109375 54.6875 
L 18.109375 46.1875 
Q 21.34375 51.125 25.703125 53.5625 
Q 30.078125 56 35.796875 56 
Q 45.21875 56 50.046875 50.171875 
Q 54.890625 44.34375 54.890625 33.015625 
" id="DejaVuSans-6e"/>
      <path id="DejaVuSans-20"/>
     </defs>
     <g transform="translate(8.946989 177.373359)rotate(-90)scale(0.11 -0.11)">
      <use xlink:href="#DejaVuSans-70"/>
      <use x="63.476562" xlink:href="#DejaVuSans-6f"/>
      <use x="124.658203" xlink:href="#DejaVuSans-70"/>
      <use x="188.134766" xlink:href="#DejaVuSans-75"/>
      <use x="251.513672" xlink:href="#DejaVuSans-6c"/>
      <use x="279.296875" xlink:href="#DejaVuSans-61"/>
      <use x="340.576172" xlink:href="#DejaVuSans-74"/>
      <use x="379.785156" xlink:href="#DejaVuSans-69"/>
      <use x="407.568359" xlink:href="#DejaVuSans-6f"/>
      <use x="468.75" xlink:href="#DejaVuSans-6e"/>
      <use x="532.128906" xlink:href="#DejaVuSans-20"/>
      <use x="563.916016" xlink:href="#DejaVuSans-6d"/>
      <use x="661.328125" xlink:href="#DejaVuSans-65"/>
      <use x="722.851562" xlink:href="#DejaVuSans-61"/>
      <use x="784.130859" xlink:href="#DejaVuSans-6e"/>
     </g>
    </g>
   </g>
   <g id="PolyCollection_2">
    <path clip-path="url(#pe1c1596a2b)" d="M 37.504646 255.3632 
L 37.504646 255.3632 
L 38.272487 255.648099 
L 39.040329 256.58009 
L 39.80817 257.370619 
L 40.576011 257.978588 
L 41.343853 258.174389 
L 42.111694 258.685354 
L 42.879536 258.574191 
L 43.647377 258.161198 
L 44.415218 257.572527 
L 45.18306 256.636137 
L 45.950901 255.831129 
L 46.718743 255.009349 
L 47.486584 253.895856 
L 48.254426 252.176954 
L 49.022267 251.410974 
L 49.790108 250.503947 
L 50.55795 249.262151 
L 51.325791 248.024018 
L 52.093633 246.616324 
L 52.861474 245.745212 
L 53.629315 244.20477 
L 54.397157 243.457 
L 55.164998 242.606446 
L 55.93284 242.180892 
L 56.700681 241.631024 
L 57.468523 241.17193 
L 58.236364 240.459937 
L 59.004205 240.02374 
L 59.772047 239.124637 
L 60.539888 239.580757 
L 61.30773 238.982705 
L 62.075571 238.62119 
L 62.843412 237.410104 
L 63.611254 237.064827 
L 64.379095 236.461477 
L 65.146937 236.252443 
L 65.914778 235.735008 
L 66.68262 235.382309 
L 67.450461 234.860749 
L 68.218302 234.64271 
L 68.986144 234.308347 
L 69.753985 233.589386 
L 70.521827 233.070675 
L 71.289668 233.413004 
L 72.057509 232.788329 
L 72.825351 232.470547 
L 73.593192 231.987281 
L 74.361034 230.724203 
L 75.128875 230.130333 
L 75.896717 229.033095 
L 76.664558 228.18006 
L 77.432399 228.172209 
L 78.200241 227.23406 
L 78.968082 226.164093 
L 79.735924 225.843789 
L 80.503765 225.242256 
L 81.271606 224.870152 
L 82.039448 224.297119 
L 82.807289 224.102683 
L 83.575131 224.03862 
L 84.342972 223.532679 
L 85.110814 223.706124 
L 85.878655 223.365226 
L 86.646496 223.054332 
L 87.414338 222.498662 
L 88.182179 222.252046 
L 88.950021 221.869972 
L 89.717862 221.452247 
L 90.485703 220.657408 
L 91.253545 220.107999 
L 92.021386 219.350842 
L 92.789228 219.167079 
L 93.557069 218.363121 
L 94.324911 218.245155 
L 95.092752 217.985985 
L 95.860593 217.869244 
L 96.628435 217.385801 
L 97.396276 217.639362 
L 98.164118 217.389512 
L 98.931959 217.038541 
L 99.6998 216.74474 
L 100.467642 216.910033 
L 101.235483 216.650752 
L 102.003325 216.733205 
L 102.771166 216.341017 
L 103.539008 215.250475 
L 104.306849 215.135492 
L 105.07469 214.601637 
L 105.842532 214.019739 
L 106.610373 213.412694 
L 107.378215 213.192569 
L 108.146056 212.657985 
L 108.913897 212.629514 
L 109.681739 212.417033 
L 110.44958 212.256746 
L 111.217422 212.334708 
L 111.985263 212.163152 
L 112.753105 211.785753 
L 113.520946 211.974815 
L 114.288787 211.627017 
L 115.056629 211.302173 
L 115.82447 211.087088 
L 116.592312 211.694323 
L 117.360153 211.621917 
L 118.127994 211.934063 
L 118.895836 212.079711 
L 119.663677 211.466169 
L 120.431519 211.189087 
L 121.19936 210.682159 
L 121.967202 210.387224 
L 122.735043 210.390918 
L 123.502884 210.458387 
L 124.270726 210.467645 
L 125.038567 210.072732 
L 125.806409 209.895028 
L 126.57425 209.380158 
L 127.342091 209.713724 
L 128.109933 209.565552 
L 128.877774 209.230645 
L 129.645616 209.29248 
L 130.413457 208.98665 
L 131.181299 208.727425 
L 131.94914 208.451177 
L 132.716981 208.19453 
L 133.484823 207.991807 
L 134.252664 207.80764 
L 135.020506 207.382793 
L 135.788347 207.127934 
L 136.556189 206.416382 
L 137.32403 206.71525 
L 138.091871 206.743569 
L 138.859713 206.692776 
L 139.627554 206.05489 
L 140.395396 205.681678 
L 141.163237 205.558639 
L 141.931078 205.175453 
L 142.69892 204.88274 
L 143.466761 204.240091 
L 144.234603 204.159679 
L 145.002444 203.501399 
L 145.770286 203.307285 
L 146.538127 202.561544 
L 147.305968 201.859402 
L 148.07381 201.524333 
L 148.841651 200.910028 
L 149.609493 200.869088 
L 150.377334 200.173516 
L 151.145175 199.645318 
L 151.913017 199.200435 
L 152.680858 198.939049 
L 153.4487 198.52469 
L 154.216541 198.228689 
L 154.984383 198.280893 
L 155.752224 198.023487 
L 156.520065 197.429696 
L 157.287907 197.602155 
L 158.055748 197.34 
L 158.82359 197.634878 
L 159.591431 197.171124 
L 160.359272 197.424449 
L 161.127114 197.518591 
L 161.894955 197.346137 
L 162.662797 197.321836 
L 163.430638 196.949819 
L 164.19848 196.5936 
L 164.966321 196.451996 
L 165.734162 196.264086 
L 166.502004 195.637259 
L 167.269845 195.259459 
L 168.037687 195.211031 
L 168.805528 194.54465 
L 169.573369 194.510189 
L 170.341211 193.676257 
L 171.109052 193.686563 
L 171.876894 193.203629 
L 172.644735 192.887715 
L 173.412577 192.451431 
L 174.180418 192.230415 
L 174.948259 191.696795 
L 175.716101 191.986161 
L 176.483942 191.465532 
L 177.251784 190.774036 
L 178.019625 190.524695 
L 178.787466 189.855115 
L 179.555308 189.398392 
L 180.323149 188.752429 
L 181.090991 188.02138 
L 181.858832 187.924815 
L 182.626674 187.292503 
L 183.394515 187.572228 
L 184.162356 186.81995 
L 184.930198 186.953554 
L 185.698039 186.726671 
L 186.465881 186.279598 
L 187.233722 186.195279 
L 188.001563 185.809099 
L 188.769405 185.58172 
L 189.537246 185.442652 
L 190.305088 185.333671 
L 191.072929 185.101318 
L 191.840771 184.61543 
L 192.608612 184.308722 
L 193.376453 184.175262 
L 194.144295 184.226356 
L 194.912136 184.065505 
L 195.679978 184.128836 
L 196.447819 183.711766 
L 197.21566 183.445187 
L 197.983502 183.27743 
L 198.751343 182.859782 
L 199.519185 182.482229 
L 200.287026 182.304717 
L 201.054868 182.07172 
L 201.822709 181.396094 
L 202.59055 181.170399 
L 203.358392 180.267802 
L 204.126233 179.886172 
L 204.894075 179.66937 
L 205.661916 178.955652 
L 206.429757 178.424316 
L 207.197599 178.347591 
L 207.96544 178.605428 
L 208.733282 178.504846 
L 209.501123 177.917247 
L 210.268965 177.776981 
L 211.036806 177.285328 
L 211.804647 177.155962 
L 212.572489 176.645039 
L 213.34033 176.558893 
L 214.108172 176.230275 
L 214.876013 175.589889 
L 215.643854 175.736872 
L 216.411696 176.03974 
L 217.179537 175.684246 
L 217.947379 175.569715 
L 218.71522 175.251874 
L 219.483062 174.745551 
L 220.250903 175.239791 
L 221.018744 174.928167 
L 221.786586 174.464475 
L 222.554427 174.543225 
L 223.322269 174.1559 
L 224.09011 173.945112 
L 224.857951 173.585493 
L 225.625793 173.333217 
L 226.393634 173.443251 
L 227.161476 173.441297 
L 227.929317 173.762415 
L 228.697159 173.456235 
L 229.465 173.52515 
L 230.232841 173.541483 
L 231.000683 173.30721 
L 231.768524 172.92009 
L 232.536366 172.510736 
L 233.304207 172.087367 
L 234.072049 171.726777 
L 234.83989 171.123792 
L 235.607731 171.312021 
L 236.375573 170.992135 
L 237.143414 171.166268 
L 237.911256 170.667418 
L 238.679097 170.620623 
L 239.446938 170.288667 
L 240.21478 170.215959 
L 240.982621 170.514343 
L 241.750463 170.352016 
L 242.518304 170.260027 
L 243.286146 170.34745 
L 244.053987 170.327439 
L 244.821828 170.280617 
L 245.58967 169.630908 
L 246.357511 169.980975 
L 247.125353 169.410725 
L 247.893194 169.531758 
L 248.661035 169.24264 
L 249.428877 169.312486 
L 250.196718 169.12464 
L 250.96456 169.277667 
L 251.732401 169.785418 
L 252.500243 169.66575 
L 253.268084 169.4673 
L 254.035925 169.78082 
L 254.803767 170.094029 
L 255.571608 169.899159 
L 256.33945 169.89516 
L 257.107291 169.307445 
L 257.875132 169.592188 
L 258.642974 169.230393 
L 259.410815 169.509692 
L 260.178657 169.34428 
L 260.946498 169.636657 
L 261.71434 169.303301 
L 262.482181 169.330866 
L 263.250022 169.106947 
L 264.017864 168.738354 
L 264.785705 168.900282 
L 265.553547 168.598452 
L 266.321388 168.50241 
L 267.089229 167.505825 
L 267.857071 167.253694 
L 268.624912 167.018743 
L 269.392754 166.280093 
L 270.160595 166.225977 
L 270.928437 165.82809 
L 271.696278 165.717442 
L 272.464119 165.351495 
L 273.231961 165.150046 
L 273.999802 164.952737 
L 274.767644 164.416497 
L 275.535485 164.983716 
L 276.303326 164.477317 
L 277.071168 165.410308 
L 277.839009 164.816928 
L 278.606851 164.523906 
L 279.374692 164.343235 
L 280.142534 164.419054 
L 280.910375 163.984023 
L 281.678216 164.178382 
L 282.446058 163.980758 
L 283.213899 164.489694 
L 283.981741 164.395939 
L 284.749582 164.154195 
L 285.517423 163.929773 
L 286.285265 164.074247 
L 287.053106 164.08024 
L 287.820948 164.142107 
L 288.588789 163.945473 
L 289.356631 163.752884 
L 290.124472 163.756045 
L 290.892313 164.003955 
L 291.660155 164.149744 
L 292.427996 164.144522 
L 293.195838 164.072577 
L 293.963679 164.055243 
L 294.73152 164.923998 
L 295.499362 165.07576 
L 296.267203 164.684026 
L 297.035045 165.115924 
L 297.802886 165.208313 
L 298.570728 165.599921 
L 299.338569 165.207234 
L 300.10641 165.57427 
L 300.874252 165.721432 
L 301.642093 165.834949 
L 302.409935 165.963955 
L 303.177776 165.456099 
L 303.945617 165.721905 
L 304.713459 165.856995 
L 305.4813 165.740736 
L 306.249142 165.399304 
L 307.016983 165.878969 
L 307.784825 165.870889 
L 308.552666 165.709112 
L 309.320507 164.958356 
L 310.088349 165.364272 
L 310.85619 164.784403 
L 311.624032 165.011669 
L 312.391873 165.075041 
L 313.159714 164.261528 
L 313.927556 163.663983 
L 314.695397 163.518892 
L 315.463239 162.980639 
L 316.23108 162.483095 
L 316.998922 161.695183 
L 317.766763 161.582056 
L 318.534604 161.029371 
L 319.302446 161.131669 
L 320.070287 160.402536 
L 320.838129 160.504851 
L 321.60597 160.640277 
L 322.373811 159.837896 
L 323.141653 159.367075 
L 323.909494 159.173976 
L 324.677336 158.891332 
L 325.445177 158.930581 
L 326.213019 158.180865 
L 326.98086 157.881722 
L 327.748701 157.57868 
L 328.516543 157.677537 
L 329.284384 157.613778 
L 330.052226 157.363729 
L 330.820067 156.810817 
L 331.587909 157.171261 
L 332.35575 156.736457 
L 333.123591 157.45596 
L 333.891433 156.74227 
L 334.659274 157.065354 
L 335.427116 156.85005 
L 336.194957 156.953178 
L 336.962798 156.933666 
L 337.73064 157.200845 
L 338.498481 157.032459 
L 339.266323 156.61036 
L 340.034164 155.791253 
L 340.802006 155.035698 
L 341.569847 155.946788 
L 342.337688 155.93699 
L 343.10553 155.804884 
L 343.873371 155.682381 
L 344.641213 155.455703 
L 345.409054 155.257072 
L 346.176895 154.861475 
L 346.944737 154.655704 
L 347.712578 154.81796 
L 348.48042 154.981235 
L 349.248261 154.555077 
L 350.016103 154.958997 
L 350.783944 154.375912 
L 351.551785 154.940378 
L 352.319627 154.132601 
L 353.087468 153.722061 
L 353.85531 154.034733 
L 354.623151 153.834368 
L 355.390992 153.509595 
L 356.158834 153.704239 
L 356.926675 153.872622 
L 357.694517 153.719347 
L 358.462358 153.616341 
L 359.2302 154.072167 
L 359.998041 154.066298 
L 360.765882 154.222839 
L 361.533724 154.154666 
L 362.301565 154.002328 
L 363.069407 153.625679 
L 363.837248 153.067482 
L 364.605089 152.588638 
L 365.372931 152.613452 
L 366.140772 151.875723 
L 366.908614 151.90212 
L 367.676455 151.938856 
L 368.444297 152.123919 
L 369.212138 151.636084 
L 369.979979 151.174122 
L 370.747821 150.805434 
L 371.515662 150.689117 
L 372.283504 150.537615 
L 373.051345 150.539474 
L 373.819186 150.013131 
L 374.587028 149.989272 
L 375.354869 149.43283 
L 376.122711 149.475241 
L 376.890552 149.917999 
L 377.658394 149.462928 
L 378.426235 150.256254 
L 379.194076 149.950796 
L 379.961918 150.229141 
L 380.729759 149.990458 
L 381.497601 149.74181 
L 382.265442 149.812748 
L 383.033283 149.75399 
L 383.801125 149.420682 
L 384.568966 149.622564 
L 385.336808 149.463696 
L 386.104649 149.52767 
L 386.872491 149.862583 
L 387.640332 150.087468 
L 388.408173 149.577065 
L 389.176015 149.632219 
L 389.943856 149.806416 
L 390.711698 149.924812 
L 391.479539 149.587231 
L 392.24738 149.712627 
L 393.015222 149.552586 
L 393.783063 149.455109 
L 394.550905 149.409682 
L 395.318746 149.01521 
L 396.086588 149.758874 
L 396.854429 149.369739 
L 397.62227 149.037557 
L 398.390112 149.004692 
L 399.157953 148.92051 
L 399.925795 148.154779 
L 400.693636 147.803338 
L 401.461477 147.777475 
L 402.229319 148.363679 
L 402.99716 148.610294 
L 403.765002 147.916955 
L 404.532843 148.325004 
L 405.300685 148.013236 
L 406.068526 147.785394 
L 406.836367 147.023206 
L 407.604209 146.741548 
L 408.37205 146.888254 
L 409.139892 146.382085 
L 409.907733 146.169959 
L 410.675574 145.809706 
L 411.443416 144.919373 
L 412.211257 144.628272 
L 412.979099 144.311746 
L 413.74694 144.021968 
L 414.514782 143.716174 
L 415.282623 142.9579 
L 416.050464 142.760508 
L 416.818306 142.397158 
L 417.586147 142.424542 
L 418.353989 142.325794 
L 419.12183 142.787463 
L 419.889671 142.850959 
L 420.657513 142.85509 
L 421.425354 142.316289 
L 421.425354 4.700192 
L 421.425354 4.700192 
L 420.657513 4.215505 
L 419.889671 4.449618 
L 419.12183 3.836696 
L 418.353989 3.51372 
L 417.586147 3.712597 
L 416.818306 3.077091 
L 416.050464 3.37663 
L 415.282623 3.300993 
L 414.514782 3.056797 
L 413.74694 3.292138 
L 412.979099 3.056473 
L 412.211257 2.834646 
L 411.443416 2.935867 
L 410.675574 3.425426 
L 409.907733 3.606308 
L 409.139892 2.988331 
L 408.37205 3.834998 
L 407.604209 4.428139 
L 406.836367 5.174637 
L 406.068526 5.711171 
L 405.300685 5.510385 
L 404.532843 5.577412 
L 403.765002 5.931347 
L 402.99716 5.833256 
L 402.229319 6.553364 
L 401.461477 6.855472 
L 400.693636 6.883723 
L 399.925795 6.505225 
L 399.157953 6.754121 
L 398.390112 7.008148 
L 397.62227 8.030495 
L 396.854429 8.266504 
L 396.086588 8.432031 
L 395.318746 9.189224 
L 394.550905 9.795851 
L 393.783063 9.872179 
L 393.015222 10.072325 
L 392.24738 10.169323 
L 391.479539 10.362362 
L 390.711698 10.430631 
L 389.943856 10.616669 
L 389.176015 11.088489 
L 388.408173 10.683679 
L 387.640332 11.147318 
L 386.872491 11.033994 
L 386.104649 11.030698 
L 385.336808 10.878218 
L 384.568966 10.949333 
L 383.801125 11.51648 
L 383.033283 10.980247 
L 382.265442 10.799734 
L 381.497601 11.033012 
L 380.729759 11.054931 
L 379.961918 10.96506 
L 379.194076 10.675214 
L 378.426235 11.127345 
L 377.658394 10.337853 
L 376.890552 10.640369 
L 376.122711 10.81256 
L 375.354869 10.679103 
L 374.587028 10.690851 
L 373.819186 10.991673 
L 373.051345 10.532972 
L 372.283504 10.724228 
L 371.515662 10.775651 
L 370.747821 11.268111 
L 369.979979 11.602897 
L 369.212138 11.506201 
L 368.444297 12.249446 
L 367.676455 11.649864 
L 366.908614 11.388977 
L 366.140772 12.132377 
L 365.372931 12.206349 
L 364.605089 12.596429 
L 363.837248 12.131113 
L 363.069407 11.802899 
L 362.301565 12.968482 
L 361.533724 13.844299 
L 360.765882 13.857297 
L 359.998041 13.648572 
L 359.2302 13.777987 
L 358.462358 14.152643 
L 357.694517 13.968466 
L 356.926675 14.221042 
L 356.158834 13.794177 
L 355.390992 13.880594 
L 354.623151 14.191654 
L 353.85531 14.329498 
L 353.087468 13.641072 
L 352.319627 14.380442 
L 351.551785 14.722576 
L 350.783944 14.55651 
L 350.016103 14.906882 
L 349.248261 14.472044 
L 348.48042 14.871115 
L 347.712578 15.440242 
L 346.944737 15.683668 
L 346.176895 15.910804 
L 345.409054 16.502777 
L 344.641213 17.291717 
L 343.873371 17.782042 
L 343.10553 18.565939 
L 342.337688 18.325606 
L 341.569847 18.829885 
L 340.802006 19.321596 
L 340.034164 19.64831 
L 339.266323 20.114396 
L 338.498481 20.476943 
L 337.73064 21.444939 
L 336.962798 21.495664 
L 336.194957 21.990229 
L 335.427116 22.106886 
L 334.659274 22.419188 
L 333.891433 23.094009 
L 333.123591 23.706098 
L 332.35575 23.925052 
L 331.587909 24.396648 
L 330.820067 24.229487 
L 330.052226 24.826485 
L 329.284384 24.373511 
L 328.516543 25.175566 
L 327.748701 25.626161 
L 326.98086 26.188934 
L 326.213019 27.080286 
L 325.445177 27.088158 
L 324.677336 27.803825 
L 323.909494 27.832333 
L 323.141653 28.126255 
L 322.373811 27.587793 
L 321.60597 27.881209 
L 320.838129 27.935464 
L 320.070287 27.510173 
L 319.302446 27.470987 
L 318.534604 27.329774 
L 317.766763 27.642904 
L 316.998922 27.800344 
L 316.23108 27.512982 
L 315.463239 26.866625 
L 314.695397 27.261829 
L 313.927556 27.035568 
L 313.159714 27.073856 
L 312.391873 26.869119 
L 311.624032 27.487154 
L 310.85619 27.619721 
L 310.088349 27.783913 
L 309.320507 27.93279 
L 308.552666 27.682582 
L 307.784825 27.466692 
L 307.016983 27.458612 
L 306.249142 26.964235 
L 305.4813 27.245107 
L 304.713459 27.832324 
L 303.945617 27.426279 
L 303.177776 27.367405 
L 302.409935 27.563023 
L 301.642093 27.502632 
L 300.874252 27.345582 
L 300.10641 27.100421 
L 299.338569 27.602741 
L 298.570728 27.57532 
L 297.802886 28.656874 
L 297.035045 29.615078 
L 296.267203 29.816994 
L 295.499362 30.629284 
L 294.73152 31.011028 
L 293.963679 31.284535 
L 293.195838 31.470127 
L 292.427996 32.182826 
L 291.660155 32.448172 
L 290.892313 32.918641 
L 290.124472 33.328891 
L 289.356631 33.304995 
L 288.588789 32.936538 
L 287.820948 32.969886 
L 287.053106 32.855884 
L 286.285265 32.456026 
L 285.517423 32.668143 
L 284.749582 32.619589 
L 283.981741 32.107278 
L 283.213899 31.972938 
L 282.446058 32.292477 
L 281.678216 32.027211 
L 280.910375 31.666907 
L 280.142534 31.948879 
L 279.374692 31.754131 
L 278.606851 31.965783 
L 277.839009 32.038027 
L 277.071168 32.526915 
L 276.303326 33.189339 
L 275.535485 32.994092 
L 274.767644 32.736081 
L 273.999802 32.78156 
L 273.231961 33.571822 
L 272.464119 32.81571 
L 271.696278 32.990897 
L 270.928437 33.340214 
L 270.160595 34.024595 
L 269.392754 33.943422 
L 268.624912 35.301668 
L 267.857071 35.215529 
L 267.089229 35.03104 
L 266.321388 35.346705 
L 265.553547 35.751213 
L 264.785705 36.017574 
L 264.017864 36.93709 
L 263.250022 38.056617 
L 262.482181 37.575659 
L 261.71434 37.954961 
L 260.946498 38.392721 
L 260.178657 38.373946 
L 259.410815 39.087877 
L 258.642974 38.826042 
L 257.875132 39.221836 
L 257.107291 39.520107 
L 256.33945 39.52764 
L 255.571608 39.60481 
L 254.803767 40.07283 
L 254.035925 40.237227 
L 253.268084 40.456049 
L 252.500243 40.798733 
L 251.732401 41.084916 
L 250.96456 41.038004 
L 250.196718 42.367998 
L 249.428877 42.423663 
L 248.661035 41.762977 
L 247.893194 42.961979 
L 247.125353 43.028898 
L 246.357511 43.838541 
L 245.58967 44.58093 
L 244.821828 44.864679 
L 244.053987 45.426633 
L 243.286146 45.217224 
L 242.518304 44.979966 
L 241.750463 45.158545 
L 240.982621 45.713221 
L 240.21478 45.592226 
L 239.446938 45.424819 
L 238.679097 45.999264 
L 237.911256 45.965996 
L 237.143414 46.454717 
L 236.375573 46.317697 
L 235.607731 46.660701 
L 234.83989 46.68659 
L 234.072049 46.53004 
L 233.304207 47.765797 
L 232.536366 47.951204 
L 231.768524 49.043498 
L 231.000683 49.441023 
L 230.232841 49.896696 
L 229.465 50.129482 
L 228.697159 50.482493 
L 227.929317 50.852731 
L 227.161476 51.944966 
L 226.393634 51.834784 
L 225.625793 53.081201 
L 224.857951 52.991266 
L 224.09011 53.903311 
L 223.322269 54.22013 
L 222.554427 54.549808 
L 221.786586 54.736784 
L 221.018744 55.680042 
L 220.250903 55.76074 
L 219.483062 56.714944 
L 218.71522 57.466758 
L 217.947379 58.231187 
L 217.179537 58.82013 
L 216.411696 59.357507 
L 215.643854 60.093283 
L 214.876013 60.673174 
L 214.108172 61.426208 
L 213.34033 61.449328 
L 212.572489 62.513093 
L 211.804647 63.368533 
L 211.036806 63.604434 
L 210.268965 65.006751 
L 209.501123 65.177637 
L 208.733282 66.294611 
L 207.96544 66.640465 
L 207.197599 67.466493 
L 206.429757 68.255583 
L 205.661916 69.090611 
L 204.894075 70.000296 
L 204.126233 70.162288 
L 203.358392 70.402962 
L 202.59055 70.880258 
L 201.822709 71.385094 
L 201.054868 71.264132 
L 200.287026 71.937534 
L 199.519185 72.59878 
L 198.751343 72.708248 
L 197.983502 73.102302 
L 197.21566 73.218641 
L 196.447819 73.79082 
L 195.679978 73.644317 
L 194.912136 73.734704 
L 194.144295 74.060875 
L 193.376453 74.788387 
L 192.608612 75.398986 
L 191.840771 75.863395 
L 191.072929 76.283906 
L 190.305088 76.633273 
L 189.537246 77.038369 
L 188.769405 77.954514 
L 188.001563 78.146513 
L 187.233722 78.152656 
L 186.465881 78.582414 
L 185.698039 79.393479 
L 184.930198 80.600602 
L 184.162356 80.544809 
L 183.394515 81.52416 
L 182.626674 81.952698 
L 181.858832 82.294428 
L 181.090991 83.496585 
L 180.323149 84.104844 
L 179.555308 85.02817 
L 178.787466 85.613131 
L 178.019625 86.255802 
L 177.251784 86.195858 
L 176.483942 86.031968 
L 175.716101 86.796533 
L 174.948259 87.180597 
L 174.180418 86.876959 
L 173.412577 87.602928 
L 172.644735 87.383098 
L 171.876894 87.851829 
L 171.109052 87.815331 
L 170.341211 87.446843 
L 169.573369 87.519311 
L 168.805528 87.56602 
L 168.037687 87.670756 
L 167.269845 87.811725 
L 166.502004 87.812719 
L 165.734162 87.835253 
L 164.966321 87.931438 
L 164.19848 88.100986 
L 163.430638 88.678224 
L 162.662797 88.27915 
L 161.894955 88.484831 
L 161.127114 88.339434 
L 160.359272 88.880012 
L 159.591431 89.430961 
L 158.82359 90.063004 
L 158.055748 90.330825 
L 157.287907 90.379822 
L 156.520065 90.971661 
L 155.752224 91.081345 
L 154.984383 91.79798 
L 154.216541 92.107222 
L 153.4487 92.40647 
L 152.680858 93.047323 
L 151.913017 93.678808 
L 151.145175 94.235024 
L 150.377334 94.356187 
L 149.609493 95.162263 
L 148.841651 95.486589 
L 148.07381 95.832797 
L 147.305968 96.120032 
L 146.538127 96.432517 
L 145.770286 96.660819 
L 145.002444 97.116066 
L 144.234603 97.594168 
L 143.466761 97.81138 
L 142.69892 97.696336 
L 141.931078 98.17474 
L 141.163237 98.265046 
L 140.395396 98.656085 
L 139.627554 98.97282 
L 138.859713 99.768939 
L 138.091871 99.623448 
L 137.32403 99.665295 
L 136.556189 100.451184 
L 135.788347 100.226652 
L 135.020506 100.972892 
L 134.252664 100.669801 
L 133.484823 100.918541 
L 132.716981 100.9458 
L 131.94914 101.676724 
L 131.181299 101.684571 
L 130.413457 102.155878 
L 129.645616 102.56705 
L 128.877774 102.398903 
L 128.109933 103.02451 
L 127.342091 103.363358 
L 126.57425 103.845736 
L 125.806409 104.724287 
L 125.038567 104.925378 
L 124.270726 105.288052 
L 123.502884 105.865501 
L 122.735043 106.162953 
L 121.967202 107.04599 
L 121.19936 107.5357 
L 120.431519 108.124568 
L 119.663677 107.725731 
L 118.895836 108.113288 
L 118.127994 108.380691 
L 117.360153 108.787536 
L 116.592312 109.391547 
L 115.82447 109.890556 
L 115.056629 110.162492 
L 114.288787 110.446424 
L 113.520946 110.802101 
L 112.753105 111.559354 
L 111.985263 111.290181 
L 111.217422 112.512047 
L 110.44958 113.604635 
L 109.681739 114.486032 
L 108.913897 115.247593 
L 108.146056 116.544901 
L 107.378215 117.890759 
L 106.610373 118.834072 
L 105.842532 119.52575 
L 105.07469 120.675482 
L 104.306849 121.589162 
L 103.539008 122.975826 
L 102.771166 123.819839 
L 102.003325 124.469335 
L 101.235483 125.241735 
L 100.467642 125.699456 
L 99.6998 126.744092 
L 98.931959 126.666745 
L 98.164118 127.046306 
L 97.396276 127.621685 
L 96.628435 127.902303 
L 95.860593 129.042264 
L 95.092752 128.736125 
L 94.324911 129.248071 
L 93.557069 129.454786 
L 92.789228 129.841324 
L 92.021386 130.103997 
L 91.253545 130.550864 
L 90.485703 130.650816 
L 89.717862 131.276454 
L 88.950021 131.061655 
L 88.182179 131.328943 
L 87.414338 131.54229 
L 86.646496 131.81185 
L 85.878655 132.028562 
L 85.110814 132.431724 
L 84.342972 132.943378 
L 83.575131 132.599777 
L 82.807289 132.454544 
L 82.039448 132.638902 
L 81.271606 132.958741 
L 80.503765 133.181885 
L 79.735924 133.540865 
L 78.968082 133.788752 
L 78.200241 134.261017 
L 77.432399 134.337496 
L 76.664558 134.69491 
L 75.896717 134.937672 
L 75.128875 136.140255 
L 74.361034 136.533956 
L 73.593192 137.016036 
L 72.825351 138.142644 
L 72.057509 138.988301 
L 71.289668 140.054672 
L 70.521827 141.398099 
L 69.753985 142.800415 
L 68.986144 145.003579 
L 68.218302 147.077264 
L 67.450461 148.874951 
L 66.68262 149.990321 
L 65.914778 151.775103 
L 65.146937 153.138111 
L 64.379095 155.269483 
L 63.611254 156.235422 
L 62.843412 158.054682 
L 62.075571 159.508683 
L 61.30773 160.811156 
L 60.539888 161.701223 
L 59.772047 162.766119 
L 59.004205 164.978538 
L 58.236364 166.652766 
L 57.468523 167.712987 
L 56.700681 168.552617 
L 55.93284 169.707321 
L 55.164998 171.432776 
L 54.397157 174.153709 
L 53.629315 176.11161 
L 52.861474 179.238452 
L 52.093633 182.114696 
L 51.325791 185.712494 
L 50.55795 188.451699 
L 49.790108 191.904243 
L 49.022267 195.921539 
L 48.254426 200.472204 
L 47.486584 204.354042 
L 46.718743 207.542567 
L 45.950901 211.577468 
L 45.18306 215.656198 
L 44.415218 219.048882 
L 43.647377 223.668629 
L 42.879536 228.91049 
L 42.111694 234.738276 
L 41.343853 239.524202 
L 40.576011 244.427872 
L 39.80817 248.5938 
L 39.040329 252.00883 
L 38.272487 254.861849 
L 37.504646 255.3632 
z
" style="fill:#ff0000;fill-opacity:0.3;"/>
   </g>
   <g id="line2d_12">
    <path clip-path="url(#pe1c1596a2b)" d="M 37.504646 255.3632 
L 38.272487 255.254974 
L 39.040329 254.29446 
L 39.80817 252.982209 
L 40.576011 251.20323 
L 42.111694 246.711815 
L 43.647377 240.914914 
L 44.415218 238.310705 
L 45.950901 233.704298 
L 52.093633 214.36551 
L 52.861474 212.491832 
L 53.629315 210.15819 
L 54.397157 208.805355 
L 55.164998 207.019611 
L 55.93284 205.944107 
L 56.700681 205.09182 
L 57.468523 204.442459 
L 59.004205 202.501139 
L 59.772047 200.945378 
L 60.539888 200.64099 
L 62.075571 199.064936 
L 62.843412 197.732393 
L 63.611254 196.650124 
L 64.379095 195.86548 
L 65.146937 194.695277 
L 68.218302 190.859987 
L 68.986144 189.655963 
L 69.753985 188.1949 
L 70.521827 187.234387 
L 71.289668 186.733838 
L 72.057509 185.888315 
L 72.825351 185.306596 
L 74.361034 183.629079 
L 75.128875 183.135294 
L 75.896717 181.985384 
L 76.664558 181.437485 
L 77.432399 181.254852 
L 78.200241 180.747539 
L 78.968082 179.976422 
L 79.735924 179.692327 
L 80.503765 179.21207 
L 81.271606 178.914446 
L 82.039448 178.46801 
L 82.807289 178.278613 
L 83.575131 178.319199 
L 85.110814 178.068924 
L 87.414338 177.020476 
L 89.717862 176.364351 
L 90.485703 175.654112 
L 91.253545 175.329431 
L 92.021386 174.727419 
L 92.789228 174.504201 
L 93.557069 173.908954 
L 94.324911 173.746613 
L 95.092752 173.361055 
L 95.860593 173.455754 
L 96.628435 172.644052 
L 97.396276 172.630524 
L 98.931959 171.852643 
L 99.6998 171.744416 
L 101.235483 170.946243 
L 102.003325 170.60127 
L 102.771166 170.080428 
L 103.539008 169.113151 
L 106.610373 166.123383 
L 107.378215 165.541664 
L 108.146056 164.601443 
L 108.913897 163.938553 
L 111.217422 162.423377 
L 111.985263 161.726667 
L 112.753105 161.672553 
L 115.82447 160.488822 
L 116.592312 160.542935 
L 117.360153 160.204726 
L 118.895836 160.0965 
L 119.663677 159.59595 
L 120.431519 159.656828 
L 121.19936 159.108929 
L 122.735043 158.276935 
L 123.502884 158.161944 
L 125.806409 157.309658 
L 126.57425 156.612947 
L 127.342091 156.538541 
L 128.109933 156.295031 
L 128.877774 155.814774 
L 129.645616 155.929765 
L 131.181299 155.205998 
L 131.94914 155.06395 
L 132.716981 154.570165 
L 135.020506 154.177843 
L 135.788347 153.677293 
L 137.32403 153.190273 
L 138.859713 153.230858 
L 139.627554 152.513855 
L 141.163237 151.911843 
L 141.931078 151.675096 
L 143.466761 151.025735 
L 144.234603 150.876923 
L 145.002444 150.308732 
L 145.770286 149.984052 
L 147.305968 148.989717 
L 148.07381 148.678565 
L 148.841651 148.198308 
L 149.609493 148.015675 
L 150.377334 147.264852 
L 151.145175 146.940171 
L 153.4487 145.46558 
L 154.216541 145.167956 
L 154.984383 145.039437 
L 155.752224 144.552416 
L 156.520065 144.200678 
L 158.055748 143.835413 
L 158.82359 143.848941 
L 159.591431 143.301042 
L 162.662797 142.800493 
L 163.430638 142.814022 
L 164.19848 142.347293 
L 165.734162 142.049669 
L 166.502004 141.724989 
L 169.573369 141.01475 
L 170.341211 140.56155 
L 171.109052 140.750947 
L 171.876894 140.527729 
L 172.644735 140.135407 
L 173.412577 140.02718 
L 174.180418 139.553687 
L 175.716101 139.391347 
L 176.483942 138.74875 
L 177.251784 138.484947 
L 178.019625 138.390248 
L 181.858832 135.109621 
L 182.626674 134.6226 
L 183.394515 134.548194 
L 184.162356 133.68238 
L 184.930198 133.777078 
L 186.465881 132.431006 
L 188.769405 131.768117 
L 189.537246 131.240511 
L 191.072929 130.692612 
L 192.608612 129.853854 
L 194.144295 129.143615 
L 194.912136 128.900105 
L 195.679978 128.886576 
L 196.447819 128.751293 
L 197.21566 128.331914 
L 197.983502 128.189866 
L 198.751343 127.784015 
L 199.519185 127.540505 
L 201.822709 126.390594 
L 202.59055 126.025329 
L 203.358392 125.335382 
L 204.126233 125.02423 
L 204.894075 124.834833 
L 206.429757 123.339949 
L 207.197599 122.907042 
L 208.733282 122.399728 
L 209.501123 121.547442 
L 210.268965 121.391866 
L 211.036806 120.444881 
L 211.804647 120.262248 
L 213.34033 119.00411 
L 214.108172 118.828242 
L 214.876013 118.131531 
L 216.411696 117.698624 
L 218.71522 116.359316 
L 219.483062 115.730248 
L 221.018744 115.304104 
L 221.786586 114.60063 
L 222.554427 114.546516 
L 224.09011 113.924212 
L 224.857951 113.288379 
L 225.625793 113.207209 
L 226.393634 112.639018 
L 227.161476 112.693131 
L 228.697159 111.969364 
L 230.232841 111.719089 
L 231.768524 110.981794 
L 232.536366 110.23097 
L 233.304207 109.926582 
L 234.072049 109.128409 
L 234.83989 108.905191 
L 235.607731 108.986361 
L 236.375573 108.654916 
L 237.143414 108.810492 
L 237.911256 108.316707 
L 238.679097 108.309943 
L 239.446938 107.856743 
L 240.21478 107.904092 
L 240.982621 108.113782 
L 241.750463 107.75528 
L 242.518304 107.619997 
L 244.053987 107.877036 
L 244.821828 107.572648 
L 245.58967 107.105919 
L 246.357511 106.909758 
L 247.125353 106.219812 
L 247.893194 106.246868 
L 248.661035 105.502809 
L 249.428877 105.868074 
L 250.196718 105.746319 
L 250.96456 105.157836 
L 251.732401 105.435167 
L 253.268084 104.961674 
L 254.803767 105.08343 
L 255.571608 104.751985 
L 256.33945 104.7114 
L 257.107291 104.413776 
L 257.875132 104.407012 
L 258.642974 104.028218 
L 259.410815 104.298785 
L 260.178657 103.859113 
L 260.946498 104.014689 
L 261.71434 103.629131 
L 262.482181 103.453262 
L 263.250022 103.581782 
L 264.017864 102.837722 
L 265.553547 102.174832 
L 266.321388 101.924558 
L 267.089229 101.268432 
L 268.624912 101.160206 
L 269.392754 100.111758 
L 270.160595 100.125286 
L 270.928437 99.584152 
L 272.464119 99.083603 
L 273.231961 99.360934 
L 273.999802 98.867149 
L 274.767644 98.576289 
L 275.535485 98.988904 
L 276.303326 98.833328 
L 277.071168 98.968611 
L 277.839009 98.427477 
L 279.374692 98.048683 
L 280.142534 98.183967 
L 280.910375 97.825465 
L 281.678216 98.102797 
L 283.981741 98.251608 
L 284.749582 98.386892 
L 286.285265 98.265137 
L 287.053106 98.468062 
L 287.820948 98.555997 
L 288.588789 98.441006 
L 290.124472 98.542468 
L 291.660155 98.298958 
L 292.427996 98.163674 
L 293.195838 97.771352 
L 293.963679 97.669889 
L 294.73152 97.967513 
L 295.499362 97.852522 
L 296.267203 97.25051 
L 297.035045 97.365501 
L 298.570728 96.58762 
L 299.338569 96.404988 
L 300.10641 96.337346 
L 301.642093 96.668791 
L 302.409935 96.763489 
L 303.177776 96.411752 
L 304.713459 96.844659 
L 306.249142 96.18177 
L 307.016983 96.668791 
L 308.552666 96.695847 
L 309.320507 96.445573 
L 310.088349 96.574092 
L 310.85619 96.202062 
L 311.624032 96.249411 
L 313.927556 95.349776 
L 314.695397 95.390361 
L 315.463239 94.923632 
L 316.23108 94.998038 
L 318.534604 94.179573 
L 319.302446 94.301328 
L 320.070287 93.956355 
L 320.838129 94.220158 
L 321.60597 94.260743 
L 322.373811 93.712844 
L 323.141653 93.746665 
L 325.445177 93.00937 
L 326.213019 92.630576 
L 326.98086 92.035328 
L 327.748701 91.60242 
L 328.516543 91.426552 
L 329.284384 90.993644 
L 330.052226 91.095107 
L 330.820067 90.520152 
L 331.587909 90.783955 
L 332.35575 90.330755 
L 333.123591 90.581029 
L 333.891433 89.91814 
L 336.962798 89.214665 
L 337.73064 89.322892 
L 338.498481 88.754701 
L 339.266323 88.362378 
L 340.802006 87.178647 
L 341.569847 87.388337 
L 342.337688 87.131298 
L 343.10553 87.185411 
L 346.176895 85.38614 
L 346.944737 85.169686 
L 347.712578 85.129101 
L 348.48042 84.926175 
L 349.248261 84.51356 
L 350.016103 84.93294 
L 350.783944 84.466211 
L 351.551785 84.831477 
L 353.087468 83.681566 
L 353.85531 84.182116 
L 354.623151 84.013011 
L 355.390992 83.695095 
L 356.158834 83.749208 
L 356.926675 84.046832 
L 357.694517 83.843907 
L 361.533724 83.999483 
L 362.301565 83.485405 
L 363.069407 82.714289 
L 365.372931 82.409901 
L 366.908614 81.645548 
L 367.676455 81.79436 
L 368.444297 82.186683 
L 369.212138 81.571142 
L 369.979979 81.38851 
L 371.515662 80.732384 
L 374.587028 80.340062 
L 375.354869 80.055966 
L 376.890552 80.279184 
L 377.658394 79.90039 
L 378.426235 80.691799 
L 379.194076 80.313005 
L 379.961918 80.597101 
L 383.033283 80.367118 
L 383.801125 80.468581 
L 385.336808 80.170957 
L 386.872491 80.448289 
L 387.640332 80.617393 
L 388.408173 80.130372 
L 389.176015 80.360354 
L 389.943856 80.211542 
L 390.711698 80.177721 
L 391.479539 79.974796 
L 393.015222 79.812456 
L 394.550905 79.602766 
L 395.318746 79.102217 
L 396.086588 79.095453 
L 397.62227 78.534026 
L 398.390112 78.00642 
L 399.157953 77.837315 
L 399.925795 77.330002 
L 402.229319 77.458521 
L 403.765002 76.924151 
L 404.532843 76.951208 
L 405.300685 76.761811 
L 406.068526 76.748283 
L 407.604209 75.584844 
L 408.37205 75.361626 
L 409.139892 74.685208 
L 409.907733 74.888133 
L 410.675574 74.617566 
L 411.443416 73.92762 
L 412.211257 73.731459 
L 413.74694 73.657053 
L 415.282623 73.129447 
L 416.050464 73.068569 
L 416.818306 72.737124 
L 417.586147 73.068569 
L 418.353989 72.919757 
L 419.889671 73.650288 
L 421.425354 73.508241 
L 421.425354 73.508241 
" style="fill:none;stroke:#ff0000;stroke-linecap:round;"/>
   </g>
   <g id="patch_3">
    <path d="M 37.504646 258.685354 
L 37.504646 2.834646 
" style="fill:none;stroke:#000000;stroke-linecap:square;stroke-linejoin:miter;stroke-width:0.8;"/>
   </g>
   <g id="patch_4">
    <path d="M 421.425354 258.685354 
L 421.425354 2.834646 
" style="fill:none;stroke:#000000;stroke-linecap:square;stroke-linejoin:miter;stroke-width:0.8;"/>
   </g>
   <g id="patch_5">
    <path d="M 37.504646 258.685354 
L 421.425354 258.685354 
" style="fill:none;stroke:#000000;stroke-linecap:square;stroke-linejoin:miter;stroke-width:0.8;"/>
   </g>
   <g id="patch_6">
    <path d="M 37.504646 2.834646 
L 421.425354 2.834646 
" style="fill:none;stroke:#000000;stroke-linecap:square;stroke-linejoin:miter;stroke-width:0.8;"/>
   </g>
   <g id="legend_1">
    <g id="patch_7">
     <path d="M 380.311604 32.719646 
L 415.825354 32.719646 
Q 417.425354 32.719646 417.425354 31.119646 
L 417.425354 8.434646 
Q 417.425354 6.834646 415.825354 6.834646 
L 380.311604 6.834646 
Q 378.711604 6.834646 378.711604 8.434646 
L 378.711604 31.119646 
Q 378.711604 32.719646 380.311604 32.719646 
z
" style="fill:#ffffff;opacity:0.8;stroke:#000000;stroke-linejoin:miter;"/>
    </g>
    <g id="line2d_13">
     <path d="M 381.911604 13.313396 
L 397.911604 13.313396 
" style="fill:none;stroke:#0000ff;stroke-linecap:round;"/>
    </g>
    <g id="line2d_14"/>
    <g id="text_13">
     <!-- P -->
     <defs>
      <path d="M 19.671875 64.796875 
L 19.671875 37.40625 
L 32.078125 37.40625 
Q 38.96875 37.40625 42.71875 40.96875 
Q 46.484375 44.53125 46.484375 51.125 
Q 46.484375 57.671875 42.71875 61.234375 
Q 38.96875 64.796875 32.078125 64.796875 
z
M 9.8125 72.90625 
L 32.078125 72.90625 
Q 44.34375 72.90625 50.609375 67.359375 
Q 56.890625 61.8125 56.890625 51.125 
Q 56.890625 40.328125 50.609375 34.8125 
Q 44.34375 29.296875 32.078125 29.296875 
L 19.671875 29.296875 
L 19.671875 0 
L 9.8125 0 
z
" id="DejaVuSans-50"/>
     </defs>
     <g transform="translate(404.311604 16.113396)scale(0.08 -0.08)">
      <use xlink:href="#DejaVuSans-50"/>
     </g>
    </g>
    <g id="line2d_15">
     <path d="M 381.911604 25.055896 
L 397.911604 25.055896 
" style="fill:none;stroke:#ff0000;stroke-linecap:round;"/>
    </g>
    <g id="line2d_16"/>
    <g id="text_14">
     <!-- P2 -->
     <g transform="translate(404.311604 27.855896)scale(0.08 -0.08)">
      <use xlink:href="#DejaVuSans-50"/>
      <use x="60.302734" xlink:href="#DejaVuSans-32"/>
     </g>
    </g>
   </g>
  </g>
 </g>
 <defs>
  <clipPath id="pe1c1596a2b">
   <rect height="255.850709" width="383.920709" x="37.504646" y="2.834646"/>
  </clipPath>
 </defs>
</svg>
