<?xml version="1.0" encoding="utf-8" standalone="no"?>
<!DOCTYPE svg PUBLIC "-//W3C//DTD SVG 1.1//EN"
  "http://www.w3.org/Graphics/SVG/1.1/DTD/svg11.dtd">
<!-- Created with matplotlib (http://matplotlib.org/) -->
<svg height="288pt" version="1.1" viewBox="0 0 432 288" width="432pt" xmlns="http://www.w3.org/2000/svg" xmlns:xlink="http://www.w3.org/1999/xlink">
 <defs>
  <style type="text/css">
*{stroke-linecap:butt;stroke-linejoin:round;}
  </style>
 </defs>
 <g id="figure_1">
  <g id="patch_1">
   <path d="M 0 288 
L 432 288 
L 432 0 
L 0 0 
z
" style="fill:#ffffff;"/>
  </g>
  <g id="axes_1">
   <g id="patch_2">
    <path d="M 37.504646 258.685354 
L 421.425354 258.685354 
L 421.425354 2.834646 
L 37.504646 2.834646 
z
" style="fill:#ffffff;"/>
   </g>
   <g id="PolyCollection_1">
    <path clip-path="url(#p7fc63681bc)" d="M 37.504646 254.638207 
L 37.504646 254.638207 
L 38.272487 255.242873 
L 39.040329 255.389652 
L 39.80817 255.130884 
L 40.576011 255.306138 
L 41.343853 255.097107 
L 42.111694 254.924369 
L 42.879536 254.595537 
L 43.647377 254.202513 
L 44.415218 253.836952 
L 45.18306 253.824609 
L 45.950901 253.284556 
L 46.718743 252.901496 
L 47.486584 252.839928 
L 48.254426 252.551668 
L 49.022267 252.135604 
L 49.790108 252.011735 
L 50.55795 252.003815 
L 51.325791 251.746812 
L 52.093633 252.253754 
L 52.861474 251.163471 
L 53.629315 251.259955 
L 54.397157 251.09055 
L 55.164998 251.405373 
L 55.93284 251.281626 
L 56.700681 250.901671 
L 57.468523 250.547248 
L 58.236364 250.563733 
L 59.004205 250.141098 
L 59.772047 250.4458 
L 60.539888 250.435046 
L 61.30773 250.087 
L 62.075571 250.045675 
L 62.843412 250.192142 
L 63.611254 250.073403 
L 64.379095 250.095394 
L 65.146937 249.610231 
L 65.914778 249.532353 
L 66.68262 249.88046 
L 67.450461 249.61439 
L 68.218302 249.39102 
L 68.986144 249.46858 
L 69.753985 249.220215 
L 70.521827 249.963044 
L 71.289668 249.785162 
L 72.057509 249.445957 
L 72.825351 249.588986 
L 73.593192 249.414737 
L 74.361034 249.191017 
L 75.128875 249.213001 
L 75.896717 249.407853 
L 76.664558 249.257898 
L 77.432399 249.329394 
L 78.200241 248.851144 
L 78.968082 249.354264 
L 79.735924 249.081139 
L 80.503765 249.01257 
L 81.271606 248.951895 
L 82.039448 249.258527 
L 82.807289 248.871233 
L 83.575131 248.888648 
L 84.342972 248.781392 
L 85.110814 248.877743 
L 85.878655 248.904352 
L 86.646496 248.770786 
L 87.414338 248.793807 
L 88.182179 248.699068 
L 88.950021 248.733457 
L 89.717862 248.757954 
L 90.485703 249.034945 
L 91.253545 248.168974 
L 92.021386 248.556971 
L 92.789228 248.387625 
L 93.557069 248.490565 
L 94.324911 249.298788 
L 95.092752 249.126128 
L 95.860593 248.936866 
L 96.628435 249.047033 
L 97.396276 248.52119 
L 98.164118 248.341872 
L 98.931959 248.726802 
L 99.6998 248.686867 
L 100.467642 248.348943 
L 101.235483 248.568529 
L 102.003325 248.855934 
L 102.771166 248.493029 
L 103.539008 248.625787 
L 104.306849 248.315863 
L 105.07469 248.272095 
L 105.842532 248.237122 
L 106.610373 247.839123 
L 107.378215 248.641071 
L 108.146056 247.968365 
L 108.913897 248.097601 
L 109.681739 247.719336 
L 110.44958 247.787494 
L 111.217422 247.737793 
L 111.985263 247.897398 
L 112.753105 247.778064 
L 113.520946 246.655824 
L 114.288787 248.161843 
L 115.056629 248.29417 
L 115.82447 248.47736 
L 116.592312 247.766237 
L 117.360153 247.654633 
L 118.127994 247.461798 
L 118.895836 247.885977 
L 119.663677 248.280987 
L 120.431519 248.230277 
L 121.19936 247.949373 
L 121.967202 247.940117 
L 122.735043 247.638656 
L 123.502884 247.413786 
L 124.270726 247.665734 
L 125.038567 247.79593 
L 125.806409 248.295876 
L 126.57425 247.670437 
L 127.342091 247.511999 
L 128.109933 247.286606 
L 128.877774 247.686145 
L 129.645616 247.633129 
L 130.413457 247.441991 
L 131.181299 247.912516 
L 131.94914 247.35061 
L 132.716981 247.528809 
L 133.484823 247.820228 
L 134.252664 247.404019 
L 135.020506 247.040367 
L 135.788347 247.965217 
L 136.556189 247.156513 
L 137.32403 247.578487 
L 138.091871 247.579894 
L 138.859713 247.280208 
L 139.627554 247.200255 
L 140.395396 247.6871 
L 141.163237 246.965238 
L 141.931078 247.703055 
L 142.69892 247.569919 
L 143.466761 247.496868 
L 144.234603 247.531171 
L 145.002444 247.568897 
L 145.770286 246.943417 
L 146.538127 247.247938 
L 147.305968 247.308069 
L 148.07381 247.026177 
L 148.841651 247.083552 
L 149.609493 246.540444 
L 150.377334 247.334166 
L 151.145175 247.248494 
L 151.913017 247.072615 
L 152.680858 247.235518 
L 153.4487 246.47831 
L 154.216541 246.475847 
L 154.984383 247.340979 
L 155.752224 246.341562 
L 156.520065 246.880231 
L 157.287907 246.842537 
L 158.055748 247.35634 
L 158.82359 247.344408 
L 159.591431 246.740588 
L 160.359272 246.984189 
L 161.127114 246.60229 
L 161.894955 246.683805 
L 162.662797 246.850018 
L 163.430638 247.246139 
L 164.19848 246.687755 
L 164.966321 246.770807 
L 165.734162 246.532455 
L 166.502004 247.055298 
L 167.269845 246.771224 
L 168.037687 246.455282 
L 168.805528 246.513433 
L 169.573369 246.561064 
L 170.341211 246.813725 
L 171.109052 246.621598 
L 171.876894 247.17482 
L 172.644735 246.391118 
L 173.412577 246.623111 
L 174.180418 246.207681 
L 174.948259 246.192953 
L 175.716101 246.250516 
L 176.483942 246.422831 
L 177.251784 246.413256 
L 178.019625 246.117864 
L 178.787466 245.977656 
L 179.555308 246.02715 
L 180.323149 245.758776 
L 181.090991 246.418658 
L 181.858832 245.891407 
L 182.626674 245.545632 
L 183.394515 245.861396 
L 184.162356 245.993939 
L 184.930198 246.29007 
L 185.698039 245.848833 
L 186.465881 246.534111 
L 187.233722 246.145474 
L 188.001563 245.916747 
L 188.769405 245.862157 
L 189.537246 246.831443 
L 190.305088 245.806103 
L 191.072929 246.062434 
L 191.840771 245.987228 
L 192.608612 246.355507 
L 193.376453 245.717814 
L 194.144295 245.345583 
L 194.912136 246.421133 
L 195.679978 245.618477 
L 196.447819 245.847729 
L 197.21566 245.756134 
L 197.983502 245.283328 
L 198.751343 245.751511 
L 199.519185 245.463659 
L 200.287026 245.887508 
L 201.054868 246.341567 
L 201.822709 245.273795 
L 202.59055 245.232986 
L 203.358392 246.243064 
L 204.126233 246.20904 
L 204.894075 245.500912 
L 205.661916 246.363206 
L 206.429757 245.970236 
L 207.197599 245.630659 
L 207.96544 245.721571 
L 208.733282 245.554841 
L 209.501123 245.270824 
L 210.268965 245.494689 
L 211.036806 245.477062 
L 211.804647 245.390894 
L 212.572489 245.047631 
L 213.34033 245.915166 
L 214.108172 245.660395 
L 214.876013 245.379762 
L 215.643854 245.303387 
L 216.411696 245.498898 
L 217.179537 245.699406 
L 217.947379 245.417654 
L 218.71522 245.652116 
L 219.483062 245.869161 
L 220.250903 245.473294 
L 221.018744 244.941956 
L 221.786586 245.446956 
L 222.554427 245.339893 
L 223.322269 245.432461 
L 224.09011 245.062102 
L 224.857951 245.317518 
L 225.625793 245.324794 
L 226.393634 246.098527 
L 227.161476 245.247294 
L 227.929317 245.400716 
L 228.697159 245.43322 
L 229.465 245.701958 
L 230.232841 245.366379 
L 231.000683 245.514778 
L 231.768524 244.926188 
L 232.536366 245.015538 
L 233.304207 245.246673 
L 234.072049 245.641983 
L 234.83989 245.809384 
L 235.607731 245.004058 
L 236.375573 245.408373 
L 237.143414 244.907991 
L 237.911256 245.571125 
L 238.679097 245.516472 
L 239.446938 244.792258 
L 240.21478 244.972243 
L 240.982621 244.98052 
L 241.750463 244.594643 
L 242.518304 245.139272 
L 243.286146 244.573791 
L 244.053987 245.111212 
L 244.821828 244.989679 
L 245.58967 244.649791 
L 246.357511 245.213963 
L 247.125353 245.457879 
L 247.893194 244.543013 
L 248.661035 245.17296 
L 249.428877 244.236988 
L 250.196718 244.933028 
L 250.96456 245.188232 
L 251.732401 245.332642 
L 252.500243 245.016848 
L 253.268084 244.892106 
L 254.035925 245.174151 
L 254.803767 245.723662 
L 255.571608 244.755269 
L 256.33945 245.134241 
L 257.107291 244.357551 
L 257.875132 244.812251 
L 258.642974 244.749872 
L 259.410815 245.409136 
L 260.178657 245.127118 
L 260.946498 245.234018 
L 261.71434 245.141061 
L 262.482181 244.884119 
L 263.250022 244.621918 
L 264.017864 245.140735 
L 264.785705 244.998575 
L 265.553547 245.161013 
L 266.321388 245.328917 
L 267.089229 244.533568 
L 267.857071 245.388376 
L 268.624912 244.951857 
L 269.392754 244.658209 
L 270.160595 245.072558 
L 270.928437 244.928229 
L 271.696278 245.15899 
L 272.464119 245.103788 
L 273.231961 244.943334 
L 273.999802 245.054372 
L 274.767644 244.579381 
L 275.535485 244.412633 
L 276.303326 244.580166 
L 277.071168 243.996416 
L 277.839009 245.483987 
L 278.606851 244.727075 
L 279.374692 244.722646 
L 280.142534 245.849593 
L 280.910375 244.921705 
L 281.678216 244.926545 
L 282.446058 244.739932 
L 283.213899 245.187805 
L 283.981741 244.519862 
L 284.749582 245.351152 
L 285.517423 245.062411 
L 286.285265 244.975477 
L 287.053106 244.268716 
L 287.820948 244.655244 
L 288.588789 245.511725 
L 289.356631 244.690738 
L 290.124472 245.069865 
L 290.892313 244.731994 
L 291.660155 244.920754 
L 292.427996 244.978246 
L 293.195838 244.22242 
L 293.963679 245.265767 
L 294.73152 244.565459 
L 295.499362 245.128025 
L 296.267203 244.7311 
L 297.035045 244.401693 
L 297.802886 244.621739 
L 298.570728 244.569247 
L 299.338569 244.660343 
L 300.10641 244.027816 
L 300.874252 244.968284 
L 301.642093 244.254845 
L 302.409935 243.917992 
L 303.177776 244.581283 
L 303.945617 244.833161 
L 304.713459 244.829611 
L 305.4813 244.580945 
L 306.249142 245.063092 
L 307.016983 244.205525 
L 307.784825 244.320594 
L 308.552666 244.547676 
L 309.320507 244.818403 
L 310.088349 244.686006 
L 310.85619 244.790998 
L 311.624032 244.949545 
L 312.391873 244.888056 
L 313.159714 244.523181 
L 313.927556 244.583668 
L 314.695397 244.520762 
L 315.463239 244.534366 
L 316.23108 244.564334 
L 316.998922 243.917622 
L 317.766763 243.862449 
L 318.534604 244.285478 
L 319.302446 244.174168 
L 320.070287 244.453309 
L 320.838129 244.278498 
L 321.60597 244.823855 
L 322.373811 244.30631 
L 323.141653 243.93196 
L 323.909494 244.693727 
L 324.677336 243.75593 
L 325.445177 243.658823 
L 326.213019 243.935529 
L 326.98086 244.743736 
L 327.748701 244.576107 
L 328.516543 243.76575 
L 329.284384 243.614042 
L 330.052226 243.595163 
L 330.820067 244.45176 
L 331.587909 244.516738 
L 332.35575 244.258808 
L 333.123591 244.840537 
L 333.891433 244.805603 
L 334.659274 244.401817 
L 335.427116 244.878869 
L 336.194957 244.199127 
L 336.962798 244.548905 
L 337.73064 244.573839 
L 338.498481 244.889709 
L 339.266323 243.754466 
L 340.034164 243.808203 
L 340.802006 244.222615 
L 341.569847 244.156367 
L 342.337688 243.668276 
L 343.10553 244.211035 
L 343.873371 243.961511 
L 344.641213 244.451689 
L 345.409054 243.7002 
L 346.176895 244.44791 
L 346.944737 244.12337 
L 347.712578 244.191579 
L 348.48042 244.259171 
L 349.248261 243.754003 
L 350.016103 244.907541 
L 350.783944 244.397113 
L 351.551785 243.419751 
L 352.319627 244.051001 
L 353.087468 244.001339 
L 353.85531 244.851995 
L 354.623151 244.260449 
L 355.390992 243.731089 
L 356.158834 243.847574 
L 356.926675 243.985189 
L 357.694517 244.800263 
L 358.462358 244.77837 
L 359.2302 244.200156 
L 359.998041 244.458927 
L 360.765882 244.087943 
L 361.533724 244.648117 
L 362.301565 243.847367 
L 363.069407 244.154249 
L 363.837248 243.894592 
L 364.605089 244.179173 
L 365.372931 244.626235 
L 366.140772 244.352457 
L 366.908614 244.091584 
L 367.676455 244.22952 
L 368.444297 243.936052 
L 369.212138 243.940804 
L 369.979979 243.673957 
L 370.747821 244.655901 
L 371.515662 243.542131 
L 372.283504 243.77096 
L 373.051345 244.264258 
L 373.819186 244.18252 
L 374.587028 243.942066 
L 375.354869 244.538507 
L 376.122711 243.749569 
L 376.890552 244.720743 
L 377.658394 244.08654 
L 378.426235 244.130697 
L 379.194076 243.921305 
L 379.961918 243.723591 
L 380.729759 244.049995 
L 381.497601 243.954648 
L 382.265442 244.298768 
L 383.033283 243.855068 
L 383.801125 244.216819 
L 384.568966 243.923356 
L 385.336808 243.539936 
L 386.104649 244.299518 
L 386.872491 244.545103 
L 387.640332 244.048096 
L 388.408173 244.358259 
L 389.176015 244.485962 
L 389.943856 243.748997 
L 390.711698 244.419565 
L 391.479539 243.340905 
L 392.24738 243.990416 
L 393.015222 243.732678 
L 393.783063 243.595778 
L 394.550905 244.299221 
L 395.318746 244.278473 
L 396.086588 243.594562 
L 396.854429 243.149641 
L 397.62227 244.017316 
L 398.390112 244.013422 
L 399.157953 243.610928 
L 399.925795 243.818207 
L 400.693636 243.805452 
L 401.461477 243.46012 
L 402.229319 243.478915 
L 402.99716 243.394055 
L 403.765002 243.807013 
L 404.532843 244.145228 
L 405.300685 244.188179 
L 406.068526 243.860858 
L 406.836367 244.231884 
L 407.604209 244.347904 
L 408.37205 243.956372 
L 409.139892 244.052088 
L 409.907733 243.708043 
L 410.675574 244.096473 
L 411.443416 243.516309 
L 412.211257 243.26499 
L 412.979099 244.094074 
L 413.74694 243.386256 
L 414.514782 243.236422 
L 415.282623 243.841979 
L 416.050464 243.623754 
L 416.818306 243.602642 
L 417.586147 243.994929 
L 418.353989 243.467651 
L 419.12183 244.454151 
L 419.889671 243.555219 
L 420.657513 244.261358 
L 421.425354 244.052703 
L 421.425354 234.914204 
L 421.425354 234.914204 
L 420.657513 235.48172 
L 419.889671 234.933049 
L 419.12183 235.948674 
L 418.353989 235.085298 
L 417.586147 235.036658 
L 416.818306 235.545371 
L 416.050464 235.110301 
L 415.282623 236.17276 
L 414.514782 235.821038 
L 413.74694 235.283118 
L 412.979099 235.209174 
L 412.211257 235.934768 
L 411.443416 234.920213 
L 410.675574 236.151117 
L 409.907733 235.038949 
L 409.139892 235.484011 
L 408.37205 236.239473 
L 407.604209 234.890663 
L 406.836367 235.420641 
L 406.068526 235.196601 
L 405.300685 236.602731 
L 404.532843 234.731125 
L 403.765002 235.224575 
L 402.99716 235.534043 
L 402.229319 235.242204 
L 401.461477 235.32568 
L 400.693636 235.937627 
L 399.925795 235.485041 
L 399.157953 235.472405 
L 398.390112 235.535614 
L 397.62227 235.557592 
L 396.854429 235.170456 
L 396.086588 235.631069 
L 395.318746 235.839755 
L 394.550905 236.232965 
L 393.783063 235.681597 
L 393.015222 235.958655 
L 392.24738 235.325768 
L 391.479539 235.043873 
L 390.711698 236.604197 
L 389.943856 235.204973 
L 389.176015 235.179499 
L 388.408173 235.164904 
L 387.640332 236.018387 
L 386.872491 235.611934 
L 386.104649 236.167987 
L 385.336808 235.232928 
L 384.568966 234.97887 
L 383.801125 235.48745 
L 383.033283 236.301968 
L 382.265442 234.83631 
L 381.497601 235.943665 
L 380.729759 235.809509 
L 379.961918 236.058296 
L 379.194076 235.705347 
L 378.426235 234.680975 
L 377.658394 236.238667 
L 376.890552 236.419445 
L 376.122711 235.864147 
L 375.354869 236.562871 
L 374.587028 235.425863 
L 373.819186 235.444132 
L 373.051345 235.646991 
L 372.283504 236.308459 
L 371.515662 235.877542 
L 370.747821 235.113049 
L 369.979979 234.788438 
L 369.212138 235.233082 
L 368.444297 235.211961 
L 367.676455 235.332452 
L 366.908614 235.548005 
L 366.140772 235.985686 
L 365.372931 236.112931 
L 364.605089 235.874374 
L 363.837248 235.072315 
L 363.069407 235.886362 
L 362.301565 235.753413 
L 361.533724 236.103984 
L 360.765882 235.797434 
L 359.998041 236.137941 
L 359.2302 235.025474 
L 358.462358 235.482157 
L 357.694517 235.770732 
L 356.926675 236.055422 
L 356.158834 235.986058 
L 355.390992 235.145264 
L 354.623151 235.508502 
L 353.85531 236.145894 
L 353.087468 236.336805 
L 352.319627 236.002546 
L 351.551785 235.495411 
L 350.783944 235.66937 
L 350.016103 236.543115 
L 349.248261 236.079628 
L 348.48042 235.587397 
L 347.712578 236.224181 
L 346.944737 234.843536 
L 346.176895 235.877297 
L 345.409054 236.4439 
L 344.641213 235.291389 
L 343.873371 235.3288 
L 343.10553 235.803704 
L 342.337688 235.518546 
L 341.569847 235.379732 
L 340.802006 236.270763 
L 340.034164 235.637343 
L 339.266323 236.143846 
L 338.498481 235.448434 
L 337.73064 236.074773 
L 336.962798 236.099707 
L 336.194957 236.190761 
L 335.427116 235.705062 
L 334.659274 236.039816 
L 333.891433 235.700711 
L 333.123591 236.377267 
L 332.35575 235.794739 
L 331.587909 235.148723 
L 330.820067 236.028681 
L 330.052226 236.005617 
L 329.284384 235.378737 
L 328.516543 235.214093 
L 327.748701 235.593866 
L 326.98086 235.853131 
L 326.213019 236.324997 
L 325.445177 235.929021 
L 324.677336 235.521445 
L 323.909494 236.459396 
L 323.141653 235.759373 
L 322.373811 235.889535 
L 321.60597 235.540161 
L 320.838129 235.749176 
L 320.070287 236.001261 
L 319.302446 235.853507 
L 318.534604 235.83275 
L 317.766763 235.790076 
L 316.998922 235.398562 
L 316.23108 235.696192 
L 315.463239 235.144031 
L 314.695397 235.869127 
L 313.927556 234.913623 
L 313.159714 235.802026 
L 312.391873 236.446174 
L 311.624032 236.113025 
L 310.85619 236.465615 
L 310.088349 236.195457 
L 309.320507 235.377442 
L 308.552666 236.075064 
L 307.784825 235.720016 
L 307.016983 235.408191 
L 306.249142 235.119817 
L 305.4813 235.744262 
L 304.713459 235.870746 
L 303.945617 236.009494 
L 303.177776 235.976775 
L 302.409935 234.958362 
L 301.642093 235.39768 
L 300.874252 235.615647 
L 300.10641 235.973986 
L 299.338569 236.725632 
L 298.570728 235.794769 
L 297.802886 235.587043 
L 297.035045 236.14343 
L 296.267203 236.072747 
L 295.499362 236.620163 
L 294.73152 236.794644 
L 293.963679 237.206849 
L 293.195838 236.477937 
L 292.427996 236.30424 
L 291.660155 236.180625 
L 290.892313 235.916618 
L 290.124472 236.949984 
L 289.356631 236.863408 
L 288.588789 236.637486 
L 287.820948 236.187411 
L 287.053106 236.819727 
L 286.285265 236.423434 
L 285.517423 236.155394 
L 284.749582 235.750227 
L 283.981741 236.167559 
L 283.213899 236.84498 
L 282.446058 235.856935 
L 281.678216 236.291259 
L 280.910375 235.869205 
L 280.142534 236.027958 
L 279.374692 236.029456 
L 278.606851 236.322559 
L 277.839009 237.001565 
L 277.071168 236.238238 
L 276.303326 236.301297 
L 275.535485 236.313596 
L 274.767644 235.939869 
L 273.999802 237.379435 
L 273.231961 236.688429 
L 272.464119 236.308059 
L 271.696278 236.563327 
L 270.928437 237.208045 
L 270.160595 236.533333 
L 269.392754 236.895936 
L 268.624912 236.330628 
L 267.857071 237.355899 
L 267.089229 235.95981 
L 266.321388 236.807357 
L 265.553547 237.337475 
L 264.785705 236.154549 
L 264.017864 236.206431 
L 263.250022 236.996908 
L 262.482181 236.475984 
L 261.71434 236.878788 
L 260.946498 237.484386 
L 260.178657 236.82805 
L 259.410815 236.636585 
L 258.642974 236.636103 
L 257.875132 236.806576 
L 257.107291 236.420423 
L 256.33945 236.820927 
L 255.571608 237.122282 
L 254.803767 235.882229 
L 254.035925 236.59991 
L 253.268084 236.83021 
L 252.500243 236.692532 
L 251.732401 236.169759 
L 250.96456 237.750087 
L 250.196718 237.216183 
L 249.428877 236.036475 
L 248.661035 237.092676 
L 247.893194 236.7136 
L 247.125353 236.807758 
L 246.357511 236.767077 
L 245.58967 236.749121 
L 244.821828 236.75851 
L 244.053987 237.503702 
L 243.286146 237.30376 
L 242.518304 237.035811 
L 241.750463 237.205291 
L 240.982621 236.793541 
L 240.21478 237.772033 
L 239.446938 237.098228 
L 238.679097 237.370102 
L 237.911256 237.509492 
L 237.143414 237.564624 
L 236.375573 237.051306 
L 235.607731 236.226682 
L 234.83989 237.322977 
L 234.072049 237.632677 
L 233.304207 237.730455 
L 232.536366 236.849076 
L 231.768524 238.076812 
L 231.000683 237.42354 
L 230.232841 238.205813 
L 229.465 237.663255 
L 228.697159 237.155821 
L 227.929317 238.119731 
L 227.161476 237.341747 
L 226.393634 237.383111 
L 225.625793 237.432418 
L 224.857951 237.012799 
L 224.09011 238.031451 
L 223.322269 237.596411 
L 222.554427 236.628211 
L 221.786586 236.753999 
L 221.018744 238.035171 
L 220.250903 238.073026 
L 219.483062 238.737927 
L 218.71522 238.256418 
L 217.947379 237.417175 
L 217.179537 237.58819 
L 216.411696 237.400612 
L 215.643854 237.906592 
L 214.876013 238.140686 
L 214.108172 238.894948 
L 213.34033 237.631153 
L 212.572489 238.304646 
L 211.804647 237.39219 
L 211.036806 237.331895 
L 210.268965 238.025758 
L 209.501123 238.146134 
L 208.733282 238.353692 
L 207.96544 238.937262 
L 207.197599 238.01915 
L 206.429757 237.731318 
L 205.661916 238.644904 
L 204.894075 237.980726 
L 204.126233 238.385112 
L 203.358392 238.1053 
L 202.59055 238.520313 
L 201.822709 237.729204 
L 201.054868 238.265521 
L 200.287026 238.228004 
L 199.519185 237.668703 
L 198.751343 238.118214 
L 197.983502 238.198311 
L 197.21566 237.363291 
L 196.447819 238.190167 
L 195.679978 238.561717 
L 194.912136 239.104425 
L 194.144295 237.954949 
L 193.376453 238.190719 
L 192.608612 238.587922 
L 191.840771 237.947178 
L 191.072929 238.117759 
L 190.305088 238.192984 
L 189.537246 238.784668 
L 188.769405 238.162802 
L 188.001563 238.470425 
L 187.233722 238.629785 
L 186.465881 237.99536 
L 185.698039 237.904466 
L 184.930198 237.825442 
L 184.162356 238.043957 
L 183.394515 238.228244 
L 182.626674 238.569881 
L 181.858832 238.560447 
L 181.090991 238.136685 
L 180.323149 237.580565 
L 179.555308 238.657555 
L 178.787466 238.745857 
L 178.019625 238.735011 
L 177.251784 238.478428 
L 176.483942 238.468853 
L 175.716101 239.106872 
L 174.948259 239.022137 
L 174.180418 238.101874 
L 173.412577 238.540234 
L 172.644735 239.212057 
L 171.876894 238.234312 
L 171.109052 238.787534 
L 170.341211 238.880004 
L 169.573369 238.485855 
L 168.805528 238.792209 
L 168.037687 238.229423 
L 167.269845 237.8488 
L 166.502004 238.1986 
L 165.734162 237.751228 
L 164.966321 239.23339 
L 164.19848 238.811931 
L 163.430638 238.900356 
L 162.662797 238.986008 
L 161.894955 238.285496 
L 161.127114 238.729225 
L 160.359272 238.916519 
L 159.591431 238.991949 
L 158.82359 238.931449 
L 158.055748 238.867772 
L 157.287907 238.838255 
L 156.520065 238.166687 
L 155.752224 239.403911 
L 154.984383 240.099136 
L 154.216541 238.001879 
L 153.4487 238.685035 
L 152.680858 239.609532 
L 151.913017 239.358476 
L 151.145175 239.299023 
L 150.377334 238.372499 
L 149.609493 238.816943 
L 148.841651 239.813242 
L 148.07381 239.663638 
L 147.305968 239.36881 
L 146.538127 239.170217 
L 145.770286 238.452779 
L 145.002444 239.056238 
L 144.234603 239.249198 
L 143.466761 238.84367 
L 142.69892 238.537768 
L 141.931078 239.25842 
L 141.163237 239.621088 
L 140.395396 239.222631 
L 139.627554 239.69654 
L 138.859713 239.43548 
L 138.091871 240.325924 
L 137.32403 238.852604 
L 136.556189 239.559175 
L 135.788347 239.242046 
L 135.020506 239.998726 
L 134.252664 239.64801 
L 133.484823 239.917419 
L 132.716981 239.7302 
L 131.94914 240.167122 
L 131.181299 239.644025 
L 130.413457 240.619061 
L 129.645616 239.729368 
L 128.877774 239.508182 
L 128.109933 239.442018 
L 127.342091 239.708201 
L 126.57425 240.287126 
L 125.806409 240.0239 
L 125.038567 239.747675 
L 124.270726 240.576424 
L 123.502884 240.065138 
L 122.735043 239.452182 
L 121.967202 240.431404 
L 121.19936 239.852955 
L 120.431519 240.218861 
L 119.663677 240.349258 
L 118.895836 240.39499 
L 118.127994 239.512614 
L 117.360153 239.798418 
L 116.592312 240.320687 
L 115.82447 239.635437 
L 115.056629 240.633607 
L 114.288787 240.429593 
L 113.520946 239.723523 
L 112.753105 240.787499 
L 111.985263 240.590549 
L 111.217422 240.129216 
L 110.44958 240.596963 
L 109.681739 240.238227 
L 108.913897 239.976387 
L 108.146056 239.74341 
L 107.378215 240.92058 
L 106.610373 240.739377 
L 105.842532 241.130486 
L 105.07469 240.668619 
L 104.306849 241.297533 
L 103.539008 240.780629 
L 102.771166 240.6676 
L 102.003325 241.106739 
L 101.235483 240.876696 
L 100.467642 240.578834 
L 99.6998 241.728573 
L 98.931959 240.666678 
L 98.164118 241.064544 
L 97.396276 240.05731 
L 96.628435 241.045002 
L 95.860593 240.521295 
L 95.092752 241.030588 
L 94.324911 240.573331 
L 93.557069 240.889979 
L 92.789228 241.445686 
L 92.021386 240.577786 
L 91.253545 240.914037 
L 90.485703 240.604323 
L 89.717862 241.088294 
L 88.950021 241.48794 
L 88.182179 240.991945 
L 87.414338 241.880356 
L 86.646496 241.92925 
L 85.878655 240.890151 
L 85.110814 241.460079 
L 84.342972 241.401196 
L 83.575131 241.384494 
L 82.807289 241.764122 
L 82.039448 241.50619 
L 81.271606 241.541162 
L 80.503765 241.583976 
L 79.735924 241.049704 
L 78.968082 241.539815 
L 78.200241 242.26285 
L 77.432399 241.655239 
L 76.664558 241.636181 
L 75.896717 242.029546 
L 75.128875 242.353761 
L 74.361034 241.884169 
L 73.593192 241.957981 
L 72.825351 241.938967 
L 72.057509 242.793487 
L 71.289668 242.557771 
L 70.521827 242.61274 
L 69.753985 242.372419 
L 68.986144 242.693246 
L 68.218302 242.395657 
L 67.450461 243.517651 
L 66.68262 243.070474 
L 65.914778 242.965814 
L 65.146937 243.702916 
L 64.379095 242.95903 
L 63.611254 242.424764 
L 62.843412 242.564749 
L 62.075571 243.552069 
L 61.30773 243.471936 
L 60.539888 243.499039 
L 59.772047 243.591774 
L 59.004205 243.133241 
L 58.236364 243.460905 
L 57.468523 244.163008 
L 56.700681 243.782714 
L 55.93284 244.631697 
L 55.164998 244.533822 
L 54.397157 244.486432 
L 53.629315 244.342899 
L 52.861474 244.555809 
L 52.093633 244.603911 
L 51.325791 244.658086 
L 50.55795 245.358362 
L 49.790108 245.11759 
L 49.022267 245.575851 
L 48.254426 245.754851 
L 47.486584 245.608889 
L 46.718743 246.375238 
L 45.950901 246.975329 
L 45.18306 247.599534 
L 44.415218 247.406084 
L 43.647377 248.631675 
L 42.879536 248.976014 
L 42.111694 249.190502 
L 41.343853 250.05266 
L 40.576011 250.45163 
L 39.80817 251.002034 
L 39.040329 252.179183 
L 38.272487 253.270304 
L 37.504646 254.638207 
z
" style="fill:#0000ff;fill-opacity:0.3;"/>
   </g>
   <g id="line2d_1">
    <path clip-path="url(#p7fc63681bc)" d="M 37.504646 254.638207 
L 39.040329 253.784418 
L 39.80817 253.066459 
L 40.576011 252.878884 
L 41.343853 252.574883 
L 42.111694 252.057436 
L 43.647377 251.417094 
L 44.415218 250.621518 
L 45.18306 250.712071 
L 46.718743 249.638367 
L 47.486584 249.224409 
L 48.254426 249.15326 
L 49.790108 248.564663 
L 50.55795 248.681088 
L 51.325791 248.202449 
L 52.093633 248.428833 
L 52.861474 247.85964 
L 54.397157 247.788491 
L 55.164998 247.969598 
L 55.93284 247.956662 
L 56.700681 247.342192 
L 57.468523 247.355128 
L 59.004205 246.63717 
L 59.772047 247.018787 
L 60.539888 246.967043 
L 61.30773 246.779468 
L 62.075571 246.798872 
L 62.843412 246.378446 
L 63.611254 246.249084 
L 64.379095 246.527212 
L 65.146937 246.656574 
L 65.914778 246.249084 
L 66.68262 246.475467 
L 67.450461 246.56602 
L 68.218302 245.893338 
L 68.986144 246.080913 
L 69.753985 245.796317 
L 70.521827 246.287892 
L 72.057509 246.119722 
L 72.825351 245.763976 
L 74.361034 245.537593 
L 75.128875 245.783381 
L 75.896717 245.7187 
L 76.664558 245.44704 
L 78.200241 245.556997 
L 78.968082 245.44704 
L 79.735924 245.065422 
L 80.503765 245.298273 
L 81.271606 245.246529 
L 82.039448 245.382359 
L 82.807289 245.317678 
L 83.575131 245.136571 
L 84.342972 245.091294 
L 85.110814 245.168911 
L 85.878655 244.897251 
L 86.646496 245.350018 
L 87.414338 245.337082 
L 88.182179 244.845506 
L 88.950021 245.110698 
L 91.253545 244.541506 
L 92.021386 244.567378 
L 92.789228 244.916656 
L 93.557069 244.690272 
L 95.092752 245.078358 
L 95.860593 244.729081 
L 96.628435 245.046017 
L 97.396276 244.28925 
L 98.164118 244.703208 
L 98.931959 244.69674 
L 99.6998 245.20772 
L 100.467642 244.463889 
L 102.003325 244.981337 
L 102.771166 244.580314 
L 104.306849 244.806698 
L 105.07469 244.470357 
L 105.842532 244.683804 
L 106.610373 244.28925 
L 107.378215 244.780825 
L 108.146056 243.855887 
L 108.913897 244.036994 
L 109.681739 243.978781 
L 110.44958 244.192229 
L 111.217422 243.933505 
L 111.985263 244.243973 
L 112.753105 244.282782 
L 113.520946 243.189673 
L 114.288787 244.295718 
L 115.056629 244.463889 
L 115.82447 244.056399 
L 116.592312 244.043462 
L 118.127994 243.487206 
L 118.895836 244.140484 
L 119.663677 244.315122 
L 120.431519 244.224569 
L 121.19936 243.901164 
L 121.967202 244.18576 
L 122.735043 243.545419 
L 123.502884 243.739462 
L 124.270726 244.121079 
L 125.038567 243.771802 
L 125.806409 244.159888 
L 126.57425 243.978781 
L 128.109933 243.364312 
L 128.877774 243.597164 
L 129.645616 243.681249 
L 130.413457 244.030526 
L 131.181299 243.77827 
L 132.716981 243.629504 
L 133.484823 243.868824 
L 134.252664 243.526014 
L 135.788347 243.603632 
L 137.32403 243.215546 
L 138.091871 243.952909 
L 138.859713 243.357844 
L 140.395396 243.454865 
L 141.163237 243.293163 
L 141.931078 243.480738 
L 142.69892 243.053843 
L 145.002444 243.312567 
L 145.770286 242.698098 
L 146.538127 243.209078 
L 147.305968 243.33844 
L 148.841651 243.448397 
L 149.609493 242.678694 
L 150.377334 242.853332 
L 151.145175 243.273759 
L 151.913017 243.215546 
L 152.680858 243.422525 
L 153.4487 242.581672 
L 154.216541 242.238863 
L 154.984383 243.720057 
L 155.752224 242.872737 
L 156.520065 242.523459 
L 158.055748 243.112056 
L 158.82359 243.137929 
L 159.591431 242.866268 
L 160.359272 242.950354 
L 161.894955 242.484651 
L 162.662797 242.918013 
L 163.430638 243.073248 
L 164.19848 242.749843 
L 164.966321 243.002099 
L 165.734162 242.141842 
L 166.502004 242.626949 
L 167.269845 242.310012 
L 168.037687 242.342353 
L 168.805528 242.652821 
L 169.573369 242.523459 
L 170.341211 242.846864 
L 171.109052 242.704566 
L 172.644735 242.801588 
L 173.412577 242.581672 
L 174.180418 242.154778 
L 174.948259 242.607545 
L 175.716101 242.678694 
L 176.483942 242.445842 
L 179.555308 242.342353 
L 180.323149 241.66967 
L 181.090991 242.277672 
L 181.858832 242.225927 
L 182.626674 242.057756 
L 184.930198 242.057756 
L 185.698039 241.87665 
L 186.465881 242.264735 
L 187.233722 242.387629 
L 188.769405 242.01248 
L 189.537246 242.808056 
L 190.305088 241.999543 
L 191.072929 242.090097 
L 191.840771 241.967203 
L 192.608612 242.471715 
L 193.376453 241.954267 
L 194.144295 241.650266 
L 194.912136 242.762779 
L 195.679978 242.090097 
L 196.447819 242.018948 
L 197.21566 241.559713 
L 198.751343 241.934862 
L 199.519185 241.566181 
L 200.287026 242.057756 
L 201.054868 242.303544 
L 201.822709 241.5015 
L 203.358392 242.174182 
L 204.126233 242.297076 
L 204.894075 241.740819 
L 205.661916 242.504055 
L 206.429757 241.850777 
L 207.197599 241.824905 
L 207.96544 242.329416 
L 208.733282 241.954267 
L 209.501123 241.708479 
L 210.268965 241.760224 
L 211.036806 241.404478 
L 211.804647 241.391542 
L 212.572489 241.676138 
L 213.34033 241.77316 
L 214.108172 242.277672 
L 214.876013 241.760224 
L 216.411696 241.449755 
L 217.179537 241.643798 
L 217.947379 241.417415 
L 218.71522 241.954267 
L 219.483062 242.303544 
L 220.250903 241.77316 
L 222.554427 240.984052 
L 223.322269 241.514436 
L 224.09011 241.546777 
L 224.857951 241.165159 
L 225.625793 241.378606 
L 226.393634 241.740819 
L 227.161476 241.294521 
L 227.929317 241.760224 
L 228.697159 241.294521 
L 229.465 241.682607 
L 230.232841 241.786096 
L 231.000683 241.469159 
L 231.768524 241.5015 
L 232.536366 240.932307 
L 233.304207 241.488564 
L 234.072049 241.63733 
L 234.83989 241.566181 
L 235.607731 240.61537 
L 236.375573 241.22984 
L 237.143414 241.236308 
L 237.911256 241.540308 
L 238.679097 241.443287 
L 239.446938 240.945243 
L 240.21478 241.372138 
L 240.982621 240.887031 
L 241.750463 240.899967 
L 242.518304 241.087542 
L 243.286146 240.938775 
L 244.053987 241.307457 
L 244.821828 240.874094 
L 245.58967 240.699456 
L 246.357511 240.99052 
L 247.125353 241.132818 
L 247.893194 240.628307 
L 248.661035 241.132818 
L 249.428877 240.136731 
L 250.196718 241.074605 
L 250.96456 241.469159 
L 251.732401 240.7512 
L 253.268084 240.861158 
L 256.33945 240.977584 
L 257.107291 240.388987 
L 257.875132 240.809413 
L 258.642974 240.692988 
L 259.410815 241.022861 
L 260.178657 240.977584 
L 260.946498 241.359202 
L 262.482181 240.680051 
L 263.250022 240.809413 
L 264.785705 240.576562 
L 265.553547 241.249244 
L 266.321388 241.068137 
L 267.089229 240.246689 
L 267.857071 241.372138 
L 268.624912 240.641243 
L 270.928437 241.068137 
L 272.464119 240.705924 
L 273.231961 240.815881 
L 273.999802 241.216904 
L 274.767644 240.259625 
L 276.303326 240.440732 
L 277.071168 240.117327 
L 277.839009 241.242776 
L 278.606851 240.524817 
L 279.374692 240.376051 
L 280.142534 240.938775 
L 280.910375 240.395455 
L 281.678216 240.608902 
L 282.446058 240.298434 
L 283.213899 241.016392 
L 283.981741 240.34371 
L 284.749582 240.550689 
L 286.285265 240.699456 
L 287.820948 240.421327 
L 288.588789 241.074605 
L 289.356631 240.777073 
L 290.124472 241.009924 
L 290.892313 240.324306 
L 291.660155 240.550689 
L 292.427996 240.641243 
L 293.195838 240.350178 
L 293.963679 241.236308 
L 294.73152 240.680051 
L 295.499362 240.874094 
L 296.267203 240.401923 
L 297.802886 240.104391 
L 298.570728 240.182008 
L 299.338569 240.692988 
L 300.10641 240.000901 
L 300.874252 240.291966 
L 302.409935 239.438177 
L 303.177776 240.279029 
L 303.945617 240.421327 
L 304.713459 240.350178 
L 305.4813 240.162604 
L 306.249142 240.091454 
L 307.016983 239.806858 
L 308.552666 240.31137 
L 309.320507 240.097923 
L 310.088349 240.440732 
L 310.85619 240.628307 
L 311.624032 240.531285 
L 312.391873 240.667115 
L 313.927556 239.748645 
L 314.695397 240.194944 
L 315.463239 239.839199 
L 316.23108 240.130263 
L 316.998922 239.658092 
L 318.534604 240.059114 
L 319.302446 240.013837 
L 320.070287 240.227285 
L 320.838129 240.013837 
L 321.60597 240.182008 
L 322.373811 240.097923 
L 323.141653 239.845667 
L 323.909494 240.576562 
L 324.677336 239.638688 
L 325.445177 239.793922 
L 326.213019 240.130263 
L 326.98086 240.298434 
L 327.748701 240.084986 
L 328.516543 239.489921 
L 329.284384 239.496389 
L 330.052226 239.80039 
L 330.820067 240.240221 
L 331.587909 239.832731 
L 332.35575 240.026774 
L 333.123591 240.608902 
L 333.891433 240.253157 
L 336.194957 240.194944 
L 336.962798 240.324306 
L 337.73064 240.324306 
L 339.266323 239.949156 
L 340.034164 239.722773 
L 340.802006 240.246689 
L 341.569847 239.76805 
L 342.337688 239.593411 
L 343.10553 240.007369 
L 343.873371 239.645156 
L 345.409054 240.07205 
L 346.176895 240.162604 
L 346.944737 239.483453 
L 347.712578 240.20788 
L 348.48042 239.923284 
L 349.248261 239.916816 
L 350.016103 240.725328 
L 351.551785 239.457581 
L 352.319627 240.026774 
L 353.087468 240.169072 
L 353.85531 240.498945 
L 354.623151 239.884475 
L 355.390992 239.438177 
L 356.158834 239.916816 
L 356.926675 240.020305 
L 357.694517 240.285497 
L 358.462358 240.130263 
L 359.2302 239.612815 
L 359.998041 240.298434 
L 360.765882 239.942688 
L 361.533724 240.376051 
L 362.301565 239.80039 
L 363.069407 240.020305 
L 363.837248 239.483453 
L 364.605089 240.026774 
L 365.372931 240.369583 
L 366.140772 240.169072 
L 366.908614 239.819794 
L 367.676455 239.780986 
L 368.444297 239.574007 
L 369.212138 239.586943 
L 369.979979 239.231197 
L 370.747821 239.884475 
L 371.515662 239.709837 
L 372.283504 240.03971 
L 374.587028 239.683964 
L 375.354869 240.550689 
L 376.122711 239.806858 
L 376.890552 240.570094 
L 377.658394 240.162604 
L 378.426235 239.405836 
L 379.194076 239.813326 
L 381.497601 239.949156 
L 382.265442 239.567539 
L 383.033283 240.078518 
L 383.801125 239.852135 
L 384.568966 239.451113 
L 385.336808 239.386432 
L 386.104649 240.233753 
L 388.408173 239.761581 
L 389.176015 239.832731 
L 389.943856 239.476985 
L 390.711698 240.511881 
L 391.479539 239.192389 
L 392.24738 239.658092 
L 393.015222 239.845667 
L 393.783063 239.638688 
L 394.550905 240.266093 
L 395.318746 240.059114 
L 396.854429 239.160048 
L 397.62227 239.787454 
L 398.390112 239.774518 
L 399.157953 239.541666 
L 400.693636 239.871539 
L 401.461477 239.3929 
L 402.229319 239.360559 
L 403.765002 239.515794 
L 404.532843 239.438177 
L 405.300685 240.395455 
L 406.068526 239.52873 
L 406.836367 239.826262 
L 407.604209 239.619283 
L 408.37205 240.097923 
L 409.907733 239.373496 
L 410.675574 240.123795 
L 411.443416 239.218261 
L 412.211257 239.599879 
L 412.979099 239.651624 
L 413.74694 239.334687 
L 414.514782 239.52873 
L 415.282623 240.007369 
L 416.050464 239.367028 
L 416.818306 239.574007 
L 417.586147 239.515794 
L 418.353989 239.276474 
L 419.12183 240.201412 
L 419.889671 239.244134 
L 420.657513 239.871539 
L 421.425354 239.483453 
L 421.425354 239.483453 
" style="fill:none;stroke:#0000ff;stroke-linecap:round;"/>
   </g>
   <g id="matplotlib.axis_1">
    <g id="xtick_1">
     <g id="line2d_2">
      <defs>
       <path d="M 0 0 
L 0 3.5 
" id="m98579df025" style="stroke:#000000;stroke-width:0.8;"/>
      </defs>
      <g>
       <use style="stroke:#000000;stroke-width:0.8;" x="37.504646" xlink:href="#m98579df025" y="258.685354"/>
      </g>
     </g>
     <g id="text_1">
      <!-- 0 -->
      <defs>
       <path d="M 31.78125 66.40625 
Q 24.171875 66.40625 20.328125 58.90625 
Q 16.5 51.421875 16.5 36.375 
Q 16.5 21.390625 20.328125 13.890625 
Q 24.171875 6.390625 31.78125 6.390625 
Q 39.453125 6.390625 43.28125 13.890625 
Q 47.125 21.390625 47.125 36.375 
Q 47.125 51.421875 43.28125 58.90625 
Q 39.453125 66.40625 31.78125 66.40625 
z
M 31.78125 74.21875 
Q 44.046875 74.21875 50.515625 64.515625 
Q 56.984375 54.828125 56.984375 36.375 
Q 56.984375 17.96875 50.515625 8.265625 
Q 44.046875 -1.421875 31.78125 -1.421875 
Q 19.53125 -1.421875 13.0625 8.265625 
Q 6.59375 17.96875 6.59375 36.375 
Q 6.59375 54.828125 13.0625 64.515625 
Q 19.53125 74.21875 31.78125 74.21875 
z
" id="DejaVuSans-30"/>
      </defs>
      <g transform="translate(34.959646 271.764104)scale(0.08 -0.08)">
       <use xlink:href="#DejaVuSans-30"/>
      </g>
     </g>
    </g>
    <g id="xtick_2">
     <g id="line2d_3">
      <g>
       <use style="stroke:#000000;stroke-width:0.8;" x="114.288787" xlink:href="#m98579df025" y="258.685354"/>
      </g>
     </g>
     <g id="text_2">
      <!-- 200 -->
      <defs>
       <path d="M 19.1875 8.296875 
L 53.609375 8.296875 
L 53.609375 0 
L 7.328125 0 
L 7.328125 8.296875 
Q 12.9375 14.109375 22.625 23.890625 
Q 32.328125 33.6875 34.8125 36.53125 
Q 39.546875 41.84375 41.421875 45.53125 
Q 43.3125 49.21875 43.3125 52.78125 
Q 43.3125 58.59375 39.234375 62.25 
Q 35.15625 65.921875 28.609375 65.921875 
Q 23.96875 65.921875 18.8125 64.3125 
Q 13.671875 62.703125 7.8125 59.421875 
L 7.8125 69.390625 
Q 13.765625 71.78125 18.9375 73 
Q 24.125 74.21875 28.421875 74.21875 
Q 39.75 74.21875 46.484375 68.546875 
Q 53.21875 62.890625 53.21875 53.421875 
Q 53.21875 48.921875 51.53125 44.890625 
Q 49.859375 40.875 45.40625 35.40625 
Q 44.1875 33.984375 37.640625 27.21875 
Q 31.109375 20.453125 19.1875 8.296875 
z
" id="DejaVuSans-32"/>
      </defs>
      <g transform="translate(106.653787 271.764104)scale(0.08 -0.08)">
       <use xlink:href="#DejaVuSans-32"/>
       <use x="63.623047" xlink:href="#DejaVuSans-30"/>
       <use x="127.246094" xlink:href="#DejaVuSans-30"/>
      </g>
     </g>
    </g>
    <g id="xtick_3">
     <g id="line2d_4">
      <g>
       <use style="stroke:#000000;stroke-width:0.8;" x="191.072929" xlink:href="#m98579df025" y="258.685354"/>
      </g>
     </g>
     <g id="text_3">
      <!-- 400 -->
      <defs>
       <path d="M 37.796875 64.3125 
L 12.890625 25.390625 
L 37.796875 25.390625 
z
M 35.203125 72.90625 
L 47.609375 72.90625 
L 47.609375 25.390625 
L 58.015625 25.390625 
L 58.015625 17.1875 
L 47.609375 17.1875 
L 47.609375 0 
L 37.796875 0 
L 37.796875 17.1875 
L 4.890625 17.1875 
L 4.890625 26.703125 
z
" id="DejaVuSans-34"/>
      </defs>
      <g transform="translate(183.437929 271.764104)scale(0.08 -0.08)">
       <use xlink:href="#DejaVuSans-34"/>
       <use x="63.623047" xlink:href="#DejaVuSans-30"/>
       <use x="127.246094" xlink:href="#DejaVuSans-30"/>
      </g>
     </g>
    </g>
    <g id="xtick_4">
     <g id="line2d_5">
      <g>
       <use style="stroke:#000000;stroke-width:0.8;" x="267.857071" xlink:href="#m98579df025" y="258.685354"/>
      </g>
     </g>
     <g id="text_4">
      <!-- 600 -->
      <defs>
       <path d="M 33.015625 40.375 
Q 26.375 40.375 22.484375 35.828125 
Q 18.609375 31.296875 18.609375 23.390625 
Q 18.609375 15.53125 22.484375 10.953125 
Q 26.375 6.390625 33.015625 6.390625 
Q 39.65625 6.390625 43.53125 10.953125 
Q 47.40625 15.53125 47.40625 23.390625 
Q 47.40625 31.296875 43.53125 35.828125 
Q 39.65625 40.375 33.015625 40.375 
z
M 52.59375 71.296875 
L 52.59375 62.3125 
Q 48.875 64.0625 45.09375 64.984375 
Q 41.3125 65.921875 37.59375 65.921875 
Q 27.828125 65.921875 22.671875 59.328125 
Q 17.53125 52.734375 16.796875 39.40625 
Q 19.671875 43.65625 24.015625 45.921875 
Q 28.375 48.1875 33.59375 48.1875 
Q 44.578125 48.1875 50.953125 41.515625 
Q 57.328125 34.859375 57.328125 23.390625 
Q 57.328125 12.15625 50.6875 5.359375 
Q 44.046875 -1.421875 33.015625 -1.421875 
Q 20.359375 -1.421875 13.671875 8.265625 
Q 6.984375 17.96875 6.984375 36.375 
Q 6.984375 53.65625 15.1875 63.9375 
Q 23.390625 74.21875 37.203125 74.21875 
Q 40.921875 74.21875 44.703125 73.484375 
Q 48.484375 72.75 52.59375 71.296875 
z
" id="DejaVuSans-36"/>
      </defs>
      <g transform="translate(260.222071 271.764104)scale(0.08 -0.08)">
       <use xlink:href="#DejaVuSans-36"/>
       <use x="63.623047" xlink:href="#DejaVuSans-30"/>
       <use x="127.246094" xlink:href="#DejaVuSans-30"/>
      </g>
     </g>
    </g>
    <g id="xtick_5">
     <g id="line2d_6">
      <g>
       <use style="stroke:#000000;stroke-width:0.8;" x="344.641213" xlink:href="#m98579df025" y="258.685354"/>
      </g>
     </g>
     <g id="text_5">
      <!-- 800 -->
      <defs>
       <path d="M 31.78125 34.625 
Q 24.75 34.625 20.71875 30.859375 
Q 16.703125 27.09375 16.703125 20.515625 
Q 16.703125 13.921875 20.71875 10.15625 
Q 24.75 6.390625 31.78125 6.390625 
Q 38.8125 6.390625 42.859375 10.171875 
Q 46.921875 13.96875 46.921875 20.515625 
Q 46.921875 27.09375 42.890625 30.859375 
Q 38.875 34.625 31.78125 34.625 
z
M 21.921875 38.8125 
Q 15.578125 40.375 12.03125 44.71875 
Q 8.5 49.078125 8.5 55.328125 
Q 8.5 64.0625 14.71875 69.140625 
Q 20.953125 74.21875 31.78125 74.21875 
Q 42.671875 74.21875 48.875 69.140625 
Q 55.078125 64.0625 55.078125 55.328125 
Q 55.078125 49.078125 51.53125 44.71875 
Q 48 40.375 41.703125 38.8125 
Q 48.828125 37.15625 52.796875 32.3125 
Q 56.78125 27.484375 56.78125 20.515625 
Q 56.78125 9.90625 50.3125 4.234375 
Q 43.84375 -1.421875 31.78125 -1.421875 
Q 19.734375 -1.421875 13.25 4.234375 
Q 6.78125 9.90625 6.78125 20.515625 
Q 6.78125 27.484375 10.78125 32.3125 
Q 14.796875 37.15625 21.921875 38.8125 
z
M 18.3125 54.390625 
Q 18.3125 48.734375 21.84375 45.5625 
Q 25.390625 42.390625 31.78125 42.390625 
Q 38.140625 42.390625 41.71875 45.5625 
Q 45.3125 48.734375 45.3125 54.390625 
Q 45.3125 60.0625 41.71875 63.234375 
Q 38.140625 66.40625 31.78125 66.40625 
Q 25.390625 66.40625 21.84375 63.234375 
Q 18.3125 60.0625 18.3125 54.390625 
z
" id="DejaVuSans-38"/>
      </defs>
      <g transform="translate(337.006213 271.764104)scale(0.08 -0.08)">
       <use xlink:href="#DejaVuSans-38"/>
       <use x="63.623047" xlink:href="#DejaVuSans-30"/>
       <use x="127.246094" xlink:href="#DejaVuSans-30"/>
      </g>
     </g>
    </g>
    <g id="xtick_6">
     <g id="line2d_7">
      <g>
       <use style="stroke:#000000;stroke-width:0.8;" x="421.425354" xlink:href="#m98579df025" y="258.685354"/>
      </g>
     </g>
     <g id="text_6">
      <!-- 1000 -->
      <defs>
       <path d="M 12.40625 8.296875 
L 28.515625 8.296875 
L 28.515625 63.921875 
L 10.984375 60.40625 
L 10.984375 69.390625 
L 28.421875 72.90625 
L 38.28125 72.90625 
L 38.28125 8.296875 
L 54.390625 8.296875 
L 54.390625 0 
L 12.40625 0 
z
" id="DejaVuSans-31"/>
      </defs>
      <g transform="translate(411.245354 271.764104)scale(0.08 -0.08)">
       <use xlink:href="#DejaVuSans-31"/>
       <use x="63.623047" xlink:href="#DejaVuSans-30"/>
       <use x="127.246094" xlink:href="#DejaVuSans-30"/>
       <use x="190.869141" xlink:href="#DejaVuSans-30"/>
      </g>
     </g>
    </g>
    <g id="text_7">
     <!-- time -->
     <defs>
      <path d="M 18.3125 70.21875 
L 18.3125 54.6875 
L 36.8125 54.6875 
L 36.8125 47.703125 
L 18.3125 47.703125 
L 18.3125 18.015625 
Q 18.3125 11.328125 20.140625 9.421875 
Q 21.96875 7.515625 27.59375 7.515625 
L 36.8125 7.515625 
L 36.8125 0 
L 27.59375 0 
Q 17.1875 0 13.234375 3.875 
Q 9.28125 7.765625 9.28125 18.015625 
L 9.28125 47.703125 
L 2.6875 47.703125 
L 2.6875 54.6875 
L 9.28125 54.6875 
L 9.28125 70.21875 
z
" id="DejaVuSans-74"/>
      <path d="M 9.421875 54.6875 
L 18.40625 54.6875 
L 18.40625 0 
L 9.421875 0 
z
M 9.421875 75.984375 
L 18.40625 75.984375 
L 18.40625 64.59375 
L 9.421875 64.59375 
z
" id="DejaVuSans-69"/>
      <path d="M 52 44.1875 
Q 55.375 50.25 60.0625 53.125 
Q 64.75 56 71.09375 56 
Q 79.640625 56 84.28125 50.015625 
Q 88.921875 44.046875 88.921875 33.015625 
L 88.921875 0 
L 79.890625 0 
L 79.890625 32.71875 
Q 79.890625 40.578125 77.09375 44.375 
Q 74.3125 48.1875 68.609375 48.1875 
Q 61.625 48.1875 57.5625 43.546875 
Q 53.515625 38.921875 53.515625 30.90625 
L 53.515625 0 
L 44.484375 0 
L 44.484375 32.71875 
Q 44.484375 40.625 41.703125 44.40625 
Q 38.921875 48.1875 33.109375 48.1875 
Q 26.21875 48.1875 22.15625 43.53125 
Q 18.109375 38.875 18.109375 30.90625 
L 18.109375 0 
L 9.078125 0 
L 9.078125 54.6875 
L 18.109375 54.6875 
L 18.109375 46.1875 
Q 21.1875 51.21875 25.484375 53.609375 
Q 29.78125 56 35.6875 56 
Q 41.65625 56 45.828125 52.96875 
Q 50 49.953125 52 44.1875 
z
" id="DejaVuSans-6d"/>
      <path d="M 56.203125 29.59375 
L 56.203125 25.203125 
L 14.890625 25.203125 
Q 15.484375 15.921875 20.484375 11.0625 
Q 25.484375 6.203125 34.421875 6.203125 
Q 39.59375 6.203125 44.453125 7.46875 
Q 49.3125 8.734375 54.109375 11.28125 
L 54.109375 2.78125 
Q 49.265625 0.734375 44.1875 -0.34375 
Q 39.109375 -1.421875 33.890625 -1.421875 
Q 20.796875 -1.421875 13.15625 6.1875 
Q 5.515625 13.8125 5.515625 26.8125 
Q 5.515625 40.234375 12.765625 48.109375 
Q 20.015625 56 32.328125 56 
Q 43.359375 56 49.78125 48.890625 
Q 56.203125 41.796875 56.203125 29.59375 
z
M 47.21875 32.234375 
Q 47.125 39.59375 43.09375 43.984375 
Q 39.0625 48.390625 32.421875 48.390625 
Q 24.90625 48.390625 20.390625 44.140625 
Q 15.875 39.890625 15.1875 32.171875 
z
" id="DejaVuSans-65"/>
     </defs>
     <g transform="translate(217.039297 285.786136)scale(0.11 -0.11)">
      <use xlink:href="#DejaVuSans-74"/>
      <use x="39.208984" xlink:href="#DejaVuSans-69"/>
      <use x="66.992188" xlink:href="#DejaVuSans-6d"/>
      <use x="164.404297" xlink:href="#DejaVuSans-65"/>
     </g>
    </g>
   </g>
   <g id="matplotlib.axis_2">
    <g id="ytick_1">
     <g id="line2d_8">
      <defs>
       <path d="M 0 0 
L -3.5 0 
" id="m565cd597e7" style="stroke:#000000;stroke-width:0.8;"/>
      </defs>
      <g>
       <use style="stroke:#000000;stroke-width:0.8;" x="37.504646" xlink:href="#m565cd597e7" y="254.638207"/>
      </g>
     </g>
     <g id="text_8">
      <!-- 0 -->
      <g transform="translate(25.414646 257.677582)scale(0.08 -0.08)">
       <use xlink:href="#DejaVuSans-30"/>
      </g>
     </g>
    </g>
    <g id="ytick_2">
     <g id="line2d_9">
      <g>
       <use style="stroke:#000000;stroke-width:0.8;" x="37.504646" xlink:href="#m565cd597e7" y="189.957228"/>
      </g>
     </g>
     <g id="text_9">
      <!-- 100 -->
      <g transform="translate(15.234646 192.996603)scale(0.08 -0.08)">
       <use xlink:href="#DejaVuSans-31"/>
       <use x="63.623047" xlink:href="#DejaVuSans-30"/>
       <use x="127.246094" xlink:href="#DejaVuSans-30"/>
      </g>
     </g>
    </g>
    <g id="ytick_3">
     <g id="line2d_10">
      <g>
       <use style="stroke:#000000;stroke-width:0.8;" x="37.504646" xlink:href="#m565cd597e7" y="125.276249"/>
      </g>
     </g>
     <g id="text_10">
      <!-- 200 -->
      <g transform="translate(15.234646 128.315624)scale(0.08 -0.08)">
       <use xlink:href="#DejaVuSans-32"/>
       <use x="63.623047" xlink:href="#DejaVuSans-30"/>
       <use x="127.246094" xlink:href="#DejaVuSans-30"/>
      </g>
     </g>
    </g>
    <g id="ytick_4">
     <g id="line2d_11">
      <g>
       <use style="stroke:#000000;stroke-width:0.8;" x="37.504646" xlink:href="#m565cd597e7" y="60.59527"/>
      </g>
     </g>
     <g id="text_11">
      <!-- 300 -->
      <defs>
       <path d="M 40.578125 39.3125 
Q 47.65625 37.796875 51.625 33 
Q 55.609375 28.21875 55.609375 21.1875 
Q 55.609375 10.40625 48.1875 4.484375 
Q 40.765625 -1.421875 27.09375 -1.421875 
Q 22.515625 -1.421875 17.65625 -0.515625 
Q 12.796875 0.390625 7.625 2.203125 
L 7.625 11.71875 
Q 11.71875 9.328125 16.59375 8.109375 
Q 21.484375 6.890625 26.8125 6.890625 
Q 36.078125 6.890625 40.9375 10.546875 
Q 45.796875 14.203125 45.796875 21.1875 
Q 45.796875 27.640625 41.28125 31.265625 
Q 36.765625 34.90625 28.71875 34.90625 
L 20.21875 34.90625 
L 20.21875 43.015625 
L 29.109375 43.015625 
Q 36.375 43.015625 40.234375 45.921875 
Q 44.09375 48.828125 44.09375 54.296875 
Q 44.09375 59.90625 40.109375 62.90625 
Q 36.140625 65.921875 28.71875 65.921875 
Q 24.65625 65.921875 20.015625 65.03125 
Q 15.375 64.15625 9.8125 62.3125 
L 9.8125 71.09375 
Q 15.4375 72.65625 20.34375 73.4375 
Q 25.25 74.21875 29.59375 74.21875 
Q 40.828125 74.21875 47.359375 69.109375 
Q 53.90625 64.015625 53.90625 55.328125 
Q 53.90625 49.265625 50.4375 45.09375 
Q 46.96875 40.921875 40.578125 39.3125 
z
" id="DejaVuSans-33"/>
      </defs>
      <g transform="translate(15.234646 63.634645)scale(0.08 -0.08)">
       <use xlink:href="#DejaVuSans-33"/>
       <use x="63.623047" xlink:href="#DejaVuSans-30"/>
       <use x="127.246094" xlink:href="#DejaVuSans-30"/>
      </g>
     </g>
    </g>
    <g id="text_12">
     <!-- mean population size -->
     <defs>
      <path d="M 34.28125 27.484375 
Q 23.390625 27.484375 19.1875 25 
Q 14.984375 22.515625 14.984375 16.5 
Q 14.984375 11.71875 18.140625 8.90625 
Q 21.296875 6.109375 26.703125 6.109375 
Q 34.1875 6.109375 38.703125 11.40625 
Q 43.21875 16.703125 43.21875 25.484375 
L 43.21875 27.484375 
z
M 52.203125 31.203125 
L 52.203125 0 
L 43.21875 0 
L 43.21875 8.296875 
Q 40.140625 3.328125 35.546875 0.953125 
Q 30.953125 -1.421875 24.3125 -1.421875 
Q 15.921875 -1.421875 10.953125 3.296875 
Q 6 8.015625 6 15.921875 
Q 6 25.140625 12.171875 29.828125 
Q 18.359375 34.515625 30.609375 34.515625 
L 43.21875 34.515625 
L 43.21875 35.40625 
Q 43.21875 41.609375 39.140625 45 
Q 35.0625 48.390625 27.6875 48.390625 
Q 23 48.390625 18.546875 47.265625 
Q 14.109375 46.140625 10.015625 43.890625 
L 10.015625 52.203125 
Q 14.9375 54.109375 19.578125 55.046875 
Q 24.21875 56 28.609375 56 
Q 40.484375 56 46.34375 49.84375 
Q 52.203125 43.703125 52.203125 31.203125 
z
" id="DejaVuSans-61"/>
      <path d="M 54.890625 33.015625 
L 54.890625 0 
L 45.90625 0 
L 45.90625 32.71875 
Q 45.90625 40.484375 42.875 44.328125 
Q 39.84375 48.1875 33.796875 48.1875 
Q 26.515625 48.1875 22.3125 43.546875 
Q 18.109375 38.921875 18.109375 30.90625 
L 18.109375 0 
L 9.078125 0 
L 9.078125 54.6875 
L 18.109375 54.6875 
L 18.109375 46.1875 
Q 21.34375 51.125 25.703125 53.5625 
Q 30.078125 56 35.796875 56 
Q 45.21875 56 50.046875 50.171875 
Q 54.890625 44.34375 54.890625 33.015625 
z
" id="DejaVuSans-6e"/>
      <path id="DejaVuSans-20"/>
      <path d="M 18.109375 8.203125 
L 18.109375 -20.796875 
L 9.078125 -20.796875 
L 9.078125 54.6875 
L 18.109375 54.6875 
L 18.109375 46.390625 
Q 20.953125 51.265625 25.265625 53.625 
Q 29.59375 56 35.59375 56 
Q 45.5625 56 51.78125 48.09375 
Q 58.015625 40.1875 58.015625 27.296875 
Q 58.015625 14.40625 51.78125 6.484375 
Q 45.5625 -1.421875 35.59375 -1.421875 
Q 29.59375 -1.421875 25.265625 0.953125 
Q 20.953125 3.328125 18.109375 8.203125 
z
M 48.6875 27.296875 
Q 48.6875 37.203125 44.609375 42.84375 
Q 40.53125 48.484375 33.40625 48.484375 
Q 26.265625 48.484375 22.1875 42.84375 
Q 18.109375 37.203125 18.109375 27.296875 
Q 18.109375 17.390625 22.1875 11.75 
Q 26.265625 6.109375 33.40625 6.109375 
Q 40.53125 6.109375 44.609375 11.75 
Q 48.6875 17.390625 48.6875 27.296875 
z
" id="DejaVuSans-70"/>
      <path d="M 30.609375 48.390625 
Q 23.390625 48.390625 19.1875 42.75 
Q 14.984375 37.109375 14.984375 27.296875 
Q 14.984375 17.484375 19.15625 11.84375 
Q 23.34375 6.203125 30.609375 6.203125 
Q 37.796875 6.203125 41.984375 11.859375 
Q 46.1875 17.53125 46.1875 27.296875 
Q 46.1875 37.015625 41.984375 42.703125 
Q 37.796875 48.390625 30.609375 48.390625 
z
M 30.609375 56 
Q 42.328125 56 49.015625 48.375 
Q 55.71875 40.765625 55.71875 27.296875 
Q 55.71875 13.875 49.015625 6.21875 
Q 42.328125 -1.421875 30.609375 -1.421875 
Q 18.84375 -1.421875 12.171875 6.21875 
Q 5.515625 13.875 5.515625 27.296875 
Q 5.515625 40.765625 12.171875 48.375 
Q 18.84375 56 30.609375 56 
z
" id="DejaVuSans-6f"/>
      <path d="M 8.5 21.578125 
L 8.5 54.6875 
L 17.484375 54.6875 
L 17.484375 21.921875 
Q 17.484375 14.15625 20.5 10.265625 
Q 23.53125 6.390625 29.59375 6.390625 
Q 36.859375 6.390625 41.078125 11.03125 
Q 45.3125 15.671875 45.3125 23.6875 
L 45.3125 54.6875 
L 54.296875 54.6875 
L 54.296875 0 
L 45.3125 0 
L 45.3125 8.40625 
Q 42.046875 3.421875 37.71875 1 
Q 33.40625 -1.421875 27.6875 -1.421875 
Q 18.265625 -1.421875 13.375 4.4375 
Q 8.5 10.296875 8.5 21.578125 
z
M 31.109375 56 
z
" id="DejaVuSans-75"/>
      <path d="M 9.421875 75.984375 
L 18.40625 75.984375 
L 18.40625 0 
L 9.421875 0 
z
" id="DejaVuSans-6c"/>
      <path d="M 44.28125 53.078125 
L 44.28125 44.578125 
Q 40.484375 46.53125 36.375 47.5 
Q 32.28125 48.484375 27.875 48.484375 
Q 21.1875 48.484375 17.84375 46.4375 
Q 14.5 44.390625 14.5 40.28125 
Q 14.5 37.15625 16.890625 35.375 
Q 19.28125 33.59375 26.515625 31.984375 
L 29.59375 31.296875 
Q 39.15625 29.25 43.1875 25.515625 
Q 47.21875 21.78125 47.21875 15.09375 
Q 47.21875 7.46875 41.1875 3.015625 
Q 35.15625 -1.421875 24.609375 -1.421875 
Q 20.21875 -1.421875 15.453125 -0.5625 
Q 10.6875 0.296875 5.421875 2 
L 5.421875 11.28125 
Q 10.40625 8.6875 15.234375 7.390625 
Q 20.0625 6.109375 24.8125 6.109375 
Q 31.15625 6.109375 34.5625 8.28125 
Q 37.984375 10.453125 37.984375 14.40625 
Q 37.984375 18.0625 35.515625 20.015625 
Q 33.0625 21.96875 24.703125 23.78125 
L 21.578125 24.515625 
Q 13.234375 26.265625 9.515625 29.90625 
Q 5.8125 33.546875 5.8125 39.890625 
Q 5.8125 47.609375 11.28125 51.796875 
Q 16.75 56 26.8125 56 
Q 31.78125 56 36.171875 55.265625 
Q 40.578125 54.546875 44.28125 53.078125 
z
" id="DejaVuSans-73"/>
      <path d="M 5.515625 54.6875 
L 48.1875 54.6875 
L 48.1875 46.484375 
L 14.40625 7.171875 
L 48.1875 7.171875 
L 48.1875 0 
L 4.296875 0 
L 4.296875 8.203125 
L 38.09375 47.515625 
L 5.515625 47.515625 
z
" id="DejaVuSans-7a"/>
     </defs>
     <g transform="translate(8.946989 189.785312)rotate(-90)scale(0.11 -0.11)">
      <use xlink:href="#DejaVuSans-6d"/>
      <use x="97.412109" xlink:href="#DejaVuSans-65"/>
      <use x="158.935547" xlink:href="#DejaVuSans-61"/>
      <use x="220.214844" xlink:href="#DejaVuSans-6e"/>
      <use x="283.59375" xlink:href="#DejaVuSans-20"/>
      <use x="315.380859" xlink:href="#DejaVuSans-70"/>
      <use x="378.857422" xlink:href="#DejaVuSans-6f"/>
      <use x="440.039062" xlink:href="#DejaVuSans-70"/>
      <use x="503.515625" xlink:href="#DejaVuSans-75"/>
      <use x="566.894531" xlink:href="#DejaVuSans-6c"/>
      <use x="594.677734" xlink:href="#DejaVuSans-61"/>
      <use x="655.957031" xlink:href="#DejaVuSans-74"/>
      <use x="695.166016" xlink:href="#DejaVuSans-69"/>
      <use x="722.949219" xlink:href="#DejaVuSans-6f"/>
      <use x="784.130859" xlink:href="#DejaVuSans-6e"/>
      <use x="847.509766" xlink:href="#DejaVuSans-20"/>
      <use x="879.296875" xlink:href="#DejaVuSans-73"/>
      <use x="931.396484" xlink:href="#DejaVuSans-69"/>
      <use x="959.179688" xlink:href="#DejaVuSans-7a"/>
      <use x="1011.669922" xlink:href="#DejaVuSans-65"/>
     </g>
    </g>
   </g>
   <g id="PolyCollection_2">
    <path clip-path="url(#p7fc63681bc)" d="M 37.504646 254.638207 
L 37.504646 254.638207 
L 38.272487 255.256533 
L 39.040329 256.150259 
L 39.80817 256.683085 
L 40.576011 257.326458 
L 41.343853 258.196938 
L 42.111694 258.685354 
L 42.879536 258.495131 
L 43.647377 258.14302 
L 44.415218 257.340039 
L 45.18306 256.695099 
L 45.950901 255.951831 
L 46.718743 254.193105 
L 47.486584 253.115321 
L 48.254426 251.696442 
L 49.022267 250.366369 
L 49.790108 249.069833 
L 50.55795 247.651762 
L 51.325791 246.342179 
L 52.093633 245.346299 
L 52.861474 244.343269 
L 53.629315 243.197701 
L 54.397157 242.881975 
L 55.164998 241.820621 
L 55.93284 241.305196 
L 56.700681 240.73685 
L 57.468523 239.644203 
L 58.236364 238.313774 
L 59.004205 237.794901 
L 59.772047 236.640337 
L 60.539888 236.244664 
L 61.30773 235.094734 
L 62.075571 234.424215 
L 62.843412 233.560785 
L 63.611254 233.110705 
L 64.379095 232.947297 
L 65.146937 232.510128 
L 65.914778 231.87887 
L 66.68262 231.173816 
L 67.450461 230.872337 
L 68.218302 231.04736 
L 68.986144 230.453691 
L 69.753985 230.298459 
L 70.521827 229.4481 
L 71.289668 229.257162 
L 72.057509 229.351104 
L 72.825351 229.042066 
L 73.593192 228.326581 
L 74.361034 228.391048 
L 75.128875 228.483261 
L 75.896717 228.876752 
L 76.664558 228.825507 
L 77.432399 228.338249 
L 78.200241 228.411985 
L 78.968082 228.02668 
L 79.735924 227.650194 
L 80.503765 227.148638 
L 81.271606 227.227103 
L 82.039448 227.041305 
L 82.807289 226.887918 
L 83.575131 226.924372 
L 84.342972 226.833902 
L 85.110814 227.037495 
L 85.878655 226.792167 
L 86.646496 226.326699 
L 87.414338 226.638262 
L 88.182179 226.54699 
L 88.950021 226.430298 
L 89.717862 225.835709 
L 90.485703 225.728764 
L 91.253545 225.993334 
L 92.021386 226.039289 
L 92.789228 225.831255 
L 93.557069 225.988721 
L 94.324911 226.073928 
L 95.092752 226.189963 
L 95.860593 226.462398 
L 96.628435 226.310971 
L 97.396276 226.329106 
L 98.164118 225.781529 
L 98.931959 224.866049 
L 99.6998 224.529594 
L 100.467642 224.589413 
L 101.235483 223.908147 
L 102.003325 223.701161 
L 102.771166 223.191037 
L 103.539008 223.303296 
L 104.306849 222.809118 
L 105.07469 222.094975 
L 105.842532 221.647331 
L 106.610373 221.243625 
L 107.378215 219.628813 
L 108.146056 218.655276 
L 108.913897 217.876958 
L 109.681739 217.383141 
L 110.44958 216.911761 
L 111.217422 216.379458 
L 111.985263 215.80827 
L 112.753105 215.438585 
L 113.520946 215.594389 
L 114.288787 214.814818 
L 115.056629 214.486011 
L 115.82447 214.554708 
L 116.592312 214.779413 
L 117.360153 214.511875 
L 118.127994 214.312987 
L 118.895836 213.970224 
L 119.663677 213.927298 
L 120.431519 214.054291 
L 121.19936 214.330818 
L 121.967202 214.053833 
L 122.735043 214.234789 
L 123.502884 213.986969 
L 124.270726 213.508249 
L 125.038567 213.253307 
L 125.806409 212.606198 
L 126.57425 212.430904 
L 127.342091 212.15955 
L 128.109933 211.93455 
L 128.877774 211.658108 
L 129.645616 211.53163 
L 130.413457 211.230191 
L 131.181299 210.661697 
L 131.94914 210.452318 
L 132.716981 210.284051 
L 133.484823 209.475886 
L 134.252664 209.134224 
L 135.020506 208.710618 
L 135.788347 207.508316 
L 136.556189 207.211222 
L 137.32403 206.59317 
L 138.091871 206.004391 
L 138.859713 205.862317 
L 139.627554 205.47644 
L 140.395396 204.727826 
L 141.163237 204.817904 
L 141.931078 204.369651 
L 142.69892 204.450324 
L 143.466761 204.023579 
L 144.234603 203.437083 
L 145.002444 203.405468 
L 145.770286 203.41254 
L 146.538127 202.887363 
L 147.305968 202.586435 
L 148.07381 202.097702 
L 148.841651 201.709821 
L 149.609493 201.987802 
L 150.377334 201.322968 
L 151.145175 200.938531 
L 151.913017 200.347297 
L 152.680858 199.649658 
L 153.4487 199.562892 
L 154.216541 199.300711 
L 154.984383 198.296659 
L 155.752224 198.390952 
L 156.520065 197.670995 
L 157.287907 197.576312 
L 158.055748 197.08282 
L 158.82359 196.987116 
L 159.591431 197.356185 
L 160.359272 197.040914 
L 161.127114 196.922058 
L 161.894955 196.818421 
L 162.662797 197.021311 
L 163.430638 196.123404 
L 164.19848 196.32073 
L 164.966321 196.151953 
L 165.734162 195.694357 
L 166.502004 195.225721 
L 167.269845 194.534442 
L 168.037687 194.196898 
L 168.805528 193.312086 
L 169.573369 192.883585 
L 170.341211 191.955977 
L 171.109052 191.53676 
L 171.876894 190.66619 
L 172.644735 191.000333 
L 173.412577 190.637225 
L 174.180418 190.173734 
L 174.948259 189.791935 
L 175.716101 188.932217 
L 176.483942 188.490563 
L 177.251784 188.479236 
L 178.019625 188.145529 
L 178.787466 188.54218 
L 179.555308 188.092276 
L 180.323149 188.051308 
L 181.090991 187.394902 
L 181.858832 187.328818 
L 182.626674 187.347809 
L 183.394515 187.085821 
L 184.162356 187.044638 
L 184.930198 186.794697 
L 185.698039 187.077441 
L 186.465881 186.563157 
L 187.233722 187.067287 
L 188.001563 186.878458 
L 188.769405 186.669009 
L 189.537246 186.036504 
L 190.305088 186.591454 
L 191.072929 186.234779 
L 191.840771 186.095814 
L 192.608612 185.281347 
L 193.376453 184.617361 
L 194.144295 184.043664 
L 194.912136 182.585268 
L 195.679978 182.072792 
L 196.447819 180.602017 
L 197.21566 180.10154 
L 197.983502 179.764713 
L 198.751343 178.809371 
L 199.519185 178.615037 
L 200.287026 178.132766 
L 201.054868 177.340301 
L 201.822709 177.602546 
L 202.59055 177.516392 
L 203.358392 176.847442 
L 204.126233 176.694184 
L 204.894075 177.071245 
L 205.661916 176.459967 
L 206.429757 176.404121 
L 207.197599 176.288308 
L 207.96544 176.144503 
L 208.733282 176.391312 
L 209.501123 176.351984 
L 210.268965 175.595971 
L 211.036806 175.214888 
L 211.804647 174.782029 
L 212.572489 174.64295 
L 213.34033 174.095877 
L 214.108172 173.936944 
L 214.876013 173.802606 
L 215.643854 173.611893 
L 216.411696 173.117662 
L 217.179537 172.760224 
L 217.947379 172.705694 
L 218.71522 172.440249 
L 219.483062 172.033857 
L 220.250903 172.363909 
L 221.018744 172.48144 
L 221.786586 171.945907 
L 222.554427 172.015795 
L 223.322269 171.660504 
L 224.09011 171.806771 
L 224.857951 171.898402 
L 225.625793 172.220353 
L 226.393634 172.055704 
L 227.161476 172.476049 
L 227.929317 172.424615 
L 228.697159 172.559998 
L 229.465 172.318505 
L 230.232841 171.989143 
L 231.000683 171.234933 
L 231.768524 171.284397 
L 232.536366 171.033886 
L 233.304207 171.107727 
L 234.072049 171.220168 
L 234.83989 170.920934 
L 235.607731 171.448658 
L 236.375573 171.233244 
L 237.143414 171.24855 
L 237.911256 171.055381 
L 238.679097 171.000958 
L 239.446938 170.947477 
L 240.21478 170.822742 
L 240.982621 170.511188 
L 241.750463 170.207007 
L 242.518304 169.741443 
L 243.286146 169.942303 
L 244.053987 169.591692 
L 244.821828 169.627855 
L 245.58967 169.906827 
L 246.357511 169.971587 
L 247.125353 169.721537 
L 247.893194 170.19266 
L 248.661035 170.036793 
L 249.428877 170.730412 
L 250.196718 171.107307 
L 250.96456 170.540994 
L 251.732401 170.572096 
L 252.500243 170.466187 
L 253.268084 170.136998 
L 254.035925 169.889119 
L 254.803767 169.35989 
L 255.571608 169.782537 
L 256.33945 169.638974 
L 257.107291 169.772106 
L 257.875132 169.658816 
L 258.642974 169.598325 
L 259.410815 168.955042 
L 260.178657 168.615406 
L 260.946498 168.471485 
L 261.71434 168.27729 
L 262.482181 168.158327 
L 263.250022 168.134195 
L 264.017864 168.017467 
L 264.785705 168.144574 
L 265.553547 167.895297 
L 266.321388 167.450829 
L 267.089229 167.74328 
L 267.857071 167.533398 
L 268.624912 168.077826 
L 269.392754 168.366779 
L 270.160595 168.330769 
L 270.928437 168.57649 
L 271.696278 168.373158 
L 272.464119 168.855406 
L 273.231961 168.793467 
L 273.999802 169.236015 
L 274.767644 169.414723 
L 275.535485 169.711535 
L 276.303326 169.531143 
L 277.071168 169.973091 
L 277.839009 169.92168 
L 278.606851 170.695565 
L 279.374692 171.017752 
L 280.142534 170.863293 
L 280.910375 171.267897 
L 281.678216 171.420435 
L 282.446058 171.832094 
L 283.213899 171.466411 
L 283.981741 171.473558 
L 284.749582 171.297763 
L 285.517423 171.723141 
L 286.285265 171.82407 
L 287.053106 171.713198 
L 287.820948 171.155483 
L 288.588789 170.462681 
L 289.356631 170.827241 
L 290.124472 170.345878 
L 290.892313 170.043257 
L 291.660155 169.843946 
L 292.427996 169.431765 
L 293.195838 169.464898 
L 293.963679 168.796125 
L 294.73152 168.47655 
L 295.499362 168.211542 
L 296.267203 168.02593 
L 297.035045 168.01749 
L 297.802886 167.889715 
L 298.570728 167.793534 
L 299.338569 167.604128 
L 300.10641 167.310319 
L 300.874252 166.30715 
L 301.642093 166.892449 
L 302.409935 166.746426 
L 303.177776 166.128216 
L 303.945617 165.947528 
L 304.713459 165.865847 
L 305.4813 165.661784 
L 306.249142 165.145045 
L 307.016983 165.200353 
L 307.784825 164.880223 
L 308.552666 164.464331 
L 309.320507 164.201019 
L 310.088349 163.782865 
L 310.85619 163.674028 
L 311.624032 163.21679 
L 312.391873 163.054192 
L 313.159714 163.520131 
L 313.927556 163.520578 
L 314.695397 163.460564 
L 315.463239 163.317378 
L 316.23108 163.294287 
L 316.998922 163.65285 
L 317.766763 163.707503 
L 318.534604 163.293365 
L 319.302446 162.985639 
L 320.070287 162.493077 
L 320.838129 162.444054 
L 321.60597 162.149484 
L 322.373811 162.041639 
L 323.141653 162.196093 
L 323.909494 161.553574 
L 324.677336 162.090244 
L 325.445177 162.105535 
L 326.213019 161.529834 
L 326.98086 160.928568 
L 327.748701 160.889684 
L 328.516543 161.204658 
L 329.284384 161.527454 
L 330.052226 161.251016 
L 330.820067 161.138659 
L 331.587909 160.866323 
L 332.35575 161.069625 
L 333.123591 160.636782 
L 333.891433 160.524378 
L 334.659274 161.141433 
L 335.427116 160.760839 
L 336.194957 161.111119 
L 336.962798 160.905597 
L 337.73064 160.972577 
L 338.498481 160.722775 
L 339.266323 161.307953 
L 340.034164 161.237121 
L 340.802006 160.736025 
L 341.569847 160.774413 
L 342.337688 161.228892 
L 343.10553 160.725478 
L 343.873371 160.880816 
L 344.641213 160.562628 
L 345.409054 160.749361 
L 346.176895 160.383891 
L 346.944737 160.101771 
L 347.712578 159.835479 
L 348.48042 159.65422 
L 349.248261 159.747434 
L 350.016103 159.179122 
L 350.783944 159.677875 
L 351.551785 160.363082 
L 352.319627 159.924361 
L 353.087468 160.0016 
L 353.85531 159.747076 
L 354.623151 160.010778 
L 355.390992 160.314984 
L 356.158834 159.888373 
L 356.926675 159.969038 
L 357.694517 159.524737 
L 358.462358 159.497298 
L 359.2302 159.518635 
L 359.998041 159.221335 
L 360.765882 159.176906 
L 361.533724 158.476247 
L 362.301565 158.462457 
L 363.069407 158.206181 
L 363.837248 158.253784 
L 364.605089 158.059955 
L 365.372931 158.314585 
L 366.140772 157.968416 
L 366.908614 158.017377 
L 367.676455 157.39302 
L 368.444297 157.25269 
L 369.212138 156.755257 
L 369.979979 156.428264 
L 370.747821 155.841686 
L 371.515662 156.024869 
L 372.283504 155.886865 
L 373.051345 155.786236 
L 373.819186 155.491144 
L 374.587028 155.348199 
L 375.354869 155.397647 
L 376.122711 155.513313 
L 376.890552 155.033025 
L 377.658394 155.278653 
L 378.426235 155.250759 
L 379.194076 155.094768 
L 379.961918 154.920429 
L 380.729759 155.079771 
L 381.497601 154.874883 
L 382.265442 154.379416 
L 383.033283 154.798371 
L 383.801125 154.250929 
L 384.568966 153.942464 
L 385.336808 154.030714 
L 386.104649 153.51918 
L 386.872491 152.737995 
L 387.640332 152.973578 
L 388.408173 152.468632 
L 389.176015 152.429339 
L 389.943856 152.446935 
L 390.711698 152.182933 
L 391.479539 152.641743 
L 392.24738 152.182923 
L 393.015222 152.281755 
L 393.783063 151.89097 
L 394.550905 151.076237 
L 395.318746 150.913387 
L 396.086588 150.927812 
L 396.854429 151.182782 
L 397.62227 150.890917 
L 398.390112 151.034957 
L 399.157953 151.097083 
L 399.925795 151.488338 
L 400.693636 151.153719 
L 401.461477 151.234286 
L 402.229319 150.902996 
L 402.99716 150.565182 
L 403.765002 150.35275 
L 404.532843 149.846659 
L 405.300685 149.222329 
L 406.068526 149.120414 
L 406.836367 148.271499 
L 407.604209 148.05293 
L 408.37205 148.33024 
L 409.139892 148.183348 
L 409.907733 147.897422 
L 410.675574 147.821751 
L 411.443416 147.931681 
L 412.211257 147.517639 
L 412.979099 146.924207 
L 413.74694 146.938985 
L 414.514782 146.820995 
L 415.282623 146.579825 
L 416.050464 146.630313 
L 416.818306 146.243652 
L 417.586147 145.937681 
L 418.353989 146.049632 
L 419.12183 145.780629 
L 419.889671 146.388291 
L 420.657513 146.244383 
L 421.425354 146.163747 
L 421.425354 3.551104 
L 421.425354 3.551104 
L 420.657513 3.004765 
L 419.889671 3.43005 
L 419.12183 2.834646 
L 418.353989 3.665219 
L 417.586147 3.751298 
L 416.818306 3.510007 
L 416.050464 3.783093 
L 415.282623 3.251453 
L 414.514782 3.760581 
L 413.74694 4.069486 
L 412.979099 4.071327 
L 412.211257 3.878918 
L 411.443416 4.486835 
L 410.675574 3.937019 
L 409.907733 4.818627 
L 409.139892 4.597381 
L 408.37205 4.398745 
L 407.604209 5.426355 
L 406.836367 5.350084 
L 406.068526 5.48432 
L 405.300685 4.58036 
L 404.532843 5.430757 
L 403.765002 5.24807 
L 402.99716 5.294363 
L 402.229319 5.499869 
L 401.461477 5.375557 
L 400.693636 5.145656 
L 399.925795 5.121506 
L 399.157953 5.189355 
L 398.390112 4.863396 
L 397.62227 4.916883 
L 396.854429 5.284763 
L 396.086588 5.07403 
L 395.318746 5.036711 
L 394.550905 4.925605 
L 393.783063 5.145768 
L 393.015222 4.949026 
L 392.24738 5.345391 
L 391.479539 5.585126 
L 390.711698 4.737379 
L 389.943856 5.456528 
L 389.176015 5.280082 
L 388.408173 5.874662 
L 387.640332 5.279162 
L 386.872491 5.838151 
L 386.104649 5.263945 
L 385.336808 5.890796 
L 384.568966 6.211897 
L 383.801125 5.903432 
L 383.033283 5.265437 
L 382.265442 6.395883 
L 381.497601 5.525266 
L 380.729759 5.281569 
L 379.961918 5.311549 
L 379.194076 5.395934 
L 378.426235 5.938498 
L 377.658394 5.056815 
L 376.890552 4.862613 
L 376.122711 5.352539 
L 375.354869 5.002502 
L 374.587028 6.216207 
L 373.819186 6.04739 
L 373.051345 5.687617 
L 372.283504 5.535244 
L 371.515662 5.888815 
L 370.747821 6.188424 
L 369.979979 6.623806 
L 369.212138 6.102769 
L 368.444297 5.838188 
L 367.676455 5.72373 
L 366.908614 5.358097 
L 366.140772 5.238887 
L 365.372931 4.724548 
L 364.605089 4.888625 
L 363.837248 5.263989 
L 363.069407 4.587164 
L 362.301565 4.602548 
L 361.533724 4.200672 
L 360.765882 4.224441 
L 359.998041 4.05065 
L 359.2302 4.529521 
L 358.462358 4.589667 
L 357.694517 4.381122 
L 356.926675 3.923884 
L 356.158834 4.146847 
L 355.390992 4.62577 
L 354.623151 4.516018 
L 353.85531 4.314017 
L 353.087468 4.395834 
L 352.319627 4.71886 
L 351.551785 4.771715 
L 350.783944 4.706622 
L 350.016103 4.416268 
L 349.248261 4.637063 
L 348.48042 4.717341 
L 347.712578 4.367912 
L 346.944737 5.071835 
L 346.176895 4.453373 
L 345.409054 4.320755 
L 344.641213 4.507488 
L 343.873371 4.473896 
L 343.10553 4.409319 
L 342.337688 4.513906 
L 341.569847 4.489746 
L 340.802006 3.829579 
L 340.034164 4.1564 
L 339.266323 3.865652 
L 338.498481 4.17917 
L 337.73064 3.825879 
L 336.962798 3.737624 
L 336.194957 3.764954 
L 335.427116 4.102297 
L 334.659274 3.618214 
L 333.891433 4.080035 
L 333.123591 3.618354 
L 332.35575 3.948746 
L 331.587909 4.449581 
L 330.820067 3.996138 
L 330.052226 4.25893 
L 329.284384 4.668111 
L 328.516543 4.926226 
L 327.748701 4.736689 
L 326.98086 4.814229 
L 326.213019 4.833902 
L 325.445177 5.383649 
L 324.677336 5.955197 
L 323.909494 5.93561 
L 323.141653 6.483222 
L 322.373811 6.79291 
L 321.60597 7.150768 
L 320.838129 7.296029 
L 320.070287 7.363431 
L 319.302446 7.310699 
L 318.534604 7.572167 
L 317.766763 7.429689 
L 316.998922 7.820683 
L 316.23108 7.493627 
L 315.463239 7.871558 
L 314.695397 7.793053 
L 313.927556 8.237551 
L 313.159714 7.836976 
L 312.391873 8.044191 
L 311.624032 8.709509 
L 310.85619 9.235423 
L 310.088349 10.264971 
L 309.320507 11.295671 
L 308.552666 11.446317 
L 307.784825 11.961831 
L 307.016983 12.715405 
L 306.249142 13.132926 
L 305.4813 13.146571 
L 304.713459 13.434084 
L 303.945617 13.960404 
L 303.177776 14.297165 
L 302.409935 14.933765 
L 301.642093 14.839487 
L 300.874252 15.347169 
L 300.10641 15.107236 
L 299.338569 14.748745 
L 298.570728 15.400192 
L 297.802886 15.692097 
L 297.035045 15.719556 
L 296.267203 15.814606 
L 295.499362 15.409079 
L 294.73152 15.816752 
L 293.963679 15.626539 
L 293.195838 16.096152 
L 292.427996 16.362137 
L 291.660155 16.713191 
L 290.892313 16.979583 
L 290.124472 16.431174 
L 289.356631 16.700111 
L 288.588789 17.685608 
L 287.820948 18.54515 
L 287.053106 18.944713 
L 286.285265 19.441843 
L 285.517423 20.383624 
L 284.749582 21.197088 
L 283.981741 21.810401 
L 283.213899 21.377717 
L 282.446058 22.240972 
L 281.678216 22.69144 
L 280.910375 23.400235 
L 280.142534 23.623732 
L 279.374692 24.387743 
L 278.606851 24.735802 
L 277.839009 25.186282 
L 277.071168 26.493172 
L 276.303326 27.297334 
L 275.535485 27.686135 
L 274.767644 28.849671 
L 273.999802 28.627357 
L 273.231961 30.169482 
L 272.464119 30.637927 
L 271.696278 31.443579 
L 270.928437 31.291992 
L 270.160595 32.132778 
L 269.392754 32.420173 
L 268.624912 33.07134 
L 267.857071 33.240618 
L 267.089229 34.414909 
L 266.321388 34.487444 
L 265.553547 34.560425 
L 264.785705 35.643575 
L 264.017864 36.132896 
L 263.250022 36.158467 
L 262.482181 36.89757 
L 261.71434 36.933842 
L 260.946498 36.985434 
L 260.178657 37.811727 
L 259.410815 37.950731 
L 258.642974 38.006003 
L 257.875132 38.268916 
L 257.107291 38.918862 
L 256.33945 38.599227 
L 255.571608 38.714388 
L 254.803767 39.654482 
L 254.035925 39.396914 
L 253.268084 39.343078 
L 252.500243 39.557209 
L 251.732401 39.82645 
L 250.96456 39.378913 
L 250.196718 39.433537 
L 249.428877 40.819455 
L 248.661035 40.672222 
L 247.893194 41.292526 
L 247.125353 41.724841 
L 246.357511 42.250962 
L 245.58967 42.962532 
L 244.821828 43.448483 
L 244.053987 43.782179 
L 243.286146 44.362974 
L 242.518304 45.184772 
L 241.750463 46.219806 
L 240.982621 47.144563 
L 240.21478 47.64799 
L 239.446938 49.360195 
L 238.679097 49.966459 
L 237.911256 50.778762 
L 237.143414 51.672234 
L 236.375573 52.373158 
L 235.607731 53.606598 
L 234.83989 53.940279 
L 234.072049 54.494834 
L 233.304207 54.878934 
L 232.536366 55.832437 
L 231.768524 55.581926 
L 231.000683 56.329944 
L 230.232841 56.002629 
L 229.465 56.798716 
L 228.697159 57.760289 
L 227.929317 58.257886 
L 227.161476 59.525943 
L 226.393634 60.72246 
L 225.625793 61.696197 
L 224.857951 62.535595 
L 224.09011 62.691907 
L 223.322269 63.523793 
L 222.554427 64.319823 
L 221.786586 65.049457 
L 221.018744 64.90201 
L 220.250903 65.097159 
L 219.483062 65.42721 
L 218.71522 66.133331 
L 217.947379 66.902782 
L 217.179537 66.874124 
L 216.411696 67.189368 
L 215.643854 67.225521 
L 214.876013 67.461703 
L 214.108172 67.417919 
L 213.34033 68.293881 
L 212.572489 68.484171 
L 211.804647 68.978965 
L 211.036806 69.179981 
L 210.268965 68.967068 
L 209.501123 68.857864 
L 208.733282 68.896154 
L 207.96544 68.935984 
L 207.197599 69.516605 
L 206.429757 69.594836 
L 205.661916 69.642479 
L 204.894075 70.234267 
L 204.126233 70.533711 
L 203.358392 70.988455 
L 202.59055 71.212102 
L 201.822709 72.122035 
L 201.054868 72.047938 
L 200.287026 72.251561 
L 199.519185 72.933547 
L 198.751343 72.894448 
L 197.983502 73.038683 
L 197.21566 73.581517 
L 196.447819 73.663169 
L 195.679978 73.654184 
L 194.912136 73.516857 
L 194.144295 74.270551 
L 193.376453 74.369537 
L 192.608612 74.287679 
L 191.840771 74.70215 
L 191.072929 74.783101 
L 190.305088 74.542852 
L 189.537246 74.088779 
L 188.769405 74.581722 
L 188.001563 74.411082 
L 187.233722 74.157572 
L 186.465881 74.622894 
L 185.698039 74.897717 
L 184.930198 75.59442 
L 184.162356 76.094778 
L 183.394515 76.519298 
L 182.626674 76.580715 
L 181.858832 76.573833 
L 181.090991 77.296858 
L 180.323149 77.429559 
L 179.555308 77.129868 
L 178.787466 76.990433 
L 178.019625 77.594062 
L 177.251784 77.868356 
L 176.483942 78.167499 
L 175.716101 78.320909 
L 174.948259 79.052344 
L 174.180418 79.627823 
L 173.412577 79.78527 
L 172.644735 79.771439 
L 171.876894 80.830008 
L 171.109052 80.994334 
L 170.341211 81.131373 
L 169.573369 81.471513 
L 168.805528 81.39229 
L 168.037687 81.762288 
L 167.269845 82.006873 
L 166.502004 81.768361 
L 165.734162 82.127641 
L 164.966321 81.359577 
L 164.19848 81.73412 
L 163.430638 81.879701 
L 162.662797 81.395752 
L 161.894955 81.922047 
L 161.127114 82.051262 
L 160.359272 82.126448 
L 159.591431 81.992284 
L 158.82359 82.128502 
L 158.055748 82.589054 
L 157.287907 82.858798 
L 156.520065 84.096543 
L 155.752224 83.881097 
L 154.984383 84.259987 
L 154.216541 85.972536 
L 153.4487 86.253676 
L 152.680858 86.192781 
L 151.913017 86.698209 
L 151.145175 86.986636 
L 150.377334 87.831138 
L 149.609493 87.748432 
L 148.841651 87.690072 
L 148.07381 87.961937 
L 147.305968 88.469291 
L 146.538127 88.89279 
L 145.770286 89.829404 
L 145.002444 90.030519 
L 144.234603 90.581033 
L 143.466761 91.042368 
L 142.69892 91.754008 
L 141.931078 92.300384 
L 141.163237 92.731793 
L 140.395396 94.024937 
L 139.627554 94.751049 
L 138.859713 95.80109 
L 138.091871 96.29289 
L 137.32403 97.541051 
L 136.556189 97.970831 
L 135.788347 98.786249 
L 135.020506 98.787013 
L 134.252664 99.514729 
L 133.484823 100.363197 
L 132.716981 101.055631 
L 131.94914 101.857578 
L 131.181299 102.786585 
L 130.413457 102.709666 
L 129.645616 103.559548 
L 128.877774 104.235114 
L 128.109933 104.320886 
L 127.342091 104.690951 
L 126.57425 104.730066 
L 125.806409 105.136901 
L 125.038567 105.705794 
L 124.270726 105.826002 
L 123.502884 106.291624 
L 122.735043 106.97521 
L 121.967202 106.76808 
L 121.19936 107.228458 
L 120.431519 107.49205 
L 119.663677 107.670787 
L 118.895836 107.925393 
L 118.127994 108.643398 
L 117.360153 108.638553 
L 116.592312 108.784974 
L 115.82447 109.643552 
L 115.056629 109.660504 
L 114.288787 110.37953 
L 113.520946 111.514515 
L 112.753105 111.398659 
L 111.985263 112.193231 
L 111.217422 112.941536 
L 110.44958 112.874936 
L 109.681739 113.554877 
L 108.913897 113.824296 
L 108.146056 114.546576 
L 107.378215 114.297466 
L 106.610373 114.493721 
L 105.842532 114.736825 
L 105.07469 115.272332 
L 104.306849 115.243808 
L 103.539008 115.693973 
L 102.771166 115.74155 
L 102.003325 115.761811 
L 101.235483 115.761804 
L 100.467642 116.063689 
L 99.6998 115.644868 
L 98.931959 116.783139 
L 98.164118 116.734384 
L 97.396276 117.765023 
L 96.628435 117.64086 
L 95.860593 118.692499 
L 95.092752 119.45651 
L 94.324911 120.723867 
L 93.557069 121.158351 
L 92.789228 122.273095 
L 92.021386 123.578596 
L 91.253545 124.323105 
L 90.485703 125.687252 
L 89.717862 126.770437 
L 88.950021 127.288361 
L 88.182179 128.529969 
L 87.414338 129.163124 
L 86.646496 130.043881 
L 85.878655 131.376543 
L 85.110814 131.415812 
L 84.342972 132.447321 
L 83.575131 133.404683 
L 82.807289 134.359607 
L 82.039448 135.83618 
L 81.271606 136.840512 
L 80.503765 138.070299 
L 79.735924 139.21164 
L 78.968082 140.128774 
L 78.200241 140.972407 
L 77.432399 142.365635 
L 76.664558 143.495401 
L 75.896717 144.660159 
L 75.128875 146.192035 
L 74.361034 148.121188 
L 73.593192 149.789743 
L 72.825351 151.389837 
L 72.057509 152.827186 
L 71.289668 154.693386 
L 70.521827 156.546368 
L 69.753985 158.839504 
L 68.986144 159.952019 
L 68.218302 161.247034 
L 67.450461 161.603164 
L 66.68262 162.75054 
L 65.914778 163.817744 
L 65.146937 164.622404 
L 64.379095 166.125665 
L 63.611254 167.398174 
L 62.843412 168.474565 
L 62.075571 168.814202 
L 61.30773 170.329899 
L 60.539888 171.663719 
L 59.772047 173.36371 
L 59.004205 175.378514 
L 58.236364 177.239901 
L 57.468523 178.53552 
L 56.700681 180.896837 
L 55.93284 182.37241 
L 55.164998 184.172564 
L 54.397157 186.177088 
L 53.629315 187.969962 
L 52.861474 189.618612 
L 52.093633 191.164013 
L 51.325791 192.768309 
L 50.55795 194.240007 
L 49.790108 196.819221 
L 49.022267 199.507033 
L 48.254426 202.808118 
L 47.486584 206.395547 
L 46.718743 209.560836 
L 45.950901 213.080077 
L 45.18306 216.812733 
L 44.415218 221.730357 
L 43.647377 225.869002 
L 42.879536 230.057497 
L 42.111694 233.644642 
L 41.343853 237.392981 
L 40.576011 242.221936 
L 39.80817 246.991955 
L 39.040329 250.96581 
L 38.272487 253.386007 
L 37.504646 254.638207 
z
" style="fill:#ff0000;fill-opacity:0.3;"/>
   </g>
   <g id="line2d_12">
    <path clip-path="url(#p7fc63681bc)" d="M 37.504646 254.638207 
L 38.272487 254.32127 
L 39.040329 253.558034 
L 39.80817 251.83752 
L 41.343853 247.794959 
L 42.879536 244.276314 
L 44.415218 239.535198 
L 45.18306 236.753916 
L 45.950901 234.515954 
L 46.718743 231.87697 
L 47.486584 229.755434 
L 49.022267 224.936701 
L 50.55795 220.945885 
L 53.629315 215.583832 
L 54.397157 214.529532 
L 55.164998 212.996592 
L 56.700681 210.816843 
L 57.468523 209.089861 
L 61.30773 202.712317 
L 62.075571 201.619208 
L 62.843412 201.017675 
L 64.379095 199.536481 
L 65.146937 198.566266 
L 65.914778 197.848307 
L 67.450461 196.237751 
L 68.218302 196.147197 
L 68.986144 195.202855 
L 69.753985 194.568982 
L 70.521827 192.997234 
L 72.057509 191.089145 
L 72.825351 190.215952 
L 73.593192 189.058162 
L 75.896717 186.768455 
L 76.664558 186.160454 
L 78.200241 184.692196 
L 79.735924 183.430917 
L 80.503765 182.609469 
L 82.039448 181.438743 
L 82.807289 180.623762 
L 85.110814 179.226653 
L 85.878655 179.084355 
L 86.646496 178.18529 
L 88.182179 177.53848 
L 89.717862 176.303073 
L 91.253545 175.15822 
L 92.021386 174.808942 
L 92.789228 174.052175 
L 93.557069 173.573536 
L 94.324911 173.398897 
L 95.092752 172.823236 
L 95.860593 172.577449 
L 96.628435 171.975916 
L 97.396276 172.047065 
L 98.164118 171.257957 
L 98.931959 170.824594 
L 99.6998 170.087231 
L 100.467642 170.326551 
L 101.235483 169.834975 
L 102.003325 169.731486 
L 102.771166 169.466294 
L 103.539008 169.498634 
L 105.842532 168.192078 
L 106.610373 167.868673 
L 107.378215 166.96314 
L 108.146056 166.600926 
L 108.913897 165.850627 
L 109.681739 165.469009 
L 110.44958 164.893348 
L 111.217422 164.660497 
L 112.753105 163.418622 
L 113.520946 163.554452 
L 114.288787 162.597174 
L 115.056629 162.073258 
L 115.82447 162.09913 
L 117.360153 161.575214 
L 118.127994 161.478193 
L 118.895836 160.947809 
L 119.663677 160.799042 
L 121.19936 160.779638 
L 121.967202 160.410957 
L 122.735043 160.604999 
L 124.270726 159.667125 
L 125.038567 159.47955 
L 125.806409 158.871549 
L 126.57425 158.580485 
L 127.342091 158.42525 
L 129.645616 157.545589 
L 130.413457 156.969928 
L 131.181299 156.724141 
L 135.020506 153.748816 
L 137.32403 152.06711 
L 138.091871 151.14864 
L 138.859713 150.831704 
L 141.163237 148.774848 
L 141.931078 148.335018 
L 142.69892 148.102166 
L 144.234603 147.009058 
L 145.002444 146.717993 
L 145.770286 146.620972 
L 146.538127 145.890077 
L 147.305968 145.527863 
L 148.07381 145.02982 
L 148.841651 144.699947 
L 149.609493 144.868117 
L 150.377334 144.577053 
L 151.145175 143.962584 
L 151.913017 143.522753 
L 152.680858 142.92122 
L 153.4487 142.908284 
L 154.216541 142.636624 
L 154.984383 141.278323 
L 156.520065 140.883769 
L 157.287907 140.217555 
L 158.82359 139.557809 
L 159.591431 139.674235 
L 162.662797 139.208532 
L 163.430638 139.001553 
L 164.19848 139.027425 
L 164.966321 138.755765 
L 165.734162 138.910999 
L 166.502004 138.497041 
L 168.037687 137.979593 
L 168.805528 137.352188 
L 169.573369 137.177549 
L 170.341211 136.543675 
L 171.109052 136.265547 
L 171.876894 135.748099 
L 172.644735 135.385886 
L 173.412577 135.211247 
L 174.180418 134.900778 
L 174.948259 134.422139 
L 175.716101 133.626563 
L 176.483942 133.329031 
L 177.251784 133.173796 
L 178.019625 132.869796 
L 179.555308 132.611072 
L 180.323149 132.740434 
L 181.858832 131.951326 
L 182.626674 131.964262 
L 184.162356 131.569708 
L 184.930198 131.194558 
L 185.698039 130.987579 
L 186.465881 130.593025 
L 188.769405 130.625366 
L 189.537246 130.062641 
L 190.305088 130.567153 
L 191.840771 130.398982 
L 192.608612 129.784513 
L 194.144295 129.157108 
L 194.912136 128.051063 
L 195.679978 127.863488 
L 196.447819 127.132593 
L 197.21566 126.841528 
L 198.751343 125.851909 
L 199.519185 125.774292 
L 201.054868 124.69412 
L 201.822709 124.862291 
L 203.358392 123.917948 
L 204.126233 123.613948 
L 204.894075 123.652756 
L 205.661916 123.051223 
L 207.197599 122.902457 
L 207.96544 122.540243 
L 208.733282 122.643733 
L 209.501123 122.604924 
L 210.268965 122.281519 
L 211.036806 122.197434 
L 213.34033 121.194879 
L 214.108172 120.677431 
L 214.876013 120.632154 
L 216.411696 120.153515 
L 217.179537 119.817174 
L 217.947379 119.804238 
L 219.483062 118.730534 
L 221.018744 118.691725 
L 221.786586 118.497682 
L 222.554427 118.167809 
L 223.322269 117.592148 
L 224.09011 117.249339 
L 224.857951 117.216999 
L 225.625793 116.958275 
L 226.393634 116.389082 
L 227.161476 116.000996 
L 227.929317 115.34125 
L 228.697159 115.160144 
L 230.232841 113.995886 
L 231.000683 113.782439 
L 231.768524 113.433162 
L 232.536366 113.433162 
L 233.304207 112.993331 
L 234.072049 112.857501 
L 234.83989 112.430606 
L 235.607731 112.527628 
L 236.375573 111.803201 
L 237.143414 111.460392 
L 238.679097 110.483709 
L 239.446938 110.153836 
L 240.21478 109.235366 
L 240.982621 108.827876 
L 242.518304 107.463107 
L 243.286146 107.152638 
L 244.053987 106.686935 
L 245.58967 106.43468 
L 247.125353 105.723189 
L 247.893194 105.742593 
L 248.661035 105.354507 
L 249.428877 105.774934 
L 250.196718 105.270422 
L 250.96456 104.959953 
L 251.732401 105.199273 
L 256.33945 104.119101 
L 257.107291 104.345484 
L 257.875132 103.963866 
L 258.642974 103.802164 
L 260.946498 102.72846 
L 262.482181 102.527948 
L 263.250022 102.146331 
L 264.785705 101.894075 
L 265.553547 101.227861 
L 266.321388 100.969137 
L 267.089229 101.079095 
L 267.857071 100.387008 
L 268.624912 100.574583 
L 273.231961 99.481474 
L 273.999802 98.931686 
L 274.767644 99.132197 
L 275.535485 98.698835 
L 277.071168 98.233131 
L 277.839009 97.553981 
L 278.606851 97.715684 
L 279.374692 97.702747 
L 280.142534 97.243512 
L 280.910375 97.334066 
L 281.678216 97.055938 
L 282.446058 97.036533 
L 283.213899 96.422064 
L 283.981741 96.641979 
L 284.749582 96.247425 
L 285.517423 96.053382 
L 287.820948 94.850316 
L 288.588789 94.074145 
L 290.124472 93.388526 
L 290.892313 93.51142 
L 291.660155 93.278568 
L 292.427996 92.896951 
L 293.195838 92.780525 
L 293.963679 92.211332 
L 294.73152 92.146651 
L 295.499362 91.81031 
L 296.267203 91.920268 
L 297.802886 91.790906 
L 298.570728 91.596863 
L 299.338569 91.176437 
L 300.10641 91.208777 
L 300.874252 90.827159 
L 302.409935 90.840096 
L 303.177776 90.21269 
L 307.016983 88.957879 
L 308.552666 87.955324 
L 309.320507 87.748345 
L 310.088349 87.023918 
L 311.624032 85.96315 
L 312.391873 85.549192 
L 313.927556 85.879064 
L 314.695397 85.626809 
L 315.463239 85.594468 
L 316.23108 85.393957 
L 316.998922 85.736766 
L 319.302446 85.148169 
L 320.070287 84.928254 
L 320.838129 84.870041 
L 322.373811 84.417274 
L 323.141653 84.339657 
L 323.909494 83.744592 
L 324.677336 84.02272 
L 325.445177 83.744592 
L 326.213019 83.181868 
L 326.98086 82.871399 
L 327.748701 82.813186 
L 328.516543 83.065442 
L 329.284384 83.097782 
L 330.052226 82.754973 
L 330.820067 82.567398 
L 331.587909 82.657952 
L 332.35575 82.509185 
L 333.123591 82.127568 
L 334.659274 82.379824 
L 336.194957 82.438036 
L 336.962798 82.321611 
L 340.034164 82.69676 
L 340.802006 82.282802 
L 342.337688 82.871399 
L 343.10553 82.567398 
L 343.873371 82.677356 
L 344.641213 82.535058 
L 345.409054 82.535058 
L 346.176895 82.418632 
L 346.944737 82.586803 
L 347.712578 82.101695 
L 349.248261 82.192249 
L 350.016103 81.797695 
L 351.551785 82.567398 
L 352.319627 82.321611 
L 353.85531 82.030546 
L 355.390992 82.470377 
L 356.158834 82.01761 
L 357.694517 81.952929 
L 359.2302 82.024078 
L 359.998041 81.635992 
L 360.765882 81.700673 
L 361.533724 81.33846 
L 362.301565 81.532503 
L 363.069407 81.396673 
L 363.837248 81.758886 
L 364.605089 81.47429 
L 367.676455 81.558375 
L 369.979979 81.526035 
L 370.747821 81.015055 
L 371.515662 80.956842 
L 372.283504 80.711054 
L 374.587028 80.782203 
L 375.354869 80.200075 
L 376.122711 80.432926 
L 376.890552 79.947819 
L 377.658394 80.167734 
L 378.426235 80.594629 
L 379.194076 80.245351 
L 379.961918 80.115989 
L 382.265442 80.387649 
L 383.033283 80.031904 
L 384.568966 80.077181 
L 385.336808 79.960755 
L 386.104649 79.391562 
L 388.408173 79.171647 
L 389.176015 78.85471 
L 389.943856 78.951732 
L 390.711698 78.460156 
L 391.479539 79.113434 
L 392.24738 78.764157 
L 393.783063 78.518369 
L 394.550905 78.000921 
L 396.086588 78.000921 
L 396.854429 78.233773 
L 397.62227 77.9039 
L 398.390112 77.949176 
L 399.925795 78.304922 
L 400.693636 78.149688 
L 401.461477 78.304922 
L 402.229319 78.201432 
L 402.99716 77.929772 
L 404.532843 77.638708 
L 405.300685 76.901345 
L 406.068526 77.302367 
L 406.836367 76.810791 
L 407.604209 76.739642 
L 408.37205 76.364492 
L 409.907733 76.358024 
L 410.675574 75.879385 
L 411.443416 76.209258 
L 412.211257 75.698278 
L 412.979099 75.497767 
L 413.74694 75.504235 
L 414.514782 75.290788 
L 415.282623 74.915639 
L 416.050464 75.206703 
L 416.818306 74.87683 
L 418.353989 74.857426 
L 419.12183 74.307637 
L 419.889671 74.90917 
L 420.657513 74.624574 
L 421.425354 74.857426 
L 421.425354 74.857426 
" style="fill:none;stroke:#ff0000;stroke-linecap:round;"/>
   </g>
   <g id="patch_3">
    <path d="M 37.504646 258.685354 
L 37.504646 2.834646 
" style="fill:none;stroke:#000000;stroke-linecap:square;stroke-linejoin:miter;stroke-width:0.8;"/>
   </g>
   <g id="patch_4">
    <path d="M 421.425354 258.685354 
L 421.425354 2.834646 
" style="fill:none;stroke:#000000;stroke-linecap:square;stroke-linejoin:miter;stroke-width:0.8;"/>
   </g>
   <g id="patch_5">
    <path d="M 37.504646 258.685354 
L 421.425354 258.685354 
" style="fill:none;stroke:#000000;stroke-linecap:square;stroke-linejoin:miter;stroke-width:0.8;"/>
   </g>
   <g id="patch_6">
    <path d="M 37.504646 2.834646 
L 421.425354 2.834646 
" style="fill:none;stroke:#000000;stroke-linecap:square;stroke-linejoin:miter;stroke-width:0.8;"/>
   </g>
   <g id="legend_1">
    <g id="patch_7">
     <path d="M 380.311604 32.719646 
L 415.825354 32.719646 
Q 417.425354 32.719646 417.425354 31.119646 
L 417.425354 8.434646 
Q 417.425354 6.834646 415.825354 6.834646 
L 380.311604 6.834646 
Q 378.711604 6.834646 378.711604 8.434646 
L 378.711604 31.119646 
Q 378.711604 32.719646 380.311604 32.719646 
z
" style="fill:#ffffff;opacity:0.8;stroke:#000000;stroke-linejoin:miter;"/>
    </g>
    <g id="line2d_13">
     <path d="M 381.911604 13.313396 
L 397.911604 13.313396 
" style="fill:none;stroke:#0000ff;stroke-linecap:round;"/>
    </g>
    <g id="line2d_14"/>
    <g id="text_13">
     <!-- P -->
     <defs>
      <path d="M 19.671875 64.796875 
L 19.671875 37.40625 
L 32.078125 37.40625 
Q 38.96875 37.40625 42.71875 40.96875 
Q 46.484375 44.53125 46.484375 51.125 
Q 46.484375 57.671875 42.71875 61.234375 
Q 38.96875 64.796875 32.078125 64.796875 
z
M 9.8125 72.90625 
L 32.078125 72.90625 
Q 44.34375 72.90625 50.609375 67.359375 
Q 56.890625 61.8125 56.890625 51.125 
Q 56.890625 40.328125 50.609375 34.8125 
Q 44.34375 29.296875 32.078125 29.296875 
L 19.671875 29.296875 
L 19.671875 0 
L 9.8125 0 
z
" id="DejaVuSans-50"/>
     </defs>
     <g transform="translate(404.311604 16.113396)scale(0.08 -0.08)">
      <use xlink:href="#DejaVuSans-50"/>
     </g>
    </g>
    <g id="line2d_15">
     <path d="M 381.911604 25.055896 
L 397.911604 25.055896 
" style="fill:none;stroke:#ff0000;stroke-linecap:round;"/>
    </g>
    <g id="line2d_16"/>
    <g id="text_14">
     <!-- P2 -->
     <g transform="translate(404.311604 27.855896)scale(0.08 -0.08)">
      <use xlink:href="#DejaVuSans-50"/>
      <use x="60.302734" xlink:href="#DejaVuSans-32"/>
     </g>
    </g>
   </g>
  </g>
 </g>
 <defs>
  <clipPath id="p7fc63681bc">
   <rect height="255.850709" width="383.920709" x="37.504646" y="2.834646"/>
  </clipPath>
 </defs>
</svg>
