<?xml version="1.0" encoding="utf-8" standalone="no"?>
<!DOCTYPE svg PUBLIC "-//W3C//DTD SVG 1.1//EN"
  "http://www.w3.org/Graphics/SVG/1.1/DTD/svg11.dtd">
<!-- Created with matplotlib (http://matplotlib.org/) -->
<svg height="288pt" version="1.1" viewBox="0 0 576 288" width="576pt" xmlns="http://www.w3.org/2000/svg" xmlns:xlink="http://www.w3.org/1999/xlink">
 <defs>
  <style type="text/css">
*{stroke-linecap:butt;stroke-linejoin:round;stroke-miterlimit:100000;}
  </style>
 </defs>
 <g id="figure_1">
  <g id="patch_1">
   <path d="M 0 288 
L 576 288 
L 576 0 
L 0 0 
z
" style="fill:#ffffff;"/>
  </g>
  <g id="axes_1">
   <g id="patch_2">
    <path d="M 37.844646 258.165354 
L 286.402854 258.165354 
L 286.402854 2.834646 
L 37.844646 2.834646 
z
" style="fill:#ffffff;"/>
   </g>
   <g id="PolyCollection_1">
    <defs>
     <path d="M 37.844646 -32.402679 
L 37.844646 -32.402679 
L 44.058601 -32.001242 
L 50.272556 -31.997078 
L 56.486511 -32.036806 
L 62.700467 -32.088665 
L 68.914422 -32.071969 
L 75.128377 -32.194073 
L 81.342332 -32.336388 
L 87.556287 -32.549146 
L 93.770243 -32.690544 
L 99.984198 -32.871126 
L 106.198153 -33.010008 
L 112.412108 -33.18809 
L 118.626063 -33.389895 
L 124.840019 -33.603134 
L 131.053974 -33.904104 
L 137.267929 -34.187142 
L 143.481884 -34.584592 
L 149.69584 -34.954098 
L 155.909795 -35.423937 
L 162.12375 -35.96295 
L 168.337705 -36.565858 
L 174.55166 -37.151596 
L 180.765616 -37.919722 
L 186.979571 -38.678389 
L 193.193526 -39.656684 
L 199.407481 -40.590975 
L 205.621437 -41.731674 
L 211.835392 -42.912321 
L 218.049347 -44.294 
L 224.263302 -45.674259 
L 230.477257 -47.222564 
L 236.691213 -48.941824 
L 242.905168 -50.771827 
L 249.119123 -52.87029 
L 255.333078 -55.010975 
L 261.547033 -57.429049 
L 267.760989 -59.999471 
L 273.974944 -62.978351 
L 280.188899 -66.480786 
L 286.402854 -70.296235 
L 286.402854 -285.165354 
L 286.402854 -285.165354 
L 280.188899 -260.615329 
L 273.974944 -238.625407 
L 267.760989 -218.487873 
L 261.547033 -200.282902 
L 255.333078 -184.03856 
L 249.119123 -169.207623 
L 242.905168 -155.768454 
L 236.691213 -143.50406 
L 230.477257 -132.806364 
L 224.263302 -122.746129 
L 218.049347 -113.696062 
L 211.835392 -105.691063 
L 205.621437 -98.466022 
L 199.407481 -91.863585 
L 193.193526 -85.912464 
L 186.979571 -80.414177 
L 180.765616 -75.520089 
L 174.55166 -70.991901 
L 168.337705 -66.954151 
L 162.12375 -63.449232 
L 155.909795 -60.153657 
L 149.69584 -57.138161 
L 143.481884 -54.386992 
L 137.267929 -51.988367 
L 131.053974 -49.809174 
L 124.840019 -47.897527 
L 118.626063 -45.995733 
L 112.412108 -44.373207 
L 106.198153 -42.933427 
L 99.984198 -41.556142 
L 93.770243 -40.176387 
L 87.556287 -39.177578 
L 81.342332 -38.214176 
L 75.128377 -37.32106 
L 68.914422 -36.503263 
L 62.700467 -35.762382 
L 56.486511 -35.097246 
L 50.272556 -34.406625 
L 44.058601 -33.734773 
L 37.844646 -32.402679 
z
" id="mf77560107d"/>
    </defs>
    <g clip-path="url(#p175519789a)">
     <use style="fill:#009afa;fill-opacity:0.3;" x="0.0" xlink:href="#mf77560107d" y="288.0"/>
    </g>
   </g>
   <g id="line2d_1">
    <path clip-path="url(#p175519789a)" d="M 37.844646 255.597321 
L 44.058601 255.131993 
L 50.272556 254.798148 
L 56.486511 254.432974 
L 62.700467 254.074476 
L 68.914422 253.712384 
L 75.128377 253.242434 
L 81.342332 252.724718 
L 87.556287 252.136638 
L 93.770243 251.566535 
L 99.984198 250.786366 
L 106.198153 250.028282 
L 112.412108 249.219352 
L 118.626063 248.307186 
L 124.840019 247.24967 
L 131.053974 246.143361 
L 137.267929 244.912245 
L 143.481884 243.514208 
L 149.69584 241.95387 
L 155.909795 240.211203 
L 162.12375 238.293909 
L 168.337705 236.239995 
L 174.55166 233.928251 
L 180.765616 231.280095 
L 186.979571 228.453717 
L 193.193526 225.215426 
L 199.407481 221.77272 
L 205.621437 217.901152 
L 211.835392 213.698308 
L 218.049347 209.004969 
L 224.263302 203.789806 
L 230.477257 197.985536 
L 236.691213 191.777058 
L 242.905168 184.729859 
L 249.119123 176.961043 
L 255.333078 168.475232 
L 261.547033 159.144025 
L 267.760989 148.756328 
L 273.974944 137.198121 
L 280.188899 124.451942 
L 286.402854 110.269205 
" style="fill:none;stroke:#009afa;stroke-linecap:round;"/>
   </g>
   <g id="patch_3">
    <path d="M 37.844646 2.834646 
L 286.402854 2.834646 
" style="fill:none;stroke:#000000;stroke-linecap:square;stroke-linejoin:miter;"/>
   </g>
   <g id="patch_4">
    <path d="M 286.402854 258.165354 
L 286.402854 2.834646 
" style="fill:none;stroke:#000000;stroke-linecap:square;stroke-linejoin:miter;"/>
   </g>
   <g id="patch_5">
    <path d="M 37.844646 258.165354 
L 286.402854 258.165354 
" style="fill:none;stroke:#000000;stroke-linecap:square;stroke-linejoin:miter;"/>
   </g>
   <g id="patch_6">
    <path d="M 37.844646 258.165354 
L 37.844646 2.834646 
" style="fill:none;stroke:#000000;stroke-linecap:square;stroke-linejoin:miter;"/>
   </g>
   <g id="matplotlib.axis_1">
    <g id="xtick_1">
     <g id="line2d_2">
      <defs>
       <path d="M 0 0 
L 0 -4 
" id="m7a0ae8a2d5" style="stroke:#000000;stroke-width:0.5;"/>
      </defs>
      <g>
       <use style="stroke:#000000;stroke-width:0.5;" x="37.8446456693" xlink:href="#m7a0ae8a2d5" y="258.165354331"/>
      </g>
     </g>
     <g id="line2d_3">
      <defs>
       <path d="M 0 0 
L 0 4 
" id="mf820910c7f" style="stroke:#000000;stroke-width:0.5;"/>
      </defs>
      <g>
       <use style="stroke:#000000;stroke-width:0.5;" x="37.8446456693" xlink:href="#mf820910c7f" y="2.83464566929"/>
      </g>
     </g>
     <g id="text_1">
      <!-- 0 -->
      <defs>
       <path d="M 31.78125 66.40625 
Q 24.171875 66.40625 20.328125 58.90625 
Q 16.5 51.421875 16.5 36.375 
Q 16.5 21.390625 20.328125 13.890625 
Q 24.171875 6.390625 31.78125 6.390625 
Q 39.453125 6.390625 43.28125 13.890625 
Q 47.125 21.390625 47.125 36.375 
Q 47.125 51.421875 43.28125 58.90625 
Q 39.453125 66.40625 31.78125 66.40625 
M 31.78125 74.21875 
Q 44.046875 74.21875 50.515625 64.515625 
Q 56.984375 54.828125 56.984375 36.375 
Q 56.984375 17.96875 50.515625 8.265625 
Q 44.046875 -1.421875 31.78125 -1.421875 
Q 19.53125 -1.421875 13.0625 8.265625 
Q 6.59375 17.96875 6.59375 36.375 
Q 6.59375 54.828125 13.0625 64.515625 
Q 19.53125 74.21875 31.78125 74.21875 
" id="BitstreamVeraSans-Roman-30"/>
      </defs>
      <g transform="translate(35.2996456693 268.244104331)scale(0.08 -0.08)">
       <use xlink:href="#BitstreamVeraSans-Roman-30"/>
      </g>
     </g>
    </g>
    <g id="xtick_2">
     <g id="line2d_4">
      <g>
       <use style="stroke:#000000;stroke-width:0.5;" x="99.9841978346" xlink:href="#m7a0ae8a2d5" y="258.165354331"/>
      </g>
     </g>
     <g id="line2d_5">
      <g>
       <use style="stroke:#000000;stroke-width:0.5;" x="99.9841978346" xlink:href="#mf820910c7f" y="2.83464566929"/>
      </g>
     </g>
     <g id="text_2">
      <!-- 1 -->
      <defs>
       <path d="M 12.40625 8.296875 
L 28.515625 8.296875 
L 28.515625 63.921875 
L 10.984375 60.40625 
L 10.984375 69.390625 
L 28.421875 72.90625 
L 38.28125 72.90625 
L 38.28125 8.296875 
L 54.390625 8.296875 
L 54.390625 0 
L 12.40625 0 
z
" id="BitstreamVeraSans-Roman-31"/>
      </defs>
      <g transform="translate(97.4391978346 268.244104331)scale(0.08 -0.08)">
       <use xlink:href="#BitstreamVeraSans-Roman-31"/>
      </g>
     </g>
    </g>
    <g id="xtick_3">
     <g id="line2d_6">
      <g>
       <use style="stroke:#000000;stroke-width:0.5;" x="162.12375" xlink:href="#m7a0ae8a2d5" y="258.165354331"/>
      </g>
     </g>
     <g id="line2d_7">
      <g>
       <use style="stroke:#000000;stroke-width:0.5;" x="162.12375" xlink:href="#mf820910c7f" y="2.83464566929"/>
      </g>
     </g>
     <g id="text_3">
      <!-- 2 -->
      <defs>
       <path d="M 19.1875 8.296875 
L 53.609375 8.296875 
L 53.609375 0 
L 7.328125 0 
L 7.328125 8.296875 
Q 12.9375 14.109375 22.625 23.890625 
Q 32.328125 33.6875 34.8125 36.53125 
Q 39.546875 41.84375 41.421875 45.53125 
Q 43.3125 49.21875 43.3125 52.78125 
Q 43.3125 58.59375 39.234375 62.25 
Q 35.15625 65.921875 28.609375 65.921875 
Q 23.96875 65.921875 18.8125 64.3125 
Q 13.671875 62.703125 7.8125 59.421875 
L 7.8125 69.390625 
Q 13.765625 71.78125 18.9375 73 
Q 24.125 74.21875 28.421875 74.21875 
Q 39.75 74.21875 46.484375 68.546875 
Q 53.21875 62.890625 53.21875 53.421875 
Q 53.21875 48.921875 51.53125 44.890625 
Q 49.859375 40.875 45.40625 35.40625 
Q 44.1875 33.984375 37.640625 27.21875 
Q 31.109375 20.453125 19.1875 8.296875 
" id="BitstreamVeraSans-Roman-32"/>
      </defs>
      <g transform="translate(159.57875 268.244104331)scale(0.08 -0.08)">
       <use xlink:href="#BitstreamVeraSans-Roman-32"/>
      </g>
     </g>
    </g>
    <g id="xtick_4">
     <g id="line2d_8">
      <g>
       <use style="stroke:#000000;stroke-width:0.5;" x="224.263302165" xlink:href="#m7a0ae8a2d5" y="258.165354331"/>
      </g>
     </g>
     <g id="line2d_9">
      <g>
       <use style="stroke:#000000;stroke-width:0.5;" x="224.263302165" xlink:href="#mf820910c7f" y="2.83464566929"/>
      </g>
     </g>
     <g id="text_4">
      <!-- 3 -->
      <defs>
       <path d="M 40.578125 39.3125 
Q 47.65625 37.796875 51.625 33 
Q 55.609375 28.21875 55.609375 21.1875 
Q 55.609375 10.40625 48.1875 4.484375 
Q 40.765625 -1.421875 27.09375 -1.421875 
Q 22.515625 -1.421875 17.65625 -0.515625 
Q 12.796875 0.390625 7.625 2.203125 
L 7.625 11.71875 
Q 11.71875 9.328125 16.59375 8.109375 
Q 21.484375 6.890625 26.8125 6.890625 
Q 36.078125 6.890625 40.9375 10.546875 
Q 45.796875 14.203125 45.796875 21.1875 
Q 45.796875 27.640625 41.28125 31.265625 
Q 36.765625 34.90625 28.71875 34.90625 
L 20.21875 34.90625 
L 20.21875 43.015625 
L 29.109375 43.015625 
Q 36.375 43.015625 40.234375 45.921875 
Q 44.09375 48.828125 44.09375 54.296875 
Q 44.09375 59.90625 40.109375 62.90625 
Q 36.140625 65.921875 28.71875 65.921875 
Q 24.65625 65.921875 20.015625 65.03125 
Q 15.375 64.15625 9.8125 62.3125 
L 9.8125 71.09375 
Q 15.4375 72.65625 20.34375 73.4375 
Q 25.25 74.21875 29.59375 74.21875 
Q 40.828125 74.21875 47.359375 69.109375 
Q 53.90625 64.015625 53.90625 55.328125 
Q 53.90625 49.265625 50.4375 45.09375 
Q 46.96875 40.921875 40.578125 39.3125 
" id="BitstreamVeraSans-Roman-33"/>
      </defs>
      <g transform="translate(221.718302165 268.244104331)scale(0.08 -0.08)">
       <use xlink:href="#BitstreamVeraSans-Roman-33"/>
      </g>
     </g>
    </g>
    <g id="xtick_5">
     <g id="line2d_10">
      <g>
       <use style="stroke:#000000;stroke-width:0.5;" x="286.402854331" xlink:href="#m7a0ae8a2d5" y="258.165354331"/>
      </g>
     </g>
     <g id="line2d_11">
      <g>
       <use style="stroke:#000000;stroke-width:0.5;" x="286.402854331" xlink:href="#mf820910c7f" y="2.83464566929"/>
      </g>
     </g>
     <g id="text_5">
      <!-- 4 -->
      <defs>
       <path d="M 37.796875 64.3125 
L 12.890625 25.390625 
L 37.796875 25.390625 
z
M 35.203125 72.90625 
L 47.609375 72.90625 
L 47.609375 25.390625 
L 58.015625 25.390625 
L 58.015625 17.1875 
L 47.609375 17.1875 
L 47.609375 0 
L 37.796875 0 
L 37.796875 17.1875 
L 4.890625 17.1875 
L 4.890625 26.703125 
z
" id="BitstreamVeraSans-Roman-34"/>
      </defs>
      <g transform="translate(283.857854331 268.244104331)scale(0.08 -0.08)">
       <use xlink:href="#BitstreamVeraSans-Roman-34"/>
      </g>
     </g>
    </g>
    <g id="text_6">
     <!-- time -->
     <defs>
      <path d="M 56.203125 29.59375 
L 56.203125 25.203125 
L 14.890625 25.203125 
Q 15.484375 15.921875 20.484375 11.0625 
Q 25.484375 6.203125 34.421875 6.203125 
Q 39.59375 6.203125 44.453125 7.46875 
Q 49.3125 8.734375 54.109375 11.28125 
L 54.109375 2.78125 
Q 49.265625 0.734375 44.1875 -0.34375 
Q 39.109375 -1.421875 33.890625 -1.421875 
Q 20.796875 -1.421875 13.15625 6.1875 
Q 5.515625 13.8125 5.515625 26.8125 
Q 5.515625 40.234375 12.765625 48.109375 
Q 20.015625 56 32.328125 56 
Q 43.359375 56 49.78125 48.890625 
Q 56.203125 41.796875 56.203125 29.59375 
M 47.21875 32.234375 
Q 47.125 39.59375 43.09375 43.984375 
Q 39.0625 48.390625 32.421875 48.390625 
Q 24.90625 48.390625 20.390625 44.140625 
Q 15.875 39.890625 15.1875 32.171875 
z
" id="BitstreamVeraSans-Roman-65"/>
      <path d="M 52 44.1875 
Q 55.375 50.25 60.0625 53.125 
Q 64.75 56 71.09375 56 
Q 79.640625 56 84.28125 50.015625 
Q 88.921875 44.046875 88.921875 33.015625 
L 88.921875 0 
L 79.890625 0 
L 79.890625 32.71875 
Q 79.890625 40.578125 77.09375 44.375 
Q 74.3125 48.1875 68.609375 48.1875 
Q 61.625 48.1875 57.5625 43.546875 
Q 53.515625 38.921875 53.515625 30.90625 
L 53.515625 0 
L 44.484375 0 
L 44.484375 32.71875 
Q 44.484375 40.625 41.703125 44.40625 
Q 38.921875 48.1875 33.109375 48.1875 
Q 26.21875 48.1875 22.15625 43.53125 
Q 18.109375 38.875 18.109375 30.90625 
L 18.109375 0 
L 9.078125 0 
L 9.078125 54.6875 
L 18.109375 54.6875 
L 18.109375 46.1875 
Q 21.1875 51.21875 25.484375 53.609375 
Q 29.78125 56 35.6875 56 
Q 41.65625 56 45.828125 52.96875 
Q 50 49.953125 52 44.1875 
" id="BitstreamVeraSans-Roman-6d"/>
      <path d="M 18.3125 70.21875 
L 18.3125 54.6875 
L 36.8125 54.6875 
L 36.8125 47.703125 
L 18.3125 47.703125 
L 18.3125 18.015625 
Q 18.3125 11.328125 20.140625 9.421875 
Q 21.96875 7.515625 27.59375 7.515625 
L 36.8125 7.515625 
L 36.8125 0 
L 27.59375 0 
Q 17.1875 0 13.234375 3.875 
Q 9.28125 7.765625 9.28125 18.015625 
L 9.28125 47.703125 
L 2.6875 47.703125 
L 2.6875 54.6875 
L 9.28125 54.6875 
L 9.28125 70.21875 
z
" id="BitstreamVeraSans-Roman-74"/>
      <path d="M 9.421875 54.6875 
L 18.40625 54.6875 
L 18.40625 0 
L 9.421875 0 
z
M 9.421875 75.984375 
L 18.40625 75.984375 
L 18.40625 64.59375 
L 9.421875 64.59375 
z
" id="BitstreamVeraSans-Roman-69"/>
     </defs>
     <g transform="translate(149.698046875 283.266135581)scale(0.11 -0.11)">
      <use xlink:href="#BitstreamVeraSans-Roman-74"/>
      <use x="39.208984375" xlink:href="#BitstreamVeraSans-Roman-69"/>
      <use x="66.9921875" xlink:href="#BitstreamVeraSans-Roman-6d"/>
      <use x="164.404296875" xlink:href="#BitstreamVeraSans-Roman-65"/>
     </g>
    </g>
   </g>
   <g id="matplotlib.axis_2">
    <g id="ytick_1">
     <g id="line2d_12">
      <defs>
       <path d="M 0 0 
L 4 0 
" id="m3bc244c7a8" style="stroke:#000000;stroke-width:0.5;"/>
      </defs>
      <g>
       <use style="stroke:#000000;stroke-width:0.5;" x="37.8446456693" xlink:href="#m3bc244c7a8" y="258.165354331"/>
      </g>
     </g>
     <g id="line2d_13">
      <defs>
       <path d="M 0 0 
L -4 0 
" id="m156271e636" style="stroke:#000000;stroke-width:0.5;"/>
      </defs>
      <g>
       <use style="stroke:#000000;stroke-width:0.5;" x="286.402854331" xlink:href="#m156271e636" y="258.165354331"/>
      </g>
     </g>
     <g id="text_7">
      <!-- 0 -->
      <g transform="translate(28.7546456693 260.372854331)scale(0.08 -0.08)">
       <use xlink:href="#BitstreamVeraSans-Roman-30"/>
      </g>
     </g>
    </g>
    <g id="ytick_2">
     <g id="line2d_14">
      <g>
       <use style="stroke:#000000;stroke-width:0.5;" x="37.8446456693" xlink:href="#m3bc244c7a8" y="206.804677976"/>
      </g>
     </g>
     <g id="line2d_15">
      <g>
       <use style="stroke:#000000;stroke-width:0.5;" x="286.402854331" xlink:href="#m156271e636" y="206.804677976"/>
      </g>
     </g>
     <g id="text_8">
      <!-- 100 -->
      <g transform="translate(18.5746456693 209.012177976)scale(0.08 -0.08)">
       <use xlink:href="#BitstreamVeraSans-Roman-31"/>
       <use x="63.623046875" xlink:href="#BitstreamVeraSans-Roman-30"/>
       <use x="127.24609375" xlink:href="#BitstreamVeraSans-Roman-30"/>
      </g>
     </g>
    </g>
    <g id="ytick_3">
     <g id="line2d_16">
      <g>
       <use style="stroke:#000000;stroke-width:0.5;" x="37.8446456693" xlink:href="#m3bc244c7a8" y="155.444001621"/>
      </g>
     </g>
     <g id="line2d_17">
      <g>
       <use style="stroke:#000000;stroke-width:0.5;" x="286.402854331" xlink:href="#m156271e636" y="155.444001621"/>
      </g>
     </g>
     <g id="text_9">
      <!-- 200 -->
      <g transform="translate(18.5746456693 157.651501621)scale(0.08 -0.08)">
       <use xlink:href="#BitstreamVeraSans-Roman-32"/>
       <use x="63.623046875" xlink:href="#BitstreamVeraSans-Roman-30"/>
       <use x="127.24609375" xlink:href="#BitstreamVeraSans-Roman-30"/>
      </g>
     </g>
    </g>
    <g id="ytick_4">
     <g id="line2d_18">
      <g>
       <use style="stroke:#000000;stroke-width:0.5;" x="37.8446456693" xlink:href="#m3bc244c7a8" y="104.083325267"/>
      </g>
     </g>
     <g id="line2d_19">
      <g>
       <use style="stroke:#000000;stroke-width:0.5;" x="286.402854331" xlink:href="#m156271e636" y="104.083325267"/>
      </g>
     </g>
     <g id="text_10">
      <!-- 300 -->
      <g transform="translate(18.5746456693 106.290825267)scale(0.08 -0.08)">
       <use xlink:href="#BitstreamVeraSans-Roman-33"/>
       <use x="63.623046875" xlink:href="#BitstreamVeraSans-Roman-30"/>
       <use x="127.24609375" xlink:href="#BitstreamVeraSans-Roman-30"/>
      </g>
     </g>
    </g>
    <g id="ytick_5">
     <g id="line2d_20">
      <g>
       <use style="stroke:#000000;stroke-width:0.5;" x="37.8446456693" xlink:href="#m3bc244c7a8" y="52.7226489118"/>
      </g>
     </g>
     <g id="line2d_21">
      <g>
       <use style="stroke:#000000;stroke-width:0.5;" x="286.402854331" xlink:href="#m156271e636" y="52.7226489118"/>
      </g>
     </g>
     <g id="text_11">
      <!-- 400 -->
      <g transform="translate(18.5746456693 54.9301489118)scale(0.08 -0.08)">
       <use xlink:href="#BitstreamVeraSans-Roman-34"/>
       <use x="63.623046875" xlink:href="#BitstreamVeraSans-Roman-30"/>
       <use x="127.24609375" xlink:href="#BitstreamVeraSans-Roman-30"/>
      </g>
     </g>
    </g>
    <g id="text_12">
     <!-- population mean -->
     <defs>
      <path id="BitstreamVeraSans-Roman-20"/>
      <path d="M 54.890625 33.015625 
L 54.890625 0 
L 45.90625 0 
L 45.90625 32.71875 
Q 45.90625 40.484375 42.875 44.328125 
Q 39.84375 48.1875 33.796875 48.1875 
Q 26.515625 48.1875 22.3125 43.546875 
Q 18.109375 38.921875 18.109375 30.90625 
L 18.109375 0 
L 9.078125 0 
L 9.078125 54.6875 
L 18.109375 54.6875 
L 18.109375 46.1875 
Q 21.34375 51.125 25.703125 53.5625 
Q 30.078125 56 35.796875 56 
Q 45.21875 56 50.046875 50.171875 
Q 54.890625 44.34375 54.890625 33.015625 
" id="BitstreamVeraSans-Roman-6e"/>
      <path d="M 30.609375 48.390625 
Q 23.390625 48.390625 19.1875 42.75 
Q 14.984375 37.109375 14.984375 27.296875 
Q 14.984375 17.484375 19.15625 11.84375 
Q 23.34375 6.203125 30.609375 6.203125 
Q 37.796875 6.203125 41.984375 11.859375 
Q 46.1875 17.53125 46.1875 27.296875 
Q 46.1875 37.015625 41.984375 42.703125 
Q 37.796875 48.390625 30.609375 48.390625 
M 30.609375 56 
Q 42.328125 56 49.015625 48.375 
Q 55.71875 40.765625 55.71875 27.296875 
Q 55.71875 13.875 49.015625 6.21875 
Q 42.328125 -1.421875 30.609375 -1.421875 
Q 18.84375 -1.421875 12.171875 6.21875 
Q 5.515625 13.875 5.515625 27.296875 
Q 5.515625 40.765625 12.171875 48.375 
Q 18.84375 56 30.609375 56 
" id="BitstreamVeraSans-Roman-6f"/>
      <path d="M 9.421875 75.984375 
L 18.40625 75.984375 
L 18.40625 0 
L 9.421875 0 
z
" id="BitstreamVeraSans-Roman-6c"/>
      <path d="M 8.5 21.578125 
L 8.5 54.6875 
L 17.484375 54.6875 
L 17.484375 21.921875 
Q 17.484375 14.15625 20.5 10.265625 
Q 23.53125 6.390625 29.59375 6.390625 
Q 36.859375 6.390625 41.078125 11.03125 
Q 45.3125 15.671875 45.3125 23.6875 
L 45.3125 54.6875 
L 54.296875 54.6875 
L 54.296875 0 
L 45.3125 0 
L 45.3125 8.40625 
Q 42.046875 3.421875 37.71875 1 
Q 33.40625 -1.421875 27.6875 -1.421875 
Q 18.265625 -1.421875 13.375 4.4375 
Q 8.5 10.296875 8.5 21.578125 
" id="BitstreamVeraSans-Roman-75"/>
      <path d="M 34.28125 27.484375 
Q 23.390625 27.484375 19.1875 25 
Q 14.984375 22.515625 14.984375 16.5 
Q 14.984375 11.71875 18.140625 8.90625 
Q 21.296875 6.109375 26.703125 6.109375 
Q 34.1875 6.109375 38.703125 11.40625 
Q 43.21875 16.703125 43.21875 25.484375 
L 43.21875 27.484375 
z
M 52.203125 31.203125 
L 52.203125 0 
L 43.21875 0 
L 43.21875 8.296875 
Q 40.140625 3.328125 35.546875 0.953125 
Q 30.953125 -1.421875 24.3125 -1.421875 
Q 15.921875 -1.421875 10.953125 3.296875 
Q 6 8.015625 6 15.921875 
Q 6 25.140625 12.171875 29.828125 
Q 18.359375 34.515625 30.609375 34.515625 
L 43.21875 34.515625 
L 43.21875 35.40625 
Q 43.21875 41.609375 39.140625 45 
Q 35.0625 48.390625 27.6875 48.390625 
Q 23 48.390625 18.546875 47.265625 
Q 14.109375 46.140625 10.015625 43.890625 
L 10.015625 52.203125 
Q 14.9375 54.109375 19.578125 55.046875 
Q 24.21875 56 28.609375 56 
Q 40.484375 56 46.34375 49.84375 
Q 52.203125 43.703125 52.203125 31.203125 
" id="BitstreamVeraSans-Roman-61"/>
      <path d="M 18.109375 8.203125 
L 18.109375 -20.796875 
L 9.078125 -20.796875 
L 9.078125 54.6875 
L 18.109375 54.6875 
L 18.109375 46.390625 
Q 20.953125 51.265625 25.265625 53.625 
Q 29.59375 56 35.59375 56 
Q 45.5625 56 51.78125 48.09375 
Q 58.015625 40.1875 58.015625 27.296875 
Q 58.015625 14.40625 51.78125 6.484375 
Q 45.5625 -1.421875 35.59375 -1.421875 
Q 29.59375 -1.421875 25.265625 0.953125 
Q 20.953125 3.328125 18.109375 8.203125 
M 48.6875 27.296875 
Q 48.6875 37.203125 44.609375 42.84375 
Q 40.53125 48.484375 33.40625 48.484375 
Q 26.265625 48.484375 22.1875 42.84375 
Q 18.109375 37.203125 18.109375 27.296875 
Q 18.109375 17.390625 22.1875 11.75 
Q 26.265625 6.109375 33.40625 6.109375 
Q 40.53125 6.109375 44.609375 11.75 
Q 48.6875 17.390625 48.6875 27.296875 
" id="BitstreamVeraSans-Roman-70"/>
     </defs>
     <g transform="translate(11.2869894193 177.113359375)rotate(-90.0)scale(0.11 -0.11)">
      <use xlink:href="#BitstreamVeraSans-Roman-70"/>
      <use x="63.4765625" xlink:href="#BitstreamVeraSans-Roman-6f"/>
      <use x="124.658203125" xlink:href="#BitstreamVeraSans-Roman-70"/>
      <use x="188.134765625" xlink:href="#BitstreamVeraSans-Roman-75"/>
      <use x="251.513671875" xlink:href="#BitstreamVeraSans-Roman-6c"/>
      <use x="279.296875" xlink:href="#BitstreamVeraSans-Roman-61"/>
      <use x="340.576171875" xlink:href="#BitstreamVeraSans-Roman-74"/>
      <use x="379.78515625" xlink:href="#BitstreamVeraSans-Roman-69"/>
      <use x="407.568359375" xlink:href="#BitstreamVeraSans-Roman-6f"/>
      <use x="468.75" xlink:href="#BitstreamVeraSans-Roman-6e"/>
      <use x="532.12890625" xlink:href="#BitstreamVeraSans-Roman-20"/>
      <use x="563.916015625" xlink:href="#BitstreamVeraSans-Roman-6d"/>
      <use x="661.328125" xlink:href="#BitstreamVeraSans-Roman-65"/>
      <use x="722.8515625" xlink:href="#BitstreamVeraSans-Roman-61"/>
      <use x="784.130859375" xlink:href="#BitstreamVeraSans-Roman-6e"/>
     </g>
    </g>
   </g>
   <g id="legend_1">
    <g id="patch_7">
     <path d="M 248.122854 20.977146 
L 282.402854 20.977146 
L 282.402854 6.834646 
L 248.122854 6.834646 
z
" style="fill:#ffffff;stroke:#000000;stroke-linejoin:miter;"/>
    </g>
    <g id="line2d_22">
     <path d="M 253.722854 13.313396 
L 264.922854 13.313396 
" style="fill:none;stroke:#009afa;stroke-linecap:round;"/>
    </g>
    <g id="line2d_23"/>
    <g id="text_13">
     <!-- X -->
     <defs>
      <path d="M 6.296875 72.90625 
L 16.890625 72.90625 
L 35.015625 45.796875 
L 53.21875 72.90625 
L 63.8125 72.90625 
L 40.375 37.890625 
L 65.375 0 
L 54.78125 0 
L 34.28125 31 
L 13.625 0 
L 2.984375 0 
L 29 38.921875 
z
" id="BitstreamVeraSans-Roman-58"/>
     </defs>
     <g transform="translate(273.722854331 16.1133956693)scale(0.08 -0.08)">
      <use xlink:href="#BitstreamVeraSans-Roman-58"/>
     </g>
    </g>
   </g>
  </g>
  <g id="axes_2">
   <g id="patch_8">
    <path d="M 324.607146 258.165354 
L 573.165354 258.165354 
L 573.165354 2.834646 
L 324.607146 2.834646 
z
" style="fill:#ffffff;"/>
   </g>
   <g id="patch_9">
    <path clip-path="url(#pcf242ed77d)" d="M 331.641812 75.402321 
L 331.641812 258.165354 
L 339.458108 258.165354 
L 339.458108 75.402321 
L 331.641812 75.402321 
" style="fill:#009afa;stroke:#000000;stroke-linejoin:miter;"/>
   </g>
   <g id="patch_10">
    <path clip-path="url(#pcf242ed77d)" d="M 339.458108 94.216162 
L 339.458108 258.165354 
L 347.274404 258.165354 
L 347.274404 94.216162 
L 339.458108 94.216162 
" style="fill:#009afa;stroke:#000000;stroke-linejoin:miter;"/>
   </g>
   <g id="patch_11">
    <path clip-path="url(#pcf242ed77d)" d="M 347.274404 48.525404 
L 347.274404 258.165354 
L 355.0907 258.165354 
L 355.0907 48.525404 
L 347.274404 48.525404 
" style="fill:#009afa;stroke:#000000;stroke-linejoin:miter;"/>
   </g>
   <g id="patch_12">
    <path clip-path="url(#pcf242ed77d)" d="M 355.0907 18.960796 
L 355.0907 258.165354 
L 362.906995 258.165354 
L 362.906995 18.960796 
L 355.0907 18.960796 
" style="fill:#009afa;stroke:#000000;stroke-linejoin:miter;"/>
   </g>
   <g id="patch_13">
    <path clip-path="url(#pcf242ed77d)" d="M 362.906995 2.834646 
L 362.906995 258.165354 
L 370.723291 258.165354 
L 370.723291 2.834646 
L 362.906995 2.834646 
" style="fill:#009afa;stroke:#000000;stroke-linejoin:miter;"/>
   </g>
   <g id="patch_14">
    <path clip-path="url(#pcf242ed77d)" d="M 370.723291 27.023871 
L 370.723291 258.165354 
L 378.539587 258.165354 
L 378.539587 27.023871 
L 370.723291 27.023871 
" style="fill:#009afa;stroke:#000000;stroke-linejoin:miter;"/>
   </g>
   <g id="patch_15">
    <path clip-path="url(#pcf242ed77d)" d="M 378.539587 43.150021 
L 378.539587 258.165354 
L 386.355883 258.165354 
L 386.355883 43.150021 
L 378.539587 43.150021 
" style="fill:#009afa;stroke:#000000;stroke-linejoin:miter;"/>
   </g>
   <g id="patch_16">
    <path clip-path="url(#pcf242ed77d)" d="M 386.355883 86.153087 
L 386.355883 258.165354 
L 394.172179 258.165354 
L 394.172179 86.153087 
L 386.355883 86.153087 
" style="fill:#009afa;stroke:#000000;stroke-linejoin:miter;"/>
   </g>
   <g id="patch_17">
    <path clip-path="url(#pcf242ed77d)" d="M 394.172179 91.528471 
L 394.172179 258.165354 
L 401.988475 258.165354 
L 401.988475 91.528471 
L 394.172179 91.528471 
" style="fill:#009afa;stroke:#000000;stroke-linejoin:miter;"/>
   </g>
   <g id="patch_18">
    <path clip-path="url(#pcf242ed77d)" d="M 401.988475 99.591546 
L 401.988475 258.165354 
L 409.804771 258.165354 
L 409.804771 99.591546 
L 401.988475 99.591546 
" style="fill:#009afa;stroke:#000000;stroke-linejoin:miter;"/>
   </g>
   <g id="patch_19">
    <path clip-path="url(#pcf242ed77d)" d="M 409.804771 123.780771 
L 409.804771 258.165354 
L 417.621067 258.165354 
L 417.621067 123.780771 
L 409.804771 123.780771 
" style="fill:#009afa;stroke:#000000;stroke-linejoin:miter;"/>
   </g>
   <g id="patch_20">
    <path clip-path="url(#pcf242ed77d)" d="M 417.621067 174.846913 
L 417.621067 258.165354 
L 425.437362 258.165354 
L 425.437362 174.846913 
L 417.621067 174.846913 
" style="fill:#009afa;stroke:#000000;stroke-linejoin:miter;"/>
   </g>
   <g id="patch_21">
    <path clip-path="url(#pcf242ed77d)" d="M 425.437362 166.783838 
L 425.437362 258.165354 
L 433.253658 258.165354 
L 433.253658 166.783838 
L 425.437362 166.783838 
" style="fill:#009afa;stroke:#000000;stroke-linejoin:miter;"/>
   </g>
   <g id="patch_22">
    <path clip-path="url(#pcf242ed77d)" d="M 433.253658 201.723829 
L 433.253658 258.165354 
L 441.069954 258.165354 
L 441.069954 201.723829 
L 433.253658 201.723829 
" style="fill:#009afa;stroke:#000000;stroke-linejoin:miter;"/>
   </g>
   <g id="patch_23">
    <path clip-path="url(#pcf242ed77d)" d="M 441.069954 196.348446 
L 441.069954 258.165354 
L 448.88625 258.165354 
L 448.88625 196.348446 
L 441.069954 196.348446 
" style="fill:#009afa;stroke:#000000;stroke-linejoin:miter;"/>
   </g>
   <g id="patch_24">
    <path clip-path="url(#pcf242ed77d)" d="M 448.88625 215.162288 
L 448.88625 258.165354 
L 456.702546 258.165354 
L 456.702546 215.162288 
L 448.88625 215.162288 
" style="fill:#009afa;stroke:#000000;stroke-linejoin:miter;"/>
   </g>
   <g id="patch_25">
    <path clip-path="url(#pcf242ed77d)" d="M 456.702546 223.225363 
L 456.702546 258.165354 
L 464.518842 258.165354 
L 464.518842 223.225363 
L 456.702546 223.225363 
" style="fill:#009afa;stroke:#000000;stroke-linejoin:miter;"/>
   </g>
   <g id="patch_26">
    <path clip-path="url(#pcf242ed77d)" d="M 464.518842 212.474596 
L 464.518842 258.165354 
L 472.335138 258.165354 
L 472.335138 212.474596 
L 464.518842 212.474596 
" style="fill:#009afa;stroke:#000000;stroke-linejoin:miter;"/>
   </g>
   <g id="patch_27">
    <path clip-path="url(#pcf242ed77d)" d="M 472.335138 220.537671 
L 472.335138 258.165354 
L 480.151433 258.165354 
L 480.151433 220.537671 
L 472.335138 220.537671 
" style="fill:#009afa;stroke:#000000;stroke-linejoin:miter;"/>
   </g>
   <g id="patch_28">
    <path clip-path="url(#pcf242ed77d)" d="M 480.151433 228.600746 
L 480.151433 258.165354 
L 487.967729 258.165354 
L 487.967729 228.600746 
L 480.151433 228.600746 
" style="fill:#009afa;stroke:#000000;stroke-linejoin:miter;"/>
   </g>
   <g id="patch_29">
    <path clip-path="url(#pcf242ed77d)" d="M 487.967729 252.789971 
L 487.967729 258.165354 
L 495.784025 258.165354 
L 495.784025 252.789971 
L 487.967729 252.789971 
" style="fill:#009afa;stroke:#000000;stroke-linejoin:miter;"/>
   </g>
   <g id="patch_30">
    <path clip-path="url(#pcf242ed77d)" d="M 495.784025 236.663821 
L 495.784025 258.165354 
L 503.600321 258.165354 
L 503.600321 236.663821 
L 495.784025 236.663821 
" style="fill:#009afa;stroke:#000000;stroke-linejoin:miter;"/>
   </g>
   <g id="patch_31">
    <path clip-path="url(#pcf242ed77d)" d="M 503.600321 250.102279 
L 503.600321 258.165354 
L 511.416617 258.165354 
L 511.416617 250.102279 
L 503.600321 250.102279 
" style="fill:#009afa;stroke:#000000;stroke-linejoin:miter;"/>
   </g>
   <g id="patch_32">
    <path clip-path="url(#pcf242ed77d)" d="M 511.416617 250.102279 
L 511.416617 258.165354 
L 519.232913 258.165354 
L 519.232913 250.102279 
L 511.416617 250.102279 
" style="fill:#009afa;stroke:#000000;stroke-linejoin:miter;"/>
   </g>
   <g id="patch_33">
    <path clip-path="url(#pcf242ed77d)" d="M 519.232913 252.789971 
L 519.232913 258.165354 
L 527.049209 258.165354 
L 527.049209 252.789971 
L 519.232913 252.789971 
" style="fill:#009afa;stroke:#000000;stroke-linejoin:miter;"/>
   </g>
   <g id="patch_34">
    <path clip-path="url(#pcf242ed77d)" d="M 527.049209 252.789971 
L 527.049209 258.165354 
L 534.865505 258.165354 
L 534.865505 252.789971 
L 527.049209 252.789971 
" style="fill:#009afa;stroke:#000000;stroke-linejoin:miter;"/>
   </g>
   <g id="patch_35">
    <path clip-path="url(#pcf242ed77d)" d="M 534.865505 247.414588 
L 534.865505 258.165354 
L 542.6818 258.165354 
L 542.6818 247.414588 
L 534.865505 247.414588 
" style="fill:#009afa;stroke:#000000;stroke-linejoin:miter;"/>
   </g>
   <g id="patch_36">
    <path clip-path="url(#pcf242ed77d)" d="M 542.6818 255.477663 
L 542.6818 258.165354 
L 550.498096 258.165354 
L 550.498096 255.477663 
L 542.6818 255.477663 
" style="fill:#009afa;stroke:#000000;stroke-linejoin:miter;"/>
   </g>
   <g id="patch_37">
    <path clip-path="url(#pcf242ed77d)" d="M 550.498096 255.477663 
L 550.498096 258.165354 
L 558.314392 258.165354 
L 558.314392 255.477663 
L 550.498096 255.477663 
" style="fill:#009afa;stroke:#000000;stroke-linejoin:miter;"/>
   </g>
   <g id="patch_38">
    <path clip-path="url(#pcf242ed77d)" d="M 558.314392 252.789971 
L 558.314392 258.165354 
L 566.130688 258.165354 
L 566.130688 252.789971 
L 558.314392 252.789971 
" style="fill:#009afa;stroke:#000000;stroke-linejoin:miter;"/>
   </g>
   <g id="patch_39">
    <path d="M 324.607146 2.834646 
L 573.165354 2.834646 
" style="fill:none;stroke:#000000;stroke-linecap:square;stroke-linejoin:miter;"/>
   </g>
   <g id="patch_40">
    <path d="M 573.165354 258.165354 
L 573.165354 2.834646 
" style="fill:none;stroke:#000000;stroke-linecap:square;stroke-linejoin:miter;"/>
   </g>
   <g id="patch_41">
    <path d="M 324.607146 258.165354 
L 573.165354 258.165354 
" style="fill:none;stroke:#000000;stroke-linecap:square;stroke-linejoin:miter;"/>
   </g>
   <g id="patch_42">
    <path d="M 324.607146 258.165354 
L 324.607146 2.834646 
" style="fill:none;stroke:#000000;stroke-linecap:square;stroke-linejoin:miter;"/>
   </g>
   <g id="matplotlib.axis_3">
    <g id="xtick_6">
     <g id="line2d_24">
      <g>
       <use style="stroke:#000000;stroke-width:0.5;" x="331.641811952" xlink:href="#m7a0ae8a2d5" y="258.165354331"/>
      </g>
     </g>
     <g id="line2d_25">
      <g>
       <use style="stroke:#000000;stroke-width:0.5;" x="331.641811952" xlink:href="#mf820910c7f" y="2.83464566929"/>
      </g>
     </g>
     <g id="text_14">
      <!-- 0 -->
      <g transform="translate(329.096811952 268.244104331)scale(0.08 -0.08)">
       <use xlink:href="#BitstreamVeraSans-Roman-30"/>
      </g>
     </g>
    </g>
    <g id="xtick_7">
     <g id="line2d_26">
      <g>
       <use style="stroke:#000000;stroke-width:0.5;" x="432.627546705" xlink:href="#m7a0ae8a2d5" y="258.165354331"/>
      </g>
     </g>
     <g id="line2d_27">
      <g>
       <use style="stroke:#000000;stroke-width:0.5;" x="432.627546705" xlink:href="#mf820910c7f" y="2.83464566929"/>
      </g>
     </g>
     <g id="text_15">
      <!-- 500 -->
      <defs>
       <path d="M 10.796875 72.90625 
L 49.515625 72.90625 
L 49.515625 64.59375 
L 19.828125 64.59375 
L 19.828125 46.734375 
Q 21.96875 47.46875 24.109375 47.828125 
Q 26.265625 48.1875 28.421875 48.1875 
Q 40.625 48.1875 47.75 41.5 
Q 54.890625 34.8125 54.890625 23.390625 
Q 54.890625 11.625 47.5625 5.09375 
Q 40.234375 -1.421875 26.90625 -1.421875 
Q 22.3125 -1.421875 17.546875 -0.640625 
Q 12.796875 0.140625 7.71875 1.703125 
L 7.71875 11.625 
Q 12.109375 9.234375 16.796875 8.0625 
Q 21.484375 6.890625 26.703125 6.890625 
Q 35.15625 6.890625 40.078125 11.328125 
Q 45.015625 15.765625 45.015625 23.390625 
Q 45.015625 31 40.078125 35.4375 
Q 35.15625 39.890625 26.703125 39.890625 
Q 22.75 39.890625 18.8125 39.015625 
Q 14.890625 38.140625 10.796875 36.28125 
z
" id="BitstreamVeraSans-Roman-35"/>
      </defs>
      <g transform="translate(424.992546705 268.244104331)scale(0.08 -0.08)">
       <use xlink:href="#BitstreamVeraSans-Roman-35"/>
       <use x="63.623046875" xlink:href="#BitstreamVeraSans-Roman-30"/>
       <use x="127.24609375" xlink:href="#BitstreamVeraSans-Roman-30"/>
      </g>
     </g>
    </g>
    <g id="xtick_8">
     <g id="line2d_28">
      <g>
       <use style="stroke:#000000;stroke-width:0.5;" x="533.613281457" xlink:href="#m7a0ae8a2d5" y="258.165354331"/>
      </g>
     </g>
     <g id="line2d_29">
      <g>
       <use style="stroke:#000000;stroke-width:0.5;" x="533.613281457" xlink:href="#mf820910c7f" y="2.83464566929"/>
      </g>
     </g>
     <g id="text_16">
      <!-- 1000 -->
      <g transform="translate(523.433281457 268.244104331)scale(0.08 -0.08)">
       <use xlink:href="#BitstreamVeraSans-Roman-31"/>
       <use x="63.623046875" xlink:href="#BitstreamVeraSans-Roman-30"/>
       <use x="127.24609375" xlink:href="#BitstreamVeraSans-Roman-30"/>
       <use x="190.869140625" xlink:href="#BitstreamVeraSans-Roman-30"/>
      </g>
     </g>
    </g>
    <g id="text_17">
     <!-- population -->
     <g transform="translate(419.618515625 283.266135581)scale(0.11 -0.11)">
      <use xlink:href="#BitstreamVeraSans-Roman-70"/>
      <use x="63.4765625" xlink:href="#BitstreamVeraSans-Roman-6f"/>
      <use x="124.658203125" xlink:href="#BitstreamVeraSans-Roman-70"/>
      <use x="188.134765625" xlink:href="#BitstreamVeraSans-Roman-75"/>
      <use x="251.513671875" xlink:href="#BitstreamVeraSans-Roman-6c"/>
      <use x="279.296875" xlink:href="#BitstreamVeraSans-Roman-61"/>
      <use x="340.576171875" xlink:href="#BitstreamVeraSans-Roman-74"/>
      <use x="379.78515625" xlink:href="#BitstreamVeraSans-Roman-69"/>
      <use x="407.568359375" xlink:href="#BitstreamVeraSans-Roman-6f"/>
      <use x="468.75" xlink:href="#BitstreamVeraSans-Roman-6e"/>
     </g>
    </g>
   </g>
   <g id="matplotlib.axis_4">
    <g id="ytick_6">
     <g id="line2d_30">
      <g>
       <use style="stroke:#000000;stroke-width:0.5;" x="324.607145669" xlink:href="#m3bc244c7a8" y="258.165354331"/>
      </g>
     </g>
     <g id="line2d_31">
      <g>
       <use style="stroke:#000000;stroke-width:0.5;" x="573.165354331" xlink:href="#m156271e636" y="258.165354331"/>
      </g>
     </g>
     <g id="text_18">
      <!-- 0 -->
      <g transform="translate(315.517145669 260.372854331)scale(0.08 -0.08)">
       <use xlink:href="#BitstreamVeraSans-Roman-30"/>
      </g>
     </g>
    </g>
    <g id="ytick_7">
     <g id="line2d_32">
      <g>
       <use style="stroke:#000000;stroke-width:0.5;" x="324.607145669" xlink:href="#m3bc244c7a8" y="190.973062578"/>
      </g>
     </g>
     <g id="line2d_33">
      <g>
       <use style="stroke:#000000;stroke-width:0.5;" x="573.165354331" xlink:href="#m156271e636" y="190.973062578"/>
      </g>
     </g>
     <g id="text_19">
      <!-- 25 -->
      <g transform="translate(310.427145669 193.180562578)scale(0.08 -0.08)">
       <use xlink:href="#BitstreamVeraSans-Roman-32"/>
       <use x="63.623046875" xlink:href="#BitstreamVeraSans-Roman-35"/>
      </g>
     </g>
    </g>
    <g id="ytick_8">
     <g id="line2d_34">
      <g>
       <use style="stroke:#000000;stroke-width:0.5;" x="324.607145669" xlink:href="#m3bc244c7a8" y="123.780770825"/>
      </g>
     </g>
     <g id="line2d_35">
      <g>
       <use style="stroke:#000000;stroke-width:0.5;" x="573.165354331" xlink:href="#m156271e636" y="123.780770825"/>
      </g>
     </g>
     <g id="text_20">
      <!-- 50 -->
      <g transform="translate(310.427145669 125.988270825)scale(0.08 -0.08)">
       <use xlink:href="#BitstreamVeraSans-Roman-35"/>
       <use x="63.623046875" xlink:href="#BitstreamVeraSans-Roman-30"/>
      </g>
     </g>
    </g>
    <g id="ytick_9">
     <g id="line2d_36">
      <g>
       <use style="stroke:#000000;stroke-width:0.5;" x="324.607145669" xlink:href="#m3bc244c7a8" y="56.5884790717"/>
      </g>
     </g>
     <g id="line2d_37">
      <g>
       <use style="stroke:#000000;stroke-width:0.5;" x="573.165354331" xlink:href="#m156271e636" y="56.5884790717"/>
      </g>
     </g>
     <g id="text_21">
      <!-- 75 -->
      <defs>
       <path d="M 8.203125 72.90625 
L 55.078125 72.90625 
L 55.078125 68.703125 
L 28.609375 0 
L 18.3125 0 
L 43.21875 64.59375 
L 8.203125 64.59375 
z
" id="BitstreamVeraSans-Roman-37"/>
      </defs>
      <g transform="translate(310.427145669 58.7959790717)scale(0.08 -0.08)">
       <use xlink:href="#BitstreamVeraSans-Roman-37"/>
       <use x="63.623046875" xlink:href="#BitstreamVeraSans-Roman-35"/>
      </g>
     </g>
    </g>
    <g id="text_22">
     <!-- frequency -->
     <defs>
      <path d="M 32.171875 -5.078125 
Q 28.375 -14.84375 24.75 -17.8125 
Q 21.140625 -20.796875 15.09375 -20.796875 
L 7.90625 -20.796875 
L 7.90625 -13.28125 
L 13.1875 -13.28125 
Q 16.890625 -13.28125 18.9375 -11.515625 
Q 21 -9.765625 23.484375 -3.21875 
L 25.09375 0.875 
L 2.984375 54.6875 
L 12.5 54.6875 
L 29.59375 11.921875 
L 46.6875 54.6875 
L 56.203125 54.6875 
z
" id="BitstreamVeraSans-Roman-79"/>
      <path d="M 37.109375 75.984375 
L 37.109375 68.5 
L 28.515625 68.5 
Q 23.6875 68.5 21.796875 66.546875 
Q 19.921875 64.59375 19.921875 59.515625 
L 19.921875 54.6875 
L 34.71875 54.6875 
L 34.71875 47.703125 
L 19.921875 47.703125 
L 19.921875 0 
L 10.890625 0 
L 10.890625 47.703125 
L 2.296875 47.703125 
L 2.296875 54.6875 
L 10.890625 54.6875 
L 10.890625 58.5 
Q 10.890625 67.625 15.140625 71.796875 
Q 19.390625 75.984375 28.609375 75.984375 
z
" id="BitstreamVeraSans-Roman-66"/>
      <path d="M 41.109375 46.296875 
Q 39.59375 47.171875 37.8125 47.578125 
Q 36.03125 48 33.890625 48 
Q 26.265625 48 22.1875 43.046875 
Q 18.109375 38.09375 18.109375 28.8125 
L 18.109375 0 
L 9.078125 0 
L 9.078125 54.6875 
L 18.109375 54.6875 
L 18.109375 46.1875 
Q 20.953125 51.171875 25.484375 53.578125 
Q 30.03125 56 36.53125 56 
Q 37.453125 56 38.578125 55.875 
Q 39.703125 55.765625 41.0625 55.515625 
z
" id="BitstreamVeraSans-Roman-72"/>
      <path d="M 48.78125 52.59375 
L 48.78125 44.1875 
Q 44.96875 46.296875 41.140625 47.34375 
Q 37.3125 48.390625 33.40625 48.390625 
Q 24.65625 48.390625 19.8125 42.84375 
Q 14.984375 37.3125 14.984375 27.296875 
Q 14.984375 17.28125 19.8125 11.734375 
Q 24.65625 6.203125 33.40625 6.203125 
Q 37.3125 6.203125 41.140625 7.25 
Q 44.96875 8.296875 48.78125 10.40625 
L 48.78125 2.09375 
Q 45.015625 0.34375 40.984375 -0.53125 
Q 36.96875 -1.421875 32.421875 -1.421875 
Q 20.0625 -1.421875 12.78125 6.34375 
Q 5.515625 14.109375 5.515625 27.296875 
Q 5.515625 40.671875 12.859375 48.328125 
Q 20.21875 56 33.015625 56 
Q 37.15625 56 41.109375 55.140625 
Q 45.0625 54.296875 48.78125 52.59375 
" id="BitstreamVeraSans-Roman-63"/>
      <path d="M 14.796875 27.296875 
Q 14.796875 17.390625 18.875 11.75 
Q 22.953125 6.109375 30.078125 6.109375 
Q 37.203125 6.109375 41.296875 11.75 
Q 45.40625 17.390625 45.40625 27.296875 
Q 45.40625 37.203125 41.296875 42.84375 
Q 37.203125 48.484375 30.078125 48.484375 
Q 22.953125 48.484375 18.875 42.84375 
Q 14.796875 37.203125 14.796875 27.296875 
M 45.40625 8.203125 
Q 42.578125 3.328125 38.25 0.953125 
Q 33.9375 -1.421875 27.875 -1.421875 
Q 17.96875 -1.421875 11.734375 6.484375 
Q 5.515625 14.40625 5.515625 27.296875 
Q 5.515625 40.1875 11.734375 48.09375 
Q 17.96875 56 27.875 56 
Q 33.9375 56 38.25 53.625 
Q 42.578125 51.265625 45.40625 46.390625 
L 45.40625 54.6875 
L 54.390625 54.6875 
L 54.390625 -20.796875 
L 45.40625 -20.796875 
z
" id="BitstreamVeraSans-Roman-71"/>
     </defs>
     <g transform="translate(303.139489419 158.20625)rotate(-90.0)scale(0.11 -0.11)">
      <use xlink:href="#BitstreamVeraSans-Roman-66"/>
      <use x="35.205078125" xlink:href="#BitstreamVeraSans-Roman-72"/>
      <use x="76.287109375" xlink:href="#BitstreamVeraSans-Roman-65"/>
      <use x="137.810546875" xlink:href="#BitstreamVeraSans-Roman-71"/>
      <use x="201.287109375" xlink:href="#BitstreamVeraSans-Roman-75"/>
      <use x="264.666015625" xlink:href="#BitstreamVeraSans-Roman-65"/>
      <use x="326.189453125" xlink:href="#BitstreamVeraSans-Roman-6e"/>
      <use x="389.568359375" xlink:href="#BitstreamVeraSans-Roman-63"/>
      <use x="444.548828125" xlink:href="#BitstreamVeraSans-Roman-79"/>
     </g>
    </g>
   </g>
   <g id="legend_2">
    <g id="patch_43">
     <path d="M 534.885354 20.977146 
L 569.165354 20.977146 
L 569.165354 6.834646 
L 534.885354 6.834646 
z
" style="fill:#ffffff;stroke:#000000;stroke-linejoin:miter;"/>
    </g>
    <g id="line2d_38">
     <path d="M 540.485354 13.313396 
L 551.685354 13.313396 
" style="fill:none;stroke:#009afa;stroke-linecap:square;stroke-width:4.0;"/>
    </g>
    <g id="line2d_39"/>
    <g id="text_23">
     <!-- X -->
     <g transform="translate(560.485354331 16.1133956693)scale(0.08 -0.08)">
      <use xlink:href="#BitstreamVeraSans-Roman-58"/>
     </g>
    </g>
   </g>
  </g>
 </g>
 <defs>
  <clipPath id="pcf242ed77d">
   <rect height="255.330708661" width="248.558208661" x="324.607145669" y="2.83464566929"/>
  </clipPath>
  <clipPath id="p175519789a">
   <rect height="255.330708661" width="248.558208661" x="37.8446456693" y="2.83464566929"/>
  </clipPath>
 </defs>
</svg>
