<?xml version="1.0" encoding="utf-8" standalone="no"?>
<!DOCTYPE svg PUBLIC "-//W3C//DTD SVG 1.1//EN"
  "http://www.w3.org/Graphics/SVG/1.1/DTD/svg11.dtd">
<!-- Created with matplotlib (http://matplotlib.org/) -->
<svg height="288pt" version="1.1" viewBox="0 0 432 288" width="432pt" xmlns="http://www.w3.org/2000/svg" xmlns:xlink="http://www.w3.org/1999/xlink">
 <defs>
  <style type="text/css">
*{stroke-linecap:butt;stroke-linejoin:round;}
  </style>
 </defs>
 <g id="figure_1">
  <g id="patch_1">
   <path d="M 0 288 
L 432 288 
L 432 0 
L 0 0 
z
" style="fill:#ffffff;"/>
  </g>
  <g id="axes_1">
   <g id="patch_2">
    <path d="M 37.504646 258.685354 
L 426.555354 258.685354 
L 426.555354 2.834646 
L 37.504646 2.834646 
z
" style="fill:#ffffff;"/>
   </g>
   <g id="PolyCollection_1">
    <path clip-path="url(#p7774cb7042)" d="M 37.504646 2.834646 
L 37.504646 2.834646 
L 41.395153 24.952998 
L 45.28566 39.13075 
L 49.176167 49.775098 
L 53.066674 58.510519 
L 56.957181 65.652516 
L 60.847688 71.874465 
L 64.738195 77.272971 
L 68.628702 82.138835 
L 72.519209 86.485508 
L 76.409717 90.759471 
L 80.300224 94.670448 
L 84.190731 98.407681 
L 88.081238 101.961483 
L 91.971745 105.540947 
L 95.862252 108.838021 
L 99.752759 112.219637 
L 103.643266 115.393589 
L 107.533773 118.683104 
L 111.42428 121.866878 
L 115.314787 125.011702 
L 119.205294 128.003348 
L 123.095802 130.886115 
L 126.986309 133.987791 
L 130.876816 136.888725 
L 134.767323 139.703659 
L 138.65783 142.658862 
L 142.548337 145.523607 
L 146.438844 148.275368 
L 150.329351 151.067724 
L 154.219858 153.784135 
L 158.110365 156.566262 
L 162.000872 159.322229 
L 165.89138 161.98272 
L 169.781887 164.579115 
L 173.672394 167.179798 
L 177.562901 169.750056 
L 181.453408 172.190143 
L 185.343915 174.67577 
L 189.234422 177.137016 
L 193.124929 179.582645 
L 197.015436 182.01855 
L 200.905943 184.454494 
L 204.79645 186.661482 
L 208.686957 188.944262 
L 212.577465 191.194485 
L 216.467972 193.276731 
L 220.358479 195.327788 
L 224.248986 197.481486 
L 228.139493 199.5979 
L 232.03 201.691111 
L 235.920507 203.712193 
L 239.811014 205.607257 
L 243.701521 207.545318 
L 247.592028 209.408372 
L 251.482535 211.17994 
L 255.373043 213.004054 
L 259.26355 214.736215 
L 263.154057 216.555545 
L 267.044564 218.282829 
L 270.935071 220.016875 
L 274.825578 221.625239 
L 278.716085 223.244896 
L 282.606592 224.706639 
L 286.497099 226.225377 
L 290.387606 227.603282 
L 294.278113 229.056776 
L 298.16862 230.376737 
L 302.059128 231.754277 
L 305.949635 233.042454 
L 309.840142 234.337942 
L 313.730649 235.50144 
L 317.621156 236.674673 
L 321.511663 237.778626 
L 325.40217 238.894268 
L 329.292677 239.897111 
L 333.183184 240.967294 
L 337.073691 241.941701 
L 340.964198 242.837396 
L 344.854706 243.707931 
L 348.745213 244.473882 
L 352.63572 245.264725 
L 356.526227 246.074743 
L 360.416734 246.80664 
L 364.307241 247.567516 
L 368.197748 248.237132 
L 372.088255 248.917004 
L 375.978762 249.570052 
L 379.869269 250.181833 
L 383.759776 250.745718 
L 387.650283 251.28068 
L 391.540791 251.745922 
L 395.431298 252.246948 
L 399.321805 252.666093 
L 403.212312 253.105244 
L 407.102819 253.532938 
L 410.993326 253.920524 
L 414.883833 254.285868 
L 418.77434 254.608544 
L 422.664847 254.939156 
L 426.555354 255.087908 
L 426.555354 250.324987 
L 426.555354 250.324987 
L 422.664847 250.086376 
L 418.77434 249.650759 
L 414.883833 249.159633 
L 410.993326 248.641519 
L 407.102819 248.064096 
L 403.212312 247.497899 
L 399.321805 246.904083 
L 395.431298 246.303853 
L 391.540791 245.64449 
L 387.650283 244.998613 
L 383.759776 244.223678 
L 379.869269 243.43859 
L 375.978762 242.667418 
L 372.088255 241.835576 
L 368.197748 240.943912 
L 364.307241 240.10825 
L 360.416734 239.24832 
L 356.526227 238.250677 
L 352.63572 237.266594 
L 348.745213 236.288821 
L 344.854706 235.303146 
L 340.964198 234.337107 
L 337.073691 233.222933 
L 333.183184 232.036265 
L 329.292677 230.875715 
L 325.40217 229.54249 
L 321.511663 228.330559 
L 317.621156 227.049174 
L 313.730649 225.728335 
L 309.840142 224.343396 
L 305.949635 223.03268 
L 302.059128 221.546458 
L 298.16862 220.010284 
L 294.278113 218.475994 
L 290.387606 216.888353 
L 286.497099 215.333855 
L 282.606592 213.682335 
L 278.716085 212.099544 
L 274.825578 210.426619 
L 270.935071 208.71182 
L 267.044564 207.008873 
L 263.154057 205.205721 
L 259.26355 203.411366 
L 255.373043 201.458485 
L 251.482535 199.505814 
L 247.592028 197.554963 
L 243.701521 195.534198 
L 239.811014 193.501793 
L 235.920507 191.373722 
L 232.03 189.335992 
L 228.139493 187.293937 
L 224.248986 185.149363 
L 220.358479 183.011492 
L 216.467972 180.818549 
L 212.577465 178.605828 
L 208.686957 176.3708 
L 204.79645 174.066392 
L 200.905943 171.803419 
L 197.015436 169.43131 
L 193.124929 167.055764 
L 189.234422 164.744308 
L 185.343915 162.394104 
L 181.453408 159.96974 
L 177.562901 157.516826 
L 173.672394 155.14991 
L 169.781887 152.607845 
L 165.89138 149.935769 
L 162.000872 147.477298 
L 158.110365 144.924019 
L 154.219858 142.334039 
L 150.329351 139.724214 
L 146.438844 137.091794 
L 142.548337 134.41878 
L 138.65783 131.716038 
L 134.767323 129.034096 
L 130.876816 126.368189 
L 126.986309 123.574214 
L 123.095802 120.748223 
L 119.205294 117.898703 
L 115.314787 114.950789 
L 111.42428 111.986158 
L 107.533773 108.987421 
L 103.643266 106.019671 
L 99.752759 103.034898 
L 95.862252 99.984256 
L 91.971745 96.764125 
L 88.081238 93.542657 
L 84.190731 90.14602 
L 80.300224 86.542051 
L 76.409717 82.671798 
L 72.519209 78.651444 
L 68.628702 74.163533 
L 64.738195 69.377612 
L 60.847688 63.897685 
L 56.957181 57.712139 
L 53.066674 50.452063 
L 49.176167 41.907375 
L 45.28566 31.304546 
L 41.395153 18.135859 
L 37.504646 2.834646 
z
" style="fill:#0000ff;fill-opacity:0.3;"/>
   </g>
   <g id="line2d_1">
    <path clip-path="url(#p7774cb7042)" d="M 37.504646 2.834646 
L 41.395153 21.544428 
L 45.28566 35.217648 
L 49.176167 45.841237 
L 53.066674 54.481291 
L 56.957181 61.682328 
L 60.847688 67.886075 
L 64.738195 73.325291 
L 68.628702 78.151184 
L 72.519209 82.568476 
L 76.409717 86.715634 
L 80.300224 90.60625 
L 84.190731 94.27685 
L 88.081238 97.75207 
L 91.971745 101.152536 
L 95.862252 104.411139 
L 99.752759 107.627268 
L 103.643266 110.70663 
L 107.533773 113.835263 
L 111.42428 116.926518 
L 115.314787 119.981246 
L 119.205294 122.951026 
L 123.095802 125.817169 
L 126.986309 128.781002 
L 130.876816 131.628457 
L 134.767323 134.368877 
L 138.65783 137.18745 
L 142.548337 139.971194 
L 146.438844 142.683581 
L 150.329351 145.395969 
L 154.219858 148.059087 
L 158.110365 150.74514 
L 162.000872 153.399763 
L 165.89138 155.959245 
L 169.781887 158.59348 
L 173.672394 161.164854 
L 177.562901 163.633441 
L 181.453408 166.079942 
L 185.343915 168.534937 
L 189.234422 170.940662 
L 193.124929 173.319205 
L 197.015436 175.72493 
L 200.905943 178.128957 
L 204.79645 180.363937 
L 208.686957 182.657531 
L 212.577465 184.900157 
L 216.467972 187.04764 
L 220.358479 189.16964 
L 224.248986 191.315425 
L 228.139493 193.445919 
L 232.03 195.513551 
L 235.920507 197.542958 
L 239.811014 199.554525 
L 243.701521 201.539758 
L 247.592028 203.481668 
L 251.482535 205.342877 
L 255.373043 207.23127 
L 259.26355 209.07379 
L 263.154057 210.880633 
L 267.044564 212.645851 
L 270.935071 214.364348 
L 274.825578 216.025929 
L 278.716085 217.67222 
L 282.606592 219.194487 
L 286.497099 220.779616 
L 290.387606 222.245817 
L 294.278113 223.766385 
L 298.16862 225.19351 
L 302.059128 226.650368 
L 305.949635 228.037567 
L 309.840142 229.340669 
L 313.730649 230.614888 
L 317.621156 231.861923 
L 321.511663 233.054592 
L 325.40217 234.218379 
L 329.292677 235.386413 
L 333.183184 236.50178 
L 337.073691 237.582317 
L 340.964198 238.587251 
L 344.854706 239.505538 
L 348.745213 240.381352 
L 352.63572 241.26566 
L 356.526227 242.16271 
L 360.416734 243.02748 
L 364.307241 243.837883 
L 368.197748 244.590522 
L 372.088255 245.37629 
L 375.978762 246.118735 
L 379.869269 246.810211 
L 383.759776 247.484698 
L 387.650283 248.139647 
L 391.540791 248.695206 
L 395.431298 249.2754 
L 399.321805 249.785088 
L 403.212312 250.301572 
L 407.102819 250.798517 
L 410.993326 251.281021 
L 414.883833 251.72275 
L 418.77434 252.129651 
L 422.664847 252.512766 
L 426.555354 252.706448 
" style="fill:none;stroke:#0000ff;stroke-linecap:round;"/>
   </g>
   <g id="matplotlib.axis_1">
    <g id="xtick_1">
     <g id="line2d_2">
      <defs>
       <path d="M 0 0 
L 0 3.5 
" id="m3f6066d2df" style="stroke:#000000;stroke-width:0.8;"/>
      </defs>
      <g>
       <use style="stroke:#000000;stroke-width:0.8;" x="37.504646" xlink:href="#m3f6066d2df" y="258.685354"/>
      </g>
     </g>
     <g id="text_1">
      <!-- 0 -->
      <defs>
       <path d="M 31.78125 66.40625 
Q 24.171875 66.40625 20.328125 58.90625 
Q 16.5 51.421875 16.5 36.375 
Q 16.5 21.390625 20.328125 13.890625 
Q 24.171875 6.390625 31.78125 6.390625 
Q 39.453125 6.390625 43.28125 13.890625 
Q 47.125 21.390625 47.125 36.375 
Q 47.125 51.421875 43.28125 58.90625 
Q 39.453125 66.40625 31.78125 66.40625 
M 31.78125 74.21875 
Q 44.046875 74.21875 50.515625 64.515625 
Q 56.984375 54.828125 56.984375 36.375 
Q 56.984375 17.96875 50.515625 8.265625 
Q 44.046875 -1.421875 31.78125 -1.421875 
Q 19.53125 -1.421875 13.0625 8.265625 
Q 6.59375 17.96875 6.59375 36.375 
Q 6.59375 54.828125 13.0625 64.515625 
Q 19.53125 74.21875 31.78125 74.21875 
" id="DejaVuSans-30"/>
      </defs>
      <g transform="translate(34.959646 271.764104)scale(0.08 -0.08)">
       <use xlink:href="#DejaVuSans-30"/>
      </g>
     </g>
    </g>
    <g id="xtick_2">
     <g id="line2d_3">
      <g>
       <use style="stroke:#000000;stroke-width:0.8;" x="115.314787" xlink:href="#m3f6066d2df" y="258.685354"/>
      </g>
     </g>
     <g id="text_2">
      <!-- 10 -->
      <defs>
       <path d="M 12.40625 8.296875 
L 28.515625 8.296875 
L 28.515625 63.921875 
L 10.984375 60.40625 
L 10.984375 69.390625 
L 28.421875 72.90625 
L 38.28125 72.90625 
L 38.28125 8.296875 
L 54.390625 8.296875 
L 54.390625 0 
L 12.40625 0 
z
" id="DejaVuSans-31"/>
      </defs>
      <g transform="translate(110.224787 271.764104)scale(0.08 -0.08)">
       <use xlink:href="#DejaVuSans-31"/>
       <use x="63.623047" xlink:href="#DejaVuSans-30"/>
      </g>
     </g>
    </g>
    <g id="xtick_3">
     <g id="line2d_4">
      <g>
       <use style="stroke:#000000;stroke-width:0.8;" x="193.124929" xlink:href="#m3f6066d2df" y="258.685354"/>
      </g>
     </g>
     <g id="text_3">
      <!-- 20 -->
      <defs>
       <path d="M 19.1875 8.296875 
L 53.609375 8.296875 
L 53.609375 0 
L 7.328125 0 
L 7.328125 8.296875 
Q 12.9375 14.109375 22.625 23.890625 
Q 32.328125 33.6875 34.8125 36.53125 
Q 39.546875 41.84375 41.421875 45.53125 
Q 43.3125 49.21875 43.3125 52.78125 
Q 43.3125 58.59375 39.234375 62.25 
Q 35.15625 65.921875 28.609375 65.921875 
Q 23.96875 65.921875 18.8125 64.3125 
Q 13.671875 62.703125 7.8125 59.421875 
L 7.8125 69.390625 
Q 13.765625 71.78125 18.9375 73 
Q 24.125 74.21875 28.421875 74.21875 
Q 39.75 74.21875 46.484375 68.546875 
Q 53.21875 62.890625 53.21875 53.421875 
Q 53.21875 48.921875 51.53125 44.890625 
Q 49.859375 40.875 45.40625 35.40625 
Q 44.1875 33.984375 37.640625 27.21875 
Q 31.109375 20.453125 19.1875 8.296875 
" id="DejaVuSans-32"/>
      </defs>
      <g transform="translate(188.034929 271.764104)scale(0.08 -0.08)">
       <use xlink:href="#DejaVuSans-32"/>
       <use x="63.623047" xlink:href="#DejaVuSans-30"/>
      </g>
     </g>
    </g>
    <g id="xtick_4">
     <g id="line2d_5">
      <g>
       <use style="stroke:#000000;stroke-width:0.8;" x="270.935071" xlink:href="#m3f6066d2df" y="258.685354"/>
      </g>
     </g>
     <g id="text_4">
      <!-- 30 -->
      <defs>
       <path d="M 40.578125 39.3125 
Q 47.65625 37.796875 51.625 33 
Q 55.609375 28.21875 55.609375 21.1875 
Q 55.609375 10.40625 48.1875 4.484375 
Q 40.765625 -1.421875 27.09375 -1.421875 
Q 22.515625 -1.421875 17.65625 -0.515625 
Q 12.796875 0.390625 7.625 2.203125 
L 7.625 11.71875 
Q 11.71875 9.328125 16.59375 8.109375 
Q 21.484375 6.890625 26.8125 6.890625 
Q 36.078125 6.890625 40.9375 10.546875 
Q 45.796875 14.203125 45.796875 21.1875 
Q 45.796875 27.640625 41.28125 31.265625 
Q 36.765625 34.90625 28.71875 34.90625 
L 20.21875 34.90625 
L 20.21875 43.015625 
L 29.109375 43.015625 
Q 36.375 43.015625 40.234375 45.921875 
Q 44.09375 48.828125 44.09375 54.296875 
Q 44.09375 59.90625 40.109375 62.90625 
Q 36.140625 65.921875 28.71875 65.921875 
Q 24.65625 65.921875 20.015625 65.03125 
Q 15.375 64.15625 9.8125 62.3125 
L 9.8125 71.09375 
Q 15.4375 72.65625 20.34375 73.4375 
Q 25.25 74.21875 29.59375 74.21875 
Q 40.828125 74.21875 47.359375 69.109375 
Q 53.90625 64.015625 53.90625 55.328125 
Q 53.90625 49.265625 50.4375 45.09375 
Q 46.96875 40.921875 40.578125 39.3125 
" id="DejaVuSans-33"/>
      </defs>
      <g transform="translate(265.845071 271.764104)scale(0.08 -0.08)">
       <use xlink:href="#DejaVuSans-33"/>
       <use x="63.623047" xlink:href="#DejaVuSans-30"/>
      </g>
     </g>
    </g>
    <g id="xtick_5">
     <g id="line2d_6">
      <g>
       <use style="stroke:#000000;stroke-width:0.8;" x="348.745213" xlink:href="#m3f6066d2df" y="258.685354"/>
      </g>
     </g>
     <g id="text_5">
      <!-- 40 -->
      <defs>
       <path d="M 37.796875 64.3125 
L 12.890625 25.390625 
L 37.796875 25.390625 
z
M 35.203125 72.90625 
L 47.609375 72.90625 
L 47.609375 25.390625 
L 58.015625 25.390625 
L 58.015625 17.1875 
L 47.609375 17.1875 
L 47.609375 0 
L 37.796875 0 
L 37.796875 17.1875 
L 4.890625 17.1875 
L 4.890625 26.703125 
z
" id="DejaVuSans-34"/>
      </defs>
      <g transform="translate(343.655213 271.764104)scale(0.08 -0.08)">
       <use xlink:href="#DejaVuSans-34"/>
       <use x="63.623047" xlink:href="#DejaVuSans-30"/>
      </g>
     </g>
    </g>
    <g id="xtick_6">
     <g id="line2d_7">
      <g>
       <use style="stroke:#000000;stroke-width:0.8;" x="426.555354" xlink:href="#m3f6066d2df" y="258.685354"/>
      </g>
     </g>
     <g id="text_6">
      <!-- 50 -->
      <defs>
       <path d="M 10.796875 72.90625 
L 49.515625 72.90625 
L 49.515625 64.59375 
L 19.828125 64.59375 
L 19.828125 46.734375 
Q 21.96875 47.46875 24.109375 47.828125 
Q 26.265625 48.1875 28.421875 48.1875 
Q 40.625 48.1875 47.75 41.5 
Q 54.890625 34.8125 54.890625 23.390625 
Q 54.890625 11.625 47.5625 5.09375 
Q 40.234375 -1.421875 26.90625 -1.421875 
Q 22.3125 -1.421875 17.546875 -0.640625 
Q 12.796875 0.140625 7.71875 1.703125 
L 7.71875 11.625 
Q 12.109375 9.234375 16.796875 8.0625 
Q 21.484375 6.890625 26.703125 6.890625 
Q 35.15625 6.890625 40.078125 11.328125 
Q 45.015625 15.765625 45.015625 23.390625 
Q 45.015625 31 40.078125 35.4375 
Q 35.15625 39.890625 26.703125 39.890625 
Q 22.75 39.890625 18.8125 39.015625 
Q 14.890625 38.140625 10.796875 36.28125 
z
" id="DejaVuSans-35"/>
      </defs>
      <g transform="translate(421.465354 271.764104)scale(0.08 -0.08)">
       <use xlink:href="#DejaVuSans-35"/>
       <use x="63.623047" xlink:href="#DejaVuSans-30"/>
      </g>
     </g>
    </g>
    <g id="text_7">
     <!-- time -->
     <defs>
      <path d="M 18.3125 70.21875 
L 18.3125 54.6875 
L 36.8125 54.6875 
L 36.8125 47.703125 
L 18.3125 47.703125 
L 18.3125 18.015625 
Q 18.3125 11.328125 20.140625 9.421875 
Q 21.96875 7.515625 27.59375 7.515625 
L 36.8125 7.515625 
L 36.8125 0 
L 27.59375 0 
Q 17.1875 0 13.234375 3.875 
Q 9.28125 7.765625 9.28125 18.015625 
L 9.28125 47.703125 
L 2.6875 47.703125 
L 2.6875 54.6875 
L 9.28125 54.6875 
L 9.28125 70.21875 
z
" id="DejaVuSans-74"/>
      <path d="M 9.421875 54.6875 
L 18.40625 54.6875 
L 18.40625 0 
L 9.421875 0 
z
M 9.421875 75.984375 
L 18.40625 75.984375 
L 18.40625 64.59375 
L 9.421875 64.59375 
z
" id="DejaVuSans-69"/>
      <path d="M 52 44.1875 
Q 55.375 50.25 60.0625 53.125 
Q 64.75 56 71.09375 56 
Q 79.640625 56 84.28125 50.015625 
Q 88.921875 44.046875 88.921875 33.015625 
L 88.921875 0 
L 79.890625 0 
L 79.890625 32.71875 
Q 79.890625 40.578125 77.09375 44.375 
Q 74.3125 48.1875 68.609375 48.1875 
Q 61.625 48.1875 57.5625 43.546875 
Q 53.515625 38.921875 53.515625 30.90625 
L 53.515625 0 
L 44.484375 0 
L 44.484375 32.71875 
Q 44.484375 40.625 41.703125 44.40625 
Q 38.921875 48.1875 33.109375 48.1875 
Q 26.21875 48.1875 22.15625 43.53125 
Q 18.109375 38.875 18.109375 30.90625 
L 18.109375 0 
L 9.078125 0 
L 9.078125 54.6875 
L 18.109375 54.6875 
L 18.109375 46.1875 
Q 21.1875 51.21875 25.484375 53.609375 
Q 29.78125 56 35.6875 56 
Q 41.65625 56 45.828125 52.96875 
Q 50 49.953125 52 44.1875 
" id="DejaVuSans-6d"/>
      <path d="M 56.203125 29.59375 
L 56.203125 25.203125 
L 14.890625 25.203125 
Q 15.484375 15.921875 20.484375 11.0625 
Q 25.484375 6.203125 34.421875 6.203125 
Q 39.59375 6.203125 44.453125 7.46875 
Q 49.3125 8.734375 54.109375 11.28125 
L 54.109375 2.78125 
Q 49.265625 0.734375 44.1875 -0.34375 
Q 39.109375 -1.421875 33.890625 -1.421875 
Q 20.796875 -1.421875 13.15625 6.1875 
Q 5.515625 13.8125 5.515625 26.8125 
Q 5.515625 40.234375 12.765625 48.109375 
Q 20.015625 56 32.328125 56 
Q 43.359375 56 49.78125 48.890625 
Q 56.203125 41.796875 56.203125 29.59375 
M 47.21875 32.234375 
Q 47.125 39.59375 43.09375 43.984375 
Q 39.0625 48.390625 32.421875 48.390625 
Q 24.90625 48.390625 20.390625 44.140625 
Q 15.875 39.890625 15.1875 32.171875 
z
" id="DejaVuSans-65"/>
     </defs>
     <g transform="translate(219.604297 285.786136)scale(0.11 -0.11)">
      <use xlink:href="#DejaVuSans-74"/>
      <use x="39.208984" xlink:href="#DejaVuSans-69"/>
      <use x="66.992188" xlink:href="#DejaVuSans-6d"/>
      <use x="164.404297" xlink:href="#DejaVuSans-65"/>
     </g>
    </g>
   </g>
   <g id="matplotlib.axis_2">
    <g id="ytick_1">
     <g id="line2d_8">
      <defs>
       <path d="M 0 0 
L -3.5 0 
" id="m8d6727e2da" style="stroke:#000000;stroke-width:0.8;"/>
      </defs>
      <g>
       <use style="stroke:#000000;stroke-width:0.8;" x="37.504646" xlink:href="#m8d6727e2da" y="258.52793"/>
      </g>
     </g>
     <g id="text_8">
      <!-- 0 -->
      <g transform="translate(25.414646 261.567305)scale(0.08 -0.08)">
       <use xlink:href="#DejaVuSans-30"/>
      </g>
     </g>
    </g>
    <g id="ytick_2">
     <g id="line2d_9">
      <g>
       <use style="stroke:#000000;stroke-width:0.8;" x="37.504646" xlink:href="#m8d6727e2da" y="173.579995"/>
      </g>
     </g>
     <g id="text_9">
      <!-- 100 -->
      <g transform="translate(15.234646 176.61937)scale(0.08 -0.08)">
       <use xlink:href="#DejaVuSans-31"/>
       <use x="63.623047" xlink:href="#DejaVuSans-30"/>
       <use x="127.246094" xlink:href="#DejaVuSans-30"/>
      </g>
     </g>
    </g>
    <g id="ytick_3">
     <g id="line2d_10">
      <g>
       <use style="stroke:#000000;stroke-width:0.8;" x="37.504646" xlink:href="#m8d6727e2da" y="88.63206"/>
      </g>
     </g>
     <g id="text_10">
      <!-- 200 -->
      <g transform="translate(15.234646 91.671435)scale(0.08 -0.08)">
       <use xlink:href="#DejaVuSans-32"/>
       <use x="63.623047" xlink:href="#DejaVuSans-30"/>
       <use x="127.246094" xlink:href="#DejaVuSans-30"/>
      </g>
     </g>
    </g>
    <g id="ytick_4">
     <g id="line2d_11">
      <g>
       <use style="stroke:#000000;stroke-width:0.8;" x="37.504646" xlink:href="#m8d6727e2da" y="3.684125"/>
      </g>
     </g>
     <g id="text_11">
      <!-- 300 -->
      <g transform="translate(15.234646 6.7235)scale(0.08 -0.08)">
       <use xlink:href="#DejaVuSans-33"/>
       <use x="63.623047" xlink:href="#DejaVuSans-30"/>
       <use x="127.246094" xlink:href="#DejaVuSans-30"/>
      </g>
     </g>
    </g>
    <g id="text_12">
     <!-- population mean -->
     <defs>
      <path d="M 18.109375 8.203125 
L 18.109375 -20.796875 
L 9.078125 -20.796875 
L 9.078125 54.6875 
L 18.109375 54.6875 
L 18.109375 46.390625 
Q 20.953125 51.265625 25.265625 53.625 
Q 29.59375 56 35.59375 56 
Q 45.5625 56 51.78125 48.09375 
Q 58.015625 40.1875 58.015625 27.296875 
Q 58.015625 14.40625 51.78125 6.484375 
Q 45.5625 -1.421875 35.59375 -1.421875 
Q 29.59375 -1.421875 25.265625 0.953125 
Q 20.953125 3.328125 18.109375 8.203125 
M 48.6875 27.296875 
Q 48.6875 37.203125 44.609375 42.84375 
Q 40.53125 48.484375 33.40625 48.484375 
Q 26.265625 48.484375 22.1875 42.84375 
Q 18.109375 37.203125 18.109375 27.296875 
Q 18.109375 17.390625 22.1875 11.75 
Q 26.265625 6.109375 33.40625 6.109375 
Q 40.53125 6.109375 44.609375 11.75 
Q 48.6875 17.390625 48.6875 27.296875 
" id="DejaVuSans-70"/>
      <path d="M 30.609375 48.390625 
Q 23.390625 48.390625 19.1875 42.75 
Q 14.984375 37.109375 14.984375 27.296875 
Q 14.984375 17.484375 19.15625 11.84375 
Q 23.34375 6.203125 30.609375 6.203125 
Q 37.796875 6.203125 41.984375 11.859375 
Q 46.1875 17.53125 46.1875 27.296875 
Q 46.1875 37.015625 41.984375 42.703125 
Q 37.796875 48.390625 30.609375 48.390625 
M 30.609375 56 
Q 42.328125 56 49.015625 48.375 
Q 55.71875 40.765625 55.71875 27.296875 
Q 55.71875 13.875 49.015625 6.21875 
Q 42.328125 -1.421875 30.609375 -1.421875 
Q 18.84375 -1.421875 12.171875 6.21875 
Q 5.515625 13.875 5.515625 27.296875 
Q 5.515625 40.765625 12.171875 48.375 
Q 18.84375 56 30.609375 56 
" id="DejaVuSans-6f"/>
      <path d="M 8.5 21.578125 
L 8.5 54.6875 
L 17.484375 54.6875 
L 17.484375 21.921875 
Q 17.484375 14.15625 20.5 10.265625 
Q 23.53125 6.390625 29.59375 6.390625 
Q 36.859375 6.390625 41.078125 11.03125 
Q 45.3125 15.671875 45.3125 23.6875 
L 45.3125 54.6875 
L 54.296875 54.6875 
L 54.296875 0 
L 45.3125 0 
L 45.3125 8.40625 
Q 42.046875 3.421875 37.71875 1 
Q 33.40625 -1.421875 27.6875 -1.421875 
Q 18.265625 -1.421875 13.375 4.4375 
Q 8.5 10.296875 8.5 21.578125 
M 31.109375 56 
z
" id="DejaVuSans-75"/>
      <path d="M 9.421875 75.984375 
L 18.40625 75.984375 
L 18.40625 0 
L 9.421875 0 
z
" id="DejaVuSans-6c"/>
      <path d="M 34.28125 27.484375 
Q 23.390625 27.484375 19.1875 25 
Q 14.984375 22.515625 14.984375 16.5 
Q 14.984375 11.71875 18.140625 8.90625 
Q 21.296875 6.109375 26.703125 6.109375 
Q 34.1875 6.109375 38.703125 11.40625 
Q 43.21875 16.703125 43.21875 25.484375 
L 43.21875 27.484375 
z
M 52.203125 31.203125 
L 52.203125 0 
L 43.21875 0 
L 43.21875 8.296875 
Q 40.140625 3.328125 35.546875 0.953125 
Q 30.953125 -1.421875 24.3125 -1.421875 
Q 15.921875 -1.421875 10.953125 3.296875 
Q 6 8.015625 6 15.921875 
Q 6 25.140625 12.171875 29.828125 
Q 18.359375 34.515625 30.609375 34.515625 
L 43.21875 34.515625 
L 43.21875 35.40625 
Q 43.21875 41.609375 39.140625 45 
Q 35.0625 48.390625 27.6875 48.390625 
Q 23 48.390625 18.546875 47.265625 
Q 14.109375 46.140625 10.015625 43.890625 
L 10.015625 52.203125 
Q 14.9375 54.109375 19.578125 55.046875 
Q 24.21875 56 28.609375 56 
Q 40.484375 56 46.34375 49.84375 
Q 52.203125 43.703125 52.203125 31.203125 
" id="DejaVuSans-61"/>
      <path d="M 54.890625 33.015625 
L 54.890625 0 
L 45.90625 0 
L 45.90625 32.71875 
Q 45.90625 40.484375 42.875 44.328125 
Q 39.84375 48.1875 33.796875 48.1875 
Q 26.515625 48.1875 22.3125 43.546875 
Q 18.109375 38.921875 18.109375 30.90625 
L 18.109375 0 
L 9.078125 0 
L 9.078125 54.6875 
L 18.109375 54.6875 
L 18.109375 46.1875 
Q 21.34375 51.125 25.703125 53.5625 
Q 30.078125 56 35.796875 56 
Q 45.21875 56 50.046875 50.171875 
Q 54.890625 44.34375 54.890625 33.015625 
" id="DejaVuSans-6e"/>
      <path id="DejaVuSans-20"/>
     </defs>
     <g transform="translate(8.946989 177.373359)rotate(-90)scale(0.11 -0.11)">
      <use xlink:href="#DejaVuSans-70"/>
      <use x="63.476562" xlink:href="#DejaVuSans-6f"/>
      <use x="124.658203" xlink:href="#DejaVuSans-70"/>
      <use x="188.134766" xlink:href="#DejaVuSans-75"/>
      <use x="251.513672" xlink:href="#DejaVuSans-6c"/>
      <use x="279.296875" xlink:href="#DejaVuSans-61"/>
      <use x="340.576172" xlink:href="#DejaVuSans-74"/>
      <use x="379.785156" xlink:href="#DejaVuSans-69"/>
      <use x="407.568359" xlink:href="#DejaVuSans-6f"/>
      <use x="468.75" xlink:href="#DejaVuSans-6e"/>
      <use x="532.128906" xlink:href="#DejaVuSans-20"/>
      <use x="563.916016" xlink:href="#DejaVuSans-6d"/>
      <use x="661.328125" xlink:href="#DejaVuSans-65"/>
      <use x="722.851562" xlink:href="#DejaVuSans-61"/>
      <use x="784.130859" xlink:href="#DejaVuSans-6e"/>
     </g>
    </g>
   </g>
   <g id="PolyCollection_2">
    <path clip-path="url(#p7774cb7042)" d="M 37.504646 173.579995 
L 37.504646 173.579995 
L 41.395153 195.105212 
L 45.28566 207.973518 
L 49.176167 216.838298 
L 53.066674 223.362449 
L 56.957181 228.092607 
L 60.847688 231.6816 
L 64.738195 234.266589 
L 68.628702 236.135099 
L 72.519209 237.550194 
L 76.409717 238.612181 
L 80.300224 239.343898 
L 84.190731 239.897392 
L 88.081238 240.219367 
L 91.971745 240.630589 
L 95.862252 240.690209 
L 99.752759 240.688649 
L 103.643266 240.57435 
L 107.533773 240.557994 
L 111.42428 240.402091 
L 115.314787 240.259719 
L 119.205294 240.046245 
L 123.095802 239.875801 
L 126.986309 239.624957 
L 130.876816 239.294945 
L 134.767323 238.871201 
L 138.65783 238.611103 
L 142.548337 238.374673 
L 146.438844 238.155277 
L 150.329351 237.744329 
L 154.219858 237.352069 
L 158.110365 237.103194 
L 162.000872 236.90818 
L 165.89138 236.575556 
L 169.781887 236.210491 
L 173.672394 235.922546 
L 177.562901 235.514621 
L 181.453408 235.101255 
L 185.343915 234.790608 
L 189.234422 234.305516 
L 193.124929 233.999354 
L 197.015436 233.569915 
L 200.905943 233.356297 
L 204.79645 232.839119 
L 208.686957 232.371461 
L 212.577465 231.745303 
L 216.467972 231.175984 
L 220.358479 230.553667 
L 224.248986 230.083046 
L 228.139493 229.622981 
L 232.03 229.068485 
L 235.920507 228.478267 
L 239.811014 228.00587 
L 243.701521 227.451004 
L 247.592028 226.857562 
L 251.482535 226.418134 
L 255.373043 225.947746 
L 259.26355 225.480476 
L 263.154057 224.836914 
L 267.044564 224.122521 
L 270.935071 223.619804 
L 274.825578 223.036915 
L 278.716085 222.423807 
L 282.606592 221.719688 
L 286.497099 221.291941 
L 290.387606 220.626502 
L 294.278113 219.979226 
L 298.16862 219.303642 
L 302.059128 218.701987 
L 305.949635 218.072418 
L 309.840142 217.291472 
L 313.730649 216.672387 
L 317.621156 216.019527 
L 321.511663 215.337037 
L 325.40217 214.660413 
L 329.292677 213.961629 
L 333.183184 213.184248 
L 337.073691 212.447551 
L 340.964198 211.692801 
L 344.854706 211.021574 
L 348.745213 210.251556 
L 352.63572 209.538127 
L 356.526227 208.893715 
L 360.416734 208.179418 
L 364.307241 207.46901 
L 368.197748 206.651185 
L 372.088255 206.056695 
L 375.978762 205.350351 
L 379.869269 204.650405 
L 383.759776 203.931269 
L 387.650283 203.217105 
L 391.540791 202.442252 
L 395.431298 201.795714 
L 399.321805 201.113806 
L 403.212312 200.396881 
L 407.102819 199.735033 
L 410.993326 199.023125 
L 414.883833 198.373339 
L 418.77434 197.764752 
L 422.664847 197.205796 
L 426.555354 196.808509 
L 426.555354 189.007888 
L 426.555354 189.007888 
L 422.664847 189.278291 
L 418.77434 189.782884 
L 414.883833 190.331287 
L 410.993326 190.901354 
L 407.102819 191.467063 
L 403.212312 192.057348 
L 399.321805 192.803226 
L 395.431298 193.431215 
L 391.540791 194.126854 
L 387.650283 194.763836 
L 383.759776 195.364666 
L 379.869269 195.943534 
L 375.978762 196.638434 
L 372.088255 197.281063 
L 368.197748 197.899629 
L 364.307241 198.536113 
L 360.416734 199.256228 
L 356.526227 199.972455 
L 352.63572 200.626047 
L 348.745213 201.314259 
L 344.854706 202.098788 
L 340.964198 202.842794 
L 337.073691 203.561041 
L 333.183184 204.334718 
L 329.292677 205.030334 
L 325.40217 205.673728 
L 321.511663 206.436121 
L 317.621156 207.197747 
L 313.730649 207.902354 
L 309.840142 208.650931 
L 305.949635 209.198571 
L 302.059128 209.8772 
L 298.16862 210.495397 
L 294.278113 211.107624 
L 290.387606 211.787235 
L 286.497099 212.477565 
L 282.606592 213.115065 
L 278.716085 213.72594 
L 274.825578 214.235844 
L 270.935071 214.883001 
L 267.044564 215.421746 
L 263.154057 216.042734 
L 259.26355 216.659799 
L 255.373043 217.215302 
L 251.482535 217.78128 
L 247.592028 218.4054 
L 243.701521 219.099769 
L 239.811014 219.659419 
L 235.920507 220.228484 
L 232.03 220.706911 
L 228.139493 221.214264 
L 224.248986 221.810951 
L 220.358479 222.296844 
L 216.467972 222.8604 
L 212.577465 223.502439 
L 208.686957 224.01968 
L 204.79645 224.474556 
L 200.905943 224.975055 
L 197.015436 225.367965 
L 193.124929 225.652089 
L 189.234422 226.219191 
L 185.343915 226.726291 
L 181.453408 227.149594 
L 177.562901 227.595902 
L 173.672394 228.028961 
L 169.781887 228.391717 
L 165.89138 228.740215 
L 162.000872 228.975043 
L 158.110365 229.444322 
L 154.219858 229.666058 
L 150.329351 230.043426 
L 146.438844 230.391914 
L 142.548337 230.736571 
L 138.65783 231.239188 
L 134.767323 231.585619 
L 130.876816 231.999462 
L 126.986309 232.275978 
L 123.095802 232.463465 
L 119.205294 232.760234 
L 115.314787 232.845778 
L 111.42428 232.946356 
L 107.533773 233.021512 
L 103.643266 233.232816 
L 99.752759 233.144002 
L 95.862252 233.042203 
L 91.971745 233.038962 
L 88.081238 232.996562 
L 84.190731 232.554005 
L 80.300224 232.011671 
L 76.409717 231.20753 
L 72.519209 230.116936 
L 68.628702 228.586037 
L 64.738195 226.609802 
L 60.847688 224.067334 
L 56.957181 220.566573 
L 53.066674 215.701012 
L 49.176167 209.331766 
L 45.28566 200.352383 
L 41.395153 188.437978 
L 37.504646 173.579995 
z
" style="fill:#008000;fill-opacity:0.3;"/>
   </g>
   <g id="line2d_12">
    <path clip-path="url(#p7774cb7042)" d="M 37.504646 173.579995 
L 41.395153 191.771595 
L 45.28566 204.16295 
L 49.176167 213.085032 
L 53.066674 219.531731 
L 56.957181 224.32959 
L 60.847688 227.874467 
L 64.738195 230.438196 
L 68.628702 232.360568 
L 72.519209 233.833565 
L 76.409717 234.909855 
L 80.300224 235.677785 
L 84.190731 236.225699 
L 88.081238 236.607964 
L 91.971745 236.834775 
L 95.862252 236.866206 
L 99.752759 236.916325 
L 103.643266 236.903583 
L 107.533773 236.789753 
L 111.42428 236.674224 
L 115.314787 236.552748 
L 119.205294 236.40324 
L 123.095802 236.169633 
L 126.986309 235.950467 
L 130.876816 235.647203 
L 134.767323 235.22841 
L 138.65783 234.925146 
L 142.548337 234.555622 
L 146.438844 234.273595 
L 150.329351 233.893878 
L 154.219858 233.509064 
L 158.110365 233.273758 
L 162.000872 232.941612 
L 165.89138 232.657885 
L 169.781887 232.301104 
L 173.672394 231.975754 
L 177.562901 231.555261 
L 181.453408 231.125425 
L 185.343915 230.75845 
L 189.234422 230.262354 
L 193.124929 229.825721 
L 197.015436 229.46894 
L 200.905943 229.165676 
L 204.79645 228.656838 
L 208.686957 228.19557 
L 212.577465 227.623871 
L 216.467972 227.018192 
L 220.358479 226.425255 
L 224.248986 225.946999 
L 228.139493 225.418622 
L 232.03 224.887698 
L 235.920507 224.353375 
L 239.811014 223.832645 
L 243.701521 223.275386 
L 247.592028 222.631481 
L 251.482535 222.099707 
L 255.373043 221.581524 
L 259.26355 221.070138 
L 263.154057 220.439824 
L 267.044564 219.772133 
L 270.935071 219.251402 
L 274.825578 218.636379 
L 278.716085 218.074873 
L 282.606592 217.417376 
L 286.497099 216.884753 
L 290.387606 216.206868 
L 294.278113 215.543425 
L 298.16862 214.89952 
L 302.059128 214.289594 
L 305.949635 213.635494 
L 309.840142 212.971202 
L 313.730649 212.287371 
L 317.621156 211.608637 
L 321.511663 210.886579 
L 325.40217 210.16707 
L 329.292677 209.495982 
L 333.183184 208.759483 
L 337.073691 208.004296 
L 340.964198 207.267797 
L 344.854706 206.560181 
L 348.745213 205.782907 
L 352.63572 205.082087 
L 356.526227 204.433085 
L 360.416734 203.717823 
L 364.307241 203.002561 
L 368.197748 202.275407 
L 372.088255 201.668879 
L 375.978762 200.994392 
L 379.869269 200.29697 
L 383.759776 199.647967 
L 387.650283 198.99047 
L 391.540791 198.284553 
L 395.431298 197.613464 
L 399.321805 196.958516 
L 403.212312 196.227114 
L 407.102819 195.601048 
L 410.993326 194.962239 
L 414.883833 194.352313 
L 418.77434 193.773818 
L 422.664847 193.242044 
L 426.555354 192.908198 
" style="fill:none;stroke:#008000;stroke-linecap:round;"/>
   </g>
   <g id="patch_3">
    <path d="M 37.504646 258.685354 
L 37.504646 2.834646 
" style="fill:none;stroke:#000000;stroke-linecap:square;stroke-linejoin:miter;stroke-width:0.8;"/>
   </g>
   <g id="patch_4">
    <path d="M 426.555354 258.685354 
L 426.555354 2.834646 
" style="fill:none;stroke:#000000;stroke-linecap:square;stroke-linejoin:miter;stroke-width:0.8;"/>
   </g>
   <g id="patch_5">
    <path d="M 37.504646 258.685354 
L 426.555354 258.685354 
" style="fill:none;stroke:#000000;stroke-linecap:square;stroke-linejoin:miter;stroke-width:0.8;"/>
   </g>
   <g id="patch_6">
    <path d="M 37.504646 2.834646 
L 426.555354 2.834646 
" style="fill:none;stroke:#000000;stroke-linecap:square;stroke-linejoin:miter;stroke-width:0.8;"/>
   </g>
   <g id="PolyCollection_3">
    <path clip-path="url(#p7774cb7042)" d="M 37.504646 258.52793 
L 37.504646 258.52793 
L 41.395153 243.669946 
L 45.28566 231.755542 
L 49.176167 222.776159 
L 53.066674 216.406912 
L 56.957181 211.541351 
L 60.847688 208.04059 
L 64.738195 205.498122 
L 68.628702 203.521888 
L 72.519209 201.990989 
L 76.409717 200.900395 
L 80.300224 200.096253 
L 84.190731 199.553919 
L 88.081238 199.111362 
L 91.971745 199.068962 
L 95.862252 199.065721 
L 99.752759 198.963922 
L 103.643266 198.875108 
L 107.533773 199.086412 
L 111.42428 199.161568 
L 115.314787 199.262147 
L 119.205294 199.34769 
L 123.095802 199.644459 
L 126.986309 199.831946 
L 130.876816 200.108462 
L 134.767323 200.522306 
L 138.65783 200.868736 
L 142.548337 201.371353 
L 146.438844 201.716011 
L 150.329351 202.064498 
L 154.219858 202.441866 
L 158.110365 202.663602 
L 162.000872 203.132881 
L 165.89138 203.367709 
L 169.781887 203.716207 
L 173.672394 204.078963 
L 177.562901 204.512022 
L 181.453408 204.95833 
L 185.343915 205.381633 
L 189.234422 205.888733 
L 193.124929 206.455836 
L 197.015436 206.739959 
L 200.905943 207.13287 
L 204.79645 207.633368 
L 208.686957 208.088244 
L 212.577465 208.605485 
L 216.467972 209.247524 
L 220.358479 209.811081 
L 224.248986 210.296973 
L 228.139493 210.89366 
L 232.03 211.401013 
L 235.920507 211.879441 
L 239.811014 212.448505 
L 243.701521 213.008156 
L 247.592028 213.702524 
L 251.482535 214.326645 
L 255.373043 214.892622 
L 259.26355 215.448125 
L 263.154057 216.06519 
L 267.044564 216.686179 
L 270.935071 217.224923 
L 274.825578 217.87208 
L 278.716085 218.381984 
L 282.606592 218.992859 
L 286.497099 219.630359 
L 290.387606 220.32069 
L 294.278113 221.0003 
L 298.16862 221.612527 
L 302.059128 222.230724 
L 305.949635 222.909353 
L 309.840142 223.456993 
L 313.730649 224.20557 
L 317.621156 224.910178 
L 321.511663 225.671803 
L 325.40217 226.434197 
L 329.292677 227.07759 
L 333.183184 227.773206 
L 337.073691 228.546883 
L 340.964198 229.265131 
L 344.854706 230.009136 
L 348.745213 230.793665 
L 352.63572 231.481878 
L 356.526227 232.13547 
L 360.416734 232.851696 
L 364.307241 233.571811 
L 368.197748 234.208295 
L 372.088255 234.826861 
L 375.978762 235.46949 
L 379.869269 236.16439 
L 383.759776 236.743258 
L 387.650283 237.344088 
L 391.540791 237.98107 
L 395.431298 238.676709 
L 399.321805 239.304699 
L 403.212312 240.050577 
L 407.102819 240.640862 
L 410.993326 241.20657 
L 414.883833 241.776637 
L 418.77434 242.32504 
L 422.664847 242.829633 
L 426.555354 243.100036 
L 426.555354 235.299416 
L 426.555354 235.299416 
L 422.664847 234.902128 
L 418.77434 234.343173 
L 414.883833 233.734585 
L 410.993326 233.084799 
L 407.102819 232.372891 
L 403.212312 231.711044 
L 399.321805 230.994118 
L 395.431298 230.31221 
L 391.540791 229.665672 
L 387.650283 228.890819 
L 383.759776 228.176655 
L 379.869269 227.457519 
L 375.978762 226.757574 
L 372.088255 226.05123 
L 368.197748 225.456739 
L 364.307241 224.638915 
L 360.416734 223.928507 
L 356.526227 223.21421 
L 352.63572 222.569797 
L 348.745213 221.856369 
L 344.854706 221.08635 
L 340.964198 220.415124 
L 337.073691 219.660374 
L 333.183184 218.923676 
L 329.292677 218.146296 
L 325.40217 217.447511 
L 321.511663 216.770887 
L 317.621156 216.088397 
L 313.730649 215.435537 
L 309.840142 214.816452 
L 305.949635 214.035506 
L 302.059128 213.405938 
L 298.16862 212.804282 
L 294.278113 212.128698 
L 290.387606 211.481422 
L 286.497099 210.815983 
L 282.606592 210.388237 
L 278.716085 209.684117 
L 274.825578 209.071009 
L 270.935071 208.48812 
L 267.044564 207.985403 
L 263.154057 207.271011 
L 259.26355 206.627448 
L 255.373043 206.160178 
L 251.482535 205.689791 
L 247.592028 205.250363 
L 243.701521 204.656921 
L 239.811014 204.102054 
L 235.920507 203.629657 
L 232.03 203.03944 
L 228.139493 202.484944 
L 224.248986 202.024878 
L 220.358479 201.554257 
L 216.467972 200.93194 
L 212.577465 200.362622 
L 208.686957 199.736464 
L 204.79645 199.268805 
L 200.905943 198.751627 
L 197.015436 198.53801 
L 193.124929 198.10857 
L 189.234422 197.802408 
L 185.343915 197.317316 
L 181.453408 197.006669 
L 177.562901 196.593304 
L 173.672394 196.185378 
L 169.781887 195.897433 
L 165.89138 195.532368 
L 162.000872 195.199744 
L 158.110365 195.004731 
L 154.219858 194.755855 
L 150.329351 194.363595 
L 146.438844 193.952648 
L 142.548337 193.733251 
L 138.65783 193.496821 
L 134.767323 193.236723 
L 130.876816 192.81298 
L 126.986309 192.482967 
L 123.095802 192.232123 
L 119.205294 192.061679 
L 115.314787 191.848205 
L 111.42428 191.705833 
L 107.533773 191.54993 
L 103.643266 191.533574 
L 99.752759 191.419275 
L 95.862252 191.417715 
L 91.971745 191.477335 
L 88.081238 191.888558 
L 84.190731 192.210532 
L 80.300224 192.764026 
L 76.409717 193.495743 
L 72.519209 194.55773 
L 68.628702 195.972826 
L 64.738195 197.841335 
L 60.847688 200.426324 
L 56.957181 204.015317 
L 53.066674 208.745475 
L 49.176167 215.269626 
L 45.28566 224.134406 
L 41.395153 237.002713 
L 37.504646 258.52793 
z
" style="fill:#ffa500;fill-opacity:0.3;"/>
   </g>
   <g id="line2d_13">
    <path clip-path="url(#p7774cb7042)" d="M 37.504646 258.52793 
L 41.395153 240.336329 
L 45.28566 227.944974 
L 49.176167 219.022892 
L 53.066674 212.576194 
L 56.957181 207.778334 
L 60.847688 204.233457 
L 64.738195 201.669728 
L 68.628702 199.747357 
L 72.519209 198.274359 
L 76.409717 197.198069 
L 80.300224 196.43014 
L 84.190731 195.882226 
L 88.081238 195.49996 
L 91.971745 195.273149 
L 95.862252 195.241718 
L 99.752759 195.191599 
L 103.643266 195.204341 
L 107.533773 195.318171 
L 111.42428 195.4337 
L 115.314787 195.555176 
L 119.205294 195.704684 
L 123.095802 195.938291 
L 126.986309 196.157457 
L 130.876816 196.460721 
L 134.767323 196.879514 
L 138.65783 197.182778 
L 142.548337 197.552302 
L 146.438844 197.834329 
L 150.329351 198.214046 
L 154.219858 198.59886 
L 158.110365 198.834166 
L 162.000872 199.166313 
L 165.89138 199.450039 
L 169.781887 199.80682 
L 173.672394 200.132171 
L 177.562901 200.552663 
L 181.453408 200.9825 
L 185.343915 201.349475 
L 189.234422 201.845571 
L 193.124929 202.282203 
L 197.015436 202.638984 
L 200.905943 202.942248 
L 204.79645 203.451087 
L 208.686957 203.912354 
L 212.577465 204.484053 
L 216.467972 205.089732 
L 220.358479 205.682669 
L 224.248986 206.160926 
L 228.139493 206.689302 
L 232.03 207.220226 
L 235.920507 207.754549 
L 239.811014 208.27528 
L 243.701521 208.832538 
L 247.592028 209.476444 
L 251.482535 210.008218 
L 255.373043 210.5264 
L 259.26355 211.037787 
L 263.154057 211.6681 
L 267.044564 212.335791 
L 270.935071 212.856522 
L 274.825578 213.471545 
L 278.716085 214.033051 
L 282.606592 214.690548 
L 286.497099 215.223171 
L 290.387606 215.901056 
L 294.278113 216.564499 
L 298.16862 217.208405 
L 302.059128 217.818331 
L 305.949635 218.47243 
L 309.840142 219.136723 
L 313.730649 219.820554 
L 317.621156 220.499288 
L 321.511663 221.221345 
L 325.40217 221.940854 
L 329.292677 222.611943 
L 333.183184 223.348441 
L 337.073691 224.103628 
L 340.964198 224.840127 
L 344.854706 225.547743 
L 348.745213 226.325017 
L 352.63572 227.025837 
L 356.526227 227.67484 
L 360.416734 228.390101 
L 364.307241 229.105363 
L 368.197748 229.832517 
L 372.088255 230.439045 
L 375.978762 231.113532 
L 379.869269 231.810955 
L 383.759776 232.459957 
L 387.650283 233.117454 
L 391.540791 233.823371 
L 395.431298 234.49446 
L 399.321805 235.149408 
L 403.212312 235.88081 
L 407.102819 236.506876 
L 410.993326 237.145685 
L 414.883833 237.755611 
L 418.77434 238.334106 
L 422.664847 238.865881 
L 426.555354 239.199726 
" style="fill:none;stroke:#ffa500;stroke-linecap:round;"/>
   </g>
   <g id="PolyCollection_4">
    <path clip-path="url(#p7774cb7042)" d="M 37.504646 258.52793 
L 37.504646 258.52793 
L 41.395153 258.685354 
L 45.28566 257.915573 
L 49.176167 256.702028 
L 53.066674 254.948648 
L 56.957181 252.948904 
L 60.847688 250.572491 
L 64.738195 248.016347 
L 68.628702 245.502887 
L 72.519209 242.719155 
L 76.409717 239.92239 
L 80.300224 237.074066 
L 84.190731 234.236949 
L 88.081238 231.304783 
L 91.971745 228.345656 
L 95.862252 225.285205 
L 99.752759 222.287227 
L 103.643266 219.394074 
L 107.533773 216.268631 
L 111.42428 213.18958 
L 115.314787 210.179585 
L 119.205294 207.126844 
L 123.095802 204.159013 
L 126.986309 201.021441 
L 130.876816 198.065618 
L 134.767323 194.998957 
L 138.65783 191.952366 
L 142.548337 188.91302 
L 146.438844 186.017208 
L 150.329351 182.983588 
L 154.219858 180.038574 
L 158.110365 177.212867 
L 162.000872 174.366927 
L 165.89138 171.589465 
L 169.781887 168.63113 
L 173.672394 165.875719 
L 177.562901 163.062293 
L 181.453408 160.287637 
L 185.343915 157.523737 
L 189.234422 154.695356 
L 193.124929 152.007785 
L 197.015436 149.230575 
L 200.905943 146.572813 
L 204.79645 143.897442 
L 208.686957 141.083302 
L 212.577465 138.324656 
L 216.467972 135.571523 
L 220.358479 132.849116 
L 224.248986 130.118161 
L 228.139493 127.503829 
L 232.03 124.901579 
L 235.920507 122.252343 
L 239.811014 119.831987 
L 243.701521 117.305876 
L 247.592028 114.763706 
L 251.482535 112.345537 
L 255.373043 109.905979 
L 259.26355 107.536331 
L 263.154057 105.05837 
L 267.044564 102.598675 
L 270.935071 100.334906 
L 274.825578 97.968138 
L 278.716085 95.723235 
L 282.606592 93.541661 
L 286.497099 91.353961 
L 290.387606 89.239052 
L 294.278113 87.015835 
L 298.16862 84.848 
L 302.059128 82.707099 
L 305.949635 80.646961 
L 309.840142 78.573986 
L 313.730649 76.608128 
L 317.621156 74.677846 
L 321.511663 72.714133 
L 325.40217 70.794229 
L 329.292677 68.854392 
L 333.183184 66.93463 
L 337.073691 65.068201 
L 340.964198 63.21566 
L 344.854706 61.60376 
L 348.745213 59.862544 
L 352.63572 58.225918 
L 356.526227 56.576146 
L 360.416734 54.910655 
L 364.307241 53.342921 
L 368.197748 51.754463 
L 372.088255 50.352373 
L 375.978762 48.828192 
L 379.869269 47.386819 
L 383.759776 45.956605 
L 387.650283 44.563023 
L 391.540791 43.151487 
L 395.431298 41.816535 
L 399.321805 40.604902 
L 403.212312 39.287127 
L 407.102819 38.116123 
L 410.993326 36.887973 
L 414.883833 35.720115 
L 418.77434 34.622687 
L 422.664847 33.622284 
L 426.555354 32.980784 
L 426.555354 22.987879 
L 426.555354 22.987879 
L 422.664847 23.401432 
L 418.77434 24.230808 
L 414.883833 25.104172 
L 410.993326 26.039624 
L 407.102819 27.0541 
L 403.212312 28.12912 
L 399.321805 29.307114 
L 395.431298 30.424754 
L 391.540791 31.592368 
L 387.650283 32.703785 
L 383.759776 33.935095 
L 379.869269 35.151858 
L 375.978762 36.488283 
L 372.088255 37.797965 
L 368.197748 39.180469 
L 364.307241 40.551596 
L 360.416734 42.035192 
L 356.526227 43.529765 
L 352.63572 44.972098 
L 348.745213 46.505728 
L 344.854706 48.070686 
L 340.964198 49.710592 
L 337.073691 51.340917 
L 333.183184 53.145938 
L 329.292677 54.929906 
L 325.40217 56.668314 
L 321.511663 58.515002 
L 317.621156 60.380742 
L 313.730649 62.302 
L 309.840142 64.252241 
L 305.949635 66.114054 
L 302.059128 68.136514 
L 298.16862 70.129179 
L 294.278113 72.103406 
L 290.387606 74.248211 
L 286.497099 76.421474 
L 282.606592 78.469279 
L 278.716085 80.647232 
L 274.825578 82.817923 
L 270.935071 85.004365 
L 267.044564 87.219051 
L 263.154057 89.625174 
L 259.26355 92.021525 
L 255.373043 94.359691 
L 251.482535 96.733283 
L 247.592028 99.101081 
L 243.701521 101.730541 
L 239.811014 104.289413 
L 235.920507 106.933653 
L 232.03 109.411875 
L 228.139493 112.00674 
L 224.248986 114.710148 
L 220.358479 117.227277 
L 216.467972 119.934742 
L 212.577465 122.687934 
L 208.686957 125.557938 
L 204.79645 128.253521 
L 200.905943 131.065786 
L 197.015436 133.822606 
L 193.124929 136.57041 
L 189.234422 139.513188 
L 185.343915 142.48845 
L 181.453408 145.36849 
L 177.562901 148.346508 
L 173.672394 151.311241 
L 169.781887 154.349279 
L 165.89138 157.372977 
L 162.000872 160.281931 
L 158.110365 163.40953 
L 154.219858 166.426541 
L 150.329351 169.577391 
L 146.438844 172.727981 
L 142.548337 175.820998 
L 138.65783 179.088186 
L 134.767323 182.285269 
L 130.876816 185.537035 
L 126.986309 188.88265 
L 123.095802 192.111077 
L 119.205294 195.342746 
L 115.314787 198.528581 
L 111.42428 201.870992 
L 107.533773 205.205511 
L 103.643266 208.564993 
L 99.752759 211.85605 
L 95.862252 215.19009 
L 91.971745 218.583984 
L 88.081238 221.972167 
L 84.190731 225.22591 
L 80.300224 228.634165 
L 76.409717 232.031213 
L 72.519209 235.376183 
L 68.628702 238.481042 
L 64.738195 241.774623 
L 60.847688 244.969454 
L 56.957181 247.910781 
L 53.066674 250.717392 
L 49.176167 253.350724 
L 45.28566 255.540192 
L 41.395153 257.33414 
L 37.504646 258.52793 
z
" style="fill:#ff0000;fill-opacity:0.3;"/>
   </g>
   <g id="line2d_14">
    <path clip-path="url(#p7774cb7042)" d="M 37.504646 258.52793 
L 41.395153 258.009747 
L 45.28566 256.727883 
L 49.176167 255.026376 
L 53.066674 252.83302 
L 56.957181 250.429843 
L 60.847688 247.770973 
L 64.738195 244.895485 
L 68.628702 241.991965 
L 72.519209 239.047669 
L 76.409717 235.976801 
L 80.300224 232.854115 
L 84.190731 229.731429 
L 88.081238 226.638475 
L 91.971745 223.46482 
L 95.862252 220.237648 
L 99.752759 217.071638 
L 103.643266 213.979534 
L 107.533773 210.737071 
L 111.42428 207.530286 
L 115.314787 204.354083 
L 119.205294 201.234795 
L 123.095802 198.135045 
L 126.986309 194.952046 
L 130.876816 191.801327 
L 134.767323 188.642113 
L 138.65783 185.520276 
L 142.548337 182.367009 
L 146.438844 179.372594 
L 150.329351 176.28049 
L 154.219858 173.232558 
L 158.110365 170.311198 
L 162.000872 167.324429 
L 165.89138 164.481221 
L 169.781887 161.490205 
L 173.672394 158.59348 
L 177.562901 155.704401 
L 181.453408 152.828064 
L 185.343915 150.006093 
L 189.234422 147.104272 
L 193.124929 144.289097 
L 197.015436 141.52659 
L 200.905943 138.8193 
L 204.79645 136.075481 
L 208.686957 133.32062 
L 212.577465 130.506295 
L 216.467972 127.753132 
L 220.358479 125.038196 
L 224.248986 122.414155 
L 228.139493 119.755284 
L 232.03 117.156727 
L 235.920507 114.592998 
L 239.811014 112.0607 
L 243.701521 109.518209 
L 247.592028 106.932393 
L 251.482535 104.53941 
L 255.373043 102.132835 
L 259.26355 99.778928 
L 263.154057 97.341772 
L 267.044564 94.908863 
L 270.935071 92.669635 
L 274.825578 90.393031 
L 278.716085 88.185234 
L 282.606592 86.00547 
L 286.497099 83.887718 
L 290.387606 81.743632 
L 294.278113 79.55962 
L 298.16862 77.48859 
L 302.059128 75.421807 
L 305.949635 73.380508 
L 309.840142 71.413113 
L 313.730649 69.455064 
L 317.621156 67.529294 
L 321.511663 65.614567 
L 325.40217 63.731272 
L 329.292677 61.892149 
L 333.183184 60.040284 
L 337.073691 58.204559 
L 340.964198 56.463126 
L 344.854706 54.837223 
L 348.745213 53.184136 
L 352.63572 51.599008 
L 356.526227 50.052955 
L 360.416734 48.472924 
L 364.307241 46.947259 
L 368.197748 45.467466 
L 372.088255 44.075169 
L 375.978762 42.658238 
L 379.869269 41.269339 
L 383.759776 39.94585 
L 387.650283 38.633404 
L 391.540791 37.371928 
L 395.431298 36.120644 
L 399.321805 34.956008 
L 403.212312 33.708123 
L 407.102819 32.585111 
L 410.993326 31.463799 
L 414.883833 30.412143 
L 418.77434 29.426747 
L 422.664847 28.511858 
L 426.555354 27.984331 
" style="fill:none;stroke:#ff0000;stroke-linecap:round;"/>
   </g>
   <g id="legend_1">
    <g id="patch_7">
     <path d="M 385.221604 155.445 
L 420.955354 155.445 
Q 422.555354 155.445 422.555354 153.845 
L 422.555354 107.675 
Q 422.555354 106.075 420.955354 106.075 
L 385.221604 106.075 
Q 383.621604 106.075 383.621604 107.675 
L 383.621604 153.845 
Q 383.621604 155.445 385.221604 155.445 
z
" style="fill:#ffffff;opacity:0.8;stroke:#000000;stroke-linejoin:miter;"/>
    </g>
    <g id="line2d_15">
     <path d="M 386.821604 112.55375 
L 402.821604 112.55375 
" style="fill:none;stroke:#0000ff;stroke-linecap:round;"/>
    </g>
    <g id="line2d_16"/>
    <g id="text_13">
     <!-- S -->
     <defs>
      <path d="M 53.515625 70.515625 
L 53.515625 60.890625 
Q 47.90625 63.578125 42.921875 64.890625 
Q 37.9375 66.21875 33.296875 66.21875 
Q 25.25 66.21875 20.875 63.09375 
Q 16.5 59.96875 16.5 54.203125 
Q 16.5 49.359375 19.40625 46.890625 
Q 22.3125 44.4375 30.421875 42.921875 
L 36.375 41.703125 
Q 47.40625 39.59375 52.65625 34.296875 
Q 57.90625 29 57.90625 20.125 
Q 57.90625 9.515625 50.796875 4.046875 
Q 43.703125 -1.421875 29.984375 -1.421875 
Q 24.8125 -1.421875 18.96875 -0.25 
Q 13.140625 0.921875 6.890625 3.21875 
L 6.890625 13.375 
Q 12.890625 10.015625 18.65625 8.296875 
Q 24.421875 6.59375 29.984375 6.59375 
Q 38.421875 6.59375 43.015625 9.90625 
Q 47.609375 13.234375 47.609375 19.390625 
Q 47.609375 24.75 44.3125 27.78125 
Q 41.015625 30.8125 33.5 32.328125 
L 27.484375 33.5 
Q 16.453125 35.6875 11.515625 40.375 
Q 6.59375 45.0625 6.59375 53.421875 
Q 6.59375 63.09375 13.40625 68.65625 
Q 20.21875 74.21875 32.171875 74.21875 
Q 37.3125 74.21875 42.625 73.28125 
Q 47.953125 72.359375 53.515625 70.515625 
" id="DejaVuSans-53"/>
     </defs>
     <g transform="translate(409.221604 115.35375)scale(0.08 -0.08)">
      <use xlink:href="#DejaVuSans-53"/>
     </g>
    </g>
    <g id="line2d_17">
     <path d="M 386.821604 124.29625 
L 402.821604 124.29625 
" style="fill:none;stroke:#008000;stroke-linecap:round;"/>
    </g>
    <g id="line2d_18"/>
    <g id="text_14">
     <!-- E -->
     <defs>
      <path d="M 9.8125 72.90625 
L 55.90625 72.90625 
L 55.90625 64.59375 
L 19.671875 64.59375 
L 19.671875 43.015625 
L 54.390625 43.015625 
L 54.390625 34.71875 
L 19.671875 34.71875 
L 19.671875 8.296875 
L 56.78125 8.296875 
L 56.78125 0 
L 9.8125 0 
z
" id="DejaVuSans-45"/>
     </defs>
     <g transform="translate(409.221604 127.09625)scale(0.08 -0.08)">
      <use xlink:href="#DejaVuSans-45"/>
     </g>
    </g>
    <g id="line2d_19">
     <path d="M 386.821604 136.03875 
L 402.821604 136.03875 
" style="fill:none;stroke:#ffa500;stroke-linecap:round;"/>
    </g>
    <g id="line2d_20"/>
    <g id="text_15">
     <!-- SE -->
     <g transform="translate(409.221604 138.83875)scale(0.08 -0.08)">
      <use xlink:href="#DejaVuSans-53"/>
      <use x="63.476562" xlink:href="#DejaVuSans-45"/>
     </g>
    </g>
    <g id="line2d_21">
     <path d="M 386.821604 147.78125 
L 402.821604 147.78125 
" style="fill:none;stroke:#ff0000;stroke-linecap:round;"/>
    </g>
    <g id="line2d_22"/>
    <g id="text_16">
     <!-- P -->
     <defs>
      <path d="M 19.671875 64.796875 
L 19.671875 37.40625 
L 32.078125 37.40625 
Q 38.96875 37.40625 42.71875 40.96875 
Q 46.484375 44.53125 46.484375 51.125 
Q 46.484375 57.671875 42.71875 61.234375 
Q 38.96875 64.796875 32.078125 64.796875 
z
M 9.8125 72.90625 
L 32.078125 72.90625 
Q 44.34375 72.90625 50.609375 67.359375 
Q 56.890625 61.8125 56.890625 51.125 
Q 56.890625 40.328125 50.609375 34.8125 
Q 44.34375 29.296875 32.078125 29.296875 
L 19.671875 29.296875 
L 19.671875 0 
L 9.8125 0 
z
" id="DejaVuSans-50"/>
     </defs>
     <g transform="translate(409.221604 150.58125)scale(0.08 -0.08)">
      <use xlink:href="#DejaVuSans-50"/>
     </g>
    </g>
   </g>
  </g>
 </g>
 <defs>
  <clipPath id="p7774cb7042">
   <rect height="255.850709" width="389.050709" x="37.504646" y="2.834646"/>
  </clipPath>
 </defs>
</svg>
