<?xml version="1.0" encoding="utf-8" standalone="no"?>
<!DOCTYPE svg PUBLIC "-//W3C//DTD SVG 1.1//EN"
  "http://www.w3.org/Graphics/SVG/1.1/DTD/svg11.dtd">
<!-- Created with matplotlib (http://matplotlib.org/) -->
<svg height="288pt" version="1.1" viewBox="0 0 432 288" width="432pt" xmlns="http://www.w3.org/2000/svg" xmlns:xlink="http://www.w3.org/1999/xlink">
 <defs>
  <style type="text/css">
*{stroke-linecap:butt;stroke-linejoin:round;}
  </style>
 </defs>
 <g id="figure_1">
  <g id="patch_1">
   <path d="M 0 288 
L 432 288 
L 432 0 
L 0 0 
z
" style="fill:#ffffff;"/>
  </g>
  <g id="axes_1">
   <g id="patch_2">
    <path d="M 37.504646 258.685354 
L 426.555354 258.685354 
L 426.555354 2.834646 
L 37.504646 2.834646 
z
" style="fill:#ffffff;"/>
   </g>
   <g id="PolyCollection_1">
    <path clip-path="url(#p94758cdebd)" d="M 37.504646 2.834646 
L 37.504646 2.834646 
L 41.395153 25.197485 
L 45.28566 39.837472 
L 49.176167 50.564642 
L 53.066674 59.055816 
L 56.957181 66.008518 
L 60.847688 72.116082 
L 64.738195 77.486662 
L 68.628702 82.316881 
L 72.519209 86.788743 
L 76.409717 91.078612 
L 80.300224 94.933823 
L 84.190731 98.673547 
L 88.081238 102.297248 
L 91.971745 105.839334 
L 95.862252 109.11705 
L 99.752759 112.388053 
L 103.643266 115.650557 
L 107.533773 118.686223 
L 111.42428 121.945002 
L 115.314787 125.035023 
L 119.205294 128.107325 
L 123.095802 131.162906 
L 126.986309 134.06692 
L 130.876816 137.008753 
L 134.767323 139.948248 
L 138.65783 142.757927 
L 142.548337 145.61207 
L 146.438844 148.465863 
L 150.329351 151.136025 
L 154.219858 153.881052 
L 158.110365 156.572372 
L 162.000872 159.440637 
L 165.89138 162.108218 
L 169.781887 164.676017 
L 173.672394 167.268227 
L 177.562901 169.718277 
L 181.453408 172.085108 
L 185.343915 174.601917 
L 189.234422 177.053995 
L 193.124929 179.490106 
L 197.015436 181.950089 
L 200.905943 184.34471 
L 204.79645 186.749738 
L 208.686957 189.018997 
L 212.577465 191.161824 
L 216.467972 193.295752 
L 220.358479 195.438097 
L 224.248986 197.525355 
L 228.139493 199.595592 
L 232.03 201.581642 
L 235.920507 203.62487 
L 239.811014 205.673851 
L 243.701521 207.571992 
L 247.592028 209.379001 
L 251.482535 211.26717 
L 255.373043 213.151516 
L 259.26355 215.001959 
L 263.154057 216.747908 
L 267.044564 218.360509 
L 270.935071 220.063176 
L 274.825578 221.642366 
L 278.716085 223.227769 
L 282.606592 224.775822 
L 286.497099 226.216017 
L 290.387606 227.729358 
L 294.278113 229.217361 
L 298.16862 230.570983 
L 302.059128 231.927805 
L 305.949635 233.216972 
L 309.840142 234.51149 
L 313.730649 235.599686 
L 317.621156 236.738278 
L 321.511663 237.771334 
L 325.40217 238.809883 
L 329.292677 239.884478 
L 333.183184 240.825717 
L 337.073691 241.830392 
L 340.964198 242.723655 
L 344.854706 243.615949 
L 348.745213 244.482774 
L 352.63572 245.334998 
L 356.526227 246.097779 
L 360.416734 246.80124 
L 364.307241 247.530916 
L 368.197748 248.186917 
L 372.088255 248.806889 
L 375.978762 249.443078 
L 379.869269 250.019548 
L 383.759776 250.592006 
L 387.650283 251.109924 
L 391.540791 251.640856 
L 395.431298 252.171531 
L 399.321805 252.63375 
L 403.212312 253.067311 
L 407.102819 253.477937 
L 410.993326 253.896304 
L 414.883833 254.270662 
L 418.77434 254.644219 
L 422.664847 254.913885 
L 426.555354 255.047973 
L 426.555354 250.447754 
L 426.555354 250.447754 
L 422.664847 250.208055 
L 418.77434 249.745438 
L 414.883833 249.279673 
L 410.993326 248.72466 
L 407.102819 248.149093 
L 403.212312 247.587873 
L 399.321805 246.990122 
L 395.431298 246.397241 
L 391.540791 245.770875 
L 387.650283 245.030931 
L 383.759776 244.327245 
L 379.869269 243.628826 
L 375.978762 242.863061 
L 372.088255 242.100946 
L 368.197748 241.246158 
L 364.307241 240.440992 
L 360.416734 239.571878 
L 356.526227 238.635773 
L 352.63572 237.718211 
L 348.745213 236.791548 
L 344.854706 235.769049 
L 340.964198 234.685368 
L 337.073691 233.549986 
L 333.183184 232.390095 
L 329.292677 231.158271 
L 325.40217 229.8899 
L 321.511663 228.66194 
L 317.621156 227.280672 
L 313.730649 226.030423 
L 309.840142 224.576867 
L 305.949635 223.100263 
L 302.059128 221.708358 
L 298.16862 220.204009 
L 294.278113 218.721946 
L 290.387606 217.180574 
L 286.497099 215.586385 
L 282.606592 213.976817 
L 278.716085 212.374864 
L 274.825578 210.582591 
L 270.935071 208.797697 
L 267.044564 206.969774 
L 263.154057 205.253971 
L 259.26355 203.443846 
L 255.373043 201.595495 
L 251.482535 199.623037 
L 247.592028 197.622122 
L 243.701521 195.47888 
L 239.811014 193.482839 
L 235.920507 191.38788 
L 232.03 189.455372 
L 228.139493 187.401123 
L 224.248986 185.254362 
L 220.358479 183.184088 
L 216.467972 181.055066 
L 212.577465 178.866655 
L 208.686957 176.575007 
L 204.79645 174.250083 
L 200.905943 171.957287 
L 197.015436 169.630297 
L 193.124929 167.34828 
L 189.234422 164.916664 
L 185.343915 162.625044 
L 181.453408 160.165387 
L 177.562901 157.686578 
L 173.672394 155.189046 
L 169.781887 152.747022 
L 165.89138 150.175248 
L 162.000872 147.645489 
L 158.110365 145.095541 
L 154.219858 142.487579 
L 150.329351 139.875556 
L 146.438844 137.226048 
L 142.548337 134.450947 
L 138.65783 131.723768 
L 134.767323 128.94533 
L 130.876816 126.145494 
L 126.986309 123.502608 
L 123.095802 120.743747 
L 119.205294 117.879899 
L 115.314787 115.066752 
L 111.42428 112.103121 
L 107.533773 109.250481 
L 103.643266 106.227398 
L 99.752759 103.203482 
L 95.862252 100.058939 
L 91.971745 96.905817 
L 88.081238 93.526046 
L 84.190731 90.249976 
L 80.300224 86.694055 
L 76.409717 82.859446 
L 72.519209 78.830853 
L 68.628702 74.433766 
L 64.738195 69.50984 
L 60.847688 64.154428 
L 56.957181 57.950804 
L 53.066674 50.675809 
L 49.176167 42.032242 
L 45.28566 31.584372 
L 41.395153 18.530131 
L 37.504646 2.834646 
z
" style="fill:#0000ff;fill-opacity:0.3;"/>
   </g>
   <g id="line2d_1">
    <path clip-path="url(#p94758cdebd)" d="M 37.504646 2.834646 
L 41.395153 21.863808 
L 45.28566 35.710922 
L 49.176167 46.298442 
L 53.066674 54.865813 
L 56.957181 61.979661 
L 60.847688 68.135255 
L 64.738195 73.498251 
L 68.628702 78.375323 
L 72.519209 82.809798 
L 76.409717 86.969029 
L 80.300224 90.813939 
L 84.190731 94.461762 
L 88.081238 97.911647 
L 91.971745 101.372576 
L 95.862252 104.587994 
L 99.752759 107.795768 
L 103.643266 110.938977 
L 107.533773 113.968352 
L 111.42428 117.024062 
L 115.314787 120.050888 
L 119.205294 122.993612 
L 123.095802 125.953326 
L 126.986309 128.784764 
L 130.876816 131.577123 
L 134.767323 134.446789 
L 138.65783 137.240848 
L 142.548337 140.031508 
L 146.438844 142.845956 
L 150.329351 145.505791 
L 154.219858 148.184315 
L 158.110365 150.833956 
L 162.000872 153.543063 
L 165.89138 156.141733 
L 169.781887 158.71152 
L 173.672394 161.228636 
L 177.562901 163.702427 
L 181.453408 166.125247 
L 185.343915 168.61348 
L 189.234422 170.985329 
L 193.124929 173.419193 
L 197.015436 175.790193 
L 200.905943 178.150998 
L 204.79645 180.499911 
L 208.686957 182.797002 
L 212.577465 185.01424 
L 216.467972 187.175409 
L 220.358479 189.311092 
L 224.248986 191.389858 
L 228.139493 193.498358 
L 232.03 195.518507 
L 235.920507 197.506375 
L 239.811014 199.578345 
L 243.701521 201.525436 
L 247.592028 203.500561 
L 251.482535 205.445104 
L 255.373043 207.373505 
L 259.26355 209.222902 
L 263.154057 211.000939 
L 267.044564 212.665142 
L 270.935071 214.430436 
L 274.825578 216.112478 
L 278.716085 217.801316 
L 282.606592 219.376319 
L 286.497099 220.901201 
L 290.387606 222.454966 
L 294.278113 223.969653 
L 298.16862 225.387496 
L 302.059128 226.818081 
L 305.949635 228.158618 
L 309.840142 229.544179 
L 313.730649 230.815055 
L 317.621156 232.009475 
L 321.511663 233.216637 
L 325.40217 234.349892 
L 329.292677 235.521374 
L 333.183184 236.607906 
L 337.073691 237.690189 
L 340.964198 238.704512 
L 344.854706 239.692499 
L 348.745213 240.637161 
L 352.63572 241.526604 
L 356.526227 242.366776 
L 360.416734 243.186559 
L 364.307241 243.985954 
L 368.197748 244.716538 
L 372.088255 245.453918 
L 375.978762 246.153069 
L 379.869269 246.824187 
L 383.759776 247.459625 
L 387.650283 248.070427 
L 391.540791 248.705866 
L 395.431298 249.284386 
L 399.321805 249.811936 
L 403.212312 250.327592 
L 407.102819 250.813515 
L 410.993326 251.310482 
L 414.883833 251.775167 
L 418.77434 252.194828 
L 422.664847 252.56097 
L 426.555354 252.747863 
" style="fill:none;stroke:#0000ff;stroke-linecap:round;"/>
   </g>
   <g id="matplotlib.axis_1">
    <g id="xtick_1">
     <g id="line2d_2">
      <defs>
       <path d="M 0 0 
L 0 3.5 
" id="mac8cfd0c07" style="stroke:#000000;stroke-width:0.8;"/>
      </defs>
      <g>
       <use style="stroke:#000000;stroke-width:0.8;" x="37.504646" xlink:href="#mac8cfd0c07" y="258.685354"/>
      </g>
     </g>
     <g id="text_1">
      <!-- 0 -->
      <defs>
       <path d="M 31.78125 66.40625 
Q 24.171875 66.40625 20.328125 58.90625 
Q 16.5 51.421875 16.5 36.375 
Q 16.5 21.390625 20.328125 13.890625 
Q 24.171875 6.390625 31.78125 6.390625 
Q 39.453125 6.390625 43.28125 13.890625 
Q 47.125 21.390625 47.125 36.375 
Q 47.125 51.421875 43.28125 58.90625 
Q 39.453125 66.40625 31.78125 66.40625 
M 31.78125 74.21875 
Q 44.046875 74.21875 50.515625 64.515625 
Q 56.984375 54.828125 56.984375 36.375 
Q 56.984375 17.96875 50.515625 8.265625 
Q 44.046875 -1.421875 31.78125 -1.421875 
Q 19.53125 -1.421875 13.0625 8.265625 
Q 6.59375 17.96875 6.59375 36.375 
Q 6.59375 54.828125 13.0625 64.515625 
Q 19.53125 74.21875 31.78125 74.21875 
" id="DejaVuSans-30"/>
      </defs>
      <g transform="translate(34.959646 271.764104)scale(0.08 -0.08)">
       <use xlink:href="#DejaVuSans-30"/>
      </g>
     </g>
    </g>
    <g id="xtick_2">
     <g id="line2d_3">
      <g>
       <use style="stroke:#000000;stroke-width:0.8;" x="115.314787" xlink:href="#mac8cfd0c07" y="258.685354"/>
      </g>
     </g>
     <g id="text_2">
      <!-- 10 -->
      <defs>
       <path d="M 12.40625 8.296875 
L 28.515625 8.296875 
L 28.515625 63.921875 
L 10.984375 60.40625 
L 10.984375 69.390625 
L 28.421875 72.90625 
L 38.28125 72.90625 
L 38.28125 8.296875 
L 54.390625 8.296875 
L 54.390625 0 
L 12.40625 0 
z
" id="DejaVuSans-31"/>
      </defs>
      <g transform="translate(110.224787 271.764104)scale(0.08 -0.08)">
       <use xlink:href="#DejaVuSans-31"/>
       <use x="63.623047" xlink:href="#DejaVuSans-30"/>
      </g>
     </g>
    </g>
    <g id="xtick_3">
     <g id="line2d_4">
      <g>
       <use style="stroke:#000000;stroke-width:0.8;" x="193.124929" xlink:href="#mac8cfd0c07" y="258.685354"/>
      </g>
     </g>
     <g id="text_3">
      <!-- 20 -->
      <defs>
       <path d="M 19.1875 8.296875 
L 53.609375 8.296875 
L 53.609375 0 
L 7.328125 0 
L 7.328125 8.296875 
Q 12.9375 14.109375 22.625 23.890625 
Q 32.328125 33.6875 34.8125 36.53125 
Q 39.546875 41.84375 41.421875 45.53125 
Q 43.3125 49.21875 43.3125 52.78125 
Q 43.3125 58.59375 39.234375 62.25 
Q 35.15625 65.921875 28.609375 65.921875 
Q 23.96875 65.921875 18.8125 64.3125 
Q 13.671875 62.703125 7.8125 59.421875 
L 7.8125 69.390625 
Q 13.765625 71.78125 18.9375 73 
Q 24.125 74.21875 28.421875 74.21875 
Q 39.75 74.21875 46.484375 68.546875 
Q 53.21875 62.890625 53.21875 53.421875 
Q 53.21875 48.921875 51.53125 44.890625 
Q 49.859375 40.875 45.40625 35.40625 
Q 44.1875 33.984375 37.640625 27.21875 
Q 31.109375 20.453125 19.1875 8.296875 
" id="DejaVuSans-32"/>
      </defs>
      <g transform="translate(188.034929 271.764104)scale(0.08 -0.08)">
       <use xlink:href="#DejaVuSans-32"/>
       <use x="63.623047" xlink:href="#DejaVuSans-30"/>
      </g>
     </g>
    </g>
    <g id="xtick_4">
     <g id="line2d_5">
      <g>
       <use style="stroke:#000000;stroke-width:0.8;" x="270.935071" xlink:href="#mac8cfd0c07" y="258.685354"/>
      </g>
     </g>
     <g id="text_4">
      <!-- 30 -->
      <defs>
       <path d="M 40.578125 39.3125 
Q 47.65625 37.796875 51.625 33 
Q 55.609375 28.21875 55.609375 21.1875 
Q 55.609375 10.40625 48.1875 4.484375 
Q 40.765625 -1.421875 27.09375 -1.421875 
Q 22.515625 -1.421875 17.65625 -0.515625 
Q 12.796875 0.390625 7.625 2.203125 
L 7.625 11.71875 
Q 11.71875 9.328125 16.59375 8.109375 
Q 21.484375 6.890625 26.8125 6.890625 
Q 36.078125 6.890625 40.9375 10.546875 
Q 45.796875 14.203125 45.796875 21.1875 
Q 45.796875 27.640625 41.28125 31.265625 
Q 36.765625 34.90625 28.71875 34.90625 
L 20.21875 34.90625 
L 20.21875 43.015625 
L 29.109375 43.015625 
Q 36.375 43.015625 40.234375 45.921875 
Q 44.09375 48.828125 44.09375 54.296875 
Q 44.09375 59.90625 40.109375 62.90625 
Q 36.140625 65.921875 28.71875 65.921875 
Q 24.65625 65.921875 20.015625 65.03125 
Q 15.375 64.15625 9.8125 62.3125 
L 9.8125 71.09375 
Q 15.4375 72.65625 20.34375 73.4375 
Q 25.25 74.21875 29.59375 74.21875 
Q 40.828125 74.21875 47.359375 69.109375 
Q 53.90625 64.015625 53.90625 55.328125 
Q 53.90625 49.265625 50.4375 45.09375 
Q 46.96875 40.921875 40.578125 39.3125 
" id="DejaVuSans-33"/>
      </defs>
      <g transform="translate(265.845071 271.764104)scale(0.08 -0.08)">
       <use xlink:href="#DejaVuSans-33"/>
       <use x="63.623047" xlink:href="#DejaVuSans-30"/>
      </g>
     </g>
    </g>
    <g id="xtick_5">
     <g id="line2d_6">
      <g>
       <use style="stroke:#000000;stroke-width:0.8;" x="348.745213" xlink:href="#mac8cfd0c07" y="258.685354"/>
      </g>
     </g>
     <g id="text_5">
      <!-- 40 -->
      <defs>
       <path d="M 37.796875 64.3125 
L 12.890625 25.390625 
L 37.796875 25.390625 
z
M 35.203125 72.90625 
L 47.609375 72.90625 
L 47.609375 25.390625 
L 58.015625 25.390625 
L 58.015625 17.1875 
L 47.609375 17.1875 
L 47.609375 0 
L 37.796875 0 
L 37.796875 17.1875 
L 4.890625 17.1875 
L 4.890625 26.703125 
z
" id="DejaVuSans-34"/>
      </defs>
      <g transform="translate(343.655213 271.764104)scale(0.08 -0.08)">
       <use xlink:href="#DejaVuSans-34"/>
       <use x="63.623047" xlink:href="#DejaVuSans-30"/>
      </g>
     </g>
    </g>
    <g id="xtick_6">
     <g id="line2d_7">
      <g>
       <use style="stroke:#000000;stroke-width:0.8;" x="426.555354" xlink:href="#mac8cfd0c07" y="258.685354"/>
      </g>
     </g>
     <g id="text_6">
      <!-- 50 -->
      <defs>
       <path d="M 10.796875 72.90625 
L 49.515625 72.90625 
L 49.515625 64.59375 
L 19.828125 64.59375 
L 19.828125 46.734375 
Q 21.96875 47.46875 24.109375 47.828125 
Q 26.265625 48.1875 28.421875 48.1875 
Q 40.625 48.1875 47.75 41.5 
Q 54.890625 34.8125 54.890625 23.390625 
Q 54.890625 11.625 47.5625 5.09375 
Q 40.234375 -1.421875 26.90625 -1.421875 
Q 22.3125 -1.421875 17.546875 -0.640625 
Q 12.796875 0.140625 7.71875 1.703125 
L 7.71875 11.625 
Q 12.109375 9.234375 16.796875 8.0625 
Q 21.484375 6.890625 26.703125 6.890625 
Q 35.15625 6.890625 40.078125 11.328125 
Q 45.015625 15.765625 45.015625 23.390625 
Q 45.015625 31 40.078125 35.4375 
Q 35.15625 39.890625 26.703125 39.890625 
Q 22.75 39.890625 18.8125 39.015625 
Q 14.890625 38.140625 10.796875 36.28125 
z
" id="DejaVuSans-35"/>
      </defs>
      <g transform="translate(421.465354 271.764104)scale(0.08 -0.08)">
       <use xlink:href="#DejaVuSans-35"/>
       <use x="63.623047" xlink:href="#DejaVuSans-30"/>
      </g>
     </g>
    </g>
    <g id="text_7">
     <!-- time -->
     <defs>
      <path d="M 18.3125 70.21875 
L 18.3125 54.6875 
L 36.8125 54.6875 
L 36.8125 47.703125 
L 18.3125 47.703125 
L 18.3125 18.015625 
Q 18.3125 11.328125 20.140625 9.421875 
Q 21.96875 7.515625 27.59375 7.515625 
L 36.8125 7.515625 
L 36.8125 0 
L 27.59375 0 
Q 17.1875 0 13.234375 3.875 
Q 9.28125 7.765625 9.28125 18.015625 
L 9.28125 47.703125 
L 2.6875 47.703125 
L 2.6875 54.6875 
L 9.28125 54.6875 
L 9.28125 70.21875 
z
" id="DejaVuSans-74"/>
      <path d="M 9.421875 54.6875 
L 18.40625 54.6875 
L 18.40625 0 
L 9.421875 0 
z
M 9.421875 75.984375 
L 18.40625 75.984375 
L 18.40625 64.59375 
L 9.421875 64.59375 
z
" id="DejaVuSans-69"/>
      <path d="M 52 44.1875 
Q 55.375 50.25 60.0625 53.125 
Q 64.75 56 71.09375 56 
Q 79.640625 56 84.28125 50.015625 
Q 88.921875 44.046875 88.921875 33.015625 
L 88.921875 0 
L 79.890625 0 
L 79.890625 32.71875 
Q 79.890625 40.578125 77.09375 44.375 
Q 74.3125 48.1875 68.609375 48.1875 
Q 61.625 48.1875 57.5625 43.546875 
Q 53.515625 38.921875 53.515625 30.90625 
L 53.515625 0 
L 44.484375 0 
L 44.484375 32.71875 
Q 44.484375 40.625 41.703125 44.40625 
Q 38.921875 48.1875 33.109375 48.1875 
Q 26.21875 48.1875 22.15625 43.53125 
Q 18.109375 38.875 18.109375 30.90625 
L 18.109375 0 
L 9.078125 0 
L 9.078125 54.6875 
L 18.109375 54.6875 
L 18.109375 46.1875 
Q 21.1875 51.21875 25.484375 53.609375 
Q 29.78125 56 35.6875 56 
Q 41.65625 56 45.828125 52.96875 
Q 50 49.953125 52 44.1875 
" id="DejaVuSans-6d"/>
      <path d="M 56.203125 29.59375 
L 56.203125 25.203125 
L 14.890625 25.203125 
Q 15.484375 15.921875 20.484375 11.0625 
Q 25.484375 6.203125 34.421875 6.203125 
Q 39.59375 6.203125 44.453125 7.46875 
Q 49.3125 8.734375 54.109375 11.28125 
L 54.109375 2.78125 
Q 49.265625 0.734375 44.1875 -0.34375 
Q 39.109375 -1.421875 33.890625 -1.421875 
Q 20.796875 -1.421875 13.15625 6.1875 
Q 5.515625 13.8125 5.515625 26.8125 
Q 5.515625 40.234375 12.765625 48.109375 
Q 20.015625 56 32.328125 56 
Q 43.359375 56 49.78125 48.890625 
Q 56.203125 41.796875 56.203125 29.59375 
M 47.21875 32.234375 
Q 47.125 39.59375 43.09375 43.984375 
Q 39.0625 48.390625 32.421875 48.390625 
Q 24.90625 48.390625 20.390625 44.140625 
Q 15.875 39.890625 15.1875 32.171875 
z
" id="DejaVuSans-65"/>
     </defs>
     <g transform="translate(219.604297 285.786136)scale(0.11 -0.11)">
      <use xlink:href="#DejaVuSans-74"/>
      <use x="39.208984" xlink:href="#DejaVuSans-69"/>
      <use x="66.992188" xlink:href="#DejaVuSans-6d"/>
      <use x="164.404297" xlink:href="#DejaVuSans-65"/>
     </g>
    </g>
   </g>
   <g id="matplotlib.axis_2">
    <g id="ytick_1">
     <g id="line2d_8">
      <defs>
       <path d="M 0 0 
L -3.5 0 
" id="mbd64d58844" style="stroke:#000000;stroke-width:0.8;"/>
      </defs>
      <g>
       <use style="stroke:#000000;stroke-width:0.8;" x="37.504646" xlink:href="#mbd64d58844" y="258.539015"/>
      </g>
     </g>
     <g id="text_8">
      <!-- 0 -->
      <g transform="translate(25.414646 261.57839)scale(0.08 -0.08)">
       <use xlink:href="#DejaVuSans-30"/>
      </g>
     </g>
    </g>
    <g id="ytick_2">
     <g id="line2d_9">
      <g>
       <use style="stroke:#000000;stroke-width:0.8;" x="37.504646" xlink:href="#mbd64d58844" y="173.587397"/>
      </g>
     </g>
     <g id="text_9">
      <!-- 100 -->
      <g transform="translate(15.234646 176.626772)scale(0.08 -0.08)">
       <use xlink:href="#DejaVuSans-31"/>
       <use x="63.623047" xlink:href="#DejaVuSans-30"/>
       <use x="127.246094" xlink:href="#DejaVuSans-30"/>
      </g>
     </g>
    </g>
    <g id="ytick_3">
     <g id="line2d_10">
      <g>
       <use style="stroke:#000000;stroke-width:0.8;" x="37.504646" xlink:href="#mbd64d58844" y="88.63578"/>
      </g>
     </g>
     <g id="text_10">
      <!-- 200 -->
      <g transform="translate(15.234646 91.675155)scale(0.08 -0.08)">
       <use xlink:href="#DejaVuSans-32"/>
       <use x="63.623047" xlink:href="#DejaVuSans-30"/>
       <use x="127.246094" xlink:href="#DejaVuSans-30"/>
      </g>
     </g>
    </g>
    <g id="ytick_4">
     <g id="line2d_11">
      <g>
       <use style="stroke:#000000;stroke-width:0.8;" x="37.504646" xlink:href="#mbd64d58844" y="3.684162"/>
      </g>
     </g>
     <g id="text_11">
      <!-- 300 -->
      <g transform="translate(15.234646 6.723537)scale(0.08 -0.08)">
       <use xlink:href="#DejaVuSans-33"/>
       <use x="63.623047" xlink:href="#DejaVuSans-30"/>
       <use x="127.246094" xlink:href="#DejaVuSans-30"/>
      </g>
     </g>
    </g>
    <g id="text_12">
     <!-- population mean -->
     <defs>
      <path d="M 18.109375 8.203125 
L 18.109375 -20.796875 
L 9.078125 -20.796875 
L 9.078125 54.6875 
L 18.109375 54.6875 
L 18.109375 46.390625 
Q 20.953125 51.265625 25.265625 53.625 
Q 29.59375 56 35.59375 56 
Q 45.5625 56 51.78125 48.09375 
Q 58.015625 40.1875 58.015625 27.296875 
Q 58.015625 14.40625 51.78125 6.484375 
Q 45.5625 -1.421875 35.59375 -1.421875 
Q 29.59375 -1.421875 25.265625 0.953125 
Q 20.953125 3.328125 18.109375 8.203125 
M 48.6875 27.296875 
Q 48.6875 37.203125 44.609375 42.84375 
Q 40.53125 48.484375 33.40625 48.484375 
Q 26.265625 48.484375 22.1875 42.84375 
Q 18.109375 37.203125 18.109375 27.296875 
Q 18.109375 17.390625 22.1875 11.75 
Q 26.265625 6.109375 33.40625 6.109375 
Q 40.53125 6.109375 44.609375 11.75 
Q 48.6875 17.390625 48.6875 27.296875 
" id="DejaVuSans-70"/>
      <path d="M 30.609375 48.390625 
Q 23.390625 48.390625 19.1875 42.75 
Q 14.984375 37.109375 14.984375 27.296875 
Q 14.984375 17.484375 19.15625 11.84375 
Q 23.34375 6.203125 30.609375 6.203125 
Q 37.796875 6.203125 41.984375 11.859375 
Q 46.1875 17.53125 46.1875 27.296875 
Q 46.1875 37.015625 41.984375 42.703125 
Q 37.796875 48.390625 30.609375 48.390625 
M 30.609375 56 
Q 42.328125 56 49.015625 48.375 
Q 55.71875 40.765625 55.71875 27.296875 
Q 55.71875 13.875 49.015625 6.21875 
Q 42.328125 -1.421875 30.609375 -1.421875 
Q 18.84375 -1.421875 12.171875 6.21875 
Q 5.515625 13.875 5.515625 27.296875 
Q 5.515625 40.765625 12.171875 48.375 
Q 18.84375 56 30.609375 56 
" id="DejaVuSans-6f"/>
      <path d="M 8.5 21.578125 
L 8.5 54.6875 
L 17.484375 54.6875 
L 17.484375 21.921875 
Q 17.484375 14.15625 20.5 10.265625 
Q 23.53125 6.390625 29.59375 6.390625 
Q 36.859375 6.390625 41.078125 11.03125 
Q 45.3125 15.671875 45.3125 23.6875 
L 45.3125 54.6875 
L 54.296875 54.6875 
L 54.296875 0 
L 45.3125 0 
L 45.3125 8.40625 
Q 42.046875 3.421875 37.71875 1 
Q 33.40625 -1.421875 27.6875 -1.421875 
Q 18.265625 -1.421875 13.375 4.4375 
Q 8.5 10.296875 8.5 21.578125 
M 31.109375 56 
z
" id="DejaVuSans-75"/>
      <path d="M 9.421875 75.984375 
L 18.40625 75.984375 
L 18.40625 0 
L 9.421875 0 
z
" id="DejaVuSans-6c"/>
      <path d="M 34.28125 27.484375 
Q 23.390625 27.484375 19.1875 25 
Q 14.984375 22.515625 14.984375 16.5 
Q 14.984375 11.71875 18.140625 8.90625 
Q 21.296875 6.109375 26.703125 6.109375 
Q 34.1875 6.109375 38.703125 11.40625 
Q 43.21875 16.703125 43.21875 25.484375 
L 43.21875 27.484375 
z
M 52.203125 31.203125 
L 52.203125 0 
L 43.21875 0 
L 43.21875 8.296875 
Q 40.140625 3.328125 35.546875 0.953125 
Q 30.953125 -1.421875 24.3125 -1.421875 
Q 15.921875 -1.421875 10.953125 3.296875 
Q 6 8.015625 6 15.921875 
Q 6 25.140625 12.171875 29.828125 
Q 18.359375 34.515625 30.609375 34.515625 
L 43.21875 34.515625 
L 43.21875 35.40625 
Q 43.21875 41.609375 39.140625 45 
Q 35.0625 48.390625 27.6875 48.390625 
Q 23 48.390625 18.546875 47.265625 
Q 14.109375 46.140625 10.015625 43.890625 
L 10.015625 52.203125 
Q 14.9375 54.109375 19.578125 55.046875 
Q 24.21875 56 28.609375 56 
Q 40.484375 56 46.34375 49.84375 
Q 52.203125 43.703125 52.203125 31.203125 
" id="DejaVuSans-61"/>
      <path d="M 54.890625 33.015625 
L 54.890625 0 
L 45.90625 0 
L 45.90625 32.71875 
Q 45.90625 40.484375 42.875 44.328125 
Q 39.84375 48.1875 33.796875 48.1875 
Q 26.515625 48.1875 22.3125 43.546875 
Q 18.109375 38.921875 18.109375 30.90625 
L 18.109375 0 
L 9.078125 0 
L 9.078125 54.6875 
L 18.109375 54.6875 
L 18.109375 46.1875 
Q 21.34375 51.125 25.703125 53.5625 
Q 30.078125 56 35.796875 56 
Q 45.21875 56 50.046875 50.171875 
Q 54.890625 44.34375 54.890625 33.015625 
" id="DejaVuSans-6e"/>
      <path id="DejaVuSans-20"/>
     </defs>
     <g transform="translate(8.946989 177.373359)rotate(-90)scale(0.11 -0.11)">
      <use xlink:href="#DejaVuSans-70"/>
      <use x="63.476562" xlink:href="#DejaVuSans-6f"/>
      <use x="124.658203" xlink:href="#DejaVuSans-70"/>
      <use x="188.134766" xlink:href="#DejaVuSans-75"/>
      <use x="251.513672" xlink:href="#DejaVuSans-6c"/>
      <use x="279.296875" xlink:href="#DejaVuSans-61"/>
      <use x="340.576172" xlink:href="#DejaVuSans-74"/>
      <use x="379.785156" xlink:href="#DejaVuSans-69"/>
      <use x="407.568359" xlink:href="#DejaVuSans-6f"/>
      <use x="468.75" xlink:href="#DejaVuSans-6e"/>
      <use x="532.128906" xlink:href="#DejaVuSans-20"/>
      <use x="563.916016" xlink:href="#DejaVuSans-6d"/>
      <use x="661.328125" xlink:href="#DejaVuSans-65"/>
      <use x="722.851562" xlink:href="#DejaVuSans-61"/>
      <use x="784.130859" xlink:href="#DejaVuSans-6e"/>
     </g>
    </g>
   </g>
   <g id="PolyCollection_2">
    <path clip-path="url(#p94758cdebd)" d="M 37.504646 173.587397 
L 37.504646 173.587397 
L 41.395153 195.394286 
L 45.28566 208.728243 
L 49.176167 217.658658 
L 53.066674 224.012308 
L 56.957181 228.507044 
L 60.847688 231.825974 
L 64.738195 234.237942 
L 68.628702 236.220726 
L 72.519209 237.624118 
L 76.409717 238.760165 
L 80.300224 239.434497 
L 84.190731 240.024627 
L 88.081238 240.249531 
L 91.971745 240.528522 
L 95.862252 240.643219 
L 99.752759 240.626395 
L 103.643266 240.587926 
L 107.533773 240.471311 
L 111.42428 240.347617 
L 115.314787 240.375977 
L 119.205294 240.23116 
L 123.095802 240.012379 
L 126.986309 239.760048 
L 130.876816 239.430553 
L 134.767323 239.400468 
L 138.65783 238.989488 
L 142.548337 238.640087 
L 146.438844 238.423369 
L 150.329351 238.031908 
L 154.219858 237.813443 
L 158.110365 237.390597 
L 162.000872 237.123335 
L 165.89138 236.848528 
L 169.781887 236.613009 
L 173.672394 236.204208 
L 177.562901 235.862471 
L 181.453408 235.393064 
L 185.343915 235.040414 
L 189.234422 234.491239 
L 193.124929 234.200976 
L 197.015436 233.67557 
L 200.905943 233.129588 
L 204.79645 232.65687 
L 208.686957 232.255568 
L 212.577465 231.737647 
L 216.467972 231.378633 
L 220.358479 230.744302 
L 224.248986 230.307346 
L 228.139493 229.788809 
L 232.03 229.130556 
L 235.920507 228.477392 
L 239.811014 228.070485 
L 243.701521 227.414077 
L 247.592028 226.976249 
L 251.482535 226.468372 
L 255.373043 225.963317 
L 259.26355 225.388475 
L 263.154057 224.678132 
L 267.044564 224.030214 
L 270.935071 223.39779 
L 274.825578 222.933833 
L 278.716085 222.445736 
L 282.606592 221.774972 
L 286.497099 221.155723 
L 290.387606 220.545153 
L 294.278113 219.888651 
L 298.16862 219.371088 
L 302.059128 218.690806 
L 305.949635 217.98473 
L 309.840142 217.413536 
L 313.730649 216.685525 
L 317.621156 216.002732 
L 321.511663 215.401317 
L 325.40217 214.839595 
L 329.292677 214.205848 
L 333.183184 213.436562 
L 337.073691 212.793881 
L 340.964198 212.118961 
L 344.854706 211.360801 
L 348.745213 210.621784 
L 352.63572 209.839704 
L 356.526227 209.035522 
L 360.416734 208.342385 
L 364.307241 207.541413 
L 368.197748 206.661381 
L 372.088255 205.891664 
L 375.978762 205.13486 
L 379.869269 204.36483 
L 383.759776 203.670163 
L 387.650283 202.920541 
L 391.540791 202.215643 
L 395.431298 201.55926 
L 399.321805 200.740301 
L 403.212312 200.080697 
L 407.102819 199.390662 
L 410.993326 198.721007 
L 414.883833 198.11828 
L 418.77434 197.435553 
L 422.664847 196.859912 
L 426.555354 196.456925 
L 426.555354 188.981778 
L 426.555354 188.981778 
L 422.664847 189.232919 
L 418.77434 189.819415 
L 414.883833 190.29373 
L 410.993326 190.873529 
L 407.102819 191.399992 
L 403.212312 192.065785 
L 399.321805 192.716135 
L 395.431298 193.258102 
L 391.540791 193.940556 
L 387.650283 194.591486 
L 383.759776 195.189197 
L 379.869269 195.875842 
L 375.978762 196.431058 
L 372.088255 197.154111 
L 368.197748 197.814979 
L 364.307241 198.431795 
L 360.416734 199.088593 
L 356.526227 199.81075 
L 352.63572 200.491522 
L 348.745213 201.304833 
L 344.854706 202.008295 
L 340.964198 202.723196 
L 337.073691 203.504347 
L 333.183184 204.059483 
L 329.292677 204.746268 
L 325.40217 205.356213 
L 321.511663 206.118036 
L 317.621156 206.926819 
L 313.730649 207.700096 
L 309.840142 208.411166 
L 305.949635 208.978323 
L 302.059128 209.638269 
L 298.16862 210.339301 
L 294.278113 211.017857 
L 290.387606 211.611842 
L 286.497099 212.168508 
L 282.606592 212.852416 
L 278.716085 213.479713 
L 274.825578 214.068803 
L 270.935071 214.807761 
L 267.044564 215.393543 
L 263.154057 216.058977 
L 259.26355 216.604218 
L 255.373043 217.164331 
L 251.482535 217.758549 
L 247.592028 218.356743 
L 243.701521 218.87547 
L 239.811014 219.401588 
L 235.920507 220.027693 
L 232.03 220.635211 
L 228.139493 221.247834 
L 224.248986 221.718134 
L 220.358479 222.264917 
L 216.467972 222.806317 
L 212.577465 223.349489 
L 208.686957 223.937638 
L 204.79645 224.356969 
L 200.905943 224.772844 
L 197.015436 225.125651 
L 193.124929 225.685926 
L 189.234422 226.184014 
L 185.343915 226.712026 
L 181.453408 227.244572 
L 177.562901 227.791186 
L 173.672394 228.356732 
L 169.781887 228.659826 
L 165.89138 229.039356 
L 162.000872 229.444162 
L 158.110365 229.666222 
L 154.219858 229.946775 
L 150.329351 230.139477 
L 146.438844 230.70457 
L 142.548337 230.907513 
L 138.65783 231.353259 
L 134.767323 231.611698 
L 130.876816 231.799089 
L 126.986309 232.261343 
L 123.095802 232.695421 
L 119.205294 232.874214 
L 115.314787 232.992747 
L 111.42428 233.107758 
L 107.533773 233.211734 
L 103.643266 233.348275 
L 99.752759 233.347185 
L 95.862252 233.204632 
L 91.971745 233.176611 
L 88.081238 233.022349 
L 84.190731 232.635601 
L 80.300224 232.192719 
L 76.409717 231.397388 
L 72.519209 230.351878 
L 68.628702 228.798953 
L 64.738195 226.787312 
L 60.847688 224.137862 
L 56.957181 220.514547 
L 53.066674 215.63742 
L 49.176167 209.282308 
L 45.28566 200.627738 
L 41.395153 188.79053 
L 37.504646 173.587397 
z
" style="fill:#008000;fill-opacity:0.3;"/>
   </g>
   <g id="line2d_12">
    <path clip-path="url(#p94758cdebd)" d="M 37.504646 173.587397 
L 41.395153 192.092408 
L 45.28566 204.677991 
L 49.176167 213.470483 
L 53.066674 219.824864 
L 56.957181 224.510795 
L 60.847688 227.981918 
L 64.738195 230.512627 
L 68.628702 232.50984 
L 72.519209 233.987998 
L 76.409717 235.078777 
L 80.300224 235.813608 
L 84.190731 236.330114 
L 88.081238 236.63594 
L 91.971745 236.852566 
L 95.862252 236.923926 
L 99.752759 236.98679 
L 103.643266 236.9681 
L 107.533773 236.841523 
L 111.42428 236.727687 
L 115.314787 236.684362 
L 119.205294 236.552687 
L 123.095802 236.3539 
L 126.986309 236.010696 
L 130.876816 235.614821 
L 134.767323 235.506083 
L 138.65783 235.171374 
L 142.548337 234.7738 
L 146.438844 234.56397 
L 150.329351 234.085692 
L 154.219858 233.880109 
L 158.110365 233.528409 
L 162.000872 233.283749 
L 165.89138 232.943942 
L 169.781887 232.636417 
L 173.672394 232.28047 
L 177.562901 231.826829 
L 181.453408 231.318818 
L 185.343915 230.87622 
L 189.234422 230.337627 
L 193.124929 229.943451 
L 197.015436 229.40061 
L 200.905943 228.951216 
L 204.79645 228.506919 
L 208.686957 228.096603 
L 212.577465 227.543568 
L 216.467972 227.092475 
L 220.358479 226.50461 
L 224.248986 226.01274 
L 228.139493 225.518321 
L 232.03 224.882883 
L 235.920507 224.252542 
L 239.811014 223.736036 
L 243.701521 223.144773 
L 247.592028 222.666496 
L 251.482535 222.113461 
L 255.373043 221.563824 
L 259.26355 220.996347 
L 263.154057 220.368554 
L 267.044564 219.711878 
L 270.935071 219.102775 
L 274.825578 218.501318 
L 278.716085 217.962725 
L 282.606592 217.313694 
L 286.497099 216.662115 
L 290.387606 216.078498 
L 294.278113 215.453254 
L 298.16862 214.855194 
L 302.059128 214.164538 
L 305.949635 213.481527 
L 309.840142 212.912351 
L 313.730649 212.192811 
L 317.621156 211.464775 
L 321.511663 210.759677 
L 325.40217 210.097904 
L 329.292677 209.476058 
L 333.183184 208.748023 
L 337.073691 208.149114 
L 340.964198 207.421078 
L 344.854706 206.684548 
L 348.745213 205.963309 
L 352.63572 205.165613 
L 356.526227 204.423136 
L 360.416734 203.715489 
L 364.307241 202.986604 
L 368.197748 202.23818 
L 372.088255 201.522887 
L 375.978762 200.782959 
L 379.869269 200.120336 
L 383.759776 199.42968 
L 387.650283 198.756013 
L 391.540791 198.078099 
L 395.431298 197.408681 
L 399.321805 196.728218 
L 403.212312 196.073241 
L 407.102819 195.395327 
L 410.993326 194.797268 
L 414.883833 194.206005 
L 418.77434 193.627484 
L 422.664847 193.046415 
L 426.555354 192.719351 
" style="fill:none;stroke:#008000;stroke-linecap:round;"/>
   </g>
   <g id="patch_3">
    <path d="M 37.504646 258.685354 
L 37.504646 2.834646 
" style="fill:none;stroke:#000000;stroke-linecap:square;stroke-linejoin:miter;stroke-width:0.8;"/>
   </g>
   <g id="patch_4">
    <path d="M 426.555354 258.685354 
L 426.555354 2.834646 
" style="fill:none;stroke:#000000;stroke-linecap:square;stroke-linejoin:miter;stroke-width:0.8;"/>
   </g>
   <g id="patch_5">
    <path d="M 37.504646 258.685354 
L 426.555354 258.685354 
" style="fill:none;stroke:#000000;stroke-linecap:square;stroke-linejoin:miter;stroke-width:0.8;"/>
   </g>
   <g id="patch_6">
    <path d="M 37.504646 2.834646 
L 426.555354 2.834646 
" style="fill:none;stroke:#000000;stroke-linecap:square;stroke-linejoin:miter;stroke-width:0.8;"/>
   </g>
   <g id="PolyCollection_3">
    <path clip-path="url(#p94758cdebd)" d="M 37.504646 258.539015 
L 37.504646 258.539015 
L 41.395153 243.335882 
L 45.28566 231.498675 
L 49.176167 222.844105 
L 53.066674 216.488993 
L 56.957181 211.611866 
L 60.847688 207.98855 
L 64.738195 205.339101 
L 68.628702 203.32746 
L 72.519209 201.774535 
L 76.409717 200.729025 
L 80.300224 199.933694 
L 84.190731 199.490812 
L 88.081238 199.104064 
L 91.971745 198.949802 
L 95.862252 198.92178 
L 99.752759 198.779228 
L 103.643266 198.778138 
L 107.533773 198.914679 
L 111.42428 199.018654 
L 115.314787 199.133666 
L 119.205294 199.252198 
L 123.095802 199.430991 
L 126.986309 199.86507 
L 130.876816 200.327324 
L 134.767323 200.514715 
L 138.65783 200.773154 
L 142.548337 201.218899 
L 146.438844 201.421842 
L 150.329351 201.986936 
L 154.219858 202.179638 
L 158.110365 202.460191 
L 162.000872 202.68225 
L 165.89138 203.087056 
L 169.781887 203.466587 
L 173.672394 203.76968 
L 177.562901 204.335227 
L 181.453408 204.881841 
L 185.343915 205.414387 
L 189.234422 205.942399 
L 193.124929 206.440487 
L 197.015436 207.000762 
L 200.905943 207.353568 
L 204.79645 207.769444 
L 208.686957 208.188774 
L 212.577465 208.776924 
L 216.467972 209.320096 
L 220.358479 209.861495 
L 224.248986 210.408279 
L 228.139493 210.878579 
L 232.03 211.491202 
L 235.920507 212.09872 
L 239.811014 212.724825 
L 243.701521 213.250943 
L 247.592028 213.76967 
L 251.482535 214.367864 
L 255.373043 214.962082 
L 259.26355 215.522195 
L 263.154057 216.067436 
L 267.044564 216.73287 
L 270.935071 217.318652 
L 274.825578 218.05761 
L 278.716085 218.6467 
L 282.606592 219.273997 
L 286.497099 219.957905 
L 290.387606 220.514571 
L 294.278113 221.108556 
L 298.16862 221.787112 
L 302.059128 222.488143 
L 305.949635 223.148089 
L 309.840142 223.715247 
L 313.730649 224.426317 
L 317.621156 225.199594 
L 321.511663 226.008376 
L 325.40217 226.7702 
L 329.292677 227.380145 
L 333.183184 228.06693 
L 337.073691 228.622066 
L 340.964198 229.403217 
L 344.854706 230.118118 
L 348.745213 230.821579 
L 352.63572 231.634891 
L 356.526227 232.315663 
L 360.416734 233.03782 
L 364.307241 233.694618 
L 368.197748 234.311434 
L 372.088255 234.972301 
L 375.978762 235.695355 
L 379.869269 236.25057 
L 383.759776 236.937216 
L 387.650283 237.534927 
L 391.540791 238.185857 
L 395.431298 238.868311 
L 399.321805 239.410277 
L 403.212312 240.060628 
L 407.102819 240.72642 
L 410.993326 241.252884 
L 414.883833 241.832683 
L 418.77434 242.306997 
L 422.664847 242.893494 
L 426.555354 243.144635 
L 426.555354 235.669488 
L 426.555354 235.669488 
L 422.664847 235.266501 
L 418.77434 234.69086 
L 414.883833 234.008133 
L 410.993326 233.405406 
L 407.102819 232.73575 
L 403.212312 232.045715 
L 399.321805 231.386112 
L 395.431298 230.567153 
L 391.540791 229.91077 
L 387.650283 229.205872 
L 383.759776 228.45625 
L 379.869269 227.761583 
L 375.978762 226.991553 
L 372.088255 226.234749 
L 368.197748 225.465032 
L 364.307241 224.585 
L 360.416734 223.784028 
L 356.526227 223.090891 
L 352.63572 222.286709 
L 348.745213 221.504629 
L 344.854706 220.765612 
L 340.964198 220.007452 
L 337.073691 219.332532 
L 333.183184 218.689851 
L 329.292677 217.920565 
L 325.40217 217.286818 
L 321.511663 216.725095 
L 317.621156 216.123681 
L 313.730649 215.440888 
L 309.840142 214.712877 
L 305.949635 214.141683 
L 302.059128 213.435607 
L 298.16862 212.755325 
L 294.278113 212.237762 
L 290.387606 211.581259 
L 286.497099 210.97069 
L 282.606592 210.35144 
L 278.716085 209.680677 
L 274.825578 209.19258 
L 270.935071 208.728623 
L 267.044564 208.096199 
L 263.154057 207.448281 
L 259.26355 206.737937 
L 255.373043 206.163096 
L 251.482535 205.658041 
L 247.592028 205.150164 
L 243.701521 204.712336 
L 239.811014 204.055928 
L 235.920507 203.649021 
L 232.03 202.995857 
L 228.139493 202.337604 
L 224.248986 201.819067 
L 220.358479 201.382111 
L 216.467972 200.74778 
L 212.577465 200.388765 
L 208.686957 199.870845 
L 204.79645 199.469543 
L 200.905943 198.996824 
L 197.015436 198.450843 
L 193.124929 197.925436 
L 189.234422 197.635173 
L 185.343915 197.085998 
L 181.453408 196.733349 
L 177.562901 196.263941 
L 173.672394 195.922205 
L 169.781887 195.513404 
L 165.89138 195.277884 
L 162.000872 195.003078 
L 158.110365 194.735816 
L 154.219858 194.312969 
L 150.329351 194.094505 
L 146.438844 193.703044 
L 142.548337 193.486326 
L 138.65783 193.136924 
L 134.767323 192.725945 
L 130.876816 192.695859 
L 126.986309 192.366364 
L 123.095802 192.114034 
L 119.205294 191.895253 
L 115.314787 191.750435 
L 111.42428 191.778796 
L 107.533773 191.655102 
L 103.643266 191.538487 
L 99.752759 191.500018 
L 95.862252 191.483194 
L 91.971745 191.597891 
L 88.081238 191.876882 
L 84.190731 192.101786 
L 80.300224 192.691915 
L 76.409717 193.366248 
L 72.519209 194.502295 
L 68.628702 195.905686 
L 64.738195 197.888471 
L 60.847688 200.300438 
L 56.957181 203.619369 
L 53.066674 208.114105 
L 49.176167 214.467755 
L 45.28566 223.398169 
L 41.395153 236.732126 
L 37.504646 258.539015 
z
" style="fill:#ffa500;fill-opacity:0.3;"/>
   </g>
   <g id="line2d_13">
    <path clip-path="url(#p94758cdebd)" d="M 37.504646 258.539015 
L 41.395153 240.034004 
L 45.28566 227.448422 
L 49.176167 218.65593 
L 53.066674 212.301549 
L 56.957181 207.615618 
L 60.847688 204.144494 
L 64.738195 201.613786 
L 68.628702 199.616573 
L 72.519209 198.138415 
L 76.409717 197.047636 
L 80.300224 196.312805 
L 84.190731 195.796299 
L 88.081238 195.490473 
L 91.971745 195.273846 
L 95.862252 195.202487 
L 99.752759 195.139623 
L 103.643266 195.158312 
L 107.533773 195.28489 
L 111.42428 195.398725 
L 115.314787 195.442051 
L 119.205294 195.573726 
L 123.095802 195.772512 
L 126.986309 196.115717 
L 130.876816 196.511592 
L 134.767323 196.62033 
L 138.65783 196.955039 
L 142.548337 197.352613 
L 146.438844 197.562443 
L 150.329351 198.040721 
L 154.219858 198.246304 
L 158.110365 198.598003 
L 162.000872 198.842664 
L 165.89138 199.18247 
L 169.781887 199.489995 
L 173.672394 199.845943 
L 177.562901 200.299584 
L 181.453408 200.807595 
L 185.343915 201.250193 
L 189.234422 201.788786 
L 193.124929 202.182962 
L 197.015436 202.725802 
L 200.905943 203.175196 
L 204.79645 203.619493 
L 208.686957 204.02981 
L 212.577465 204.582845 
L 216.467972 205.033938 
L 220.358479 205.621803 
L 224.248986 206.113673 
L 228.139493 206.608091 
L 232.03 207.243529 
L 235.920507 207.87387 
L 239.811014 208.390376 
L 243.701521 208.98164 
L 247.592028 209.459917 
L 251.482535 210.012952 
L 255.373043 210.562589 
L 259.26355 211.130066 
L 263.154057 211.757858 
L 267.044564 212.414534 
L 270.935071 213.023637 
L 274.825578 213.625095 
L 278.716085 214.163688 
L 282.606592 214.812719 
L 286.497099 215.464297 
L 290.387606 216.047915 
L 294.278113 216.673159 
L 298.16862 217.271218 
L 302.059128 217.961875 
L 305.949635 218.644886 
L 309.840142 219.214062 
L 313.730649 219.933602 
L 317.621156 220.661637 
L 321.511663 221.366736 
L 325.40217 222.028509 
L 329.292677 222.650355 
L 333.183184 223.37839 
L 337.073691 223.977299 
L 340.964198 224.705334 
L 344.854706 225.441865 
L 348.745213 226.163104 
L 352.63572 226.9608 
L 356.526227 227.703277 
L 360.416734 228.410924 
L 364.307241 229.139809 
L 368.197748 229.888233 
L 372.088255 230.603525 
L 375.978762 231.343454 
L 379.869269 232.006076 
L 383.759776 232.696733 
L 387.650283 233.370399 
L 391.540791 234.048313 
L 395.431298 234.717732 
L 399.321805 235.398195 
L 403.212312 236.053172 
L 407.102819 236.731085 
L 410.993326 237.329145 
L 414.883833 237.920408 
L 418.77434 238.498929 
L 422.664847 239.079998 
L 426.555354 239.407061 
" style="fill:none;stroke:#ffa500;stroke-linecap:round;"/>
   </g>
   <g id="PolyCollection_4">
    <path clip-path="url(#p94758cdebd)" d="M 37.504646 258.539015 
L 37.504646 258.539015 
L 41.395153 258.685354 
L 45.28566 258.014456 
L 49.176167 256.683659 
L 53.066674 254.911181 
L 56.957181 252.90802 
L 60.847688 250.5639 
L 64.738195 247.960823 
L 68.628702 245.454549 
L 72.519209 242.81182 
L 76.409717 239.967423 
L 80.300224 237.077906 
L 84.190731 234.189433 
L 88.081238 231.173102 
L 91.971745 228.185906 
L 95.862252 225.14381 
L 99.752759 222.112804 
L 103.643266 219.135821 
L 107.533773 216.100431 
L 111.42428 213.075338 
L 115.314787 210.149726 
L 119.205294 207.170096 
L 123.095802 204.211785 
L 126.986309 201.094094 
L 130.876816 198.062143 
L 134.767323 195.270994 
L 138.65783 192.243249 
L 142.548337 189.086411 
L 146.438844 186.163163 
L 150.329351 183.208142 
L 154.219858 180.403451 
L 158.110365 177.420702 
L 162.000872 174.484332 
L 165.89138 171.726631 
L 169.781887 168.99301 
L 173.672394 166.140619 
L 177.562901 163.270054 
L 181.453408 160.384741 
L 185.343915 157.540681 
L 189.234422 154.673665 
L 193.124929 151.890102 
L 197.015436 149.05755 
L 200.905943 146.264542 
L 204.79645 143.449912 
L 208.686957 140.7213 
L 212.577465 137.959349 
L 216.467972 135.405029 
L 220.358479 132.721084 
L 224.248986 130.129048 
L 228.139493 127.549147 
L 232.03 124.90505 
L 235.920507 122.258006 
L 239.811014 119.676741 
L 243.701521 117.13546 
L 247.592028 114.731936 
L 251.482535 112.217584 
L 255.373043 109.742105 
L 259.26355 107.355441 
L 263.154057 104.957629 
L 267.044564 102.583885 
L 270.935071 100.15496 
L 274.825578 97.95783 
L 278.716085 95.667174 
L 282.606592 93.398039 
L 286.497099 91.182276 
L 290.387606 89.005054 
L 294.278113 86.83856 
L 298.16862 84.811254 
L 302.059128 82.611622 
L 305.949635 80.483914 
L 309.840142 78.462246 
L 313.730649 76.387758 
L 317.621156 74.366493 
L 321.511663 72.496671 
L 325.40217 70.643652 
L 329.292677 68.748851 
L 333.183184 66.871133 
L 337.073691 65.064076 
L 340.964198 63.277154 
L 344.854706 61.48908 
L 348.745213 59.775763 
L 352.63572 58.069986 
L 356.526227 56.4231 
L 360.416734 54.831789 
L 364.307241 53.182819 
L 368.197748 51.533225 
L 372.088255 49.954747 
L 375.978762 48.434034 
L 379.869269 46.926182 
L 383.759776 45.49418 
L 387.650283 44.066988 
L 391.540791 42.709777 
L 395.431298 41.386764 
L 399.321805 40.07185 
L 403.212312 38.881061 
L 407.102819 37.615441 
L 410.993326 36.372373 
L 414.883833 35.253941 
L 418.77434 34.167201 
L 422.664847 33.151863 
L 426.555354 32.512393 
L 426.555354 23.00311 
L 426.555354 23.00311 
L 422.664847 23.391554 
L 418.77434 24.270638 
L 414.883833 25.18026 
L 410.993326 26.173726 
L 407.102819 27.12071 
L 403.212312 28.182765 
L 399.321805 29.333242 
L 395.431298 30.434352 
L 391.540791 31.607217 
L 387.650283 32.876711 
L 383.759776 34.018455 
L 379.869269 35.238643 
L 375.978762 36.398272 
L 372.088255 37.75572 
L 368.197748 39.082587 
L 364.307241 40.391008 
L 360.416734 41.798597 
L 356.526227 43.262147 
L 352.63572 44.780558 
L 348.745213 46.449059 
L 344.854706 48.067544 
L 340.964198 49.728506 
L 337.073691 51.4263 
L 333.183184 52.981628 
L 329.292677 54.733042 
L 325.40217 56.4249 
L 321.511663 58.161936 
L 317.621156 60.116636 
L 313.730649 61.940281 
L 309.840142 63.846625 
L 305.949635 65.734431 
L 302.059128 67.653818 
L 298.16862 69.69667 
L 294.278113 71.701168 
L 290.387606 73.814536 
L 286.497099 75.912079 
L 282.606592 78.049237 
L 278.716085 80.228169 
L 274.825578 82.392376 
L 270.935071 84.762245 
L 267.044564 87.082115 
L 263.154057 89.350128 
L 259.26355 91.763976 
L 255.373043 94.211058 
L 251.482535 96.691657 
L 247.592028 99.17246 
L 243.701521 101.675741 
L 239.811014 104.21117 
L 235.920507 106.806855 
L 232.03 109.396229 
L 228.139493 112.063307 
L 224.248986 114.689242 
L 220.358479 117.238478 
L 216.467972 120.00163 
L 212.577465 122.671835 
L 208.686957 125.450429 
L 204.79645 128.136633 
L 200.905943 130.908421 
L 197.015436 133.735812 
L 193.124929 136.73094 
L 189.234422 139.603457 
L 185.343915 142.557325 
L 181.453408 145.574927 
L 177.562901 148.551276 
L 173.672394 151.535576 
L 169.781887 154.429312 
L 165.89138 157.450314 
L 162.000872 160.569566 
L 158.110365 163.540732 
L 154.219858 166.560664 
L 150.329351 169.524187 
L 146.438844 172.845392 
L 142.548337 175.970699 
L 138.65783 179.19033 
L 134.767323 182.420121 
L 130.876816 185.58578 
L 126.986309 188.930297 
L 123.095802 192.16189 
L 119.205294 195.520582 
L 115.314787 198.689749 
L 111.42428 201.90444 
L 107.533773 205.218437 
L 103.643266 208.494952 
L 99.752759 211.841768 
L 95.862252 215.10058 
L 91.971745 218.346602 
L 88.081238 221.848011 
L 84.190731 225.119799 
L 80.300224 228.493958 
L 76.409717 231.824599 
L 72.519209 235.117107 
L 68.628702 238.387011 
L 64.738195 241.640456 
L 60.847688 244.701953 
L 56.957181 247.726775 
L 53.066674 250.579448 
L 49.176167 253.23295 
L 45.28566 255.492208 
L 41.395153 257.344373 
L 37.504646 258.539015 
z
" style="fill:#ff0000;fill-opacity:0.3;"/>
   </g>
   <g id="line2d_14">
    <path clip-path="url(#p94758cdebd)" d="M 37.504646 258.539015 
L 41.395153 258.014864 
L 45.28566 256.753332 
L 49.176167 254.958305 
L 53.066674 252.745315 
L 56.957181 250.317398 
L 60.847688 247.632927 
L 64.738195 244.80064 
L 68.628702 241.92078 
L 72.519209 238.964464 
L 76.409717 235.896011 
L 80.300224 232.785932 
L 84.190731 229.654616 
L 88.081238 226.510556 
L 91.971745 223.266254 
L 95.862252 220.122195 
L 99.752759 216.977286 
L 103.643266 213.815387 
L 107.533773 210.659434 
L 111.42428 207.489889 
L 115.314787 204.419738 
L 119.205294 201.345339 
L 123.095802 198.186837 
L 126.986309 195.012195 
L 130.876816 191.823961 
L 134.767323 188.845558 
L 138.65783 185.716789 
L 142.548337 182.528555 
L 146.438844 179.504278 
L 150.329351 176.366165 
L 154.219858 173.482057 
L 158.110365 170.480717 
L 162.000872 167.526949 
L 165.89138 164.588473 
L 169.781887 161.711161 
L 173.672394 158.838098 
L 177.562901 155.910665 
L 181.453408 152.979834 
L 185.343915 150.049003 
L 189.234422 147.138561 
L 193.124929 144.310521 
L 197.015436 141.396681 
L 200.905943 138.586481 
L 204.79645 135.793272 
L 208.686957 133.085864 
L 212.577465 130.315592 
L 216.467972 127.70333 
L 220.358479 124.979781 
L 224.248986 122.409145 
L 228.139493 119.806227 
L 232.03 117.15064 
L 235.920507 114.532431 
L 239.811014 111.943955 
L 243.701521 109.405601 
L 247.592028 106.952198 
L 251.482535 104.45462 
L 255.373043 101.976582 
L 259.26355 99.559708 
L 263.154057 97.153878 
L 267.044564 94.833 
L 270.935071 92.458602 
L 274.825578 90.175103 
L 278.716085 87.947672 
L 282.606592 85.723638 
L 286.497099 83.547178 
L 290.387606 81.409795 
L 294.278113 79.269864 
L 298.16862 77.253962 
L 302.059128 75.13272 
L 305.949635 73.109172 
L 309.840142 71.154436 
L 313.730649 69.164019 
L 317.621156 67.241564 
L 321.511663 65.329303 
L 325.40217 63.534276 
L 329.292677 61.740947 
L 333.183184 59.92638 
L 337.073691 58.245188 
L 340.964198 56.50283 
L 344.854706 54.778312 
L 348.745213 53.112411 
L 352.63572 51.425272 
L 356.526227 49.842623 
L 360.416734 48.315193 
L 364.307241 46.786914 
L 368.197748 45.307906 
L 372.088255 43.855233 
L 375.978762 42.416153 
L 379.869269 41.082413 
L 383.759776 39.756318 
L 387.650283 38.471849 
L 391.540791 37.158497 
L 395.431298 35.910558 
L 399.321805 34.702546 
L 403.212312 33.531913 
L 407.102819 32.368076 
L 410.993326 31.273049 
L 414.883833 30.217101 
L 418.77434 29.218919 
L 422.664847 28.271709 
L 426.555354 27.757751 
" style="fill:none;stroke:#ff0000;stroke-linecap:round;"/>
   </g>
   <g id="legend_1">
    <g id="patch_7">
     <path d="M 385.221604 155.445 
L 420.955354 155.445 
Q 422.555354 155.445 422.555354 153.845 
L 422.555354 107.675 
Q 422.555354 106.075 420.955354 106.075 
L 385.221604 106.075 
Q 383.621604 106.075 383.621604 107.675 
L 383.621604 153.845 
Q 383.621604 155.445 385.221604 155.445 
z
" style="fill:#ffffff;opacity:0.8;stroke:#000000;stroke-linejoin:miter;"/>
    </g>
    <g id="line2d_15">
     <path d="M 386.821604 112.55375 
L 402.821604 112.55375 
" style="fill:none;stroke:#0000ff;stroke-linecap:round;"/>
    </g>
    <g id="line2d_16"/>
    <g id="text_13">
     <!-- S -->
     <defs>
      <path d="M 53.515625 70.515625 
L 53.515625 60.890625 
Q 47.90625 63.578125 42.921875 64.890625 
Q 37.9375 66.21875 33.296875 66.21875 
Q 25.25 66.21875 20.875 63.09375 
Q 16.5 59.96875 16.5 54.203125 
Q 16.5 49.359375 19.40625 46.890625 
Q 22.3125 44.4375 30.421875 42.921875 
L 36.375 41.703125 
Q 47.40625 39.59375 52.65625 34.296875 
Q 57.90625 29 57.90625 20.125 
Q 57.90625 9.515625 50.796875 4.046875 
Q 43.703125 -1.421875 29.984375 -1.421875 
Q 24.8125 -1.421875 18.96875 -0.25 
Q 13.140625 0.921875 6.890625 3.21875 
L 6.890625 13.375 
Q 12.890625 10.015625 18.65625 8.296875 
Q 24.421875 6.59375 29.984375 6.59375 
Q 38.421875 6.59375 43.015625 9.90625 
Q 47.609375 13.234375 47.609375 19.390625 
Q 47.609375 24.75 44.3125 27.78125 
Q 41.015625 30.8125 33.5 32.328125 
L 27.484375 33.5 
Q 16.453125 35.6875 11.515625 40.375 
Q 6.59375 45.0625 6.59375 53.421875 
Q 6.59375 63.09375 13.40625 68.65625 
Q 20.21875 74.21875 32.171875 74.21875 
Q 37.3125 74.21875 42.625 73.28125 
Q 47.953125 72.359375 53.515625 70.515625 
" id="DejaVuSans-53"/>
     </defs>
     <g transform="translate(409.221604 115.35375)scale(0.08 -0.08)">
      <use xlink:href="#DejaVuSans-53"/>
     </g>
    </g>
    <g id="line2d_17">
     <path d="M 386.821604 124.29625 
L 402.821604 124.29625 
" style="fill:none;stroke:#008000;stroke-linecap:round;"/>
    </g>
    <g id="line2d_18"/>
    <g id="text_14">
     <!-- E -->
     <defs>
      <path d="M 9.8125 72.90625 
L 55.90625 72.90625 
L 55.90625 64.59375 
L 19.671875 64.59375 
L 19.671875 43.015625 
L 54.390625 43.015625 
L 54.390625 34.71875 
L 19.671875 34.71875 
L 19.671875 8.296875 
L 56.78125 8.296875 
L 56.78125 0 
L 9.8125 0 
z
" id="DejaVuSans-45"/>
     </defs>
     <g transform="translate(409.221604 127.09625)scale(0.08 -0.08)">
      <use xlink:href="#DejaVuSans-45"/>
     </g>
    </g>
    <g id="line2d_19">
     <path d="M 386.821604 136.03875 
L 402.821604 136.03875 
" style="fill:none;stroke:#ffa500;stroke-linecap:round;"/>
    </g>
    <g id="line2d_20"/>
    <g id="text_15">
     <!-- SE -->
     <g transform="translate(409.221604 138.83875)scale(0.08 -0.08)">
      <use xlink:href="#DejaVuSans-53"/>
      <use x="63.476562" xlink:href="#DejaVuSans-45"/>
     </g>
    </g>
    <g id="line2d_21">
     <path d="M 386.821604 147.78125 
L 402.821604 147.78125 
" style="fill:none;stroke:#ff0000;stroke-linecap:round;"/>
    </g>
    <g id="line2d_22"/>
    <g id="text_16">
     <!-- P -->
     <defs>
      <path d="M 19.671875 64.796875 
L 19.671875 37.40625 
L 32.078125 37.40625 
Q 38.96875 37.40625 42.71875 40.96875 
Q 46.484375 44.53125 46.484375 51.125 
Q 46.484375 57.671875 42.71875 61.234375 
Q 38.96875 64.796875 32.078125 64.796875 
z
M 9.8125 72.90625 
L 32.078125 72.90625 
Q 44.34375 72.90625 50.609375 67.359375 
Q 56.890625 61.8125 56.890625 51.125 
Q 56.890625 40.328125 50.609375 34.8125 
Q 44.34375 29.296875 32.078125 29.296875 
L 19.671875 29.296875 
L 19.671875 0 
L 9.8125 0 
z
" id="DejaVuSans-50"/>
     </defs>
     <g transform="translate(409.221604 150.58125)scale(0.08 -0.08)">
      <use xlink:href="#DejaVuSans-50"/>
     </g>
    </g>
   </g>
  </g>
 </g>
 <defs>
  <clipPath id="p94758cdebd">
   <rect height="255.850709" width="389.050709" x="37.504646" y="2.834646"/>
  </clipPath>
 </defs>
</svg>
