<?xml version="1.0" encoding="utf-8" standalone="no"?>
<!DOCTYPE svg PUBLIC "-//W3C//DTD SVG 1.1//EN"
  "http://www.w3.org/Graphics/SVG/1.1/DTD/svg11.dtd">
<!-- Created with matplotlib (http://matplotlib.org/) -->
<svg height="288pt" version="1.1" viewBox="0 0 432 288" width="432pt" xmlns="http://www.w3.org/2000/svg" xmlns:xlink="http://www.w3.org/1999/xlink">
 <defs>
  <style type="text/css">
*{stroke-linecap:butt;stroke-linejoin:round;}
  </style>
 </defs>
 <g id="figure_1">
  <g id="patch_1">
   <path d="M 0 288 
L 432 288 
L 432 0 
L 0 0 
z
" style="fill:#ffffff;"/>
  </g>
  <g id="axes_1">
   <g id="patch_2">
    <path d="M 37.504646 114.685354 
L 213.165354 114.685354 
L 213.165354 2.834646 
L 37.504646 2.834646 
z
" style="fill:#ffffff;"/>
   </g>
   <g id="patch_3">
    <path clip-path="url(#p82bbe9985c)" d="M 42.476175 114.016391 
L 42.476175 114.685354 
L 51.682711 114.685354 
L 51.682711 114.016391 
L 42.476175 114.016391 
" style="fill:#0000ff;stroke:#000000;stroke-linejoin:miter;"/>
   </g>
   <g id="patch_4">
    <path clip-path="url(#p82bbe9985c)" d="M 51.682711 109.333646 
L 51.682711 114.685354 
L 60.889247 114.685354 
L 60.889247 109.333646 
L 51.682711 109.333646 
" style="fill:#0000ff;stroke:#000000;stroke-linejoin:miter;"/>
   </g>
   <g id="patch_5">
    <path clip-path="url(#p82bbe9985c)" d="M 60.889247 91.940593 
L 60.889247 114.685354 
L 70.095783 114.685354 
L 70.095783 91.940593 
L 60.889247 91.940593 
" style="fill:#0000ff;stroke:#000000;stroke-linejoin:miter;"/>
   </g>
   <g id="patch_6">
    <path clip-path="url(#p82bbe9985c)" d="M 70.095783 78.561322 
L 70.095783 114.685354 
L 79.30232 114.685354 
L 79.30232 78.561322 
L 70.095783 78.561322 
" style="fill:#0000ff;stroke:#000000;stroke-linejoin:miter;"/>
   </g>
   <g id="patch_7">
    <path clip-path="url(#p82bbe9985c)" d="M 79.30232 43.775216 
L 79.30232 114.685354 
L 88.508856 114.685354 
L 88.508856 43.775216 
L 79.30232 43.775216 
" style="fill:#0000ff;stroke:#000000;stroke-linejoin:miter;"/>
   </g>
   <g id="patch_8">
    <path clip-path="url(#p82bbe9985c)" d="M 88.508856 24.375273 
L 88.508856 114.685354 
L 97.715392 114.685354 
L 97.715392 24.375273 
L 88.508856 24.375273 
" style="fill:#0000ff;stroke:#000000;stroke-linejoin:miter;"/>
   </g>
   <g id="patch_9">
    <path clip-path="url(#p82bbe9985c)" d="M 97.715392 13.002892 
L 97.715392 114.685354 
L 106.921928 114.685354 
L 106.921928 13.002892 
L 97.715392 13.002892 
" style="fill:#0000ff;stroke:#000000;stroke-linejoin:miter;"/>
   </g>
   <g id="patch_10">
    <path clip-path="url(#p82bbe9985c)" d="M 106.921928 15.678746 
L 106.921928 114.685354 
L 116.128464 114.685354 
L 116.128464 15.678746 
L 106.921928 15.678746 
" style="fill:#0000ff;stroke:#000000;stroke-linejoin:miter;"/>
   </g>
   <g id="patch_11">
    <path clip-path="url(#p82bbe9985c)" d="M 116.128464 38.423508 
L 116.128464 114.685354 
L 125.335 114.685354 
L 125.335 38.423508 
L 116.128464 38.423508 
" style="fill:#0000ff;stroke:#000000;stroke-linejoin:miter;"/>
   </g>
   <g id="patch_12">
    <path clip-path="url(#p82bbe9985c)" d="M 125.335 62.506196 
L 125.335 114.685354 
L 134.541536 114.685354 
L 134.541536 62.506196 
L 125.335 62.506196 
" style="fill:#0000ff;stroke:#000000;stroke-linejoin:miter;"/>
   </g>
   <g id="patch_13">
    <path clip-path="url(#p82bbe9985c)" d="M 134.541536 77.892358 
L 134.541536 114.685354 
L 143.748072 114.685354 
L 143.748072 77.892358 
L 134.541536 77.892358 
" style="fill:#0000ff;stroke:#000000;stroke-linejoin:miter;"/>
   </g>
   <g id="patch_14">
    <path clip-path="url(#p82bbe9985c)" d="M 143.748072 88.595775 
L 143.748072 114.685354 
L 152.954608 114.685354 
L 152.954608 88.595775 
L 143.748072 88.595775 
" style="fill:#0000ff;stroke:#000000;stroke-linejoin:miter;"/>
   </g>
   <g id="patch_15">
    <path clip-path="url(#p82bbe9985c)" d="M 152.954608 91.940593 
L 152.954608 114.685354 
L 162.161144 114.685354 
L 162.161144 91.940593 
L 152.954608 91.940593 
" style="fill:#0000ff;stroke:#000000;stroke-linejoin:miter;"/>
   </g>
   <g id="patch_16">
    <path clip-path="url(#p82bbe9985c)" d="M 162.161144 97.961265 
L 162.161144 114.685354 
L 171.36768 114.685354 
L 171.36768 97.961265 
L 162.161144 97.961265 
" style="fill:#0000ff;stroke:#000000;stroke-linejoin:miter;"/>
   </g>
   <g id="patch_17">
    <path clip-path="url(#p82bbe9985c)" d="M 171.36768 109.333646 
L 171.36768 114.685354 
L 180.574217 114.685354 
L 180.574217 109.333646 
L 171.36768 109.333646 
" style="fill:#0000ff;stroke:#000000;stroke-linejoin:miter;"/>
   </g>
   <g id="patch_18">
    <path clip-path="url(#p82bbe9985c)" d="M 180.574217 110.002609 
L 180.574217 114.685354 
L 189.780753 114.685354 
L 189.780753 110.002609 
L 180.574217 110.002609 
" style="fill:#0000ff;stroke:#000000;stroke-linejoin:miter;"/>
   </g>
   <g id="patch_19">
    <path clip-path="url(#p82bbe9985c)" d="M 189.780753 114.016391 
L 189.780753 114.685354 
L 198.987289 114.685354 
L 198.987289 114.016391 
L 189.780753 114.016391 
" style="fill:#0000ff;stroke:#000000;stroke-linejoin:miter;"/>
   </g>
   <g id="patch_20">
    <path clip-path="url(#p82bbe9985c)" d="M 198.987289 114.016391 
L 198.987289 114.685354 
L 208.193825 114.685354 
L 208.193825 114.016391 
L 198.987289 114.016391 
" style="fill:#0000ff;stroke:#000000;stroke-linejoin:miter;"/>
   </g>
   <g id="matplotlib.axis_1">
    <g id="xtick_1">
     <g id="line2d_1">
      <defs>
       <path d="M 0 0 
L 0 3.5 
" id="md90c8bdab6" style="stroke:#000000;stroke-width:0.8;"/>
      </defs>
      <g>
       <use style="stroke:#000000;stroke-width:0.8;" x="42.476175" xlink:href="#md90c8bdab6" y="114.685354"/>
      </g>
     </g>
     <g id="text_1">
      <!-- 0 -->
      <defs>
       <path d="M 31.78125 66.40625 
Q 24.171875 66.40625 20.328125 58.90625 
Q 16.5 51.421875 16.5 36.375 
Q 16.5 21.390625 20.328125 13.890625 
Q 24.171875 6.390625 31.78125 6.390625 
Q 39.453125 6.390625 43.28125 13.890625 
Q 47.125 21.390625 47.125 36.375 
Q 47.125 51.421875 43.28125 58.90625 
Q 39.453125 66.40625 31.78125 66.40625 
z
M 31.78125 74.21875 
Q 44.046875 74.21875 50.515625 64.515625 
Q 56.984375 54.828125 56.984375 36.375 
Q 56.984375 17.96875 50.515625 8.265625 
Q 44.046875 -1.421875 31.78125 -1.421875 
Q 19.53125 -1.421875 13.0625 8.265625 
Q 6.59375 17.96875 6.59375 36.375 
Q 6.59375 54.828125 13.0625 64.515625 
Q 19.53125 74.21875 31.78125 74.21875 
z
" id="DejaVuSans-30"/>
      </defs>
      <g transform="translate(39.931175 127.764104)scale(0.08 -0.08)">
       <use xlink:href="#DejaVuSans-30"/>
      </g>
     </g>
    </g>
    <g id="xtick_2">
     <g id="line2d_2">
      <g>
       <use style="stroke:#000000;stroke-width:0.8;" x="88.508856" xlink:href="#md90c8bdab6" y="114.685354"/>
      </g>
     </g>
     <g id="text_2">
      <!-- 5 -->
      <defs>
       <path d="M 10.796875 72.90625 
L 49.515625 72.90625 
L 49.515625 64.59375 
L 19.828125 64.59375 
L 19.828125 46.734375 
Q 21.96875 47.46875 24.109375 47.828125 
Q 26.265625 48.1875 28.421875 48.1875 
Q 40.625 48.1875 47.75 41.5 
Q 54.890625 34.8125 54.890625 23.390625 
Q 54.890625 11.625 47.5625 5.09375 
Q 40.234375 -1.421875 26.90625 -1.421875 
Q 22.3125 -1.421875 17.546875 -0.640625 
Q 12.796875 0.140625 7.71875 1.703125 
L 7.71875 11.625 
Q 12.109375 9.234375 16.796875 8.0625 
Q 21.484375 6.890625 26.703125 6.890625 
Q 35.15625 6.890625 40.078125 11.328125 
Q 45.015625 15.765625 45.015625 23.390625 
Q 45.015625 31 40.078125 35.4375 
Q 35.15625 39.890625 26.703125 39.890625 
Q 22.75 39.890625 18.8125 39.015625 
Q 14.890625 38.140625 10.796875 36.28125 
z
" id="DejaVuSans-35"/>
      </defs>
      <g transform="translate(85.963856 127.764104)scale(0.08 -0.08)">
       <use xlink:href="#DejaVuSans-35"/>
      </g>
     </g>
    </g>
    <g id="xtick_3">
     <g id="line2d_3">
      <g>
       <use style="stroke:#000000;stroke-width:0.8;" x="134.541536" xlink:href="#md90c8bdab6" y="114.685354"/>
      </g>
     </g>
     <g id="text_3">
      <!-- 10 -->
      <defs>
       <path d="M 12.40625 8.296875 
L 28.515625 8.296875 
L 28.515625 63.921875 
L 10.984375 60.40625 
L 10.984375 69.390625 
L 28.421875 72.90625 
L 38.28125 72.90625 
L 38.28125 8.296875 
L 54.390625 8.296875 
L 54.390625 0 
L 12.40625 0 
z
" id="DejaVuSans-31"/>
      </defs>
      <g transform="translate(129.451536 127.764104)scale(0.08 -0.08)">
       <use xlink:href="#DejaVuSans-31"/>
       <use x="63.623047" xlink:href="#DejaVuSans-30"/>
      </g>
     </g>
    </g>
    <g id="xtick_4">
     <g id="line2d_4">
      <g>
       <use style="stroke:#000000;stroke-width:0.8;" x="180.574217" xlink:href="#md90c8bdab6" y="114.685354"/>
      </g>
     </g>
     <g id="text_4">
      <!-- 15 -->
      <g transform="translate(175.484217 127.764104)scale(0.08 -0.08)">
       <use xlink:href="#DejaVuSans-31"/>
       <use x="63.623047" xlink:href="#DejaVuSans-35"/>
      </g>
     </g>
    </g>
    <g id="text_5">
     <!-- population size -->
     <defs>
      <path d="M 18.109375 8.203125 
L 18.109375 -20.796875 
L 9.078125 -20.796875 
L 9.078125 54.6875 
L 18.109375 54.6875 
L 18.109375 46.390625 
Q 20.953125 51.265625 25.265625 53.625 
Q 29.59375 56 35.59375 56 
Q 45.5625 56 51.78125 48.09375 
Q 58.015625 40.1875 58.015625 27.296875 
Q 58.015625 14.40625 51.78125 6.484375 
Q 45.5625 -1.421875 35.59375 -1.421875 
Q 29.59375 -1.421875 25.265625 0.953125 
Q 20.953125 3.328125 18.109375 8.203125 
z
M 48.6875 27.296875 
Q 48.6875 37.203125 44.609375 42.84375 
Q 40.53125 48.484375 33.40625 48.484375 
Q 26.265625 48.484375 22.1875 42.84375 
Q 18.109375 37.203125 18.109375 27.296875 
Q 18.109375 17.390625 22.1875 11.75 
Q 26.265625 6.109375 33.40625 6.109375 
Q 40.53125 6.109375 44.609375 11.75 
Q 48.6875 17.390625 48.6875 27.296875 
z
" id="DejaVuSans-70"/>
      <path d="M 30.609375 48.390625 
Q 23.390625 48.390625 19.1875 42.75 
Q 14.984375 37.109375 14.984375 27.296875 
Q 14.984375 17.484375 19.15625 11.84375 
Q 23.34375 6.203125 30.609375 6.203125 
Q 37.796875 6.203125 41.984375 11.859375 
Q 46.1875 17.53125 46.1875 27.296875 
Q 46.1875 37.015625 41.984375 42.703125 
Q 37.796875 48.390625 30.609375 48.390625 
z
M 30.609375 56 
Q 42.328125 56 49.015625 48.375 
Q 55.71875 40.765625 55.71875 27.296875 
Q 55.71875 13.875 49.015625 6.21875 
Q 42.328125 -1.421875 30.609375 -1.421875 
Q 18.84375 -1.421875 12.171875 6.21875 
Q 5.515625 13.875 5.515625 27.296875 
Q 5.515625 40.765625 12.171875 48.375 
Q 18.84375 56 30.609375 56 
z
" id="DejaVuSans-6f"/>
      <path d="M 8.5 21.578125 
L 8.5 54.6875 
L 17.484375 54.6875 
L 17.484375 21.921875 
Q 17.484375 14.15625 20.5 10.265625 
Q 23.53125 6.390625 29.59375 6.390625 
Q 36.859375 6.390625 41.078125 11.03125 
Q 45.3125 15.671875 45.3125 23.6875 
L 45.3125 54.6875 
L 54.296875 54.6875 
L 54.296875 0 
L 45.3125 0 
L 45.3125 8.40625 
Q 42.046875 3.421875 37.71875 1 
Q 33.40625 -1.421875 27.6875 -1.421875 
Q 18.265625 -1.421875 13.375 4.4375 
Q 8.5 10.296875 8.5 21.578125 
z
M 31.109375 56 
z
" id="DejaVuSans-75"/>
      <path d="M 9.421875 75.984375 
L 18.40625 75.984375 
L 18.40625 0 
L 9.421875 0 
z
" id="DejaVuSans-6c"/>
      <path d="M 34.28125 27.484375 
Q 23.390625 27.484375 19.1875 25 
Q 14.984375 22.515625 14.984375 16.5 
Q 14.984375 11.71875 18.140625 8.90625 
Q 21.296875 6.109375 26.703125 6.109375 
Q 34.1875 6.109375 38.703125 11.40625 
Q 43.21875 16.703125 43.21875 25.484375 
L 43.21875 27.484375 
z
M 52.203125 31.203125 
L 52.203125 0 
L 43.21875 0 
L 43.21875 8.296875 
Q 40.140625 3.328125 35.546875 0.953125 
Q 30.953125 -1.421875 24.3125 -1.421875 
Q 15.921875 -1.421875 10.953125 3.296875 
Q 6 8.015625 6 15.921875 
Q 6 25.140625 12.171875 29.828125 
Q 18.359375 34.515625 30.609375 34.515625 
L 43.21875 34.515625 
L 43.21875 35.40625 
Q 43.21875 41.609375 39.140625 45 
Q 35.0625 48.390625 27.6875 48.390625 
Q 23 48.390625 18.546875 47.265625 
Q 14.109375 46.140625 10.015625 43.890625 
L 10.015625 52.203125 
Q 14.9375 54.109375 19.578125 55.046875 
Q 24.21875 56 28.609375 56 
Q 40.484375 56 46.34375 49.84375 
Q 52.203125 43.703125 52.203125 31.203125 
z
" id="DejaVuSans-61"/>
      <path d="M 18.3125 70.21875 
L 18.3125 54.6875 
L 36.8125 54.6875 
L 36.8125 47.703125 
L 18.3125 47.703125 
L 18.3125 18.015625 
Q 18.3125 11.328125 20.140625 9.421875 
Q 21.96875 7.515625 27.59375 7.515625 
L 36.8125 7.515625 
L 36.8125 0 
L 27.59375 0 
Q 17.1875 0 13.234375 3.875 
Q 9.28125 7.765625 9.28125 18.015625 
L 9.28125 47.703125 
L 2.6875 47.703125 
L 2.6875 54.6875 
L 9.28125 54.6875 
L 9.28125 70.21875 
z
" id="DejaVuSans-74"/>
      <path d="M 9.421875 54.6875 
L 18.40625 54.6875 
L 18.40625 0 
L 9.421875 0 
z
M 9.421875 75.984375 
L 18.40625 75.984375 
L 18.40625 64.59375 
L 9.421875 64.59375 
z
" id="DejaVuSans-69"/>
      <path d="M 54.890625 33.015625 
L 54.890625 0 
L 45.90625 0 
L 45.90625 32.71875 
Q 45.90625 40.484375 42.875 44.328125 
Q 39.84375 48.1875 33.796875 48.1875 
Q 26.515625 48.1875 22.3125 43.546875 
Q 18.109375 38.921875 18.109375 30.90625 
L 18.109375 0 
L 9.078125 0 
L 9.078125 54.6875 
L 18.109375 54.6875 
L 18.109375 46.1875 
Q 21.34375 51.125 25.703125 53.5625 
Q 30.078125 56 35.796875 56 
Q 45.21875 56 50.046875 50.171875 
Q 54.890625 44.34375 54.890625 33.015625 
z
" id="DejaVuSans-6e"/>
      <path id="DejaVuSans-20"/>
      <path d="M 44.28125 53.078125 
L 44.28125 44.578125 
Q 40.484375 46.53125 36.375 47.5 
Q 32.28125 48.484375 27.875 48.484375 
Q 21.1875 48.484375 17.84375 46.4375 
Q 14.5 44.390625 14.5 40.28125 
Q 14.5 37.15625 16.890625 35.375 
Q 19.28125 33.59375 26.515625 31.984375 
L 29.59375 31.296875 
Q 39.15625 29.25 43.1875 25.515625 
Q 47.21875 21.78125 47.21875 15.09375 
Q 47.21875 7.46875 41.1875 3.015625 
Q 35.15625 -1.421875 24.609375 -1.421875 
Q 20.21875 -1.421875 15.453125 -0.5625 
Q 10.6875 0.296875 5.421875 2 
L 5.421875 11.28125 
Q 10.40625 8.6875 15.234375 7.390625 
Q 20.0625 6.109375 24.8125 6.109375 
Q 31.15625 6.109375 34.5625 8.28125 
Q 37.984375 10.453125 37.984375 14.40625 
Q 37.984375 18.0625 35.515625 20.015625 
Q 33.0625 21.96875 24.703125 23.78125 
L 21.578125 24.515625 
Q 13.234375 26.265625 9.515625 29.90625 
Q 5.8125 33.546875 5.8125 39.890625 
Q 5.8125 47.609375 11.28125 51.796875 
Q 16.75 56 26.8125 56 
Q 31.78125 56 36.171875 55.265625 
Q 40.578125 54.546875 44.28125 53.078125 
z
" id="DejaVuSans-73"/>
      <path d="M 5.515625 54.6875 
L 48.1875 54.6875 
L 48.1875 46.484375 
L 14.40625 7.171875 
L 48.1875 7.171875 
L 48.1875 0 
L 4.296875 0 
L 4.296875 8.203125 
L 38.09375 47.515625 
L 5.515625 47.515625 
z
" id="DejaVuSans-7a"/>
      <path d="M 56.203125 29.59375 
L 56.203125 25.203125 
L 14.890625 25.203125 
Q 15.484375 15.921875 20.484375 11.0625 
Q 25.484375 6.203125 34.421875 6.203125 
Q 39.59375 6.203125 44.453125 7.46875 
Q 49.3125 8.734375 54.109375 11.28125 
L 54.109375 2.78125 
Q 49.265625 0.734375 44.1875 -0.34375 
Q 39.109375 -1.421875 33.890625 -1.421875 
Q 20.796875 -1.421875 13.15625 6.1875 
Q 5.515625 13.8125 5.515625 26.8125 
Q 5.515625 40.234375 12.765625 48.109375 
Q 20.015625 56 32.328125 56 
Q 43.359375 56 49.78125 48.890625 
Q 56.203125 41.796875 56.203125 29.59375 
z
M 47.21875 32.234375 
Q 47.125 39.59375 43.09375 43.984375 
Q 39.0625 48.390625 32.421875 48.390625 
Q 24.90625 48.390625 20.390625 44.140625 
Q 15.875 39.890625 15.1875 32.171875 
z
" id="DejaVuSans-65"/>
     </defs>
     <g transform="translate(83.655312 141.786136)scale(0.11 -0.11)">
      <use xlink:href="#DejaVuSans-70"/>
      <use x="63.476562" xlink:href="#DejaVuSans-6f"/>
      <use x="124.658203" xlink:href="#DejaVuSans-70"/>
      <use x="188.134766" xlink:href="#DejaVuSans-75"/>
      <use x="251.513672" xlink:href="#DejaVuSans-6c"/>
      <use x="279.296875" xlink:href="#DejaVuSans-61"/>
      <use x="340.576172" xlink:href="#DejaVuSans-74"/>
      <use x="379.785156" xlink:href="#DejaVuSans-69"/>
      <use x="407.568359" xlink:href="#DejaVuSans-6f"/>
      <use x="468.75" xlink:href="#DejaVuSans-6e"/>
      <use x="532.128906" xlink:href="#DejaVuSans-20"/>
      <use x="563.916016" xlink:href="#DejaVuSans-73"/>
      <use x="616.015625" xlink:href="#DejaVuSans-69"/>
      <use x="643.798828" xlink:href="#DejaVuSans-7a"/>
      <use x="696.289062" xlink:href="#DejaVuSans-65"/>
     </g>
    </g>
   </g>
   <g id="matplotlib.axis_2">
    <g id="ytick_1">
     <g id="line2d_5">
      <defs>
       <path d="M 0 0 
L -3.5 0 
" id="me6e000e73b" style="stroke:#000000;stroke-width:0.8;"/>
      </defs>
      <g>
       <use style="stroke:#000000;stroke-width:0.8;" x="37.504646" xlink:href="#me6e000e73b" y="114.685354"/>
      </g>
     </g>
     <g id="text_6">
      <!-- 0 -->
      <g transform="translate(25.414646 117.724729)scale(0.08 -0.08)">
       <use xlink:href="#DejaVuSans-30"/>
      </g>
     </g>
    </g>
    <g id="ytick_2">
     <g id="line2d_6">
      <g>
       <use style="stroke:#000000;stroke-width:0.8;" x="37.504646" xlink:href="#me6e000e73b" y="81.237176"/>
      </g>
     </g>
     <g id="text_7">
      <!-- 50 -->
      <g transform="translate(20.324646 84.276551)scale(0.08 -0.08)">
       <use xlink:href="#DejaVuSans-35"/>
       <use x="63.623047" xlink:href="#DejaVuSans-30"/>
      </g>
     </g>
    </g>
    <g id="ytick_3">
     <g id="line2d_7">
      <g>
       <use style="stroke:#000000;stroke-width:0.8;" x="37.504646" xlink:href="#me6e000e73b" y="47.788997"/>
      </g>
     </g>
     <g id="text_8">
      <!-- 100 -->
      <g transform="translate(15.234646 50.828372)scale(0.08 -0.08)">
       <use xlink:href="#DejaVuSans-31"/>
       <use x="63.623047" xlink:href="#DejaVuSans-30"/>
       <use x="127.246094" xlink:href="#DejaVuSans-30"/>
      </g>
     </g>
    </g>
    <g id="ytick_4">
     <g id="line2d_8">
      <g>
       <use style="stroke:#000000;stroke-width:0.8;" x="37.504646" xlink:href="#me6e000e73b" y="14.340819"/>
      </g>
     </g>
     <g id="text_9">
      <!-- 150 -->
      <g transform="translate(15.234646 17.380194)scale(0.08 -0.08)">
       <use xlink:href="#DejaVuSans-31"/>
       <use x="63.623047" xlink:href="#DejaVuSans-35"/>
       <use x="127.246094" xlink:href="#DejaVuSans-30"/>
      </g>
     </g>
    </g>
    <g id="text_10">
     <!-- frequency -->
     <defs>
      <path d="M 37.109375 75.984375 
L 37.109375 68.5 
L 28.515625 68.5 
Q 23.6875 68.5 21.796875 66.546875 
Q 19.921875 64.59375 19.921875 59.515625 
L 19.921875 54.6875 
L 34.71875 54.6875 
L 34.71875 47.703125 
L 19.921875 47.703125 
L 19.921875 0 
L 10.890625 0 
L 10.890625 47.703125 
L 2.296875 47.703125 
L 2.296875 54.6875 
L 10.890625 54.6875 
L 10.890625 58.5 
Q 10.890625 67.625 15.140625 71.796875 
Q 19.390625 75.984375 28.609375 75.984375 
z
" id="DejaVuSans-66"/>
      <path d="M 41.109375 46.296875 
Q 39.59375 47.171875 37.8125 47.578125 
Q 36.03125 48 33.890625 48 
Q 26.265625 48 22.1875 43.046875 
Q 18.109375 38.09375 18.109375 28.8125 
L 18.109375 0 
L 9.078125 0 
L 9.078125 54.6875 
L 18.109375 54.6875 
L 18.109375 46.1875 
Q 20.953125 51.171875 25.484375 53.578125 
Q 30.03125 56 36.53125 56 
Q 37.453125 56 38.578125 55.875 
Q 39.703125 55.765625 41.0625 55.515625 
z
" id="DejaVuSans-72"/>
      <path d="M 14.796875 27.296875 
Q 14.796875 17.390625 18.875 11.75 
Q 22.953125 6.109375 30.078125 6.109375 
Q 37.203125 6.109375 41.296875 11.75 
Q 45.40625 17.390625 45.40625 27.296875 
Q 45.40625 37.203125 41.296875 42.84375 
Q 37.203125 48.484375 30.078125 48.484375 
Q 22.953125 48.484375 18.875 42.84375 
Q 14.796875 37.203125 14.796875 27.296875 
z
M 45.40625 8.203125 
Q 42.578125 3.328125 38.25 0.953125 
Q 33.9375 -1.421875 27.875 -1.421875 
Q 17.96875 -1.421875 11.734375 6.484375 
Q 5.515625 14.40625 5.515625 27.296875 
Q 5.515625 40.1875 11.734375 48.09375 
Q 17.96875 56 27.875 56 
Q 33.9375 56 38.25 53.625 
Q 42.578125 51.265625 45.40625 46.390625 
L 45.40625 54.6875 
L 54.390625 54.6875 
L 54.390625 -20.796875 
L 45.40625 -20.796875 
z
" id="DejaVuSans-71"/>
      <path d="M 48.78125 52.59375 
L 48.78125 44.1875 
Q 44.96875 46.296875 41.140625 47.34375 
Q 37.3125 48.390625 33.40625 48.390625 
Q 24.65625 48.390625 19.8125 42.84375 
Q 14.984375 37.3125 14.984375 27.296875 
Q 14.984375 17.28125 19.8125 11.734375 
Q 24.65625 6.203125 33.40625 6.203125 
Q 37.3125 6.203125 41.140625 7.25 
Q 44.96875 8.296875 48.78125 10.40625 
L 48.78125 2.09375 
Q 45.015625 0.34375 40.984375 -0.53125 
Q 36.96875 -1.421875 32.421875 -1.421875 
Q 20.0625 -1.421875 12.78125 6.34375 
Q 5.515625 14.109375 5.515625 27.296875 
Q 5.515625 40.671875 12.859375 48.328125 
Q 20.21875 56 33.015625 56 
Q 37.15625 56 41.109375 55.140625 
Q 45.0625 54.296875 48.78125 52.59375 
z
" id="DejaVuSans-63"/>
      <path d="M 32.171875 -5.078125 
Q 28.375 -14.84375 24.75 -17.8125 
Q 21.140625 -20.796875 15.09375 -20.796875 
L 7.90625 -20.796875 
L 7.90625 -13.28125 
L 13.1875 -13.28125 
Q 16.890625 -13.28125 18.9375 -11.515625 
Q 21 -9.765625 23.484375 -3.21875 
L 25.09375 0.875 
L 2.984375 54.6875 
L 12.5 54.6875 
L 29.59375 11.921875 
L 46.6875 54.6875 
L 56.203125 54.6875 
z
" id="DejaVuSans-79"/>
     </defs>
     <g transform="translate(8.946989 86.46625)rotate(-90)scale(0.11 -0.11)">
      <use xlink:href="#DejaVuSans-66"/>
      <use x="35.205078" xlink:href="#DejaVuSans-72"/>
      <use x="76.287109" xlink:href="#DejaVuSans-65"/>
      <use x="137.810547" xlink:href="#DejaVuSans-71"/>
      <use x="201.287109" xlink:href="#DejaVuSans-75"/>
      <use x="264.666016" xlink:href="#DejaVuSans-65"/>
      <use x="326.189453" xlink:href="#DejaVuSans-6e"/>
      <use x="389.568359" xlink:href="#DejaVuSans-63"/>
      <use x="444.548828" xlink:href="#DejaVuSans-79"/>
     </g>
    </g>
   </g>
   <g id="patch_21">
    <path d="M 37.504646 114.685354 
L 37.504646 2.834646 
" style="fill:none;stroke:#000000;stroke-linecap:square;stroke-linejoin:miter;stroke-width:0.8;"/>
   </g>
   <g id="patch_22">
    <path d="M 213.165354 114.685354 
L 213.165354 2.834646 
" style="fill:none;stroke:#000000;stroke-linecap:square;stroke-linejoin:miter;stroke-width:0.8;"/>
   </g>
   <g id="patch_23">
    <path d="M 37.504646 114.685354 
L 213.165354 114.685354 
" style="fill:none;stroke:#000000;stroke-linecap:square;stroke-linejoin:miter;stroke-width:0.8;"/>
   </g>
   <g id="patch_24">
    <path d="M 37.504646 2.834646 
L 213.165354 2.834646 
" style="fill:none;stroke:#000000;stroke-linecap:square;stroke-linejoin:miter;stroke-width:0.8;"/>
   </g>
   <g id="legend_1">
    <g id="patch_25">
     <path d="M 176.886604 20.977146 
L 207.565354 20.977146 
Q 209.165354 20.977146 209.165354 19.377146 
L 209.165354 8.434646 
Q 209.165354 6.834646 207.565354 6.834646 
L 176.886604 6.834646 
Q 175.286604 6.834646 175.286604 8.434646 
L 175.286604 19.377146 
Q 175.286604 20.977146 176.886604 20.977146 
z
" style="fill:#ffffff;opacity:0.8;stroke:#000000;stroke-linejoin:miter;"/>
    </g>
    <g id="line2d_9">
     <path d="M 178.486604 13.313396 
L 194.486604 13.313396 
" style="fill:none;stroke:#0000ff;stroke-linecap:square;stroke-width:4;"/>
    </g>
    <g id="line2d_10"/>
    <g id="text_11">
     <!-- S -->
     <defs>
      <path d="M 53.515625 70.515625 
L 53.515625 60.890625 
Q 47.90625 63.578125 42.921875 64.890625 
Q 37.9375 66.21875 33.296875 66.21875 
Q 25.25 66.21875 20.875 63.09375 
Q 16.5 59.96875 16.5 54.203125 
Q 16.5 49.359375 19.40625 46.890625 
Q 22.3125 44.4375 30.421875 42.921875 
L 36.375 41.703125 
Q 47.40625 39.59375 52.65625 34.296875 
Q 57.90625 29 57.90625 20.125 
Q 57.90625 9.515625 50.796875 4.046875 
Q 43.703125 -1.421875 29.984375 -1.421875 
Q 24.8125 -1.421875 18.96875 -0.25 
Q 13.140625 0.921875 6.890625 3.21875 
L 6.890625 13.375 
Q 12.890625 10.015625 18.65625 8.296875 
Q 24.421875 6.59375 29.984375 6.59375 
Q 38.421875 6.59375 43.015625 9.90625 
Q 47.609375 13.234375 47.609375 19.390625 
Q 47.609375 24.75 44.3125 27.78125 
Q 41.015625 30.8125 33.5 32.328125 
L 27.484375 33.5 
Q 16.453125 35.6875 11.515625 40.375 
Q 6.59375 45.0625 6.59375 53.421875 
Q 6.59375 63.09375 13.40625 68.65625 
Q 20.21875 74.21875 32.171875 74.21875 
Q 37.3125 74.21875 42.625 73.28125 
Q 47.953125 72.359375 53.515625 70.515625 
z
" id="DejaVuSans-53"/>
     </defs>
     <g transform="translate(200.886604 16.113396)scale(0.08 -0.08)">
      <use xlink:href="#DejaVuSans-53"/>
     </g>
    </g>
   </g>
  </g>
  <g id="axes_2">
   <g id="patch_26">
    <path d="M 248.374646 114.685354 
L 429.165354 114.685354 
L 429.165354 2.834646 
L 248.374646 2.834646 
z
" style="fill:#ffffff;"/>
   </g>
   <g id="patch_27">
    <path clip-path="url(#paaaeab525c)" d="M 253.491364 112.400355 
L 253.491364 114.685354 
L 258.821279 114.685354 
L 258.821279 112.400355 
L 253.491364 112.400355 
" style="fill:#008000;stroke:#000000;stroke-linejoin:miter;"/>
   </g>
   <g id="patch_28">
    <path clip-path="url(#paaaeab525c)" d="M 258.821279 114.685354 
L 258.821279 114.685354 
L 264.151193 114.685354 
L 264.151193 114.685354 
L 258.821279 114.685354 
" style="fill:#008000;stroke:#000000;stroke-linejoin:miter;"/>
   </g>
   <g id="patch_29">
    <path clip-path="url(#paaaeab525c)" d="M 264.151193 112.400355 
L 264.151193 114.685354 
L 269.481108 114.685354 
L 269.481108 112.400355 
L 264.151193 112.400355 
" style="fill:#008000;stroke:#000000;stroke-linejoin:miter;"/>
   </g>
   <g id="patch_30">
    <path clip-path="url(#paaaeab525c)" d="M 269.481108 112.400355 
L 269.481108 114.685354 
L 274.811023 114.685354 
L 274.811023 112.400355 
L 269.481108 112.400355 
" style="fill:#008000;stroke:#000000;stroke-linejoin:miter;"/>
   </g>
   <g id="patch_31">
    <path clip-path="url(#paaaeab525c)" d="M 274.811023 112.400355 
L 274.811023 114.685354 
L 280.140938 114.685354 
L 280.140938 112.400355 
L 274.811023 112.400355 
" style="fill:#008000;stroke:#000000;stroke-linejoin:miter;"/>
   </g>
   <g id="patch_32">
    <path clip-path="url(#paaaeab525c)" d="M 280.140938 107.830357 
L 280.140938 114.685354 
L 285.470852 114.685354 
L 285.470852 107.830357 
L 280.140938 107.830357 
" style="fill:#008000;stroke:#000000;stroke-linejoin:miter;"/>
   </g>
   <g id="patch_33">
    <path clip-path="url(#paaaeab525c)" d="M 285.470852 112.400355 
L 285.470852 114.685354 
L 290.800767 114.685354 
L 290.800767 112.400355 
L 285.470852 112.400355 
" style="fill:#008000;stroke:#000000;stroke-linejoin:miter;"/>
   </g>
   <g id="patch_34">
    <path clip-path="url(#paaaeab525c)" d="M 290.800767 107.830357 
L 290.800767 114.685354 
L 296.130682 114.685354 
L 296.130682 107.830357 
L 290.800767 107.830357 
" style="fill:#008000;stroke:#000000;stroke-linejoin:miter;"/>
   </g>
   <g id="patch_35">
    <path clip-path="url(#paaaeab525c)" d="M 296.130682 102.117859 
L 296.130682 114.685354 
L 301.460597 114.685354 
L 301.460597 102.117859 
L 296.130682 102.117859 
" style="fill:#008000;stroke:#000000;stroke-linejoin:miter;"/>
   </g>
   <g id="patch_36">
    <path clip-path="url(#paaaeab525c)" d="M 301.460597 90.692863 
L 301.460597 114.685354 
L 306.790511 114.685354 
L 306.790511 90.692863 
L 301.460597 90.692863 
" style="fill:#008000;stroke:#000000;stroke-linejoin:miter;"/>
   </g>
   <g id="patch_37">
    <path clip-path="url(#paaaeab525c)" d="M 306.790511 81.552867 
L 306.790511 114.685354 
L 312.120426 114.685354 
L 312.120426 81.552867 
L 306.790511 81.552867 
" style="fill:#008000;stroke:#000000;stroke-linejoin:miter;"/>
   </g>
   <g id="patch_38">
    <path clip-path="url(#paaaeab525c)" d="M 312.120426 79.267867 
L 312.120426 114.685354 
L 317.450341 114.685354 
L 317.450341 79.267867 
L 312.120426 79.267867 
" style="fill:#008000;stroke:#000000;stroke-linejoin:miter;"/>
   </g>
   <g id="patch_39">
    <path clip-path="url(#paaaeab525c)" d="M 317.450341 64.415373 
L 317.450341 114.685354 
L 322.780256 114.685354 
L 322.780256 64.415373 
L 317.450341 64.415373 
" style="fill:#008000;stroke:#000000;stroke-linejoin:miter;"/>
   </g>
   <g id="patch_40">
    <path clip-path="url(#paaaeab525c)" d="M 322.780256 52.990377 
L 322.780256 114.685354 
L 328.11017 114.685354 
L 328.11017 52.990377 
L 322.780256 52.990377 
" style="fill:#008000;stroke:#000000;stroke-linejoin:miter;"/>
   </g>
   <g id="patch_41">
    <path clip-path="url(#paaaeab525c)" d="M 328.11017 33.567884 
L 328.11017 114.685354 
L 333.440085 114.685354 
L 333.440085 33.567884 
L 328.11017 33.567884 
" style="fill:#008000;stroke:#000000;stroke-linejoin:miter;"/>
   </g>
   <g id="patch_42">
    <path clip-path="url(#paaaeab525c)" d="M 333.440085 35.852883 
L 333.440085 114.685354 
L 338.77 114.685354 
L 338.77 35.852883 
L 333.440085 35.852883 
" style="fill:#008000;stroke:#000000;stroke-linejoin:miter;"/>
   </g>
   <g id="patch_43">
    <path clip-path="url(#paaaeab525c)" d="M 338.77 13.002892 
L 338.77 114.685354 
L 344.099915 114.685354 
L 344.099915 13.002892 
L 338.77 13.002892 
" style="fill:#008000;stroke:#000000;stroke-linejoin:miter;"/>
   </g>
   <g id="patch_44">
    <path clip-path="url(#paaaeab525c)" d="M 344.099915 25.570387 
L 344.099915 114.685354 
L 349.42983 114.685354 
L 349.42983 25.570387 
L 344.099915 25.570387 
" style="fill:#008000;stroke:#000000;stroke-linejoin:miter;"/>
   </g>
   <g id="patch_45">
    <path clip-path="url(#paaaeab525c)" d="M 349.42983 14.145391 
L 349.42983 114.685354 
L 354.759744 114.685354 
L 354.759744 14.145391 
L 349.42983 14.145391 
" style="fill:#008000;stroke:#000000;stroke-linejoin:miter;"/>
   </g>
   <g id="patch_46">
    <path clip-path="url(#paaaeab525c)" d="M 354.759744 25.570387 
L 354.759744 114.685354 
L 360.089659 114.685354 
L 360.089659 25.570387 
L 354.759744 25.570387 
" style="fill:#008000;stroke:#000000;stroke-linejoin:miter;"/>
   </g>
   <g id="patch_47">
    <path clip-path="url(#paaaeab525c)" d="M 360.089659 40.422882 
L 360.089659 114.685354 
L 365.419574 114.685354 
L 365.419574 40.422882 
L 360.089659 40.422882 
" style="fill:#008000;stroke:#000000;stroke-linejoin:miter;"/>
   </g>
   <g id="patch_48">
    <path clip-path="url(#paaaeab525c)" d="M 365.419574 41.565381 
L 365.419574 114.685354 
L 370.749489 114.685354 
L 370.749489 41.565381 
L 365.419574 41.565381 
" style="fill:#008000;stroke:#000000;stroke-linejoin:miter;"/>
   </g>
   <g id="patch_49">
    <path clip-path="url(#paaaeab525c)" d="M 370.749489 49.562878 
L 370.749489 114.685354 
L 376.079403 114.685354 
L 376.079403 49.562878 
L 370.749489 49.562878 
" style="fill:#008000;stroke:#000000;stroke-linejoin:miter;"/>
   </g>
   <g id="patch_50">
    <path clip-path="url(#paaaeab525c)" d="M 376.079403 65.557872 
L 376.079403 114.685354 
L 381.409318 114.685354 
L 381.409318 65.557872 
L 376.079403 65.557872 
" style="fill:#008000;stroke:#000000;stroke-linejoin:miter;"/>
   </g>
   <g id="patch_51">
    <path clip-path="url(#paaaeab525c)" d="M 381.409318 74.697869 
L 381.409318 114.685354 
L 386.739233 114.685354 
L 386.739233 74.697869 
L 381.409318 74.697869 
" style="fill:#008000;stroke:#000000;stroke-linejoin:miter;"/>
   </g>
   <g id="patch_52">
    <path clip-path="url(#paaaeab525c)" d="M 386.739233 91.835363 
L 386.739233 114.685354 
L 392.069148 114.685354 
L 392.069148 91.835363 
L 386.739233 91.835363 
" style="fill:#008000;stroke:#000000;stroke-linejoin:miter;"/>
   </g>
   <g id="patch_53">
    <path clip-path="url(#paaaeab525c)" d="M 392.069148 102.117859 
L 392.069148 114.685354 
L 397.399062 114.685354 
L 397.399062 102.117859 
L 392.069148 102.117859 
" style="fill:#008000;stroke:#000000;stroke-linejoin:miter;"/>
   </g>
   <g id="patch_54">
    <path clip-path="url(#paaaeab525c)" d="M 397.399062 105.545358 
L 397.399062 114.685354 
L 402.728977 114.685354 
L 402.728977 105.545358 
L 397.399062 105.545358 
" style="fill:#008000;stroke:#000000;stroke-linejoin:miter;"/>
   </g>
   <g id="patch_55">
    <path clip-path="url(#paaaeab525c)" d="M 402.728977 107.830357 
L 402.728977 114.685354 
L 408.058892 114.685354 
L 408.058892 107.830357 
L 402.728977 107.830357 
" style="fill:#008000;stroke:#000000;stroke-linejoin:miter;"/>
   </g>
   <g id="patch_56">
    <path clip-path="url(#paaaeab525c)" d="M 408.058892 113.542855 
L 408.058892 114.685354 
L 413.388807 114.685354 
L 413.388807 113.542855 
L 408.058892 113.542855 
" style="fill:#008000;stroke:#000000;stroke-linejoin:miter;"/>
   </g>
   <g id="patch_57">
    <path clip-path="url(#paaaeab525c)" d="M 413.388807 111.257856 
L 413.388807 114.685354 
L 418.718721 114.685354 
L 418.718721 111.257856 
L 413.388807 111.257856 
" style="fill:#008000;stroke:#000000;stroke-linejoin:miter;"/>
   </g>
   <g id="patch_58">
    <path clip-path="url(#paaaeab525c)" d="M 418.718721 112.400355 
L 418.718721 114.685354 
L 424.048636 114.685354 
L 424.048636 112.400355 
L 418.718721 112.400355 
" style="fill:#008000;stroke:#000000;stroke-linejoin:miter;"/>
   </g>
   <g id="matplotlib.axis_3">
    <g id="xtick_5">
     <g id="line2d_11">
      <g>
       <use style="stroke:#000000;stroke-width:0.8;" x="253.491364" xlink:href="#md90c8bdab6" y="114.685354"/>
      </g>
     </g>
     <g id="text_12">
      <!-- 60 -->
      <defs>
       <path d="M 33.015625 40.375 
Q 26.375 40.375 22.484375 35.828125 
Q 18.609375 31.296875 18.609375 23.390625 
Q 18.609375 15.53125 22.484375 10.953125 
Q 26.375 6.390625 33.015625 6.390625 
Q 39.65625 6.390625 43.53125 10.953125 
Q 47.40625 15.53125 47.40625 23.390625 
Q 47.40625 31.296875 43.53125 35.828125 
Q 39.65625 40.375 33.015625 40.375 
z
M 52.59375 71.296875 
L 52.59375 62.3125 
Q 48.875 64.0625 45.09375 64.984375 
Q 41.3125 65.921875 37.59375 65.921875 
Q 27.828125 65.921875 22.671875 59.328125 
Q 17.53125 52.734375 16.796875 39.40625 
Q 19.671875 43.65625 24.015625 45.921875 
Q 28.375 48.1875 33.59375 48.1875 
Q 44.578125 48.1875 50.953125 41.515625 
Q 57.328125 34.859375 57.328125 23.390625 
Q 57.328125 12.15625 50.6875 5.359375 
Q 44.046875 -1.421875 33.015625 -1.421875 
Q 20.359375 -1.421875 13.671875 8.265625 
Q 6.984375 17.96875 6.984375 36.375 
Q 6.984375 53.65625 15.1875 63.9375 
Q 23.390625 74.21875 37.203125 74.21875 
Q 40.921875 74.21875 44.703125 73.484375 
Q 48.484375 72.75 52.59375 71.296875 
z
" id="DejaVuSans-36"/>
      </defs>
      <g transform="translate(248.401364 127.764104)scale(0.08 -0.08)">
       <use xlink:href="#DejaVuSans-36"/>
       <use x="63.623047" xlink:href="#DejaVuSans-30"/>
      </g>
     </g>
    </g>
    <g id="xtick_6">
     <g id="line2d_12">
      <g>
       <use style="stroke:#000000;stroke-width:0.8;" x="306.790511" xlink:href="#md90c8bdab6" y="114.685354"/>
      </g>
     </g>
     <g id="text_13">
      <!-- 70 -->
      <defs>
       <path d="M 8.203125 72.90625 
L 55.078125 72.90625 
L 55.078125 68.703125 
L 28.609375 0 
L 18.3125 0 
L 43.21875 64.59375 
L 8.203125 64.59375 
z
" id="DejaVuSans-37"/>
      </defs>
      <g transform="translate(301.700511 127.764104)scale(0.08 -0.08)">
       <use xlink:href="#DejaVuSans-37"/>
       <use x="63.623047" xlink:href="#DejaVuSans-30"/>
      </g>
     </g>
    </g>
    <g id="xtick_7">
     <g id="line2d_13">
      <g>
       <use style="stroke:#000000;stroke-width:0.8;" x="360.089659" xlink:href="#md90c8bdab6" y="114.685354"/>
      </g>
     </g>
     <g id="text_14">
      <!-- 80 -->
      <defs>
       <path d="M 31.78125 34.625 
Q 24.75 34.625 20.71875 30.859375 
Q 16.703125 27.09375 16.703125 20.515625 
Q 16.703125 13.921875 20.71875 10.15625 
Q 24.75 6.390625 31.78125 6.390625 
Q 38.8125 6.390625 42.859375 10.171875 
Q 46.921875 13.96875 46.921875 20.515625 
Q 46.921875 27.09375 42.890625 30.859375 
Q 38.875 34.625 31.78125 34.625 
z
M 21.921875 38.8125 
Q 15.578125 40.375 12.03125 44.71875 
Q 8.5 49.078125 8.5 55.328125 
Q 8.5 64.0625 14.71875 69.140625 
Q 20.953125 74.21875 31.78125 74.21875 
Q 42.671875 74.21875 48.875 69.140625 
Q 55.078125 64.0625 55.078125 55.328125 
Q 55.078125 49.078125 51.53125 44.71875 
Q 48 40.375 41.703125 38.8125 
Q 48.828125 37.15625 52.796875 32.3125 
Q 56.78125 27.484375 56.78125 20.515625 
Q 56.78125 9.90625 50.3125 4.234375 
Q 43.84375 -1.421875 31.78125 -1.421875 
Q 19.734375 -1.421875 13.25 4.234375 
Q 6.78125 9.90625 6.78125 20.515625 
Q 6.78125 27.484375 10.78125 32.3125 
Q 14.796875 37.15625 21.921875 38.8125 
z
M 18.3125 54.390625 
Q 18.3125 48.734375 21.84375 45.5625 
Q 25.390625 42.390625 31.78125 42.390625 
Q 38.140625 42.390625 41.71875 45.5625 
Q 45.3125 48.734375 45.3125 54.390625 
Q 45.3125 60.0625 41.71875 63.234375 
Q 38.140625 66.40625 31.78125 66.40625 
Q 25.390625 66.40625 21.84375 63.234375 
Q 18.3125 60.0625 18.3125 54.390625 
z
" id="DejaVuSans-38"/>
      </defs>
      <g transform="translate(354.999659 127.764104)scale(0.08 -0.08)">
       <use xlink:href="#DejaVuSans-38"/>
       <use x="63.623047" xlink:href="#DejaVuSans-30"/>
      </g>
     </g>
    </g>
    <g id="xtick_8">
     <g id="line2d_14">
      <g>
       <use style="stroke:#000000;stroke-width:0.8;" x="413.388807" xlink:href="#md90c8bdab6" y="114.685354"/>
      </g>
     </g>
     <g id="text_15">
      <!-- 90 -->
      <defs>
       <path d="M 10.984375 1.515625 
L 10.984375 10.5 
Q 14.703125 8.734375 18.5 7.8125 
Q 22.3125 6.890625 25.984375 6.890625 
Q 35.75 6.890625 40.890625 13.453125 
Q 46.046875 20.015625 46.78125 33.40625 
Q 43.953125 29.203125 39.59375 26.953125 
Q 35.25 24.703125 29.984375 24.703125 
Q 19.046875 24.703125 12.671875 31.3125 
Q 6.296875 37.9375 6.296875 49.421875 
Q 6.296875 60.640625 12.9375 67.421875 
Q 19.578125 74.21875 30.609375 74.21875 
Q 43.265625 74.21875 49.921875 64.515625 
Q 56.59375 54.828125 56.59375 36.375 
Q 56.59375 19.140625 48.40625 8.859375 
Q 40.234375 -1.421875 26.421875 -1.421875 
Q 22.703125 -1.421875 18.890625 -0.6875 
Q 15.09375 0.046875 10.984375 1.515625 
z
M 30.609375 32.421875 
Q 37.25 32.421875 41.125 36.953125 
Q 45.015625 41.5 45.015625 49.421875 
Q 45.015625 57.28125 41.125 61.84375 
Q 37.25 66.40625 30.609375 66.40625 
Q 23.96875 66.40625 20.09375 61.84375 
Q 16.21875 57.28125 16.21875 49.421875 
Q 16.21875 41.5 20.09375 36.953125 
Q 23.96875 32.421875 30.609375 32.421875 
z
" id="DejaVuSans-39"/>
      </defs>
      <g transform="translate(408.298807 127.764104)scale(0.08 -0.08)">
       <use xlink:href="#DejaVuSans-39"/>
       <use x="63.623047" xlink:href="#DejaVuSans-30"/>
      </g>
     </g>
    </g>
    <g id="text_16">
     <!-- population size -->
     <g transform="translate(297.090312 141.786136)scale(0.11 -0.11)">
      <use xlink:href="#DejaVuSans-70"/>
      <use x="63.476562" xlink:href="#DejaVuSans-6f"/>
      <use x="124.658203" xlink:href="#DejaVuSans-70"/>
      <use x="188.134766" xlink:href="#DejaVuSans-75"/>
      <use x="251.513672" xlink:href="#DejaVuSans-6c"/>
      <use x="279.296875" xlink:href="#DejaVuSans-61"/>
      <use x="340.576172" xlink:href="#DejaVuSans-74"/>
      <use x="379.785156" xlink:href="#DejaVuSans-69"/>
      <use x="407.568359" xlink:href="#DejaVuSans-6f"/>
      <use x="468.75" xlink:href="#DejaVuSans-6e"/>
      <use x="532.128906" xlink:href="#DejaVuSans-20"/>
      <use x="563.916016" xlink:href="#DejaVuSans-73"/>
      <use x="616.015625" xlink:href="#DejaVuSans-69"/>
      <use x="643.798828" xlink:href="#DejaVuSans-7a"/>
      <use x="696.289062" xlink:href="#DejaVuSans-65"/>
     </g>
    </g>
   </g>
   <g id="matplotlib.axis_4">
    <g id="ytick_5">
     <g id="line2d_15">
      <g>
       <use style="stroke:#000000;stroke-width:0.8;" x="248.374646" xlink:href="#me6e000e73b" y="114.685354"/>
      </g>
     </g>
     <g id="text_17">
      <!-- 0 -->
      <g transform="translate(236.284646 117.724729)scale(0.08 -0.08)">
       <use xlink:href="#DejaVuSans-30"/>
      </g>
     </g>
    </g>
    <g id="ytick_6">
     <g id="line2d_16">
      <g>
       <use style="stroke:#000000;stroke-width:0.8;" x="248.374646" xlink:href="#me6e000e73b" y="86.122865"/>
      </g>
     </g>
     <g id="text_18">
      <!-- 25 -->
      <defs>
       <path d="M 19.1875 8.296875 
L 53.609375 8.296875 
L 53.609375 0 
L 7.328125 0 
L 7.328125 8.296875 
Q 12.9375 14.109375 22.625 23.890625 
Q 32.328125 33.6875 34.8125 36.53125 
Q 39.546875 41.84375 41.421875 45.53125 
Q 43.3125 49.21875 43.3125 52.78125 
Q 43.3125 58.59375 39.234375 62.25 
Q 35.15625 65.921875 28.609375 65.921875 
Q 23.96875 65.921875 18.8125 64.3125 
Q 13.671875 62.703125 7.8125 59.421875 
L 7.8125 69.390625 
Q 13.765625 71.78125 18.9375 73 
Q 24.125 74.21875 28.421875 74.21875 
Q 39.75 74.21875 46.484375 68.546875 
Q 53.21875 62.890625 53.21875 53.421875 
Q 53.21875 48.921875 51.53125 44.890625 
Q 49.859375 40.875 45.40625 35.40625 
Q 44.1875 33.984375 37.640625 27.21875 
Q 31.109375 20.453125 19.1875 8.296875 
z
" id="DejaVuSans-32"/>
      </defs>
      <g transform="translate(231.194646 89.16224)scale(0.08 -0.08)">
       <use xlink:href="#DejaVuSans-32"/>
       <use x="63.623047" xlink:href="#DejaVuSans-35"/>
      </g>
     </g>
    </g>
    <g id="ytick_7">
     <g id="line2d_17">
      <g>
       <use style="stroke:#000000;stroke-width:0.8;" x="248.374646" xlink:href="#me6e000e73b" y="57.560375"/>
      </g>
     </g>
     <g id="text_19">
      <!-- 50 -->
      <g transform="translate(231.194646 60.59975)scale(0.08 -0.08)">
       <use xlink:href="#DejaVuSans-35"/>
       <use x="63.623047" xlink:href="#DejaVuSans-30"/>
      </g>
     </g>
    </g>
    <g id="ytick_8">
     <g id="line2d_18">
      <g>
       <use style="stroke:#000000;stroke-width:0.8;" x="248.374646" xlink:href="#me6e000e73b" y="28.997886"/>
      </g>
     </g>
     <g id="text_20">
      <!-- 75 -->
      <g transform="translate(231.194646 32.037261)scale(0.08 -0.08)">
       <use xlink:href="#DejaVuSans-37"/>
       <use x="63.623047" xlink:href="#DejaVuSans-35"/>
      </g>
     </g>
    </g>
    <g id="text_21">
     <!-- frequency -->
     <g transform="translate(224.906989 86.46625)rotate(-90)scale(0.11 -0.11)">
      <use xlink:href="#DejaVuSans-66"/>
      <use x="35.205078" xlink:href="#DejaVuSans-72"/>
      <use x="76.287109" xlink:href="#DejaVuSans-65"/>
      <use x="137.810547" xlink:href="#DejaVuSans-71"/>
      <use x="201.287109" xlink:href="#DejaVuSans-75"/>
      <use x="264.666016" xlink:href="#DejaVuSans-65"/>
      <use x="326.189453" xlink:href="#DejaVuSans-6e"/>
      <use x="389.568359" xlink:href="#DejaVuSans-63"/>
      <use x="444.548828" xlink:href="#DejaVuSans-79"/>
     </g>
    </g>
   </g>
   <g id="patch_59">
    <path d="M 248.374646 114.685354 
L 248.374646 2.834646 
" style="fill:none;stroke:#000000;stroke-linecap:square;stroke-linejoin:miter;stroke-width:0.8;"/>
   </g>
   <g id="patch_60">
    <path d="M 429.165354 114.685354 
L 429.165354 2.834646 
" style="fill:none;stroke:#000000;stroke-linecap:square;stroke-linejoin:miter;stroke-width:0.8;"/>
   </g>
   <g id="patch_61">
    <path d="M 248.374646 114.685354 
L 429.165354 114.685354 
" style="fill:none;stroke:#000000;stroke-linecap:square;stroke-linejoin:miter;stroke-width:0.8;"/>
   </g>
   <g id="patch_62">
    <path d="M 248.374646 2.834646 
L 429.165354 2.834646 
" style="fill:none;stroke:#000000;stroke-linecap:square;stroke-linejoin:miter;stroke-width:0.8;"/>
   </g>
   <g id="legend_2">
    <g id="patch_63">
     <path d="M 392.910354 20.977146 
L 423.565354 20.977146 
Q 425.165354 20.977146 425.165354 19.377146 
L 425.165354 8.434646 
Q 425.165354 6.834646 423.565354 6.834646 
L 392.910354 6.834646 
Q 391.310354 6.834646 391.310354 8.434646 
L 391.310354 19.377146 
Q 391.310354 20.977146 392.910354 20.977146 
z
" style="fill:#ffffff;opacity:0.8;stroke:#000000;stroke-linejoin:miter;"/>
    </g>
    <g id="line2d_19">
     <path d="M 394.510354 13.313396 
L 410.510354 13.313396 
" style="fill:none;stroke:#008000;stroke-linecap:square;stroke-width:4;"/>
    </g>
    <g id="line2d_20"/>
    <g id="text_22">
     <!-- E -->
     <defs>
      <path d="M 9.8125 72.90625 
L 55.90625 72.90625 
L 55.90625 64.59375 
L 19.671875 64.59375 
L 19.671875 43.015625 
L 54.390625 43.015625 
L 54.390625 34.71875 
L 19.671875 34.71875 
L 19.671875 8.296875 
L 56.78125 8.296875 
L 56.78125 0 
L 9.8125 0 
z
" id="DejaVuSans-45"/>
     </defs>
     <g transform="translate(416.910354 16.113396)scale(0.08 -0.08)">
      <use xlink:href="#DejaVuSans-45"/>
     </g>
    </g>
   </g>
  </g>
  <g id="axes_3">
   <g id="patch_64">
    <path d="M 37.504646 258.685354 
L 213.165354 258.685354 
L 213.165354 146.834646 
L 37.504646 146.834646 
z
" style="fill:#ffffff;"/>
   </g>
   <g id="patch_65">
    <path clip-path="url(#p10cb259419)" d="M 42.476175 256.400355 
L 42.476175 258.685354 
L 47.654852 258.685354 
L 47.654852 256.400355 
L 42.476175 256.400355 
" style="fill:#ffa500;stroke:#000000;stroke-linejoin:miter;"/>
   </g>
   <g id="patch_66">
    <path clip-path="url(#p10cb259419)" d="M 47.654852 255.257856 
L 47.654852 258.685354 
L 52.833528 258.685354 
L 52.833528 255.257856 
L 47.654852 255.257856 
" style="fill:#ffa500;stroke:#000000;stroke-linejoin:miter;"/>
   </g>
   <g id="patch_67">
    <path clip-path="url(#p10cb259419)" d="M 52.833528 257.542855 
L 52.833528 258.685354 
L 58.012205 258.685354 
L 58.012205 257.542855 
L 52.833528 257.542855 
" style="fill:#ffa500;stroke:#000000;stroke-linejoin:miter;"/>
   </g>
   <g id="patch_68">
    <path clip-path="url(#p10cb259419)" d="M 58.012205 251.830357 
L 58.012205 258.685354 
L 63.190881 258.685354 
L 63.190881 251.830357 
L 58.012205 251.830357 
" style="fill:#ffa500;stroke:#000000;stroke-linejoin:miter;"/>
   </g>
   <g id="patch_69">
    <path clip-path="url(#p10cb259419)" d="M 63.190881 249.545358 
L 63.190881 258.685354 
L 68.369558 258.685354 
L 68.369558 249.545358 
L 63.190881 249.545358 
" style="fill:#ffa500;stroke:#000000;stroke-linejoin:miter;"/>
   </g>
   <g id="patch_70">
    <path clip-path="url(#p10cb259419)" d="M 68.369558 246.117859 
L 68.369558 258.685354 
L 73.548234 258.685354 
L 73.548234 246.117859 
L 68.369558 246.117859 
" style="fill:#ffa500;stroke:#000000;stroke-linejoin:miter;"/>
   </g>
   <g id="patch_71">
    <path clip-path="url(#p10cb259419)" d="M 73.548234 235.835363 
L 73.548234 258.685354 
L 78.726911 258.685354 
L 78.726911 235.835363 
L 73.548234 235.835363 
" style="fill:#ffa500;stroke:#000000;stroke-linejoin:miter;"/>
   </g>
   <g id="patch_72">
    <path clip-path="url(#p10cb259419)" d="M 78.726911 218.697869 
L 78.726911 258.685354 
L 83.905588 258.685354 
L 83.905588 218.697869 
L 78.726911 218.697869 
" style="fill:#ffa500;stroke:#000000;stroke-linejoin:miter;"/>
   </g>
   <g id="patch_73">
    <path clip-path="url(#p10cb259419)" d="M 83.905588 209.557872 
L 83.905588 258.685354 
L 89.084264 258.685354 
L 89.084264 209.557872 
L 83.905588 209.557872 
" style="fill:#ffa500;stroke:#000000;stroke-linejoin:miter;"/>
   </g>
   <g id="patch_74">
    <path clip-path="url(#p10cb259419)" d="M 89.084264 193.562878 
L 89.084264 258.685354 
L 94.262941 258.685354 
L 94.262941 193.562878 
L 89.084264 193.562878 
" style="fill:#ffa500;stroke:#000000;stroke-linejoin:miter;"/>
   </g>
   <g id="patch_75">
    <path clip-path="url(#p10cb259419)" d="M 94.262941 185.565381 
L 94.262941 258.685354 
L 99.441617 258.685354 
L 99.441617 185.565381 
L 94.262941 185.565381 
" style="fill:#ffa500;stroke:#000000;stroke-linejoin:miter;"/>
   </g>
   <g id="patch_76">
    <path clip-path="url(#p10cb259419)" d="M 99.441617 184.422882 
L 99.441617 258.685354 
L 104.620294 258.685354 
L 104.620294 184.422882 
L 99.441617 184.422882 
" style="fill:#ffa500;stroke:#000000;stroke-linejoin:miter;"/>
   </g>
   <g id="patch_77">
    <path clip-path="url(#p10cb259419)" d="M 104.620294 169.570387 
L 104.620294 258.685354 
L 109.79897 258.685354 
L 109.79897 169.570387 
L 104.620294 169.570387 
" style="fill:#ffa500;stroke:#000000;stroke-linejoin:miter;"/>
   </g>
   <g id="patch_78">
    <path clip-path="url(#p10cb259419)" d="M 109.79897 158.145391 
L 109.79897 258.685354 
L 114.977647 258.685354 
L 114.977647 158.145391 
L 109.79897 158.145391 
" style="fill:#ffa500;stroke:#000000;stroke-linejoin:miter;"/>
   </g>
   <g id="patch_79">
    <path clip-path="url(#p10cb259419)" d="M 114.977647 169.570387 
L 114.977647 258.685354 
L 120.156323 258.685354 
L 120.156323 169.570387 
L 114.977647 169.570387 
" style="fill:#ffa500;stroke:#000000;stroke-linejoin:miter;"/>
   </g>
   <g id="patch_80">
    <path clip-path="url(#p10cb259419)" d="M 120.156323 157.002892 
L 120.156323 258.685354 
L 125.335 258.685354 
L 125.335 157.002892 
L 120.156323 157.002892 
" style="fill:#ffa500;stroke:#000000;stroke-linejoin:miter;"/>
   </g>
   <g id="patch_81">
    <path clip-path="url(#p10cb259419)" d="M 125.335 179.852883 
L 125.335 258.685354 
L 130.513677 258.685354 
L 130.513677 179.852883 
L 125.335 179.852883 
" style="fill:#ffa500;stroke:#000000;stroke-linejoin:miter;"/>
   </g>
   <g id="patch_82">
    <path clip-path="url(#p10cb259419)" d="M 130.513677 177.567884 
L 130.513677 258.685354 
L 135.692353 258.685354 
L 135.692353 177.567884 
L 130.513677 177.567884 
" style="fill:#ffa500;stroke:#000000;stroke-linejoin:miter;"/>
   </g>
   <g id="patch_83">
    <path clip-path="url(#p10cb259419)" d="M 135.692353 196.990377 
L 135.692353 258.685354 
L 140.87103 258.685354 
L 140.87103 196.990377 
L 135.692353 196.990377 
" style="fill:#ffa500;stroke:#000000;stroke-linejoin:miter;"/>
   </g>
   <g id="patch_84">
    <path clip-path="url(#p10cb259419)" d="M 140.87103 208.415373 
L 140.87103 258.685354 
L 146.049706 258.685354 
L 146.049706 208.415373 
L 140.87103 208.415373 
" style="fill:#ffa500;stroke:#000000;stroke-linejoin:miter;"/>
   </g>
   <g id="patch_85">
    <path clip-path="url(#p10cb259419)" d="M 146.049706 223.267867 
L 146.049706 258.685354 
L 151.228383 258.685354 
L 151.228383 223.267867 
L 146.049706 223.267867 
" style="fill:#ffa500;stroke:#000000;stroke-linejoin:miter;"/>
   </g>
   <g id="patch_86">
    <path clip-path="url(#p10cb259419)" d="M 151.228383 225.552867 
L 151.228383 258.685354 
L 156.407059 258.685354 
L 156.407059 225.552867 
L 151.228383 225.552867 
" style="fill:#ffa500;stroke:#000000;stroke-linejoin:miter;"/>
   </g>
   <g id="patch_87">
    <path clip-path="url(#p10cb259419)" d="M 156.407059 234.692863 
L 156.407059 258.685354 
L 161.585736 258.685354 
L 161.585736 234.692863 
L 156.407059 234.692863 
" style="fill:#ffa500;stroke:#000000;stroke-linejoin:miter;"/>
   </g>
   <g id="patch_88">
    <path clip-path="url(#p10cb259419)" d="M 161.585736 246.117859 
L 161.585736 258.685354 
L 166.764412 258.685354 
L 166.764412 246.117859 
L 161.585736 246.117859 
" style="fill:#ffa500;stroke:#000000;stroke-linejoin:miter;"/>
   </g>
   <g id="patch_89">
    <path clip-path="url(#p10cb259419)" d="M 166.764412 251.830357 
L 166.764412 258.685354 
L 171.943089 258.685354 
L 171.943089 251.830357 
L 166.764412 251.830357 
" style="fill:#ffa500;stroke:#000000;stroke-linejoin:miter;"/>
   </g>
   <g id="patch_90">
    <path clip-path="url(#p10cb259419)" d="M 171.943089 256.400355 
L 171.943089 258.685354 
L 177.121766 258.685354 
L 177.121766 256.400355 
L 171.943089 256.400355 
" style="fill:#ffa500;stroke:#000000;stroke-linejoin:miter;"/>
   </g>
   <g id="patch_91">
    <path clip-path="url(#p10cb259419)" d="M 177.121766 251.830357 
L 177.121766 258.685354 
L 182.300442 258.685354 
L 182.300442 251.830357 
L 177.121766 251.830357 
" style="fill:#ffa500;stroke:#000000;stroke-linejoin:miter;"/>
   </g>
   <g id="patch_92">
    <path clip-path="url(#p10cb259419)" d="M 182.300442 256.400355 
L 182.300442 258.685354 
L 187.479119 258.685354 
L 187.479119 256.400355 
L 182.300442 256.400355 
" style="fill:#ffa500;stroke:#000000;stroke-linejoin:miter;"/>
   </g>
   <g id="patch_93">
    <path clip-path="url(#p10cb259419)" d="M 187.479119 256.400355 
L 187.479119 258.685354 
L 192.657795 258.685354 
L 192.657795 256.400355 
L 187.479119 256.400355 
" style="fill:#ffa500;stroke:#000000;stroke-linejoin:miter;"/>
   </g>
   <g id="patch_94">
    <path clip-path="url(#p10cb259419)" d="M 192.657795 256.400355 
L 192.657795 258.685354 
L 197.836472 258.685354 
L 197.836472 256.400355 
L 192.657795 256.400355 
" style="fill:#ffa500;stroke:#000000;stroke-linejoin:miter;"/>
   </g>
   <g id="patch_95">
    <path clip-path="url(#p10cb259419)" d="M 197.836472 258.685354 
L 197.836472 258.685354 
L 203.015148 258.685354 
L 203.015148 258.685354 
L 197.836472 258.685354 
" style="fill:#ffa500;stroke:#000000;stroke-linejoin:miter;"/>
   </g>
   <g id="patch_96">
    <path clip-path="url(#p10cb259419)" d="M 203.015148 256.400355 
L 203.015148 258.685354 
L 208.193825 258.685354 
L 208.193825 256.400355 
L 203.015148 256.400355 
" style="fill:#ffa500;stroke:#000000;stroke-linejoin:miter;"/>
   </g>
   <g id="matplotlib.axis_5">
    <g id="xtick_9">
     <g id="line2d_21">
      <g>
       <use style="stroke:#000000;stroke-width:0.8;" x="47.654852" xlink:href="#md90c8bdab6" y="258.685354"/>
      </g>
     </g>
     <g id="text_23">
      <!-- 10 -->
      <g transform="translate(42.564852 271.764104)scale(0.08 -0.08)">
       <use xlink:href="#DejaVuSans-31"/>
       <use x="63.623047" xlink:href="#DejaVuSans-30"/>
      </g>
     </g>
    </g>
    <g id="xtick_10">
     <g id="line2d_22">
      <g>
       <use style="stroke:#000000;stroke-width:0.8;" x="99.441617" xlink:href="#md90c8bdab6" y="258.685354"/>
      </g>
     </g>
     <g id="text_24">
      <!-- 20 -->
      <g transform="translate(94.351617 271.764104)scale(0.08 -0.08)">
       <use xlink:href="#DejaVuSans-32"/>
       <use x="63.623047" xlink:href="#DejaVuSans-30"/>
      </g>
     </g>
    </g>
    <g id="xtick_11">
     <g id="line2d_23">
      <g>
       <use style="stroke:#000000;stroke-width:0.8;" x="151.228383" xlink:href="#md90c8bdab6" y="258.685354"/>
      </g>
     </g>
     <g id="text_25">
      <!-- 30 -->
      <defs>
       <path d="M 40.578125 39.3125 
Q 47.65625 37.796875 51.625 33 
Q 55.609375 28.21875 55.609375 21.1875 
Q 55.609375 10.40625 48.1875 4.484375 
Q 40.765625 -1.421875 27.09375 -1.421875 
Q 22.515625 -1.421875 17.65625 -0.515625 
Q 12.796875 0.390625 7.625 2.203125 
L 7.625 11.71875 
Q 11.71875 9.328125 16.59375 8.109375 
Q 21.484375 6.890625 26.8125 6.890625 
Q 36.078125 6.890625 40.9375 10.546875 
Q 45.796875 14.203125 45.796875 21.1875 
Q 45.796875 27.640625 41.28125 31.265625 
Q 36.765625 34.90625 28.71875 34.90625 
L 20.21875 34.90625 
L 20.21875 43.015625 
L 29.109375 43.015625 
Q 36.375 43.015625 40.234375 45.921875 
Q 44.09375 48.828125 44.09375 54.296875 
Q 44.09375 59.90625 40.109375 62.90625 
Q 36.140625 65.921875 28.71875 65.921875 
Q 24.65625 65.921875 20.015625 65.03125 
Q 15.375 64.15625 9.8125 62.3125 
L 9.8125 71.09375 
Q 15.4375 72.65625 20.34375 73.4375 
Q 25.25 74.21875 29.59375 74.21875 
Q 40.828125 74.21875 47.359375 69.109375 
Q 53.90625 64.015625 53.90625 55.328125 
Q 53.90625 49.265625 50.4375 45.09375 
Q 46.96875 40.921875 40.578125 39.3125 
z
" id="DejaVuSans-33"/>
      </defs>
      <g transform="translate(146.138383 271.764104)scale(0.08 -0.08)">
       <use xlink:href="#DejaVuSans-33"/>
       <use x="63.623047" xlink:href="#DejaVuSans-30"/>
      </g>
     </g>
    </g>
    <g id="xtick_12">
     <g id="line2d_24">
      <g>
       <use style="stroke:#000000;stroke-width:0.8;" x="203.015148" xlink:href="#md90c8bdab6" y="258.685354"/>
      </g>
     </g>
     <g id="text_26">
      <!-- 40 -->
      <defs>
       <path d="M 37.796875 64.3125 
L 12.890625 25.390625 
L 37.796875 25.390625 
z
M 35.203125 72.90625 
L 47.609375 72.90625 
L 47.609375 25.390625 
L 58.015625 25.390625 
L 58.015625 17.1875 
L 47.609375 17.1875 
L 47.609375 0 
L 37.796875 0 
L 37.796875 17.1875 
L 4.890625 17.1875 
L 4.890625 26.703125 
z
" id="DejaVuSans-34"/>
      </defs>
      <g transform="translate(197.925148 271.764104)scale(0.08 -0.08)">
       <use xlink:href="#DejaVuSans-34"/>
       <use x="63.623047" xlink:href="#DejaVuSans-30"/>
      </g>
     </g>
    </g>
    <g id="text_27">
     <!-- population size -->
     <g transform="translate(83.655312 285.786136)scale(0.11 -0.11)">
      <use xlink:href="#DejaVuSans-70"/>
      <use x="63.476562" xlink:href="#DejaVuSans-6f"/>
      <use x="124.658203" xlink:href="#DejaVuSans-70"/>
      <use x="188.134766" xlink:href="#DejaVuSans-75"/>
      <use x="251.513672" xlink:href="#DejaVuSans-6c"/>
      <use x="279.296875" xlink:href="#DejaVuSans-61"/>
      <use x="340.576172" xlink:href="#DejaVuSans-74"/>
      <use x="379.785156" xlink:href="#DejaVuSans-69"/>
      <use x="407.568359" xlink:href="#DejaVuSans-6f"/>
      <use x="468.75" xlink:href="#DejaVuSans-6e"/>
      <use x="532.128906" xlink:href="#DejaVuSans-20"/>
      <use x="563.916016" xlink:href="#DejaVuSans-73"/>
      <use x="616.015625" xlink:href="#DejaVuSans-69"/>
      <use x="643.798828" xlink:href="#DejaVuSans-7a"/>
      <use x="696.289062" xlink:href="#DejaVuSans-65"/>
     </g>
    </g>
   </g>
   <g id="matplotlib.axis_6">
    <g id="ytick_9">
     <g id="line2d_25">
      <g>
       <use style="stroke:#000000;stroke-width:0.8;" x="37.504646" xlink:href="#me6e000e73b" y="258.685354"/>
      </g>
     </g>
     <g id="text_28">
      <!-- 0 -->
      <g transform="translate(25.414646 261.724729)scale(0.08 -0.08)">
       <use xlink:href="#DejaVuSans-30"/>
      </g>
     </g>
    </g>
    <g id="ytick_10">
     <g id="line2d_26">
      <g>
       <use style="stroke:#000000;stroke-width:0.8;" x="37.504646" xlink:href="#me6e000e73b" y="230.122865"/>
      </g>
     </g>
     <g id="text_29">
      <!-- 25 -->
      <g transform="translate(20.324646 233.16224)scale(0.08 -0.08)">
       <use xlink:href="#DejaVuSans-32"/>
       <use x="63.623047" xlink:href="#DejaVuSans-35"/>
      </g>
     </g>
    </g>
    <g id="ytick_11">
     <g id="line2d_27">
      <g>
       <use style="stroke:#000000;stroke-width:0.8;" x="37.504646" xlink:href="#me6e000e73b" y="201.560375"/>
      </g>
     </g>
     <g id="text_30">
      <!-- 50 -->
      <g transform="translate(20.324646 204.59975)scale(0.08 -0.08)">
       <use xlink:href="#DejaVuSans-35"/>
       <use x="63.623047" xlink:href="#DejaVuSans-30"/>
      </g>
     </g>
    </g>
    <g id="ytick_12">
     <g id="line2d_28">
      <g>
       <use style="stroke:#000000;stroke-width:0.8;" x="37.504646" xlink:href="#me6e000e73b" y="172.997886"/>
      </g>
     </g>
     <g id="text_31">
      <!-- 75 -->
      <g transform="translate(20.324646 176.037261)scale(0.08 -0.08)">
       <use xlink:href="#DejaVuSans-37"/>
       <use x="63.623047" xlink:href="#DejaVuSans-35"/>
      </g>
     </g>
    </g>
    <g id="text_32">
     <!-- frequency -->
     <g transform="translate(14.036989 230.46625)rotate(-90)scale(0.11 -0.11)">
      <use xlink:href="#DejaVuSans-66"/>
      <use x="35.205078" xlink:href="#DejaVuSans-72"/>
      <use x="76.287109" xlink:href="#DejaVuSans-65"/>
      <use x="137.810547" xlink:href="#DejaVuSans-71"/>
      <use x="201.287109" xlink:href="#DejaVuSans-75"/>
      <use x="264.666016" xlink:href="#DejaVuSans-65"/>
      <use x="326.189453" xlink:href="#DejaVuSans-6e"/>
      <use x="389.568359" xlink:href="#DejaVuSans-63"/>
      <use x="444.548828" xlink:href="#DejaVuSans-79"/>
     </g>
    </g>
   </g>
   <g id="patch_97">
    <path d="M 37.504646 258.685354 
L 37.504646 146.834646 
" style="fill:none;stroke:#000000;stroke-linecap:square;stroke-linejoin:miter;stroke-width:0.8;"/>
   </g>
   <g id="patch_98">
    <path d="M 213.165354 258.685354 
L 213.165354 146.834646 
" style="fill:none;stroke:#000000;stroke-linecap:square;stroke-linejoin:miter;stroke-width:0.8;"/>
   </g>
   <g id="patch_99">
    <path d="M 37.504646 258.685354 
L 213.165354 258.685354 
" style="fill:none;stroke:#000000;stroke-linecap:square;stroke-linejoin:miter;stroke-width:0.8;"/>
   </g>
   <g id="patch_100">
    <path d="M 37.504646 146.834646 
L 213.165354 146.834646 
" style="fill:none;stroke:#000000;stroke-linecap:square;stroke-linejoin:miter;stroke-width:0.8;"/>
   </g>
   <g id="legend_3">
    <g id="patch_101">
     <path d="M 171.831604 164.977146 
L 207.565354 164.977146 
Q 209.165354 164.977146 209.165354 163.377146 
L 209.165354 152.434646 
Q 209.165354 150.834646 207.565354 150.834646 
L 171.831604 150.834646 
Q 170.231604 150.834646 170.231604 152.434646 
L 170.231604 163.377146 
Q 170.231604 164.977146 171.831604 164.977146 
z
" style="fill:#ffffff;opacity:0.8;stroke:#000000;stroke-linejoin:miter;"/>
    </g>
    <g id="line2d_29">
     <path d="M 173.431604 157.313396 
L 189.431604 157.313396 
" style="fill:none;stroke:#ffa500;stroke-linecap:square;stroke-width:4;"/>
    </g>
    <g id="line2d_30"/>
    <g id="text_33">
     <!-- SE -->
     <g transform="translate(195.831604 160.113396)scale(0.08 -0.08)">
      <use xlink:href="#DejaVuSans-53"/>
      <use x="63.476562" xlink:href="#DejaVuSans-45"/>
     </g>
    </g>
   </g>
  </g>
  <g id="axes_4">
   <g id="patch_102">
    <path d="M 253.504646 258.685354 
L 429.165354 258.685354 
L 429.165354 146.834646 
L 253.504646 146.834646 
z
" style="fill:#ffffff;"/>
   </g>
   <g id="patch_103">
    <path clip-path="url(#pfecce0e9a8)" d="M 258.476175 256.458731 
L 258.476175 258.685354 
L 266.762058 258.685354 
L 266.762058 256.458731 
L 258.476175 256.458731 
" style="fill:#ff0000;stroke:#000000;stroke-linejoin:miter;"/>
   </g>
   <g id="patch_104">
    <path clip-path="url(#pfecce0e9a8)" d="M 266.762058 257.200939 
L 266.762058 258.685354 
L 275.04794 258.685354 
L 275.04794 257.200939 
L 266.762058 257.200939 
" style="fill:#ff0000;stroke:#000000;stroke-linejoin:miter;"/>
   </g>
   <g id="patch_105">
    <path clip-path="url(#pfecce0e9a8)" d="M 275.04794 254.232108 
L 275.04794 258.685354 
L 283.333823 258.685354 
L 283.333823 254.232108 
L 275.04794 254.232108 
" style="fill:#ff0000;stroke:#000000;stroke-linejoin:miter;"/>
   </g>
   <g id="patch_106">
    <path clip-path="url(#pfecce0e9a8)" d="M 283.333823 254.974316 
L 283.333823 258.685354 
L 291.619705 258.685354 
L 291.619705 254.974316 
L 283.333823 254.974316 
" style="fill:#ff0000;stroke:#000000;stroke-linejoin:miter;"/>
   </g>
   <g id="patch_107">
    <path clip-path="url(#pfecce0e9a8)" d="M 291.619705 249.036654 
L 291.619705 258.685354 
L 299.905588 258.685354 
L 299.905588 249.036654 
L 291.619705 249.036654 
" style="fill:#ff0000;stroke:#000000;stroke-linejoin:miter;"/>
   </g>
   <g id="patch_108">
    <path clip-path="url(#pfecce0e9a8)" d="M 299.905588 237.903537 
L 299.905588 258.685354 
L 308.19147 258.685354 
L 308.19147 237.903537 
L 299.905588 237.903537 
" style="fill:#ff0000;stroke:#000000;stroke-linejoin:miter;"/>
   </g>
   <g id="patch_109">
    <path clip-path="url(#pfecce0e9a8)" d="M 308.19147 228.997044 
L 308.19147 258.685354 
L 316.477353 258.685354 
L 316.477353 228.997044 
L 308.19147 228.997044 
" style="fill:#ff0000;stroke:#000000;stroke-linejoin:miter;"/>
   </g>
   <g id="patch_110">
    <path clip-path="url(#pfecce0e9a8)" d="M 316.477353 211.926266 
L 316.477353 258.685354 
L 324.763235 258.685354 
L 324.763235 211.926266 
L 316.477353 211.926266 
" style="fill:#ff0000;stroke:#000000;stroke-linejoin:miter;"/>
   </g>
   <g id="patch_111">
    <path clip-path="url(#pfecce0e9a8)" d="M 324.763235 188.917825 
L 324.763235 258.685354 
L 333.049118 258.685354 
L 333.049118 188.917825 
L 324.763235 188.917825 
" style="fill:#ff0000;stroke:#000000;stroke-linejoin:miter;"/>
   </g>
   <g id="patch_112">
    <path clip-path="url(#pfecce0e9a8)" d="M 333.049118 179.269125 
L 333.049118 258.685354 
L 341.335 258.685354 
L 341.335 179.269125 
L 333.049118 179.269125 
" style="fill:#ff0000;stroke:#000000;stroke-linejoin:miter;"/>
   </g>
   <g id="patch_113">
    <path clip-path="url(#pfecce0e9a8)" d="M 341.335 157.002892 
L 341.335 258.685354 
L 349.620882 258.685354 
L 349.620882 157.002892 
L 341.335 157.002892 
" style="fill:#ff0000;stroke:#000000;stroke-linejoin:miter;"/>
   </g>
   <g id="patch_114">
    <path clip-path="url(#pfecce0e9a8)" d="M 349.620882 163.682762 
L 349.620882 258.685354 
L 357.906765 258.685354 
L 357.906765 163.682762 
L 349.620882 163.682762 
" style="fill:#ff0000;stroke:#000000;stroke-linejoin:miter;"/>
   </g>
   <g id="patch_115">
    <path clip-path="url(#pfecce0e9a8)" d="M 357.906765 162.940554 
L 357.906765 258.685354 
L 366.192647 258.685354 
L 366.192647 162.940554 
L 357.906765 162.940554 
" style="fill:#ff0000;stroke:#000000;stroke-linejoin:miter;"/>
   </g>
   <g id="patch_116">
    <path clip-path="url(#pfecce0e9a8)" d="M 366.192647 180.011332 
L 366.192647 258.685354 
L 374.47853 258.685354 
L 374.47853 180.011332 
L 366.192647 180.011332 
" style="fill:#ff0000;stroke:#000000;stroke-linejoin:miter;"/>
   </g>
   <g id="patch_117">
    <path clip-path="url(#pfecce0e9a8)" d="M 374.47853 211.926266 
L 374.47853 258.685354 
L 382.764412 258.685354 
L 382.764412 211.926266 
L 374.47853 211.926266 
" style="fill:#ff0000;stroke:#000000;stroke-linejoin:miter;"/>
   </g>
   <g id="patch_118">
    <path clip-path="url(#pfecce0e9a8)" d="M 382.764412 229.739252 
L 382.764412 258.685354 
L 391.050295 258.685354 
L 391.050295 229.739252 
L 382.764412 229.739252 
" style="fill:#ff0000;stroke:#000000;stroke-linejoin:miter;"/>
   </g>
   <g id="patch_119">
    <path clip-path="url(#pfecce0e9a8)" d="M 391.050295 244.583407 
L 391.050295 258.685354 
L 399.336177 258.685354 
L 399.336177 244.583407 
L 391.050295 244.583407 
" style="fill:#ff0000;stroke:#000000;stroke-linejoin:miter;"/>
   </g>
   <g id="patch_120">
    <path clip-path="url(#pfecce0e9a8)" d="M 399.336177 251.263277 
L 399.336177 258.685354 
L 407.62206 258.685354 
L 407.62206 251.263277 
L 399.336177 251.263277 
" style="fill:#ff0000;stroke:#000000;stroke-linejoin:miter;"/>
   </g>
   <g id="patch_121">
    <path clip-path="url(#pfecce0e9a8)" d="M 407.62206 253.4899 
L 407.62206 258.685354 
L 415.907942 258.685354 
L 415.907942 253.4899 
L 407.62206 253.4899 
" style="fill:#ff0000;stroke:#000000;stroke-linejoin:miter;"/>
   </g>
   <g id="patch_122">
    <path clip-path="url(#pfecce0e9a8)" d="M 415.907942 257.943147 
L 415.907942 258.685354 
L 424.193825 258.685354 
L 424.193825 257.943147 
L 415.907942 257.943147 
" style="fill:#ff0000;stroke:#000000;stroke-linejoin:miter;"/>
   </g>
   <g id="matplotlib.axis_7">
    <g id="xtick_13">
     <g id="line2d_31">
      <g>
       <use style="stroke:#000000;stroke-width:0.8;" x="258.476175" xlink:href="#md90c8bdab6" y="258.685354"/>
      </g>
     </g>
     <g id="text_34">
      <!-- 250 -->
      <g transform="translate(250.841175 271.764104)scale(0.08 -0.08)">
       <use xlink:href="#DejaVuSans-32"/>
       <use x="63.623047" xlink:href="#DejaVuSans-35"/>
       <use x="127.246094" xlink:href="#DejaVuSans-30"/>
      </g>
     </g>
    </g>
    <g id="xtick_14">
     <g id="line2d_32">
      <g>
       <use style="stroke:#000000;stroke-width:0.8;" x="299.905588" xlink:href="#md90c8bdab6" y="258.685354"/>
      </g>
     </g>
     <g id="text_35">
      <!-- 260 -->
      <g transform="translate(292.270588 271.764104)scale(0.08 -0.08)">
       <use xlink:href="#DejaVuSans-32"/>
       <use x="63.623047" xlink:href="#DejaVuSans-36"/>
       <use x="127.246094" xlink:href="#DejaVuSans-30"/>
      </g>
     </g>
    </g>
    <g id="xtick_15">
     <g id="line2d_33">
      <g>
       <use style="stroke:#000000;stroke-width:0.8;" x="341.335" xlink:href="#md90c8bdab6" y="258.685354"/>
      </g>
     </g>
     <g id="text_36">
      <!-- 270 -->
      <g transform="translate(333.7 271.764104)scale(0.08 -0.08)">
       <use xlink:href="#DejaVuSans-32"/>
       <use x="63.623047" xlink:href="#DejaVuSans-37"/>
       <use x="127.246094" xlink:href="#DejaVuSans-30"/>
      </g>
     </g>
    </g>
    <g id="xtick_16">
     <g id="line2d_34">
      <g>
       <use style="stroke:#000000;stroke-width:0.8;" x="382.764412" xlink:href="#md90c8bdab6" y="258.685354"/>
      </g>
     </g>
     <g id="text_37">
      <!-- 280 -->
      <g transform="translate(375.129412 271.764104)scale(0.08 -0.08)">
       <use xlink:href="#DejaVuSans-32"/>
       <use x="63.623047" xlink:href="#DejaVuSans-38"/>
       <use x="127.246094" xlink:href="#DejaVuSans-30"/>
      </g>
     </g>
    </g>
    <g id="xtick_17">
     <g id="line2d_35">
      <g>
       <use style="stroke:#000000;stroke-width:0.8;" x="424.193825" xlink:href="#md90c8bdab6" y="258.685354"/>
      </g>
     </g>
     <g id="text_38">
      <!-- 290 -->
      <g transform="translate(416.558825 271.764104)scale(0.08 -0.08)">
       <use xlink:href="#DejaVuSans-32"/>
       <use x="63.623047" xlink:href="#DejaVuSans-39"/>
       <use x="127.246094" xlink:href="#DejaVuSans-30"/>
      </g>
     </g>
    </g>
    <g id="text_39">
     <!-- population size -->
     <g transform="translate(299.655312 285.786136)scale(0.11 -0.11)">
      <use xlink:href="#DejaVuSans-70"/>
      <use x="63.476562" xlink:href="#DejaVuSans-6f"/>
      <use x="124.658203" xlink:href="#DejaVuSans-70"/>
      <use x="188.134766" xlink:href="#DejaVuSans-75"/>
      <use x="251.513672" xlink:href="#DejaVuSans-6c"/>
      <use x="279.296875" xlink:href="#DejaVuSans-61"/>
      <use x="340.576172" xlink:href="#DejaVuSans-74"/>
      <use x="379.785156" xlink:href="#DejaVuSans-69"/>
      <use x="407.568359" xlink:href="#DejaVuSans-6f"/>
      <use x="468.75" xlink:href="#DejaVuSans-6e"/>
      <use x="532.128906" xlink:href="#DejaVuSans-20"/>
      <use x="563.916016" xlink:href="#DejaVuSans-73"/>
      <use x="616.015625" xlink:href="#DejaVuSans-69"/>
      <use x="643.798828" xlink:href="#DejaVuSans-7a"/>
      <use x="696.289062" xlink:href="#DejaVuSans-65"/>
     </g>
    </g>
   </g>
   <g id="matplotlib.axis_8">
    <g id="ytick_13">
     <g id="line2d_36">
      <g>
       <use style="stroke:#000000;stroke-width:0.8;" x="253.504646" xlink:href="#me6e000e73b" y="258.685354"/>
      </g>
     </g>
     <g id="text_40">
      <!-- 0 -->
      <g transform="translate(241.414646 261.724729)scale(0.08 -0.08)">
       <use xlink:href="#DejaVuSans-30"/>
      </g>
     </g>
    </g>
    <g id="ytick_14">
     <g id="line2d_37">
      <g>
       <use style="stroke:#000000;stroke-width:0.8;" x="253.504646" xlink:href="#me6e000e73b" y="221.574967"/>
      </g>
     </g>
     <g id="text_41">
      <!-- 50 -->
      <g transform="translate(236.324646 224.614342)scale(0.08 -0.08)">
       <use xlink:href="#DejaVuSans-35"/>
       <use x="63.623047" xlink:href="#DejaVuSans-30"/>
      </g>
     </g>
    </g>
    <g id="ytick_15">
     <g id="line2d_38">
      <g>
       <use style="stroke:#000000;stroke-width:0.8;" x="253.504646" xlink:href="#me6e000e73b" y="184.464579"/>
      </g>
     </g>
     <g id="text_42">
      <!-- 100 -->
      <g transform="translate(231.234646 187.503954)scale(0.08 -0.08)">
       <use xlink:href="#DejaVuSans-31"/>
       <use x="63.623047" xlink:href="#DejaVuSans-30"/>
       <use x="127.246094" xlink:href="#DejaVuSans-30"/>
      </g>
     </g>
    </g>
    <g id="ytick_16">
     <g id="line2d_39">
      <g>
       <use style="stroke:#000000;stroke-width:0.8;" x="253.504646" xlink:href="#me6e000e73b" y="147.354191"/>
      </g>
     </g>
     <g id="text_43">
      <!-- 150 -->
      <g transform="translate(231.234646 150.393566)scale(0.08 -0.08)">
       <use xlink:href="#DejaVuSans-31"/>
       <use x="63.623047" xlink:href="#DejaVuSans-35"/>
       <use x="127.246094" xlink:href="#DejaVuSans-30"/>
      </g>
     </g>
    </g>
    <g id="text_44">
     <!-- frequency -->
     <g transform="translate(224.946989 230.46625)rotate(-90)scale(0.11 -0.11)">
      <use xlink:href="#DejaVuSans-66"/>
      <use x="35.205078" xlink:href="#DejaVuSans-72"/>
      <use x="76.287109" xlink:href="#DejaVuSans-65"/>
      <use x="137.810547" xlink:href="#DejaVuSans-71"/>
      <use x="201.287109" xlink:href="#DejaVuSans-75"/>
      <use x="264.666016" xlink:href="#DejaVuSans-65"/>
      <use x="326.189453" xlink:href="#DejaVuSans-6e"/>
      <use x="389.568359" xlink:href="#DejaVuSans-63"/>
      <use x="444.548828" xlink:href="#DejaVuSans-79"/>
     </g>
    </g>
   </g>
   <g id="patch_123">
    <path d="M 253.504646 258.685354 
L 253.504646 146.834646 
" style="fill:none;stroke:#000000;stroke-linecap:square;stroke-linejoin:miter;stroke-width:0.8;"/>
   </g>
   <g id="patch_124">
    <path d="M 429.165354 258.685354 
L 429.165354 146.834646 
" style="fill:none;stroke:#000000;stroke-linecap:square;stroke-linejoin:miter;stroke-width:0.8;"/>
   </g>
   <g id="patch_125">
    <path d="M 253.504646 258.685354 
L 429.165354 258.685354 
" style="fill:none;stroke:#000000;stroke-linecap:square;stroke-linejoin:miter;stroke-width:0.8;"/>
   </g>
   <g id="patch_126">
    <path d="M 253.504646 146.834646 
L 429.165354 146.834646 
" style="fill:none;stroke:#000000;stroke-linecap:square;stroke-linejoin:miter;stroke-width:0.8;"/>
   </g>
   <g id="legend_4">
    <g id="patch_127">
     <path d="M 393.141604 164.977146 
L 423.565354 164.977146 
Q 425.165354 164.977146 425.165354 163.377146 
L 425.165354 152.434646 
Q 425.165354 150.834646 423.565354 150.834646 
L 393.141604 150.834646 
Q 391.541604 150.834646 391.541604 152.434646 
L 391.541604 163.377146 
Q 391.541604 164.977146 393.141604 164.977146 
z
" style="fill:#ffffff;opacity:0.8;stroke:#000000;stroke-linejoin:miter;"/>
    </g>
    <g id="line2d_40">
     <path d="M 394.741604 157.313396 
L 410.741604 157.313396 
" style="fill:none;stroke:#ff0000;stroke-linecap:square;stroke-width:4;"/>
    </g>
    <g id="line2d_41"/>
    <g id="text_45">
     <!-- P -->
     <defs>
      <path d="M 19.671875 64.796875 
L 19.671875 37.40625 
L 32.078125 37.40625 
Q 38.96875 37.40625 42.71875 40.96875 
Q 46.484375 44.53125 46.484375 51.125 
Q 46.484375 57.671875 42.71875 61.234375 
Q 38.96875 64.796875 32.078125 64.796875 
z
M 9.8125 72.90625 
L 32.078125 72.90625 
Q 44.34375 72.90625 50.609375 67.359375 
Q 56.890625 61.8125 56.890625 51.125 
Q 56.890625 40.328125 50.609375 34.8125 
Q 44.34375 29.296875 32.078125 29.296875 
L 19.671875 29.296875 
L 19.671875 0 
L 9.8125 0 
z
" id="DejaVuSans-50"/>
     </defs>
     <g transform="translate(417.141604 160.113396)scale(0.08 -0.08)">
      <use xlink:href="#DejaVuSans-50"/>
     </g>
    </g>
   </g>
  </g>
 </g>
 <defs>
  <clipPath id="p82bbe9985c">
   <rect height="111.850709" width="175.660709" x="37.504646" y="2.834646"/>
  </clipPath>
  <clipPath id="paaaeab525c">
   <rect height="111.850709" width="180.790709" x="248.374646" y="2.834646"/>
  </clipPath>
  <clipPath id="p10cb259419">
   <rect height="111.850709" width="175.660709" x="37.504646" y="146.834646"/>
  </clipPath>
  <clipPath id="pfecce0e9a8">
   <rect height="111.850709" width="175.660709" x="253.504646" y="146.834646"/>
  </clipPath>
 </defs>
</svg>
