<?xml version="1.0" encoding="utf-8" standalone="no"?>
<!DOCTYPE svg PUBLIC "-//W3C//DTD SVG 1.1//EN"
  "http://www.w3.org/Graphics/SVG/1.1/DTD/svg11.dtd">
<!-- Created with matplotlib (http://matplotlib.org/) -->
<svg height="288pt" version="1.1" viewBox="0 0 432 288" width="432pt" xmlns="http://www.w3.org/2000/svg" xmlns:xlink="http://www.w3.org/1999/xlink">
 <defs>
  <style type="text/css">
*{stroke-linecap:butt;stroke-linejoin:round;}
  </style>
 </defs>
 <g id="figure_1">
  <g id="patch_1">
   <path d="M 0 288 
L 432 288 
L 432 0 
L 0 0 
z
" style="fill:#ffffff;"/>
  </g>
  <g id="axes_1">
   <g id="patch_2">
    <path d="M 37.504646 114.685354 
L 213.165354 114.685354 
L 213.165354 17.114646 
L 37.504646 17.114646 
z
" style="fill:#ffffff;"/>
   </g>
   <g id="patch_3">
    <path clip-path="url(#p1357e86ab6)" d="M 42.476175 113.301373 
L 42.476175 114.685354 
L 48.000097 114.685354 
L 48.000097 113.301373 
L 42.476175 113.301373 
" style="fill:#0000ff;stroke:#000000;stroke-linejoin:miter;"/>
   </g>
   <g id="patch_4">
    <path clip-path="url(#p1357e86ab6)" d="M 48.000097 107.765446 
L 48.000097 114.685354 
L 53.524018 114.685354 
L 53.524018 107.765446 
L 48.000097 107.765446 
" style="fill:#0000ff;stroke:#000000;stroke-linejoin:miter;"/>
   </g>
   <g id="patch_5">
    <path clip-path="url(#p1357e86ab6)" d="M 53.524018 114.685354 
L 53.524018 114.685354 
L 59.04794 114.685354 
L 59.04794 114.685354 
L 53.524018 114.685354 
" style="fill:#0000ff;stroke:#000000;stroke-linejoin:miter;"/>
   </g>
   <g id="patch_6">
    <path clip-path="url(#p1357e86ab6)" d="M 59.04794 96.001602 
L 59.04794 114.685354 
L 64.571862 114.685354 
L 64.571862 96.001602 
L 59.04794 96.001602 
" style="fill:#0000ff;stroke:#000000;stroke-linejoin:miter;"/>
   </g>
   <g id="patch_7">
    <path clip-path="url(#p1357e86ab6)" d="M 64.571862 114.685354 
L 64.571862 114.685354 
L 70.095783 114.685354 
L 70.095783 114.685354 
L 64.571862 114.685354 
" style="fill:#0000ff;stroke:#000000;stroke-linejoin:miter;"/>
   </g>
   <g id="patch_8">
    <path clip-path="url(#p1357e86ab6)" d="M 70.095783 71.089931 
L 70.095783 114.685354 
L 75.619705 114.685354 
L 75.619705 71.089931 
L 70.095783 71.089931 
" style="fill:#0000ff;stroke:#000000;stroke-linejoin:miter;"/>
   </g>
   <g id="patch_9">
    <path clip-path="url(#p1357e86ab6)" d="M 75.619705 114.685354 
L 75.619705 114.685354 
L 81.143627 114.685354 
L 81.143627 114.685354 
L 75.619705 114.685354 
" style="fill:#0000ff;stroke:#000000;stroke-linejoin:miter;"/>
   </g>
   <g id="patch_10">
    <path clip-path="url(#p1357e86ab6)" d="M 81.143627 48.254234 
L 81.143627 114.685354 
L 86.667548 114.685354 
L 86.667548 48.254234 
L 81.143627 48.254234 
" style="fill:#0000ff;stroke:#000000;stroke-linejoin:miter;"/>
   </g>
   <g id="patch_11">
    <path clip-path="url(#p1357e86ab6)" d="M 86.667548 17.114646 
L 86.667548 114.685354 
L 92.19147 114.685354 
L 92.19147 17.114646 
L 86.667548 17.114646 
" style="fill:#0000ff;stroke:#000000;stroke-linejoin:miter;"/>
   </g>
   <g id="patch_12">
    <path clip-path="url(#p1357e86ab6)" d="M 92.19147 114.685354 
L 92.19147 114.685354 
L 97.715392 114.685354 
L 97.715392 114.685354 
L 92.19147 114.685354 
" style="fill:#0000ff;stroke:#000000;stroke-linejoin:miter;"/>
   </g>
   <g id="patch_13">
    <path clip-path="url(#p1357e86ab6)" d="M 97.715392 19.882609 
L 97.715392 114.685354 
L 103.239313 114.685354 
L 103.239313 19.882609 
L 97.715392 19.882609 
" style="fill:#0000ff;stroke:#000000;stroke-linejoin:miter;"/>
   </g>
   <g id="patch_14">
    <path clip-path="url(#p1357e86ab6)" d="M 103.239313 114.685354 
L 103.239313 114.685354 
L 108.763235 114.685354 
L 108.763235 114.685354 
L 103.239313 114.685354 
" style="fill:#0000ff;stroke:#000000;stroke-linejoin:miter;"/>
   </g>
   <g id="patch_15">
    <path clip-path="url(#p1357e86ab6)" d="M 108.763235 17.806637 
L 108.763235 114.685354 
L 114.287157 114.685354 
L 114.287157 17.806637 
L 108.763235 17.806637 
" style="fill:#0000ff;stroke:#000000;stroke-linejoin:miter;"/>
   </g>
   <g id="patch_16">
    <path clip-path="url(#p1357e86ab6)" d="M 114.287157 114.685354 
L 114.287157 114.685354 
L 119.811078 114.685354 
L 119.811078 114.685354 
L 114.287157 114.685354 
" style="fill:#0000ff;stroke:#000000;stroke-linejoin:miter;"/>
   </g>
   <g id="patch_17">
    <path clip-path="url(#p1357e86ab6)" d="M 119.811078 24.034554 
L 119.811078 114.685354 
L 125.335 114.685354 
L 125.335 24.034554 
L 119.811078 24.034554 
" style="fill:#0000ff;stroke:#000000;stroke-linejoin:miter;"/>
   </g>
   <g id="patch_18">
    <path clip-path="url(#p1357e86ab6)" d="M 125.335 49.638215 
L 125.335 114.685354 
L 130.858922 114.685354 
L 130.858922 49.638215 
L 125.335 49.638215 
" style="fill:#0000ff;stroke:#000000;stroke-linejoin:miter;"/>
   </g>
   <g id="patch_19">
    <path clip-path="url(#p1357e86ab6)" d="M 130.858922 114.685354 
L 130.858922 114.685354 
L 136.382843 114.685354 
L 136.382843 114.685354 
L 130.858922 114.685354 
" style="fill:#0000ff;stroke:#000000;stroke-linejoin:miter;"/>
   </g>
   <g id="patch_20">
    <path clip-path="url(#p1357e86ab6)" d="M 136.382843 62.786041 
L 136.382843 114.685354 
L 141.906765 114.685354 
L 141.906765 62.786041 
L 136.382843 62.786041 
" style="fill:#0000ff;stroke:#000000;stroke-linejoin:miter;"/>
   </g>
   <g id="patch_21">
    <path clip-path="url(#p1357e86ab6)" d="M 141.906765 114.685354 
L 141.906765 114.685354 
L 147.430687 114.685354 
L 147.430687 114.685354 
L 141.906765 114.685354 
" style="fill:#0000ff;stroke:#000000;stroke-linejoin:miter;"/>
   </g>
   <g id="patch_22">
    <path clip-path="url(#p1357e86ab6)" d="M 147.430687 91.849657 
L 147.430687 114.685354 
L 152.954608 114.685354 
L 152.954608 91.849657 
L 147.430687 91.849657 
" style="fill:#0000ff;stroke:#000000;stroke-linejoin:miter;"/>
   </g>
   <g id="patch_23">
    <path clip-path="url(#p1357e86ab6)" d="M 152.954608 114.685354 
L 152.954608 114.685354 
L 158.47853 114.685354 
L 158.47853 114.685354 
L 152.954608 114.685354 
" style="fill:#0000ff;stroke:#000000;stroke-linejoin:miter;"/>
   </g>
   <g id="patch_24">
    <path clip-path="url(#p1357e86ab6)" d="M 158.47853 100.153547 
L 158.47853 114.685354 
L 164.002452 114.685354 
L 164.002452 100.153547 
L 158.47853 100.153547 
" style="fill:#0000ff;stroke:#000000;stroke-linejoin:miter;"/>
   </g>
   <g id="patch_25">
    <path clip-path="url(#p1357e86ab6)" d="M 164.002452 104.997483 
L 164.002452 114.685354 
L 169.526373 114.685354 
L 169.526373 104.997483 
L 164.002452 104.997483 
" style="fill:#0000ff;stroke:#000000;stroke-linejoin:miter;"/>
   </g>
   <g id="patch_26">
    <path clip-path="url(#p1357e86ab6)" d="M 169.526373 114.685354 
L 169.526373 114.685354 
L 175.050295 114.685354 
L 175.050295 114.685354 
L 169.526373 114.685354 
" style="fill:#0000ff;stroke:#000000;stroke-linejoin:miter;"/>
   </g>
   <g id="patch_27">
    <path clip-path="url(#p1357e86ab6)" d="M 175.050295 107.073455 
L 175.050295 114.685354 
L 180.574217 114.685354 
L 180.574217 107.073455 
L 175.050295 107.073455 
" style="fill:#0000ff;stroke:#000000;stroke-linejoin:miter;"/>
   </g>
   <g id="patch_28">
    <path clip-path="url(#p1357e86ab6)" d="M 180.574217 114.685354 
L 180.574217 114.685354 
L 186.098138 114.685354 
L 186.098138 114.685354 
L 180.574217 114.685354 
" style="fill:#0000ff;stroke:#000000;stroke-linejoin:miter;"/>
   </g>
   <g id="patch_29">
    <path clip-path="url(#p1357e86ab6)" d="M 186.098138 112.609382 
L 186.098138 114.685354 
L 191.62206 114.685354 
L 191.62206 112.609382 
L 186.098138 112.609382 
" style="fill:#0000ff;stroke:#000000;stroke-linejoin:miter;"/>
   </g>
   <g id="patch_30">
    <path clip-path="url(#p1357e86ab6)" d="M 191.62206 114.685354 
L 191.62206 114.685354 
L 197.145982 114.685354 
L 197.145982 114.685354 
L 191.62206 114.685354 
" style="fill:#0000ff;stroke:#000000;stroke-linejoin:miter;"/>
   </g>
   <g id="patch_31">
    <path clip-path="url(#p1357e86ab6)" d="M 197.145982 113.993363 
L 197.145982 114.685354 
L 202.669903 114.685354 
L 202.669903 113.993363 
L 197.145982 113.993363 
" style="fill:#0000ff;stroke:#000000;stroke-linejoin:miter;"/>
   </g>
   <g id="patch_32">
    <path clip-path="url(#p1357e86ab6)" d="M 202.669903 113.993363 
L 202.669903 114.685354 
L 208.193825 114.685354 
L 208.193825 113.993363 
L 202.669903 113.993363 
" style="fill:#0000ff;stroke:#000000;stroke-linejoin:miter;"/>
   </g>
   <g id="matplotlib.axis_1">
    <g id="xtick_1">
     <g id="line2d_1">
      <defs>
       <path d="M 0 0 
L 0 3.5 
" id="mb86b7f4c3e" style="stroke:#000000;stroke-width:0.8;"/>
      </defs>
      <g>
       <use style="stroke:#000000;stroke-width:0.8;" x="42.476175" xlink:href="#mb86b7f4c3e" y="114.685354"/>
      </g>
     </g>
     <g id="text_1">
      <!-- 0 -->
      <defs>
       <path d="M 31.78125 66.40625 
Q 24.171875 66.40625 20.328125 58.90625 
Q 16.5 51.421875 16.5 36.375 
Q 16.5 21.390625 20.328125 13.890625 
Q 24.171875 6.390625 31.78125 6.390625 
Q 39.453125 6.390625 43.28125 13.890625 
Q 47.125 21.390625 47.125 36.375 
Q 47.125 51.421875 43.28125 58.90625 
Q 39.453125 66.40625 31.78125 66.40625 
M 31.78125 74.21875 
Q 44.046875 74.21875 50.515625 64.515625 
Q 56.984375 54.828125 56.984375 36.375 
Q 56.984375 17.96875 50.515625 8.265625 
Q 44.046875 -1.421875 31.78125 -1.421875 
Q 19.53125 -1.421875 13.0625 8.265625 
Q 6.59375 17.96875 6.59375 36.375 
Q 6.59375 54.828125 13.0625 64.515625 
Q 19.53125 74.21875 31.78125 74.21875 
" id="DejaVuSans-30"/>
      </defs>
      <g transform="translate(39.931175 127.764104)scale(0.08 -0.08)">
       <use xlink:href="#DejaVuSans-30"/>
      </g>
     </g>
    </g>
    <g id="xtick_2">
     <g id="line2d_2">
      <g>
       <use style="stroke:#000000;stroke-width:0.8;" x="91.21666" xlink:href="#mb86b7f4c3e" y="114.685354"/>
      </g>
     </g>
     <g id="text_2">
      <!-- 5 -->
      <defs>
       <path d="M 10.796875 72.90625 
L 49.515625 72.90625 
L 49.515625 64.59375 
L 19.828125 64.59375 
L 19.828125 46.734375 
Q 21.96875 47.46875 24.109375 47.828125 
Q 26.265625 48.1875 28.421875 48.1875 
Q 40.625 48.1875 47.75 41.5 
Q 54.890625 34.8125 54.890625 23.390625 
Q 54.890625 11.625 47.5625 5.09375 
Q 40.234375 -1.421875 26.90625 -1.421875 
Q 22.3125 -1.421875 17.546875 -0.640625 
Q 12.796875 0.140625 7.71875 1.703125 
L 7.71875 11.625 
Q 12.109375 9.234375 16.796875 8.0625 
Q 21.484375 6.890625 26.703125 6.890625 
Q 35.15625 6.890625 40.078125 11.328125 
Q 45.015625 15.765625 45.015625 23.390625 
Q 45.015625 31 40.078125 35.4375 
Q 35.15625 39.890625 26.703125 39.890625 
Q 22.75 39.890625 18.8125 39.015625 
Q 14.890625 38.140625 10.796875 36.28125 
z
" id="DejaVuSans-35"/>
      </defs>
      <g transform="translate(88.67166 127.764104)scale(0.08 -0.08)">
       <use xlink:href="#DejaVuSans-35"/>
      </g>
     </g>
    </g>
    <g id="xtick_3">
     <g id="line2d_3">
      <g>
       <use style="stroke:#000000;stroke-width:0.8;" x="139.957146" xlink:href="#mb86b7f4c3e" y="114.685354"/>
      </g>
     </g>
     <g id="text_3">
      <!-- 10 -->
      <defs>
       <path d="M 12.40625 8.296875 
L 28.515625 8.296875 
L 28.515625 63.921875 
L 10.984375 60.40625 
L 10.984375 69.390625 
L 28.421875 72.90625 
L 38.28125 72.90625 
L 38.28125 8.296875 
L 54.390625 8.296875 
L 54.390625 0 
L 12.40625 0 
z
" id="DejaVuSans-31"/>
      </defs>
      <g transform="translate(134.867146 127.764104)scale(0.08 -0.08)">
       <use xlink:href="#DejaVuSans-31"/>
       <use x="63.623047" xlink:href="#DejaVuSans-30"/>
      </g>
     </g>
    </g>
    <g id="xtick_4">
     <g id="line2d_4">
      <g>
       <use style="stroke:#000000;stroke-width:0.8;" x="188.697631" xlink:href="#mb86b7f4c3e" y="114.685354"/>
      </g>
     </g>
     <g id="text_4">
      <!-- 15 -->
      <g transform="translate(183.607631 127.764104)scale(0.08 -0.08)">
       <use xlink:href="#DejaVuSans-31"/>
       <use x="63.623047" xlink:href="#DejaVuSans-35"/>
      </g>
     </g>
    </g>
    <g id="text_5">
     <!-- population -->
     <defs>
      <path d="M 18.109375 8.203125 
L 18.109375 -20.796875 
L 9.078125 -20.796875 
L 9.078125 54.6875 
L 18.109375 54.6875 
L 18.109375 46.390625 
Q 20.953125 51.265625 25.265625 53.625 
Q 29.59375 56 35.59375 56 
Q 45.5625 56 51.78125 48.09375 
Q 58.015625 40.1875 58.015625 27.296875 
Q 58.015625 14.40625 51.78125 6.484375 
Q 45.5625 -1.421875 35.59375 -1.421875 
Q 29.59375 -1.421875 25.265625 0.953125 
Q 20.953125 3.328125 18.109375 8.203125 
M 48.6875 27.296875 
Q 48.6875 37.203125 44.609375 42.84375 
Q 40.53125 48.484375 33.40625 48.484375 
Q 26.265625 48.484375 22.1875 42.84375 
Q 18.109375 37.203125 18.109375 27.296875 
Q 18.109375 17.390625 22.1875 11.75 
Q 26.265625 6.109375 33.40625 6.109375 
Q 40.53125 6.109375 44.609375 11.75 
Q 48.6875 17.390625 48.6875 27.296875 
" id="DejaVuSans-70"/>
      <path d="M 30.609375 48.390625 
Q 23.390625 48.390625 19.1875 42.75 
Q 14.984375 37.109375 14.984375 27.296875 
Q 14.984375 17.484375 19.15625 11.84375 
Q 23.34375 6.203125 30.609375 6.203125 
Q 37.796875 6.203125 41.984375 11.859375 
Q 46.1875 17.53125 46.1875 27.296875 
Q 46.1875 37.015625 41.984375 42.703125 
Q 37.796875 48.390625 30.609375 48.390625 
M 30.609375 56 
Q 42.328125 56 49.015625 48.375 
Q 55.71875 40.765625 55.71875 27.296875 
Q 55.71875 13.875 49.015625 6.21875 
Q 42.328125 -1.421875 30.609375 -1.421875 
Q 18.84375 -1.421875 12.171875 6.21875 
Q 5.515625 13.875 5.515625 27.296875 
Q 5.515625 40.765625 12.171875 48.375 
Q 18.84375 56 30.609375 56 
" id="DejaVuSans-6f"/>
      <path d="M 8.5 21.578125 
L 8.5 54.6875 
L 17.484375 54.6875 
L 17.484375 21.921875 
Q 17.484375 14.15625 20.5 10.265625 
Q 23.53125 6.390625 29.59375 6.390625 
Q 36.859375 6.390625 41.078125 11.03125 
Q 45.3125 15.671875 45.3125 23.6875 
L 45.3125 54.6875 
L 54.296875 54.6875 
L 54.296875 0 
L 45.3125 0 
L 45.3125 8.40625 
Q 42.046875 3.421875 37.71875 1 
Q 33.40625 -1.421875 27.6875 -1.421875 
Q 18.265625 -1.421875 13.375 4.4375 
Q 8.5 10.296875 8.5 21.578125 
M 31.109375 56 
z
" id="DejaVuSans-75"/>
      <path d="M 9.421875 75.984375 
L 18.40625 75.984375 
L 18.40625 0 
L 9.421875 0 
z
" id="DejaVuSans-6c"/>
      <path d="M 34.28125 27.484375 
Q 23.390625 27.484375 19.1875 25 
Q 14.984375 22.515625 14.984375 16.5 
Q 14.984375 11.71875 18.140625 8.90625 
Q 21.296875 6.109375 26.703125 6.109375 
Q 34.1875 6.109375 38.703125 11.40625 
Q 43.21875 16.703125 43.21875 25.484375 
L 43.21875 27.484375 
z
M 52.203125 31.203125 
L 52.203125 0 
L 43.21875 0 
L 43.21875 8.296875 
Q 40.140625 3.328125 35.546875 0.953125 
Q 30.953125 -1.421875 24.3125 -1.421875 
Q 15.921875 -1.421875 10.953125 3.296875 
Q 6 8.015625 6 15.921875 
Q 6 25.140625 12.171875 29.828125 
Q 18.359375 34.515625 30.609375 34.515625 
L 43.21875 34.515625 
L 43.21875 35.40625 
Q 43.21875 41.609375 39.140625 45 
Q 35.0625 48.390625 27.6875 48.390625 
Q 23 48.390625 18.546875 47.265625 
Q 14.109375 46.140625 10.015625 43.890625 
L 10.015625 52.203125 
Q 14.9375 54.109375 19.578125 55.046875 
Q 24.21875 56 28.609375 56 
Q 40.484375 56 46.34375 49.84375 
Q 52.203125 43.703125 52.203125 31.203125 
" id="DejaVuSans-61"/>
      <path d="M 18.3125 70.21875 
L 18.3125 54.6875 
L 36.8125 54.6875 
L 36.8125 47.703125 
L 18.3125 47.703125 
L 18.3125 18.015625 
Q 18.3125 11.328125 20.140625 9.421875 
Q 21.96875 7.515625 27.59375 7.515625 
L 36.8125 7.515625 
L 36.8125 0 
L 27.59375 0 
Q 17.1875 0 13.234375 3.875 
Q 9.28125 7.765625 9.28125 18.015625 
L 9.28125 47.703125 
L 2.6875 47.703125 
L 2.6875 54.6875 
L 9.28125 54.6875 
L 9.28125 70.21875 
z
" id="DejaVuSans-74"/>
      <path d="M 9.421875 54.6875 
L 18.40625 54.6875 
L 18.40625 0 
L 9.421875 0 
z
M 9.421875 75.984375 
L 18.40625 75.984375 
L 18.40625 64.59375 
L 9.421875 64.59375 
z
" id="DejaVuSans-69"/>
      <path d="M 54.890625 33.015625 
L 54.890625 0 
L 45.90625 0 
L 45.90625 32.71875 
Q 45.90625 40.484375 42.875 44.328125 
Q 39.84375 48.1875 33.796875 48.1875 
Q 26.515625 48.1875 22.3125 43.546875 
Q 18.109375 38.921875 18.109375 30.90625 
L 18.109375 0 
L 9.078125 0 
L 9.078125 54.6875 
L 18.109375 54.6875 
L 18.109375 46.1875 
Q 21.34375 51.125 25.703125 53.5625 
Q 30.078125 56 35.796875 56 
Q 45.21875 56 50.046875 50.171875 
Q 54.890625 44.34375 54.890625 33.015625 
" id="DejaVuSans-6e"/>
     </defs>
     <g transform="translate(96.067266 141.786136)scale(0.11 -0.11)">
      <use xlink:href="#DejaVuSans-70"/>
      <use x="63.476562" xlink:href="#DejaVuSans-6f"/>
      <use x="124.658203" xlink:href="#DejaVuSans-70"/>
      <use x="188.134766" xlink:href="#DejaVuSans-75"/>
      <use x="251.513672" xlink:href="#DejaVuSans-6c"/>
      <use x="279.296875" xlink:href="#DejaVuSans-61"/>
      <use x="340.576172" xlink:href="#DejaVuSans-74"/>
      <use x="379.785156" xlink:href="#DejaVuSans-69"/>
      <use x="407.568359" xlink:href="#DejaVuSans-6f"/>
      <use x="468.75" xlink:href="#DejaVuSans-6e"/>
     </g>
    </g>
   </g>
   <g id="matplotlib.axis_2">
    <g id="ytick_1">
     <g id="line2d_5">
      <defs>
       <path d="M 0 0 
L -3.5 0 
" id="me24cb66b50" style="stroke:#000000;stroke-width:0.8;"/>
      </defs>
      <g>
       <use style="stroke:#000000;stroke-width:0.8;" x="37.504646" xlink:href="#me24cb66b50" y="114.685354"/>
      </g>
     </g>
     <g id="text_6">
      <!-- 0 -->
      <g transform="translate(25.414646 117.724729)scale(0.08 -0.08)">
       <use xlink:href="#DejaVuSans-30"/>
      </g>
     </g>
    </g>
    <g id="ytick_2">
     <g id="line2d_6">
      <g>
       <use style="stroke:#000000;stroke-width:0.8;" x="37.504646" xlink:href="#me24cb66b50" y="80.085812"/>
      </g>
     </g>
     <g id="text_7">
      <!-- 50 -->
      <g transform="translate(20.324646 83.125187)scale(0.08 -0.08)">
       <use xlink:href="#DejaVuSans-35"/>
       <use x="63.623047" xlink:href="#DejaVuSans-30"/>
      </g>
     </g>
    </g>
    <g id="ytick_3">
     <g id="line2d_7">
      <g>
       <use style="stroke:#000000;stroke-width:0.8;" x="37.504646" xlink:href="#me24cb66b50" y="45.48627"/>
      </g>
     </g>
     <g id="text_8">
      <!-- 100 -->
      <g transform="translate(15.234646 48.525645)scale(0.08 -0.08)">
       <use xlink:href="#DejaVuSans-31"/>
       <use x="63.623047" xlink:href="#DejaVuSans-30"/>
       <use x="127.246094" xlink:href="#DejaVuSans-30"/>
      </g>
     </g>
    </g>
    <g id="text_9">
     <!-- frequency -->
     <defs>
      <path d="M 37.109375 75.984375 
L 37.109375 68.5 
L 28.515625 68.5 
Q 23.6875 68.5 21.796875 66.546875 
Q 19.921875 64.59375 19.921875 59.515625 
L 19.921875 54.6875 
L 34.71875 54.6875 
L 34.71875 47.703125 
L 19.921875 47.703125 
L 19.921875 0 
L 10.890625 0 
L 10.890625 47.703125 
L 2.296875 47.703125 
L 2.296875 54.6875 
L 10.890625 54.6875 
L 10.890625 58.5 
Q 10.890625 67.625 15.140625 71.796875 
Q 19.390625 75.984375 28.609375 75.984375 
z
" id="DejaVuSans-66"/>
      <path d="M 41.109375 46.296875 
Q 39.59375 47.171875 37.8125 47.578125 
Q 36.03125 48 33.890625 48 
Q 26.265625 48 22.1875 43.046875 
Q 18.109375 38.09375 18.109375 28.8125 
L 18.109375 0 
L 9.078125 0 
L 9.078125 54.6875 
L 18.109375 54.6875 
L 18.109375 46.1875 
Q 20.953125 51.171875 25.484375 53.578125 
Q 30.03125 56 36.53125 56 
Q 37.453125 56 38.578125 55.875 
Q 39.703125 55.765625 41.0625 55.515625 
z
" id="DejaVuSans-72"/>
      <path d="M 56.203125 29.59375 
L 56.203125 25.203125 
L 14.890625 25.203125 
Q 15.484375 15.921875 20.484375 11.0625 
Q 25.484375 6.203125 34.421875 6.203125 
Q 39.59375 6.203125 44.453125 7.46875 
Q 49.3125 8.734375 54.109375 11.28125 
L 54.109375 2.78125 
Q 49.265625 0.734375 44.1875 -0.34375 
Q 39.109375 -1.421875 33.890625 -1.421875 
Q 20.796875 -1.421875 13.15625 6.1875 
Q 5.515625 13.8125 5.515625 26.8125 
Q 5.515625 40.234375 12.765625 48.109375 
Q 20.015625 56 32.328125 56 
Q 43.359375 56 49.78125 48.890625 
Q 56.203125 41.796875 56.203125 29.59375 
M 47.21875 32.234375 
Q 47.125 39.59375 43.09375 43.984375 
Q 39.0625 48.390625 32.421875 48.390625 
Q 24.90625 48.390625 20.390625 44.140625 
Q 15.875 39.890625 15.1875 32.171875 
z
" id="DejaVuSans-65"/>
      <path d="M 14.796875 27.296875 
Q 14.796875 17.390625 18.875 11.75 
Q 22.953125 6.109375 30.078125 6.109375 
Q 37.203125 6.109375 41.296875 11.75 
Q 45.40625 17.390625 45.40625 27.296875 
Q 45.40625 37.203125 41.296875 42.84375 
Q 37.203125 48.484375 30.078125 48.484375 
Q 22.953125 48.484375 18.875 42.84375 
Q 14.796875 37.203125 14.796875 27.296875 
M 45.40625 8.203125 
Q 42.578125 3.328125 38.25 0.953125 
Q 33.9375 -1.421875 27.875 -1.421875 
Q 17.96875 -1.421875 11.734375 6.484375 
Q 5.515625 14.40625 5.515625 27.296875 
Q 5.515625 40.1875 11.734375 48.09375 
Q 17.96875 56 27.875 56 
Q 33.9375 56 38.25 53.625 
Q 42.578125 51.265625 45.40625 46.390625 
L 45.40625 54.6875 
L 54.390625 54.6875 
L 54.390625 -20.796875 
L 45.40625 -20.796875 
z
" id="DejaVuSans-71"/>
      <path d="M 48.78125 52.59375 
L 48.78125 44.1875 
Q 44.96875 46.296875 41.140625 47.34375 
Q 37.3125 48.390625 33.40625 48.390625 
Q 24.65625 48.390625 19.8125 42.84375 
Q 14.984375 37.3125 14.984375 27.296875 
Q 14.984375 17.28125 19.8125 11.734375 
Q 24.65625 6.203125 33.40625 6.203125 
Q 37.3125 6.203125 41.140625 7.25 
Q 44.96875 8.296875 48.78125 10.40625 
L 48.78125 2.09375 
Q 45.015625 0.34375 40.984375 -0.53125 
Q 36.96875 -1.421875 32.421875 -1.421875 
Q 20.0625 -1.421875 12.78125 6.34375 
Q 5.515625 14.109375 5.515625 27.296875 
Q 5.515625 40.671875 12.859375 48.328125 
Q 20.21875 56 33.015625 56 
Q 37.15625 56 41.109375 55.140625 
Q 45.0625 54.296875 48.78125 52.59375 
" id="DejaVuSans-63"/>
      <path d="M 32.171875 -5.078125 
Q 28.375 -14.84375 24.75 -17.8125 
Q 21.140625 -20.796875 15.09375 -20.796875 
L 7.90625 -20.796875 
L 7.90625 -13.28125 
L 13.1875 -13.28125 
Q 16.890625 -13.28125 18.9375 -11.515625 
Q 21 -9.765625 23.484375 -3.21875 
L 25.09375 0.875 
L 2.984375 54.6875 
L 12.5 54.6875 
L 29.59375 11.921875 
L 46.6875 54.6875 
L 56.203125 54.6875 
z
" id="DejaVuSans-79"/>
     </defs>
     <g transform="translate(8.946989 93.60625)rotate(-90)scale(0.11 -0.11)">
      <use xlink:href="#DejaVuSans-66"/>
      <use x="35.205078" xlink:href="#DejaVuSans-72"/>
      <use x="76.287109" xlink:href="#DejaVuSans-65"/>
      <use x="137.810547" xlink:href="#DejaVuSans-71"/>
      <use x="201.287109" xlink:href="#DejaVuSans-75"/>
      <use x="264.666016" xlink:href="#DejaVuSans-65"/>
      <use x="326.189453" xlink:href="#DejaVuSans-6e"/>
      <use x="389.568359" xlink:href="#DejaVuSans-63"/>
      <use x="444.548828" xlink:href="#DejaVuSans-79"/>
     </g>
    </g>
   </g>
   <g id="patch_33">
    <path d="M 37.504646 114.685354 
L 37.504646 17.114646 
" style="fill:none;stroke:#000000;stroke-linecap:square;stroke-linejoin:miter;stroke-width:0.8;"/>
   </g>
   <g id="patch_34">
    <path d="M 213.165354 114.685354 
L 213.165354 17.114646 
" style="fill:none;stroke:#000000;stroke-linecap:square;stroke-linejoin:miter;stroke-width:0.8;"/>
   </g>
   <g id="patch_35">
    <path d="M 37.504646 114.685354 
L 213.165354 114.685354 
" style="fill:none;stroke:#000000;stroke-linecap:square;stroke-linejoin:miter;stroke-width:0.8;"/>
   </g>
   <g id="patch_36">
    <path d="M 37.504646 17.114646 
L 213.165354 17.114646 
" style="fill:none;stroke:#000000;stroke-linecap:square;stroke-linejoin:miter;stroke-width:0.8;"/>
   </g>
   <g id="text_10">
    <!-- distribution at t = 50.0 -->
    <defs>
     <path d="M 45.40625 46.390625 
L 45.40625 75.984375 
L 54.390625 75.984375 
L 54.390625 0 
L 45.40625 0 
L 45.40625 8.203125 
Q 42.578125 3.328125 38.25 0.953125 
Q 33.9375 -1.421875 27.875 -1.421875 
Q 17.96875 -1.421875 11.734375 6.484375 
Q 5.515625 14.40625 5.515625 27.296875 
Q 5.515625 40.1875 11.734375 48.09375 
Q 17.96875 56 27.875 56 
Q 33.9375 56 38.25 53.625 
Q 42.578125 51.265625 45.40625 46.390625 
M 14.796875 27.296875 
Q 14.796875 17.390625 18.875 11.75 
Q 22.953125 6.109375 30.078125 6.109375 
Q 37.203125 6.109375 41.296875 11.75 
Q 45.40625 17.390625 45.40625 27.296875 
Q 45.40625 37.203125 41.296875 42.84375 
Q 37.203125 48.484375 30.078125 48.484375 
Q 22.953125 48.484375 18.875 42.84375 
Q 14.796875 37.203125 14.796875 27.296875 
" id="DejaVuSans-64"/>
     <path d="M 44.28125 53.078125 
L 44.28125 44.578125 
Q 40.484375 46.53125 36.375 47.5 
Q 32.28125 48.484375 27.875 48.484375 
Q 21.1875 48.484375 17.84375 46.4375 
Q 14.5 44.390625 14.5 40.28125 
Q 14.5 37.15625 16.890625 35.375 
Q 19.28125 33.59375 26.515625 31.984375 
L 29.59375 31.296875 
Q 39.15625 29.25 43.1875 25.515625 
Q 47.21875 21.78125 47.21875 15.09375 
Q 47.21875 7.46875 41.1875 3.015625 
Q 35.15625 -1.421875 24.609375 -1.421875 
Q 20.21875 -1.421875 15.453125 -0.5625 
Q 10.6875 0.296875 5.421875 2 
L 5.421875 11.28125 
Q 10.40625 8.6875 15.234375 7.390625 
Q 20.0625 6.109375 24.8125 6.109375 
Q 31.15625 6.109375 34.5625 8.28125 
Q 37.984375 10.453125 37.984375 14.40625 
Q 37.984375 18.0625 35.515625 20.015625 
Q 33.0625 21.96875 24.703125 23.78125 
L 21.578125 24.515625 
Q 13.234375 26.265625 9.515625 29.90625 
Q 5.8125 33.546875 5.8125 39.890625 
Q 5.8125 47.609375 11.28125 51.796875 
Q 16.75 56 26.8125 56 
Q 31.78125 56 36.171875 55.265625 
Q 40.578125 54.546875 44.28125 53.078125 
" id="DejaVuSans-73"/>
     <path d="M 48.6875 27.296875 
Q 48.6875 37.203125 44.609375 42.84375 
Q 40.53125 48.484375 33.40625 48.484375 
Q 26.265625 48.484375 22.1875 42.84375 
Q 18.109375 37.203125 18.109375 27.296875 
Q 18.109375 17.390625 22.1875 11.75 
Q 26.265625 6.109375 33.40625 6.109375 
Q 40.53125 6.109375 44.609375 11.75 
Q 48.6875 17.390625 48.6875 27.296875 
M 18.109375 46.390625 
Q 20.953125 51.265625 25.265625 53.625 
Q 29.59375 56 35.59375 56 
Q 45.5625 56 51.78125 48.09375 
Q 58.015625 40.1875 58.015625 27.296875 
Q 58.015625 14.40625 51.78125 6.484375 
Q 45.5625 -1.421875 35.59375 -1.421875 
Q 29.59375 -1.421875 25.265625 0.953125 
Q 20.953125 3.328125 18.109375 8.203125 
L 18.109375 0 
L 9.078125 0 
L 9.078125 75.984375 
L 18.109375 75.984375 
z
" id="DejaVuSans-62"/>
     <path id="DejaVuSans-20"/>
     <path d="M 10.59375 45.40625 
L 73.1875 45.40625 
L 73.1875 37.203125 
L 10.59375 37.203125 
z
M 10.59375 25.484375 
L 73.1875 25.484375 
L 73.1875 17.1875 
L 10.59375 17.1875 
z
" id="DejaVuSans-3d"/>
     <path d="M 10.6875 12.40625 
L 21 12.40625 
L 21 0 
L 10.6875 0 
z
" id="DejaVuSans-2e"/>
    </defs>
    <g transform="translate(45.31625 11.114646)scale(0.14 -0.14)">
     <use xlink:href="#DejaVuSans-64"/>
     <use x="63.476562" xlink:href="#DejaVuSans-69"/>
     <use x="91.259766" xlink:href="#DejaVuSans-73"/>
     <use x="143.359375" xlink:href="#DejaVuSans-74"/>
     <use x="182.568359" xlink:href="#DejaVuSans-72"/>
     <use x="223.681641" xlink:href="#DejaVuSans-69"/>
     <use x="251.464844" xlink:href="#DejaVuSans-62"/>
     <use x="314.941406" xlink:href="#DejaVuSans-75"/>
     <use x="378.320312" xlink:href="#DejaVuSans-74"/>
     <use x="417.529297" xlink:href="#DejaVuSans-69"/>
     <use x="445.3125" xlink:href="#DejaVuSans-6f"/>
     <use x="506.494141" xlink:href="#DejaVuSans-6e"/>
     <use x="569.873047" xlink:href="#DejaVuSans-20"/>
     <use x="601.660156" xlink:href="#DejaVuSans-61"/>
     <use x="662.939453" xlink:href="#DejaVuSans-74"/>
     <use x="702.148438" xlink:href="#DejaVuSans-20"/>
     <use x="733.935547" xlink:href="#DejaVuSans-74"/>
     <use x="773.144531" xlink:href="#DejaVuSans-20"/>
     <use x="804.931641" xlink:href="#DejaVuSans-3d"/>
     <use x="888.720703" xlink:href="#DejaVuSans-20"/>
     <use x="920.507812" xlink:href="#DejaVuSans-35"/>
     <use x="984.130859" xlink:href="#DejaVuSans-30"/>
     <use x="1047.753906" xlink:href="#DejaVuSans-2e"/>
     <use x="1079.541016" xlink:href="#DejaVuSans-30"/>
    </g>
   </g>
   <g id="legend_1">
    <g id="patch_37">
     <path d="M 176.886604 35.257146 
L 207.565354 35.257146 
Q 209.165354 35.257146 209.165354 33.657146 
L 209.165354 22.714646 
Q 209.165354 21.114646 207.565354 21.114646 
L 176.886604 21.114646 
Q 175.286604 21.114646 175.286604 22.714646 
L 175.286604 33.657146 
Q 175.286604 35.257146 176.886604 35.257146 
z
" style="fill:#ffffff;opacity:0.8;stroke:#000000;stroke-linejoin:miter;"/>
    </g>
    <g id="line2d_8">
     <path d="M 178.486604 27.593396 
L 194.486604 27.593396 
" style="fill:none;stroke:#0000ff;stroke-linecap:square;stroke-width:4;"/>
    </g>
    <g id="line2d_9"/>
    <g id="text_11">
     <!-- S -->
     <defs>
      <path d="M 53.515625 70.515625 
L 53.515625 60.890625 
Q 47.90625 63.578125 42.921875 64.890625 
Q 37.9375 66.21875 33.296875 66.21875 
Q 25.25 66.21875 20.875 63.09375 
Q 16.5 59.96875 16.5 54.203125 
Q 16.5 49.359375 19.40625 46.890625 
Q 22.3125 44.4375 30.421875 42.921875 
L 36.375 41.703125 
Q 47.40625 39.59375 52.65625 34.296875 
Q 57.90625 29 57.90625 20.125 
Q 57.90625 9.515625 50.796875 4.046875 
Q 43.703125 -1.421875 29.984375 -1.421875 
Q 24.8125 -1.421875 18.96875 -0.25 
Q 13.140625 0.921875 6.890625 3.21875 
L 6.890625 13.375 
Q 12.890625 10.015625 18.65625 8.296875 
Q 24.421875 6.59375 29.984375 6.59375 
Q 38.421875 6.59375 43.015625 9.90625 
Q 47.609375 13.234375 47.609375 19.390625 
Q 47.609375 24.75 44.3125 27.78125 
Q 41.015625 30.8125 33.5 32.328125 
L 27.484375 33.5 
Q 16.453125 35.6875 11.515625 40.375 
Q 6.59375 45.0625 6.59375 53.421875 
Q 6.59375 63.09375 13.40625 68.65625 
Q 20.21875 74.21875 32.171875 74.21875 
Q 37.3125 74.21875 42.625 73.28125 
Q 47.953125 72.359375 53.515625 70.515625 
" id="DejaVuSans-53"/>
     </defs>
     <g transform="translate(200.886604 30.393396)scale(0.08 -0.08)">
      <use xlink:href="#DejaVuSans-53"/>
     </g>
    </g>
   </g>
  </g>
  <g id="axes_2">
   <g id="patch_38">
    <path d="M 253.504646 114.685354 
L 429.165354 114.685354 
L 429.165354 17.114646 
L 253.504646 17.114646 
z
" style="fill:#ffffff;"/>
   </g>
   <g id="patch_39">
    <path clip-path="url(#p1d64d3f65a)" d="M 258.476175 113.79021 
L 258.476175 114.685354 
L 264.000097 114.685354 
L 264.000097 113.79021 
L 258.476175 113.79021 
" style="fill:#008000;stroke:#000000;stroke-linejoin:miter;"/>
   </g>
   <g id="patch_40">
    <path clip-path="url(#p1d64d3f65a)" d="M 264.000097 112.895066 
L 264.000097 114.685354 
L 269.524018 114.685354 
L 269.524018 112.895066 
L 264.000097 112.895066 
" style="fill:#008000;stroke:#000000;stroke-linejoin:miter;"/>
   </g>
   <g id="patch_41">
    <path clip-path="url(#p1d64d3f65a)" d="M 269.524018 112.895066 
L 269.524018 114.685354 
L 275.04794 114.685354 
L 275.04794 112.895066 
L 269.524018 112.895066 
" style="fill:#008000;stroke:#000000;stroke-linejoin:miter;"/>
   </g>
   <g id="patch_42">
    <path clip-path="url(#p1d64d3f65a)" d="M 275.04794 112.895066 
L 275.04794 114.685354 
L 280.571862 114.685354 
L 280.571862 112.895066 
L 275.04794 112.895066 
" style="fill:#008000;stroke:#000000;stroke-linejoin:miter;"/>
   </g>
   <g id="patch_43">
    <path clip-path="url(#p1d64d3f65a)" d="M 280.571862 109.31449 
L 280.571862 114.685354 
L 286.095783 114.685354 
L 286.095783 109.31449 
L 280.571862 109.31449 
" style="fill:#008000;stroke:#000000;stroke-linejoin:miter;"/>
   </g>
   <g id="patch_44">
    <path clip-path="url(#p1d64d3f65a)" d="M 286.095783 103.943625 
L 286.095783 114.685354 
L 291.619705 114.685354 
L 291.619705 103.943625 
L 286.095783 103.943625 
" style="fill:#008000;stroke:#000000;stroke-linejoin:miter;"/>
   </g>
   <g id="patch_45">
    <path clip-path="url(#p1d64d3f65a)" d="M 291.619705 103.943625 
L 291.619705 114.685354 
L 297.143627 114.685354 
L 297.143627 103.943625 
L 291.619705 103.943625 
" style="fill:#008000;stroke:#000000;stroke-linejoin:miter;"/>
   </g>
   <g id="patch_46">
    <path clip-path="url(#p1d64d3f65a)" d="M 297.143627 114.685354 
L 297.143627 114.685354 
L 302.667548 114.685354 
L 302.667548 114.685354 
L 297.143627 114.685354 
" style="fill:#008000;stroke:#000000;stroke-linejoin:miter;"/>
   </g>
   <g id="patch_47">
    <path clip-path="url(#p1d64d3f65a)" d="M 302.667548 93.201896 
L 302.667548 114.685354 
L 308.19147 114.685354 
L 308.19147 93.201896 
L 302.667548 93.201896 
" style="fill:#008000;stroke:#000000;stroke-linejoin:miter;"/>
   </g>
   <g id="patch_48">
    <path clip-path="url(#p1d64d3f65a)" d="M 308.19147 88.726175 
L 308.19147 114.685354 
L 313.715392 114.685354 
L 313.715392 88.726175 
L 308.19147 88.726175 
" style="fill:#008000;stroke:#000000;stroke-linejoin:miter;"/>
   </g>
   <g id="patch_49">
    <path clip-path="url(#p1d64d3f65a)" d="M 313.715392 75.299013 
L 313.715392 114.685354 
L 319.239313 114.685354 
L 319.239313 75.299013 
L 313.715392 75.299013 
" style="fill:#008000;stroke:#000000;stroke-linejoin:miter;"/>
   </g>
   <g id="patch_50">
    <path clip-path="url(#p1d64d3f65a)" d="M 319.239313 62.766996 
L 319.239313 114.685354 
L 324.763235 114.685354 
L 324.763235 62.766996 
L 319.239313 62.766996 
" style="fill:#008000;stroke:#000000;stroke-linejoin:miter;"/>
   </g>
   <g id="patch_51">
    <path clip-path="url(#p1d64d3f65a)" d="M 324.763235 56.500987 
L 324.763235 114.685354 
L 330.287157 114.685354 
L 330.287157 56.500987 
L 324.763235 56.500987 
" style="fill:#008000;stroke:#000000;stroke-linejoin:miter;"/>
   </g>
   <g id="patch_52">
    <path clip-path="url(#p1d64d3f65a)" d="M 330.287157 56.500987 
L 330.287157 114.685354 
L 335.811078 114.685354 
L 335.811078 56.500987 
L 330.287157 56.500987 
" style="fill:#008000;stroke:#000000;stroke-linejoin:miter;"/>
   </g>
   <g id="patch_53">
    <path clip-path="url(#p1d64d3f65a)" d="M 335.811078 50.234978 
L 335.811078 114.685354 
L 341.335 114.685354 
L 341.335 50.234978 
L 335.811078 50.234978 
" style="fill:#008000;stroke:#000000;stroke-linejoin:miter;"/>
   </g>
   <g id="patch_54">
    <path clip-path="url(#p1d64d3f65a)" d="M 341.335 114.685354 
L 341.335 114.685354 
L 346.858922 114.685354 
L 346.858922 114.685354 
L 341.335 114.685354 
" style="fill:#008000;stroke:#000000;stroke-linejoin:miter;"/>
   </g>
   <g id="patch_55">
    <path clip-path="url(#p1d64d3f65a)" d="M 346.858922 43.968969 
L 346.858922 114.685354 
L 352.382843 114.685354 
L 352.382843 43.968969 
L 346.858922 43.968969 
" style="fill:#008000;stroke:#000000;stroke-linejoin:miter;"/>
   </g>
   <g id="patch_56">
    <path clip-path="url(#p1d64d3f65a)" d="M 352.382843 17.114646 
L 352.382843 114.685354 
L 357.906765 114.685354 
L 357.906765 17.114646 
L 352.382843 17.114646 
" style="fill:#008000;stroke:#000000;stroke-linejoin:miter;"/>
   </g>
   <g id="patch_57">
    <path clip-path="url(#p1d64d3f65a)" d="M 357.906765 36.807816 
L 357.906765 114.685354 
L 363.430687 114.685354 
L 363.430687 36.807816 
L 357.906765 36.807816 
" style="fill:#008000;stroke:#000000;stroke-linejoin:miter;"/>
   </g>
   <g id="patch_58">
    <path clip-path="url(#p1d64d3f65a)" d="M 363.430687 40.388393 
L 363.430687 114.685354 
L 368.954608 114.685354 
L 368.954608 40.388393 
L 363.430687 40.388393 
" style="fill:#008000;stroke:#000000;stroke-linejoin:miter;"/>
   </g>
   <g id="patch_59">
    <path clip-path="url(#p1d64d3f65a)" d="M 368.954608 64.557284 
L 368.954608 114.685354 
L 374.47853 114.685354 
L 374.47853 64.557284 
L 368.954608 64.557284 
" style="fill:#008000;stroke:#000000;stroke-linejoin:miter;"/>
   </g>
   <g id="patch_60">
    <path clip-path="url(#p1d64d3f65a)" d="M 374.47853 57.396131 
L 374.47853 114.685354 
L 380.002452 114.685354 
L 380.002452 57.396131 
L 374.47853 57.396131 
" style="fill:#008000;stroke:#000000;stroke-linejoin:miter;"/>
   </g>
   <g id="patch_61">
    <path clip-path="url(#p1d64d3f65a)" d="M 380.002452 114.685354 
L 380.002452 114.685354 
L 385.526373 114.685354 
L 385.526373 114.685354 
L 380.002452 114.685354 
" style="fill:#008000;stroke:#000000;stroke-linejoin:miter;"/>
   </g>
   <g id="patch_62">
    <path clip-path="url(#p1d64d3f65a)" d="M 385.526373 72.613581 
L 385.526373 114.685354 
L 391.050295 114.685354 
L 391.050295 72.613581 
L 385.526373 72.613581 
" style="fill:#008000;stroke:#000000;stroke-linejoin:miter;"/>
   </g>
   <g id="patch_63">
    <path clip-path="url(#p1d64d3f65a)" d="M 391.050295 77.089301 
L 391.050295 114.685354 
L 396.574217 114.685354 
L 396.574217 77.089301 
L 391.050295 77.089301 
" style="fill:#008000;stroke:#000000;stroke-linejoin:miter;"/>
   </g>
   <g id="patch_64">
    <path clip-path="url(#p1d64d3f65a)" d="M 396.574217 102.153337 
L 396.574217 114.685354 
L 402.098138 114.685354 
L 402.098138 102.153337 
L 396.574217 102.153337 
" style="fill:#008000;stroke:#000000;stroke-linejoin:miter;"/>
   </g>
   <g id="patch_65">
    <path clip-path="url(#p1d64d3f65a)" d="M 402.098138 107.524201 
L 402.098138 114.685354 
L 407.62206 114.685354 
L 407.62206 107.524201 
L 402.098138 107.524201 
" style="fill:#008000;stroke:#000000;stroke-linejoin:miter;"/>
   </g>
   <g id="patch_66">
    <path clip-path="url(#p1d64d3f65a)" d="M 407.62206 107.524201 
L 407.62206 114.685354 
L 413.145982 114.685354 
L 413.145982 107.524201 
L 407.62206 107.524201 
" style="fill:#008000;stroke:#000000;stroke-linejoin:miter;"/>
   </g>
   <g id="patch_67">
    <path clip-path="url(#p1d64d3f65a)" d="M 413.145982 111.104778 
L 413.145982 114.685354 
L 418.669903 114.685354 
L 418.669903 111.104778 
L 413.145982 111.104778 
" style="fill:#008000;stroke:#000000;stroke-linejoin:miter;"/>
   </g>
   <g id="patch_68">
    <path clip-path="url(#p1d64d3f65a)" d="M 418.669903 110.209634 
L 418.669903 114.685354 
L 424.193825 114.685354 
L 424.193825 110.209634 
L 418.669903 110.209634 
" style="fill:#008000;stroke:#000000;stroke-linejoin:miter;"/>
   </g>
   <g id="matplotlib.axis_3">
    <g id="xtick_5">
     <g id="line2d_10">
      <g>
       <use style="stroke:#000000;stroke-width:0.8;" x="303.092465" xlink:href="#mb86b7f4c3e" y="114.685354"/>
      </g>
     </g>
     <g id="text_12">
      <!-- 70 -->
      <defs>
       <path d="M 8.203125 72.90625 
L 55.078125 72.90625 
L 55.078125 68.703125 
L 28.609375 0 
L 18.3125 0 
L 43.21875 64.59375 
L 8.203125 64.59375 
z
" id="DejaVuSans-37"/>
      </defs>
      <g transform="translate(298.002465 127.764104)scale(0.08 -0.08)">
       <use xlink:href="#DejaVuSans-37"/>
       <use x="63.623047" xlink:href="#DejaVuSans-30"/>
      </g>
     </g>
    </g>
    <g id="xtick_6">
     <g id="line2d_11">
      <g>
       <use style="stroke:#000000;stroke-width:0.8;" x="366.830023" xlink:href="#mb86b7f4c3e" y="114.685354"/>
      </g>
     </g>
     <g id="text_13">
      <!-- 80 -->
      <defs>
       <path d="M 31.78125 34.625 
Q 24.75 34.625 20.71875 30.859375 
Q 16.703125 27.09375 16.703125 20.515625 
Q 16.703125 13.921875 20.71875 10.15625 
Q 24.75 6.390625 31.78125 6.390625 
Q 38.8125 6.390625 42.859375 10.171875 
Q 46.921875 13.96875 46.921875 20.515625 
Q 46.921875 27.09375 42.890625 30.859375 
Q 38.875 34.625 31.78125 34.625 
M 21.921875 38.8125 
Q 15.578125 40.375 12.03125 44.71875 
Q 8.5 49.078125 8.5 55.328125 
Q 8.5 64.0625 14.71875 69.140625 
Q 20.953125 74.21875 31.78125 74.21875 
Q 42.671875 74.21875 48.875 69.140625 
Q 55.078125 64.0625 55.078125 55.328125 
Q 55.078125 49.078125 51.53125 44.71875 
Q 48 40.375 41.703125 38.8125 
Q 48.828125 37.15625 52.796875 32.3125 
Q 56.78125 27.484375 56.78125 20.515625 
Q 56.78125 9.90625 50.3125 4.234375 
Q 43.84375 -1.421875 31.78125 -1.421875 
Q 19.734375 -1.421875 13.25 4.234375 
Q 6.78125 9.90625 6.78125 20.515625 
Q 6.78125 27.484375 10.78125 32.3125 
Q 14.796875 37.15625 21.921875 38.8125 
M 18.3125 54.390625 
Q 18.3125 48.734375 21.84375 45.5625 
Q 25.390625 42.390625 31.78125 42.390625 
Q 38.140625 42.390625 41.71875 45.5625 
Q 45.3125 48.734375 45.3125 54.390625 
Q 45.3125 60.0625 41.71875 63.234375 
Q 38.140625 66.40625 31.78125 66.40625 
Q 25.390625 66.40625 21.84375 63.234375 
Q 18.3125 60.0625 18.3125 54.390625 
" id="DejaVuSans-38"/>
      </defs>
      <g transform="translate(361.740023 127.764104)scale(0.08 -0.08)">
       <use xlink:href="#DejaVuSans-38"/>
       <use x="63.623047" xlink:href="#DejaVuSans-30"/>
      </g>
     </g>
    </g>
    <g id="text_14">
     <!-- population -->
     <g transform="translate(312.067266 141.786136)scale(0.11 -0.11)">
      <use xlink:href="#DejaVuSans-70"/>
      <use x="63.476562" xlink:href="#DejaVuSans-6f"/>
      <use x="124.658203" xlink:href="#DejaVuSans-70"/>
      <use x="188.134766" xlink:href="#DejaVuSans-75"/>
      <use x="251.513672" xlink:href="#DejaVuSans-6c"/>
      <use x="279.296875" xlink:href="#DejaVuSans-61"/>
      <use x="340.576172" xlink:href="#DejaVuSans-74"/>
      <use x="379.785156" xlink:href="#DejaVuSans-69"/>
      <use x="407.568359" xlink:href="#DejaVuSans-6f"/>
      <use x="468.75" xlink:href="#DejaVuSans-6e"/>
     </g>
    </g>
   </g>
   <g id="matplotlib.axis_4">
    <g id="ytick_4">
     <g id="line2d_12">
      <g>
       <use style="stroke:#000000;stroke-width:0.8;" x="253.504646" xlink:href="#me24cb66b50" y="114.685354"/>
      </g>
     </g>
     <g id="text_15">
      <!-- 0 -->
      <g transform="translate(241.414646 117.724729)scale(0.08 -0.08)">
       <use xlink:href="#DejaVuSans-30"/>
      </g>
     </g>
    </g>
    <g id="ytick_5">
     <g id="line2d_13">
      <g>
       <use style="stroke:#000000;stroke-width:0.8;" x="253.504646" xlink:href="#me24cb66b50" y="96.782472"/>
      </g>
     </g>
     <g id="text_16">
      <!-- 20 -->
      <defs>
       <path d="M 19.1875 8.296875 
L 53.609375 8.296875 
L 53.609375 0 
L 7.328125 0 
L 7.328125 8.296875 
Q 12.9375 14.109375 22.625 23.890625 
Q 32.328125 33.6875 34.8125 36.53125 
Q 39.546875 41.84375 41.421875 45.53125 
Q 43.3125 49.21875 43.3125 52.78125 
Q 43.3125 58.59375 39.234375 62.25 
Q 35.15625 65.921875 28.609375 65.921875 
Q 23.96875 65.921875 18.8125 64.3125 
Q 13.671875 62.703125 7.8125 59.421875 
L 7.8125 69.390625 
Q 13.765625 71.78125 18.9375 73 
Q 24.125 74.21875 28.421875 74.21875 
Q 39.75 74.21875 46.484375 68.546875 
Q 53.21875 62.890625 53.21875 53.421875 
Q 53.21875 48.921875 51.53125 44.890625 
Q 49.859375 40.875 45.40625 35.40625 
Q 44.1875 33.984375 37.640625 27.21875 
Q 31.109375 20.453125 19.1875 8.296875 
" id="DejaVuSans-32"/>
      </defs>
      <g transform="translate(236.324646 99.821847)scale(0.08 -0.08)">
       <use xlink:href="#DejaVuSans-32"/>
       <use x="63.623047" xlink:href="#DejaVuSans-30"/>
      </g>
     </g>
    </g>
    <g id="ytick_6">
     <g id="line2d_14">
      <g>
       <use style="stroke:#000000;stroke-width:0.8;" x="253.504646" xlink:href="#me24cb66b50" y="78.87959"/>
      </g>
     </g>
     <g id="text_17">
      <!-- 40 -->
      <defs>
       <path d="M 37.796875 64.3125 
L 12.890625 25.390625 
L 37.796875 25.390625 
z
M 35.203125 72.90625 
L 47.609375 72.90625 
L 47.609375 25.390625 
L 58.015625 25.390625 
L 58.015625 17.1875 
L 47.609375 17.1875 
L 47.609375 0 
L 37.796875 0 
L 37.796875 17.1875 
L 4.890625 17.1875 
L 4.890625 26.703125 
z
" id="DejaVuSans-34"/>
      </defs>
      <g transform="translate(236.324646 81.918965)scale(0.08 -0.08)">
       <use xlink:href="#DejaVuSans-34"/>
       <use x="63.623047" xlink:href="#DejaVuSans-30"/>
      </g>
     </g>
    </g>
    <g id="ytick_7">
     <g id="line2d_15">
      <g>
       <use style="stroke:#000000;stroke-width:0.8;" x="253.504646" xlink:href="#me24cb66b50" y="60.976707"/>
      </g>
     </g>
     <g id="text_18">
      <!-- 60 -->
      <defs>
       <path d="M 33.015625 40.375 
Q 26.375 40.375 22.484375 35.828125 
Q 18.609375 31.296875 18.609375 23.390625 
Q 18.609375 15.53125 22.484375 10.953125 
Q 26.375 6.390625 33.015625 6.390625 
Q 39.65625 6.390625 43.53125 10.953125 
Q 47.40625 15.53125 47.40625 23.390625 
Q 47.40625 31.296875 43.53125 35.828125 
Q 39.65625 40.375 33.015625 40.375 
M 52.59375 71.296875 
L 52.59375 62.3125 
Q 48.875 64.0625 45.09375 64.984375 
Q 41.3125 65.921875 37.59375 65.921875 
Q 27.828125 65.921875 22.671875 59.328125 
Q 17.53125 52.734375 16.796875 39.40625 
Q 19.671875 43.65625 24.015625 45.921875 
Q 28.375 48.1875 33.59375 48.1875 
Q 44.578125 48.1875 50.953125 41.515625 
Q 57.328125 34.859375 57.328125 23.390625 
Q 57.328125 12.15625 50.6875 5.359375 
Q 44.046875 -1.421875 33.015625 -1.421875 
Q 20.359375 -1.421875 13.671875 8.265625 
Q 6.984375 17.96875 6.984375 36.375 
Q 6.984375 53.65625 15.1875 63.9375 
Q 23.390625 74.21875 37.203125 74.21875 
Q 40.921875 74.21875 44.703125 73.484375 
Q 48.484375 72.75 52.59375 71.296875 
" id="DejaVuSans-36"/>
      </defs>
      <g transform="translate(236.324646 64.016082)scale(0.08 -0.08)">
       <use xlink:href="#DejaVuSans-36"/>
       <use x="63.623047" xlink:href="#DejaVuSans-30"/>
      </g>
     </g>
    </g>
    <g id="ytick_8">
     <g id="line2d_16">
      <g>
       <use style="stroke:#000000;stroke-width:0.8;" x="253.504646" xlink:href="#me24cb66b50" y="43.073825"/>
      </g>
     </g>
     <g id="text_19">
      <!-- 80 -->
      <g transform="translate(236.324646 46.1132)scale(0.08 -0.08)">
       <use xlink:href="#DejaVuSans-38"/>
       <use x="63.623047" xlink:href="#DejaVuSans-30"/>
      </g>
     </g>
    </g>
    <g id="ytick_9">
     <g id="line2d_17">
      <g>
       <use style="stroke:#000000;stroke-width:0.8;" x="253.504646" xlink:href="#me24cb66b50" y="25.170943"/>
      </g>
     </g>
     <g id="text_20">
      <!-- 100 -->
      <g transform="translate(231.234646 28.210318)scale(0.08 -0.08)">
       <use xlink:href="#DejaVuSans-31"/>
       <use x="63.623047" xlink:href="#DejaVuSans-30"/>
       <use x="127.246094" xlink:href="#DejaVuSans-30"/>
      </g>
     </g>
    </g>
    <g id="text_21">
     <!-- frequency -->
     <g transform="translate(224.946989 93.60625)rotate(-90)scale(0.11 -0.11)">
      <use xlink:href="#DejaVuSans-66"/>
      <use x="35.205078" xlink:href="#DejaVuSans-72"/>
      <use x="76.287109" xlink:href="#DejaVuSans-65"/>
      <use x="137.810547" xlink:href="#DejaVuSans-71"/>
      <use x="201.287109" xlink:href="#DejaVuSans-75"/>
      <use x="264.666016" xlink:href="#DejaVuSans-65"/>
      <use x="326.189453" xlink:href="#DejaVuSans-6e"/>
      <use x="389.568359" xlink:href="#DejaVuSans-63"/>
      <use x="444.548828" xlink:href="#DejaVuSans-79"/>
     </g>
    </g>
   </g>
   <g id="patch_69">
    <path d="M 253.504646 114.685354 
L 253.504646 17.114646 
" style="fill:none;stroke:#000000;stroke-linecap:square;stroke-linejoin:miter;stroke-width:0.8;"/>
   </g>
   <g id="patch_70">
    <path d="M 429.165354 114.685354 
L 429.165354 17.114646 
" style="fill:none;stroke:#000000;stroke-linecap:square;stroke-linejoin:miter;stroke-width:0.8;"/>
   </g>
   <g id="patch_71">
    <path d="M 253.504646 114.685354 
L 429.165354 114.685354 
" style="fill:none;stroke:#000000;stroke-linecap:square;stroke-linejoin:miter;stroke-width:0.8;"/>
   </g>
   <g id="patch_72">
    <path d="M 253.504646 17.114646 
L 429.165354 17.114646 
" style="fill:none;stroke:#000000;stroke-linecap:square;stroke-linejoin:miter;stroke-width:0.8;"/>
   </g>
   <g id="text_22">
    <!-- distribution at t = 50.0 -->
    <g transform="translate(261.31625 11.114646)scale(0.14 -0.14)">
     <use xlink:href="#DejaVuSans-64"/>
     <use x="63.476562" xlink:href="#DejaVuSans-69"/>
     <use x="91.259766" xlink:href="#DejaVuSans-73"/>
     <use x="143.359375" xlink:href="#DejaVuSans-74"/>
     <use x="182.568359" xlink:href="#DejaVuSans-72"/>
     <use x="223.681641" xlink:href="#DejaVuSans-69"/>
     <use x="251.464844" xlink:href="#DejaVuSans-62"/>
     <use x="314.941406" xlink:href="#DejaVuSans-75"/>
     <use x="378.320312" xlink:href="#DejaVuSans-74"/>
     <use x="417.529297" xlink:href="#DejaVuSans-69"/>
     <use x="445.3125" xlink:href="#DejaVuSans-6f"/>
     <use x="506.494141" xlink:href="#DejaVuSans-6e"/>
     <use x="569.873047" xlink:href="#DejaVuSans-20"/>
     <use x="601.660156" xlink:href="#DejaVuSans-61"/>
     <use x="662.939453" xlink:href="#DejaVuSans-74"/>
     <use x="702.148438" xlink:href="#DejaVuSans-20"/>
     <use x="733.935547" xlink:href="#DejaVuSans-74"/>
     <use x="773.144531" xlink:href="#DejaVuSans-20"/>
     <use x="804.931641" xlink:href="#DejaVuSans-3d"/>
     <use x="888.720703" xlink:href="#DejaVuSans-20"/>
     <use x="920.507812" xlink:href="#DejaVuSans-35"/>
     <use x="984.130859" xlink:href="#DejaVuSans-30"/>
     <use x="1047.753906" xlink:href="#DejaVuSans-2e"/>
     <use x="1079.541016" xlink:href="#DejaVuSans-30"/>
    </g>
   </g>
   <g id="legend_2">
    <g id="patch_73">
     <path d="M 392.910354 35.257146 
L 423.565354 35.257146 
Q 425.165354 35.257146 425.165354 33.657146 
L 425.165354 22.714646 
Q 425.165354 21.114646 423.565354 21.114646 
L 392.910354 21.114646 
Q 391.310354 21.114646 391.310354 22.714646 
L 391.310354 33.657146 
Q 391.310354 35.257146 392.910354 35.257146 
z
" style="fill:#ffffff;opacity:0.8;stroke:#000000;stroke-linejoin:miter;"/>
    </g>
    <g id="line2d_18">
     <path d="M 394.510354 27.593396 
L 410.510354 27.593396 
" style="fill:none;stroke:#008000;stroke-linecap:square;stroke-width:4;"/>
    </g>
    <g id="line2d_19"/>
    <g id="text_23">
     <!-- E -->
     <defs>
      <path d="M 9.8125 72.90625 
L 55.90625 72.90625 
L 55.90625 64.59375 
L 19.671875 64.59375 
L 19.671875 43.015625 
L 54.390625 43.015625 
L 54.390625 34.71875 
L 19.671875 34.71875 
L 19.671875 8.296875 
L 56.78125 8.296875 
L 56.78125 0 
L 9.8125 0 
z
" id="DejaVuSans-45"/>
     </defs>
     <g transform="translate(416.910354 30.393396)scale(0.08 -0.08)">
      <use xlink:href="#DejaVuSans-45"/>
     </g>
    </g>
   </g>
  </g>
  <g id="axes_3">
   <g id="patch_74">
    <path d="M 37.504646 258.685354 
L 213.165354 258.685354 
L 213.165354 161.114646 
L 37.504646 161.114646 
z
" style="fill:#ffffff;"/>
   </g>
   <g id="patch_75">
    <path clip-path="url(#p3ca7a99725)" d="M 42.476175 254.209634 
L 42.476175 258.685354 
L 48.000097 258.685354 
L 48.000097 254.209634 
L 42.476175 254.209634 
" style="fill:#ffa500;stroke:#000000;stroke-linejoin:miter;"/>
   </g>
   <g id="patch_76">
    <path clip-path="url(#p3ca7a99725)" d="M 48.000097 255.104778 
L 48.000097 258.685354 
L 53.524018 258.685354 
L 53.524018 255.104778 
L 48.000097 255.104778 
" style="fill:#ffa500;stroke:#000000;stroke-linejoin:miter;"/>
   </g>
   <g id="patch_77">
    <path clip-path="url(#p3ca7a99725)" d="M 53.524018 251.524201 
L 53.524018 258.685354 
L 59.04794 258.685354 
L 59.04794 251.524201 
L 53.524018 251.524201 
" style="fill:#ffa500;stroke:#000000;stroke-linejoin:miter;"/>
   </g>
   <g id="patch_78">
    <path clip-path="url(#p3ca7a99725)" d="M 59.04794 251.524201 
L 59.04794 258.685354 
L 64.571862 258.685354 
L 64.571862 251.524201 
L 59.04794 251.524201 
" style="fill:#ffa500;stroke:#000000;stroke-linejoin:miter;"/>
   </g>
   <g id="patch_79">
    <path clip-path="url(#p3ca7a99725)" d="M 64.571862 246.153337 
L 64.571862 258.685354 
L 70.095783 258.685354 
L 70.095783 246.153337 
L 64.571862 246.153337 
" style="fill:#ffa500;stroke:#000000;stroke-linejoin:miter;"/>
   </g>
   <g id="patch_80">
    <path clip-path="url(#p3ca7a99725)" d="M 70.095783 221.089301 
L 70.095783 258.685354 
L 75.619705 258.685354 
L 75.619705 221.089301 
L 70.095783 221.089301 
" style="fill:#ffa500;stroke:#000000;stroke-linejoin:miter;"/>
   </g>
   <g id="patch_81">
    <path clip-path="url(#p3ca7a99725)" d="M 75.619705 216.613581 
L 75.619705 258.685354 
L 81.143627 258.685354 
L 81.143627 216.613581 
L 75.619705 216.613581 
" style="fill:#ffa500;stroke:#000000;stroke-linejoin:miter;"/>
   </g>
   <g id="patch_82">
    <path clip-path="url(#p3ca7a99725)" d="M 81.143627 258.685354 
L 81.143627 258.685354 
L 86.667548 258.685354 
L 86.667548 258.685354 
L 81.143627 258.685354 
" style="fill:#ffa500;stroke:#000000;stroke-linejoin:miter;"/>
   </g>
   <g id="patch_83">
    <path clip-path="url(#p3ca7a99725)" d="M 86.667548 201.396131 
L 86.667548 258.685354 
L 92.19147 258.685354 
L 92.19147 201.396131 
L 86.667548 201.396131 
" style="fill:#ffa500;stroke:#000000;stroke-linejoin:miter;"/>
   </g>
   <g id="patch_84">
    <path clip-path="url(#p3ca7a99725)" d="M 92.19147 208.557284 
L 92.19147 258.685354 
L 97.715392 258.685354 
L 97.715392 208.557284 
L 92.19147 208.557284 
" style="fill:#ffa500;stroke:#000000;stroke-linejoin:miter;"/>
   </g>
   <g id="patch_85">
    <path clip-path="url(#p3ca7a99725)" d="M 97.715392 184.388393 
L 97.715392 258.685354 
L 103.239313 258.685354 
L 103.239313 184.388393 
L 97.715392 184.388393 
" style="fill:#ffa500;stroke:#000000;stroke-linejoin:miter;"/>
   </g>
   <g id="patch_86">
    <path clip-path="url(#p3ca7a99725)" d="M 103.239313 180.807816 
L 103.239313 258.685354 
L 108.763235 258.685354 
L 108.763235 180.807816 
L 103.239313 180.807816 
" style="fill:#ffa500;stroke:#000000;stroke-linejoin:miter;"/>
   </g>
   <g id="patch_87">
    <path clip-path="url(#p3ca7a99725)" d="M 108.763235 161.114646 
L 108.763235 258.685354 
L 114.287157 258.685354 
L 114.287157 161.114646 
L 108.763235 161.114646 
" style="fill:#ffa500;stroke:#000000;stroke-linejoin:miter;"/>
   </g>
   <g id="patch_88">
    <path clip-path="url(#p3ca7a99725)" d="M 114.287157 187.968969 
L 114.287157 258.685354 
L 119.811078 258.685354 
L 119.811078 187.968969 
L 114.287157 187.968969 
" style="fill:#ffa500;stroke:#000000;stroke-linejoin:miter;"/>
   </g>
   <g id="patch_89">
    <path clip-path="url(#p3ca7a99725)" d="M 119.811078 194.234978 
L 119.811078 258.685354 
L 125.335 258.685354 
L 125.335 194.234978 
L 119.811078 194.234978 
" style="fill:#ffa500;stroke:#000000;stroke-linejoin:miter;"/>
   </g>
   <g id="patch_90">
    <path clip-path="url(#p3ca7a99725)" d="M 125.335 258.685354 
L 125.335 258.685354 
L 130.858922 258.685354 
L 130.858922 258.685354 
L 125.335 258.685354 
" style="fill:#ffa500;stroke:#000000;stroke-linejoin:miter;"/>
   </g>
   <g id="patch_91">
    <path clip-path="url(#p3ca7a99725)" d="M 130.858922 200.500987 
L 130.858922 258.685354 
L 136.382843 258.685354 
L 136.382843 200.500987 
L 130.858922 200.500987 
" style="fill:#ffa500;stroke:#000000;stroke-linejoin:miter;"/>
   </g>
   <g id="patch_92">
    <path clip-path="url(#p3ca7a99725)" d="M 136.382843 200.500987 
L 136.382843 258.685354 
L 141.906765 258.685354 
L 141.906765 200.500987 
L 136.382843 200.500987 
" style="fill:#ffa500;stroke:#000000;stroke-linejoin:miter;"/>
   </g>
   <g id="patch_93">
    <path clip-path="url(#p3ca7a99725)" d="M 141.906765 206.766996 
L 141.906765 258.685354 
L 147.430687 258.685354 
L 147.430687 206.766996 
L 141.906765 206.766996 
" style="fill:#ffa500;stroke:#000000;stroke-linejoin:miter;"/>
   </g>
   <g id="patch_94">
    <path clip-path="url(#p3ca7a99725)" d="M 147.430687 219.299013 
L 147.430687 258.685354 
L 152.954608 258.685354 
L 152.954608 219.299013 
L 147.430687 219.299013 
" style="fill:#ffa500;stroke:#000000;stroke-linejoin:miter;"/>
   </g>
   <g id="patch_95">
    <path clip-path="url(#p3ca7a99725)" d="M 152.954608 232.726175 
L 152.954608 258.685354 
L 158.47853 258.685354 
L 158.47853 232.726175 
L 152.954608 232.726175 
" style="fill:#ffa500;stroke:#000000;stroke-linejoin:miter;"/>
   </g>
   <g id="patch_96">
    <path clip-path="url(#p3ca7a99725)" d="M 158.47853 237.201896 
L 158.47853 258.685354 
L 164.002452 258.685354 
L 164.002452 237.201896 
L 158.47853 237.201896 
" style="fill:#ffa500;stroke:#000000;stroke-linejoin:miter;"/>
   </g>
   <g id="patch_97">
    <path clip-path="url(#p3ca7a99725)" d="M 164.002452 258.685354 
L 164.002452 258.685354 
L 169.526373 258.685354 
L 169.526373 258.685354 
L 164.002452 258.685354 
" style="fill:#ffa500;stroke:#000000;stroke-linejoin:miter;"/>
   </g>
   <g id="patch_98">
    <path clip-path="url(#p3ca7a99725)" d="M 169.526373 247.943625 
L 169.526373 258.685354 
L 175.050295 258.685354 
L 175.050295 247.943625 
L 169.526373 247.943625 
" style="fill:#ffa500;stroke:#000000;stroke-linejoin:miter;"/>
   </g>
   <g id="patch_99">
    <path clip-path="url(#p3ca7a99725)" d="M 175.050295 247.943625 
L 175.050295 258.685354 
L 180.574217 258.685354 
L 180.574217 247.943625 
L 175.050295 247.943625 
" style="fill:#ffa500;stroke:#000000;stroke-linejoin:miter;"/>
   </g>
   <g id="patch_100">
    <path clip-path="url(#p3ca7a99725)" d="M 180.574217 253.31449 
L 180.574217 258.685354 
L 186.098138 258.685354 
L 186.098138 253.31449 
L 180.574217 253.31449 
" style="fill:#ffa500;stroke:#000000;stroke-linejoin:miter;"/>
   </g>
   <g id="patch_101">
    <path clip-path="url(#p3ca7a99725)" d="M 186.098138 256.895066 
L 186.098138 258.685354 
L 191.62206 258.685354 
L 191.62206 256.895066 
L 186.098138 256.895066 
" style="fill:#ffa500;stroke:#000000;stroke-linejoin:miter;"/>
   </g>
   <g id="patch_102">
    <path clip-path="url(#p3ca7a99725)" d="M 191.62206 256.895066 
L 191.62206 258.685354 
L 197.145982 258.685354 
L 197.145982 256.895066 
L 191.62206 256.895066 
" style="fill:#ffa500;stroke:#000000;stroke-linejoin:miter;"/>
   </g>
   <g id="patch_103">
    <path clip-path="url(#p3ca7a99725)" d="M 197.145982 256.895066 
L 197.145982 258.685354 
L 202.669903 258.685354 
L 202.669903 256.895066 
L 197.145982 256.895066 
" style="fill:#ffa500;stroke:#000000;stroke-linejoin:miter;"/>
   </g>
   <g id="patch_104">
    <path clip-path="url(#p3ca7a99725)" d="M 202.669903 257.79021 
L 202.669903 258.685354 
L 208.193825 258.685354 
L 208.193825 257.79021 
L 202.669903 257.79021 
" style="fill:#ffa500;stroke:#000000;stroke-linejoin:miter;"/>
   </g>
   <g id="matplotlib.axis_5">
    <g id="xtick_7">
     <g id="line2d_20">
      <g>
       <use style="stroke:#000000;stroke-width:0.8;" x="99.839977" xlink:href="#mb86b7f4c3e" y="258.685354"/>
      </g>
     </g>
     <g id="text_24">
      <!-- 20 -->
      <g transform="translate(94.749977 271.764104)scale(0.08 -0.08)">
       <use xlink:href="#DejaVuSans-32"/>
       <use x="63.623047" xlink:href="#DejaVuSans-30"/>
      </g>
     </g>
    </g>
    <g id="xtick_8">
     <g id="line2d_21">
      <g>
       <use style="stroke:#000000;stroke-width:0.8;" x="163.577535" xlink:href="#mb86b7f4c3e" y="258.685354"/>
      </g>
     </g>
     <g id="text_25">
      <!-- 30 -->
      <defs>
       <path d="M 40.578125 39.3125 
Q 47.65625 37.796875 51.625 33 
Q 55.609375 28.21875 55.609375 21.1875 
Q 55.609375 10.40625 48.1875 4.484375 
Q 40.765625 -1.421875 27.09375 -1.421875 
Q 22.515625 -1.421875 17.65625 -0.515625 
Q 12.796875 0.390625 7.625 2.203125 
L 7.625 11.71875 
Q 11.71875 9.328125 16.59375 8.109375 
Q 21.484375 6.890625 26.8125 6.890625 
Q 36.078125 6.890625 40.9375 10.546875 
Q 45.796875 14.203125 45.796875 21.1875 
Q 45.796875 27.640625 41.28125 31.265625 
Q 36.765625 34.90625 28.71875 34.90625 
L 20.21875 34.90625 
L 20.21875 43.015625 
L 29.109375 43.015625 
Q 36.375 43.015625 40.234375 45.921875 
Q 44.09375 48.828125 44.09375 54.296875 
Q 44.09375 59.90625 40.109375 62.90625 
Q 36.140625 65.921875 28.71875 65.921875 
Q 24.65625 65.921875 20.015625 65.03125 
Q 15.375 64.15625 9.8125 62.3125 
L 9.8125 71.09375 
Q 15.4375 72.65625 20.34375 73.4375 
Q 25.25 74.21875 29.59375 74.21875 
Q 40.828125 74.21875 47.359375 69.109375 
Q 53.90625 64.015625 53.90625 55.328125 
Q 53.90625 49.265625 50.4375 45.09375 
Q 46.96875 40.921875 40.578125 39.3125 
" id="DejaVuSans-33"/>
      </defs>
      <g transform="translate(158.487535 271.764104)scale(0.08 -0.08)">
       <use xlink:href="#DejaVuSans-33"/>
       <use x="63.623047" xlink:href="#DejaVuSans-30"/>
      </g>
     </g>
    </g>
    <g id="text_26">
     <!-- population -->
     <g transform="translate(96.067266 285.786136)scale(0.11 -0.11)">
      <use xlink:href="#DejaVuSans-70"/>
      <use x="63.476562" xlink:href="#DejaVuSans-6f"/>
      <use x="124.658203" xlink:href="#DejaVuSans-70"/>
      <use x="188.134766" xlink:href="#DejaVuSans-75"/>
      <use x="251.513672" xlink:href="#DejaVuSans-6c"/>
      <use x="279.296875" xlink:href="#DejaVuSans-61"/>
      <use x="340.576172" xlink:href="#DejaVuSans-74"/>
      <use x="379.785156" xlink:href="#DejaVuSans-69"/>
      <use x="407.568359" xlink:href="#DejaVuSans-6f"/>
      <use x="468.75" xlink:href="#DejaVuSans-6e"/>
     </g>
    </g>
   </g>
   <g id="matplotlib.axis_6">
    <g id="ytick_10">
     <g id="line2d_22">
      <g>
       <use style="stroke:#000000;stroke-width:0.8;" x="37.504646" xlink:href="#me24cb66b50" y="258.685354"/>
      </g>
     </g>
     <g id="text_27">
      <!-- 0 -->
      <g transform="translate(25.414646 261.724729)scale(0.08 -0.08)">
       <use xlink:href="#DejaVuSans-30"/>
      </g>
     </g>
    </g>
    <g id="ytick_11">
     <g id="line2d_23">
      <g>
       <use style="stroke:#000000;stroke-width:0.8;" x="37.504646" xlink:href="#me24cb66b50" y="240.782472"/>
      </g>
     </g>
     <g id="text_28">
      <!-- 20 -->
      <g transform="translate(20.324646 243.821847)scale(0.08 -0.08)">
       <use xlink:href="#DejaVuSans-32"/>
       <use x="63.623047" xlink:href="#DejaVuSans-30"/>
      </g>
     </g>
    </g>
    <g id="ytick_12">
     <g id="line2d_24">
      <g>
       <use style="stroke:#000000;stroke-width:0.8;" x="37.504646" xlink:href="#me24cb66b50" y="222.87959"/>
      </g>
     </g>
     <g id="text_29">
      <!-- 40 -->
      <g transform="translate(20.324646 225.918965)scale(0.08 -0.08)">
       <use xlink:href="#DejaVuSans-34"/>
       <use x="63.623047" xlink:href="#DejaVuSans-30"/>
      </g>
     </g>
    </g>
    <g id="ytick_13">
     <g id="line2d_25">
      <g>
       <use style="stroke:#000000;stroke-width:0.8;" x="37.504646" xlink:href="#me24cb66b50" y="204.976707"/>
      </g>
     </g>
     <g id="text_30">
      <!-- 60 -->
      <g transform="translate(20.324646 208.016082)scale(0.08 -0.08)">
       <use xlink:href="#DejaVuSans-36"/>
       <use x="63.623047" xlink:href="#DejaVuSans-30"/>
      </g>
     </g>
    </g>
    <g id="ytick_14">
     <g id="line2d_26">
      <g>
       <use style="stroke:#000000;stroke-width:0.8;" x="37.504646" xlink:href="#me24cb66b50" y="187.073825"/>
      </g>
     </g>
     <g id="text_31">
      <!-- 80 -->
      <g transform="translate(20.324646 190.1132)scale(0.08 -0.08)">
       <use xlink:href="#DejaVuSans-38"/>
       <use x="63.623047" xlink:href="#DejaVuSans-30"/>
      </g>
     </g>
    </g>
    <g id="ytick_15">
     <g id="line2d_27">
      <g>
       <use style="stroke:#000000;stroke-width:0.8;" x="37.504646" xlink:href="#me24cb66b50" y="169.170943"/>
      </g>
     </g>
     <g id="text_32">
      <!-- 100 -->
      <g transform="translate(15.234646 172.210318)scale(0.08 -0.08)">
       <use xlink:href="#DejaVuSans-31"/>
       <use x="63.623047" xlink:href="#DejaVuSans-30"/>
       <use x="127.246094" xlink:href="#DejaVuSans-30"/>
      </g>
     </g>
    </g>
    <g id="text_33">
     <!-- frequency -->
     <g transform="translate(8.946989 237.60625)rotate(-90)scale(0.11 -0.11)">
      <use xlink:href="#DejaVuSans-66"/>
      <use x="35.205078" xlink:href="#DejaVuSans-72"/>
      <use x="76.287109" xlink:href="#DejaVuSans-65"/>
      <use x="137.810547" xlink:href="#DejaVuSans-71"/>
      <use x="201.287109" xlink:href="#DejaVuSans-75"/>
      <use x="264.666016" xlink:href="#DejaVuSans-65"/>
      <use x="326.189453" xlink:href="#DejaVuSans-6e"/>
      <use x="389.568359" xlink:href="#DejaVuSans-63"/>
      <use x="444.548828" xlink:href="#DejaVuSans-79"/>
     </g>
    </g>
   </g>
   <g id="patch_105">
    <path d="M 37.504646 258.685354 
L 37.504646 161.114646 
" style="fill:none;stroke:#000000;stroke-linecap:square;stroke-linejoin:miter;stroke-width:0.8;"/>
   </g>
   <g id="patch_106">
    <path d="M 213.165354 258.685354 
L 213.165354 161.114646 
" style="fill:none;stroke:#000000;stroke-linecap:square;stroke-linejoin:miter;stroke-width:0.8;"/>
   </g>
   <g id="patch_107">
    <path d="M 37.504646 258.685354 
L 213.165354 258.685354 
" style="fill:none;stroke:#000000;stroke-linecap:square;stroke-linejoin:miter;stroke-width:0.8;"/>
   </g>
   <g id="patch_108">
    <path d="M 37.504646 161.114646 
L 213.165354 161.114646 
" style="fill:none;stroke:#000000;stroke-linecap:square;stroke-linejoin:miter;stroke-width:0.8;"/>
   </g>
   <g id="text_34">
    <!-- distribution at t = 50.0 -->
    <g transform="translate(45.31625 155.114646)scale(0.14 -0.14)">
     <use xlink:href="#DejaVuSans-64"/>
     <use x="63.476562" xlink:href="#DejaVuSans-69"/>
     <use x="91.259766" xlink:href="#DejaVuSans-73"/>
     <use x="143.359375" xlink:href="#DejaVuSans-74"/>
     <use x="182.568359" xlink:href="#DejaVuSans-72"/>
     <use x="223.681641" xlink:href="#DejaVuSans-69"/>
     <use x="251.464844" xlink:href="#DejaVuSans-62"/>
     <use x="314.941406" xlink:href="#DejaVuSans-75"/>
     <use x="378.320312" xlink:href="#DejaVuSans-74"/>
     <use x="417.529297" xlink:href="#DejaVuSans-69"/>
     <use x="445.3125" xlink:href="#DejaVuSans-6f"/>
     <use x="506.494141" xlink:href="#DejaVuSans-6e"/>
     <use x="569.873047" xlink:href="#DejaVuSans-20"/>
     <use x="601.660156" xlink:href="#DejaVuSans-61"/>
     <use x="662.939453" xlink:href="#DejaVuSans-74"/>
     <use x="702.148438" xlink:href="#DejaVuSans-20"/>
     <use x="733.935547" xlink:href="#DejaVuSans-74"/>
     <use x="773.144531" xlink:href="#DejaVuSans-20"/>
     <use x="804.931641" xlink:href="#DejaVuSans-3d"/>
     <use x="888.720703" xlink:href="#DejaVuSans-20"/>
     <use x="920.507812" xlink:href="#DejaVuSans-35"/>
     <use x="984.130859" xlink:href="#DejaVuSans-30"/>
     <use x="1047.753906" xlink:href="#DejaVuSans-2e"/>
     <use x="1079.541016" xlink:href="#DejaVuSans-30"/>
    </g>
   </g>
   <g id="legend_3">
    <g id="patch_109">
     <path d="M 171.831604 179.257146 
L 207.565354 179.257146 
Q 209.165354 179.257146 209.165354 177.657146 
L 209.165354 166.714646 
Q 209.165354 165.114646 207.565354 165.114646 
L 171.831604 165.114646 
Q 170.231604 165.114646 170.231604 166.714646 
L 170.231604 177.657146 
Q 170.231604 179.257146 171.831604 179.257146 
z
" style="fill:#ffffff;opacity:0.8;stroke:#000000;stroke-linejoin:miter;"/>
    </g>
    <g id="line2d_28">
     <path d="M 173.431604 171.593396 
L 189.431604 171.593396 
" style="fill:none;stroke:#ffa500;stroke-linecap:square;stroke-width:4;"/>
    </g>
    <g id="line2d_29"/>
    <g id="text_35">
     <!-- SE -->
     <g transform="translate(195.831604 174.393396)scale(0.08 -0.08)">
      <use xlink:href="#DejaVuSans-53"/>
      <use x="63.476562" xlink:href="#DejaVuSans-45"/>
     </g>
    </g>
   </g>
  </g>
  <g id="axes_4">
   <g id="patch_110">
    <path d="M 253.504646 258.685354 
L 429.165354 258.685354 
L 429.165354 161.114646 
L 253.504646 161.114646 
z
" style="fill:#ffffff;"/>
   </g>
   <g id="patch_111">
    <path clip-path="url(#p739b581e08)" d="M 258.476175 257.923083 
L 258.476175 258.685354 
L 264.000097 258.685354 
L 264.000097 257.923083 
L 258.476175 257.923083 
" style="fill:#ff0000;stroke:#000000;stroke-linejoin:miter;"/>
   </g>
   <g id="patch_112">
    <path clip-path="url(#p739b581e08)" d="M 264.000097 257.923083 
L 264.000097 258.685354 
L 269.524018 258.685354 
L 269.524018 257.923083 
L 264.000097 257.923083 
" style="fill:#ff0000;stroke:#000000;stroke-linejoin:miter;"/>
   </g>
   <g id="patch_113">
    <path clip-path="url(#p739b581e08)" d="M 269.524018 257.923083 
L 269.524018 258.685354 
L 275.04794 258.685354 
L 275.04794 257.923083 
L 269.524018 257.923083 
" style="fill:#ff0000;stroke:#000000;stroke-linejoin:miter;"/>
   </g>
   <g id="patch_114">
    <path clip-path="url(#p739b581e08)" d="M 275.04794 256.398541 
L 275.04794 258.685354 
L 280.571862 258.685354 
L 280.571862 256.398541 
L 275.04794 256.398541 
" style="fill:#ff0000;stroke:#000000;stroke-linejoin:miter;"/>
   </g>
   <g id="patch_115">
    <path clip-path="url(#p739b581e08)" d="M 280.571862 252.587185 
L 280.571862 258.685354 
L 286.095783 258.685354 
L 286.095783 252.587185 
L 280.571862 252.587185 
" style="fill:#ff0000;stroke:#000000;stroke-linejoin:miter;"/>
   </g>
   <g id="patch_116">
    <path clip-path="url(#p739b581e08)" d="M 286.095783 254.873999 
L 286.095783 258.685354 
L 291.619705 258.685354 
L 291.619705 254.873999 
L 286.095783 254.873999 
" style="fill:#ff0000;stroke:#000000;stroke-linejoin:miter;"/>
   </g>
   <g id="patch_117">
    <path clip-path="url(#p739b581e08)" d="M 291.619705 252.587185 
L 291.619705 258.685354 
L 297.143627 258.685354 
L 297.143627 252.587185 
L 291.619705 252.587185 
" style="fill:#ff0000;stroke:#000000;stroke-linejoin:miter;"/>
   </g>
   <g id="patch_118">
    <path clip-path="url(#p739b581e08)" d="M 297.143627 251.824914 
L 297.143627 258.685354 
L 302.667548 258.685354 
L 302.667548 251.824914 
L 297.143627 251.824914 
" style="fill:#ff0000;stroke:#000000;stroke-linejoin:miter;"/>
   </g>
   <g id="patch_119">
    <path clip-path="url(#p739b581e08)" d="M 302.667548 244.964473 
L 302.667548 258.685354 
L 308.19147 258.685354 
L 308.19147 244.964473 
L 302.667548 244.964473 
" style="fill:#ff0000;stroke:#000000;stroke-linejoin:miter;"/>
   </g>
   <g id="patch_120">
    <path clip-path="url(#p739b581e08)" d="M 308.19147 223.620881 
L 308.19147 258.685354 
L 313.715392 258.685354 
L 313.715392 223.620881 
L 308.19147 223.620881 
" style="fill:#ff0000;stroke:#000000;stroke-linejoin:miter;"/>
   </g>
   <g id="patch_121">
    <path clip-path="url(#p739b581e08)" d="M 313.715392 232.768135 
L 313.715392 258.685354 
L 319.239313 258.685354 
L 319.239313 232.768135 
L 313.715392 232.768135 
" style="fill:#ff0000;stroke:#000000;stroke-linejoin:miter;"/>
   </g>
   <g id="patch_122">
    <path clip-path="url(#p739b581e08)" d="M 319.239313 224.383152 
L 319.239313 258.685354 
L 324.763235 258.685354 
L 324.763235 224.383152 
L 319.239313 224.383152 
" style="fill:#ff0000;stroke:#000000;stroke-linejoin:miter;"/>
   </g>
   <g id="patch_123">
    <path clip-path="url(#p739b581e08)" d="M 324.763235 218.284983 
L 324.763235 258.685354 
L 330.287157 258.685354 
L 330.287157 218.284983 
L 324.763235 218.284983 
" style="fill:#ff0000;stroke:#000000;stroke-linejoin:miter;"/>
   </g>
   <g id="patch_124">
    <path clip-path="url(#p739b581e08)" d="M 330.287157 223.620881 
L 330.287157 258.685354 
L 335.811078 258.685354 
L 335.811078 223.620881 
L 330.287157 223.620881 
" style="fill:#ff0000;stroke:#000000;stroke-linejoin:miter;"/>
   </g>
   <g id="patch_125">
    <path clip-path="url(#p739b581e08)" d="M 335.811078 161.114646 
L 335.811078 258.685354 
L 341.335 258.685354 
L 341.335 161.114646 
L 335.811078 161.114646 
" style="fill:#ff0000;stroke:#000000;stroke-linejoin:miter;"/>
   </g>
   <g id="patch_126">
    <path clip-path="url(#p739b581e08)" d="M 341.335 200.752746 
L 341.335 258.685354 
L 346.858922 258.685354 
L 346.858922 200.752746 
L 341.335 200.752746 
" style="fill:#ff0000;stroke:#000000;stroke-linejoin:miter;"/>
   </g>
   <g id="patch_127">
    <path clip-path="url(#p739b581e08)" d="M 346.858922 205.326373 
L 346.858922 258.685354 
L 352.382843 258.685354 
L 352.382843 205.326373 
L 346.858922 205.326373 
" style="fill:#ff0000;stroke:#000000;stroke-linejoin:miter;"/>
   </g>
   <g id="patch_128">
    <path clip-path="url(#p739b581e08)" d="M 352.382843 198.465933 
L 352.382843 258.685354 
L 357.906765 258.685354 
L 357.906765 198.465933 
L 352.382843 198.465933 
" style="fill:#ff0000;stroke:#000000;stroke-linejoin:miter;"/>
   </g>
   <g id="patch_129">
    <path clip-path="url(#p739b581e08)" d="M 357.906765 218.284983 
L 357.906765 258.685354 
L 363.430687 258.685354 
L 363.430687 218.284983 
L 357.906765 218.284983 
" style="fill:#ff0000;stroke:#000000;stroke-linejoin:miter;"/>
   </g>
   <g id="patch_130">
    <path clip-path="url(#p739b581e08)" d="M 363.430687 170.2619 
L 363.430687 258.685354 
L 368.954608 258.685354 
L 368.954608 170.2619 
L 363.430687 170.2619 
" style="fill:#ff0000;stroke:#000000;stroke-linejoin:miter;"/>
   </g>
   <g id="patch_131">
    <path clip-path="url(#p739b581e08)" d="M 368.954608 221.334067 
L 368.954608 258.685354 
L 374.47853 258.685354 
L 374.47853 221.334067 
L 368.954608 221.334067 
" style="fill:#ff0000;stroke:#000000;stroke-linejoin:miter;"/>
   </g>
   <g id="patch_132">
    <path clip-path="url(#p739b581e08)" d="M 374.47853 225.907694 
L 374.47853 258.685354 
L 380.002452 258.685354 
L 380.002452 225.907694 
L 374.47853 225.907694 
" style="fill:#ff0000;stroke:#000000;stroke-linejoin:miter;"/>
   </g>
   <g id="patch_133">
    <path clip-path="url(#p739b581e08)" d="M 380.002452 234.292677 
L 380.002452 258.685354 
L 385.526373 258.685354 
L 385.526373 234.292677 
L 380.002452 234.292677 
" style="fill:#ff0000;stroke:#000000;stroke-linejoin:miter;"/>
   </g>
   <g id="patch_134">
    <path clip-path="url(#p739b581e08)" d="M 385.526373 239.628575 
L 385.526373 258.685354 
L 391.050295 258.685354 
L 391.050295 239.628575 
L 385.526373 239.628575 
" style="fill:#ff0000;stroke:#000000;stroke-linejoin:miter;"/>
   </g>
   <g id="patch_135">
    <path clip-path="url(#p739b581e08)" d="M 391.050295 234.292677 
L 391.050295 258.685354 
L 396.574217 258.685354 
L 396.574217 234.292677 
L 391.050295 234.292677 
" style="fill:#ff0000;stroke:#000000;stroke-linejoin:miter;"/>
   </g>
   <g id="patch_136">
    <path clip-path="url(#p739b581e08)" d="M 396.574217 252.587185 
L 396.574217 258.685354 
L 402.098138 258.685354 
L 402.098138 252.587185 
L 396.574217 252.587185 
" style="fill:#ff0000;stroke:#000000;stroke-linejoin:miter;"/>
   </g>
   <g id="patch_137">
    <path clip-path="url(#p739b581e08)" d="M 402.098138 257.160812 
L 402.098138 258.685354 
L 407.62206 258.685354 
L 407.62206 257.160812 
L 402.098138 257.160812 
" style="fill:#ff0000;stroke:#000000;stroke-linejoin:miter;"/>
   </g>
   <g id="patch_138">
    <path clip-path="url(#p739b581e08)" d="M 407.62206 254.873999 
L 407.62206 258.685354 
L 413.145982 258.685354 
L 413.145982 254.873999 
L 407.62206 254.873999 
" style="fill:#ff0000;stroke:#000000;stroke-linejoin:miter;"/>
   </g>
   <g id="patch_139">
    <path clip-path="url(#p739b581e08)" d="M 413.145982 257.923083 
L 413.145982 258.685354 
L 418.669903 258.685354 
L 418.669903 257.923083 
L 413.145982 257.923083 
" style="fill:#ff0000;stroke:#000000;stroke-linejoin:miter;"/>
   </g>
   <g id="patch_140">
    <path clip-path="url(#p739b581e08)" d="M 418.669903 256.398541 
L 418.669903 258.685354 
L 424.193825 258.685354 
L 424.193825 256.398541 
L 418.669903 256.398541 
" style="fill:#ff0000;stroke:#000000;stroke-linejoin:miter;"/>
   </g>
   <g id="matplotlib.axis_7">
    <g id="xtick_9">
     <g id="line2d_30">
      <g>
       <use style="stroke:#000000;stroke-width:0.8;" x="295.30232" xlink:href="#mb86b7f4c3e" y="258.685354"/>
      </g>
     </g>
     <g id="text_36">
      <!-- 260 -->
      <g transform="translate(287.66732 271.764104)scale(0.08 -0.08)">
       <use xlink:href="#DejaVuSans-32"/>
       <use x="63.623047" xlink:href="#DejaVuSans-36"/>
       <use x="127.246094" xlink:href="#DejaVuSans-30"/>
      </g>
     </g>
    </g>
    <g id="xtick_10">
     <g id="line2d_31">
      <g>
       <use style="stroke:#000000;stroke-width:0.8;" x="341.335" xlink:href="#mb86b7f4c3e" y="258.685354"/>
      </g>
     </g>
     <g id="text_37">
      <!-- 270 -->
      <g transform="translate(333.7 271.764104)scale(0.08 -0.08)">
       <use xlink:href="#DejaVuSans-32"/>
       <use x="63.623047" xlink:href="#DejaVuSans-37"/>
       <use x="127.246094" xlink:href="#DejaVuSans-30"/>
      </g>
     </g>
    </g>
    <g id="xtick_11">
     <g id="line2d_32">
      <g>
       <use style="stroke:#000000;stroke-width:0.8;" x="387.36768" xlink:href="#mb86b7f4c3e" y="258.685354"/>
      </g>
     </g>
     <g id="text_38">
      <!-- 280 -->
      <g transform="translate(379.73268 271.764104)scale(0.08 -0.08)">
       <use xlink:href="#DejaVuSans-32"/>
       <use x="63.623047" xlink:href="#DejaVuSans-38"/>
       <use x="127.246094" xlink:href="#DejaVuSans-30"/>
      </g>
     </g>
    </g>
    <g id="text_39">
     <!-- population -->
     <g transform="translate(312.067266 285.786136)scale(0.11 -0.11)">
      <use xlink:href="#DejaVuSans-70"/>
      <use x="63.476562" xlink:href="#DejaVuSans-6f"/>
      <use x="124.658203" xlink:href="#DejaVuSans-70"/>
      <use x="188.134766" xlink:href="#DejaVuSans-75"/>
      <use x="251.513672" xlink:href="#DejaVuSans-6c"/>
      <use x="279.296875" xlink:href="#DejaVuSans-61"/>
      <use x="340.576172" xlink:href="#DejaVuSans-74"/>
      <use x="379.785156" xlink:href="#DejaVuSans-69"/>
      <use x="407.568359" xlink:href="#DejaVuSans-6f"/>
      <use x="468.75" xlink:href="#DejaVuSans-6e"/>
     </g>
    </g>
   </g>
   <g id="matplotlib.axis_8">
    <g id="ytick_16">
     <g id="line2d_33">
      <g>
       <use style="stroke:#000000;stroke-width:0.8;" x="253.504646" xlink:href="#me24cb66b50" y="258.685354"/>
      </g>
     </g>
     <g id="text_40">
      <!-- 0 -->
      <g transform="translate(241.414646 261.724729)scale(0.08 -0.08)">
       <use xlink:href="#DejaVuSans-30"/>
      </g>
     </g>
    </g>
    <g id="ytick_17">
     <g id="line2d_34">
      <g>
       <use style="stroke:#000000;stroke-width:0.8;" x="253.504646" xlink:href="#me24cb66b50" y="220.571796"/>
      </g>
     </g>
     <g id="text_41">
      <!-- 50 -->
      <g transform="translate(236.324646 223.611171)scale(0.08 -0.08)">
       <use xlink:href="#DejaVuSans-35"/>
       <use x="63.623047" xlink:href="#DejaVuSans-30"/>
      </g>
     </g>
    </g>
    <g id="ytick_18">
     <g id="line2d_35">
      <g>
       <use style="stroke:#000000;stroke-width:0.8;" x="253.504646" xlink:href="#me24cb66b50" y="182.458238"/>
      </g>
     </g>
     <g id="text_42">
      <!-- 100 -->
      <g transform="translate(231.234646 185.497613)scale(0.08 -0.08)">
       <use xlink:href="#DejaVuSans-31"/>
       <use x="63.623047" xlink:href="#DejaVuSans-30"/>
       <use x="127.246094" xlink:href="#DejaVuSans-30"/>
      </g>
     </g>
    </g>
    <g id="text_43">
     <!-- frequency -->
     <g transform="translate(224.946989 237.60625)rotate(-90)scale(0.11 -0.11)">
      <use xlink:href="#DejaVuSans-66"/>
      <use x="35.205078" xlink:href="#DejaVuSans-72"/>
      <use x="76.287109" xlink:href="#DejaVuSans-65"/>
      <use x="137.810547" xlink:href="#DejaVuSans-71"/>
      <use x="201.287109" xlink:href="#DejaVuSans-75"/>
      <use x="264.666016" xlink:href="#DejaVuSans-65"/>
      <use x="326.189453" xlink:href="#DejaVuSans-6e"/>
      <use x="389.568359" xlink:href="#DejaVuSans-63"/>
      <use x="444.548828" xlink:href="#DejaVuSans-79"/>
     </g>
    </g>
   </g>
   <g id="patch_141">
    <path d="M 253.504646 258.685354 
L 253.504646 161.114646 
" style="fill:none;stroke:#000000;stroke-linecap:square;stroke-linejoin:miter;stroke-width:0.8;"/>
   </g>
   <g id="patch_142">
    <path d="M 429.165354 258.685354 
L 429.165354 161.114646 
" style="fill:none;stroke:#000000;stroke-linecap:square;stroke-linejoin:miter;stroke-width:0.8;"/>
   </g>
   <g id="patch_143">
    <path d="M 253.504646 258.685354 
L 429.165354 258.685354 
" style="fill:none;stroke:#000000;stroke-linecap:square;stroke-linejoin:miter;stroke-width:0.8;"/>
   </g>
   <g id="patch_144">
    <path d="M 253.504646 161.114646 
L 429.165354 161.114646 
" style="fill:none;stroke:#000000;stroke-linecap:square;stroke-linejoin:miter;stroke-width:0.8;"/>
   </g>
   <g id="text_44">
    <!-- distribution at t = 50.0 -->
    <g transform="translate(261.31625 155.114646)scale(0.14 -0.14)">
     <use xlink:href="#DejaVuSans-64"/>
     <use x="63.476562" xlink:href="#DejaVuSans-69"/>
     <use x="91.259766" xlink:href="#DejaVuSans-73"/>
     <use x="143.359375" xlink:href="#DejaVuSans-74"/>
     <use x="182.568359" xlink:href="#DejaVuSans-72"/>
     <use x="223.681641" xlink:href="#DejaVuSans-69"/>
     <use x="251.464844" xlink:href="#DejaVuSans-62"/>
     <use x="314.941406" xlink:href="#DejaVuSans-75"/>
     <use x="378.320312" xlink:href="#DejaVuSans-74"/>
     <use x="417.529297" xlink:href="#DejaVuSans-69"/>
     <use x="445.3125" xlink:href="#DejaVuSans-6f"/>
     <use x="506.494141" xlink:href="#DejaVuSans-6e"/>
     <use x="569.873047" xlink:href="#DejaVuSans-20"/>
     <use x="601.660156" xlink:href="#DejaVuSans-61"/>
     <use x="662.939453" xlink:href="#DejaVuSans-74"/>
     <use x="702.148438" xlink:href="#DejaVuSans-20"/>
     <use x="733.935547" xlink:href="#DejaVuSans-74"/>
     <use x="773.144531" xlink:href="#DejaVuSans-20"/>
     <use x="804.931641" xlink:href="#DejaVuSans-3d"/>
     <use x="888.720703" xlink:href="#DejaVuSans-20"/>
     <use x="920.507812" xlink:href="#DejaVuSans-35"/>
     <use x="984.130859" xlink:href="#DejaVuSans-30"/>
     <use x="1047.753906" xlink:href="#DejaVuSans-2e"/>
     <use x="1079.541016" xlink:href="#DejaVuSans-30"/>
    </g>
   </g>
   <g id="legend_4">
    <g id="patch_145">
     <path d="M 393.141604 179.257146 
L 423.565354 179.257146 
Q 425.165354 179.257146 425.165354 177.657146 
L 425.165354 166.714646 
Q 425.165354 165.114646 423.565354 165.114646 
L 393.141604 165.114646 
Q 391.541604 165.114646 391.541604 166.714646 
L 391.541604 177.657146 
Q 391.541604 179.257146 393.141604 179.257146 
z
" style="fill:#ffffff;opacity:0.8;stroke:#000000;stroke-linejoin:miter;"/>
    </g>
    <g id="line2d_36">
     <path d="M 394.741604 171.593396 
L 410.741604 171.593396 
" style="fill:none;stroke:#ff0000;stroke-linecap:square;stroke-width:4;"/>
    </g>
    <g id="line2d_37"/>
    <g id="text_45">
     <!-- P -->
     <defs>
      <path d="M 19.671875 64.796875 
L 19.671875 37.40625 
L 32.078125 37.40625 
Q 38.96875 37.40625 42.71875 40.96875 
Q 46.484375 44.53125 46.484375 51.125 
Q 46.484375 57.671875 42.71875 61.234375 
Q 38.96875 64.796875 32.078125 64.796875 
z
M 9.8125 72.90625 
L 32.078125 72.90625 
Q 44.34375 72.90625 50.609375 67.359375 
Q 56.890625 61.8125 56.890625 51.125 
Q 56.890625 40.328125 50.609375 34.8125 
Q 44.34375 29.296875 32.078125 29.296875 
L 19.671875 29.296875 
L 19.671875 0 
L 9.8125 0 
z
" id="DejaVuSans-50"/>
     </defs>
     <g transform="translate(417.141604 174.393396)scale(0.08 -0.08)">
      <use xlink:href="#DejaVuSans-50"/>
     </g>
    </g>
   </g>
  </g>
 </g>
 <defs>
  <clipPath id="p1357e86ab6">
   <rect height="97.570709" width="175.660709" x="37.504646" y="17.114646"/>
  </clipPath>
  <clipPath id="p1d64d3f65a">
   <rect height="97.570709" width="175.660709" x="253.504646" y="17.114646"/>
  </clipPath>
  <clipPath id="p3ca7a99725">
   <rect height="97.570709" width="175.660709" x="37.504646" y="161.114646"/>
  </clipPath>
  <clipPath id="p739b581e08">
   <rect height="97.570709" width="175.660709" x="253.504646" y="161.114646"/>
  </clipPath>
 </defs>
</svg>
