<?xml version="1.0" encoding="utf-8" standalone="no"?>
<!DOCTYPE svg PUBLIC "-//W3C//DTD SVG 1.1//EN"
  "http://www.w3.org/Graphics/SVG/1.1/DTD/svg11.dtd">
<!-- Created with matplotlib (http://matplotlib.org/) -->
<svg height="288pt" version="1.1" viewBox="0 0 432 288" width="432pt" xmlns="http://www.w3.org/2000/svg" xmlns:xlink="http://www.w3.org/1999/xlink">
 <defs>
  <style type="text/css">
*{stroke-linecap:butt;stroke-linejoin:round;}
  </style>
 </defs>
 <g id="figure_1">
  <g id="patch_1">
   <path d="M 0 288 
L 432 288 
L 432 0 
L 0 0 
z
" style="fill:#ffffff;"/>
  </g>
  <g id="axes_1">
   <g id="patch_2">
    <path d="M 37.504646 258.685354 
L 426.555354 258.685354 
L 426.555354 2.834646 
L 37.504646 2.834646 
z
" style="fill:#ffffff;"/>
   </g>
   <g id="PolyCollection_1">
    <path clip-path="url(#ped6378c512)" d="M 37.504646 2.834646 
L 37.504646 2.834646 
L 41.395153 25.193141 
L 45.28566 39.296263 
L 49.176167 50.071119 
L 53.066674 58.674567 
L 56.957181 65.858015 
L 60.847688 71.700531 
L 64.738195 77.064045 
L 68.628702 81.953027 
L 72.519209 86.632384 
L 76.409717 90.916959 
L 80.300224 94.769552 
L 84.190731 98.57406 
L 88.081238 102.136131 
L 91.971745 105.706685 
L 95.862252 109.123279 
L 99.752759 112.417604 
L 103.643266 115.58771 
L 107.533773 118.775235 
L 111.42428 121.792218 
L 115.314787 124.916655 
L 119.205294 127.945406 
L 123.095802 131.039421 
L 126.986309 134.013829 
L 130.876816 136.905604 
L 134.767323 139.741971 
L 138.65783 142.581382 
L 142.548337 145.419279 
L 146.438844 148.276751 
L 150.329351 151.089222 
L 154.219858 153.689405 
L 158.110365 156.305309 
L 162.000872 159.053523 
L 165.89138 161.676615 
L 169.781887 164.20309 
L 173.672394 166.856428 
L 177.562901 169.439907 
L 181.453408 171.927131 
L 185.343915 174.454795 
L 189.234422 176.959738 
L 193.124929 179.220913 
L 197.015436 181.595539 
L 200.905943 183.917689 
L 204.79645 186.24995 
L 208.686957 188.578968 
L 212.577465 190.837675 
L 216.467972 193.073098 
L 220.358479 195.262309 
L 224.248986 197.480653 
L 228.139493 199.6612 
L 232.03 201.700878 
L 235.920507 203.751632 
L 239.811014 205.705387 
L 243.701521 207.58631 
L 247.592028 209.581604 
L 251.482535 211.46118 
L 255.373043 213.269488 
L 259.26355 215.12444 
L 263.154057 216.872075 
L 267.044564 218.516309 
L 270.935071 220.141265 
L 274.825578 221.676275 
L 278.716085 223.244384 
L 282.606592 224.743652 
L 286.497099 226.185966 
L 290.387606 227.556802 
L 294.278113 228.964978 
L 298.16862 230.316339 
L 302.059128 231.659991 
L 305.949635 232.958813 
L 309.840142 234.251674 
L 313.730649 235.461296 
L 317.621156 236.650327 
L 321.511663 237.708141 
L 325.40217 238.806513 
L 329.292677 239.860457 
L 333.183184 240.785635 
L 337.073691 241.708889 
L 340.964198 242.686817 
L 344.854706 243.612076 
L 348.745213 244.409223 
L 352.63572 245.267933 
L 356.526227 246.056716 
L 360.416734 246.789791 
L 364.307241 247.520628 
L 368.197748 248.208577 
L 372.088255 248.855523 
L 375.978762 249.490942 
L 379.869269 250.037682 
L 383.759776 250.609802 
L 387.650283 251.186805 
L 391.540791 251.654847 
L 395.431298 252.137565 
L 399.321805 252.560234 
L 403.212312 253.038182 
L 407.102819 253.461032 
L 410.993326 253.853817 
L 414.883833 254.239013 
L 418.77434 254.566695 
L 422.664847 254.833516 
L 426.555354 254.942768 
L 426.555354 250.187375 
L 426.555354 250.187375 
L 422.664847 249.951783 
L 418.77434 249.530616 
L 414.883833 249.063289 
L 410.993326 248.578732 
L 407.102819 248.111956 
L 403.212312 247.513865 
L 399.321805 246.958982 
L 395.431298 246.309748 
L 391.540791 245.635626 
L 387.650283 244.895866 
L 383.759776 244.152951 
L 379.869269 243.396659 
L 375.978762 242.640467 
L 372.088255 241.901609 
L 368.197748 241.055365 
L 364.307241 240.117623 
L 360.416734 239.105557 
L 356.526227 238.18746 
L 352.63572 237.262217 
L 348.745213 236.238727 
L 344.854706 235.191047 
L 340.964198 234.133879 
L 337.073691 233.042746 
L 333.183184 231.893541 
L 329.292677 230.717382 
L 325.40217 229.530693 
L 321.511663 228.320482 
L 317.621156 227.15465 
L 313.730649 225.780287 
L 309.840142 224.428214 
L 305.949635 222.98441 
L 302.059128 221.582241 
L 298.16862 220.192625 
L 294.278113 218.693506 
L 290.387606 217.162868 
L 286.497099 215.610179 
L 282.606592 213.97608 
L 278.716085 212.402334 
L 274.825578 210.75983 
L 270.935071 209.029869 
L 267.044564 207.287929 
L 263.154057 205.427669 
L 259.26355 203.635137 
L 255.373043 201.841202 
L 251.482535 199.87152 
L 247.592028 197.747173 
L 243.701521 195.872745 
L 239.811014 193.923018 
L 235.920507 191.828683 
L 232.03 189.70564 
L 228.139493 187.612293 
L 224.248986 185.405003 
L 220.358479 183.32894 
L 216.467972 180.977429 
L 212.577465 178.680622 
L 208.686957 176.451267 
L 204.79645 174.159721 
L 200.905943 171.823853 
L 197.015436 169.510151 
L 193.124929 167.184374 
L 189.234422 164.83178 
L 185.343915 162.340738 
L 181.453408 159.833347 
L 177.562901 157.401029 
L 173.672394 154.786374 
L 169.781887 152.31972 
L 165.89138 149.919858 
L 162.000872 147.482414 
L 158.110365 144.79467 
L 154.219858 142.180165 
L 150.329351 139.536347 
L 146.438844 136.943438 
L 142.548337 134.319087 
L 138.65783 131.612308 
L 134.767323 128.784733 
L 130.876816 126.061135 
L 126.986309 123.375958 
L 123.095802 120.513507 
L 119.205294 117.668738 
L 115.314787 114.7672 
L 111.42428 111.968142 
L 107.533773 109.048041 
L 103.643266 106.189762 
L 99.752759 103.176466 
L 95.862252 100.088637 
L 91.971745 96.752754 
L 88.081238 93.511374 
L 84.190731 90.054265 
L 80.300224 86.510038 
L 76.409717 82.759085 
L 72.519209 78.633215 
L 68.628702 74.307569 
L 64.738195 69.574907 
L 60.847688 64.039327 
L 56.957181 57.95841 
L 53.066674 50.767149 
L 49.176167 41.96704 
L 45.28566 31.460123 
L 41.395153 18.315509 
L 37.504646 2.834646 
z
" style="fill:#0000ff;fill-opacity:0.3;"/>
   </g>
   <g id="line2d_1">
    <path clip-path="url(#ped6378c512)" d="M 37.504646 2.834646 
L 41.395153 21.754325 
L 45.28566 35.378193 
L 49.176167 46.019079 
L 53.066674 54.720858 
L 56.957181 61.908213 
L 60.847688 67.869929 
L 64.738195 73.319476 
L 68.628702 78.130298 
L 72.519209 82.6328 
L 76.409717 86.838022 
L 80.300224 90.639795 
L 84.190731 94.314162 
L 88.081238 97.823752 
L 91.971745 101.229719 
L 95.862252 104.605958 
L 99.752759 107.797035 
L 103.643266 110.888736 
L 107.533773 113.911638 
L 111.42428 116.88018 
L 115.314787 119.841927 
L 119.205294 122.807072 
L 123.095802 125.776464 
L 126.986309 128.694893 
L 130.876816 131.48337 
L 134.767323 134.263352 
L 138.65783 137.096845 
L 142.548337 139.869183 
L 146.438844 142.610095 
L 150.329351 145.312785 
L 154.219858 147.934785 
L 158.110365 150.54999 
L 162.000872 153.267969 
L 165.89138 155.798237 
L 169.781887 158.261405 
L 173.672394 160.821401 
L 177.562901 163.420468 
L 181.453408 165.880239 
L 185.343915 168.397766 
L 189.234422 170.895759 
L 193.124929 173.202643 
L 197.015436 175.552845 
L 200.905943 177.870771 
L 204.79645 180.204836 
L 208.686957 182.515117 
L 212.577465 184.759149 
L 216.467972 187.025263 
L 220.358479 189.295625 
L 224.248986 191.442828 
L 228.139493 193.636746 
L 232.03 195.703259 
L 235.920507 197.790157 
L 239.811014 199.814202 
L 243.701521 201.729528 
L 247.592028 203.664389 
L 251.482535 205.66635 
L 255.373043 207.555345 
L 259.26355 209.379788 
L 263.154057 211.149872 
L 267.044564 212.902119 
L 270.935071 214.585567 
L 274.825578 216.218053 
L 278.716085 217.823359 
L 282.606592 219.359866 
L 286.497099 220.898072 
L 290.387606 222.359835 
L 294.278113 223.829242 
L 298.16862 225.254482 
L 302.059128 226.621116 
L 305.949635 227.971611 
L 309.840142 229.339944 
L 313.730649 230.620791 
L 317.621156 231.902488 
L 321.511663 233.014311 
L 325.40217 234.168603 
L 329.292677 235.28892 
L 333.183184 236.339588 
L 337.073691 237.375818 
L 340.964198 238.410348 
L 344.854706 239.401561 
L 348.745213 240.323975 
L 352.63572 241.265075 
L 356.526227 242.122088 
L 360.416734 242.947674 
L 364.307241 243.819126 
L 368.197748 244.631971 
L 372.088255 245.378566 
L 375.978762 246.065705 
L 379.869269 246.71717 
L 383.759776 247.381376 
L 387.650283 248.041336 
L 391.540791 248.645237 
L 395.431298 249.223656 
L 399.321805 249.759608 
L 403.212312 250.276024 
L 407.102819 250.786494 
L 410.993326 251.216274 
L 414.883833 251.651151 
L 418.77434 252.048655 
L 422.664847 252.39265 
L 426.555354 252.565071 
" style="fill:none;stroke:#0000ff;stroke-linecap:round;"/>
   </g>
   <g id="matplotlib.axis_1">
    <g id="xtick_1">
     <g id="line2d_2">
      <defs>
       <path d="M 0 0 
L 0 3.5 
" id="m6c353c49bc" style="stroke:#000000;stroke-width:0.8;"/>
      </defs>
      <g>
       <use style="stroke:#000000;stroke-width:0.8;" x="37.504646" xlink:href="#m6c353c49bc" y="258.685354"/>
      </g>
     </g>
     <g id="text_1">
      <!-- 0 -->
      <defs>
       <path d="M 31.78125 66.40625 
Q 24.171875 66.40625 20.328125 58.90625 
Q 16.5 51.421875 16.5 36.375 
Q 16.5 21.390625 20.328125 13.890625 
Q 24.171875 6.390625 31.78125 6.390625 
Q 39.453125 6.390625 43.28125 13.890625 
Q 47.125 21.390625 47.125 36.375 
Q 47.125 51.421875 43.28125 58.90625 
Q 39.453125 66.40625 31.78125 66.40625 
z
M 31.78125 74.21875 
Q 44.046875 74.21875 50.515625 64.515625 
Q 56.984375 54.828125 56.984375 36.375 
Q 56.984375 17.96875 50.515625 8.265625 
Q 44.046875 -1.421875 31.78125 -1.421875 
Q 19.53125 -1.421875 13.0625 8.265625 
Q 6.59375 17.96875 6.59375 36.375 
Q 6.59375 54.828125 13.0625 64.515625 
Q 19.53125 74.21875 31.78125 74.21875 
z
" id="DejaVuSans-30"/>
      </defs>
      <g transform="translate(34.959646 271.764104)scale(0.08 -0.08)">
       <use xlink:href="#DejaVuSans-30"/>
      </g>
     </g>
    </g>
    <g id="xtick_2">
     <g id="line2d_3">
      <g>
       <use style="stroke:#000000;stroke-width:0.8;" x="115.314787" xlink:href="#m6c353c49bc" y="258.685354"/>
      </g>
     </g>
     <g id="text_2">
      <!-- 10 -->
      <defs>
       <path d="M 12.40625 8.296875 
L 28.515625 8.296875 
L 28.515625 63.921875 
L 10.984375 60.40625 
L 10.984375 69.390625 
L 28.421875 72.90625 
L 38.28125 72.90625 
L 38.28125 8.296875 
L 54.390625 8.296875 
L 54.390625 0 
L 12.40625 0 
z
" id="DejaVuSans-31"/>
      </defs>
      <g transform="translate(110.224787 271.764104)scale(0.08 -0.08)">
       <use xlink:href="#DejaVuSans-31"/>
       <use x="63.623047" xlink:href="#DejaVuSans-30"/>
      </g>
     </g>
    </g>
    <g id="xtick_3">
     <g id="line2d_4">
      <g>
       <use style="stroke:#000000;stroke-width:0.8;" x="193.124929" xlink:href="#m6c353c49bc" y="258.685354"/>
      </g>
     </g>
     <g id="text_3">
      <!-- 20 -->
      <defs>
       <path d="M 19.1875 8.296875 
L 53.609375 8.296875 
L 53.609375 0 
L 7.328125 0 
L 7.328125 8.296875 
Q 12.9375 14.109375 22.625 23.890625 
Q 32.328125 33.6875 34.8125 36.53125 
Q 39.546875 41.84375 41.421875 45.53125 
Q 43.3125 49.21875 43.3125 52.78125 
Q 43.3125 58.59375 39.234375 62.25 
Q 35.15625 65.921875 28.609375 65.921875 
Q 23.96875 65.921875 18.8125 64.3125 
Q 13.671875 62.703125 7.8125 59.421875 
L 7.8125 69.390625 
Q 13.765625 71.78125 18.9375 73 
Q 24.125 74.21875 28.421875 74.21875 
Q 39.75 74.21875 46.484375 68.546875 
Q 53.21875 62.890625 53.21875 53.421875 
Q 53.21875 48.921875 51.53125 44.890625 
Q 49.859375 40.875 45.40625 35.40625 
Q 44.1875 33.984375 37.640625 27.21875 
Q 31.109375 20.453125 19.1875 8.296875 
z
" id="DejaVuSans-32"/>
      </defs>
      <g transform="translate(188.034929 271.764104)scale(0.08 -0.08)">
       <use xlink:href="#DejaVuSans-32"/>
       <use x="63.623047" xlink:href="#DejaVuSans-30"/>
      </g>
     </g>
    </g>
    <g id="xtick_4">
     <g id="line2d_5">
      <g>
       <use style="stroke:#000000;stroke-width:0.8;" x="270.935071" xlink:href="#m6c353c49bc" y="258.685354"/>
      </g>
     </g>
     <g id="text_4">
      <!-- 30 -->
      <defs>
       <path d="M 40.578125 39.3125 
Q 47.65625 37.796875 51.625 33 
Q 55.609375 28.21875 55.609375 21.1875 
Q 55.609375 10.40625 48.1875 4.484375 
Q 40.765625 -1.421875 27.09375 -1.421875 
Q 22.515625 -1.421875 17.65625 -0.515625 
Q 12.796875 0.390625 7.625 2.203125 
L 7.625 11.71875 
Q 11.71875 9.328125 16.59375 8.109375 
Q 21.484375 6.890625 26.8125 6.890625 
Q 36.078125 6.890625 40.9375 10.546875 
Q 45.796875 14.203125 45.796875 21.1875 
Q 45.796875 27.640625 41.28125 31.265625 
Q 36.765625 34.90625 28.71875 34.90625 
L 20.21875 34.90625 
L 20.21875 43.015625 
L 29.109375 43.015625 
Q 36.375 43.015625 40.234375 45.921875 
Q 44.09375 48.828125 44.09375 54.296875 
Q 44.09375 59.90625 40.109375 62.90625 
Q 36.140625 65.921875 28.71875 65.921875 
Q 24.65625 65.921875 20.015625 65.03125 
Q 15.375 64.15625 9.8125 62.3125 
L 9.8125 71.09375 
Q 15.4375 72.65625 20.34375 73.4375 
Q 25.25 74.21875 29.59375 74.21875 
Q 40.828125 74.21875 47.359375 69.109375 
Q 53.90625 64.015625 53.90625 55.328125 
Q 53.90625 49.265625 50.4375 45.09375 
Q 46.96875 40.921875 40.578125 39.3125 
z
" id="DejaVuSans-33"/>
      </defs>
      <g transform="translate(265.845071 271.764104)scale(0.08 -0.08)">
       <use xlink:href="#DejaVuSans-33"/>
       <use x="63.623047" xlink:href="#DejaVuSans-30"/>
      </g>
     </g>
    </g>
    <g id="xtick_5">
     <g id="line2d_6">
      <g>
       <use style="stroke:#000000;stroke-width:0.8;" x="348.745213" xlink:href="#m6c353c49bc" y="258.685354"/>
      </g>
     </g>
     <g id="text_5">
      <!-- 40 -->
      <defs>
       <path d="M 37.796875 64.3125 
L 12.890625 25.390625 
L 37.796875 25.390625 
z
M 35.203125 72.90625 
L 47.609375 72.90625 
L 47.609375 25.390625 
L 58.015625 25.390625 
L 58.015625 17.1875 
L 47.609375 17.1875 
L 47.609375 0 
L 37.796875 0 
L 37.796875 17.1875 
L 4.890625 17.1875 
L 4.890625 26.703125 
z
" id="DejaVuSans-34"/>
      </defs>
      <g transform="translate(343.655213 271.764104)scale(0.08 -0.08)">
       <use xlink:href="#DejaVuSans-34"/>
       <use x="63.623047" xlink:href="#DejaVuSans-30"/>
      </g>
     </g>
    </g>
    <g id="xtick_6">
     <g id="line2d_7">
      <g>
       <use style="stroke:#000000;stroke-width:0.8;" x="426.555354" xlink:href="#m6c353c49bc" y="258.685354"/>
      </g>
     </g>
     <g id="text_6">
      <!-- 50 -->
      <defs>
       <path d="M 10.796875 72.90625 
L 49.515625 72.90625 
L 49.515625 64.59375 
L 19.828125 64.59375 
L 19.828125 46.734375 
Q 21.96875 47.46875 24.109375 47.828125 
Q 26.265625 48.1875 28.421875 48.1875 
Q 40.625 48.1875 47.75 41.5 
Q 54.890625 34.8125 54.890625 23.390625 
Q 54.890625 11.625 47.5625 5.09375 
Q 40.234375 -1.421875 26.90625 -1.421875 
Q 22.3125 -1.421875 17.546875 -0.640625 
Q 12.796875 0.140625 7.71875 1.703125 
L 7.71875 11.625 
Q 12.109375 9.234375 16.796875 8.0625 
Q 21.484375 6.890625 26.703125 6.890625 
Q 35.15625 6.890625 40.078125 11.328125 
Q 45.015625 15.765625 45.015625 23.390625 
Q 45.015625 31 40.078125 35.4375 
Q 35.15625 39.890625 26.703125 39.890625 
Q 22.75 39.890625 18.8125 39.015625 
Q 14.890625 38.140625 10.796875 36.28125 
z
" id="DejaVuSans-35"/>
      </defs>
      <g transform="translate(421.465354 271.764104)scale(0.08 -0.08)">
       <use xlink:href="#DejaVuSans-35"/>
       <use x="63.623047" xlink:href="#DejaVuSans-30"/>
      </g>
     </g>
    </g>
    <g id="text_7">
     <!-- time -->
     <defs>
      <path d="M 18.3125 70.21875 
L 18.3125 54.6875 
L 36.8125 54.6875 
L 36.8125 47.703125 
L 18.3125 47.703125 
L 18.3125 18.015625 
Q 18.3125 11.328125 20.140625 9.421875 
Q 21.96875 7.515625 27.59375 7.515625 
L 36.8125 7.515625 
L 36.8125 0 
L 27.59375 0 
Q 17.1875 0 13.234375 3.875 
Q 9.28125 7.765625 9.28125 18.015625 
L 9.28125 47.703125 
L 2.6875 47.703125 
L 2.6875 54.6875 
L 9.28125 54.6875 
L 9.28125 70.21875 
z
" id="DejaVuSans-74"/>
      <path d="M 9.421875 54.6875 
L 18.40625 54.6875 
L 18.40625 0 
L 9.421875 0 
z
M 9.421875 75.984375 
L 18.40625 75.984375 
L 18.40625 64.59375 
L 9.421875 64.59375 
z
" id="DejaVuSans-69"/>
      <path d="M 52 44.1875 
Q 55.375 50.25 60.0625 53.125 
Q 64.75 56 71.09375 56 
Q 79.640625 56 84.28125 50.015625 
Q 88.921875 44.046875 88.921875 33.015625 
L 88.921875 0 
L 79.890625 0 
L 79.890625 32.71875 
Q 79.890625 40.578125 77.09375 44.375 
Q 74.3125 48.1875 68.609375 48.1875 
Q 61.625 48.1875 57.5625 43.546875 
Q 53.515625 38.921875 53.515625 30.90625 
L 53.515625 0 
L 44.484375 0 
L 44.484375 32.71875 
Q 44.484375 40.625 41.703125 44.40625 
Q 38.921875 48.1875 33.109375 48.1875 
Q 26.21875 48.1875 22.15625 43.53125 
Q 18.109375 38.875 18.109375 30.90625 
L 18.109375 0 
L 9.078125 0 
L 9.078125 54.6875 
L 18.109375 54.6875 
L 18.109375 46.1875 
Q 21.1875 51.21875 25.484375 53.609375 
Q 29.78125 56 35.6875 56 
Q 41.65625 56 45.828125 52.96875 
Q 50 49.953125 52 44.1875 
z
" id="DejaVuSans-6d"/>
      <path d="M 56.203125 29.59375 
L 56.203125 25.203125 
L 14.890625 25.203125 
Q 15.484375 15.921875 20.484375 11.0625 
Q 25.484375 6.203125 34.421875 6.203125 
Q 39.59375 6.203125 44.453125 7.46875 
Q 49.3125 8.734375 54.109375 11.28125 
L 54.109375 2.78125 
Q 49.265625 0.734375 44.1875 -0.34375 
Q 39.109375 -1.421875 33.890625 -1.421875 
Q 20.796875 -1.421875 13.15625 6.1875 
Q 5.515625 13.8125 5.515625 26.8125 
Q 5.515625 40.234375 12.765625 48.109375 
Q 20.015625 56 32.328125 56 
Q 43.359375 56 49.78125 48.890625 
Q 56.203125 41.796875 56.203125 29.59375 
z
M 47.21875 32.234375 
Q 47.125 39.59375 43.09375 43.984375 
Q 39.0625 48.390625 32.421875 48.390625 
Q 24.90625 48.390625 20.390625 44.140625 
Q 15.875 39.890625 15.1875 32.171875 
z
" id="DejaVuSans-65"/>
     </defs>
     <g transform="translate(219.604297 285.786136)scale(0.11 -0.11)">
      <use xlink:href="#DejaVuSans-74"/>
      <use x="39.208984" xlink:href="#DejaVuSans-69"/>
      <use x="66.992188" xlink:href="#DejaVuSans-6d"/>
      <use x="164.404297" xlink:href="#DejaVuSans-65"/>
     </g>
    </g>
   </g>
   <g id="matplotlib.axis_2">
    <g id="ytick_1">
     <g id="line2d_8">
      <defs>
       <path d="M 0 0 
L -3.5 0 
" id="m7f731f7f9e" style="stroke:#000000;stroke-width:0.8;"/>
      </defs>
      <g>
       <use style="stroke:#000000;stroke-width:0.8;" x="37.504646" xlink:href="#m7f731f7f9e" y="258.494512"/>
      </g>
     </g>
     <g id="text_8">
      <!-- 0 -->
      <g transform="translate(25.414646 261.533887)scale(0.08 -0.08)">
       <use xlink:href="#DejaVuSans-30"/>
      </g>
     </g>
    </g>
    <g id="ytick_2">
     <g id="line2d_9">
      <g>
       <use style="stroke:#000000;stroke-width:0.8;" x="37.504646" xlink:href="#m7f731f7f9e" y="173.557679"/>
      </g>
     </g>
     <g id="text_9">
      <!-- 100 -->
      <g transform="translate(15.234646 176.597054)scale(0.08 -0.08)">
       <use xlink:href="#DejaVuSans-31"/>
       <use x="63.623047" xlink:href="#DejaVuSans-30"/>
       <use x="127.246094" xlink:href="#DejaVuSans-30"/>
      </g>
     </g>
    </g>
    <g id="ytick_3">
     <g id="line2d_10">
      <g>
       <use style="stroke:#000000;stroke-width:0.8;" x="37.504646" xlink:href="#m7f731f7f9e" y="88.620847"/>
      </g>
     </g>
     <g id="text_10">
      <!-- 200 -->
      <g transform="translate(15.234646 91.660222)scale(0.08 -0.08)">
       <use xlink:href="#DejaVuSans-32"/>
       <use x="63.623047" xlink:href="#DejaVuSans-30"/>
       <use x="127.246094" xlink:href="#DejaVuSans-30"/>
      </g>
     </g>
    </g>
    <g id="ytick_4">
     <g id="line2d_11">
      <g>
       <use style="stroke:#000000;stroke-width:0.8;" x="37.504646" xlink:href="#m7f731f7f9e" y="3.684014"/>
      </g>
     </g>
     <g id="text_11">
      <!-- 300 -->
      <g transform="translate(15.234646 6.723389)scale(0.08 -0.08)">
       <use xlink:href="#DejaVuSans-33"/>
       <use x="63.623047" xlink:href="#DejaVuSans-30"/>
       <use x="127.246094" xlink:href="#DejaVuSans-30"/>
      </g>
     </g>
    </g>
    <g id="text_12">
     <!-- mean population size -->
     <defs>
      <path d="M 34.28125 27.484375 
Q 23.390625 27.484375 19.1875 25 
Q 14.984375 22.515625 14.984375 16.5 
Q 14.984375 11.71875 18.140625 8.90625 
Q 21.296875 6.109375 26.703125 6.109375 
Q 34.1875 6.109375 38.703125 11.40625 
Q 43.21875 16.703125 43.21875 25.484375 
L 43.21875 27.484375 
z
M 52.203125 31.203125 
L 52.203125 0 
L 43.21875 0 
L 43.21875 8.296875 
Q 40.140625 3.328125 35.546875 0.953125 
Q 30.953125 -1.421875 24.3125 -1.421875 
Q 15.921875 -1.421875 10.953125 3.296875 
Q 6 8.015625 6 15.921875 
Q 6 25.140625 12.171875 29.828125 
Q 18.359375 34.515625 30.609375 34.515625 
L 43.21875 34.515625 
L 43.21875 35.40625 
Q 43.21875 41.609375 39.140625 45 
Q 35.0625 48.390625 27.6875 48.390625 
Q 23 48.390625 18.546875 47.265625 
Q 14.109375 46.140625 10.015625 43.890625 
L 10.015625 52.203125 
Q 14.9375 54.109375 19.578125 55.046875 
Q 24.21875 56 28.609375 56 
Q 40.484375 56 46.34375 49.84375 
Q 52.203125 43.703125 52.203125 31.203125 
z
" id="DejaVuSans-61"/>
      <path d="M 54.890625 33.015625 
L 54.890625 0 
L 45.90625 0 
L 45.90625 32.71875 
Q 45.90625 40.484375 42.875 44.328125 
Q 39.84375 48.1875 33.796875 48.1875 
Q 26.515625 48.1875 22.3125 43.546875 
Q 18.109375 38.921875 18.109375 30.90625 
L 18.109375 0 
L 9.078125 0 
L 9.078125 54.6875 
L 18.109375 54.6875 
L 18.109375 46.1875 
Q 21.34375 51.125 25.703125 53.5625 
Q 30.078125 56 35.796875 56 
Q 45.21875 56 50.046875 50.171875 
Q 54.890625 44.34375 54.890625 33.015625 
z
" id="DejaVuSans-6e"/>
      <path id="DejaVuSans-20"/>
      <path d="M 18.109375 8.203125 
L 18.109375 -20.796875 
L 9.078125 -20.796875 
L 9.078125 54.6875 
L 18.109375 54.6875 
L 18.109375 46.390625 
Q 20.953125 51.265625 25.265625 53.625 
Q 29.59375 56 35.59375 56 
Q 45.5625 56 51.78125 48.09375 
Q 58.015625 40.1875 58.015625 27.296875 
Q 58.015625 14.40625 51.78125 6.484375 
Q 45.5625 -1.421875 35.59375 -1.421875 
Q 29.59375 -1.421875 25.265625 0.953125 
Q 20.953125 3.328125 18.109375 8.203125 
z
M 48.6875 27.296875 
Q 48.6875 37.203125 44.609375 42.84375 
Q 40.53125 48.484375 33.40625 48.484375 
Q 26.265625 48.484375 22.1875 42.84375 
Q 18.109375 37.203125 18.109375 27.296875 
Q 18.109375 17.390625 22.1875 11.75 
Q 26.265625 6.109375 33.40625 6.109375 
Q 40.53125 6.109375 44.609375 11.75 
Q 48.6875 17.390625 48.6875 27.296875 
z
" id="DejaVuSans-70"/>
      <path d="M 30.609375 48.390625 
Q 23.390625 48.390625 19.1875 42.75 
Q 14.984375 37.109375 14.984375 27.296875 
Q 14.984375 17.484375 19.15625 11.84375 
Q 23.34375 6.203125 30.609375 6.203125 
Q 37.796875 6.203125 41.984375 11.859375 
Q 46.1875 17.53125 46.1875 27.296875 
Q 46.1875 37.015625 41.984375 42.703125 
Q 37.796875 48.390625 30.609375 48.390625 
z
M 30.609375 56 
Q 42.328125 56 49.015625 48.375 
Q 55.71875 40.765625 55.71875 27.296875 
Q 55.71875 13.875 49.015625 6.21875 
Q 42.328125 -1.421875 30.609375 -1.421875 
Q 18.84375 -1.421875 12.171875 6.21875 
Q 5.515625 13.875 5.515625 27.296875 
Q 5.515625 40.765625 12.171875 48.375 
Q 18.84375 56 30.609375 56 
z
" id="DejaVuSans-6f"/>
      <path d="M 8.5 21.578125 
L 8.5 54.6875 
L 17.484375 54.6875 
L 17.484375 21.921875 
Q 17.484375 14.15625 20.5 10.265625 
Q 23.53125 6.390625 29.59375 6.390625 
Q 36.859375 6.390625 41.078125 11.03125 
Q 45.3125 15.671875 45.3125 23.6875 
L 45.3125 54.6875 
L 54.296875 54.6875 
L 54.296875 0 
L 45.3125 0 
L 45.3125 8.40625 
Q 42.046875 3.421875 37.71875 1 
Q 33.40625 -1.421875 27.6875 -1.421875 
Q 18.265625 -1.421875 13.375 4.4375 
Q 8.5 10.296875 8.5 21.578125 
z
M 31.109375 56 
z
" id="DejaVuSans-75"/>
      <path d="M 9.421875 75.984375 
L 18.40625 75.984375 
L 18.40625 0 
L 9.421875 0 
z
" id="DejaVuSans-6c"/>
      <path d="M 44.28125 53.078125 
L 44.28125 44.578125 
Q 40.484375 46.53125 36.375 47.5 
Q 32.28125 48.484375 27.875 48.484375 
Q 21.1875 48.484375 17.84375 46.4375 
Q 14.5 44.390625 14.5 40.28125 
Q 14.5 37.15625 16.890625 35.375 
Q 19.28125 33.59375 26.515625 31.984375 
L 29.59375 31.296875 
Q 39.15625 29.25 43.1875 25.515625 
Q 47.21875 21.78125 47.21875 15.09375 
Q 47.21875 7.46875 41.1875 3.015625 
Q 35.15625 -1.421875 24.609375 -1.421875 
Q 20.21875 -1.421875 15.453125 -0.5625 
Q 10.6875 0.296875 5.421875 2 
L 5.421875 11.28125 
Q 10.40625 8.6875 15.234375 7.390625 
Q 20.0625 6.109375 24.8125 6.109375 
Q 31.15625 6.109375 34.5625 8.28125 
Q 37.984375 10.453125 37.984375 14.40625 
Q 37.984375 18.0625 35.515625 20.015625 
Q 33.0625 21.96875 24.703125 23.78125 
L 21.578125 24.515625 
Q 13.234375 26.265625 9.515625 29.90625 
Q 5.8125 33.546875 5.8125 39.890625 
Q 5.8125 47.609375 11.28125 51.796875 
Q 16.75 56 26.8125 56 
Q 31.78125 56 36.171875 55.265625 
Q 40.578125 54.546875 44.28125 53.078125 
z
" id="DejaVuSans-73"/>
      <path d="M 5.515625 54.6875 
L 48.1875 54.6875 
L 48.1875 46.484375 
L 14.40625 7.171875 
L 48.1875 7.171875 
L 48.1875 0 
L 4.296875 0 
L 4.296875 8.203125 
L 38.09375 47.515625 
L 5.515625 47.515625 
z
" id="DejaVuSans-7a"/>
     </defs>
     <g transform="translate(8.946989 189.785312)rotate(-90)scale(0.11 -0.11)">
      <use xlink:href="#DejaVuSans-6d"/>
      <use x="97.412109" xlink:href="#DejaVuSans-65"/>
      <use x="158.935547" xlink:href="#DejaVuSans-61"/>
      <use x="220.214844" xlink:href="#DejaVuSans-6e"/>
      <use x="283.59375" xlink:href="#DejaVuSans-20"/>
      <use x="315.380859" xlink:href="#DejaVuSans-70"/>
      <use x="378.857422" xlink:href="#DejaVuSans-6f"/>
      <use x="440.039062" xlink:href="#DejaVuSans-70"/>
      <use x="503.515625" xlink:href="#DejaVuSans-75"/>
      <use x="566.894531" xlink:href="#DejaVuSans-6c"/>
      <use x="594.677734" xlink:href="#DejaVuSans-61"/>
      <use x="655.957031" xlink:href="#DejaVuSans-74"/>
      <use x="695.166016" xlink:href="#DejaVuSans-69"/>
      <use x="722.949219" xlink:href="#DejaVuSans-6f"/>
      <use x="784.130859" xlink:href="#DejaVuSans-6e"/>
      <use x="847.509766" xlink:href="#DejaVuSans-20"/>
      <use x="879.296875" xlink:href="#DejaVuSans-73"/>
      <use x="931.396484" xlink:href="#DejaVuSans-69"/>
      <use x="959.179688" xlink:href="#DejaVuSans-7a"/>
      <use x="1011.669922" xlink:href="#DejaVuSans-65"/>
     </g>
    </g>
   </g>
   <g id="PolyCollection_2">
    <path clip-path="url(#ped6378c512)" d="M 37.504646 173.557679 
L 37.504646 173.557679 
L 41.395153 195.405137 
L 45.28566 208.148984 
L 49.176167 217.187679 
L 53.066674 223.541418 
L 56.957181 228.344016 
L 60.847688 231.529965 
L 64.738195 234.092424 
L 68.628702 235.959684 
L 72.519209 237.459305 
L 76.409717 238.677469 
L 80.300224 239.3675 
L 84.190731 239.930834 
L 88.081238 240.30035 
L 91.971745 240.732119 
L 95.862252 240.811963 
L 99.752759 240.890238 
L 103.643266 240.769933 
L 107.533773 240.629702 
L 111.42428 240.408981 
L 115.314787 240.437734 
L 119.205294 240.130104 
L 123.095802 240.090859 
L 126.986309 239.736041 
L 130.876816 239.443247 
L 134.767323 239.036509 
L 138.65783 238.758902 
L 142.548337 238.503642 
L 146.438844 238.211305 
L 150.329351 237.919638 
L 154.219858 237.608979 
L 158.110365 237.215536 
L 162.000872 236.935691 
L 165.89138 236.757271 
L 169.781887 236.310971 
L 173.672394 235.822355 
L 177.562901 235.452772 
L 181.453408 235.115333 
L 185.343915 234.731864 
L 189.234422 234.464444 
L 193.124929 233.840549 
L 197.015436 233.385547 
L 200.905943 232.89992 
L 204.79645 232.531843 
L 208.686957 232.066417 
L 212.577465 231.610781 
L 216.467972 231.274418 
L 220.358479 230.790647 
L 224.248986 230.266537 
L 228.139493 229.874139 
L 232.03 229.389623 
L 235.920507 228.950013 
L 239.811014 228.461445 
L 243.701521 228.039743 
L 247.592028 227.345044 
L 251.482535 226.928188 
L 255.373043 226.359452 
L 259.26355 225.823299 
L 263.154057 225.233504 
L 267.044564 224.727976 
L 270.935071 224.046281 
L 274.825578 223.473305 
L 278.716085 222.802324 
L 282.606592 222.02234 
L 286.497099 221.380367 
L 290.387606 220.769849 
L 294.278113 220.178736 
L 298.16862 219.542543 
L 302.059128 218.763203 
L 305.949635 218.168642 
L 309.840142 217.636326 
L 313.730649 217.011499 
L 317.621156 216.33804 
L 321.511663 215.513482 
L 325.40217 214.806229 
L 329.292677 214.05957 
L 333.183184 213.375705 
L 337.073691 212.610729 
L 340.964198 211.898915 
L 344.854706 211.299862 
L 348.745213 210.585428 
L 352.63572 209.937943 
L 356.526227 209.132917 
L 360.416734 208.37921 
L 364.307241 207.703045 
L 368.197748 207.041062 
L 372.088255 206.412841 
L 375.978762 205.653023 
L 379.869269 204.937923 
L 383.759776 204.255067 
L 387.650283 203.533531 
L 391.540791 202.851714 
L 395.431298 202.073408 
L 399.321805 201.332361 
L 403.212312 200.602018 
L 407.102819 199.912703 
L 410.993326 199.146838 
L 414.883833 198.513662 
L 418.77434 197.8489 
L 422.664847 197.238315 
L 426.555354 196.898639 
L 426.555354 189.002275 
L 426.555354 189.002275 
L 422.664847 189.306419 
L 418.77434 189.878155 
L 414.883833 190.467061 
L 410.993326 191.065469 
L 407.102819 191.653497 
L 403.212312 192.222946 
L 399.321805 192.885567 
L 395.431298 193.50351 
L 391.540791 194.138552 
L 387.650283 194.83441 
L 383.759776 195.434491 
L 379.869269 196.044374 
L 375.978762 196.790188 
L 372.088255 197.506572 
L 368.197748 198.11673 
L 364.307241 198.779762 
L 360.416734 199.437105 
L 356.526227 200.108638 
L 352.63572 200.883437 
L 348.745213 201.547377 
L 344.854706 202.259882 
L 340.964198 203.035107 
L 337.073691 203.660198 
L 333.183184 204.364629 
L 329.292677 205.04485 
L 325.40217 205.728527 
L 321.511663 206.339494 
L 317.621156 207.06928 
L 313.730649 207.68686 
L 309.840142 208.50596 
L 305.949635 209.264683 
L 302.059128 209.874527 
L 298.16862 210.58328 
L 294.278113 211.178671 
L 290.387606 211.802155 
L 286.497099 212.530242 
L 282.606592 213.131744 
L 278.716085 213.780398 
L 274.825578 214.290038 
L 270.935071 214.95714 
L 267.044564 215.690493 
L 263.154057 216.340105 
L 259.26355 217.012472 
L 255.373043 217.646748 
L 251.482535 218.185589 
L 247.592028 218.672461 
L 243.701521 219.19066 
L 239.811014 219.810283 
L 235.920507 220.340957 
L 232.03 220.835653 
L 228.139493 221.329608 
L 224.248986 221.788278 
L 220.358479 222.273218 
L 216.467972 222.83417 
L 212.577465 223.389643 
L 208.686957 223.866614 
L 204.79645 224.464597 
L 200.905943 224.993452 
L 197.015436 225.447227 
L 193.124929 225.89935 
L 189.234422 226.415308 
L 185.343915 226.756036 
L 181.453408 227.104722 
L 177.562901 227.638735 
L 173.672394 227.991115 
L 169.781887 228.353566 
L 165.89138 228.804199 
L 162.000872 229.276395 
L 158.110365 229.665852 
L 154.219858 229.921327 
L 150.329351 230.386991 
L 146.438844 230.654208 
L 142.548337 231.032872 
L 138.65783 231.458805 
L 134.767323 231.728191 
L 130.876816 231.919409 
L 126.986309 232.297615 
L 123.095802 232.503381 
L 119.205294 232.690068 
L 115.314787 232.75446 
L 111.42428 233.09748 
L 107.533773 233.318431 
L 103.643266 233.461888 
L 99.752759 233.557324 
L 95.862252 233.411365 
L 91.971745 233.294156 
L 88.081238 233.051527 
L 84.190731 232.727958 
L 80.300224 232.144645 
L 76.409717 231.390749 
L 72.519209 230.184816 
L 68.628702 228.635205 
L 64.738195 226.800917 
L 60.847688 224.100691 
L 56.957181 220.6157 
L 53.066674 215.866302 
L 49.176167 209.294355 
L 45.28566 200.550674 
L 41.395153 188.605083 
L 37.504646 173.557679 
z
" style="fill:#008000;fill-opacity:0.3;"/>
   </g>
   <g id="line2d_12">
    <path clip-path="url(#ped6378c512)" d="M 37.504646 173.557679 
L 41.395153 192.00511 
L 45.28566 204.349829 
L 49.176167 213.241017 
L 53.066674 219.70386 
L 56.957181 224.479858 
L 60.847688 227.815328 
L 64.738195 230.446671 
L 68.628702 232.297444 
L 72.519209 233.82206 
L 76.409717 235.034109 
L 80.300224 235.756072 
L 84.190731 236.329396 
L 88.081238 236.675938 
L 91.971745 237.013137 
L 95.862252 237.111664 
L 99.752759 237.223781 
L 103.643266 237.115911 
L 107.533773 236.974066 
L 111.42428 236.753231 
L 115.314787 236.596097 
L 119.205294 236.410086 
L 123.095802 236.29712 
L 126.986309 236.016828 
L 130.876816 235.681328 
L 134.767323 235.38235 
L 138.65783 235.108854 
L 142.548337 234.768257 
L 146.438844 234.432756 
L 150.329351 234.153314 
L 154.219858 233.765153 
L 158.110365 233.440694 
L 162.000872 233.106043 
L 165.89138 232.780735 
L 169.781887 232.332268 
L 173.672394 231.906735 
L 177.562901 231.545753 
L 181.453408 231.110027 
L 185.343915 230.74395 
L 189.234422 230.439876 
L 193.124929 229.86995 
L 197.015436 229.416387 
L 200.905943 228.946686 
L 204.79645 228.49822 
L 208.686957 227.966515 
L 212.577465 227.500212 
L 216.467972 227.054294 
L 220.358479 226.531932 
L 224.248986 226.027407 
L 228.139493 225.601874 
L 232.03 225.112638 
L 235.920507 224.645485 
L 239.811014 224.135864 
L 243.701521 223.615201 
L 247.592028 223.008752 
L 251.482535 222.556888 
L 255.373043 222.0031 
L 259.26355 221.417885 
L 263.154057 220.786805 
L 267.044564 220.209234 
L 270.935071 219.501711 
L 274.825578 218.881672 
L 278.716085 218.291361 
L 282.606592 217.577042 
L 286.497099 216.955304 
L 290.387606 216.286002 
L 294.278113 215.678704 
L 298.16862 215.062912 
L 302.059128 214.318865 
L 305.949635 213.716663 
L 309.840142 213.071143 
L 313.730649 212.34918 
L 317.621156 211.70366 
L 321.511663 210.926488 
L 325.40217 210.267378 
L 329.292677 209.55221 
L 333.183184 208.870167 
L 337.073691 208.135464 
L 340.964198 207.467011 
L 344.854706 206.779872 
L 348.745213 206.066402 
L 352.63572 205.41069 
L 356.526227 204.620777 
L 360.416734 203.908157 
L 364.307241 203.241403 
L 368.197748 202.578896 
L 372.088255 201.959707 
L 375.978762 201.221605 
L 379.869269 200.491149 
L 383.759776 199.844779 
L 387.650283 199.183971 
L 391.540791 198.495133 
L 395.431298 197.788459 
L 399.321805 197.108964 
L 403.212312 196.412482 
L 407.102819 195.7831 
L 410.993326 195.106153 
L 414.883833 194.490361 
L 418.77434 193.863528 
L 422.664847 193.272367 
L 426.555354 192.950457 
" style="fill:none;stroke:#008000;stroke-linecap:round;"/>
   </g>
   <g id="patch_3">
    <path d="M 37.504646 258.685354 
L 37.504646 2.834646 
" style="fill:none;stroke:#000000;stroke-linecap:square;stroke-linejoin:miter;stroke-width:0.8;"/>
   </g>
   <g id="patch_4">
    <path d="M 426.555354 258.685354 
L 426.555354 2.834646 
" style="fill:none;stroke:#000000;stroke-linecap:square;stroke-linejoin:miter;stroke-width:0.8;"/>
   </g>
   <g id="patch_5">
    <path d="M 37.504646 258.685354 
L 426.555354 258.685354 
" style="fill:none;stroke:#000000;stroke-linecap:square;stroke-linejoin:miter;stroke-width:0.8;"/>
   </g>
   <g id="patch_6">
    <path d="M 37.504646 2.834646 
L 426.555354 2.834646 
" style="fill:none;stroke:#000000;stroke-linecap:square;stroke-linejoin:miter;stroke-width:0.8;"/>
   </g>
   <g id="PolyCollection_3">
    <path clip-path="url(#ped6378c512)" d="M 37.504646 258.494512 
L 37.504646 258.494512 
L 41.395153 243.447108 
L 45.28566 231.501517 
L 49.176167 222.757836 
L 53.066674 216.185888 
L 56.957181 211.43649 
L 60.847688 207.9515 
L 64.738195 205.251274 
L 68.628702 203.416986 
L 72.519209 201.867374 
L 76.409717 200.661442 
L 80.300224 199.907546 
L 84.190731 199.324233 
L 88.081238 199.000664 
L 91.971745 198.758035 
L 95.862252 198.640825 
L 99.752759 198.494867 
L 103.643266 198.590302 
L 107.533773 198.73376 
L 111.42428 198.95471 
L 115.314787 199.29773 
L 119.205294 199.362123 
L 123.095802 199.54881 
L 126.986309 199.754575 
L 130.876816 200.132782 
L 134.767323 200.323999 
L 138.65783 200.593386 
L 142.548337 201.019319 
L 146.438844 201.397983 
L 150.329351 201.6652 
L 154.219858 202.130864 
L 158.110365 202.386339 
L 162.000872 202.775796 
L 165.89138 203.247991 
L 169.781887 203.698625 
L 173.672394 204.061075 
L 177.562901 204.413455 
L 181.453408 204.947469 
L 185.343915 205.296155 
L 189.234422 205.636883 
L 193.124929 206.152841 
L 197.015436 206.604964 
L 200.905943 207.058739 
L 204.79645 207.587594 
L 208.686957 208.185577 
L 212.577465 208.662548 
L 216.467972 209.218021 
L 220.358479 209.778973 
L 224.248986 210.263913 
L 228.139493 210.722582 
L 232.03 211.216538 
L 235.920507 211.711234 
L 239.811014 212.241908 
L 243.701521 212.861531 
L 247.592028 213.37973 
L 251.482535 213.866601 
L 255.373043 214.405442 
L 259.26355 215.039719 
L 263.154057 215.712085 
L 267.044564 216.361698 
L 270.935071 217.09505 
L 274.825578 217.762153 
L 278.716085 218.271793 
L 282.606592 218.920447 
L 286.497099 219.521949 
L 290.387606 220.250035 
L 294.278113 220.873519 
L 298.16862 221.468911 
L 302.059128 222.177664 
L 305.949635 222.787507 
L 309.840142 223.54623 
L 313.730649 224.36533 
L 317.621156 224.982911 
L 321.511663 225.712697 
L 325.40217 226.323664 
L 329.292677 227.007341 
L 333.183184 227.687561 
L 337.073691 228.391992 
L 340.964198 229.017084 
L 344.854706 229.792309 
L 348.745213 230.504813 
L 352.63572 231.168754 
L 356.526227 231.943553 
L 360.416734 232.615086 
L 364.307241 233.272429 
L 368.197748 233.93546 
L 372.088255 234.545618 
L 375.978762 235.262003 
L 379.869269 236.007817 
L 383.759776 236.617699 
L 387.650283 237.21778 
L 391.540791 237.913639 
L 395.431298 238.548681 
L 399.321805 239.166624 
L 403.212312 239.829245 
L 407.102819 240.398694 
L 410.993326 240.986722 
L 414.883833 241.58513 
L 418.77434 242.174035 
L 422.664847 242.745772 
L 426.555354 243.049916 
L 426.555354 235.153552 
L 426.555354 235.153552 
L 422.664847 234.813875 
L 418.77434 234.203291 
L 414.883833 233.538529 
L 410.993326 232.905353 
L 407.102819 232.139488 
L 403.212312 231.450173 
L 399.321805 230.719829 
L 395.431298 229.978783 
L 391.540791 229.200476 
L 387.650283 228.518659 
L 383.759776 227.797123 
L 379.869269 227.114268 
L 375.978762 226.399168 
L 372.088255 225.63935 
L 368.197748 225.011129 
L 364.307241 224.349146 
L 360.416734 223.672981 
L 356.526227 222.919273 
L 352.63572 222.114247 
L 348.745213 221.466763 
L 344.854706 220.752329 
L 340.964198 220.153276 
L 337.073691 219.441462 
L 333.183184 218.676486 
L 329.292677 217.992621 
L 325.40217 217.245961 
L 321.511663 216.538709 
L 317.621156 215.71415 
L 313.730649 215.040691 
L 309.840142 214.415865 
L 305.949635 213.883548 
L 302.059128 213.288988 
L 298.16862 212.509647 
L 294.278113 211.873455 
L 290.387606 211.282342 
L 286.497099 210.671824 
L 282.606592 210.02985 
L 278.716085 209.249867 
L 274.825578 208.578885 
L 270.935071 208.00591 
L 267.044564 207.324215 
L 263.154057 206.818686 
L 259.26355 206.228891 
L 255.373043 205.692739 
L 251.482535 205.124003 
L 247.592028 204.707147 
L 243.701521 204.012448 
L 239.811014 203.590745 
L 235.920507 203.102178 
L 232.03 202.662568 
L 228.139493 202.178051 
L 224.248986 201.785654 
L 220.358479 201.261544 
L 216.467972 200.777773 
L 212.577465 200.44141 
L 208.686957 199.985774 
L 204.79645 199.520348 
L 200.905943 199.15227 
L 197.015436 198.666643 
L 193.124929 198.211641 
L 189.234422 197.587747 
L 185.343915 197.320327 
L 181.453408 196.936857 
L 177.562901 196.599419 
L 173.672394 196.229836 
L 169.781887 195.74122 
L 165.89138 195.29492 
L 162.000872 195.1165 
L 158.110365 194.836655 
L 154.219858 194.443212 
L 150.329351 194.132553 
L 146.438844 193.840886 
L 142.548337 193.548549 
L 138.65783 193.293288 
L 134.767323 193.015682 
L 130.876816 192.608944 
L 126.986309 192.31615 
L 123.095802 191.961332 
L 119.205294 191.922087 
L 115.314787 191.614456 
L 111.42428 191.64321 
L 107.533773 191.422489 
L 103.643266 191.282257 
L 99.752759 191.161953 
L 95.862252 191.240228 
L 91.971745 191.320072 
L 88.081238 191.751841 
L 84.190731 192.121357 
L 80.300224 192.684691 
L 76.409717 193.374721 
L 72.519209 194.592886 
L 68.628702 196.092507 
L 64.738195 197.959766 
L 60.847688 200.522226 
L 56.957181 203.708174 
L 53.066674 208.510773 
L 49.176167 214.864512 
L 45.28566 223.903207 
L 41.395153 236.647054 
L 37.504646 258.494512 
z
" style="fill:#ffa500;fill-opacity:0.3;"/>
   </g>
   <g id="line2d_13">
    <path clip-path="url(#ped6378c512)" d="M 37.504646 258.494512 
L 41.395153 240.047081 
L 45.28566 227.702362 
L 49.176167 218.811174 
L 53.066674 212.34833 
L 56.957181 207.572332 
L 60.847688 204.236863 
L 64.738195 201.60552 
L 68.628702 199.754746 
L 72.519209 198.23013 
L 76.409717 197.018082 
L 80.300224 196.296119 
L 84.190731 195.722795 
L 88.081238 195.376253 
L 91.971745 195.039053 
L 95.862252 194.940527 
L 99.752759 194.82841 
L 103.643266 194.93628 
L 107.533773 195.078124 
L 111.42428 195.29896 
L 115.314787 195.456093 
L 119.205294 195.642105 
L 123.095802 195.755071 
L 126.986309 196.035362 
L 130.876816 196.370863 
L 134.767323 196.669841 
L 138.65783 196.943337 
L 142.548337 197.283934 
L 146.438844 197.619434 
L 150.329351 197.898877 
L 154.219858 198.287038 
L 158.110365 198.611497 
L 162.000872 198.946148 
L 165.89138 199.271456 
L 169.781887 199.719922 
L 173.672394 200.145456 
L 177.562901 200.506437 
L 181.453408 200.942163 
L 185.343915 201.308241 
L 189.234422 201.612315 
L 193.124929 202.182241 
L 197.015436 202.635804 
L 200.905943 203.105504 
L 204.79645 203.553971 
L 208.686957 204.085675 
L 212.577465 204.551979 
L 216.467972 204.997897 
L 220.358479 205.520259 
L 224.248986 206.024783 
L 228.139493 206.450317 
L 232.03 206.939553 
L 235.920507 207.406706 
L 239.811014 207.916327 
L 243.701521 208.436989 
L 247.592028 209.043438 
L 251.482535 209.495302 
L 255.373043 210.04909 
L 259.26355 210.634305 
L 263.154057 211.265386 
L 267.044564 211.842956 
L 270.935071 212.55048 
L 274.825578 213.170519 
L 278.716085 213.76083 
L 282.606592 214.475149 
L 286.497099 215.096886 
L 290.387606 215.766189 
L 294.278113 216.373487 
L 298.16862 216.989279 
L 302.059128 217.733326 
L 305.949635 218.335528 
L 309.840142 218.981048 
L 313.730649 219.703011 
L 317.621156 220.348531 
L 321.511663 221.125703 
L 325.40217 221.784813 
L 329.292677 222.499981 
L 333.183184 223.182023 
L 337.073691 223.916727 
L 340.964198 224.58518 
L 344.854706 225.272319 
L 348.745213 225.985788 
L 352.63572 226.641501 
L 356.526227 227.431413 
L 360.416734 228.144033 
L 364.307241 228.810787 
L 368.197748 229.473295 
L 372.088255 230.092484 
L 375.978762 230.830585 
L 379.869269 231.561042 
L 383.759776 232.207411 
L 387.650283 232.86822 
L 391.540791 233.557058 
L 395.431298 234.263732 
L 399.321805 234.943227 
L 403.212312 235.639709 
L 407.102819 236.269091 
L 410.993326 236.946037 
L 414.883833 237.561829 
L 418.77434 238.188663 
L 422.664847 238.779823 
L 426.555354 239.101734 
" style="fill:none;stroke:#ffa500;stroke-linecap:round;"/>
   </g>
   <g id="PolyCollection_4">
    <path clip-path="url(#ped6378c512)" d="M 37.504646 258.494512 
L 37.504646 258.494512 
L 41.395153 258.685354 
L 45.28566 257.974627 
L 49.176167 256.743065 
L 53.066674 254.97331 
L 56.957181 253.052964 
L 60.847688 250.71561 
L 64.738195 248.207082 
L 68.628702 245.53476 
L 72.519209 242.837138 
L 76.409717 240.125609 
L 80.300224 237.24199 
L 84.190731 234.399657 
L 88.081238 231.404571 
L 91.971745 228.497853 
L 95.862252 225.468508 
L 99.752759 222.598364 
L 103.643266 219.538838 
L 107.533773 216.503896 
L 111.42428 213.441501 
L 115.314787 210.486959 
L 119.205294 207.387252 
L 123.095802 204.433757 
L 126.986309 201.271882 
L 130.876816 198.238393 
L 134.767323 195.169138 
L 138.65783 192.194262 
L 142.548337 189.187949 
L 146.438844 186.202973 
L 150.329351 183.264146 
L 154.219858 180.35967 
L 158.110365 177.441154 
L 162.000872 174.388592 
L 165.89138 171.699953 
L 169.781887 168.854355 
L 173.672394 165.926211 
L 177.562901 163.066831 
L 181.453408 160.293424 
L 185.343915 157.45156 
L 189.234422 154.605177 
L 193.124929 151.762352 
L 197.015436 148.960364 
L 200.905943 146.221232 
L 204.79645 143.556639 
L 208.686957 140.791661 
L 212.577465 138.078755 
L 216.467972 135.403838 
L 220.358479 132.60412 
L 224.248986 129.941361 
L 228.139493 127.309978 
L 232.03 124.839111 
L 235.920507 122.282688 
L 239.811014 119.719522 
L 243.701521 117.260913 
L 247.592028 114.704471 
L 251.482535 112.344308 
L 255.373043 109.907957 
L 259.26355 107.484064 
L 263.154057 105.071563 
L 267.044564 102.663083 
L 270.935071 100.358063 
L 274.825578 98.100568 
L 278.716085 95.794109 
L 282.606592 93.519434 
L 286.497099 91.358082 
L 290.387606 89.264347 
L 294.278113 87.157355 
L 298.16862 85.090225 
L 302.059128 82.961964 
L 305.949635 80.987557 
L 309.840142 78.954172 
L 313.730649 76.937372 
L 317.621156 74.900069 
L 321.511663 72.922626 
L 325.40217 71.032474 
L 329.292677 69.102086 
L 333.183184 67.283756 
L 337.073691 65.427579 
L 340.964198 63.635576 
L 344.854706 61.908043 
L 348.745213 60.221252 
L 352.63572 58.572642 
L 356.526227 56.850603 
L 360.416734 55.225274 
L 364.307241 53.593942 
L 368.197748 52.064594 
L 372.088255 50.560232 
L 375.978762 49.060379 
L 379.869269 47.606111 
L 383.759776 46.231792 
L 387.650283 44.772729 
L 391.540791 43.440943 
L 395.431298 42.042486 
L 399.321805 40.682786 
L 403.212312 39.334846 
L 407.102819 38.107021 
L 410.993326 36.88045 
L 414.883833 35.758585 
L 418.77434 34.633292 
L 422.664847 33.603601 
L 426.555354 33.071728 
L 426.555354 23.241999 
L 426.555354 23.241999 
L 422.664847 23.698791 
L 418.77434 24.539409 
L 414.883833 25.462793 
L 410.993326 26.442265 
L 407.102819 27.429147 
L 403.212312 28.481027 
L 399.321805 29.558883 
L 395.431298 30.630075 
L 391.540791 31.801806 
L 387.650283 33.055498 
L 383.759776 34.23797 
L 379.869269 35.484802 
L 375.978762 36.794379 
L 372.088255 38.145006 
L 368.197748 39.372212 
L 364.307241 40.793569 
L 360.416734 42.238649 
L 356.526227 43.689733 
L 352.63572 45.261544 
L 348.745213 46.806559 
L 344.854706 48.391535 
L 340.964198 50.020705 
L 337.073691 51.634669 
L 333.183184 53.320359 
L 329.292677 54.967451 
L 325.40217 56.708033 
L 321.511663 58.444684 
L 317.621156 60.245232 
L 313.730649 62.062361 
L 309.840142 64.051183 
L 305.949635 66.045502 
L 302.059128 67.976491 
L 298.16862 70.06959 
L 294.278113 72.084524 
L 290.387606 74.130943 
L 286.497099 76.299338 
L 282.606592 78.457874 
L 278.716085 80.684851 
L 274.825578 82.769627 
L 270.935071 85.017181 
L 267.044564 87.494104 
L 263.154057 89.74526 
L 259.26355 92.135087 
L 255.373043 94.53051 
L 251.482535 96.979725 
L 247.592028 99.527212 
L 243.701521 102.053391 
L 239.811014 104.466759 
L 235.920507 106.970924 
L 232.03 109.522602 
L 228.139493 112.163233 
L 224.248986 114.770755 
L 220.358479 117.411451 
L 216.467972 120.197179 
L 212.577465 122.946328 
L 208.686957 125.654091 
L 204.79645 128.573085 
L 200.905943 131.473554 
L 197.015436 134.309676 
L 193.124929 137.115217 
L 189.234422 140.026014 
L 185.343915 142.783763 
L 181.453408 145.709109 
L 177.562901 148.726695 
L 173.672394 151.787413 
L 169.781887 154.830329 
L 165.89138 157.808 
L 162.000872 160.830514 
L 158.110365 163.883211 
L 154.219858 166.844023 
L 150.329351 169.959869 
L 146.438844 172.985307 
L 142.548337 176.153154 
L 138.65783 179.372712 
L 134.767323 182.611815 
L 130.876816 185.70048 
L 126.986309 188.914944 
L 123.095802 192.150511 
L 119.205294 195.361731 
L 115.314787 198.564337 
L 111.42428 201.847557 
L 107.533773 205.163917 
L 103.643266 208.458468 
L 99.752759 211.798083 
L 95.862252 215.085859 
L 91.971745 218.611939 
L 88.081238 221.842757 
L 84.190731 225.173766 
L 80.300224 228.53352 
L 76.409717 231.80952 
L 72.519209 235.08434 
L 68.628702 238.342488 
L 64.738195 241.590263 
L 60.847688 244.718144 
L 56.957181 247.633283 
L 53.066674 250.535651 
L 49.176167 253.243766 
L 45.28566 255.511601 
L 41.395153 257.359171 
L 37.504646 258.494512 
z
" style="fill:#ff0000;fill-opacity:0.3;"/>
   </g>
   <g id="line2d_14">
    <path clip-path="url(#ped6378c512)" d="M 37.504646 258.494512 
L 41.395153 258.022263 
L 45.28566 256.743114 
L 49.176167 254.993415 
L 53.066674 252.75448 
L 56.957181 250.343124 
L 60.847688 247.716877 
L 64.738195 244.898673 
L 68.628702 241.938624 
L 72.519209 238.960739 
L 76.409717 235.967565 
L 80.300224 232.887755 
L 84.190731 229.786712 
L 88.081238 226.623664 
L 91.971745 223.554896 
L 95.862252 220.277184 
L 99.752759 217.198224 
L 103.643266 213.998653 
L 107.533773 210.833907 
L 111.42428 207.644529 
L 115.314787 204.525648 
L 119.205294 201.374492 
L 123.095802 198.292134 
L 126.986309 195.093413 
L 130.876816 191.969436 
L 134.767323 188.890476 
L 138.65783 185.783487 
L 142.548337 182.670552 
L 146.438844 179.59414 
L 150.329351 176.612008 
L 154.219858 173.601846 
L 158.110365 170.662182 
L 162.000872 167.609553 
L 165.89138 164.753976 
L 169.781887 161.842342 
L 173.672394 158.856812 
L 177.562901 155.896763 
L 181.453408 153.001267 
L 185.343915 150.117661 
L 189.234422 147.315595 
L 193.124929 144.438785 
L 197.015436 141.63502 
L 200.905943 138.847393 
L 204.79645 136.064862 
L 208.686957 133.222876 
L 212.577465 130.512542 
L 216.467972 127.800509 
L 220.358479 125.007786 
L 224.248986 122.356058 
L 228.139493 119.736606 
L 232.03 117.180856 
L 235.920507 114.626806 
L 239.811014 112.09314 
L 243.701521 109.657152 
L 247.592028 107.115842 
L 251.482535 104.662017 
L 255.373043 102.219233 
L 259.26355 99.809575 
L 263.154057 97.408411 
L 267.044564 95.078594 
L 270.935071 92.687622 
L 274.825578 90.435097 
L 278.716085 88.23948 
L 282.606592 85.988654 
L 286.497099 83.82871 
L 290.387606 81.697645 
L 294.278113 79.62094 
L 298.16862 77.579908 
L 302.059128 75.469227 
L 305.949635 73.51653 
L 309.840142 71.502677 
L 313.730649 69.499867 
L 317.621156 67.57265 
L 321.511663 65.683655 
L 325.40217 63.870254 
L 329.292677 62.034769 
L 333.183184 60.302057 
L 337.073691 58.531124 
L 340.964198 56.828141 
L 344.854706 55.149789 
L 348.745213 53.513906 
L 352.63572 51.917093 
L 356.526227 50.270168 
L 360.416734 48.731962 
L 364.307241 47.193756 
L 368.197748 45.718403 
L 372.088255 44.352619 
L 375.978762 42.927379 
L 379.869269 41.545456 
L 383.759776 40.234881 
L 387.650283 38.914113 
L 391.540791 37.621375 
L 395.431298 36.336281 
L 399.321805 35.120834 
L 403.212312 33.907936 
L 407.102819 32.768084 
L 410.993326 31.661357 
L 414.883833 30.610689 
L 418.77434 29.58635 
L 422.664847 28.651196 
L 426.555354 28.156864 
" style="fill:none;stroke:#ff0000;stroke-linecap:round;"/>
   </g>
   <g id="legend_1">
    <g id="patch_7">
     <path d="M 385.221604 155.445 
L 420.955354 155.445 
Q 422.555354 155.445 422.555354 153.845 
L 422.555354 107.675 
Q 422.555354 106.075 420.955354 106.075 
L 385.221604 106.075 
Q 383.621604 106.075 383.621604 107.675 
L 383.621604 153.845 
Q 383.621604 155.445 385.221604 155.445 
z
" style="fill:#ffffff;opacity:0.8;stroke:#000000;stroke-linejoin:miter;"/>
    </g>
    <g id="line2d_15">
     <path d="M 386.821604 112.55375 
L 402.821604 112.55375 
" style="fill:none;stroke:#0000ff;stroke-linecap:round;"/>
    </g>
    <g id="line2d_16"/>
    <g id="text_13">
     <!-- S -->
     <defs>
      <path d="M 53.515625 70.515625 
L 53.515625 60.890625 
Q 47.90625 63.578125 42.921875 64.890625 
Q 37.9375 66.21875 33.296875 66.21875 
Q 25.25 66.21875 20.875 63.09375 
Q 16.5 59.96875 16.5 54.203125 
Q 16.5 49.359375 19.40625 46.890625 
Q 22.3125 44.4375 30.421875 42.921875 
L 36.375 41.703125 
Q 47.40625 39.59375 52.65625 34.296875 
Q 57.90625 29 57.90625 20.125 
Q 57.90625 9.515625 50.796875 4.046875 
Q 43.703125 -1.421875 29.984375 -1.421875 
Q 24.8125 -1.421875 18.96875 -0.25 
Q 13.140625 0.921875 6.890625 3.21875 
L 6.890625 13.375 
Q 12.890625 10.015625 18.65625 8.296875 
Q 24.421875 6.59375 29.984375 6.59375 
Q 38.421875 6.59375 43.015625 9.90625 
Q 47.609375 13.234375 47.609375 19.390625 
Q 47.609375 24.75 44.3125 27.78125 
Q 41.015625 30.8125 33.5 32.328125 
L 27.484375 33.5 
Q 16.453125 35.6875 11.515625 40.375 
Q 6.59375 45.0625 6.59375 53.421875 
Q 6.59375 63.09375 13.40625 68.65625 
Q 20.21875 74.21875 32.171875 74.21875 
Q 37.3125 74.21875 42.625 73.28125 
Q 47.953125 72.359375 53.515625 70.515625 
z
" id="DejaVuSans-53"/>
     </defs>
     <g transform="translate(409.221604 115.35375)scale(0.08 -0.08)">
      <use xlink:href="#DejaVuSans-53"/>
     </g>
    </g>
    <g id="line2d_17">
     <path d="M 386.821604 124.29625 
L 402.821604 124.29625 
" style="fill:none;stroke:#008000;stroke-linecap:round;"/>
    </g>
    <g id="line2d_18"/>
    <g id="text_14">
     <!-- E -->
     <defs>
      <path d="M 9.8125 72.90625 
L 55.90625 72.90625 
L 55.90625 64.59375 
L 19.671875 64.59375 
L 19.671875 43.015625 
L 54.390625 43.015625 
L 54.390625 34.71875 
L 19.671875 34.71875 
L 19.671875 8.296875 
L 56.78125 8.296875 
L 56.78125 0 
L 9.8125 0 
z
" id="DejaVuSans-45"/>
     </defs>
     <g transform="translate(409.221604 127.09625)scale(0.08 -0.08)">
      <use xlink:href="#DejaVuSans-45"/>
     </g>
    </g>
    <g id="line2d_19">
     <path d="M 386.821604 136.03875 
L 402.821604 136.03875 
" style="fill:none;stroke:#ffa500;stroke-linecap:round;"/>
    </g>
    <g id="line2d_20"/>
    <g id="text_15">
     <!-- SE -->
     <g transform="translate(409.221604 138.83875)scale(0.08 -0.08)">
      <use xlink:href="#DejaVuSans-53"/>
      <use x="63.476562" xlink:href="#DejaVuSans-45"/>
     </g>
    </g>
    <g id="line2d_21">
     <path d="M 386.821604 147.78125 
L 402.821604 147.78125 
" style="fill:none;stroke:#ff0000;stroke-linecap:round;"/>
    </g>
    <g id="line2d_22"/>
    <g id="text_16">
     <!-- P -->
     <defs>
      <path d="M 19.671875 64.796875 
L 19.671875 37.40625 
L 32.078125 37.40625 
Q 38.96875 37.40625 42.71875 40.96875 
Q 46.484375 44.53125 46.484375 51.125 
Q 46.484375 57.671875 42.71875 61.234375 
Q 38.96875 64.796875 32.078125 64.796875 
z
M 9.8125 72.90625 
L 32.078125 72.90625 
Q 44.34375 72.90625 50.609375 67.359375 
Q 56.890625 61.8125 56.890625 51.125 
Q 56.890625 40.328125 50.609375 34.8125 
Q 44.34375 29.296875 32.078125 29.296875 
L 19.671875 29.296875 
L 19.671875 0 
L 9.8125 0 
z
" id="DejaVuSans-50"/>
     </defs>
     <g transform="translate(409.221604 150.58125)scale(0.08 -0.08)">
      <use xlink:href="#DejaVuSans-50"/>
     </g>
    </g>
   </g>
  </g>
 </g>
 <defs>
  <clipPath id="ped6378c512">
   <rect height="255.850709" width="389.050709" x="37.504646" y="2.834646"/>
  </clipPath>
 </defs>
</svg>
