<?xml version="1.0" encoding="utf-8" standalone="no"?>
<!DOCTYPE svg PUBLIC "-//W3C//DTD SVG 1.1//EN"
  "http://www.w3.org/Graphics/SVG/1.1/DTD/svg11.dtd">
<!-- Created with matplotlib (http://matplotlib.org/) -->
<svg height="288pt" version="1.1" viewBox="0 0 432 288" width="432pt" xmlns="http://www.w3.org/2000/svg" xmlns:xlink="http://www.w3.org/1999/xlink">
 <defs>
  <style type="text/css">
*{stroke-linecap:butt;stroke-linejoin:round;}
  </style>
 </defs>
 <g id="figure_1">
  <g id="patch_1">
   <path d="M 0 288 
L 432 288 
L 432 0 
L 0 0 
z
" style="fill:#ffffff;"/>
  </g>
  <g id="axes_1">
   <g id="patch_2">
    <path d="M 37.504646 258.685354 
L 426.555354 258.685354 
L 426.555354 2.834646 
L 37.504646 2.834646 
z
" style="fill:#ffffff;"/>
   </g>
   <g id="PolyCollection_1">
    <path clip-path="url(#p817022f553)" d="M 37.504646 2.834646 
L 37.504646 2.834646 
L 41.395153 25.201125 
L 45.28566 39.501417 
L 49.176167 50.571877 
L 53.066674 59.245753 
L 56.957181 66.058544 
L 60.847688 72.251582 
L 64.738195 77.470138 
L 68.628702 82.425019 
L 72.519209 86.754634 
L 76.409717 90.72538 
L 80.300224 94.727095 
L 84.190731 98.465102 
L 88.081238 102.073343 
L 91.971745 105.457075 
L 95.862252 108.803522 
L 99.752759 112.138152 
L 103.643266 115.523569 
L 107.533773 118.68549 
L 111.42428 121.829348 
L 115.314787 124.93368 
L 119.205294 127.98826 
L 123.095802 130.996226 
L 126.986309 133.892674 
L 130.876816 136.775537 
L 134.767323 139.601692 
L 138.65783 142.446249 
L 142.548337 145.246055 
L 146.438844 148.218541 
L 150.329351 150.95134 
L 154.219858 153.706357 
L 158.110365 156.324637 
L 162.000872 159.12307 
L 165.89138 161.719204 
L 169.781887 164.270969 
L 173.672394 166.953844 
L 177.562901 169.557005 
L 181.453408 172.105966 
L 185.343915 174.622461 
L 189.234422 177.158944 
L 193.124929 179.639526 
L 197.015436 182.011025 
L 200.905943 184.449743 
L 204.79645 186.749369 
L 208.686957 188.975671 
L 212.577465 191.207177 
L 216.467972 193.397871 
L 220.358479 195.513974 
L 224.248986 197.636956 
L 228.139493 199.838308 
L 232.03 201.906516 
L 235.920507 203.917985 
L 239.811014 205.874857 
L 243.701521 207.790567 
L 247.592028 209.687297 
L 251.482535 211.522814 
L 255.373043 213.264616 
L 259.26355 215.049333 
L 263.154057 216.799717 
L 267.044564 218.439035 
L 270.935071 220.069996 
L 274.825578 221.667856 
L 278.716085 223.199196 
L 282.606592 224.779245 
L 286.497099 226.254964 
L 290.387606 227.706004 
L 294.278113 229.223407 
L 298.16862 230.611323 
L 302.059128 231.964285 
L 305.949635 233.180247 
L 309.840142 234.423409 
L 313.730649 235.614608 
L 317.621156 236.745147 
L 321.511663 237.805039 
L 325.40217 238.903799 
L 329.292677 239.971227 
L 333.183184 241.007716 
L 337.073691 241.997365 
L 340.964198 242.915092 
L 344.854706 243.781151 
L 348.745213 244.714547 
L 352.63572 245.581777 
L 356.526227 246.341272 
L 360.416734 246.996469 
L 364.307241 247.690541 
L 368.197748 248.390706 
L 372.088255 249.048025 
L 375.978762 249.684888 
L 379.869269 250.306044 
L 383.759776 250.874469 
L 387.650283 251.438066 
L 391.540791 251.973626 
L 395.431298 252.471672 
L 399.321805 252.938284 
L 403.212312 253.335703 
L 407.102819 253.704521 
L 410.993326 254.075889 
L 414.883833 254.396319 
L 418.77434 254.67827 
L 422.664847 254.969416 
L 426.555354 255.113013 
L 426.555354 250.306929 
L 426.555354 250.306929 
L 422.664847 250.037662 
L 418.77434 249.605021 
L 414.883833 249.134302 
L 410.993326 248.605217 
L 407.102819 248.020032 
L 403.212312 247.483268 
L 399.321805 246.883358 
L 395.431298 246.269387 
L 391.540791 245.6002 
L 387.650283 244.927751 
L 383.759776 244.128726 
L 379.869269 243.443268 
L 375.978762 242.662726 
L 372.088255 241.835025 
L 368.197748 241.029481 
L 364.307241 240.185228 
L 360.416734 239.280514 
L 356.526227 238.357313 
L 352.63572 237.3821 
L 348.745213 236.455156 
L 344.854706 235.381998 
L 340.964198 234.367233 
L 337.073691 233.241028 
L 333.183184 231.998152 
L 329.292677 230.802118 
L 325.40217 229.579254 
L 321.511663 228.275588 
L 317.621156 226.994218 
L 313.730649 225.666263 
L 309.840142 224.285132 
L 305.949635 222.862518 
L 302.059128 221.431393 
L 298.16862 220.008141 
L 294.278113 218.429553 
L 290.387606 216.887005 
L 286.497099 215.254308 
L 282.606592 213.678571 
L 278.716085 211.991387 
L 274.825578 210.250398 
L 270.935071 208.518161 
L 267.044564 206.696696 
L 263.154057 204.854703 
L 259.26355 203.028631 
L 255.373043 201.157038 
L 251.482535 199.274812 
L 247.592028 197.304504 
L 243.701521 195.293468 
L 239.811014 193.432237 
L 235.920507 191.466052 
L 232.03 189.408347 
L 228.139493 187.195001 
L 224.248986 185.157276 
L 220.358479 182.935841 
L 216.467972 180.816266 
L 212.577465 178.604775 
L 208.686957 176.461282 
L 204.79645 174.073022 
L 200.905943 171.790368 
L 197.015436 169.529571 
L 193.124929 167.162479 
L 189.234422 164.826314 
L 185.343915 162.376148 
L 181.453408 159.933178 
L 177.562901 157.362964 
L 173.672394 154.875835 
L 169.781887 152.312109 
L 165.89138 149.743 
L 162.000872 147.345689 
L 158.110365 144.91621 
L 154.219858 142.354151 
L 150.329351 139.818392 
L 146.438844 137.029347 
L 142.548337 134.330475 
L 138.65783 131.545574 
L 134.767323 128.924354 
L 130.876816 126.199782 
L 126.986309 123.489442 
L 123.095802 120.726425 
L 119.205294 117.901625 
L 115.314787 114.975623 
L 111.42428 112.119762 
L 107.533773 109.281339 
L 103.643266 106.263893 
L 99.752759 103.159019 
L 95.862252 100.091708 
L 91.971745 96.873107 
L 88.081238 93.545676 
L 84.190731 90.138627 
L 80.300224 86.579305 
L 76.409717 82.826652 
L 72.519209 78.667545 
L 68.628702 74.238666 
L 64.738195 69.492093 
L 60.847688 64.137592 
L 56.957181 57.932816 
L 53.066674 50.611386 
L 49.176167 42.176041 
L 45.28566 31.633155 
L 41.395153 18.438063 
L 37.504646 2.834646 
z
" style="fill:#0000ff;fill-opacity:0.3;"/>
   </g>
   <g id="line2d_1">
    <path clip-path="url(#p817022f553)" d="M 37.504646 2.834646 
L 41.395153 21.819594 
L 45.28566 35.567286 
L 49.176167 46.373959 
L 53.066674 54.92857 
L 56.957181 61.99568 
L 60.847688 68.194587 
L 64.738195 73.481115 
L 68.628702 78.331843 
L 72.519209 82.711089 
L 76.409717 86.776016 
L 80.300224 90.6532 
L 84.190731 94.301864 
L 88.081238 97.809509 
L 91.971745 101.165091 
L 95.862252 104.447615 
L 99.752759 107.648586 
L 103.643266 110.893731 
L 107.533773 113.983415 
L 111.42428 116.974555 
L 115.314787 119.954652 
L 119.205294 122.944942 
L 123.095802 125.861325 
L 126.986309 128.691058 
L 130.876816 131.48766 
L 134.767323 134.263023 
L 138.65783 136.995911 
L 142.548337 139.788265 
L 146.438844 142.623944 
L 150.329351 145.384866 
L 154.219858 148.030254 
L 158.110365 150.620424 
L 162.000872 153.234379 
L 165.89138 155.731102 
L 169.781887 158.291539 
L 173.672394 160.914839 
L 177.562901 163.459985 
L 181.453408 166.019572 
L 185.343915 168.499304 
L 189.234422 170.992629 
L 193.124929 173.401002 
L 197.015436 175.770298 
L 200.905943 178.120055 
L 204.79645 180.411196 
L 208.686957 182.718477 
L 212.577465 184.905976 
L 216.467972 187.107068 
L 220.358479 189.224908 
L 224.248986 191.397116 
L 228.139493 193.516655 
L 232.03 195.657431 
L 235.920507 197.692018 
L 239.811014 199.653547 
L 243.701521 201.542017 
L 247.592028 203.495901 
L 251.482535 205.398813 
L 255.373043 207.210827 
L 259.26355 209.038982 
L 263.154057 210.82721 
L 267.044564 212.567865 
L 270.935071 214.294079 
L 274.825578 215.959127 
L 278.716085 217.595292 
L 282.606592 219.228908 
L 286.497099 220.754636 
L 290.387606 222.296505 
L 294.278113 223.82648 
L 298.16862 225.309732 
L 302.059128 226.697839 
L 305.949635 228.021382 
L 309.840142 229.35427 
L 313.730649 230.640435 
L 317.621156 231.869683 
L 321.511663 233.040314 
L 325.40217 234.241527 
L 329.292677 235.386672 
L 333.183184 236.502934 
L 337.073691 237.619196 
L 340.964198 238.641162 
L 344.854706 239.581575 
L 348.745213 240.584851 
L 352.63572 241.481938 
L 356.526227 242.349293 
L 360.416734 243.138492 
L 364.307241 243.937885 
L 368.197748 244.710093 
L 372.088255 245.441525 
L 375.978762 246.173807 
L 379.869269 246.874656 
L 383.759776 247.501598 
L 387.650283 248.182908 
L 391.540791 248.786913 
L 395.431298 249.370529 
L 399.321805 249.910821 
L 403.212312 250.409486 
L 407.102819 250.862277 
L 410.993326 251.340553 
L 414.883833 251.765311 
L 418.77434 252.141645 
L 422.664847 252.503539 
L 426.555354 252.709971 
" style="fill:none;stroke:#0000ff;stroke-linecap:round;"/>
   </g>
   <g id="matplotlib.axis_1">
    <g id="xtick_1">
     <g id="line2d_2">
      <defs>
       <path d="M 0 0 
L 0 3.5 
" id="m74dec76b9d" style="stroke:#000000;stroke-width:0.8;"/>
      </defs>
      <g>
       <use style="stroke:#000000;stroke-width:0.8;" x="37.504646" xlink:href="#m74dec76b9d" y="258.685354"/>
      </g>
     </g>
     <g id="text_1">
      <!-- 0 -->
      <defs>
       <path d="M 31.78125 66.40625 
Q 24.171875 66.40625 20.328125 58.90625 
Q 16.5 51.421875 16.5 36.375 
Q 16.5 21.390625 20.328125 13.890625 
Q 24.171875 6.390625 31.78125 6.390625 
Q 39.453125 6.390625 43.28125 13.890625 
Q 47.125 21.390625 47.125 36.375 
Q 47.125 51.421875 43.28125 58.90625 
Q 39.453125 66.40625 31.78125 66.40625 
z
M 31.78125 74.21875 
Q 44.046875 74.21875 50.515625 64.515625 
Q 56.984375 54.828125 56.984375 36.375 
Q 56.984375 17.96875 50.515625 8.265625 
Q 44.046875 -1.421875 31.78125 -1.421875 
Q 19.53125 -1.421875 13.0625 8.265625 
Q 6.59375 17.96875 6.59375 36.375 
Q 6.59375 54.828125 13.0625 64.515625 
Q 19.53125 74.21875 31.78125 74.21875 
z
" id="DejaVuSans-30"/>
      </defs>
      <g transform="translate(34.959646 271.764104)scale(0.08 -0.08)">
       <use xlink:href="#DejaVuSans-30"/>
      </g>
     </g>
    </g>
    <g id="xtick_2">
     <g id="line2d_3">
      <g>
       <use style="stroke:#000000;stroke-width:0.8;" x="115.314787" xlink:href="#m74dec76b9d" y="258.685354"/>
      </g>
     </g>
     <g id="text_2">
      <!-- 10 -->
      <defs>
       <path d="M 12.40625 8.296875 
L 28.515625 8.296875 
L 28.515625 63.921875 
L 10.984375 60.40625 
L 10.984375 69.390625 
L 28.421875 72.90625 
L 38.28125 72.90625 
L 38.28125 8.296875 
L 54.390625 8.296875 
L 54.390625 0 
L 12.40625 0 
z
" id="DejaVuSans-31"/>
      </defs>
      <g transform="translate(110.224787 271.764104)scale(0.08 -0.08)">
       <use xlink:href="#DejaVuSans-31"/>
       <use x="63.623047" xlink:href="#DejaVuSans-30"/>
      </g>
     </g>
    </g>
    <g id="xtick_3">
     <g id="line2d_4">
      <g>
       <use style="stroke:#000000;stroke-width:0.8;" x="193.124929" xlink:href="#m74dec76b9d" y="258.685354"/>
      </g>
     </g>
     <g id="text_3">
      <!-- 20 -->
      <defs>
       <path d="M 19.1875 8.296875 
L 53.609375 8.296875 
L 53.609375 0 
L 7.328125 0 
L 7.328125 8.296875 
Q 12.9375 14.109375 22.625 23.890625 
Q 32.328125 33.6875 34.8125 36.53125 
Q 39.546875 41.84375 41.421875 45.53125 
Q 43.3125 49.21875 43.3125 52.78125 
Q 43.3125 58.59375 39.234375 62.25 
Q 35.15625 65.921875 28.609375 65.921875 
Q 23.96875 65.921875 18.8125 64.3125 
Q 13.671875 62.703125 7.8125 59.421875 
L 7.8125 69.390625 
Q 13.765625 71.78125 18.9375 73 
Q 24.125 74.21875 28.421875 74.21875 
Q 39.75 74.21875 46.484375 68.546875 
Q 53.21875 62.890625 53.21875 53.421875 
Q 53.21875 48.921875 51.53125 44.890625 
Q 49.859375 40.875 45.40625 35.40625 
Q 44.1875 33.984375 37.640625 27.21875 
Q 31.109375 20.453125 19.1875 8.296875 
z
" id="DejaVuSans-32"/>
      </defs>
      <g transform="translate(188.034929 271.764104)scale(0.08 -0.08)">
       <use xlink:href="#DejaVuSans-32"/>
       <use x="63.623047" xlink:href="#DejaVuSans-30"/>
      </g>
     </g>
    </g>
    <g id="xtick_4">
     <g id="line2d_5">
      <g>
       <use style="stroke:#000000;stroke-width:0.8;" x="270.935071" xlink:href="#m74dec76b9d" y="258.685354"/>
      </g>
     </g>
     <g id="text_4">
      <!-- 30 -->
      <defs>
       <path d="M 40.578125 39.3125 
Q 47.65625 37.796875 51.625 33 
Q 55.609375 28.21875 55.609375 21.1875 
Q 55.609375 10.40625 48.1875 4.484375 
Q 40.765625 -1.421875 27.09375 -1.421875 
Q 22.515625 -1.421875 17.65625 -0.515625 
Q 12.796875 0.390625 7.625 2.203125 
L 7.625 11.71875 
Q 11.71875 9.328125 16.59375 8.109375 
Q 21.484375 6.890625 26.8125 6.890625 
Q 36.078125 6.890625 40.9375 10.546875 
Q 45.796875 14.203125 45.796875 21.1875 
Q 45.796875 27.640625 41.28125 31.265625 
Q 36.765625 34.90625 28.71875 34.90625 
L 20.21875 34.90625 
L 20.21875 43.015625 
L 29.109375 43.015625 
Q 36.375 43.015625 40.234375 45.921875 
Q 44.09375 48.828125 44.09375 54.296875 
Q 44.09375 59.90625 40.109375 62.90625 
Q 36.140625 65.921875 28.71875 65.921875 
Q 24.65625 65.921875 20.015625 65.03125 
Q 15.375 64.15625 9.8125 62.3125 
L 9.8125 71.09375 
Q 15.4375 72.65625 20.34375 73.4375 
Q 25.25 74.21875 29.59375 74.21875 
Q 40.828125 74.21875 47.359375 69.109375 
Q 53.90625 64.015625 53.90625 55.328125 
Q 53.90625 49.265625 50.4375 45.09375 
Q 46.96875 40.921875 40.578125 39.3125 
z
" id="DejaVuSans-33"/>
      </defs>
      <g transform="translate(265.845071 271.764104)scale(0.08 -0.08)">
       <use xlink:href="#DejaVuSans-33"/>
       <use x="63.623047" xlink:href="#DejaVuSans-30"/>
      </g>
     </g>
    </g>
    <g id="xtick_5">
     <g id="line2d_6">
      <g>
       <use style="stroke:#000000;stroke-width:0.8;" x="348.745213" xlink:href="#m74dec76b9d" y="258.685354"/>
      </g>
     </g>
     <g id="text_5">
      <!-- 40 -->
      <defs>
       <path d="M 37.796875 64.3125 
L 12.890625 25.390625 
L 37.796875 25.390625 
z
M 35.203125 72.90625 
L 47.609375 72.90625 
L 47.609375 25.390625 
L 58.015625 25.390625 
L 58.015625 17.1875 
L 47.609375 17.1875 
L 47.609375 0 
L 37.796875 0 
L 37.796875 17.1875 
L 4.890625 17.1875 
L 4.890625 26.703125 
z
" id="DejaVuSans-34"/>
      </defs>
      <g transform="translate(343.655213 271.764104)scale(0.08 -0.08)">
       <use xlink:href="#DejaVuSans-34"/>
       <use x="63.623047" xlink:href="#DejaVuSans-30"/>
      </g>
     </g>
    </g>
    <g id="xtick_6">
     <g id="line2d_7">
      <g>
       <use style="stroke:#000000;stroke-width:0.8;" x="426.555354" xlink:href="#m74dec76b9d" y="258.685354"/>
      </g>
     </g>
     <g id="text_6">
      <!-- 50 -->
      <defs>
       <path d="M 10.796875 72.90625 
L 49.515625 72.90625 
L 49.515625 64.59375 
L 19.828125 64.59375 
L 19.828125 46.734375 
Q 21.96875 47.46875 24.109375 47.828125 
Q 26.265625 48.1875 28.421875 48.1875 
Q 40.625 48.1875 47.75 41.5 
Q 54.890625 34.8125 54.890625 23.390625 
Q 54.890625 11.625 47.5625 5.09375 
Q 40.234375 -1.421875 26.90625 -1.421875 
Q 22.3125 -1.421875 17.546875 -0.640625 
Q 12.796875 0.140625 7.71875 1.703125 
L 7.71875 11.625 
Q 12.109375 9.234375 16.796875 8.0625 
Q 21.484375 6.890625 26.703125 6.890625 
Q 35.15625 6.890625 40.078125 11.328125 
Q 45.015625 15.765625 45.015625 23.390625 
Q 45.015625 31 40.078125 35.4375 
Q 35.15625 39.890625 26.703125 39.890625 
Q 22.75 39.890625 18.8125 39.015625 
Q 14.890625 38.140625 10.796875 36.28125 
z
" id="DejaVuSans-35"/>
      </defs>
      <g transform="translate(421.465354 271.764104)scale(0.08 -0.08)">
       <use xlink:href="#DejaVuSans-35"/>
       <use x="63.623047" xlink:href="#DejaVuSans-30"/>
      </g>
     </g>
    </g>
    <g id="text_7">
     <!-- time -->
     <defs>
      <path d="M 18.3125 70.21875 
L 18.3125 54.6875 
L 36.8125 54.6875 
L 36.8125 47.703125 
L 18.3125 47.703125 
L 18.3125 18.015625 
Q 18.3125 11.328125 20.140625 9.421875 
Q 21.96875 7.515625 27.59375 7.515625 
L 36.8125 7.515625 
L 36.8125 0 
L 27.59375 0 
Q 17.1875 0 13.234375 3.875 
Q 9.28125 7.765625 9.28125 18.015625 
L 9.28125 47.703125 
L 2.6875 47.703125 
L 2.6875 54.6875 
L 9.28125 54.6875 
L 9.28125 70.21875 
z
" id="DejaVuSans-74"/>
      <path d="M 9.421875 54.6875 
L 18.40625 54.6875 
L 18.40625 0 
L 9.421875 0 
z
M 9.421875 75.984375 
L 18.40625 75.984375 
L 18.40625 64.59375 
L 9.421875 64.59375 
z
" id="DejaVuSans-69"/>
      <path d="M 52 44.1875 
Q 55.375 50.25 60.0625 53.125 
Q 64.75 56 71.09375 56 
Q 79.640625 56 84.28125 50.015625 
Q 88.921875 44.046875 88.921875 33.015625 
L 88.921875 0 
L 79.890625 0 
L 79.890625 32.71875 
Q 79.890625 40.578125 77.09375 44.375 
Q 74.3125 48.1875 68.609375 48.1875 
Q 61.625 48.1875 57.5625 43.546875 
Q 53.515625 38.921875 53.515625 30.90625 
L 53.515625 0 
L 44.484375 0 
L 44.484375 32.71875 
Q 44.484375 40.625 41.703125 44.40625 
Q 38.921875 48.1875 33.109375 48.1875 
Q 26.21875 48.1875 22.15625 43.53125 
Q 18.109375 38.875 18.109375 30.90625 
L 18.109375 0 
L 9.078125 0 
L 9.078125 54.6875 
L 18.109375 54.6875 
L 18.109375 46.1875 
Q 21.1875 51.21875 25.484375 53.609375 
Q 29.78125 56 35.6875 56 
Q 41.65625 56 45.828125 52.96875 
Q 50 49.953125 52 44.1875 
z
" id="DejaVuSans-6d"/>
      <path d="M 56.203125 29.59375 
L 56.203125 25.203125 
L 14.890625 25.203125 
Q 15.484375 15.921875 20.484375 11.0625 
Q 25.484375 6.203125 34.421875 6.203125 
Q 39.59375 6.203125 44.453125 7.46875 
Q 49.3125 8.734375 54.109375 11.28125 
L 54.109375 2.78125 
Q 49.265625 0.734375 44.1875 -0.34375 
Q 39.109375 -1.421875 33.890625 -1.421875 
Q 20.796875 -1.421875 13.15625 6.1875 
Q 5.515625 13.8125 5.515625 26.8125 
Q 5.515625 40.234375 12.765625 48.109375 
Q 20.015625 56 32.328125 56 
Q 43.359375 56 49.78125 48.890625 
Q 56.203125 41.796875 56.203125 29.59375 
z
M 47.21875 32.234375 
Q 47.125 39.59375 43.09375 43.984375 
Q 39.0625 48.390625 32.421875 48.390625 
Q 24.90625 48.390625 20.390625 44.140625 
Q 15.875 39.890625 15.1875 32.171875 
z
" id="DejaVuSans-65"/>
     </defs>
     <g transform="translate(219.604297 285.786136)scale(0.11 -0.11)">
      <use xlink:href="#DejaVuSans-74"/>
      <use x="39.208984" xlink:href="#DejaVuSans-69"/>
      <use x="66.992188" xlink:href="#DejaVuSans-6d"/>
      <use x="164.404297" xlink:href="#DejaVuSans-65"/>
     </g>
    </g>
   </g>
   <g id="matplotlib.axis_2">
    <g id="ytick_1">
     <g id="line2d_8">
      <defs>
       <path d="M 0 0 
L -3.5 0 
" id="m87871274cb" style="stroke:#000000;stroke-width:0.8;"/>
      </defs>
      <g>
       <use style="stroke:#000000;stroke-width:0.8;" x="37.504646" xlink:href="#m87871274cb" y="258.538489"/>
      </g>
     </g>
     <g id="text_8">
      <!-- 0 -->
      <g transform="translate(25.414646 261.577864)scale(0.08 -0.08)">
       <use xlink:href="#DejaVuSans-30"/>
      </g>
     </g>
    </g>
    <g id="ytick_2">
     <g id="line2d_9">
      <g>
       <use style="stroke:#000000;stroke-width:0.8;" x="37.504646" xlink:href="#m87871274cb" y="173.587046"/>
      </g>
     </g>
     <g id="text_9">
      <!-- 100 -->
      <g transform="translate(15.234646 176.626421)scale(0.08 -0.08)">
       <use xlink:href="#DejaVuSans-31"/>
       <use x="63.623047" xlink:href="#DejaVuSans-30"/>
       <use x="127.246094" xlink:href="#DejaVuSans-30"/>
      </g>
     </g>
    </g>
    <g id="ytick_3">
     <g id="line2d_10">
      <g>
       <use style="stroke:#000000;stroke-width:0.8;" x="37.504646" xlink:href="#m87871274cb" y="88.635603"/>
      </g>
     </g>
     <g id="text_10">
      <!-- 200 -->
      <g transform="translate(15.234646 91.674978)scale(0.08 -0.08)">
       <use xlink:href="#DejaVuSans-32"/>
       <use x="63.623047" xlink:href="#DejaVuSans-30"/>
       <use x="127.246094" xlink:href="#DejaVuSans-30"/>
      </g>
     </g>
    </g>
    <g id="ytick_4">
     <g id="line2d_11">
      <g>
       <use style="stroke:#000000;stroke-width:0.8;" x="37.504646" xlink:href="#m87871274cb" y="3.68416"/>
      </g>
     </g>
     <g id="text_11">
      <!-- 300 -->
      <g transform="translate(15.234646 6.723535)scale(0.08 -0.08)">
       <use xlink:href="#DejaVuSans-33"/>
       <use x="63.623047" xlink:href="#DejaVuSans-30"/>
       <use x="127.246094" xlink:href="#DejaVuSans-30"/>
      </g>
     </g>
    </g>
    <g id="text_12">
     <!-- mean population size -->
     <defs>
      <path d="M 34.28125 27.484375 
Q 23.390625 27.484375 19.1875 25 
Q 14.984375 22.515625 14.984375 16.5 
Q 14.984375 11.71875 18.140625 8.90625 
Q 21.296875 6.109375 26.703125 6.109375 
Q 34.1875 6.109375 38.703125 11.40625 
Q 43.21875 16.703125 43.21875 25.484375 
L 43.21875 27.484375 
z
M 52.203125 31.203125 
L 52.203125 0 
L 43.21875 0 
L 43.21875 8.296875 
Q 40.140625 3.328125 35.546875 0.953125 
Q 30.953125 -1.421875 24.3125 -1.421875 
Q 15.921875 -1.421875 10.953125 3.296875 
Q 6 8.015625 6 15.921875 
Q 6 25.140625 12.171875 29.828125 
Q 18.359375 34.515625 30.609375 34.515625 
L 43.21875 34.515625 
L 43.21875 35.40625 
Q 43.21875 41.609375 39.140625 45 
Q 35.0625 48.390625 27.6875 48.390625 
Q 23 48.390625 18.546875 47.265625 
Q 14.109375 46.140625 10.015625 43.890625 
L 10.015625 52.203125 
Q 14.9375 54.109375 19.578125 55.046875 
Q 24.21875 56 28.609375 56 
Q 40.484375 56 46.34375 49.84375 
Q 52.203125 43.703125 52.203125 31.203125 
z
" id="DejaVuSans-61"/>
      <path d="M 54.890625 33.015625 
L 54.890625 0 
L 45.90625 0 
L 45.90625 32.71875 
Q 45.90625 40.484375 42.875 44.328125 
Q 39.84375 48.1875 33.796875 48.1875 
Q 26.515625 48.1875 22.3125 43.546875 
Q 18.109375 38.921875 18.109375 30.90625 
L 18.109375 0 
L 9.078125 0 
L 9.078125 54.6875 
L 18.109375 54.6875 
L 18.109375 46.1875 
Q 21.34375 51.125 25.703125 53.5625 
Q 30.078125 56 35.796875 56 
Q 45.21875 56 50.046875 50.171875 
Q 54.890625 44.34375 54.890625 33.015625 
z
" id="DejaVuSans-6e"/>
      <path id="DejaVuSans-20"/>
      <path d="M 18.109375 8.203125 
L 18.109375 -20.796875 
L 9.078125 -20.796875 
L 9.078125 54.6875 
L 18.109375 54.6875 
L 18.109375 46.390625 
Q 20.953125 51.265625 25.265625 53.625 
Q 29.59375 56 35.59375 56 
Q 45.5625 56 51.78125 48.09375 
Q 58.015625 40.1875 58.015625 27.296875 
Q 58.015625 14.40625 51.78125 6.484375 
Q 45.5625 -1.421875 35.59375 -1.421875 
Q 29.59375 -1.421875 25.265625 0.953125 
Q 20.953125 3.328125 18.109375 8.203125 
z
M 48.6875 27.296875 
Q 48.6875 37.203125 44.609375 42.84375 
Q 40.53125 48.484375 33.40625 48.484375 
Q 26.265625 48.484375 22.1875 42.84375 
Q 18.109375 37.203125 18.109375 27.296875 
Q 18.109375 17.390625 22.1875 11.75 
Q 26.265625 6.109375 33.40625 6.109375 
Q 40.53125 6.109375 44.609375 11.75 
Q 48.6875 17.390625 48.6875 27.296875 
z
" id="DejaVuSans-70"/>
      <path d="M 30.609375 48.390625 
Q 23.390625 48.390625 19.1875 42.75 
Q 14.984375 37.109375 14.984375 27.296875 
Q 14.984375 17.484375 19.15625 11.84375 
Q 23.34375 6.203125 30.609375 6.203125 
Q 37.796875 6.203125 41.984375 11.859375 
Q 46.1875 17.53125 46.1875 27.296875 
Q 46.1875 37.015625 41.984375 42.703125 
Q 37.796875 48.390625 30.609375 48.390625 
z
M 30.609375 56 
Q 42.328125 56 49.015625 48.375 
Q 55.71875 40.765625 55.71875 27.296875 
Q 55.71875 13.875 49.015625 6.21875 
Q 42.328125 -1.421875 30.609375 -1.421875 
Q 18.84375 -1.421875 12.171875 6.21875 
Q 5.515625 13.875 5.515625 27.296875 
Q 5.515625 40.765625 12.171875 48.375 
Q 18.84375 56 30.609375 56 
z
" id="DejaVuSans-6f"/>
      <path d="M 8.5 21.578125 
L 8.5 54.6875 
L 17.484375 54.6875 
L 17.484375 21.921875 
Q 17.484375 14.15625 20.5 10.265625 
Q 23.53125 6.390625 29.59375 6.390625 
Q 36.859375 6.390625 41.078125 11.03125 
Q 45.3125 15.671875 45.3125 23.6875 
L 45.3125 54.6875 
L 54.296875 54.6875 
L 54.296875 0 
L 45.3125 0 
L 45.3125 8.40625 
Q 42.046875 3.421875 37.71875 1 
Q 33.40625 -1.421875 27.6875 -1.421875 
Q 18.265625 -1.421875 13.375 4.4375 
Q 8.5 10.296875 8.5 21.578125 
z
M 31.109375 56 
z
" id="DejaVuSans-75"/>
      <path d="M 9.421875 75.984375 
L 18.40625 75.984375 
L 18.40625 0 
L 9.421875 0 
z
" id="DejaVuSans-6c"/>
      <path d="M 44.28125 53.078125 
L 44.28125 44.578125 
Q 40.484375 46.53125 36.375 47.5 
Q 32.28125 48.484375 27.875 48.484375 
Q 21.1875 48.484375 17.84375 46.4375 
Q 14.5 44.390625 14.5 40.28125 
Q 14.5 37.15625 16.890625 35.375 
Q 19.28125 33.59375 26.515625 31.984375 
L 29.59375 31.296875 
Q 39.15625 29.25 43.1875 25.515625 
Q 47.21875 21.78125 47.21875 15.09375 
Q 47.21875 7.46875 41.1875 3.015625 
Q 35.15625 -1.421875 24.609375 -1.421875 
Q 20.21875 -1.421875 15.453125 -0.5625 
Q 10.6875 0.296875 5.421875 2 
L 5.421875 11.28125 
Q 10.40625 8.6875 15.234375 7.390625 
Q 20.0625 6.109375 24.8125 6.109375 
Q 31.15625 6.109375 34.5625 8.28125 
Q 37.984375 10.453125 37.984375 14.40625 
Q 37.984375 18.0625 35.515625 20.015625 
Q 33.0625 21.96875 24.703125 23.78125 
L 21.578125 24.515625 
Q 13.234375 26.265625 9.515625 29.90625 
Q 5.8125 33.546875 5.8125 39.890625 
Q 5.8125 47.609375 11.28125 51.796875 
Q 16.75 56 26.8125 56 
Q 31.78125 56 36.171875 55.265625 
Q 40.578125 54.546875 44.28125 53.078125 
z
" id="DejaVuSans-73"/>
      <path d="M 5.515625 54.6875 
L 48.1875 54.6875 
L 48.1875 46.484375 
L 14.40625 7.171875 
L 48.1875 7.171875 
L 48.1875 0 
L 4.296875 0 
L 4.296875 8.203125 
L 38.09375 47.515625 
L 5.515625 47.515625 
z
" id="DejaVuSans-7a"/>
     </defs>
     <g transform="translate(8.946989 189.785312)rotate(-90)scale(0.11 -0.11)">
      <use xlink:href="#DejaVuSans-6d"/>
      <use x="97.412109" xlink:href="#DejaVuSans-65"/>
      <use x="158.935547" xlink:href="#DejaVuSans-61"/>
      <use x="220.214844" xlink:href="#DejaVuSans-6e"/>
      <use x="283.59375" xlink:href="#DejaVuSans-20"/>
      <use x="315.380859" xlink:href="#DejaVuSans-70"/>
      <use x="378.857422" xlink:href="#DejaVuSans-6f"/>
      <use x="440.039062" xlink:href="#DejaVuSans-70"/>
      <use x="503.515625" xlink:href="#DejaVuSans-75"/>
      <use x="566.894531" xlink:href="#DejaVuSans-6c"/>
      <use x="594.677734" xlink:href="#DejaVuSans-61"/>
      <use x="655.957031" xlink:href="#DejaVuSans-74"/>
      <use x="695.166016" xlink:href="#DejaVuSans-69"/>
      <use x="722.949219" xlink:href="#DejaVuSans-6f"/>
      <use x="784.130859" xlink:href="#DejaVuSans-6e"/>
      <use x="847.509766" xlink:href="#DejaVuSans-20"/>
      <use x="879.296875" xlink:href="#DejaVuSans-73"/>
      <use x="931.396484" xlink:href="#DejaVuSans-69"/>
      <use x="959.179688" xlink:href="#DejaVuSans-7a"/>
      <use x="1011.669922" xlink:href="#DejaVuSans-65"/>
     </g>
    </g>
   </g>
   <g id="PolyCollection_2">
    <path clip-path="url(#p817022f553)" d="M 37.504646 173.587046 
L 37.504646 173.587046 
L 41.395153 195.41766 
L 45.28566 208.417277 
L 49.176167 217.661097 
L 53.066674 224.087688 
L 56.957181 228.519164 
L 60.847688 232.034359 
L 64.738195 234.398641 
L 68.628702 236.410038 
L 72.519209 237.722815 
L 76.409717 238.702421 
L 80.300224 239.443165 
L 84.190731 240.006891 
L 88.081238 240.334692 
L 91.971745 240.548019 
L 95.862252 240.674518 
L 99.752759 240.799046 
L 103.643266 240.867016 
L 107.533773 240.963179 
L 111.42428 240.713985 
L 115.314787 240.499981 
L 119.205294 240.395444 
L 123.095802 240.075028 
L 126.986309 239.839093 
L 130.876816 239.444071 
L 134.767323 239.197583 
L 138.65783 238.795743 
L 142.548337 238.46824 
L 146.438844 238.201069 
L 150.329351 237.938007 
L 154.219858 237.665775 
L 158.110365 237.249437 
L 162.000872 237.005874 
L 165.89138 236.701426 
L 169.781887 236.315827 
L 173.672394 236.026132 
L 177.562901 235.561161 
L 181.453408 235.240857 
L 185.343915 234.792103 
L 189.234422 234.446944 
L 193.124929 234.012974 
L 197.015436 233.592701 
L 200.905943 233.086755 
L 204.79645 232.621649 
L 208.686957 232.316181 
L 212.577465 231.777578 
L 216.467972 231.272311 
L 220.358479 230.787256 
L 224.248986 230.304964 
L 228.139493 229.79286 
L 232.03 229.407309 
L 235.920507 228.769475 
L 239.811014 228.204166 
L 243.701521 227.669266 
L 247.592028 227.296748 
L 251.482535 226.770292 
L 255.373043 226.057667 
L 259.26355 225.650234 
L 263.154057 225.123151 
L 267.044564 224.459392 
L 270.935071 223.798319 
L 274.825578 223.074242 
L 278.716085 222.35151 
L 282.606592 221.800716 
L 286.497099 221.212762 
L 290.387606 220.572649 
L 294.278113 219.893108 
L 298.16862 219.290122 
L 302.059128 218.56664 
L 305.949635 217.838631 
L 309.840142 217.265607 
L 313.730649 216.572316 
L 317.621156 215.864498 
L 321.511663 215.213238 
L 325.40217 214.601353 
L 329.292677 213.931855 
L 333.183184 213.31813 
L 337.073691 212.678954 
L 340.964198 211.996622 
L 344.854706 211.30578 
L 348.745213 210.608938 
L 352.63572 210.028652 
L 356.526227 209.326739 
L 360.416734 208.506432 
L 364.307241 207.715381 
L 368.197748 206.910727 
L 372.088255 206.210991 
L 375.978762 205.460703 
L 379.869269 204.71881 
L 383.759776 203.918545 
L 387.650283 203.231642 
L 391.540791 202.555233 
L 395.431298 201.896678 
L 399.321805 201.169336 
L 403.212312 200.436018 
L 407.102819 199.75381 
L 410.993326 199.087688 
L 414.883833 198.417327 
L 418.77434 197.81296 
L 422.664847 197.259872 
L 426.555354 197.029263 
L 426.555354 188.945551 
L 426.555354 188.945551 
L 422.664847 189.190671 
L 418.77434 189.696078 
L 414.883833 190.185885 
L 410.993326 190.86965 
L 407.102819 191.464207 
L 403.212312 192.14462 
L 399.321805 192.824895 
L 395.431298 193.439786 
L 391.540791 194.031715 
L 387.650283 194.651666 
L 383.759776 195.247529 
L 379.869269 195.843867 
L 375.978762 196.362653 
L 372.088255 197.048044 
L 368.197748 197.750007 
L 364.307241 198.374236 
L 360.416734 199.144592 
L 356.526227 199.929867 
L 352.63572 200.643246 
L 348.745213 201.44597 
L 344.854706 201.975826 
L 340.964198 202.746149 
L 337.073691 203.421341 
L 333.183184 204.010563 
L 329.292677 204.723779 
L 325.40217 205.445786 
L 321.511663 206.018125 
L 317.621156 206.704 
L 313.730649 207.46924 
L 309.840142 208.170852 
L 305.949635 208.880595 
L 302.059128 209.620547 
L 298.16862 210.317453 
L 294.278113 210.93267 
L 290.387606 211.410168 
L 286.497099 212.030734 
L 282.606592 212.72045 
L 278.716085 213.355578 
L 274.825578 213.827263 
L 270.935071 214.613623 
L 267.044564 215.179249 
L 263.154057 215.743888 
L 259.26355 216.497873 
L 255.373043 217.167623 
L 251.482535 217.819319 
L 247.592028 218.405727 
L 243.701521 218.984665 
L 239.811014 219.627192 
L 235.920507 220.242708 
L 232.03 220.729631 
L 228.139493 221.190196 
L 224.248986 221.73319 
L 220.358479 222.322985 
L 216.467972 222.979677 
L 212.577465 223.427565 
L 208.686957 223.97804 
L 204.79645 224.384465 
L 200.905943 224.901398 
L 197.015436 225.287441 
L 193.124929 225.67081 
L 189.234422 226.203586 
L 185.343915 226.539738 
L 181.453408 226.86744 
L 177.562901 227.25733 
L 173.672394 227.726826 
L 169.781887 228.006305 
L 165.89138 228.352988 
L 162.000872 228.83519 
L 158.110365 229.368083 
L 154.219858 229.938881 
L 150.329351 230.337766 
L 146.438844 230.691451 
L 142.548337 230.874522 
L 138.65783 231.204544 
L 134.767323 231.611441 
L 130.876816 232.020778 
L 126.986309 232.330853 
L 123.095802 232.822102 
L 119.205294 232.868677 
L 115.314787 233.046179 
L 111.42428 233.143098 
L 107.533773 233.254097 
L 103.643266 233.419921 
L 99.752759 233.363861 
L 95.862252 233.340574 
L 91.971745 233.086491 
L 88.081238 232.943021 
L 84.190731 232.564026 
L 80.300224 231.974112 
L 76.409717 231.195924 
L 72.519209 230.204656 
L 68.628702 228.649473 
L 64.738195 226.795579 
L 60.847688 224.302338 
L 56.957181 220.691805 
L 53.066674 215.797312 
L 49.176167 209.4591 
L 45.28566 200.73399 
L 41.395153 188.737494 
L 37.504646 173.587046 
z
" style="fill:#008000;fill-opacity:0.3;"/>
   </g>
   <g id="line2d_12">
    <path clip-path="url(#p817022f553)" d="M 37.504646 173.587046 
L 41.395153 192.077577 
L 45.28566 204.575634 
L 49.176167 213.560098 
L 53.066674 219.9425 
L 56.957181 224.605485 
L 60.847688 228.168348 
L 64.738195 230.59711 
L 68.628702 232.529755 
L 72.519209 233.963736 
L 76.409717 234.949172 
L 80.300224 235.708638 
L 84.190731 236.285459 
L 88.081238 236.638857 
L 91.971745 236.817255 
L 95.862252 237.007546 
L 99.752759 237.081454 
L 103.643266 237.143468 
L 107.533773 237.108638 
L 111.42428 236.928541 
L 115.314787 236.77308 
L 119.205294 236.632061 
L 123.095802 236.448565 
L 126.986309 236.084973 
L 130.876816 235.732425 
L 134.767323 235.404512 
L 138.65783 235.000143 
L 142.548337 234.671381 
L 146.438844 234.44626 
L 150.329351 234.137886 
L 154.219858 233.802328 
L 158.110365 233.30876 
L 162.000872 232.920532 
L 165.89138 232.527207 
L 169.781887 232.161066 
L 173.672394 231.876479 
L 177.562901 231.409246 
L 181.453408 231.054149 
L 185.343915 230.665921 
L 189.234422 230.325265 
L 193.124929 229.841892 
L 197.015436 229.440071 
L 200.905943 228.994076 
L 204.79645 228.503057 
L 208.686957 228.14711 
L 212.577465 227.602572 
L 216.467972 227.125994 
L 220.358479 226.55512 
L 224.248986 226.019077 
L 228.139493 225.491528 
L 232.03 225.06847 
L 235.920507 224.506092 
L 239.811014 223.915679 
L 243.701521 223.326966 
L 247.592028 222.851237 
L 251.482535 222.294805 
L 255.373043 221.612645 
L 259.26355 221.074053 
L 263.154057 220.433519 
L 267.044564 219.81932 
L 270.935071 219.205971 
L 274.825578 218.450753 
L 278.716085 217.853544 
L 282.606592 217.260583 
L 286.497099 216.621748 
L 290.387606 215.991408 
L 294.278113 215.412889 
L 298.16862 214.803787 
L 302.059128 214.093593 
L 305.949635 213.359613 
L 309.840142 212.718229 
L 313.730649 212.020778 
L 317.621156 211.284249 
L 321.511663 210.615681 
L 325.40217 210.02357 
L 329.292677 209.327817 
L 333.183184 208.664346 
L 337.073691 208.050148 
L 340.964198 207.371385 
L 344.854706 206.640803 
L 348.745213 206.027454 
L 352.63572 205.335949 
L 356.526227 204.628303 
L 360.416734 203.825512 
L 364.307241 203.044809 
L 368.197748 202.330367 
L 372.088255 201.629517 
L 375.978762 200.911678 
L 379.869269 200.281338 
L 383.759776 199.583037 
L 387.650283 198.941654 
L 391.540791 198.293474 
L 395.431298 197.668232 
L 399.321805 196.997115 
L 403.212312 196.290319 
L 407.102819 195.609009 
L 410.993326 194.978669 
L 414.883833 194.301606 
L 418.77434 193.754519 
L 422.664847 193.225271 
L 426.555354 192.987407 
" style="fill:none;stroke:#008000;stroke-linecap:round;"/>
   </g>
   <g id="patch_3">
    <path d="M 37.504646 258.685354 
L 37.504646 2.834646 
" style="fill:none;stroke:#000000;stroke-linecap:square;stroke-linejoin:miter;stroke-width:0.8;"/>
   </g>
   <g id="patch_4">
    <path d="M 426.555354 258.685354 
L 426.555354 2.834646 
" style="fill:none;stroke:#000000;stroke-linecap:square;stroke-linejoin:miter;stroke-width:0.8;"/>
   </g>
   <g id="patch_5">
    <path d="M 37.504646 258.685354 
L 426.555354 258.685354 
" style="fill:none;stroke:#000000;stroke-linecap:square;stroke-linejoin:miter;stroke-width:0.8;"/>
   </g>
   <g id="patch_6">
    <path d="M 37.504646 2.834646 
L 426.555354 2.834646 
" style="fill:none;stroke:#000000;stroke-linecap:square;stroke-linejoin:miter;stroke-width:0.8;"/>
   </g>
   <g id="PolyCollection_3">
    <path clip-path="url(#p817022f553)" d="M 37.504646 258.538489 
L 37.504646 258.538489 
L 41.395153 243.388041 
L 45.28566 231.391545 
L 49.176167 222.666436 
L 53.066674 216.328223 
L 56.957181 211.43373 
L 60.847688 207.823197 
L 64.738195 205.329957 
L 68.628702 203.476063 
L 72.519209 201.920879 
L 76.409717 200.929611 
L 80.300224 200.151424 
L 84.190731 199.561509 
L 88.081238 199.182514 
L 91.971745 199.039044 
L 95.862252 198.784961 
L 99.752759 198.761674 
L 103.643266 198.705615 
L 107.533773 198.871438 
L 111.42428 198.982438 
L 115.314787 199.079356 
L 119.205294 199.256858 
L 123.095802 199.303433 
L 126.986309 199.794682 
L 130.876816 200.104757 
L 134.767323 200.514094 
L 138.65783 200.920991 
L 142.548337 201.251013 
L 146.438844 201.434085 
L 150.329351 201.78777 
L 154.219858 202.186655 
L 158.110365 202.757452 
L 162.000872 203.290346 
L 165.89138 203.772547 
L 169.781887 204.11923 
L 173.672394 204.398709 
L 177.562901 204.868205 
L 181.453408 205.258095 
L 185.343915 205.585797 
L 189.234422 205.921949 
L 193.124929 206.454725 
L 197.015436 206.838094 
L 200.905943 207.224138 
L 204.79645 207.74107 
L 208.686957 208.147495 
L 212.577465 208.69797 
L 216.467972 209.145859 
L 220.358479 209.80255 
L 224.248986 210.392345 
L 228.139493 210.935339 
L 232.03 211.395904 
L 235.920507 211.882827 
L 239.811014 212.498343 
L 243.701521 213.140871 
L 247.592028 213.719808 
L 251.482535 214.306216 
L 255.373043 214.957912 
L 259.26355 215.627662 
L 263.154057 216.381647 
L 267.044564 216.946286 
L 270.935071 217.511913 
L 274.825578 218.298272 
L 278.716085 218.769957 
L 282.606592 219.405085 
L 286.497099 220.094801 
L 290.387606 220.715367 
L 294.278113 221.192865 
L 298.16862 221.808082 
L 302.059128 222.504989 
L 305.949635 223.244941 
L 309.840142 223.954683 
L 313.730649 224.656295 
L 317.621156 225.421536 
L 321.511663 226.107411 
L 325.40217 226.67975 
L 329.292677 227.401756 
L 333.183184 228.114972 
L 337.073691 228.704194 
L 340.964198 229.379386 
L 344.854706 230.149709 
L 348.745213 230.679565 
L 352.63572 231.482289 
L 356.526227 232.195668 
L 360.416734 232.980943 
L 364.307241 233.751299 
L 368.197748 234.375528 
L 372.088255 235.077491 
L 375.978762 235.762882 
L 379.869269 236.281669 
L 383.759776 236.878006 
L 387.650283 237.473869 
L 391.540791 238.09382 
L 395.431298 238.68575 
L 399.321805 239.300641 
L 403.212312 239.980915 
L 407.102819 240.661328 
L 410.993326 241.255886 
L 414.883833 241.939651 
L 418.77434 242.429458 
L 422.664847 242.934864 
L 426.555354 243.179984 
L 426.555354 235.096272 
L 426.555354 235.096272 
L 422.664847 234.865664 
L 418.77434 234.312575 
L 414.883833 233.708208 
L 410.993326 233.037847 
L 407.102819 232.371725 
L 403.212312 231.689517 
L 399.321805 230.956199 
L 395.431298 230.228857 
L 391.540791 229.570302 
L 387.650283 228.893894 
L 383.759776 228.20699 
L 379.869269 227.406726 
L 375.978762 226.664833 
L 372.088255 225.914544 
L 368.197748 225.214809 
L 364.307241 224.410155 
L 360.416734 223.619103 
L 356.526227 222.798796 
L 352.63572 222.096883 
L 348.745213 221.516598 
L 344.854706 220.819755 
L 340.964198 220.128914 
L 337.073691 219.446581 
L 333.183184 218.807406 
L 329.292677 218.19368 
L 325.40217 217.524182 
L 321.511663 216.912298 
L 317.621156 216.261037 
L 313.730649 215.553219 
L 309.840142 214.859929 
L 305.949635 214.286905 
L 302.059128 213.558896 
L 298.16862 212.835414 
L 294.278113 212.232427 
L 290.387606 211.552886 
L 286.497099 210.912773 
L 282.606592 210.324819 
L 278.716085 209.774025 
L 274.825578 209.051293 
L 270.935071 208.327216 
L 267.044564 207.666143 
L 263.154057 207.002385 
L 259.26355 206.475302 
L 255.373043 206.067868 
L 251.482535 205.355243 
L 247.592028 204.828788 
L 243.701521 204.456269 
L 239.811014 203.921369 
L 235.920507 203.35606 
L 232.03 202.718226 
L 228.139493 202.332675 
L 224.248986 201.820572 
L 220.358479 201.338279 
L 216.467972 200.853224 
L 212.577465 200.347957 
L 208.686957 199.809355 
L 204.79645 199.503886 
L 200.905943 199.03878 
L 197.015436 198.532834 
L 193.124929 198.112562 
L 189.234422 197.678591 
L 185.343915 197.333432 
L 181.453408 196.884678 
L 177.562901 196.564374 
L 173.672394 196.099404 
L 169.781887 195.809708 
L 165.89138 195.42411 
L 162.000872 195.119661 
L 158.110365 194.876098 
L 154.219858 194.45976 
L 150.329351 194.187529 
L 146.438844 193.924466 
L 142.548337 193.657295 
L 138.65783 193.329792 
L 134.767323 192.927952 
L 130.876816 192.681464 
L 126.986309 192.286442 
L 123.095802 192.050507 
L 119.205294 191.730092 
L 115.314787 191.625555 
L 111.42428 191.411551 
L 107.533773 191.162356 
L 103.643266 191.25852 
L 99.752759 191.326489 
L 95.862252 191.451017 
L 91.971745 191.577517 
L 88.081238 191.790843 
L 84.190731 192.118644 
L 80.300224 192.68237 
L 76.409717 193.423115 
L 72.519209 194.40272 
L 68.628702 195.715497 
L 64.738195 197.726894 
L 60.847688 200.091177 
L 56.957181 203.606371 
L 53.066674 208.037847 
L 49.176167 214.464439 
L 45.28566 223.708258 
L 41.395153 236.707875 
L 37.504646 258.538489 
z
" style="fill:#ffa500;fill-opacity:0.3;"/>
   </g>
   <g id="line2d_13">
    <path clip-path="url(#p817022f553)" d="M 37.504646 258.538489 
L 41.395153 240.047958 
L 45.28566 227.549902 
L 49.176167 218.565437 
L 53.066674 212.183035 
L 56.957181 207.520051 
L 60.847688 203.957187 
L 64.738195 201.528425 
L 68.628702 199.59578 
L 72.519209 198.1618 
L 76.409717 197.176363 
L 80.300224 196.416897 
L 84.190731 195.840077 
L 88.081238 195.486679 
L 91.971745 195.308281 
L 95.862252 195.117989 
L 99.752759 195.044082 
L 103.643266 194.982067 
L 107.533773 195.016897 
L 111.42428 195.196994 
L 115.314787 195.352455 
L 119.205294 195.493475 
L 123.095802 195.67697 
L 126.986309 196.040562 
L 130.876816 196.393111 
L 134.767323 196.721023 
L 138.65783 197.125392 
L 142.548337 197.454154 
L 146.438844 197.679275 
L 150.329351 197.987649 
L 154.219858 198.323207 
L 158.110365 198.816775 
L 162.000872 199.205003 
L 165.89138 199.598328 
L 169.781887 199.964469 
L 173.672394 200.249057 
L 177.562901 200.716289 
L 181.453408 201.071386 
L 185.343915 201.459615 
L 189.234422 201.80027 
L 193.124929 202.283644 
L 197.015436 202.685464 
L 200.905943 203.131459 
L 204.79645 203.622478 
L 208.686957 203.978425 
L 212.577465 204.522964 
L 216.467972 204.999541 
L 220.358479 205.570415 
L 224.248986 206.106459 
L 228.139493 206.634007 
L 232.03 207.057065 
L 235.920507 207.619444 
L 239.811014 208.209856 
L 243.701521 208.79857 
L 247.592028 209.274298 
L 251.482535 209.83073 
L 255.373043 210.51289 
L 259.26355 211.051482 
L 263.154057 211.692016 
L 267.044564 212.306215 
L 270.935071 212.919564 
L 274.825578 213.674783 
L 278.716085 214.271991 
L 282.606592 214.864952 
L 286.497099 215.503787 
L 290.387606 216.134127 
L 294.278113 216.712646 
L 298.16862 217.321748 
L 302.059128 218.031942 
L 305.949635 218.765923 
L 309.840142 219.407306 
L 313.730649 220.104757 
L 317.621156 220.841286 
L 321.511663 221.509854 
L 325.40217 222.101966 
L 329.292677 222.797718 
L 333.183184 223.461189 
L 337.073691 224.075388 
L 340.964198 224.75415 
L 344.854706 225.484732 
L 348.745213 226.098082 
L 352.63572 226.789586 
L 356.526227 227.497232 
L 360.416734 228.300023 
L 364.307241 229.080727 
L 368.197748 229.795168 
L 372.088255 230.496018 
L 375.978762 231.213857 
L 379.869269 231.844197 
L 383.759776 232.542498 
L 387.650283 233.183881 
L 391.540791 233.832061 
L 395.431298 234.457304 
L 399.321805 235.12842 
L 403.212312 235.835216 
L 407.102819 236.516527 
L 410.993326 237.146866 
L 414.883833 237.823929 
L 418.77434 238.371017 
L 422.664847 238.900264 
L 426.555354 239.138128 
" style="fill:none;stroke:#ffa500;stroke-linecap:round;"/>
   </g>
   <g id="PolyCollection_4">
    <path clip-path="url(#p817022f553)" d="M 37.504646 258.538489 
L 37.504646 258.538489 
L 41.395153 258.685354 
L 45.28566 257.957391 
L 49.176167 256.706353 
L 53.066674 254.927752 
L 56.957181 252.909298 
L 60.847688 250.671889 
L 64.738195 248.132669 
L 68.628702 245.482391 
L 72.519209 242.841479 
L 76.409717 240.072615 
L 80.300224 237.241144 
L 84.190731 234.339226 
L 88.081238 231.435868 
L 91.971745 228.447193 
L 95.862252 225.470685 
L 99.752759 222.493972 
L 103.643266 219.483998 
L 107.533773 216.530043 
L 111.42428 213.465526 
L 115.314787 210.454784 
L 119.205294 207.422645 
L 123.095802 204.453912 
L 126.986309 201.412169 
L 130.876816 198.214038 
L 134.767323 195.244786 
L 138.65783 192.237983 
L 142.548337 189.261773 
L 146.438844 186.261876 
L 150.329351 183.353767 
L 154.219858 180.543447 
L 158.110365 177.629437 
L 162.000872 174.724213 
L 165.89138 171.900464 
L 169.781887 169.092804 
L 173.672394 166.267218 
L 177.562901 163.306198 
L 181.453408 160.399485 
L 185.343915 157.519886 
L 189.234422 154.751085 
L 193.124929 151.938524 
L 197.015436 149.131699 
L 200.905943 146.381145 
L 204.79645 143.634675 
L 208.686957 141.043465 
L 212.577465 138.337449 
L 216.467972 135.757394 
L 220.358479 133.109699 
L 224.248986 130.43892 
L 228.139493 127.766232 
L 232.03 125.279304 
L 235.920507 122.645633 
L 239.811014 120.194721 
L 243.701521 117.745902 
L 247.592028 115.353765 
L 251.482535 112.832052 
L 255.373043 110.342136 
L 259.26355 108.003085 
L 263.154057 105.622566 
L 267.044564 103.134693 
L 270.935071 100.76858 
L 274.825578 98.305325 
L 278.716085 95.935313 
L 282.606592 93.713904 
L 286.497099 91.556394 
L 290.387606 89.307081 
L 294.278113 87.05074 
L 298.16862 84.878351 
L 302.059128 82.710236 
L 305.949635 80.587636 
L 309.840142 78.614293 
L 313.730649 76.629136 
L 317.621156 74.654589 
L 321.511663 72.75033 
L 325.40217 70.908969 
L 329.292677 69.018376 
L 333.183184 67.187224 
L 337.073691 65.329655 
L 340.964198 63.558845 
L 344.854706 61.859652 
L 348.745213 60.123265 
L 352.63572 58.524483 
L 356.526227 56.861353 
L 360.416734 55.205482 
L 364.307241 53.518956 
L 368.197748 51.898711 
L 372.088255 50.435112 
L 375.978762 48.865534 
L 379.869269 47.393345 
L 383.759776 45.982331 
L 387.650283 44.579926 
L 391.540791 43.224117 
L 395.431298 41.941575 
L 399.321805 40.645884 
L 403.212312 39.341029 
L 407.102819 38.058037 
L 410.993326 36.874317 
L 414.883833 35.719436 
L 418.77434 34.681533 
L 422.664847 33.664941 
L 426.555354 33.157833 
L 426.555354 22.969218 
L 426.555354 22.969218 
L 422.664847 23.350701 
L 418.77434 24.116391 
L 414.883833 24.925332 
L 410.993326 25.974091 
L 407.102819 27.007605 
L 403.212312 27.992816 
L 399.321805 29.098883 
L 395.431298 30.226007 
L 391.540791 31.361183 
L 387.650283 32.509743 
L 383.759776 33.752726 
L 379.869269 34.992196 
L 375.978762 36.182386 
L 372.088255 37.51305 
L 368.197748 38.914013 
L 364.307241 40.267069 
L 360.416734 41.740737 
L 356.526227 43.268846 
L 352.63572 44.755715 
L 348.745213 46.334117 
L 344.854706 47.830982 
L 340.964198 49.473779 
L 337.073691 51.104425 
L 333.183184 52.707777 
L 329.292677 54.436091 
L 325.40217 56.227294 
L 321.511663 57.972583 
L 317.621156 59.746721 
L 313.730649 61.703727 
L 309.840142 63.685802 
L 305.949635 65.661002 
L 302.059128 67.65345 
L 298.16862 69.681936 
L 294.278113 71.694256 
L 290.387606 73.654904 
L 286.497099 75.750008 
L 282.606592 77.921624 
L 278.716085 80.153369 
L 274.825578 82.250104 
L 270.935071 84.627383 
L 267.044564 86.940394 
L 263.154057 89.16223 
L 259.26355 91.639234 
L 255.373043 94.033678 
L 251.482535 96.532111 
L 247.592028 98.929086 
L 243.701521 101.396171 
L 239.811014 103.90172 
L 235.920507 106.554691 
L 232.03 109.114951 
L 228.139493 111.755693 
L 224.248986 114.377179 
L 220.358479 117.122904 
L 216.467972 119.852635 
L 212.577465 122.627918 
L 208.686957 125.38598 
L 204.79645 128.121225 
L 200.905943 130.939075 
L 197.015436 133.780025 
L 193.124929 136.515432 
L 189.234422 139.486365 
L 185.343915 142.385524 
L 181.453408 145.241847 
L 177.562901 148.164502 
L 173.672394 151.228238 
L 169.781887 154.218428 
L 165.89138 157.263923 
L 162.000872 160.22027 
L 158.110365 163.319413 
L 154.219858 166.572878 
L 150.329351 169.72445 
L 146.438844 172.954933 
L 142.548337 176.076637 
L 138.65783 179.342659 
L 134.767323 182.610369 
L 130.876816 185.847669 
L 126.986309 188.947839 
L 123.095802 192.292745 
L 119.205294 195.523768 
L 115.314787 198.75425 
L 111.42428 202.014624 
L 107.533773 205.292582 
L 103.643266 208.587654 
L 99.752759 211.943942 
L 95.862252 215.221354 
L 91.971745 218.429311 
L 88.081238 221.795004 
L 84.190731 225.200139 
L 80.300224 228.44191 
L 76.409717 231.845875 
L 72.519209 235.235991 
L 68.628702 238.485612 
L 64.738195 241.671498 
L 60.847688 244.847811 
L 56.957181 247.882489 
L 53.066674 250.672287 
L 49.176167 253.238102 
L 45.28566 255.631481 
L 41.395153 257.402789 
L 37.504646 258.538489 
z
" style="fill:#ff0000;fill-opacity:0.3;"/>
   </g>
   <g id="line2d_14">
    <path clip-path="url(#p817022f553)" d="M 37.504646 258.538489 
L 41.395153 258.044072 
L 45.28566 256.794436 
L 49.176167 254.972228 
L 53.066674 252.800019 
L 56.957181 250.395893 
L 60.847688 247.75985 
L 64.738195 244.902084 
L 68.628702 241.984001 
L 72.519209 239.038735 
L 76.409717 235.959245 
L 80.300224 232.841527 
L 84.190731 229.769683 
L 88.081238 226.615436 
L 91.971745 223.438252 
L 95.862252 220.346019 
L 99.752759 217.218957 
L 103.643266 214.035826 
L 107.533773 210.911312 
L 111.42428 207.740075 
L 115.314787 204.604517 
L 119.205294 201.473207 
L 123.095802 198.373329 
L 126.986309 195.180004 
L 130.876816 192.030854 
L 134.767323 188.927578 
L 138.65783 185.790321 
L 142.548337 182.669205 
L 146.438844 179.608404 
L 150.329351 176.539109 
L 154.219858 173.558163 
L 158.110365 170.474425 
L 162.000872 167.472241 
L 165.89138 164.582193 
L 169.781887 161.655616 
L 173.672394 158.747728 
L 177.562901 155.73535 
L 181.453408 152.820666 
L 185.343915 149.952705 
L 189.234422 147.118725 
L 193.124929 144.226978 
L 197.015436 141.455862 
L 200.905943 138.66011 
L 204.79645 135.87795 
L 208.686957 133.214722 
L 212.577465 130.482684 
L 216.467972 127.805014 
L 220.358479 125.116301 
L 224.248986 122.408049 
L 228.139493 119.760962 
L 232.03 117.197128 
L 235.920507 114.600162 
L 239.811014 112.048221 
L 243.701521 109.571037 
L 247.592028 107.141425 
L 251.482535 104.682081 
L 255.373043 102.187907 
L 259.26355 99.82116 
L 263.154057 97.392398 
L 267.044564 95.037544 
L 270.935071 92.697981 
L 274.825578 90.277715 
L 278.716085 88.044341 
L 282.606592 85.817764 
L 286.497099 83.653201 
L 290.387606 81.480993 
L 294.278113 79.372498 
L 298.16862 77.280144 
L 302.059128 75.181843 
L 305.949635 73.124319 
L 309.840142 71.150048 
L 313.730649 69.166431 
L 317.621156 67.200655 
L 321.511663 65.361456 
L 325.40217 63.568131 
L 329.292677 61.727234 
L 333.183184 59.947501 
L 337.073691 58.21704 
L 340.964198 56.516312 
L 344.854706 54.845317 
L 348.745213 53.228691 
L 352.63572 51.640099 
L 356.526227 50.065099 
L 360.416734 48.473109 
L 364.307241 46.893013 
L 368.197748 45.406362 
L 372.088255 43.974081 
L 375.978762 42.52396 
L 379.869269 41.192771 
L 383.759776 39.867528 
L 387.650283 38.544834 
L 391.540791 37.29265 
L 395.431298 36.083791 
L 399.321805 34.872383 
L 403.212312 33.666922 
L 407.102819 32.532821 
L 410.993326 31.424204 
L 414.883833 30.322384 
L 418.77434 29.398962 
L 422.664847 28.507821 
L 426.555354 28.063525 
" style="fill:none;stroke:#ff0000;stroke-linecap:round;"/>
   </g>
   <g id="legend_1">
    <g id="patch_7">
     <path d="M 385.221604 155.445 
L 420.955354 155.445 
Q 422.555354 155.445 422.555354 153.845 
L 422.555354 107.675 
Q 422.555354 106.075 420.955354 106.075 
L 385.221604 106.075 
Q 383.621604 106.075 383.621604 107.675 
L 383.621604 153.845 
Q 383.621604 155.445 385.221604 155.445 
z
" style="fill:#ffffff;opacity:0.8;stroke:#000000;stroke-linejoin:miter;"/>
    </g>
    <g id="line2d_15">
     <path d="M 386.821604 112.55375 
L 402.821604 112.55375 
" style="fill:none;stroke:#0000ff;stroke-linecap:round;"/>
    </g>
    <g id="line2d_16"/>
    <g id="text_13">
     <!-- S -->
     <defs>
      <path d="M 53.515625 70.515625 
L 53.515625 60.890625 
Q 47.90625 63.578125 42.921875 64.890625 
Q 37.9375 66.21875 33.296875 66.21875 
Q 25.25 66.21875 20.875 63.09375 
Q 16.5 59.96875 16.5 54.203125 
Q 16.5 49.359375 19.40625 46.890625 
Q 22.3125 44.4375 30.421875 42.921875 
L 36.375 41.703125 
Q 47.40625 39.59375 52.65625 34.296875 
Q 57.90625 29 57.90625 20.125 
Q 57.90625 9.515625 50.796875 4.046875 
Q 43.703125 -1.421875 29.984375 -1.421875 
Q 24.8125 -1.421875 18.96875 -0.25 
Q 13.140625 0.921875 6.890625 3.21875 
L 6.890625 13.375 
Q 12.890625 10.015625 18.65625 8.296875 
Q 24.421875 6.59375 29.984375 6.59375 
Q 38.421875 6.59375 43.015625 9.90625 
Q 47.609375 13.234375 47.609375 19.390625 
Q 47.609375 24.75 44.3125 27.78125 
Q 41.015625 30.8125 33.5 32.328125 
L 27.484375 33.5 
Q 16.453125 35.6875 11.515625 40.375 
Q 6.59375 45.0625 6.59375 53.421875 
Q 6.59375 63.09375 13.40625 68.65625 
Q 20.21875 74.21875 32.171875 74.21875 
Q 37.3125 74.21875 42.625 73.28125 
Q 47.953125 72.359375 53.515625 70.515625 
z
" id="DejaVuSans-53"/>
     </defs>
     <g transform="translate(409.221604 115.35375)scale(0.08 -0.08)">
      <use xlink:href="#DejaVuSans-53"/>
     </g>
    </g>
    <g id="line2d_17">
     <path d="M 386.821604 124.29625 
L 402.821604 124.29625 
" style="fill:none;stroke:#008000;stroke-linecap:round;"/>
    </g>
    <g id="line2d_18"/>
    <g id="text_14">
     <!-- E -->
     <defs>
      <path d="M 9.8125 72.90625 
L 55.90625 72.90625 
L 55.90625 64.59375 
L 19.671875 64.59375 
L 19.671875 43.015625 
L 54.390625 43.015625 
L 54.390625 34.71875 
L 19.671875 34.71875 
L 19.671875 8.296875 
L 56.78125 8.296875 
L 56.78125 0 
L 9.8125 0 
z
" id="DejaVuSans-45"/>
     </defs>
     <g transform="translate(409.221604 127.09625)scale(0.08 -0.08)">
      <use xlink:href="#DejaVuSans-45"/>
     </g>
    </g>
    <g id="line2d_19">
     <path d="M 386.821604 136.03875 
L 402.821604 136.03875 
" style="fill:none;stroke:#ffa500;stroke-linecap:round;"/>
    </g>
    <g id="line2d_20"/>
    <g id="text_15">
     <!-- SE -->
     <g transform="translate(409.221604 138.83875)scale(0.08 -0.08)">
      <use xlink:href="#DejaVuSans-53"/>
      <use x="63.476562" xlink:href="#DejaVuSans-45"/>
     </g>
    </g>
    <g id="line2d_21">
     <path d="M 386.821604 147.78125 
L 402.821604 147.78125 
" style="fill:none;stroke:#ff0000;stroke-linecap:round;"/>
    </g>
    <g id="line2d_22"/>
    <g id="text_16">
     <!-- P -->
     <defs>
      <path d="M 19.671875 64.796875 
L 19.671875 37.40625 
L 32.078125 37.40625 
Q 38.96875 37.40625 42.71875 40.96875 
Q 46.484375 44.53125 46.484375 51.125 
Q 46.484375 57.671875 42.71875 61.234375 
Q 38.96875 64.796875 32.078125 64.796875 
z
M 9.8125 72.90625 
L 32.078125 72.90625 
Q 44.34375 72.90625 50.609375 67.359375 
Q 56.890625 61.8125 56.890625 51.125 
Q 56.890625 40.328125 50.609375 34.8125 
Q 44.34375 29.296875 32.078125 29.296875 
L 19.671875 29.296875 
L 19.671875 0 
L 9.8125 0 
z
" id="DejaVuSans-50"/>
     </defs>
     <g transform="translate(409.221604 150.58125)scale(0.08 -0.08)">
      <use xlink:href="#DejaVuSans-50"/>
     </g>
    </g>
   </g>
  </g>
 </g>
 <defs>
  <clipPath id="p817022f553">
   <rect height="255.850709" width="389.050709" x="37.504646" y="2.834646"/>
  </clipPath>
 </defs>
</svg>
