<?xml version="1.0" encoding="utf-8"?>
<svg xmlns="http://www.w3.org/2000/svg" xmlns:xlink="http://www.w3.org/1999/xlink" width="576" height="384" viewBox="0 0 2304 1536">
<defs>
  <clipPath id="clip3500">
    <rect x="0" y="0" width="2304" height="1536"/>
  </clipPath>
</defs>
<polygon clip-path="url(#clip3500)" points="
0,1536 2304,1536 2304,0 0,0 
  " fill="#ffffff" fill-rule="evenodd" fill-opacity="1"/>
<defs>
  <clipPath id="clip3501">
    <rect x="460" y="0" width="1614" height="1536"/>
  </clipPath>
</defs>
<polygon clip-path="url(#clip3500)" points="
228.175,1362.26 2256.76,1362.26 2256.76,121.675 228.175,121.675 
  " fill="#ffffff" fill-rule="evenodd" fill-opacity="1"/>
<defs>
  <clipPath id="clip3502">
    <rect x="228" y="121" width="2030" height="1242"/>
  </clipPath>
</defs>
<polyline clip-path="url(#clip3502)" style="stroke:#000000; stroke-width:2; stroke-opacity:0.1; fill:none" points="
  285.588,1362.26 285.588,121.675 
  "/>
<polyline clip-path="url(#clip3502)" style="stroke:#000000; stroke-width:2; stroke-opacity:0.1; fill:none" points="
  764.027,1362.26 764.027,121.675 
  "/>
<polyline clip-path="url(#clip3502)" style="stroke:#000000; stroke-width:2; stroke-opacity:0.1; fill:none" points="
  1242.47,1362.26 1242.47,121.675 
  "/>
<polyline clip-path="url(#clip3502)" style="stroke:#000000; stroke-width:2; stroke-opacity:0.1; fill:none" points="
  1720.9,1362.26 1720.9,121.675 
  "/>
<polyline clip-path="url(#clip3502)" style="stroke:#000000; stroke-width:2; stroke-opacity:0.1; fill:none" points="
  2199.34,1362.26 2199.34,121.675 
  "/>
<polyline clip-path="url(#clip3502)" style="stroke:#000000; stroke-width:2; stroke-opacity:0.1; fill:none" points="
  228.175,1338.68 2256.76,1338.68 
  "/>
<polyline clip-path="url(#clip3502)" style="stroke:#000000; stroke-width:2; stroke-opacity:0.1; fill:none" points="
  228.175,1108.11 2256.76,1108.11 
  "/>
<polyline clip-path="url(#clip3502)" style="stroke:#000000; stroke-width:2; stroke-opacity:0.1; fill:none" points="
  228.175,877.547 2256.76,877.547 
  "/>
<polyline clip-path="url(#clip3502)" style="stroke:#000000; stroke-width:2; stroke-opacity:0.1; fill:none" points="
  228.175,646.983 2256.76,646.983 
  "/>
<polyline clip-path="url(#clip3502)" style="stroke:#000000; stroke-width:2; stroke-opacity:0.1; fill:none" points="
  228.175,416.419 2256.76,416.419 
  "/>
<polyline clip-path="url(#clip3502)" style="stroke:#000000; stroke-width:2; stroke-opacity:0.1; fill:none" points="
  228.175,185.854 2256.76,185.854 
  "/>
<polyline clip-path="url(#clip3500)" style="stroke:#000000; stroke-width:4; stroke-opacity:1; fill:none" points="
  228.175,1362.26 2256.76,1362.26 
  "/>
<polyline clip-path="url(#clip3500)" style="stroke:#000000; stroke-width:4; stroke-opacity:1; fill:none" points="
  228.175,1362.26 228.175,121.675 
  "/>
<polyline clip-path="url(#clip3500)" style="stroke:#000000; stroke-width:4; stroke-opacity:1; fill:none" points="
  285.588,1362.26 285.588,1343.65 
  "/>
<polyline clip-path="url(#clip3500)" style="stroke:#000000; stroke-width:4; stroke-opacity:1; fill:none" points="
  764.027,1362.26 764.027,1343.65 
  "/>
<polyline clip-path="url(#clip3500)" style="stroke:#000000; stroke-width:4; stroke-opacity:1; fill:none" points="
  1242.47,1362.26 1242.47,1343.65 
  "/>
<polyline clip-path="url(#clip3500)" style="stroke:#000000; stroke-width:4; stroke-opacity:1; fill:none" points="
  1720.9,1362.26 1720.9,1343.65 
  "/>
<polyline clip-path="url(#clip3500)" style="stroke:#000000; stroke-width:4; stroke-opacity:1; fill:none" points="
  2199.34,1362.26 2199.34,1343.65 
  "/>
<polyline clip-path="url(#clip3500)" style="stroke:#000000; stroke-width:4; stroke-opacity:1; fill:none" points="
  228.175,1338.68 258.604,1338.68 
  "/>
<polyline clip-path="url(#clip3500)" style="stroke:#000000; stroke-width:4; stroke-opacity:1; fill:none" points="
  228.175,1108.11 258.604,1108.11 
  "/>
<polyline clip-path="url(#clip3500)" style="stroke:#000000; stroke-width:4; stroke-opacity:1; fill:none" points="
  228.175,877.547 258.604,877.547 
  "/>
<polyline clip-path="url(#clip3500)" style="stroke:#000000; stroke-width:4; stroke-opacity:1; fill:none" points="
  228.175,646.983 258.604,646.983 
  "/>
<polyline clip-path="url(#clip3500)" style="stroke:#000000; stroke-width:4; stroke-opacity:1; fill:none" points="
  228.175,416.419 258.604,416.419 
  "/>
<polyline clip-path="url(#clip3500)" style="stroke:#000000; stroke-width:4; stroke-opacity:1; fill:none" points="
  228.175,185.854 258.604,185.854 
  "/>
<g clip-path="url(#clip3500)">
<text style="fill:#000000; fill-opacity:1; font-family:Arial,Helvetica Neue,Helvetica,sans-serif; font-size:48px; text-anchor:middle;" transform="rotate(0, 285.588, 1415.78)" x="285.588" y="1415.78">0</text>
</g>
<g clip-path="url(#clip3500)">
<text style="fill:#000000; fill-opacity:1; font-family:Arial,Helvetica Neue,Helvetica,sans-serif; font-size:48px; text-anchor:middle;" transform="rotate(0, 764.027, 1415.78)" x="764.027" y="1415.78">1</text>
</g>
<g clip-path="url(#clip3500)">
<text style="fill:#000000; fill-opacity:1; font-family:Arial,Helvetica Neue,Helvetica,sans-serif; font-size:48px; text-anchor:middle;" transform="rotate(0, 1242.47, 1415.78)" x="1242.47" y="1415.78">2</text>
</g>
<g clip-path="url(#clip3500)">
<text style="fill:#000000; fill-opacity:1; font-family:Arial,Helvetica Neue,Helvetica,sans-serif; font-size:48px; text-anchor:middle;" transform="rotate(0, 1720.9, 1415.78)" x="1720.9" y="1415.78">3</text>
</g>
<g clip-path="url(#clip3500)">
<text style="fill:#000000; fill-opacity:1; font-family:Arial,Helvetica Neue,Helvetica,sans-serif; font-size:48px; text-anchor:middle;" transform="rotate(0, 2199.34, 1415.78)" x="2199.34" y="1415.78">4</text>
</g>
<g clip-path="url(#clip3500)">
<text style="fill:#000000; fill-opacity:1; font-family:Arial,Helvetica Neue,Helvetica,sans-serif; font-size:48px; text-anchor:end;" transform="rotate(0, 205.135, 1356.18)" x="205.135" y="1356.18">0</text>
</g>
<g clip-path="url(#clip3500)">
<text style="fill:#000000; fill-opacity:1; font-family:Arial,Helvetica Neue,Helvetica,sans-serif; font-size:48px; text-anchor:end;" transform="rotate(0, 205.135, 1125.61)" x="205.135" y="1125.61">100</text>
</g>
<g clip-path="url(#clip3500)">
<text style="fill:#000000; fill-opacity:1; font-family:Arial,Helvetica Neue,Helvetica,sans-serif; font-size:48px; text-anchor:end;" transform="rotate(0, 205.135, 895.047)" x="205.135" y="895.047">200</text>
</g>
<g clip-path="url(#clip3500)">
<text style="fill:#000000; fill-opacity:1; font-family:Arial,Helvetica Neue,Helvetica,sans-serif; font-size:48px; text-anchor:end;" transform="rotate(0, 205.135, 664.483)" x="205.135" y="664.483">300</text>
</g>
<g clip-path="url(#clip3500)">
<text style="fill:#000000; fill-opacity:1; font-family:Arial,Helvetica Neue,Helvetica,sans-serif; font-size:48px; text-anchor:end;" transform="rotate(0, 205.135, 433.919)" x="205.135" y="433.919">400</text>
</g>
<g clip-path="url(#clip3500)">
<text style="fill:#000000; fill-opacity:1; font-family:Arial,Helvetica Neue,Helvetica,sans-serif; font-size:48px; text-anchor:end;" transform="rotate(0, 205.135, 203.354)" x="205.135" y="203.354">500</text>
</g>
<g clip-path="url(#clip3500)">
<text style="fill:#000000; fill-opacity:1; font-family:Arial,Helvetica Neue,Helvetica,sans-serif; font-size:84px; text-anchor:middle;" transform="rotate(0, 1242.47, 73.2)" x="1242.47" y="73.2">mean path (n = 10)</text>
</g>
<g clip-path="url(#clip3500)">
<text style="fill:#000000; fill-opacity:1; font-family:Arial,Helvetica Neue,Helvetica,sans-serif; font-size:66px; text-anchor:middle;" transform="rotate(0, 1242.47, 1495.16)" x="1242.47" y="1495.16">t</text>
</g>
<g clip-path="url(#clip3500)">
<text style="fill:#000000; fill-opacity:1; font-family:Arial,Helvetica Neue,Helvetica,sans-serif; font-size:66px; text-anchor:middle;" transform="rotate(-90, 90.2461, 741.967)" x="90.2461" y="741.967">E(X_t)</text>
</g>
<circle clip-path="url(#clip3502)" style="fill:#000000; stroke:none; fill-opacity:1" cx="285.588" cy="1327.15" r="18"/>
<circle clip-path="url(#clip3502)" style="fill:#009af9; stroke:none; fill-opacity:1" cx="285.588" cy="1327.15" r="14"/>
<circle clip-path="url(#clip3502)" style="fill:#000000; stroke:none; fill-opacity:1" cx="476.963" cy="1317" r="18"/>
<circle clip-path="url(#clip3502)" style="fill:#009af9; stroke:none; fill-opacity:1" cx="476.963" cy="1317" r="14"/>
<circle clip-path="url(#clip3502)" style="fill:#000000; stroke:none; fill-opacity:1" cx="668.339" cy="1309.16" r="18"/>
<circle clip-path="url(#clip3502)" style="fill:#009af9; stroke:none; fill-opacity:1" cx="668.339" cy="1309.16" r="14"/>
<circle clip-path="url(#clip3502)" style="fill:#000000; stroke:none; fill-opacity:1" cx="859.715" cy="1295.56" r="18"/>
<circle clip-path="url(#clip3502)" style="fill:#009af9; stroke:none; fill-opacity:1" cx="859.715" cy="1295.56" r="14"/>
<circle clip-path="url(#clip3502)" style="fill:#000000; stroke:none; fill-opacity:1" cx="1051.09" cy="1271.58" r="18"/>
<circle clip-path="url(#clip3502)" style="fill:#009af9; stroke:none; fill-opacity:1" cx="1051.09" cy="1271.58" r="14"/>
<circle clip-path="url(#clip3502)" style="fill:#000000; stroke:none; fill-opacity:1" cx="1242.47" cy="1234" r="18"/>
<circle clip-path="url(#clip3502)" style="fill:#009af9; stroke:none; fill-opacity:1" cx="1242.47" cy="1234" r="14"/>
<circle clip-path="url(#clip3502)" style="fill:#000000; stroke:none; fill-opacity:1" cx="1433.84" cy="1190.65" r="18"/>
<circle clip-path="url(#clip3502)" style="fill:#009af9; stroke:none; fill-opacity:1" cx="1433.84" cy="1190.65" r="14"/>
<circle clip-path="url(#clip3502)" style="fill:#000000; stroke:none; fill-opacity:1" cx="1625.22" cy="1120.56" r="18"/>
<circle clip-path="url(#clip3502)" style="fill:#009af9; stroke:none; fill-opacity:1" cx="1625.22" cy="1120.56" r="14"/>
<circle clip-path="url(#clip3502)" style="fill:#000000; stroke:none; fill-opacity:1" cx="1816.59" cy="1011.97" r="18"/>
<circle clip-path="url(#clip3502)" style="fill:#009af9; stroke:none; fill-opacity:1" cx="1816.59" cy="1011.97" r="14"/>
<circle clip-path="url(#clip3502)" style="fill:#000000; stroke:none; fill-opacity:1" cx="2007.97" cy="858.18" r="18"/>
<circle clip-path="url(#clip3502)" style="fill:#009af9; stroke:none; fill-opacity:1" cx="2007.97" cy="858.18" r="14"/>
<circle clip-path="url(#clip3502)" style="fill:#000000; stroke:none; fill-opacity:1" cx="2199.34" cy="617.01" r="18"/>
<circle clip-path="url(#clip3502)" style="fill:#009af9; stroke:none; fill-opacity:1" cx="2199.34" cy="617.01" r="14"/>
<polyline clip-path="url(#clip3502)" style="stroke:#009af9; stroke-width:4; stroke-opacity:1; fill:none" points="
  285.588,1327.15 285.588,1327.15 
  "/>
<polyline clip-path="url(#clip3502)" style="stroke:#009af9; stroke-width:4; stroke-opacity:1; fill:none" points="
  476.963,1322.01 476.963,1312 
  "/>
<polyline clip-path="url(#clip3502)" style="stroke:#009af9; stroke-width:4; stroke-opacity:1; fill:none" points="
  668.339,1317.5 668.339,1300.83 
  "/>
<polyline clip-path="url(#clip3502)" style="stroke:#009af9; stroke-width:4; stroke-opacity:1; fill:none" points="
  859.715,1307.86 859.715,1283.26 
  "/>
<polyline clip-path="url(#clip3502)" style="stroke:#009af9; stroke-width:4; stroke-opacity:1; fill:none" points="
  1051.09,1296.35 1051.09,1246.81 
  "/>
<polyline clip-path="url(#clip3502)" style="stroke:#009af9; stroke-width:4; stroke-opacity:1; fill:none" points="
  1242.47,1281.97 1242.47,1186.03 
  "/>
<polyline clip-path="url(#clip3502)" style="stroke:#009af9; stroke-width:4; stroke-opacity:1; fill:none" points="
  1433.84,1257.44 1433.84,1123.87 
  "/>
<polyline clip-path="url(#clip3502)" style="stroke:#009af9; stroke-width:4; stroke-opacity:1; fill:none" points="
  1625.22,1240.65 1625.22,1000.47 
  "/>
<polyline clip-path="url(#clip3502)" style="stroke:#009af9; stroke-width:4; stroke-opacity:1; fill:none" points="
  1816.59,1203.29 1816.59,820.646 
  "/>
<polyline clip-path="url(#clip3502)" style="stroke:#009af9; stroke-width:4; stroke-opacity:1; fill:none" points="
  2007.97,1160.71 2007.97,555.647 
  "/>
<polyline clip-path="url(#clip3502)" style="stroke:#009af9; stroke-width:4; stroke-opacity:1; fill:none" points="
  2199.34,1077.23 2199.34,156.786 
  "/>
<line clip-path="url(#clip3502)" x1="305.588" y1="1327.15" x2="265.588" y2="1327.15" style="stroke:#000000; stroke-width:4; stroke-opacity:1"/>
<line clip-path="url(#clip3502)" x1="305.588" y1="1327.15" x2="265.588" y2="1327.15" style="stroke:#000000; stroke-width:4; stroke-opacity:1"/>
<line clip-path="url(#clip3502)" x1="496.963" y1="1322.01" x2="456.963" y2="1322.01" style="stroke:#000000; stroke-width:4; stroke-opacity:1"/>
<line clip-path="url(#clip3502)" x1="496.963" y1="1312" x2="456.963" y2="1312" style="stroke:#000000; stroke-width:4; stroke-opacity:1"/>
<line clip-path="url(#clip3502)" x1="688.339" y1="1317.5" x2="648.339" y2="1317.5" style="stroke:#000000; stroke-width:4; stroke-opacity:1"/>
<line clip-path="url(#clip3502)" x1="688.339" y1="1300.83" x2="648.339" y2="1300.83" style="stroke:#000000; stroke-width:4; stroke-opacity:1"/>
<line clip-path="url(#clip3502)" x1="879.715" y1="1307.86" x2="839.715" y2="1307.86" style="stroke:#000000; stroke-width:4; stroke-opacity:1"/>
<line clip-path="url(#clip3502)" x1="879.715" y1="1283.26" x2="839.715" y2="1283.26" style="stroke:#000000; stroke-width:4; stroke-opacity:1"/>
<line clip-path="url(#clip3502)" x1="1071.09" y1="1296.35" x2="1031.09" y2="1296.35" style="stroke:#000000; stroke-width:4; stroke-opacity:1"/>
<line clip-path="url(#clip3502)" x1="1071.09" y1="1246.81" x2="1031.09" y2="1246.81" style="stroke:#000000; stroke-width:4; stroke-opacity:1"/>
<line clip-path="url(#clip3502)" x1="1262.47" y1="1281.97" x2="1222.47" y2="1281.97" style="stroke:#000000; stroke-width:4; stroke-opacity:1"/>
<line clip-path="url(#clip3502)" x1="1262.47" y1="1186.03" x2="1222.47" y2="1186.03" style="stroke:#000000; stroke-width:4; stroke-opacity:1"/>
<line clip-path="url(#clip3502)" x1="1453.84" y1="1257.44" x2="1413.84" y2="1257.44" style="stroke:#000000; stroke-width:4; stroke-opacity:1"/>
<line clip-path="url(#clip3502)" x1="1453.84" y1="1123.87" x2="1413.84" y2="1123.87" style="stroke:#000000; stroke-width:4; stroke-opacity:1"/>
<line clip-path="url(#clip3502)" x1="1645.22" y1="1240.65" x2="1605.22" y2="1240.65" style="stroke:#000000; stroke-width:4; stroke-opacity:1"/>
<line clip-path="url(#clip3502)" x1="1645.22" y1="1000.47" x2="1605.22" y2="1000.47" style="stroke:#000000; stroke-width:4; stroke-opacity:1"/>
<line clip-path="url(#clip3502)" x1="1836.59" y1="1203.29" x2="1796.59" y2="1203.29" style="stroke:#000000; stroke-width:4; stroke-opacity:1"/>
<line clip-path="url(#clip3502)" x1="1836.59" y1="820.646" x2="1796.59" y2="820.646" style="stroke:#000000; stroke-width:4; stroke-opacity:1"/>
<line clip-path="url(#clip3502)" x1="2027.97" y1="1160.71" x2="1987.97" y2="1160.71" style="stroke:#000000; stroke-width:4; stroke-opacity:1"/>
<line clip-path="url(#clip3502)" x1="2027.97" y1="555.647" x2="1987.97" y2="555.647" style="stroke:#000000; stroke-width:4; stroke-opacity:1"/>
<line clip-path="url(#clip3502)" x1="2219.34" y1="1077.23" x2="2179.34" y2="1077.23" style="stroke:#000000; stroke-width:4; stroke-opacity:1"/>
<line clip-path="url(#clip3502)" x1="2219.34" y1="156.786" x2="2179.34" y2="156.786" style="stroke:#000000; stroke-width:4; stroke-opacity:1"/>
</svg>
